<?xml version="1.0" encoding="UTF-8"?>
<svg xmlns="http://www.w3.org/2000/svg" id="Layer_1" data-name="Layer 1" viewBox="0 0 24 24">
  <path d="m20,24c-.695,0-1.291-.449-1.482-1.118l-.311-1.089-1.089-.311c-.669-.191-1.118-.787-1.118-1.482s.449-1.292,1.118-1.482l1.089-.311.311-1.089c.191-.669.787-1.118,1.482-1.118s1.291.449,1.482,1.118l.311,1.089,1.089.311c.669.191,1.118.787,1.118,1.482s-.449,1.292-1.118,1.482l-1.089.311-.311,1.089c-.191.669-.787,1.118-1.482,1.118Zm0-7c-.096,0-.417.028-.521.393l-.463,1.623-1.622.464c-.365.104-.394.425-.394.521s.028.417.394.521l1.622.464.463,1.623c.104.364.426.393.521.393s.417-.028.521-.393l.463-1.623,1.622-.464c.365-.104.394-.425.394-.521s-.028-.417-.394-.521l-1.622-.464-.463-1.623c-.104-.364-.426-.393-.521-.393Zm-15-5c-.552,0-1,.448-1,1s.448,1,1,1,1-.448,1-1-.448-1-1-1ZM1,8c-.552,0-1,.448-1,1s.448,1,1,1,1-.448,1-1-.448-1-1-1Zm4-4c-.552,0-1,.448-1,1s.448,1,1,1,1-.448,1-1-.448-1-1-1ZM1,0C.448,0,0,.448,0,1s.448,1,1,1,1-.448,1-1-.448-1-1-1Zm22,12c-.552,0-1,.448-1,1s.448,1,1,1,1-.448,1-1-.448-1-1-1Zm-4-4c-.552,0-1,.448-1,1s.448,1,1,1,1-.448,1-1-.448-1-1-1Zm4-4c-.552,0-1,.448-1,1s.448,1,1,1,1-.448,1-1-.448-1-1-1ZM19,0c-.552,0-1,.448-1,1s.448,1,1,1,1-.448,1-1-.448-1-1-1Zm-5,22c-.552,0-1,.448-1,1s.448,1,1,1,1-.448,1-1-.448-1-1-1Zm-4-4c-.552,0-1,.448-1,1s.448,1,1,1,1-.448,1-1-.448-1-1-1Zm4-4c-.552,0-1,.448-1,1s.448,1,1,1,1-.448,1-1-.448-1-1-1Zm-4-4c-.552,0-1,.448-1,1s.448,1,1,1,1-.448,1-1-.448-1-1-1Zm2-2c-.695,0-1.291-.449-1.482-1.118l-.311-1.089-1.089-.311c-.669-.191-1.118-.787-1.118-1.482s.449-1.292,1.118-1.482l1.089-.311.311-1.089c.191-.669.787-1.118,1.482-1.118s1.291.449,1.482,1.118l.311,1.089,1.089.311c.669.191,1.118.787,1.118,1.482s-.449,1.292-1.118,1.482l-1.089.311-.311,1.089c-.191.669-.787,1.118-1.482,1.118Zm0-7c-.096,0-.417.028-.521.393l-.463,1.623-1.622.464c-.365.104-.394.425-.394.521s.028.417.394.521l1.622.464.463,1.623c.104.364.426.393.521.393s.417-.028.521-.393l.463-1.623,1.622-.464c.365-.104.394-.425.394-.521s-.028-.417-.394-.521l-1.622-.464-.463-1.623c-.104-.364-.426-.393-.521-.393ZM4,24c-.695,0-1.291-.449-1.482-1.118l-.311-1.089-1.089-.311c-.669-.191-1.118-.787-1.118-1.482s.449-1.292,1.118-1.482l1.089-.311.311-1.089c.191-.669.787-1.118,1.482-1.118s1.291.449,1.482,1.118l.311,1.089,1.089.311c.669.191,1.118.787,1.118,1.482s-.449,1.292-1.118,1.482l-1.089.311-.311,1.089c-.191.669-.787,1.118-1.482,1.118Zm0-7c-.096,0-.417.028-.521.393l-.463,1.623-1.622.464c-.365.104-.394.425-.394.521s.028.417.394.521l1.622.464.463,1.623c.104.364.426.393.521.393s.417-.028.521-.393l.463-1.623,1.622-.464c.365-.104.394-.425.394-.521s-.028-.417-.394-.521l-1.622-.464-.463-1.623c-.104-.364-.426-.393-.521-.393Z"/>
</svg>
