<?xml version="1.0" encoding="UTF-8"?>
<svg xmlns="http://www.w3.org/2000/svg" id="Layer_1" data-name="Layer 1" viewBox="0 0 24 24">
  <path d="m23.392,14.221c-.38-.239-.849-.268-1.257-.074l-.397.191c-1.932.93-5.525,2.662-9.737,2.662s-7.806-1.732-9.737-2.662l-.397-.19c-.409-.196-.879-.166-1.257.073-.381.241-.608.654-.608,1.107v8.172c0,.276.224.5.5.5s.5-.224.5-.5v-8.172c0-.155.1-.234.143-.261.042-.026.156-.081.293-.016l.394.188c2.003.965,5.73,2.761,10.171,2.761s8.168-1.796,10.171-2.761l.394-.189c.139-.064.252-.009.293.017.043.027.143.106.143.261v8.172c0,.276.224.5.5.5s.5-.224.5-.5v-8.172c0-.453-.228-.866-.608-1.107Z"/>
  <path d="m19.5,19c-.276,0-.5.224-.5.5v4c0,.276.224.5.5.5s.5-.224.5-.5v-4c0-.276-.224-.5-.5-.5Z"/>
  <path d="m15.5,20c-.276,0-.5.224-.5.5v3c0,.276.224.5.5.5s.5-.224.5-.5v-3c0-.276-.224-.5-.5-.5Z"/>
  <path d="m10.5,20c-.276,0-.5.224-.5.5v3c0,.276.224.5.5.5s.5-.224.5-.5v-3c0-.276-.224-.5-.5-.5Z"/>
  <path d="m5.5,19c-.276,0-.5.224-.5.5v4c0,.276.224.5.5.5s.5-.224.5-.5v-4c0-.276-.224-.5-.5-.5Z"/>
  <path d="m17.5,5c1.379,0,2.5-1.122,2.5-2.5s-1.121-2.5-2.5-2.5-2.5,1.122-2.5,2.5,1.121,2.5,2.5,2.5Zm0-4c.827,0,1.5.673,1.5,1.5s-.673,1.5-1.5,1.5-1.5-.673-1.5-1.5.673-1.5,1.5-1.5Z"/>
  <path d="m12.5,5c.21,0,.42-.026.624-.079.268-.068.429-.341.36-.608-.067-.268-.339-.429-.608-.36-.923.237-1.876-.499-1.876-1.453s.952-1.687,1.876-1.453c.271.071.541-.093.608-.36.068-.268-.093-.54-.36-.608-.204-.052-.414-.079-.624-.079-1.379,0-2.5,1.122-2.5,2.5s1.121,2.5,2.5,2.5Z"/>
  <path d="m7.5,5c.21,0,.42-.026.624-.079.268-.068.429-.341.36-.608s-.339-.429-.608-.36c-.925.237-1.876-.499-1.876-1.453s.95-1.687,1.876-1.453c.271.071.541-.093.608-.36.068-.268-.093-.54-.36-.608-.204-.052-.414-.079-.624-.079-1.379,0-2.5,1.122-2.5,2.5s1.121,2.5,2.5,2.5Z"/>
  <path d="m13,14.5c0,.276.224.5.5.5s.5-.224.5-.5v-5c0-1.378,1.121-2.5,2.5-2.5h2c1.379,0,2.5,1.122,2.5,2.5v3c0,.276.224.5.5.5s.5-.224.5-.5v-3c0-1.93-1.57-3.5-3.5-3.5h-2c-1.93,0-3.5,1.57-3.5,3.5v5Z"/>
  <path d="m8,14c0,.276.224.5.5.5s.5-.224.5-.5v-4.5c0-1.378,1.121-2.5,2.5-2.5h.5c.276,0,.5-.224.5-.5s-.224-.5-.5-.5h-.5c-1.93,0-3.5,1.57-3.5,3.5v4.5Z"/>
  <path d="m3.5,13c.276,0,.5-.224.5-.5v-3c0-1.378,1.121-2.5,2.5-2.5h.5c.276,0,.5-.224.5-.5s-.224-.5-.5-.5h-.5c-1.93,0-3.5,1.57-3.5,3.5v3c0,.276.224.5.5.5Z"/>
</svg>
