<?xml version="1.0" encoding="UTF-8"?>
<svg xmlns="http://www.w3.org/2000/svg" id="Layer_1" data-name="Layer 1" viewBox="0 0 24 24">
  <path d="m11,12c0,1.379-1.122,2.5-2.5,2.5-1.402,0-2.5-1.148-2.5-2.615v-4.885h-.274c-1.339,0-2.508.905-2.843,2.202l-.698,2.707c-.233.904-.691,1.744-1.324,2.43-.099.107-.233.161-.368.161-.121,0-.243-.044-.339-.133-.203-.187-.216-.503-.029-.706.521-.565.899-1.258,1.091-2.002l.698-2.707c.45-1.738,2.017-2.952,3.812-2.952h.274v-.615c0-1.653,1.208-3.164,2.873-3.594l2.355-.55c.691-.162,1.251-.483,1.934-1.109.203-.188.519-.173.707.03.187.204.173.52-.03.707-.571.524-1.3,1.094-2.383,1.347l-2.344.547c-1.219.314-2.111,1.419-2.111,2.623v6.5c0,.921.645,1.615,1.5,1.615.827,0,1.5-.673,1.5-1.5v-5.5c0-.276.224-.5.5-.5s.5.224.5.5v2.5h7.208c.383,0,.748-.145,1.026-.407l.906-.94c.193-.199.508-.204.707-.013s.205.508.013.707l-.923.958c-.482.455-1.09.695-1.729.695h-7.208v2Zm13,5.5c0,3.584-2.916,6.5-6.5,6.5s-6.5-2.916-6.5-6.5,2.916-6.5,6.5-6.5,6.5,2.916,6.5,6.5Zm-1,0c0-3.032-2.467-5.5-5.5-5.5s-5.5,2.468-5.5,5.5,2.467,5.5,5.5,5.5,5.5-2.468,5.5-5.5Zm-2.857-1.369l-2.706,2.618c-.336.33-.885.334-1.223.004l-1.363-1.345c-.195-.194-.513-.191-.707.004-.194.197-.192.514.005.707l1.364,1.347c.362.354.837.531,1.312.531s.951-.178,1.311-.533l2.703-2.614c.198-.192.204-.509.012-.707s-.508-.203-.707-.012Zm-11.85,3.594c-.273.125-.52.296-.732.508l-.914.914c-.195.195-.195.512,0,.707.098.098.226.146.354.146s.256-.049.354-.146l.914-.914c.127-.127.275-.229.44-.305.251-.114.362-.411.248-.662-.115-.253-.412-.362-.663-.248Z"/>
</svg>
