<?xml version="1.0" encoding="UTF-8"?>
<svg xmlns="http://www.w3.org/2000/svg" id="Layer_1" data-name="Layer 1" viewBox="0 0 24 24">
  <path d="m22.5,5h-9.06l.336-2.687c.094-.749.734-1.313,1.489-1.313h4.235c.276,0,.5-.224.5-.5s-.224-.5-.5-.5h-4.235c-1.258,0-2.325.941-2.481,2.189l-.352,2.811H1.5c-.276,0-.5.224-.5.5s.224.5.5.5h1.056l1.656,14.027c.268,2.265,2.189,3.973,4.469,3.973h6.639c2.28,0,4.202-1.708,4.469-3.973l1.656-14.027h1.056c.276,0,.5-.224.5-.5s-.224-.5-.5-.5Zm-3.705,14.91c-.208,1.762-1.702,3.09-3.476,3.09h-6.639c-1.774,0-3.268-1.328-3.476-3.09l-.489-4.143c.603-.426,2.633-1.767,4.246-1.767.938,0,1.91.462,2.939.952,1.084.515,2.205,1.048,3.369,1.048,1.493,0,3.173-.89,4.167-1.513l-.64,5.423Zm.794-6.73c-.494.355-2.636,1.819-4.321,1.819-.938,0-1.91-.462-2.939-.952-1.084-.515-2.205-1.048-3.369-1.048-1.606,0-3.427,1.029-4.378,1.648l-1.021-8.648h16.875l-.848,7.181Z"/>
</svg>
