<?xml version="1.0" encoding="UTF-8"?>
<svg xmlns="http://www.w3.org/2000/svg" id="Layer_1" data-name="Layer 1" viewBox="0 0 24 24">
  <path d="m23.73.057c-.24-.127-.546-.032-.674.212l-9.229,17.731H3c-1.654,0-3,1.346-3,3s1.346,3,3,3h6.102c1.684,0,3.214-.928,3.992-2.423L23.943.731c.128-.245.032-.547-.213-.674Zm-11.523,21.059c-.605,1.163-1.796,1.885-3.105,1.885H3c-1.103,0-2-.897-2-2s.897-2,2-2h10.308l-1.101,2.115Zm10.293-.115h-3c-.827,0-1.5.673-1.5,1.5s.673,1.5,1.5,1.5h3c.827,0,1.5-.673,1.5-1.5s-.673-1.5-1.5-1.5Zm0,2h-3c-.275,0-.5-.225-.5-.5s.225-.5.5-.5h3c.275,0,.5.225.5.5s-.225.5-.5.5Z"/>
</svg>
