<?xml version="1.0" encoding="UTF-8"?>
<svg xmlns="http://www.w3.org/2000/svg" id="Layer_1" data-name="Layer 1" viewBox="0 0 24 24">
  <path d="m14,5.5c0,.276-.224.5-.5.5H4.5c-.276,0-.5-.224-.5-.5s.224-.5.5-.5h9c.276,0,.5.224.5.5Zm-2.5,3.5h-5c-.276,0-.5.224-.5.5s.224.5.5.5h5c.276,0,.5-.224.5-.5s-.224-.5-.5-.5Zm11.5,7.708v2.792c0,2.481-2.019,4.5-4.5,4.5H5.5c-2.481,0-4.5-2.019-4.5-4.5V4.5C1,2.019,3.019,0,5.5,0h11c2.481,0,4.5,2.019,4.5,4.5v6.792c0,.386.091.772.264,1.118l1.367,2.733c.241.484.369,1.025.369,1.565Zm-17.5,6.292h10.5V1H5.5c-1.93,0-3.5,1.57-3.5,3.5v15c0,1.93,1.57,3.5,3.5,3.5Zm16.5-6.292c0-.386-.091-.772-.264-1.118l-1.367-2.733c-.241-.484-.369-1.025-.369-1.565v-6.792c0-1.76-1.306-3.221-3-3.464v21.964h1.5c1.93,0,3.5-1.57,3.5-3.5v-2.792Z"/>
</svg>
