<?xml version="1.0" encoding="UTF-8"?>
<svg xmlns="http://www.w3.org/2000/svg" id="Layer_1" data-name="Layer 1" viewBox="0 0 24 24">
  <path d="m20,11v.5c0,.276-.224.5-.5.5s-.5-.224-.5-.5v-.5c0-3.309-2.691-6-6-6h-.5c-.276,0-.5-.224-.5-.5s.224-.5.5-.5h.5c3.86,0,7,3.141,7,7Zm-4.5,1c.276,0,.5-.224.5-.5v-.5c0-1.654-1.346-3-3-3h-.5c-.276,0-.5.224-.5.5s.224.5.5.5h.5c1.103,0,2,.897,2,2v.5c0,.276.224.5.5.5ZM13,0h-.5c-.276,0-.5.224-.5.5s.224.5.5.5h.5c5.514,0,10,4.486,10,10v.5c0,.276.224.5.5.5s.5-.224.5-.5v-.5C24,4.935,19.065,0,13,0Zm3.362,18.941c.467.467.695,1.112.626,1.771-.07.667-.434,1.259-.998,1.625-1.711,1.11-3.666,1.653-5.612,1.653-2.684,0-5.352-1.031-7.344-3.023C-.403,17.529-.979,12.08,1.664,8.01c.366-.564.959-.928,1.625-.998.655-.067,1.303.159,1.77.626l5.298,5.298,1.79-1.79c.195-.195.512-.195.707,0s.195.512,0,.707l-1.79,1.79,5.298,5.298Zm-.369,1.666c.038-.356-.085-.706-.338-.959L4.352,8.345c-.223-.223-.521-.345-.833-.345-.519,0-.815.244-1.017.555C.115,12.231.635,17.154,3.741,20.26c3.105,3.104,8.028,3.624,11.705,1.238.31-.201.51-.525.548-.891Z"/>
</svg>
