<?xml version="1.0" encoding="UTF-8"?>
<svg xmlns="http://www.w3.org/2000/svg" id="Layer_1" data-name="Layer 1" viewBox="0 0 24 24">
  <path d="m13,0h-7c-1.86,0-3.428,1.276-3.873,3H.5c-.276,0-.5.224-.5.5s.224.5.5.5h1.5v3.5H.5c-.276,0-.5.224-.5.5s.224.5.5.5h1.5v3H.5c-.276,0-.5.224-.5.5s.224.5.5.5h1.5v3H.5c-.276,0-.5.224-.5.5s.224.5.5.5h1.5v3.5H.5c-.276,0-.5.224-.5.5s.224.5.5.5h1.627c.445,1.724,2.013,3,3.873,3h7c2.206,0,4-1.794,4-4V4c0-2.206-1.794-4-4-4Zm3,20c0,1.654-1.346,3-3,3h-7c-1.654,0-3-1.346-3-3V4c0-1.654,1.346-3,3-3h7c1.654,0,3,1.346,3,3v16Zm-3-13.5c0,.276-.224.5-.5.5h-6c-.276,0-.5-.224-.5-.5s.224-.5.5-.5h6c.276,0,.5.224.5.5ZM21.5,0c-1.378,0-2.5,1.121-2.5,2.5v17.758c0,.922.374,1.823,1.025,2.475l1.121,1.121c.098.098.226.146.354.146s.256-.049.354-.146l1.121-1.121c.652-.651,1.025-1.553,1.025-2.475V2.5c0-1.379-1.122-2.5-2.5-2.5Zm1.5,20.258c0,.658-.267,1.303-.732,1.768l-.768.768-.768-.768c-.465-.465-.732-1.109-.732-1.768V2.5c0-.827.673-1.5,1.5-1.5s1.5.673,1.5,1.5v17.758Z"/>
</svg>
