<?xml version="1.0" encoding="UTF-8"?>
<svg xmlns="http://www.w3.org/2000/svg" id="Layer_1" data-name="Layer 1" viewBox="0 0 24 24">
  <path d="m22.541,14.007c-.264-.041-.53.137-.576.41-.121.718-.557,1.346-1.195,1.722-.483.286-.771.792-.77,1.362,0,.927-.498,1.783-1.271,2.181-.695.36-1.386.417-2.056.168-.474-.175-.991-.048-1.323.321-.791.881-2.187,1.08-3.186.432-.404-.261-.926-.261-1.33,0-.999.646-2.394.448-3.186-.432-.331-.368-.85-.495-1.323-.321-.667.248-1.358.192-2.056-.168-.772-.398-1.271-1.254-1.271-2.187,0-.563-.286-1.07-.77-1.356-.771-.454-1.23-1.253-1.23-2.139s.46-1.685,1.23-2.139c.483-.286.771-.792.77-1.362,0-.927.498-1.783,1.271-2.181.693-.359,1.383-.416,2.055-.169.469.173.992.049,1.325-.321.663-.739,1.754-1.019,2.68-.683.256.094.546-.041.64-.3.095-.26-.04-.546-.3-.641-1.304-.473-2.833-.081-3.763.954-.059.064-.147.084-.236.052-.93-.342-1.918-.266-2.859.219-1.102.568-1.812,1.773-1.812,3.079,0,.205-.104.389-.277.492-1.079.635-1.723,1.757-1.723,3s.644,2.365,1.723,3c.174.103.278.287.277.5,0,1.297.71,2.503,1.812,3.071.391.201.789.315,1.188.375v1.555c0,.827.673,1.5,1.5,1.5s1.5-.673,1.5-1.5v-.867c1.065.494,2.366.463,3.378-.19.074-.049.17-.049.244,0,.564.364,1.213.557,1.878.557.944,0,1.843-.396,2.5-1.075v1.575c0,.827.673,1.5,1.5,1.5s1.5-.673,1.5-1.5v-1.854c.063-.029.126-.044.188-.076,1.102-.568,1.812-1.773,1.812-3.079,0-.205.104-.389.277-.492.893-.526,1.503-1.407,1.674-2.417.046-.272-.138-.53-.41-.577Zm-15.541,8.493c0,.276-.225.5-.5.5s-.5-.224-.5-.5v-1.541c.226-.034.451-.088.672-.17.089-.034.177-.012.233.051.033.036.073.064.107.099-.003.021-.012,1.562-.012,1.562Zm11,0c0,.276-.225.5-.5.5s-.5-.224-.5-.5v-1.541c.331.05.666.036,1-.014v1.555Zm-1-15.5c0,.552-.448,1-1,1s-1-.448-1-1,.448-1,1-1,1,.448,1,1Zm3,0c0,.552-.448,1-1,1s-1-.448-1-1,.448-1,1-1,1,.448,1,1Zm3.458-3.518c-.706-.167-1.912-.402-3.277-.574-.21-.157-.435-.293-.671-.412.146-.77.453-1.496,1.989-1.496.276,0,.5-.224.5-.5s-.224-.5-.5-.5c-2.27,0-2.773,1.365-2.94,2.14-.342-.083-.693-.14-1.06-.14s-.719.056-1.06.14c-.166-.774-.669-2.14-2.94-2.14-.276,0-.5.224-.5.5s.224.5.5.5c1.536,0,1.843.726,1.989,1.496-.236.119-.461.254-.671.412-1.364.172-2.571.407-3.277.574-.475.113-.689.658-.431,1.072.407.653,1.148,1.104,1.955,1.298-.031.213-.065.426-.065.648v3.879c0,2.268,1.683,3.621,4.5,3.621s4.5-1.354,4.5-3.621v-3.879c0-.222-.034-.435-.065-.648.807-.194,1.548-.644,1.955-1.298.258-.414.044-.96-.431-1.072Zm-2.458,6.897c0,2.281-2.192,2.621-3.5,2.621s-3.5-.34-3.5-2.621v-3.879c0-1.93,1.57-3.5,3.5-3.5s3.5,1.57,3.5,3.5v3.879Z"/>
</svg>
