<?xml version="1.0" encoding="UTF-8"?>
<svg xmlns="http://www.w3.org/2000/svg" id="Layer_1" data-name="Layer 1" viewBox="0 0 24 24">
  <path d="m7.571,12.657c-.143-.237-.065-.544.172-.686l3.757-2.254v-5.217c0-.276.224-.5.5-.5s.5.224.5.5v5.5c0,.176-.092.338-.243.429l-4,2.4c-.08.048-.169.071-.257.071-.169,0-.335-.086-.429-.243Zm14.429-2.157v9c0,2.481-2.019,4.5-4.5,4.5H6.5c-2.481,0-4.5-2.019-4.5-4.5v-9c0-.053.008-1.132.024-1.18C2.374,4.122,6.715,0,12,0s9.626,4.122,9.976,9.32c.015.048.024,1.127.024,1.18Zm-19-.5c0,4.962,4.037,9,9,9s9-4.038,9-9S16.963,1,12,1,3,5.038,3,10Zm18,4.356c-1.622,3.338-5.047,5.644-9,5.644s-7.378-2.306-9-5.644v5.144c0,1.93,1.57,3.5,3.5,3.5h11c1.93,0,3.5-1.57,3.5-3.5v-5.144Z"/>
</svg>
