<?xml version="1.0" encoding="UTF-8"?>
<svg xmlns="http://www.w3.org/2000/svg" id="Layer_1" data-name="Layer 1" viewBox="0 0 24 24">
  <path d="m23.987,6.054c-.062-.638-.405-1.208-.938-1.563l-5.488-3.658c-1.087-.725-2.393-.979-3.674-.719-1.281.262-2.388,1.018-3.114,2.128-.748,1.142-.94,2.55-.587,3.881l-2.281,2.282c-1.228,1.227-1.904,2.859-1.904,4.596v10H.5c-.276,0-.5.224-.5.5s.224.5.5.5h12c.276,0,.5-.224.5-.5s-.224-.5-.5-.5h-5.5v-10c0-1.47.572-2.851,1.611-3.889l1.964-1.965c.098.194.207.384.331.569l3.567,5.351c.355.533.925.875,1.562.938.071.007.143.011.213.011.562,0,1.102-.222,1.504-.624l.767-.767c.457.259.968.389,1.48.389.769,0,1.536-.292,2.121-.877.566-.566.879-1.319.879-2.121,0-.527-.136-1.034-.391-1.48l.764-.764c.453-.453.678-1.079.614-1.717Zm-1.987,3.961c0,.534-.208,1.036-.586,1.414-.579.579-1.428.727-2.146.446l2.593-2.593c.091.23.138.478.138.733Zm.666-2.951l-5.62,5.62c-.241.241-.576.357-.911.325-.339-.033-.641-.215-.829-.498l-3.567-5.351c-.902-1.354-.955-3.111-.13-4.372.58-.885,1.46-1.486,2.479-1.694.261-.054.523-.08.783-.08.755,0,1.493.222,2.136.65l5.488,3.658c.283.188.465.491.498.83.033.338-.085.67-.326.911Z"/>
</svg>
