<?xml version="1.0" encoding="UTF-8"?>
<svg xmlns="http://www.w3.org/2000/svg" id="Layer_1" data-name="Layer 1" viewBox="0 0 24 24">
  <path d="m17.94,21.133c-.309,1.661-1.758,2.867-3.446,2.867H3.506c-1.009,0-1.97-.437-2.635-1.197-.668-.763-.974-1.776-.839-2.781.489-3.656,3.258-6.08,5.669-8.021C3.29,10.058.521,7.635.032,3.979-.103,2.972.203,1.957.871,1.194,1.534.435,2.493,0,3.5,0h11.001c1.688,0,3.134,1.206,3.44,2.867.051.271-.129.532-.4.583-.267.051-.532-.129-.582-.401-.22-1.187-1.253-2.049-2.458-2.049H3.5c-.719,0-1.402.311-1.877.852-.478.546-.696,1.273-.601,1.994.47,3.508,3.42,5.868,5.79,7.764.118.095.188.239.188.391s-.069.295-.188.391c-2.37,1.896-5.32,4.256-5.79,7.764-.096.719.123,1.444.601,1.99.476.543,1.162.855,1.883.855h10.988c1.206,0,2.242-.861,2.464-2.049.05-.273.315-.449.583-.4.271.051.45.312.399.583Zm.06-9.34v-3.293c0-.276-.224-.5-.5-.5s-.5.224-.5.5v3.5c0,.133.053.26.146.354l2,2c.098.098.226.146.354.146s.256-.049.354-.146c.195-.195.195-.512,0-.707l-1.854-1.854Zm-8.969,2.656c.124,0,.24.051.331.134-.003-.004.001-.002.027.018,1.938,1.549,4.399,3.546,5.013,5.766.042.15.011.312-.084.436-.094.125-.241.197-.397.197H4.139c-.156,0-.303-.074-.397-.197-.095-.124-.126-.285-.085-.435.602-2.208,2.979-4.138,5.017-5.769.026-.021.029-.022.025-.017.092-.083.208-.133.333-.133h0Zm0,1.175s0,0,0,0c-1.698,1.358-3.446,2.756-4.18,4.376h8.354c-.755-1.641-2.56-3.084-4.174-4.375Zm14.969-3.624c0,3.584-2.916,6.5-6.5,6.5s-6.5-2.916-6.5-6.5,2.916-6.5,6.5-6.5,6.5,2.916,6.5,6.5Zm-1,0c0-3.033-2.468-5.5-5.5-5.5s-5.5,2.467-5.5,5.5,2.468,5.5,5.5,5.5,5.5-2.467,5.5-5.5Z"/>
</svg>
