<?xml version="1.0" encoding="UTF-8"?>
<svg xmlns="http://www.w3.org/2000/svg" id="Layer_1" data-name="Layer 1" viewBox="0 0 24 24">
  <path d="m23,4.5c0-1.379-1.121-2.5-2.5-2.5h-.55c-.232-1.14-1.243-2-2.45-2H6.5c-1.208,0-2.217.86-2.45,2h-.55c-1.378,0-2.5,1.121-2.5,2.5,0,.816.393,1.542,1,1.999,0,.02,1.588,13.527,1.588,13.527.267,2.266,2.188,3.974,4.469,3.974h7.886c2.281,0,4.202-1.708,4.469-3.974,0,0,1.587-13.507,1.587-13.527.607-.456,1.001-1.183,1.001-1.999Zm-7.057,18.5h-7.886c-1.774,0-3.269-1.329-3.476-3.091l-.578-4.909h4.518c.194,2.247,1.68,4,3.478,4s3.284-1.753,3.478-4h4.519l-.577,4.909c-.208,1.762-1.702,3.091-3.477,3.091Zm-6.443-8.5c0-1.93,1.122-3.5,2.5-3.5s2.5,1.57,2.5,3.5-1.121,3.5-2.5,3.5-2.5-1.57-2.5-3.5Zm10.615-.5h-4.637c-.194-2.247-1.68-4-3.478-4s-3.284,1.753-3.478,4H3.886l-.828-7.04c.144.026.291.04.442.04h17c.151,0,.299-.014.443-.04l-.828,7.04Zm.385-8H3.5c-.827,0-1.5-.673-1.5-1.5s.673-1.5,1.5-1.5h1c.276,0,.5-.224.5-.5,0-.827.673-1.5,1.5-1.5h11c.827,0,1.5.673,1.5,1.5,0,.276.224.5.5.5h1c.827,0,1.5.673,1.5,1.5s-.673,1.5-1.5,1.5Z"/>
</svg>
