<?xml version="1.0" encoding="UTF-8"?>
<svg xmlns="http://www.w3.org/2000/svg" id="Layer_1" data-name="Layer 1" viewBox="0 0 24 24">
  <path d="m20.349,4.081l-.849-1.699c-.426-.853-1.283-1.382-2.236-1.382h-1.764c-.276,0-.5.224-.5.5s.224.5.5.5h1.764c.572,0,1.086.317,1.342.829l.585,1.171h-4.882l-.809-1.618c-.426-.853-1.283-1.382-2.236-1.382h-1.764c-.276,0-.5.224-.5.5s.224.5.5.5h1.764c.572,0,1.085.317,1.341.829l.585,1.171h-4.882l-1.085-2.171c-.256-.512-.77-.829-1.342-.829h-1.382C2.019,1,0,3.019,0,5.5v13c0,2.481,2.019,4.5,4.5,4.5h15c2.481,0,4.5-2.019,4.5-4.5v-10c0-2.191-1.574-4.021-3.651-4.419ZM4.5,2h1.382c.191,0,.362.105.447.276l1.224,2.447c.085.169.258.276.447.276h11.5c1.76,0,3.221,1.306,3.464,3H1v-2.5c0-1.93,1.57-3.5,3.5-3.5Zm15,20H4.5c-1.93,0-3.5-1.57-3.5-3.5v-9.5h22v9.5c0,1.93-1.57,3.5-3.5,3.5Z"/>
</svg>
