<?xml version="1.0" encoding="UTF-8"?>
<svg xmlns="http://www.w3.org/2000/svg" id="Layer_1" data-name="Layer 1" viewBox="0 0 24 24">
  <path d="m10.5,23h-6c-1.93,0-3.5-1.57-3.5-3.5v-4c0-1.93,1.57-3.5,3.5-3.5h6c1.246,0,2.408.671,3.032,1.75.092.16.26.25.433.25.085,0,.171-.021.25-.067.239-.138.321-.444.182-.683-.349-.604-.834-1.101-1.397-1.478v-1.772c0-.835-.516-1.551-1.245-1.85.155-.364.245-.751.245-1.15,0-1.654-1.346-3-3-3s-3,1.346-3,3c0,.344.064.68.18,1h-2.18c-1.103,0-2,.897-2,2v1.762c-1.205.808-2,2.182-2,3.738v4c0,2.481,2.019,4.5,4.5,4.5h6c.276,0,.5-.224.5-.5s-.224-.5-.5-.5ZM7,7c0-1.103.897-2,2-2s2,.897,2,2c0,.352-.095.692-.277,1h-3.446c-.182-.308-.277-.648-.277-1Zm-3,2h7c.551,0,1,.448,1,1v1H3v-1c0-.552.449-1,1-1ZM16,0c-1.654,0-3,1.346-3,3s1.346,3,3,3,3-1.346,3-3-1.346-3-3-3Zm0,5c-1.103,0-2-.897-2-2s.897-2,2-2,2,.897,2,2-.897,2-2,2Zm2,11.5v7c0,.276-.224.5-.5.5s-.5-.224-.5-.5v-7c0-.276.224-.5.5-.5s.5.224.5.5Zm3.5-.5h-1.5c-.551,0-1,.448-1,1v6.5c0,.276.224.5.5.5s.5-.224.5-.5v-2.5h1.5c1.378,0,2.5-1.121,2.5-2.5s-1.122-2.5-2.5-2.5Zm0,4h-1.5v-3h1.5c.827,0,1.5.673,1.5,1.5s-.673,1.5-1.5,1.5Zm-5.5-3.5c0,.276-.224.5-.5.5h-1.5v6.5c0,.276-.224.5-.5.5s-.5-.224-.5-.5v-6.5h-1.5c-.276,0-.5-.224-.5-.5s.224-.5.5-.5h4c.276,0,.5.224.5.5Z"/>
</svg>
