<?xml version="1.0" encoding="UTF-8"?>
<svg xmlns="http://www.w3.org/2000/svg" id="Layer_1" data-name="Layer 1" viewBox="0 0 24 24">
  <path d="m16.903,10.999c.032,0,.065,0,.098,0,1.05,0,2.038-.402,2.792-1.139.778-.76,1.207-1.776,1.207-2.861v-3.129c0-.363-.219-.682-.558-.812-.337-.129-.714-.041-.968.24l-.879,1.035c-1.004-.434-2.188-.434-3.191,0l-.89-1.048c-.242-.269-.62-.358-.957-.228-.339.131-.558.449-.558.812v3.063c0,2.189,1.751,4.013,3.903,4.064Zm-2.903-6.774l.896,1.055c.155.184.422.23.629.11.896-.512,2.055-.512,2.951,0,.206.12.473.073.629-.11l.896-1.055v2.775c0,.813-.321,1.575-.905,2.146s-1.354.886-2.168.854c-1.613-.039-2.927-1.413-2.927-3.064v-2.71Zm9.5,18.775h-1.5v-11.107c1.236-1.263,2-2.991,2-4.893,0-3.859-3.141-7-7-7s-7,3.141-7,7c0,1.391.408,2.688,1.11,3.778-6.432,3.971-6.109,11.534-6.105,11.585v.453c-1.993-.456-4.005-1.756-4.005-3.817,0-1.708.79-2.981,1.554-4.213.711-1.146,1.446-2.333,1.446-3.787,0-2.43-1.374-4-3.5-4-.276,0-.5.224-.5.5s.224.5.5.5c2.257,0,2.5,2.098,2.5,3,0,1.17-.601,2.139-1.296,3.26-.799,1.288-1.704,2.748-1.704,4.74,0,3.411,3.913,5,6.558,5h16.942c.276,0,.5-.224.5-.5s-.224-.5-.5-.5ZM17,1c3.309,0,6,2.691,6,6,0,3.601-3,6-6,6s-6-2.487-6-6c0-3.309,2.691-6,6-6ZM6.005,22.975v-.638c-.005-.072-.29-7.113,5.708-10.755,1.284,1.48,3.179,2.418,5.287,2.418,1.486,0,2.865-.466,4-1.259v10.259h-3v-1.5c0-2.775-2.725-5.5-5.5-5.5-.276,0-.5.224-.5.5s.224.5.5.5c2.229,0,4.5,2.271,4.5,4.5v1.5H6.558c-.18,0-.365-.008-.553-.025ZM2,2.908c.004-.229.164-.427.388-.479l1.702-.394.425-1.702c.111-.445.859-.445.971,0l.427,1.709,1.709.427c.223.056.379.256.379.485s-.156.43-.379.485l-1.709.427-.427,1.709c-.056.223-.256.379-.485.379s-.43-.156-.485-.379l-.429-1.715-1.716-.462c-.222-.06-.374-.262-.37-.491Z"/>
</svg>
