<?xml version="1.0" encoding="UTF-8"?>
<svg xmlns="http://www.w3.org/2000/svg" id="Layer_1" data-name="Layer 1" viewBox="0 0 24 24">
  <path d="m16.5,0H7.5C5.019,0,3,2.019,3,4.5v15c0,2.481,2.019,4.5,4.5,4.5h9c2.481,0,4.5-2.019,4.5-4.5V4.5c0-2.481-2.019-4.5-4.5-4.5Zm3.5,19.5c0,1.93-1.57,3.5-3.5,3.5H7.5c-1.93,0-3.5-1.57-3.5-3.5V4.5c0-1.93,1.57-3.5,3.5-3.5h9c1.93,0,3.5,1.57,3.5,3.5v15Zm-6.845-11.041c-.67-.554-1.641-.554-2.311,0-1.298,1.072-2.845,2.663-2.845,4.15,0,1.318,1.01,2.39,2.25,2.39.39,0,.751-.089,1.064-.248-.177.522-.4,1.013-.681,1.453-.221.345.003.795.413.795h1.907c.41,0,.633-.45.413-.795-.281-.439-.504-.93-.681-1.453.314.159.674.248,1.064.248,1.24,0,2.25-1.072,2.25-2.39,0-1.487-1.547-3.078-2.845-4.15Zm.595,5.541c-.668,0-1.153-.412-1.237-1.024,0-.01.002-.021.002-.031v-.212c0-.276-.224-.5-.5-.5-.236,0-.434.164-.486.384-.018.052-.029.107-.029.166,0,.717-.514,1.218-1.25,1.218-.689,0-1.25-.624-1.25-1.39,0-.845.904-2.076,2.481-3.38.301-.248.736-.248,1.037,0,1.577,1.304,2.481,2.535,2.481,3.38,0,.767-.561,1.39-1.25,1.39Z"/>
</svg>
