<?xml version="1.0" encoding="UTF-8"?>
<svg xmlns="http://www.w3.org/2000/svg" id="Layer_1" data-name="Layer 1" viewBox="0 0 24 24">
  <path d="m13.672,8.84c.188.103.394.155.604.155.254,0,.515-.076.758-.234l2.15-1.756,2.319-.003c1.377,0,2.498-1.123,2.498-2.5v-2.002c0-1.379-1.122-2.5-2.501-2.5l-4,.003c-.667,0-1.295.26-1.767.732s-.732,1.1-.731,1.768v5.206c.001.472.258.904.671,1.131Zm.768-7.397c.283-.283.659-.439,1.06-.439l4-.003c.828,0,1.501.673,1.501,1.5v2.002c0,.826-.672,1.499-1.499,1.5l-2.497.003c-.115,0-.227.04-.316.113l-2.24,1.835c-.132.085-.25.035-.296.01-.045-.024-.15-.1-.15-.254V2.503c-.001-.4.154-.777.438-1.061ZM4.498,7.002l2.319.003,2.197,1.79c.211.136.453.203.695.203.213,0,.426-.053.62-.158.413-.227.67-.659.67-1.131V2.503c.002-.668-.258-1.295-.73-1.768S9.168.003,8.501.003l-4-.003c-1.379,0-2.501,1.121-2.501,2.5v2.002c0,1.377,1.121,2.499,2.498,2.5Zm-1.498-4.502c0-.827.673-1.5,1.5-1.5l4,.003c.4,0,.777.156,1.06.439.283.283.439.66.439,1.061v5.206c-.001.154-.106.229-.152.254-.045.024-.162.072-.249.024l-2.288-1.869c-.089-.073-.201-.113-.316-.113l-2.497-.003c-.826,0-1.499-.674-1.499-1.5v-2.002Zm21,17c0,.276-.224.5-.5.5h-5.203l-4.201,3.279c-.596.465-1.34.721-2.096.721s-1.5-.256-2.096-.721l-4.201-3.279H.5c-.276,0-.5-.224-.5-.5s.224-.5.5-.5h5.375c.111,0,.22.037.308.105l4.337,3.385c.842.658,2.119.658,2.961,0l3.591-2.803-3.945-3.543c-.198-.179-.503-.17-.69.021l-1.263,1.281c-.587.587-1.539.587-2.123.003-.585-.585-.585-1.537,0-2.122l2.097-2.073-.809-.736c-.367-.335-.842-.519-1.338-.519-.215,0-.687.061-1.691.464-.884.355-1.796.536-2.71.536H.5c-.276,0-.5-.224-.5-.5s.224-.5.5-.5h4.098c.786,0,1.572-.156,2.337-.464.885-.355,1.572-.536,2.041-.536.769,0,1.483.276,2.035.778l.84.765s.004.007.007.009l.758-.75c.547-.515,1.274-.803,2.038-.803.503,0,1.346.214,2.503.637.661.241,1.368.363,2.103.363h4.24c.276,0,.5.224.5.5s-.224.5-.5.5h-4.24c-.852,0-1.675-.143-2.446-.424-1.003-.366-1.791-.576-2.161-.576-.508,0-.992.191-1.362.54l-.373.333-3.162,3.162c-.195.195-.195.513,0,.708.195.193.513.193.707,0l1.26-1.278c.562-.571,1.472-.601,2.07-.064l4.009,3.6h5.697c.276,0,.5.224.5.5Z"/>
</svg>
