<?xml version="1.0" encoding="UTF-8"?>
<svg xmlns="http://www.w3.org/2000/svg" id="Layer_1" data-name="Layer 1" viewBox="0 0 24 24">
  <path d="m19.953,21.046c1.292-1.41,2.047-2.971,2.047-4.325,0-4.196-3.749-5.891-6.486-7.129-1.128-.51-2.204-1-2.709-1.533-.082-.274-.17-.629-.231-1.054.067.003.135.008.202.008,1.221,0,2.351-.579,3.068-1.587.195-.274.208-.637.032-.924-.178-.288-.512-.443-.843-.391-.126.019-.254.029-.386.029-1.531,0-2.777-1.246-2.777-2.778,0-.132.01-.26.028-.385.051-.334-.103-.665-.39-.842-.289-.178-.65-.164-.925.031-1.095.779-1.684,2.043-1.574,3.383.119,1.469,1.114,2.705,2.448,3.211-.054.527-.15.964-.241,1.28-.497.54-1.588,1.036-2.731,1.553-2.737,1.238-6.486,2.933-6.486,7.129,0,1.354.755,2.915,2.047,4.325-1.163.214-2.047,1.231-2.047,2.454,0,.276.224.5.5.5s.5-.224.5-.5c0-.827.673-1.5,1.5-1.5h15c.827,0,1.5.673,1.5,1.5,0,.276.224.5.5.5s.5-.224.5-.5c0-1.223-.885-2.24-2.047-2.454ZM10.006,3.468c-.069-.858.25-1.675.867-2.25-.002.048-.003.096-.003.144,0,2.083,1.694,3.778,3.777,3.778.049,0,.097,0,.145-.003-.575.617-1.401.935-2.25.867-1.337-.108-2.427-1.199-2.536-2.536Zm-4.603,17.532c-1.486-1.369-2.403-2.996-2.403-4.279,0-3.55,3.134-4.967,5.898-6.218,1.291-.584,2.465-1.115,3.102-1.83.637.715,1.811,1.246,3.102,1.83,2.765,1.25,5.898,2.667,5.898,6.218,0,1.284-.917,2.911-2.403,4.279H5.403Z"/>
</svg>
