<?xml version="1.0" encoding="UTF-8"?>
<svg xmlns="http://www.w3.org/2000/svg" id="Layer_1" data-name="Layer 1" viewBox="0 0 24 24">
  <path d="m20,0H4C1.794,0,0,1.794,0,4v2.5c0,1.378,1.122,2.5,2.5,2.5h.5v11.5c0,1.93,1.57,3.5,3.5,3.5h11c1.93,0,3.5-1.57,3.5-3.5v-11.5h.5c1.378,0,2.5-1.122,2.5-2.5v-2.5c0-2.206-1.794-4-4-4Zm-11,9v4h-5v-4h5Zm11,5v4h-5v-4h5Zm-6,4H4v-4h10v4Zm-10,2.5v-1.5h5v4h-2.5c-1.378,0-2.5-1.122-2.5-2.5Zm16,0c0,1.378-1.122,2.5-2.5,2.5h-7.5v-4h10v1.5Zm0-7.5h-10v-4h10v4Zm3-6.5c0,.827-.673,1.5-1.5,1.5H2.5c-.827,0-1.5-.673-1.5-1.5v-2.5c0-1.654,1.346-3,3-3h16c1.654,0,3,1.346,3,3v2.5Z"/>
</svg>
