<?xml version="1.0" encoding="UTF-8"?>
<svg xmlns="http://www.w3.org/2000/svg" id="Layer_1" data-name="Layer 1" viewBox="0 0 24 24">
  <path d="m23.5,22h-2.14l-1.43-4.291c-.342-1.022-1.295-1.709-2.372-1.709h-4.059c-1.379,0-2.5-1.121-2.5-2.5v-1.5h6.5c.276,0,.5-.224.5-.5s-.224-.5-.5-.5h-6.5v-5.042c1.417-.239,2.5-1.474,2.5-2.958,0-1.654-1.346-3-3-3s-3,1.346-3,3c0,1.484,1.083,2.719,2.5,2.958v7.542c0,1.93,1.57,3.5,3.5,3.5h1.429c-.487,3.405-3.433,6-6.929,6-3.859,0-7-3.141-7-7,0-3.676,2.869-6.744,6.533-6.984.275-.019.483-.256.466-.532-.019-.274-.238-.491-.532-.466-4.187.275-7.467,3.781-7.467,7.982,0,4.411,3.589,8,8,8,4.044,0,7.443-3.039,7.937-7h1.621c.646,0,1.219.412,1.423,1.025l1.544,4.633c.068.204.26.342.475.342h2.5c.276,0,.5-.224.5-.5s-.224-.5-.5-.5ZM8.5,3c0-1.103.897-2,2-2s2,.897,2,2-.897,2-2,2-2-.897-2-2Z"/>
</svg>
