<?xml version="1.0" encoding="UTF-8"?>
<svg xmlns="http://www.w3.org/2000/svg" id="Layer_1" data-name="Layer 1" viewBox="0 0 24 24">
  <path d="m11.244,6.05c-.344-.648-1.012-1.05-1.744-1.05s-1.4.402-1.747,1.055L.273,20.576c-.386.73-.363,1.588.063,2.295.425.707,1.171,1.129,1.995,1.129h14.338c.823,0,1.569-.422,1.994-1.128.426-.709.449-1.568.064-2.293l-7.484-14.528Zm-2.605.469c.173-.325.495-.519.861-.519s.688.194.858.513l2.834,5.501c-.004.006-.01.009-.013.015l-1.313,2.243c-.049.085-.127.098-.17.098-.051-.029-.12-.012-.171-.096l-.814-1.344c-.09-.148-.25-.24-.424-.241-.145.038-.335.088-.427.235l-1.321,2.113c-.068.108-.196.124-.215.119-.043,0-.147-.012-.215-.118l-2.122-3.36s-.003-.002-.003-.004l2.656-5.156Zm9.167,15.837c-.242.403-.667.644-1.137.644H2.331c-.47,0-.895-.241-1.138-.644-.244-.405-.257-.896-.035-1.314,0-.002.002-.003.003-.005l4.291-8.331,1.811,2.867c.231.366.627.584,1.06.584.448-.026.832-.22,1.063-.589l.89-1.424.394.649c.22.365.596.557,1.034.578.427-.003.81-.225,1.025-.593l1.003-1.714,4.11,7.979c.222.418.208.909-.036,1.314Zm2.194-8.856c0,.276-.224.5-.5.5h-1c-.276,0-.5-.224-.5-.5s.224-.5.5-.5h1c.276,0,.5.224.5.5Zm0,4c0,.276-.224.5-.5.5h-1c-.276,0-.5-.224-.5-.5s.224-.5.5-.5h1c.276,0,.5.224.5.5Zm-6-12c0-.276.224-.5.5-.5h1c.276,0,.5.224.5.5s-.224.5-.5.5h-1c-.276,0-.5-.224-.5-.5Zm6,0c0,.276-.224.5-.5.5h-1c-.276,0-.5-.224-.5-.5s.224-.5.5-.5h1c.276,0,.5.224.5.5Zm0,4c0,.276-.224.5-.5.5h-1c-.276,0-.5-.224-.5-.5s.224-.5.5-.5h1c.276,0,.5.224.5.5Zm-6,0c0-.276.224-.5.5-.5h1c.276,0,.5.224.5.5s-.224.5-.5.5h-1c-.276,0-.5-.224-.5-.5Zm10-5v15c0,1.601-.862,3.094-2.25,3.897-.078.046-.164.067-.25.067-.172,0-.34-.089-.433-.25-.139-.239-.057-.545.183-.683,1.079-.625,1.75-1.787,1.75-3.032V4.5c0-1.93-1.57-3.5-3.5-3.5h-5c-1.246,0-2.408.671-3.033,1.75-.138.239-.443.321-.683.182-.239-.138-.321-.444-.182-.683.803-1.388,2.296-2.25,3.898-2.25h5c2.481,0,4.5,2.019,4.5,4.5Z"/>
</svg>
