<?xml version="1.0" encoding="UTF-8"?>
<svg xmlns="http://www.w3.org/2000/svg" id="Layer_1" data-name="Layer 1" viewBox="0 0 24 24">
  <path d="m18.312,8.908l-3.312-2.648V1h.5c.276,0,.5-.224.5-.5s-.224-.5-.5-.5h-7c-.276,0-.5.224-.5.5s.224.5.5.5h.5v5.26l-3.312,2.648c-1.073.86-1.688,2.141-1.688,3.515v7.077c0,2.481,2.019,4.5,4.5,4.5h7c2.481,0,4.5-2.019,4.5-4.5v-7.077c0-1.374-.615-2.654-1.688-3.515Zm.688,10.592c0,1.93-1.57,3.5-3.5,3.5h-7c-1.93,0-3.5-1.57-3.5-3.5v-7.077c0-1.068.479-2.064,1.313-2.733l3.499-2.799c.118-.095.188-.238.188-.391V1h4v5.5c0,.152.069.296.187.391l3.499,2.799c.835.669,1.313,1.665,1.313,2.733v7.077Zm-7.999-7.06c-.807.885-2.001,2.786-2.001,4.06,0,1.654,1.346,3,3,3s3-1.346,3-3c0-1.273-1.194-3.175-2.001-4.06-.512-.561-1.486-.561-1.998,0Zm.999,6.06c-1.103,0-2-.897-2-2,0-.916,1.013-2.59,1.739-3.386.091-.1.202-.114.261-.114s.17.015.261.114c.727.796,1.739,2.47,1.739,3.386,0,1.103-.897,2-2,2Z"/>
</svg>
