<?xml version="1.0" encoding="UTF-8"?>
<svg xmlns="http://www.w3.org/2000/svg" id="Layer_1" data-name="Layer 1" viewBox="0 0 24 24">
  <path d="m15.5,10c-.828,0-1.5-.672-1.5-1.5s.672-1.5,1.5-1.5,1.5.672,1.5,1.5-.672,1.5-1.5,1.5Zm8.385,5.628c.196.377.129.812-.158,1.099-.179.178-.414.271-.653.271-.146,0-.292-.035-.428-.105l-4.4-2.503c-.446.209-.92.369-1.414.472l-.878,1.881c-.205.342-.7.342-.905,0l-.878-1.881c-1.09-.228-2.08-.729-2.896-1.429L.854,23.854c-.098.098-.226.146-.354.146s-.256-.049-.354-.146c-.195-.195-.195-.512,0-.707l10.42-10.42c-.7-.816-1.201-1.806-1.429-2.896l-1.881-.878c-.342-.205-.342-.7,0-.905l1.881-.878c.103-.494.263-.968.472-1.414L7.115,1.372c-.196-.377-.129-.812.158-1.099.287-.286.723-.352,1.081-.167l4.4,2.503c.446-.209.92-.369,1.414-.472l.878-1.881c.205-.342.7-.342.905,0l.878,1.881c.494.103.968.263,1.414.472L22.629.115c.376-.197.811-.129,1.098.157s.354.722.168,1.082l-2.504,4.4c.209.446.369.92.472,1.414l1.881.878c.342.205.342.7,0,.905l-1.881.878c-.103.494-.263.968-.472,1.414l2.494,4.383Zm-4.64-12.438c.606.429,1.136.958,1.565,1.565l2.064-3.629-3.629,2.064Zm-9.055,1.565c.429-.606.958-1.136,1.565-1.565l-3.629-2.064,2.064,3.629Zm5.31,9.245c3.032,0,5.5-2.467,5.5-5.5s-2.468-5.5-5.5-5.5-5.5,2.467-5.5,5.5,2.468,5.5,5.5,5.5Zm7.374,1.874l-2.064-3.629c-.429.606-.958,1.136-1.565,1.565l3.629,2.064Z"/>
</svg>
