<?xml version="1.0" encoding="UTF-8"?>
<svg xmlns="http://www.w3.org/2000/svg" id="Layer_1" data-name="Layer 1" viewBox="0 0 24 24">
  <path d="m20.022,17.039l-1.89-2.192c.472-.188.871-.539,1.116-1.006.375-.715.324-1.572-.176-2.289l-2.328-2.566c.656-.079,1.231-.47,1.536-1.06.338-.653.286-1.404-.174-2.05L13.511.677c-.761-.859-2.261-.859-3.021,0l-4.63,5.241c-.426.604-.479,1.354-.14,2.008.306.59.881.981,1.538,1.06l-2.371,2.618c-.458.665-.51,1.522-.134,2.237.245.467.644.818,1.116,1.006l-1.89,2.192c-.012.014-.022.027-.033.043-.529.767-.588,1.756-.154,2.581.433.824,1.281,1.337,2.213,1.337h5.497v2.5c0,.276.224.5.5.5s.5-.224.5-.5v-2.5h5.497c.932,0,1.78-.513,2.213-1.337.434-.825.375-1.814-.187-2.624Zm-.698,2.159c-.264.502-.76.802-1.328.802h-5.497v-9.5c0-.276-.224-.5-.5-.5s-.5.224-.5.5v9.5h-5.497c-.567,0-1.064-.3-1.328-.802-.26-.495-.23-1.064.078-1.528l2.452-2.844c.127-.147.157-.356.076-.534s-.259-.292-.455-.292h-.157c-.441,0-.828-.233-1.033-.624s-.178-.841.031-1.152l3.073-3.388c.133-.146.167-.357.087-.538-.08-.182-.259-.298-.457-.298h-.868c-.388,0-.722-.199-.895-.534-.164-.315-.138-.678.035-.928L11.238,1.339c.381-.43,1.143-.43,1.523,0l4.562,5.157c.207.292.232.654.068.97-.173.335-.507.534-.895.534h-.868c-.198,0-.377.116-.457.298-.08.181-.046.392.087.538l3.032,3.336c.25.363.277.813.072,1.204s-.591.624-1.033.624h-.157c-.195,0-.373.114-.455.292s-.052.387.076.534l2.438,2.822c.322.468.356,1.047.092,1.55Z"/>
</svg>
