<?xml version="1.0" encoding="UTF-8"?>
<svg xmlns="http://www.w3.org/2000/svg" id="Layer_1" data-name="Layer 1" viewBox="0 0 24 24">
  <path d="m23.5,19H7.5c-1.93,0-3.5-1.57-3.5-3.5V3.5C4,1.57,2.43,0,.5,0,.224,0,0,.224,0,.5s.224.5.5.5c1.378,0,2.5,1.121,2.5,2.5v12c0,1.956,1.254,3.624,3,4.243v1.257c0,1.654,1.346,3,3,3s3-1.346,3-3v-1h4v1c0,1.654,1.346,3,3,3s3-1.346,3-3v-1h1.5c.276,0,.5-.224.5-.5s-.224-.5-.5-.5Zm-12.5,2c0,1.103-.897,2-2,2s-2-.897-2-2v-1.028c.164.018.331.028.5.028h3.5v1Zm10,0c0,1.103-.897,2-2,2s-2-.897-2-2v-1h4v1Z"/>
</svg>
