<?xml version="1.0" encoding="UTF-8"?>
<svg xmlns="http://www.w3.org/2000/svg" id="Layer_1" data-name="Layer 1" viewBox="0 0 24 24">
  <path d="m23.989,12.521c-.275,6.437-5.542,11.479-11.989,11.479-4.765,0-9.064-2.832-10.972-7.136-.007.046-.028.088-.028.136v3.5c0,.276-.224.5-.5.5s-.5-.224-.5-.5v-3.5c0-1.103.897-2,2-2h3.5c.276,0,.5.224.5.5s-.224.5-.5.5h-3.5c-.079,0-.149.028-.223.045,1.653,4.175,5.706,6.955,10.223,6.955,5.91,0,10.737-4.621,10.989-10.521.012-.275.199-.493.521-.479.275.013.49.245.479.521Zm-.489-9.521c-.276,0-.5.224-.5.5v3.5c0,.048-.021.089-.027.134C21.064,2.832,16.766,0,12,0,5.553,0,.287,5.042.011,11.479c-.012.276.202.509.478.521h.022c.266,0,.488-.21.499-.479C1.263,5.621,6.09,1,12,1c4.518,0,8.572,2.78,10.223,6.955-.074.017-.144.045-.223.045h-3.5c-.276,0-.5.224-.5.5s.224.5.5.5h3.5c1.103,0,2-.897,2-2v-3.5c0-.276-.224-.5-.5-.5Zm-14,14c-1.378,0-2.5-1.121-2.5-2.5v-5c0-1.379,1.122-2.5,2.5-2.5h5c1.379,0,2.5,1.121,2.5,2.5v5c0,1.379-1.121,2.5-2.5,2.5h-5Zm0-1h5c.827,0,1.5-.673,1.5-1.5v-5c0-.827-.673-1.5-1.5-1.5h-5c-.827,0-1.5.673-1.5,1.5v5c0,.827.673,1.5,1.5,1.5Zm1.5-5h2c.276,0,.5-.224.5-.5s-.224-.5-.5-.5h-2c-.276,0-.5.224-.5.5s.224.5.5.5Z"/>
</svg>
