<?xml version="1.0" encoding="UTF-8"?>
<svg xmlns="http://www.w3.org/2000/svg" id="Layer_1" data-name="Layer 1" viewBox="0 0 24 24">
  <path d="m14.5,10h-2v-4.588c2.051-.186,3.792-1.504,4.422-3.398.155-.468.078-.967-.213-1.37-.291-.403-.759-.644-1.254-.644h-6.91c-.495,0-.963.24-1.254.644-.291.403-.369.902-.213,1.371.63,1.894,2.372,3.212,4.422,3.397v4.588h-2c-1.378,0-2.5,1.121-2.5,2.5v11.038c0,.276.224.5.5.5s.5-.224.5-.5v-11.038c0-.827.673-1.5,1.5-1.5h5c.827,0,1.5.673,1.5,1.5v11.038c0,.276.224.5.5.5s.5-.224.5-.5v-11.038c0-1.379-1.122-2.5-2.5-2.5ZM8.027,1.699c-.053-.16-.026-.331.075-.471.105-.146.267-.229.443-.229h6.91c.177,0,.338.083.443.229.101.14.128.311.075.47-.544,1.638-2.141,2.737-3.973,2.737s-3.429-1.1-3.973-2.736Zm9.973,5.301c0,.552-.448,1-1,1s-1-.448-1-1,.448-1,1-1,1,.448,1,1Zm6,0c0,.552-.448,1-1,1s-1-.448-1-1,.448-1,1-1,1,.448,1,1Zm-2-4c0-.552.448-1,1-1s1,.448,1,1-.448,1-1,1-1-.448-1-1Zm2,8c0,.552-.448,1-1,1s-1-.448-1-1,.448-1,1-1,1,.448,1,1Zm-3-6c0,.552-.448,1-1,1s-1-.448-1-1,.448-1,1-1,1,.448,1,1Zm0,4c0,.552-.448,1-1,1s-1-.448-1-1,.448-1,1-1,1,.448,1,1Zm-14-1c-.552,0-1-.448-1-1s.448-1,1-1,1,.448,1,1-.448,1-1,1Zm-5-1c0,.552-.448,1-1,1s-1-.448-1-1,.448-1,1-1,1,.448,1,1Zm0-4c0,.552-.448,1-1,1s-1-.448-1-1,.448-1,1-1,1,.448,1,1Zm0,8c0,.552-.448,1-1,1s-1-.448-1-1,.448-1,1-1,1,.448,1,1Zm3-6c0,.552-.448,1-1,1s-1-.448-1-1,.448-1,1-1,1,.448,1,1Zm0,4c0,.552-.448,1-1,1s-1-.448-1-1,.448-1,1-1,1,.448,1,1Z"/>
</svg>
