<?xml version="1.0" encoding="UTF-8"?>
<svg xmlns="http://www.w3.org/2000/svg" id="Layer_1" data-name="Layer 1" viewBox="0 0 24 24">
  <path d="m24,9.5c0-1.4-.688-2.71-1.843-3.503L14.715.883c-1.625-1.183-3.808-1.181-5.419-.008L1.843,5.997c-1.154.793-1.843,2.103-1.843,3.503,0,1.379,1.121,2.5,2.5,2.5h9v11.5c0,.276.224.5.5.5s.5-.224.5-.5v-11.5h9c1.379,0,2.5-1.121,2.5-2.5Zm-18-.19v1.69h-3.5c-.827,0-1.5-.673-1.5-1.5,0-1.071.526-2.072,1.409-2.679L9.873,1.691c.315-.229.657-.401,1.012-.517l-4.014,5.474c-.562.766-.871,1.711-.871,2.661Zm5.5,1.69h-4.5v-1.69c0-.739.24-1.474.678-2.069l3.822-5.212v8.972Zm5.5,0h-4.5V2.028l3.822,5.212c.438.596.678,1.33.678,2.069v1.69Zm.129-4.352L13.116,1.176c.358.117.703.291,1.021.523l7.453,5.122c.883.606,1.409,1.607,1.409,2.679,0,.827-.673,1.5-1.5,1.5h-3.5v-1.69c0-.95-.31-1.896-.871-2.661Zm-11.129,14.852v2c0,.276-.224.5-.5.5s-.5-.224-.5-.5v-2c0-.827-.673-1.5-1.5-1.5H1v3.5c0,.276-.224.5-.5.5s-.5-.224-.5-.5v-8c0-.276.224-.5.5-.5s.5.224.5.5v3.5h2.5c1.379,0,2.5,1.121,2.5,2.5Zm18-6v8c0,.276-.224.5-.5.5s-.5-.224-.5-.5v-3.5h-2.5c-.827,0-1.5.673-1.5,1.5v2c0,.276-.224.5-.5.5s-.5-.224-.5-.5v-2c0-1.379,1.121-2.5,2.5-2.5h2.5v-3.5c0-.276.224-.5.5-.5s.5.224.5.5Z"/>
</svg>
