<?xml version="1.0" encoding="UTF-8"?>
<svg xmlns="http://www.w3.org/2000/svg" id="Layer_1" data-name="Layer 1" viewBox="0 0 24 24">
  <path d="m23.669,19.833l-4.197-8.249c-1.438-2.826-4.301-4.582-7.472-4.582s-6.034,1.756-7.472,4.582L.333,19.829c-.47.889-.441,1.934.077,2.796.518.861,1.426,1.375,2.429,1.375h18.321c1.003,0,1.911-.514,2.429-1.375.519-.863.547-1.91.079-2.792Zm-.936,2.277c-.335.557-.923.89-1.572.89H2.839c-.649,0-1.237-.333-1.572-.89-.337-.56-.355-1.239-.048-1.816,0-.002.002-.005.004-.008l4.197-8.249c1.285-2.526,3.745-4.035,6.58-4.035s5.295,1.509,6.58,4.035l4.201,8.257c.307.577.289,1.256-.048,1.816Z"/>
</svg>
