<?xml version="1.0" encoding="UTF-8"?>
<svg xmlns="http://www.w3.org/2000/svg" id="Layer_1" data-name="Layer 1" viewBox="0 0 24 24">
  <path d="m15,4.5v-1.5c0-1.654,1.346-3,3-3,.549,0,1.078.151,1.549.44.397-.167,1.166-.44,1.951-.44,1.379,0,2.5,1.121,2.5,2.5s-1.121,2.5-2.5,2.5c-.276,0-.5-.224-.5-.5s.224-.5.5-.5c.827,0,1.5-.673,1.5-1.5s-.673-1.5-1.5-1.5c-.862,0-1.764.452-1.772.457-.173.087-.378.069-.529-.047-.354-.269-.769-.41-1.198-.41-1.103,0-2,.897-2,2v1.5c0,.276-.224.5-.5.5s-.5-.224-.5-.5Zm-9.5.519c.276,0,.5-.224.5-.5v-1.269c0-1.24,1.009-2.25,2.25-2.25.546,0,1.078.207,1.497.584.185.167.465.17.655.011.464-.389,1.017-.595,1.598-.595.476,0,.916.141,1.295.372.11-.318.249-.62.418-.905-.509-.289-1.088-.467-1.713-.467-.684,0-1.337.2-1.911.582-.543-.378-1.183-.582-1.839-.582-1.792,0-3.25,1.458-3.25,3.25v1.269c0,.276.224.5.5.5Zm11.34,15.96c.326.651.292,1.411-.091,2.031s-1.047.99-1.776.99H2.09c-.729,0-1.393-.37-1.776-.99-.383-.62-.417-1.38-.091-2.031l1.162-2.324c1.071-2.142,1.637-4.538,1.637-6.932v-3.223c0-.827.673-1.5,1.5-1.5h8.021c.828,0,1.5.673,1.5,1.5v3.223c0,2.394.565,4.791,1.636,6.932l1.162,2.324ZM4.021,11.723c0,.762-.071,1.522-.177,2.277h9.375c-.106-.755-.177-1.515-.177-2.277v-3.223c0-.275-.225-.5-.5-.5H4.521c-.276,0-.5.225-.5.5v3.223Zm11.924,9.703l-1.162-2.324c-.647-1.295-1.099-2.682-1.388-4.102H3.668c-.289,1.42-.741,2.807-1.389,4.102l-1.162,2.324c-.17.34-.152.735.048,1.059.2.322.545.516.925.516h12.883c.38,0,.726-.193.926-.516.199-.323.217-.719.047-1.059Zm7.895-.447l-1.162-2.324c-1.07-2.141-1.636-4.538-1.636-6.932v-3.223c0-.827-.673-1.5-1.5-1.5h-3.042c-.276,0-.5.224-.5.5s.224.5.5.5h3.042c.275,0,.5.225.5.5v3.223c0,.762.071,1.522.177,2.277h-3.719c-.276,0-.5.224-.5.5s.224.5.5.5h3.895c.289,1.42.741,2.807,1.388,4.102l1.162,2.324c.17.34.152.735-.047,1.059-.2.322-.546.516-.926.516h-2.473c-.276,0-.5.224-.5.5s.224.5.5.5h2.473c.729,0,1.394-.37,1.776-.99s.417-1.38.091-2.031Z"/>
</svg>
