<?xml version="1.0" encoding="UTF-8"?>
<svg xmlns="http://www.w3.org/2000/svg" id="Layer_1" data-name="Layer 1" viewBox="0 0 24 24">
  <path d="m23.481,18.248l-3.525-3.574c.972-1.49,1.543-3.265,1.543-5.174C21.5,4.262,17.238,0,12,0S2.5,4.262,2.5,9.5c0,1.908.571,3.683,1.543,5.174l-3.524,3.574c-.467.472-.598,1.146-.341,1.759.256.613.828.994,1.492.994h1.329v1.435c0,.646.37,1.201.966,1.45.201.084.41.125.615.125.401,0,.791-.157,1.096-.457l4.755-4.695c.512.086,1.033.141,1.569.141s1.057-.055,1.569-.141l4.755,4.695c.305.3.694.457,1.096.457.205,0,.414-.041.615-.125.596-.249.966-.805.966-1.45v-1.435h1.329c.664,0,1.236-.381,1.492-.994.257-.612.126-1.287-.34-1.759Zm-18.508,4.594c-.252.25-.54.155-.622.121-.083-.035-.352-.174-.352-.528v-2.435H1.671c-.382,0-.533-.291-.57-.379s-.137-.4.131-.671l3.407-3.455c1.186,1.454,2.793,2.549,4.634,3.102l-4.299,4.245Zm-1.474-13.342C3.5,4.813,7.313,1,12,1s8.5,3.813,8.5,8.5-3.813,8.5-8.5,8.5S3.5,14.187,3.5,9.5Zm19.399,10.121c-.037.089-.188.379-.57.379h-2.329v2.435c0,.354-.269.493-.352.528-.082.034-.371.129-.622-.121l-4.299-4.245c1.841-.553,3.448-1.648,4.634-3.102l3.408,3.455c.267.271.167.582.13.671Zm-8.684-10.304c.482-.456.784-1.102.784-1.816,0-1.378-1.121-2.5-2.5-2.5h-2.2c-.717,0-1.3.583-1.3,1.3v6.4c0,.717.583,1.3,1.3,1.3h2.7c1.379,0,2.5-1.122,2.5-2.5,0-.938-.519-1.756-1.284-2.184Zm-4.216-3.017c0-.166.135-.3.3-.3h2.2c.827,0,1.5.673,1.5,1.5s-.673,1.5-1.5,1.5h-2.5v-2.7Zm3,6.7h-2.7c-.165,0-.3-.134-.3-.3v-2.7h3c.827,0,1.5.673,1.5,1.5s-.673,1.5-1.5,1.5Z"/>
</svg>
