<?xml version="1.0" encoding="UTF-8"?>
<svg xmlns="http://www.w3.org/2000/svg" id="Layer_1" data-name="Layer 1" viewBox="0 0 24 24">
  <path d="m14.5,10.5c0-1.93-1.57-3.5-3.5-3.5h-1c-1.103,0-2,.897-2,2v8.5c0,.276.224.5.5.5s.5-.224.5-.5v-3.5h2c.216,0,.425-.026.629-.064l1.402,3.739c.075.2.266.324.468.324.059,0,.118-.01.176-.032.258-.097.389-.385.292-.644l-1.393-3.716c1.137-.579,1.925-1.748,1.925-3.108Zm-3.5,2.5h-2v-4c0-.551.449-1,1-1h1c1.378,0,2.5,1.122,2.5,2.5s-1.122,2.5-2.5,2.5Zm12.956,4.466c.02.289-.209.534-.499.534-.263,0-.481-.204-.499-.466l-.622-9.169c-.019-.334-.089-.362-.196-.365-.031.023-.097.091-.156.229l-1.906,4.694c-.169.417-.759.416-.927-.002l-1.897-4.717c-.059-.135-.136-.201-.158-.211-.081.008-.162.008-.183.363l-.636,9.179c-.018.262-.236.465-.499.465-.29,0-.519-.245-.499-.535l.635-9.168c.053-.914.585-1.297,1.224-1.297.424,0,.818.314,1.043.831l1.435,3.569,1.45-3.569c.224-.517.618-.831,1.043-.831.639,0,1.172.383,1.225,1.297l.622,9.169ZM1,10.5v4c0,1.379,1.122,2.5,2.5,2.5,1.048,0,1.99-.67,2.345-1.668.092-.26.379-.399.639-.303.26.092.396.378.304.639-.497,1.395-1.818,2.332-3.288,2.332-1.93,0-3.5-1.57-3.5-3.5v-4c0-1.93,1.57-3.5,3.5-3.5,1.47,0,2.791.938,3.288,2.333.092.26-.043.546-.304.639-.259.09-.546-.043-.639-.304-.354-.998-1.297-1.667-2.345-1.667-1.378,0-2.5,1.122-2.5,2.5Z"/>
</svg>
