<?xml version="1.0" encoding="UTF-8"?>
<svg xmlns="http://www.w3.org/2000/svg" id="Layer_1" data-name="Layer 1" viewBox="0 0 24 24">
  <path d="m21.05,9.708v3.817s-1.197-1.197-1.197-1.197c-.195-.195-.512-.195-.707,0s-.195.512,0,.707l1.671,1.672c.195.195.368.293.708.293s.571-.156.707-.293l1.621-1.621c.195-.195.195-.512,0-.707s-.512-.195-.707,0l-1.146,1.096V2.914c0-.396-.135-.781-.414-1.061l-1.415-1.414c-.283-.283-.66-.439-1.061-.439h-3.086c-1.103,0-2,.897-2,2v6c0,1.103.897,2,2,2h4c.376,0,.725-.111,1.025-.292Zm-6.025-1.708V2c0-.552.449-1,1-1h3v1.5c0,.276.224.5.5.5h1.5v5c0,.552-.449,1-1,1h-4c-.551,0-1-.448-1-1Zm5.475,9c-1.93,0-3.5,1.57-3.5,3.5s1.57,3.5,3.5,3.5,3.5-1.57,3.5-3.5-1.57-3.5-3.5-3.5Zm0,6c-1.378,0-2.5-1.121-2.5-2.5s1.122-2.5,2.5-2.5,2.5,1.121,2.5,2.5-1.122,2.5-2.5,2.5Zm-5-11c-.276,0-.5.224-.5.5v1.768l-5.283-5.258c.176-.297.283-.64.283-1.01V2.914c0-.396-.16-.781-.439-1.061l-1.415-1.414c-.283-.283-.66-.439-1.061-.439h-3.086c-1.103,0-2,.897-2,2v6c0,1.103.897,2,2,2h4c.37,0,.712-.108,1.01-.283l5.309,5.283h-1.818c-.276,0-.5.224-.5.5s.224.5.5.5h2.5c.551,0,1-.448,1-1v-2.5c0-.276-.224-.5-.5-.5Zm-11.5-3c-.552,0-1-.448-1-1V2c0-.552.448-1,1-1h3v1.5c0,.276.224.5.5.5h1.5v5c0,.552-.448,1-1,1h-4Zm10.707,11.818l-1.671-1.672c-.195-.195-.512-.195-.707,0s-.195.512,0,.707l1.146,1.146h-3.475v-4.086c0-.396-.16-.781-.439-1.061l-1.415-1.414c-.283-.283-.66-.439-1.061-.439h-3.086c-1.103,0-2,.897-2,2v6c0,1.103.897,2,2,2h4c1.103,0,2-.897,2-2h3.525l-1.146,1.146c-.195.195-.195.512,0,.707.098.098.226.146.354.146s.256-.049.354-.146l1.621-1.621c.198-.198.29-.456.29-.719s-.154-.559-.29-.695Zm-6.707,2.182h-4c-.551,0-1-.448-1-1v-6c0-.552.449-1,1-1h3v1.5c0,.276.224.5.5.5h1.5v5c0,.552-.449,1-1,1Z"/>
</svg>
