<?xml version="1.0" encoding="UTF-8"?>
<svg xmlns="http://www.w3.org/2000/svg" id="Layer_1" data-name="Layer 1" viewBox="0 0 24 24">
  <path d="m22.5,7c.827,0,1.5-.673,1.5-1.5v-2c0-.827-.673-1.5-1.5-1.5h-1.261c-.808-1.205-2.182-2-3.739-2H6.5C4.019,0,2,2.019,2,4.5v16c0,1.93,1.57,3.5,3.5,3.5h12c2.481,0,4.5-2.019,4.5-4.5v-.5h.5c.827,0,1.5-.673,1.5-1.5v-2c0-.827-.673-1.5-1.5-1.5h-.5v-1h.5c.827,0,1.5-.673,1.5-1.5v-2c0-.827-.673-1.5-1.5-1.5h-.5v-1h.5Zm-.5-4h.5c.275,0,.5.225.5.5v2c0,.275-.225.5-.5.5h-.5v-3ZM3,4.5c0-1.76,1.306-3.221,3-3.464v15.964h-.5c-.978,0-1.864.404-2.5,1.053V4.5Zm18,15c0,1.93-1.57,3.5-3.5,3.5H5.5c-1.379,0-2.5-1.121-2.5-2.5s1.121-2.5,2.5-2.5h15.5v1.5Zm0-2.5H7V1h10.5c1.93,0,3.5,1.57,3.5,3.5v12.5Zm1.5-2c.275,0,.5.225.5.5v2c0,.275-.225.5-.5.5h-.5v-3h.5Zm0-6c.275,0,.5.225.5.5v2c0,.275-.225.5-.5.5h-.5v-3h.5Z"/>
</svg>
