<?xml version="1.0" encoding="UTF-8"?>
<svg xmlns="http://www.w3.org/2000/svg" id="Layer_1" data-name="Layer 1" viewBox="0 0 24 24">
  <path d="m3.5,7c1.378,0,2.5-1.121,2.5-2.5s-1.122-2.5-2.5-2.5-2.5,1.121-2.5,2.5,1.122,2.5,2.5,2.5Zm0-4c.827,0,1.5.673,1.5,1.5s-.673,1.5-1.5,1.5-1.5-.673-1.5-1.5.673-1.5,1.5-1.5Zm5,14c.276,0,.5.225.5.5v2c0,.276.224.5.5.5s.5-.224.5-.5v-2c0-.827-.673-1.5-1.5-1.5h-2.5v-7h1.671c.668,0,1.296-.26,1.768-.732l1.914-1.914c.195-.195.195-.512,0-.707s-.512-.195-.707,0l-1.914,1.914c-.284.283-.66.439-1.061.439H3.5c-1.378,0-2.5,1.121-2.5,2.5v9.676c0,.161-.026.32-.077.474L.026,23.342c-.087.262.054.545.316.633.053.018.106.025.158.025.209,0,.404-.133.474-.342l.898-2.692c.085-.256.128-.521.128-.79v-3.176h6.5Zm-6.5-6.5c0-.827.673-1.5,1.5-1.5h1.5v7h-3v-5.5Zm16-2.5c1.103,0,2-.897,2-2s-.897-2-2-2-2,.897-2,2,.897,2,2,2Zm0-3c.551,0,1,.448,1,1s-.449,1-1,1-1-.448-1-1,.449-1,1-1Zm-5.332,2.903c-.101.389-.044.792.159,1.137.203.346.528.592.917.692.388.104.792.045,1.137-.159l.223-.131c.408.34.881.606,1.396.786v.271c0,.827.673,1.5,1.5,1.5s1.5-.673,1.5-1.5v-.271c.515-.18.988-.446,1.396-.786l.223.131c.346.204.751.263,1.137.159.388-.101.713-.347.916-.691.204-.346.26-.749.16-1.138-.101-.388-.346-.713-.692-.917l-.233-.137c.064-.299.094-.575.094-.85s-.03-.551-.094-.851l.233-.137c.346-.203.591-.528.692-.917.101-.388.044-.791-.159-1.136-.203-.346-.528-.592-.917-.692-.386-.102-.792-.044-1.137.159l-.223.131c-.408-.34-.881-.606-1.396-.786v-.271c0-.827-.673-1.5-1.5-1.5s-1.5.673-1.5,1.5v.271c-.515.18-.988.446-1.396.786l-.223-.131c-.346-.203-.749-.261-1.137-.159-.388.101-.713.347-.916.691-.204.346-.26.749-.16,1.137.101.389.347.714.692.916l.234.138c-.064.3-.094.576-.094.851s.03.551.094.85l-.234.138c-.345.203-.591.528-.691.916Zm1.982-.948c-.103-.361-.151-.665-.151-.955s.048-.594.151-.955c.062-.219-.031-.452-.228-.567l-.557-.328c-.115-.067-.197-.176-.23-.305-.034-.129-.015-.264.053-.379s.176-.197.305-.23c.13-.032.264-.015.379.053l.541.318c.195.116.447.084.607-.077.43-.432.984-.743,1.603-.903.221-.058.375-.257.375-.484v-.642c0-.275.224-.5.5-.5s.5.225.5.5v.642c0,.228.154.427.375.484.619.16,1.173.472,1.603.903.161.161.412.193.607.077l.541-.318c.115-.068.249-.086.379-.053.129.033.237.115.306.231.067.114.086.249.053.378-.033.129-.115.237-.23.306l-.556.327c-.196.115-.29.349-.228.567.103.361.151.665.151.955s-.048.594-.151.955c-.062.219.031.453.228.568l.556.325c.115.068.197.177.23.307.034.129.015.264-.053.379s-.176.197-.305.23c-.129.034-.264.016-.379-.053l-.541-.318c-.195-.117-.447-.085-.607.077-.43.432-.984.743-1.603.903-.221.058-.375.257-.375.484v.642c0,.275-.224.5-.5.5s-.5-.225-.5-.5v-.642c0-.228-.154-.427-.375-.484-.619-.16-1.173-.472-1.603-.903-.096-.097-.225-.146-.354-.146-.087,0-.175.022-.253.069l-.541.318c-.115.067-.25.086-.379.053-.129-.033-.237-.115-.306-.231-.067-.114-.086-.249-.053-.378.034-.13.115-.238.23-.306l.556-.326c.197-.115.291-.35.228-.568Zm9.136,6.454l-15,10.5c-.087.062-.187.091-.286.091-.158,0-.313-.074-.41-.213-.158-.227-.104-.538.123-.696l15-10.5c.225-.159.539-.104.696.122.158.227.104.538-.123.696Z"/>
</svg>
