<?xml version="1.0" encoding="UTF-8"?>
<svg xmlns="http://www.w3.org/2000/svg" id="Layer_1" data-name="Layer 1" viewBox="0 0 24 24">
  <path d="m8,12c3.309,0,6-2.691,6-6S11.309,0,8,0,2,2.691,2,6s2.691,6,6,6Zm0-11c2.757,0,5,2.243,5,5s-2.243,5-5,5-5-2.243-5-5S5.243,1,8,1Z"/>
  <path d="m8,14C3.589,14,0,17.589,0,22v1.5c0,.276.224.5.5.5s.5-.224.5-.5v-1.5c0-3.86,3.14-7,7-7s7,3.14,7,7v1.5c0,.276.224.5.5.5s.5-.224.5-.5v-1.5c0-4.411-3.589-8-8-8Z"/>
  <path d="m23.841,8.635c-.202-.188-.518-.178-.707.024l-4.574,4.9c-.283.284-.66.441-1.062.441h0c-.4,0-.777-.156-1.073-.451l-2.583-2.414c-.201-.188-.519-.178-.707.024-.188.202-.178.518.024.707l2.571,2.402c.472.473,1.1.732,1.768.732h.002c.668,0,1.296-.261,1.78-.747l4.586-4.912c.188-.202.177-.519-.024-.707Z"/>
</svg>
