<?xml version="1.0" encoding="UTF-8"?>
<svg xmlns="http://www.w3.org/2000/svg" id="Layer_1" data-name="Layer 1" viewBox="0 0 24 24">
  <path d="m23.921,19.457c-.834-1.741-2.245-3.056-2.812-3.54-.064-.055-.103-.136-.104-.222-.001-.093.039-.18.11-.238.614-.5,1.764-1.455,2.567-2.246.227-.223.329-.53.282-.839-.044-.302-.225-.555-.496-.696-.735-.383-2.87-1.212-4.47-1.578v-1.596c0-1.339-1.073-2.46-2.391-2.5-2.36,0-3.817,1.027-5.122,2.022-1.022.78-2.005,1.522-3.488,1.827v-2.351c0-1.365-2.113-1.854-2.348-1.905-.282-.064-.607-.133-.959-.208-1.187-.253-2.664-.568-3.676-.921-.052-.018-.197-.043-.252-.043-.214,0-.413.091-.561.256-.17.189-.292.515-.125.864.834,1.741,2.245,3.056,2.812,3.54.064.055.103.136.104.222.001.093-.039.18-.11.238-.614.5-1.764,1.455-2.567,2.246-.227.223-.329.53-.282.839.044.302.225.555.496.696.735.383,2.87,1.212,4.47,1.578v1.596c0,1.339,1.073,2.46,2.391,2.5,2.36,0,3.817-1.027,5.122-2.022,1.022-.78,2.006-1.522,3.488-1.827v2.351c0,1.365,2.113,1.854,2.348,1.905.282.064.607.133.959.208,1.187.253,2.664.568,3.676.921.052.018.197.043.252.043.214,0,.413-.091.561-.256.17-.189.292-.515.125-.864ZM5,9.5v4.378c-1.471-.365-3.362-1.098-3.981-1.376.773-.762,1.896-1.694,2.496-2.182.311-.253.486-.628.479-1.029-.005-.373-.171-.725-.454-.967-.466-.397-1.551-1.404-2.312-2.739,1.002.3,2.234.563,3.259.782.344.073.666.142.949.206.639.138,1.563.548,1.563.928,0,.276-.224.5-.5.5-.827,0-1.5.673-1.5,1.5Zm6.906,6.682c-1.225.935-2.382,1.817-4.48,1.817h-.004c-.784-.023-1.421-.697-1.421-1.5v-5.59c.157.056.324.092.5.092,2.735,0,4.254-1.159,5.594-2.182,1.225-.935,2.382-1.817,4.48-1.817h.004c.784.023,1.421.697,1.421,1.5v5.59c-.157-.056-.324-.092-.5-.092-2.735,0-4.254,1.159-5.594,2.182Zm7.607,2.452c-.344-.073-.666-.142-.949-.206-.639-.138-1.563-.548-1.563-.928,0-.276.224-.5.5-.5.827,0,1.5-.673,1.5-1.5v-4.378c1.471.365,3.362,1.098,3.981,1.376-.773.762-1.896,1.694-2.496,2.182-.311.253-.486.628-.479,1.029.005.373.171.725.454.967.466.397,1.551,1.404,2.312,2.739-1.002-.3-2.234-.563-3.259-.782Z"/>
</svg>
