<?xml version="1.0" encoding="UTF-8"?>
<svg xmlns="http://www.w3.org/2000/svg" id="Layer_1" data-name="Layer 1" viewBox="0 0 24 24">
  <path d="m8.003,9.652h0c0-.012,0-.025,0,0Zm15.997-5.062c0,.012,0,.01-.001.004l-.408,1.215c-.098.292-.484.355-.669.108l-.688-.917h-2.67c-.727.194-1.563.7-1.563,2,0,.338.113.897.821,1.07.419.048.812.121,1.179.222l1.297-.739c.215-.122.48.042.467.289l-.061,1.12,1.149-.639c.242-.135.526.088.454.355l-.193.709c-.091.293-.215.547-.4.731-.214.235-.564.283-.835.117-.742-.455-1.836-.923-2.878-1.128-.017,0-.813-.106-1-.106h-2.035c-.102,0-.211.013-.324.038.632.764,1.59,1.439,2.599,2.15,2.231,1.572,4.761,3.354,4.761,6.812,0,3.897-4.38,6-8.5,6h-2C5.46,24,0,18.087,0,13c0-2.034.485-3.952,1.034-5.473.256-.866.616-1.654,1.104-2.533H.928c-.374,0-.707-.224-.848-.569-.141-.345-.061-.734.205-.994C1.6,2.137,3.284.811,4.476.13h0c.316-.183.694-.181,1.011.003.319.184.51.512.513.878.009,1.723-.358,3.704-.679,5.237-.086.41-.424.708-.842.741-.025.002-.05.003-.075.003-.389,0-.734-.236-.874-.606l-.456-.995c-.293.556-.725,1.45-1.119,2.554-.33,1.178-.455,2.527-.455,4.556,0,4.217,5.818,8.5,10,8.5,1.052,0,3.5-.195,3.5-2,0-.559-.167-1.058-.448-1.519l-2.517.492c-.38.074-.669-.337-.469-.67l1.062-1.764c-.231-.18-.469-.358-.709-.539h-3.338c-.398,0-.598-.482-.316-.764l1.254-1.254c-.24-.256-.463-.526-.659-.811l-2.594-.324c-.404-.051-.536-.571-.204-.808l1.942-1.387c0,.013,0,.025,0,0,0-.029,0-.842.133-1.451.059-.27.324-.441.595-.382.27.059.441.325.382.595-.109.502-.113,1.082-.113,1.088,0,2.064,1.678,3.32,3.454,4.651,1.743,1.306,3.546,2.655,3.546,4.847,0,1.879-1.683,3-4.5,3-3.258,0-7.282-2.256-9.447-5.239,1.818,3.331,5.803,6.239,10.447,6.239h2c3.636,0,7.5-1.752,7.5-5,0-2.94-2.204-4.493-4.336-5.995-1.168-.823-2.274-1.601-2.992-2.583-.542.287-1.101.67-1.567.991-.239.165-.459.315-.65.437-.159.101-.339.15-.519.15-.194,0-.388-.059-.554-.175-.322-.225-.478-.619-.396-1.005.132-.62.446-1.644.858-2.425-2.115-.749-3.885-2.109-4.612-2.91-.26-.287-.307-.691-.119-1.03.188-.341.56-.515.94-.446.261.047.601.113.988.188.753.146,1.704.332,2.594.473-.483-.817-1.023-1.868-1.157-2.572-.074-.389.099-.769.439-.969.338-.198.75-.164,1.05.087l.387.33c.436.376,1.063.916,1.644,1.341-.023-.289-.034-.607-.034-1.021,0-.478.388-.865.865-.865.492,0,.691.399.787.591l.104.217c.114.251.281.62.799,1.192h.48c1.307,0,2.457.82,2.878,2h3.622c.276,0,.5.313.5.59ZM3.213,3.994c.196,0,.373.114.455.292l.715,1.562c.301-1.455.626-3.274.618-4.832l-.028-.019c-1.08.616-2.599,1.806-3.833,2.996h2.074Zm15.658.186c-.325-.695-1.064-1.18-1.871-1.18h-.698c-.137,0-.268-.056-.361-.154-.52-.544-.793-.963-.96-1.274.024.456.075.781.156,1.219.035.185-.037.373-.187.487s-.352.137-.52.055c-.83-.395-1.972-1.379-2.728-2.029l-.18-.154c.248.802,1.019,2.152,1.523,2.876.112.161.12.373.02.542-.1.168-.282.262-.485.241-1.166-.13-2.647-.419-3.729-.63-.233-.045-.45-.088-.641-.124.832.795,2.578,2.022,4.536,2.58.16.045.287.167.339.325s.021.331-.081.462c-.459.59-.884,1.88-1.039,2.607.138-.14.347-.283.574-.439,1.029-.708,2.312-1.589,3.426-1.589h1.263c-.147-.291-.227-.628-.227-1,0-1.74,1.077-2.498,1.871-2.82Zm5.127.41c-.001-.007-.003-.014-.006,0h.006Z"/>
</svg>
