<?xml version="1.0" encoding="UTF-8"?>
<svg xmlns="http://www.w3.org/2000/svg" id="Layer_1" data-name="Layer 1" viewBox="0 0 24 24">
  <path d="m12,0C5.383,0,0,5.383,0,12s5.383,12,12,12,12-5.383,12-12S18.617,0,12,0Zm.5,22.988v-2.488c0-.276-.224-.5-.5-.5s-.5.224-.5.5v2.488c-5.668-.255-10.233-4.82-10.488-10.488h2.488c.276,0,.5-.224.5-.5s-.224-.5-.5-.5H1.012C1.267,5.832,5.832,1.267,11.5,1.012v2.488c0,.276.224.5.5.5s.5-.224.5-.5V1.012c5.668.255,10.233,4.82,10.488,10.488h-2.488c-.276,0-.5.224-.5.5s.224.5.5.5h2.488c-.255,5.668-4.82,10.233-10.488,10.488Zm3.5-10.988c0,.276-.224.5-.5.5h-3v3c0,.276-.224.5-.5.5s-.5-.224-.5-.5v-3h-3c-.276,0-.5-.224-.5-.5s.224-.5.5-.5h3v-3c0-.276.224-.5.5-.5s.5.224.5.5v3h3c.276,0,.5.224.5.5Z"/>
</svg>
