<?xml version="1.0" encoding="UTF-8"?>
<svg xmlns="http://www.w3.org/2000/svg" id="Layer_1" data-name="Layer 1" viewBox="0 0 24 24">
  <path d="m20.59,2.723c.16-.227.473-.28.696-.124.951.664,1.822,1.441,2.589,2.31.183.208.163.523-.044.706-.096.084-.213.125-.331.125-.139,0-.276-.057-.375-.169-.714-.809-1.525-1.533-2.411-2.151-.227-.158-.282-.47-.124-.696Zm-11.604,13.718c.063-.269-.103-.538-.371-.602-2.718-.643-4.615-3.044-4.615-5.84C4,5.038,8.037,1,13,1c.276,0,.5-.224.5-.5s-.224-.5-.5-.5C7.486,0,3,4.486,3,10c0,3.262,2.205,6.192,5.5,6.826.227,0,.433-.155.486-.385Zm-5.7,4.139c-.888-.619-1.698-1.343-2.411-2.151-.182-.205-.497-.228-.706-.044-.207.183-.227.498-.044.706.766.868,1.637,1.646,2.589,2.31.087.061.187.09.286.09.157,0,.312-.074.41-.214.158-.227.103-.538-.124-.696ZM2,3c.552,0,1-.448,1-1s-.448-1-1-1-1,.448-1,1,.448,1,1,1Zm13-1c0-1.103.897-2,2-2s2,.897,2,2-.897,2-2,2-2-.897-2-2Zm1,0c0,.551.448,1,1,1s1-.449,1-1-.448-1-1-1-1,.449-1,1Zm-.385,5.187c-.273-.061-.539.103-.602.372-.063.269.103.538.371.602,2.718.642,4.615,3.043,4.615,5.839,0,4.963-4.037,9-9,9-.276,0-.5.224-.5.5s.224.5.5.5c5.514,0,10-4.486,10-10,0-3.262-2.215-6.064-5.385-6.813Zm-4.615-2.187c0,.552.448,1,1,1s1-.448,1-1-.448-1-1-1-1,.448-1,1Zm12,13c-.552,0-1,.448-1,1s.448,1,1,1,1-.448,1-1-.448-1-1-1Zm-11,1c0,.552.448,1,1,1s1-.448,1-1-.448-1-1-1-1,.448-1,1Zm8,3c-.552,0-1,.448-1,1s.448,1,1,1,1-.448,1-1-.448-1-1-1Zm-8-6c-2.206,0-4-1.794-4-4s1.794-4,4-4,4,1.794,4,4-1.794,4-4,4Zm0-1c1.654,0,3-1.346,3-3s-1.346-3-3-3-3,1.346-3,3,1.346,3,3,3Zm-3,7c0,1.103-.897,2-2,2s-2-.897-2-2,.897-2,2-2,2,.897,2,2Zm-1,0c0-.552-.448-1-1-1s-1,.448-1,1,.448,1,1,1,1-.448,1-1Z"/>
</svg>
