<?xml version="1.0" encoding="UTF-8"?>
<svg xmlns="http://www.w3.org/2000/svg" id="Layer_1" data-name="Layer 1" viewBox="0 0 24 24">
  <path d="m19.5,0h-6.578c-1.076,0-2.087.419-2.847,1.18-.952.952-1.307,2.434-.925,3.867l.856,3.208c-.615.451-1.21.936-1.749,1.475l-4.204,4.26c-.697.697-1.832.697-2.529,0-.696-.697-.696-1.831,0-2.528l3.352-3.357c.195-.195.195-.513,0-.707-.195-.195-.512-.195-.707,0l-3.352,3.357c-1.085,1.087-1.085,2.855,0,3.942,1.053,1.053,2.889,1.055,3.945-.002l.385-.39,1.944,1.944-3.942,3.942c-.195.195-.195.512,0,.707.098.098.226.146.354.146s.256-.049.354-.146l3.942-3.942,1.952,1.952-.327.332c-.526.526-.816,1.227-.816,1.972s.29,1.445.816,1.972c.543.544,1.257.815,1.972.815s1.427-.271,1.97-.814l3.297-3.291c.195-.194.195-.512,0-.707s-.512-.195-.707,0l-3.297,3.291c-.698.695-1.831.695-2.527,0s-.697-1.832.003-2.532l4.138-4.203c.539-.539,1.023-1.133,1.473-1.747l3.208.856c.382.102.767.151,1.144.151,1.041,0,2.024-.377,2.724-1.076.761-.76,1.18-1.771,1.18-2.847v-6.578c0-2.481-2.019-4.5-4.5-4.5Zm-5.938,15.037l-3.11,3.159-4.603-4.603,3.117-3.158c2.409-2.409,5.874-3.883,8.108-4.414.26-.062.521.01.707.197.188.188.259.445.197.707-.531,2.234-2.005,5.699-4.417,8.111Zm9.438-3.959c0,.809-.314,1.568-.887,2.14-.701.701-1.811.954-2.902.665l-2.865-.764c1.341-2.081,2.218-4.33,2.605-5.962.142-.599-.031-1.213-.463-1.645s-1.044-.603-1.645-.463c-1.632.387-3.881,1.264-5.962,2.605l-.764-2.865c-.291-1.089-.036-2.201.665-2.902.571-.572,1.331-.887,2.14-.887h6.578c1.93,0,3.5,1.57,3.5,3.5v6.578Z"/>
</svg>
