<?xml version="1.0" encoding="UTF-8"?>
<svg xmlns="http://www.w3.org/2000/svg" id="Layer_1" data-name="Layer 1" viewBox="0 0 24 24">
  <path d="m22,0h-3.5c-.276,0-.5.224-.5.5s.224.5.5.5h3.5c.089,0,.176.012.259.034l-6.386,6.386c-1.046-.886-2.398-1.421-3.872-1.421s-2.827.535-3.872,1.421l-1.921-1.921,1.646-1.646c.195-.195.195-.512,0-.707s-.512-.195-.707,0l-1.646,1.646L1.741,1.034c.083-.022.169-.034.259-.034h3.5c.276,0,.5-.224.5-.5s-.224-.5-.5-.5h-3.5C.897,0,0,.897,0,2v3.5c0,.276.224.5.5.5s.5-.224.5-.5v-3.5c0-.089.012-.176.034-.259l3.759,3.759-1.646,1.646c-.195.195-.195.512,0,.707.098.098.226.146.354.146s.256-.049.354-.146l1.646-1.646,1.921,1.921c-.886,1.046-1.421,2.398-1.421,3.872,0,3.14,2.425,5.724,5.5,5.979v3.021h-2c-.276,0-.5.224-.5.5s.224.5.5.5h2v1.5c0,.276.224.5.5.5s.5-.224.5-.5v-1.5h2c.276,0,.5-.224.5-.5s-.224-.5-.5-.5h-2v-3.021c3.075-.255,5.5-2.839,5.5-5.979,0-1.475-.535-2.827-1.421-3.872l6.386-6.386c.022.083.034.169.034.259v3.5c0,.276.224.5.5.5s.5-.224.5-.5v-3.5c0-1.103-.897-2-2-2Zm-10,17c-2.757,0-5-2.243-5-5s2.243-5,5-5,5,2.243,5,5-2.243,5-5,5Z"/>
</svg>
