<?xml version="1.0" encoding="UTF-8"?>
<svg xmlns="http://www.w3.org/2000/svg" id="Layer_1" data-name="Layer 1" viewBox="0 0 24 24">
  <path d="m21.5,9.5c-1.208,0-2.217.86-2.449,2h-3.101c-.133-1.054-.671-1.973-1.46-2.607l1.629-2.66c.271.099.551.166.839.166.195,0,.393-.023.589-.07.648-.156,1.198-.556,1.548-1.126.719-1.175.349-2.717-.827-3.438-1.177-.719-2.718-.348-3.438.827-.349.569-.454,1.241-.298,1.89.116.484.369.912.725,1.243l-1.614,2.636c-.502-.228-1.055-.362-1.642-.362s-1.14.134-1.642.362l-1.614-2.636c.356-.331.609-.759.726-1.243.156-.648.051-1.32-.299-1.891-.719-1.174-2.259-1.547-3.438-.825-1.175.72-1.545,2.262-.826,3.437.35.57.899.97,1.548,1.126.196.047.394.07.589.07.289,0,.568-.068.839-.167l1.629,2.661c-.79.634-1.327,1.553-1.461,2.607h-3.101c-.232-1.14-1.242-2-2.449-2-1.379,0-2.5,1.121-2.5,2.5s1.121,2.5,2.5,2.5c1.208,0,2.217-.86,2.449-2h3.101c.133,1.054.671,1.973,1.461,2.607l-1.62,2.645c-.456-.167-.951-.198-1.437-.081-.648.156-1.198.556-1.548,1.126-.719,1.175-.349,2.717.827,3.438.406.248.856.367,1.301.367.843,0,1.666-.425,2.137-1.193h0c.349-.57.454-1.242.298-1.891-.116-.484-.369-.912-.725-1.243l1.614-2.636c.502.228,1.055.361,1.642.361s1.14-.134,1.642-.362l1.614,2.636c-.356.331-.609.759-.726,1.243-.156.648-.051,1.32.298,1.89h0c.471.77,1.294,1.194,2.137,1.194.444,0,.895-.119,1.302-.368,1.175-.72,1.545-2.262.826-3.437-.35-.57-.899-.97-1.548-1.126-.487-.116-.981-.085-1.437.082l-1.62-2.646c.79-.634,1.327-1.553,1.461-2.607h3.101c.232,1.14,1.242,2,2.449,2,1.379,0,2.5-1.121,2.5-2.5s-1.121-2.5-2.5-2.5Zm-5.819-6.385c.283-.462.777-.717,1.283-.717.267,0,.537.071.78.22.705.433.928,1.358.496,2.063-.209.342-.539.581-.929.675-.389.096-.791.03-1.134-.18-.705-.431-.928-1.356-.497-2.062Zm-8.992,2.241c-.39-.094-.72-.333-.929-.675-.432-.705-.209-1.631.495-2.062.709-.432,1.633-.208,2.063.495.431.706.209,1.63-.495,2.062,0,0,0,0,0,0,0,0,0,0-.001.001-.341.208-.742.273-1.133.179Zm1.63,15.529c-.434.704-1.358.925-2.062.496-.705-.433-.928-1.358-.496-2.063.209-.342.539-.581.929-.675.117-.028.235-.042.353-.042.273,0,.542.075.781.222.705.431.928,1.356.496,2.062Zm8.993-2.242c.39.094.72.333.929.675.432.705.209,1.631-.495,2.062-.706.433-1.63.209-2.063-.495-.431-.706-.209-1.63.496-2.062,0,0,0,0,0,0,0,0,0,0,.001-.001.34-.208.743-.273,1.133-.179ZM2.5,13.5c-.827,0-1.5-.673-1.5-1.5s.673-1.5,1.5-1.5,1.5.673,1.5,1.5-.673,1.5-1.5,1.5Zm9.5,1.5c-1.654,0-3-1.346-3-3s1.346-3,3-3,3,1.346,3,3-1.346,3-3,3Zm9.5-1.5c-.827,0-1.5-.673-1.5-1.5s.673-1.5,1.5-1.5,1.5.673,1.5,1.5-.673,1.5-1.5,1.5Z"/>
</svg>
