<?xml version="1.0" encoding="UTF-8"?>
<svg xmlns="http://www.w3.org/2000/svg" id="Layer_1" data-name="Layer 1" viewBox="0 0 24 24">
  <path d="m23.315.686c-.647-.646-1.582-.853-2.456-.535L2.218,7.63C.687,8.244-.226,9.867.049,11.49c1.081,6.372,6.088,11.38,12.46,12.46.194.033.388.049.58.049,1.417,0,2.74-.868,3.281-2.217L23.856,3.126c.312-.859.105-1.794-.541-2.44Zm-7.872,20.724c-.44,1.099-1.607,1.752-2.766,1.555h0c-5.953-1.009-10.631-5.688-11.641-11.642-.197-1.161.457-2.324,1.555-2.765l1.428-.573c.189,7.367,4.63,11.808,11.997,11.997l-.573,1.428Zm3.729-9.879c-1.222-.446-2.043-1.62-2.043-2.922,0-1.714,1.395-3.108,3.109-3.108.469,0,.921.103,1.342.304.037.018.076.021.114.029l-2.337,5.823c-.051-.053-.111-.098-.185-.125Zm3.751-8.762l-.869,2.165c-.016-.01-.026-.024-.043-.032-.557-.267-1.154-.401-1.773-.401-2.266,0-4.109,1.843-4.109,4.108,0,1.721,1.085,3.272,2.7,3.861.057.021.114.03.171.03.007,0,.013-.006.02-.006l-2.609,6.503c-7.116-.036-11.371-4.292-11.407-11.407L21.216,1.084c.155-.057.312-.084.466-.084.341,0,.668.135.926.393.374.374.489.895.314,1.376Z"/>
  <path d="m10.5,8c-1.378,0-2.5,1.121-2.5,2.5s1.122,2.5,2.5,2.5,2.5-1.121,2.5-2.5-1.122-2.5-2.5-2.5Zm0,4c-.827,0-1.5-.673-1.5-1.5s.673-1.5,1.5-1.5,1.5.673,1.5,1.5-.673,1.5-1.5,1.5Z"/>
</svg>
