<?xml version="1.0" encoding="UTF-8"?>
<svg xmlns="http://www.w3.org/2000/svg" id="Layer_1" data-name="Layer 1" viewBox="0 0 24 24">
  <path d="m19,12c0,.276-.224.5-.5.5h-2v2c0,.276-.224.5-.5.5s-.5-.224-.5-.5v-2h-2c-.276,0-.5-.224-.5-.5s.224-.5.5-.5h2v-2c0-.276.224-.5.5-.5s.5.224.5.5v2h2c.276,0,.5.224.5.5Zm-8.5-5h-5c-.276,0-.5.224-.5.5s.224.5.5.5h5c.235,0,.357.155.398.223.041.066.126.244.047.409l-4.866,7.599c-.149.232-.081.542.151.69.083.054.177.079.269.079.165,0,.326-.081.421-.23l4.893-7.645c.229-.458.205-.992-.064-1.429-.27-.436-.736-.696-1.249-.696Zm13.5,5c0,6.617-5.383,12-12,12S0,18.617,0,12,5.383,0,12,0s12,5.383,12,12Zm-1,0c0-6.065-4.935-11-11-11S1,5.935,1,12s4.935,11,11,11,11-4.935,11-11Z"/>
</svg>
