<?xml version="1.0" encoding="UTF-8"?>
<svg xmlns="http://www.w3.org/2000/svg" id="Layer_1" data-name="Layer 1" viewBox="0 0 24 24">
  <path d="m19.5,6h-6c-2.481,0-4.5,2.019-4.5,4.5v7c0,1.391.822,2.585,2,3.149v2.351h-1.5c-.276,0-.5.224-.5.5s.224.5.5.5h14c.276,0,.5-.224.5-.5s-.224-.5-.5-.5h-2v-2.163c1.441-.434,2.5-1.757,2.5-3.337v-7c0-2.481-2.019-4.5-4.5-4.5Zm-2.5,8v-4h5.949c.024.165.051.329.051.5v3.5h-6Zm-7,0v-3.5c0-.171.027-.335.051-.5h5.949v4h-6Zm3.5-7h6c1.391,0,2.585.822,3.149,2h-12.298c.564-1.178,1.758-2,3.149-2Zm7,16h-8.5v-2.051c.165.024.329.051.5.051h8v2Zm0-3h-8c-1.379,0-2.5-1.122-2.5-2.5v-2.5h2v1.5c0,.276.224.5.5.5s.5-.224.5-.5v-1.5h7v1.5c0,.276.224.5.5.5s.5-.224.5-.5v-1.5h2v2.5c0,1.378-1.121,2.5-2.5,2.5Zm-14-2H1V3.5c0-1.378,1.121-2.5,2.5-2.5h1.5v1.5c0,.827.673,1.5,1.5,1.5h5c.827,0,1.5-.673,1.5-1.5v-1c0-.827-.673-1.5-1.5-1.5H3.5C1.57,0,0,1.57,0,3.5v18.5c0,1.103.897,2,2,2h2c1.103,0,2-.897,2-2v-3h.5c.276,0,.5-.224.5-.5s-.224-.5-.5-.5ZM6,1h5.5c.275,0,.5.224.5.5v1c0,.276-.225.5-.5.5h-5c-.275,0-.5-.224-.5-.5v-1.5Zm-1,21c0,.551-.448,1-1,1h-2c-.552,0-1-.449-1-1v-3h4v3Z"/>
</svg>
