<?xml version="1.0" encoding="UTF-8"?>
<svg xmlns="http://www.w3.org/2000/svg" id="Layer_1" data-name="Layer 1" viewBox="0 0 24 24">
  <path d="m24,23.5c0,.276-.224.5-.5.5H4.5c-2.481,0-4.5-2.019-4.5-4.5V.5C0,.224.224,0,.5,0s.5.224.5.5v19c0,1.93,1.57,3.5,3.5,3.5h19c.276,0,.5.224.5.5Zm-3-3c0,.276.224.5.5.5s.5-.224.5-.5c0-1.661-.22-3.309-.655-4.896-.073-.268-.351-.421-.614-.351-.267.073-.423.348-.351.614.411,1.501.62,3.06.62,4.632Zm-1.676-7.481c.085.181.265.286.453.286.071,0,.145-.016.213-.048.25-.118.356-.416.238-.666-.67-1.416-1.522-2.746-2.533-3.954-.175-.211-.491-.239-.704-.062-.212.178-.24.493-.062.705.956,1.142,1.761,2.399,2.395,3.739ZM10.983,4.677c1.352.64,2.623,1.456,3.775,2.426.094.079.208.117.321.117.143,0,.284-.061.383-.178.178-.212.15-.527-.061-.705-1.218-1.025-2.562-1.888-3.991-2.564-.251-.116-.548-.011-.666.238-.118.25-.011.548.238.666Zm-7.483-1.677c1.575,0,3.137.209,4.641.622.044.012.089.018.133.018.219,0,.421-.146.482-.368.073-.266-.084-.541-.35-.614-1.59-.436-3.241-.657-4.905-.657-.276,0-.5.224-.5.5s.224.5.5.5Z"/>
</svg>
