<?xml version="1.0" encoding="UTF-8"?>
<svg xmlns="http://www.w3.org/2000/svg" id="Layer_1" data-name="Layer 1" viewBox="0 0 24 24">
  <path d="m22.257,17.577c.052.007-.052,0,0,0h0Zm1.431-8.629c-.025.03-3.823,2.904-3.823,2.904l3.336,3.555c.355.527.361,1.125.068,1.592-.23.366-.607.578-1.012.578-2.354-.318-6.945-.577-10.257-.577s-7.748.249-10.102.566c-.457.061-.907-.155-1.167-.567-.293-.466-.287-1.064.015-1.524l3.39-3.622S.338,8.978.312,8.948c-.318-.388-.401-.926-.216-1.406.168-.435.527-.733.962-.796,2.4-.353,7.484-.746,10.941-.746s8.541.393,10.941.746c.435.063.794.361.962.796.186.479.103,1.018-.216,1.406Zm-.717-1.045c-.021-.057-.073-.153-.174-.168-2.367-.348-7.383-.735-10.797-.735s-8.43.387-10.797.735c-.101.015-.152.111-.174.168-.037.097-.049.247.029.372l4.124,3.115c.113.085.185.215.196.356.013.141-.036.281-.134.385l-3.717,3.961c-.046.084-.021.264.05.375.052.083.116.116.188.108,2.39-.322,6.885-.575,10.234-.575s7.845.253,10.234.575c.069.007.136-.026.188-.108.07-.111.096-.291-.004-.442l-3.663-3.894c-.098-.104-.146-.244-.134-.385.012-.142.083-.271.196-.356l4.124-3.115c.078-.125.066-.275.029-.372Z"/>
</svg>
