<?xml version="1.0" encoding="UTF-8"?>
<svg xmlns="http://www.w3.org/2000/svg" id="Layer_1" data-name="Layer 1" viewBox="0 0 24 24">
  <path d="m20,12c0,.276-.224.5-.5.5h-2v2c0,.276-.224.5-.5.5s-.5-.224-.5-.5v-2h-2c-.276,0-.5-.224-.5-.5s.224-.5.5-.5h2v-2c0-.276.224-.5.5-.5s.5.224.5.5v2h2c.276,0,.5.224.5.5Zm4,0c0,6.617-5.383,12-12,12S0,18.617,0,12,5.383,0,12,0s12,5.383,12,12Zm-1,0c0-6.065-4.935-11-11-11S1,5.935,1,12s4.935,11,11,11,11-4.935,11-11Zm-11-1.5v3c0,1.93-1.57,3.5-3.5,3.5s-3.5-1.57-3.5-3.5v-3c0-1.93,1.57-3.5,3.5-3.5s3.5,1.57,3.5,3.5Zm-1,0c0-1.378-1.121-2.5-2.5-2.5s-2.5,1.122-2.5,2.5v3c0,1.378,1.121,2.5,2.5,2.5s2.5-1.122,2.5-2.5v-3Z"/>
</svg>
