<?xml version="1.0" encoding="UTF-8"?>
<svg xmlns="http://www.w3.org/2000/svg" id="Layer_1" data-name="Layer 1" viewBox="0 0 24 24">
  <path d="m12,11c1.336,0,2.592-.521,3.535-1.465.944-.944,1.465-2.199,1.465-3.535s-.521-2.591-1.473-3.542l-1.892-1.815c-.902-.883-2.371-.882-3.268-.003l-1.903,1.825c-.944.944-1.465,2.199-1.465,3.535s.521,2.591,1.465,3.535,2.2,1.465,3.535,1.465Zm-2.836-7.821l1.899-1.821c.258-.252.597-.378.936-.378s.681.127.941.381l1.888,1.812c.756.756,1.172,1.76,1.172,2.828s-.416,2.072-1.172,2.828c-.755.756-1.76,1.172-2.828,1.172s-2.072-.416-2.828-1.172-1.172-1.76-1.172-2.828.416-2.072,1.164-2.821Zm14.836,6.321c0,.276-.224.5-.5.5h-5c-.276,0-.5-.224-.5-.5s.224-.5.5-.5h5c.276,0,.5.224.5.5ZM.5,10c-.276,0-.5-.224-.5-.5s.224-.5.5-.5h5c.276,0,.5.224.5.5s-.224.5-.5.5H.5Zm6.5,10c0,.552-.448,1-1,1s-1-.448-1-1,.448-1,1-1,1,.448,1,1Zm3-3c0,.552-.448,1-1,1s-1-.448-1-1,.448-1,1-1,1,.448,1,1Zm-6,0c0,.552-.448,1-1,1s-1-.448-1-1,.448-1,1-1,1,.448,1,1Zm12,0c0,.552-.448,1-1,1s-1-.448-1-1,.448-1,1-1,1,.448,1,1Zm6,0c0,.552-.448,1-1,1s-1-.448-1-1,.448-1,1-1,1,.448,1,1Zm-12,6c0,.552-.448,1-1,1s-1-.448-1-1,.448-1,1-1,1,.448,1,1Zm-6,0c0,.552-.448,1-1,1s-1-.448-1-1,.448-1,1-1,1,.448,1,1Zm12,0c0,.552-.448,1-1,1s-1-.448-1-1,.448-1,1-1,1,.448,1,1Zm6,0c0,.552-.448,1-1,1s-1-.448-1-1,.448-1,1-1,1,.448,1,1Zm-9-3c0,.552-.448,1-1,1s-1-.448-1-1,.448-1,1-1,1,.448,1,1Zm6,0c0,.552-.448,1-1,1s-1-.448-1-1,.448-1,1-1,1,.448,1,1Zm4.781-6.903c.129.09.219.233.219.403,0,.276-.224.5-.5.5-.107,0-.2-.041-.281-.097,0,0-.622-.423-.884-.614-.53-.384-1.325-.384-1.852,0-.639.465-1.403.711-2.211.711s-1.572-.246-2.211-.712c-.528-.384-1.324-.384-1.851,0-1.277.931-3.145.931-4.422,0-.526-.383-1.321-.384-1.852,0-1.274.931-3.143.932-4.421,0-.526-.383-1.321-.384-1.852,0-.263.191-.884.614-.884.614-.081.057-.174.097-.281.097-.276,0-.5-.224-.5-.5,0-.17.09-.312.219-.403,0,0,.599-.429.858-.617.878-.639,2.153-.638,3.027,0,.936.681,2.312.68,3.244,0,.878-.639,2.152-.64,3.028,0,.936.681,2.311.681,3.246,0,.874-.638,2.149-.639,3.027,0,.934.681,2.31.681,3.245,0,.874-.638,2.149-.639,3.027,0,.259.188.858.617.858.617Z"/>
</svg>
