<?xml version="1.0" encoding="UTF-8"?>
<svg xmlns="http://www.w3.org/2000/svg" id="Layer_1" data-name="Layer 1" viewBox="0 0 24 24">
  <path d="m7.435,9.509c-1.338-.929-1.935-2.011-1.935-3.509s.597-2.581,1.935-3.509c.471-.328.681-.899.535-1.456-.145-.55-.602-.94-1.165-.993-.293-.028-.57-.042-.805-.042C2.691,0,0,2.691,0,6s2.691,6,6,6c.235,0,.511-.014.804-.041.563-.053,1.021-.443,1.166-.993.146-.557-.063-1.129-.535-1.457Zm-.432,1.203c-.018.069-.083.231-.292.251-.26.024-.503.037-.711.037-2.757,0-5-2.243-5-5S3.243,1,6,1c.208,0,.451.013.71.038.209.02.274.182.292.251.015.057.049.251-.138.381-1.591,1.104-2.364,2.521-2.364,4.331s.773,3.227,2.364,4.331c.187.13.153.325.138.381Zm15.271,1.592l-3-2.347c-1.633-1.278-3.914-1.278-5.547,0l-3,2.348c-1.097.859-1.727,2.151-1.727,3.544v4.152c0,2.206,1.794,4,4,4h7c2.206,0,4-1.794,4-4v-4.152c0-1.393-.629-2.685-1.727-3.544Zm.727,7.696c0,1.654-1.346,3-3,3h-7c-1.654,0-3-1.346-3-3v-4.152c0-1.083.489-2.088,1.343-2.757l3-2.347c.635-.497,1.396-.745,2.157-.745s1.522.249,2.157.745l3,2.347c.854.669,1.343,1.674,1.343,2.757v4.152Zm-5.5-5h-2c-.827,0-1.5.673-1.5,1.5v2c0,.827.673,1.5,1.5,1.5h2c.827,0,1.5-.673,1.5-1.5v-2c0-.827-.673-1.5-1.5-1.5Zm.5,3.5c0,.275-.224.5-.5.5h-2c-.276,0-.5-.225-.5-.5v-2c0-.275.224-.5.5-.5h2c.276,0,.5.225.5.5v2Zm1-12.076c.004-.215.146-.404.351-.468l1.256-.393.419-1.257c.136-.408.812-.408.948,0l.421,1.263,1.263.421c.204.068.342.259.342.474s-.138.406-.342.474l-1.263.421-.421,1.263c-.068.204-.259.342-.474.342s-.406-.138-.474-.342l-.423-1.269-1.27-.449c-.203-.072-.337-.265-.333-.48Zm-9.194-2.017l2.308.972.922,2.306c.076.19.26.314.464.314s.388-.125.464-.314l.92-2.301,2.301-.92c.19-.076.314-.26.314-.464s-.125-.388-.314-.464l-2.301-.92-.92-2.301c-.152-.38-.776-.38-.929,0l-.918,2.296-2.294.868c-.191.073-.319.254-.323.458s.117.391.306.47Zm2.871-.939c.131-.05.235-.152.288-.282l.536-1.339.536,1.339c.051.127.151.228.279.279l1.339.536-1.339.536c-.127.051-.228.151-.279.279l-.536,1.339-.536-1.339c-.05-.124-.147-.223-.27-.275l-1.348-.568,1.33-.503Zm-6.177,14.987c0,.229-.156.43-.379.485l-1.709.427-.427,1.709c-.056.223-.256.379-.485.379s-.43-.156-.485-.379l-.429-1.715-1.716-.462c-.222-.06-.374-.262-.37-.491s.164-.427.388-.479l1.702-.394.425-1.702c.111-.445.859-.445.971,0l.427,1.709,1.709.427c.223.056.379.256.379.485Z"/>
</svg>
