<?xml version="1.0" encoding="UTF-8"?>
<svg xmlns="http://www.w3.org/2000/svg" id="Layer_1" data-name="Layer 1" viewBox="0 0 24 24">
  <path d="m16.851,17.267l-2.829-12.725.888-2.226c.18-.544.09-1.122-.246-1.586-.335-.464-.856-.73-1.429-.73h-2.471c-.573,0-1.094.266-1.429.73-.335.464-.425,1.042-.235,1.615l.878,2.197-2.815,12.675c-.398,1.194-.054,2.512.877,3.36l3.623,3.293c.095.086.216.13.336.13s.241-.043.336-.13l3.623-3.293c.931-.847,1.276-2.166.892-3.31ZM10.146,1.316c.146-.201.371-.316.619-.316h2.471c.248,0,.474.115.619.316.145.201.184.451.117.657l-.81,2.026h-2.323l-.799-1.998c-.077-.235-.039-.485.106-.686Zm5.141,18.521l-3.286,2.987-3.286-2.987c-.639-.581-.875-1.485-.588-2.354l2.775-12.484h2.198l2.789,12.534c.273.818.037,1.723-.602,2.303Z"/>
</svg>
