<?xml version="1.0" encoding="UTF-8"?>
<svg xmlns="http://www.w3.org/2000/svg" id="Layer_1" data-name="Layer 1" viewBox="0 0 24 24">
  <path d="m6.902,14.999l-1.47,2.545c-.092.16-.261.25-.433.25-.085,0-.171-.021-.25-.067-.239-.138-.321-.443-.183-.683l1.47-2.546c.162-.28.088-.641-.179-.877-.321-.284-.604-.602-.847-.945l-3.049,1.766c-.079.046-.165.067-.251.067-.172,0-.34-.09-.433-.25-.139-.238-.057-.544.183-.683l3.049-1.765c-.263-.568-.429-1.18-.487-1.811H.5c-.276,0-.5-.224-.5-.5s.224-.5.5-.5h3.523c.057-.627.219-1.224.469-1.773l-3.062-1.742c-.24-.137-.324-.441-.188-.682.136-.24.441-.323.682-.188l3.064,1.743c.366-.524.82-.982,1.342-1.351l-1.762-3.052c-.139-.239-.057-.545.183-.683.238-.139.545-.058.683.183l1.762,3.051c.558-.259,1.166-.427,1.806-.484V.5c0-.276.224-.5.5-.5s.5.224.5.5v3.523c.61.055,1.201.211,1.751.458l1.728-3.07c.136-.242.443-.325.681-.19.241.135.326.44.19.681l-1.728,3.07c.4.276.766.607,1.087.988.165.198.429.249.641.126l2.666-1.561c.24-.137.545-.059.685.179.14.238.06.545-.179.685l-2.667,1.561c-.632.367-1.435.221-1.911-.345-.349-.415-.765-.759-1.225-1.019-.004-.002-.008-.004-.011-.006-.001,0-.002-.002-.004-.002-.665-.374-1.421-.576-2.203-.576-2.481,0-4.5,2.019-4.5,4.5,0,1.289.555,2.519,1.521,3.372.628.557.785,1.431.382,2.127Zm17.098-.999c0,1.046-.65,2.565-1.254,3.373-.298.398-.752.627-1.246.627s-.948-.229-1.246-.626c-.604-.809-1.254-2.328-1.254-3.374,0-1.19.836-2.188,1.951-2.439-.096-2.301-.929-3.561-2.368-3.561-.776,0-2.583.392-2.583,4.022v11.478c0,.276-.224.5-.5.5s-.5-.224-.5-.5v-6.478c0-3.631-1.807-4.022-2.583-4.022-1.44,0-2.272,1.26-2.368,3.561,1.116.251,1.951,1.248,1.951,2.439,0,1.046-.65,2.565-1.254,3.373-.298.398-.752.627-1.246.627s-.948-.229-1.246-.626c-.604-.809-1.254-2.328-1.254-3.374,0-1.225.885-2.245,2.049-2.458.162-4.087,2.39-4.542,3.368-4.542.508,0,1.711.133,2.583,1.267v-1.244c0-4.66,2.742-5.022,3.583-5.022.978,0,3.206.455,3.368,4.542,1.164.213,2.049,1.234,2.049,2.458Zm-14.5,3.5c-1,0-1.5.705-1.5,1.5,0,.779.557,2.107,1.055,2.775.215.285.676.286.891,0,.498-.667,1.055-1.995,1.055-2.774,0-.774-.5-1.5-1.5-1.5Zm13.5-3.5c0-.795-.5-1.5-1.5-1.5s-1.5.726-1.5,1.5c0,.779.557,2.107,1.055,2.775.215.285.676.286.891,0,.498-.667,1.055-1.995,1.055-2.774Z"/>
</svg>
