<?xml version="1.0" encoding="UTF-8"?>
<svg xmlns="http://www.w3.org/2000/svg" id="Layer_1" data-name="Layer 1" viewBox="0 0 24 24">
  <path d="m19.443,20.956c.01,0,.02,0,.03,0,.263,0,.488-.242.507-.508.01-.148.021-.298.021-.449,0-1.112-.224-2.188-.666-3.2-.11-.252-.402-.367-.658-.258-.253.11-.369.405-.258.658.386.885.582,1.826.582,2.8,0,.128-.024.466-.024.466-.019.275.192.471.467.49Z"/>
  <path d="m23.966,20.853c-.14,1.766-1.671,3.147-3.485,3.147h-3.059c-.276,0-.5-.224-.5-.5s.224-.5.5-.5h3.059c1.296,0,2.389-.978,2.488-2.227.172-2.168-.387-4.284-1.66-6.288-2.276-3.584-5.922-5.633-9.762-5.476-5.915.238-10.548,5.065-10.548,10.99,0,.261.011.518.031.774.099,1.248,1.191,2.226,2.488,2.226h3.059c.276,0,.5.224.5.5s-.224.5-.5.5h-3.059c-1.814,0-3.345-1.383-3.485-3.147-.022-.282-.034-.566-.034-.853,0-3.562,1.541-6.755,4-8.953v-6.687l-2.153,2.077c-.199.192-.515.188-.707-.013-.192-.198-.186-.515.013-.706l2.426-2.341c.506-.506,1.338-.504,1.848.006l2.42,2.335c.199.191.205.508.013.706-.098.103-.229.153-.36.153-.125,0-.25-.047-.347-.141l-2.153-2.077v5.878c1.838-1.317,4.069-2.128,6.5-2.228V1.361l-2.153,2.077c-.199.192-.515.189-.707-.013-.192-.198-.186-.515.013-.706L11.079.378c.506-.507,1.338-.503,1.848.006l2.42,2.335c.199.191.205.508.013.706-.098.103-.229.153-.36.153-.125,0-.25-.047-.347-.141l-2.153-2.077v6.68c2.348.118,4.59.965,6.5,2.44v-6.12l-2.153,2.077c-.198.192-.515.188-.707-.013-.192-.198-.186-.515.013-.706l2.426-2.341c.506-.506,1.337-.504,1.848.006l2.42,2.335c.199.191.205.508.013.706-.098.103-.229.153-.36.153-.125,0-.25-.047-.347-.141l-2.153-2.077v6.982c.798.758,1.528,1.622,2.153,2.607,1.393,2.191,2.002,4.514,1.813,6.903Z"/>
  <path d="m17.854,14.854c.195-.195.195-.512,0-.707s-.512-.195-.707,0l-4.137,4.137c-.297-.176-.64-.283-1.01-.283-1.103,0-2,.897-2,2s.897,2,2,2,2-.897,2-2c0-.37-.108-.712-.283-1.01l4.137-4.137Zm-5.854,6.146c-.551,0-1-.448-1-1s.449-1,1-1,1,.448,1,1-.449,1-1,1Z"/>
  <path d="m12,13c.973,0,1.916.196,2.8.582.257.11.549-.006.658-.258.111-.253-.005-.548-.258-.658-1.012-.442-2.088-.666-3.2-.666-4.411,0-8,3.589-8,8,0,.151-.016.267,0,.5,0,.276.224.5.5.5s.5-.224.5-.5c-.009-.125,0-.372,0-.5,0-3.859,3.14-7,7-7Z"/>
</svg>
