<?xml version="1.0" encoding="UTF-8"?>
<svg xmlns="http://www.w3.org/2000/svg" id="Layer_1" data-name="Layer 1" viewBox="0 0 24 24">
  <path d="m16.5,2h-.55c-.232-1.14-1.243-2-2.45-2h-3c-1.208,0-2.217.86-2.45,2h-.55c-2.481,0-4.5,2.019-4.5,4.5v13c0,2.481,2.019,4.5,4.5,4.5h9c2.481,0,4.5-2.019,4.5-4.5V6.5c0-2.481-2.019-4.5-4.5-4.5Zm3.5,17.5c0,1.93-1.57,3.5-3.5,3.5H7.5c-1.93,0-3.5-1.57-3.5-3.5V6.5c0-1.93,1.57-3.5,3.5-3.5h1c.276,0,.5-.224.5-.5,0-.827.673-1.5,1.5-1.5h3c.827,0,1.5.673,1.5,1.5,0,.276.224.5.5.5h1c1.93,0,3.5,1.57,3.5,3.5v13Zm-2.678-9.481c.195.195.195.512,0,.707l-4.425,4.425c-.566.566-1.307.852-2.049.852-.7,0-1.401-.254-1.958-.764l-2.196-2.013c-.204-.187-.217-.503-.031-.707.186-.203.503-.218.707-.031l2.196,2.013c.752.689,1.906.664,2.625-.057l4.425-4.425c.195-.195.512-.195.707,0Z"/>
</svg>
