<?xml version="1.0" encoding="UTF-8"?>
<svg xmlns="http://www.w3.org/2000/svg" id="Layer_1" data-name="Layer 1" viewBox="0 0 24 24">
  <path d="m16.5,0H7.5C5.019,0,3,2.019,3,4.5v15c0,2.481,2.019,4.5,4.5,4.5h9c2.481,0,4.5-2.019,4.5-4.5V4.5c0-2.481-2.019-4.5-4.5-4.5Zm3.5,19.5c0,1.93-1.57,3.5-3.5,3.5H7.5c-1.93,0-3.5-1.57-3.5-3.5V4.5c0-1.93,1.57-3.5,3.5-3.5h9c1.93,0,3.5,1.57,3.5,3.5v15Zm-6-8.5c-.101,0-.197.015-.293.03.182-.302.293-.651.293-1.03,0-1.105-.895-2-2-2s-2,.895-2,2c0,.378.111.728.293,1.03-.097-.014-.193-.03-.293-.03-1.105,0-2,.895-2,2s.895,2,2,2c.53,0,1.009-.21,1.367-.547-.196.649-.449,1.262-.792,1.795-.209.325.046.752.432.752h1.935c.386,0,.641-.427.432-.752-.332-.517-.584-1.198-.777-1.825.361.356.856.576,1.403.576,1.105,0,2-.895,2-2s-.895-2-2-2Zm-2-2c.551,0,1,.449,1,1,0,.176-.05.348-.149.512l-.845,1.416-.857-1.416c-.099-.164-.149-.336-.149-.512,0-.551.449-1,1-1Zm2,5c-.263,0-.512-.103-.701-.289l-1.299-1.711-1.299,1.711c-.189.186-.438.289-.701.289-.551,0-1-.449-1-1s.449-1,1-1c.044,0,2,0,2,0,0,0,1.956,0,2,0,.551,0,1,.449,1,1s-.449,1-1,1Z"/>
</svg>
