<?xml version="1.0" encoding="UTF-8"?>
<svg xmlns="http://www.w3.org/2000/svg" id="Layer_1" data-name="Layer 1" viewBox="0 0 24 24">
  <path d="m23.826,23.113c-.666.572-1.524.887-2.417.887-1.24,0-2.434-.594-3.137-1.494-.703.9-1.896,1.494-3.136,1.494s-2.434-.594-3.136-1.494c-.703.9-1.897,1.494-3.136,1.494s-2.434-.594-3.136-1.494c-.703.9-1.897,1.494-3.137,1.494-.893,0-1.75-.315-2.417-.887-.209-.18-.233-.496-.054-.705.181-.21.497-.233.705-.054.485.417,1.112.646,1.765.646,1.168,0,2.315-.719,2.668-1.673.072-.196.259-.327.469-.327s.396.13.469.327c.352.954,1.499,1.673,2.667,1.673s2.314-.719,2.667-1.673c.145-.393.793-.393.938,0,.353.954,1.5,1.673,2.667,1.673s2.315-.719,2.667-1.673c.146-.392.794-.393.938,0,.353.954,1.5,1.673,2.668,1.673.653,0,1.28-.229,1.765-.646.209-.179.525-.156.705.054.18.209.156.525-.054.705Zm-18.826-4.612l-.028-13.88C4.987,2.039,6.962.011,9.467,0v.002c.011,0,.022-.002.033-.002.276,0,.5.224.5.5s-.224.5-.5.5c-1.979.008-3.516,1.6-3.528,3.623l.005,2.382h12.023v-2.504C18,2.029,20.01.01,22.481,0h0c.006,0,.013,0,.019,0,.276,0,.5.224.5.5,0,.271-.216.492-.486.499h0c-1.951.009-3.514,1.579-3.514,3.501v14c0,.276-.224.5-.5.5s-.5-.224-.5-.5v-4.496H5.991l.009,4.495c0,.276-.223.5-.499.501h0c-.276,0-.5-.223-.5-.499Zm.979-10.497l.01,5h12.011v-5H5.979Z"/>
</svg>
