<?xml version="1.0" encoding="UTF-8"?>
<svg xmlns="http://www.w3.org/2000/svg" id="Layer_1" data-name="Layer 1" viewBox="0 0 24 24">
  <path d="m23.973,19.553c-.268,2.535-2.395,4.447-4.947,4.447H.5c-.276,0-.5-.224-.5-.5s.224-.5.5-.5h18.525c2.04,0,3.739-1.527,3.953-3.553.029-.275.259-.478.55-.444.274.029.474.275.444.55Zm-23.188.338c-.61-.705-.884-1.639-.751-2.562.185-1.271.417-2.554.691-3.812L2.99,3.146c.398-1.823,2.042-3.146,3.907-3.146h6.773c.722,0,1.39.326,1.834.894.444.568.6,1.295.426,1.995l-1.833,7.385,1.25.376c2.677.532,4.652,2.942,4.652,5.719v1.132c0,1.93-1.57,3.5-3.5,3.5H3.212c-.933,0-1.817-.404-2.428-1.109Zm.756-.654c.42.485,1.029.764,1.672.764h13.288c1.379,0,2.5-1.121,2.5-2.5v-1.132c0-2.302-1.638-4.299-3.894-4.75,0,0-1.877-.577-1.927-.618h-4.679c-.276,0-.5-.224-.5-.5s.224-.5.5-.5h4.636l.496-2h-4.132c-.276,0-.5-.224-.5-.5s.224-.5.5-.5h4.38l.496-2h-3.876c-.276,0-.5-.224-.5-.5s.224-.5.5-.5h4.125l.335-1.352c.1-.399.011-.814-.243-1.139-.253-.324-.635-.51-1.046-.51h-6.773c-1.399,0-2.632.992-2.931,2.359L1.701,13.73c-.269,1.235-.497,2.494-.678,3.741-.092.636.097,1.279.517,1.765Zm2.46-3.236c0-1.103.897-2,2-2s2,.897,2,2-.897,2-2,2-2-.897-2-2Zm1,0c0,.552.448,1,1,1s1-.448,1-1-.448-1-1-1-1,.448-1,1Z"/>
</svg>
