<?xml version="1.0" encoding="UTF-8"?>
<svg xmlns="http://www.w3.org/2000/svg" id="Layer_1" data-name="Layer 1" viewBox="0 0 24 24">
  <path d="m19.5,0H7.5C.541,0,0,4.593,0,6c0,3.367,2.395,5.221,4.887,6.59.004.004.005.01.009.014.071.071,3.655,1.847,4.285,2.157.743.365,2.878,1.45,2.893,1.455,1.393.728,2.679,1.459,2.875,1.785-.236.015-11.952,0-11.952,0-1.653,0-2.998,1.347-2.998,3s1.344,3,2.997,3h6.498s.004,0,.006,0c.002,0,.004-.001.006-.001h4.761c6.077,0,6.733-4.195,6.733-5.998,0-3.564-4.962-6.061-8.585-7.883-.924-.465-3.205-1.757-3.725-2.053-1.065-.606-2.272-1.294-2.659-1.698-.062-.065-.053-.136-.034-.183.016-.04.059-.108.159-.113.692-.032,1.517-.071,1.844-.071h6.196c.524,0,1.012.274,1.272.716.816,1.388,2.399,2.284,4.032,2.284h1.5c1.654,0,3-1.346,3-3v-1.5c0-2.481-2.019-4.5-4.5-4.5ZM1,21c0-1.102.896-1.999,1.998-2,0,0,5.326.008,6.002.009v3.99H2.997c-1.101.001-1.997-.896-1.997-1.999Zm13.267,1.998h-4.267s0-3.988,0-3.988c2.811.004,4.767.003,5.008-.011.251-.014.477-.124.653-.291l3.469,2.313c-.782,1.1-2.226,1.977-4.863,1.977Zm5.733-4.997c0,.626-.089,1.394-.389,2.139l-3.651-2.434c-.034-.137-.086-.27-.176-.386-.279-.361-1.157-.904-2.689-1.709l2.594-2.594c2.291,1.391,4.311,3.078,4.311,4.983Zm-8.035-6.989c.867.436,1.853.934,2.831,1.485l-2.634,2.634c-.734-.374-3.708-1.842-4.088-2.038-.293-.15-1.617-.807-1.971-.989l2.777-2.777c.26.15,2.14,1.209,3.085,1.685Zm-3.985-2.2l-2.798,2.798c-2.224-1.245-4.183-2.842-4.183-5.61,0-.532.085-1.313.448-2.101l3.546,2.365c.003.29.103.573.314.794.459.481,1.521,1.097,2.673,1.755Zm-1.871-3.739c-.263.012-.499.114-.691.272L1.97,3.045c.872-1.109,2.499-2.044,5.53-2.044h3.5s0,3.999,0,3.999h-3c-.336,0-1.181.039-1.89.073Zm16.89.927c0,1.103-.897,2-2,2h-1.5c-1.285,0-2.529-.703-3.17-1.792-.439-.745-1.257-1.208-2.134-1.208h-2.196V1.001h7.5c1.93,0,3.5,1.57,3.5,3.499v1.5Zm-2-2c0,.552-.448,1-1,1s-1-.448-1-1,.448-1,1-1,1,.448,1,1Z"/>
</svg>
