<?xml version="1.0" encoding="UTF-8"?>
<svg xmlns="http://www.w3.org/2000/svg" id="Layer_1" data-name="Layer 1" viewBox="0 0 24 24">
  <path d="m10.376,19.892c-.12.031-.242.039-.363.056l-.015-9.049,7.88-4.478c.084.303.129.618.128.94l-.007,2.137c0,.276.223.5.498.501h.002c.275,0,.499-.223.5-.499l.007-2.138c.003-1.615-.865-3.117-2.268-3.918L11.747.593c-1.377-.787-3.088-.787-4.465,0L2.282,3.451C.883,4.25.015,5.747.015,7.357v6.29c0,1.612.87,3.11,2.269,3.908l4.999,2.853c.688.393,1.452.593,2.225.593.372,0,.747-.046,1.116-.141.268-.068.429-.34.361-.608-.068-.268-.341-.43-.608-.361ZM2.778,4.319L7.778,1.461c1.071-.612,2.402-.612,3.473,0l4.992,2.853c.511.292.926.706,1.227,1.189l-7.972,4.53L1.547,5.513c.302-.486.718-.902,1.23-1.195Zm.001,12.369c-1.088-.621-1.765-1.786-1.765-3.04v-6.29c0-.317.044-.627.126-.925l7.858,4.467.015,9.063c-.43-.062-.849-.202-1.235-.423l-4.999-2.853Zm15.221-.688c-1.103,0-2,.897-2,2s.897,2,2,2,2-.897,2-2-.897-2-2-2Zm0,3c-.552,0-1-.449-1-1s.448-1,1-1,1,.449,1,1-.448,1-1,1Zm4.639-.013l-.232-.137c.063-.299.094-.576.094-.85s-.03-.551-.094-.85l.232-.137c.346-.203.592-.528.692-.917.101-.388.044-.792-.158-1.136-.203-.346-.528-.592-.917-.692-.386-.101-.791-.044-1.138.159l-.222.131c-.408-.34-.882-.606-1.396-.786v-.271c0-.827-.673-1.5-1.5-1.5s-1.5.673-1.5,1.5v.271c-.515.18-.988.446-1.396.786l-.223-.131c-.345-.203-.75-.26-1.137-.159-.389.101-.714.347-.916.692-.204.345-.26.749-.16,1.137.101.388.347.713.693.917l.232.137c-.063.299-.094.576-.094.85s.03.551.094.85l-.232.137c-.346.203-.592.528-.693.917-.101.388-.044.792.159,1.136.203.346.528.591.917.692.387.099.792.044,1.138-.159l.222-.13c.408.339.882.606,1.396.786v.271c0,.827.673,1.5,1.5,1.5s1.5-.673,1.5-1.5v-.271c.515-.18.988-.446,1.396-.786l.223.131c.345.203.749.258,1.137.159.389-.101.714-.347.916-.692.203-.345.26-.749.159-1.137-.101-.388-.347-.713-.692-.917Zm-1.289-1.942c.103.361.15.664.15.955s-.048.594-.15.955c-.062.219.03.453.228.568l.556.327c.115.068.197.176.23.305.033.129.015.264-.054.379-.067.115-.176.197-.305.23-.13.036-.265.015-.379-.052l-.54-.318c-.195-.116-.447-.084-.607.078-.43.43-.984.742-1.604.903-.221.057-.375.256-.375.484v.642c0,.276-.225.5-.5.5s-.5-.224-.5-.5v-.642c0-.228-.154-.427-.375-.484-.619-.161-1.174-.473-1.604-.903-.096-.097-.225-.147-.354-.147-.087,0-.175.022-.254.069l-.539.317c-.116.069-.252.087-.38.053-.129-.033-.237-.115-.306-.231-.067-.115-.086-.249-.053-.378.033-.129.115-.237.23-.305l.556-.327c.197-.116.29-.349.228-.568-.103-.361-.15-.664-.15-.955s.048-.594.15-.955c.062-.219-.03-.453-.228-.568l-.556-.327c-.115-.068-.197-.176-.23-.305-.033-.129-.015-.264.054-.379.067-.115.176-.197.305-.23.13-.034.266-.015.379.053l.54.318c.197.117.447.084.607-.077.431-.431.985-.743,1.604-.903.221-.057.375-.256.375-.484v-.642c0-.276.225-.5.5-.5s.5.224.5.5v.642c0,.228.154.427.375.484.618.16,1.173.473,1.604.903.159.161.41.192.607.077l.539-.317c.115-.067.25-.085.38-.053.129.034.237.115.306.231.067.115.086.249.053.378-.033.129-.115.237-.23.305l-.556.327c-.197.116-.29.349-.228.568Z"/>
</svg>
