<?xml version="1.0" encoding="UTF-8"?>
<svg xmlns="http://www.w3.org/2000/svg" id="Layer_1" data-name="Layer 1" viewBox="0 0 24 24">
  <path d="m24,19.5v1c0,.276-.224.5-.5.5s-.5-.224-.5-.5v-1c0-.827-.673-1.5-1.5-1.5h-9v2.5c0,.276-.224.5-.5.5s-.5-.224-.5-.5v-2.5H2.5c-.827,0-1.5.673-1.5,1.5v1c0,.276-.224.5-.5.5s-.5-.224-.5-.5v-1c0-1.379,1.122-2.5,2.5-2.5h19c1.379,0,2.5,1.121,2.5,2.5ZM0,12v-6c0-1.654,1.346-3,3-3h6c1.654,0,3,1.346,3,3v6c0,1.654-1.346,3-3,3H3c-1.654,0-3-1.346-3-3Zm1,0c0,1.103.897,2,2,2h6c1.103,0,2-.897,2-2v-6c0-1.103-.897-2-2-2H3c-1.103,0-2,.897-2,2v6Zm23-4v4c0,1.654-1.346,3-3,3h-4c-1.654,0-3-1.346-3-3v-4c0-1.654,1.346-3,3-3h4c1.654,0,3,1.346,3,3Zm-1,0c0-1.103-.897-2-2-2h-4c-1.103,0-2,.897-2,2v4c0,1.103.897,2,2,2h4c1.103,0,2-.897,2-2v-4Z"/>
</svg>
