<?xml version="1.0" encoding="UTF-8"?>
<svg xmlns="http://www.w3.org/2000/svg" id="Layer_1" data-name="Layer 1" viewBox="0 0 24 24">
  <path d="m7,23.5c0,.276-.224.5-.5.5h-1.8c-1.706,0-3.179-1.103-3.667-2.745-.471-1.591-1.033-3.846-1.033-5.555,0-1.023.2-2.06.595-3.083.371-.961,1.258-1.589,2.272-1.616.361-.999.961-1.832,1.203-2.168.588-.815,1.192-1.653.988-3.315-.041-.327-.076-.766.004-1.26.25-1.55,1.495-2.856,3.024-3.175.296-.062.666-.083.914-.083s.617.022.914.084c1.53.318,2.774,1.624,3.024,3.175.081.494.045.932.004,1.259-.204,1.661.399,2.499.982,3.309.07.096.166.229.276.393.155.229.095.54-.135.694-.226.153-.539.095-.693-.135-.103-.152-.192-.275-.257-.365-.633-.879-1.418-1.969-1.166-4.019.032-.261.061-.607,0-.977-.186-1.152-1.107-2.121-2.241-2.356-.36-.075-1.059-.075-1.419,0-1.134.236-2.055,1.205-2.241,2.356-.061.371-.031.717,0,.978.252,2.051-.533,3.141-1.165,4.017-.209.29-.631.876-.941,1.587h6.557c.276,0,.5.224.5.5s-.224.5-.5.5H2.937c-.626,0-1.179.384-1.409.978-.35.907-.528,1.823-.528,2.722,0,1.589.54,3.743.992,5.271.36,1.214,1.449,2.029,2.708,2.029h1.8c.276,0,.5.224.5.5Zm16.87-.427c-.248.572-.787.927-1.406.927h-11.928c-.62,0-1.158-.355-1.406-.927-.25-.578-.139-1.222.291-1.68.81-.866,2.093-2.509,1.825-4.049-.105-.601-.107-1.219-.008-1.837.35-2.18,2.014-3.944,4.142-4.391.738-.155,1.556-.155,2.296,0,2.126.447,3.791,2.211,4.142,4.391.099.617.096,1.235-.01,1.837-.285,1.639,1.13,3.361,1.751,4.026.005.005.01.01.014.016.003.002.005.005.007.007.431.458.542,1.102.292,1.68Zm-1.021-.997c-.006-.005-.011-.01-.015-.016-.003-.002-.005-.005-.008-.008-.898-.961-2.354-2.873-2.005-4.88.086-.493.088-1,.006-1.507-.28-1.747-1.662-3.215-3.359-3.572-.302-.063-.609-.094-.942-.094s-.641.031-.941.094c-1.698.357-3.08,1.825-3.36,3.571-.082.508-.08,1.015.006,1.507.342,1.967-1.143,3.902-2.058,4.881-.252.269-.159.544-.125.623.033.076.166.324.488.324h11.928c.322,0,.455-.249.488-.324.034-.079.127-.354-.103-.599Z"/>
</svg>
