<?xml version="1.0" encoding="UTF-8"?>
<svg xmlns="http://www.w3.org/2000/svg" id="Layer_1" data-name="Layer 1" viewBox="0 0 24 24">
  <path d="m14,4h-4c-1.103,0-2,.897-2,2s.897,2,2,2h4c1.103,0,2-.897,2-2s-.897-2-2-2Zm0,3h-4c-.552,0-1-.448-1-1s.448-1,1-1h4c.552,0,1,.448,1,1s-.448,1-1,1Zm6.642-1.42c-.041-.028-.083-.055-.125-.08.042-.025.084-.052.124-.08.536-.366.967-.972,1.282-1.799.14-.369.087-.783-.141-1.107-.229-.327-.602-.518-1.003-.513-.926.012-1.67.207-2.212.579-.441.302-.765.741-1.001,1.182-.889-2.203-3.049-3.762-5.567-3.762-3.309,0-6,2.691-6,6s2.691,6,6,6c2.755,0,5.081-1.866,5.783-4.4.208.311.466.601.784.82.542.372,1.286.567,2.212.579h.017c.393,0,.761-.19.986-.513.228-.324.28-.738.14-1.108-.313-.826-.745-1.431-1.28-1.798Zm-1.508-2.176c.469-.321,1.161-.396,1.659-.403.11-.004.147.055.171.087.022.032.055.098.024.179-.166.435-.458,1.018-.913,1.329-.521.358-1.359.417-1.945.401.173-.535.496-1.244,1.004-1.593Zm-7.134,7.596c-2.757,0-5-2.243-5-5S9.243,1,12,1s5,2.243,5,5-2.243,5-5,5Zm8.964-3.088c-.023.032-.058.104-.171.087-.498-.007-1.19-.082-1.659-.403-.508-.349-.832-1.059-1.004-1.594.037-.001.24-.002.261-.002.554.007,1.235.096,1.685.405h0c.454.312.746.895.911,1.328.031.082,0,.147-.023.18Zm-8.964,6.088c-4.411,0-8,3.589-8,8v1.5c0,.276.224.5.5.5s.5-.224.5-.5v-1.5c0-2.145.971-4.068,2.496-5.353.688,1.361,2.201,4.095,4.611,7.162.099.126.246.191.394.191.108,0,.218-.035.309-.106.218-.171.255-.485.085-.702-.129-.164-.255-.327-.378-.488,1.873-2.402,3.193-4.535,4.026-6.025,1.503,1.285,2.458,3.194,2.458,5.322v1.5c0,.276.224.5.5.5s.5-.224.5-.5v-1.5c0-4.411-3.589-8-8-8Zm-.105,7.871c-1.863-2.559-3.038-4.736-3.579-5.82,1.071-.666,2.333-1.051,3.684-1.051,1.37,0,2.65.396,3.731,1.08-.786,1.417-2.043,3.466-3.836,5.791Z"/>
</svg>
