<?xml version="1.0" encoding="UTF-8"?>
<svg xmlns="http://www.w3.org/2000/svg" id="Layer_1" data-name="Layer 1" viewBox="0 0 24 24">
  <path d="m23.999,16.521c0-4.26-3.041-7.006-5.262-9.011-.474-.429-.913-.825-1.279-1.198-.937-.955-1.454-2.199-1.458-3.505-.004-1.546-1.115-2.807-2.661-2.807h-2.545c-1.543,0-2.794,1.251-2.794,2.794,0,1.311-.518,2.561-1.459,3.52-.365.372-.805.769-1.278,1.197C3.042,9.516,0,12.262,0,16.51c-.07,2.94,2.137,5.403,4.92,5.49h3.079v1.5c0,.276.224.5.5.5s.5-.224.5-.5v-1.5h2.5v1.5c0,.276.224.5.5.5s.5-.224.5-.5v-1.5h2.5v1.5c0,.276.224.5.5.5s.5-.224.5-.5v-1.5h3.079c2.783-.087,4.99-2.55,4.92-5.479Zm-19.055,4.479c-2.232-.073-4.001-2.076-3.943-4.479,0-3.815,2.734-6.285,4.932-8.27.49-.442.944-.853,1.322-1.238,1.126-1.147,1.745-2.646,1.745-4.22,0-.704.408-1.315,1-1.608v1.814c0,1.27-.328,3.437-.858,4.724-.37.901-.964,1.797-1.593,2.746-1.194,1.803-2.549,3.846-2.549,6.378,0,1.681.913,3.205,2.29,4.152h-2.346Zm5.556,0c-2.439,0-4.5-1.901-4.5-4.152,0-2.23,1.211-4.059,2.383-5.825.656-.991,1.276-1.927,1.684-2.918.149-.362.283-.782.4-1.229.103.436.227.848.376,1.212.413,1.003,1.054,1.951,1.732,2.955,1.192,1.765,2.425,3.59,2.425,5.805,0,2.251-2.061,4.152-4.5,4.152Zm8.563,0h-5.354c1.377-.947,2.29-2.471,2.29-4.152,0-2.521-1.38-4.563-2.597-6.364-.648-.961-1.262-1.868-1.635-2.776-.492-1.198-.713-3.171-.713-4.605l-.045-2.102h2.195c.989,0,1.794.805,1.794,1.794,0,1.574.619,3.072,1.744,4.219.379.387.833.797,1.323,1.239,2.197,1.984,4.932,4.454,4.932,8.281.058,2.394-1.715,4.397-3.936,4.467Z"/>
</svg>
