<?xml version="1.0" encoding="UTF-8"?>
<svg xmlns="http://www.w3.org/2000/svg" id="Layer_1" data-name="Layer 1" viewBox="0 0 24 24">
  <path d="m18.5,0H5.5C3.019,0,1,2.019,1,4.5v11c0,1.557.795,2.932,2,3.74v2.26c0,1.379,1.122,2.5,2.5,2.5h13c1.378,0,2.5-1.121,2.5-2.5v-2.26c1.205-.808,2-2.183,2-3.74V4.5c0-2.481-2.019-4.5-4.5-4.5Zm1.5,21.5c0,.827-.673,1.5-1.5,1.5H5.5c-.827,0-1.5-.673-1.5-1.5v-1.757c.469.166.974.257,1.5.257h13c.526,0,1.031-.091,1.5-.257v1.757Zm2-6c0,1.93-1.57,3.5-3.5,3.5H5.5c-1.93,0-3.5-1.57-3.5-3.5V4.5c0-1.93,1.57-3.5,3.5-3.5h13c1.93,0,3.5,1.57,3.5,3.5v11Zm-4.5-11.5H6.5c-.827,0-1.5.673-1.5,1.5v5c0,.827.673,1.5,1.5,1.5h11c.827,0,1.5-.673,1.5-1.5v-5c0-.827-.673-1.5-1.5-1.5Zm.5,6.5c0,.276-.224.5-.5.5H6.5c-.276,0-.5-.224-.5-.5v-5c0-.276.224-.5.5-.5h11c.276,0,.5.224.5.5v5Zm-11,5c0,.552-.448,1-1,1s-1-.448-1-1,.448-1,1-1,1,.448,1,1Zm12,0c0,.276-.224.5-.5.5h-9c-.276,0-.5-.224-.5-.5s.224-.5.5-.5h9c.276,0,.5.224.5.5Z"/>
</svg>
