<?xml version="1.0" encoding="UTF-8"?>
<svg xmlns="http://www.w3.org/2000/svg" id="Layer_1" data-name="Layer 1" viewBox="0 0 24 24">
  <path d="m15.5,14c-.276,0-.5.224-.5.5v2.5H1V4.5c0-1.93,1.57-3.5,3.5-3.5h7c1.93,0,3.5,1.57,3.5,3.5,0,.276.224.5.5.5s.5-.224.5-.5c0-2.481-2.019-4.5-4.5-4.5h-7C2.019,0,0,2.019,0,4.5v15c0,2.481,2.019,4.5,4.5,4.5h7c2.481,0,4.5-2.019,4.5-4.5v-5c0-.276-.224-.5-.5-.5Zm-4,9h-7c-1.93,0-3.5-1.57-3.5-3.5v-1.5h14v1.5c0,1.93-1.57,3.5-3.5,3.5Zm12.5-3.5c0,.276-.224.5-.5.5-2.064,0-3.813-1.243-4.563-3.244l-1.783-4.756h-4.546c-1.273,0-2.379-.896-2.573-2.083-.119-.734.085-1.476.562-2.036s1.17-.881,1.905-.881h7.424l.067-.138s-1.347-1.695-1.349-1.698c-.904-1.008-.844-2.562.15-3.489,1.007-.941,2.588-.894,3.524.106l1.548,1.64c.087.092.135.214.135.341,0,.448-.547.667-.856.342l-1.551-1.633c-.562-.599-1.514-.629-2.118-.064-.602.561-.635,1.509-.073,2.115.004.004,1.372,1.719,1.372,1.719.262.329.311.769.128,1.147-.183.379-.557.614-.978.614h-7.424c-.44,0-.857.193-1.143.529-.29.341-.409.776-.336,1.227.115.709.797,1.244,1.586,1.244h4.893c.208,0,.395.129.468.324l1.905,5.08c.6,1.601,1.99,2.596,3.627,2.596.276,0,.5.224.5.5Zm-14.5,1.5h-3c-.276,0-.5-.224-.5-.5h0c0-.276.224-.5.5-.5h3c.276,0,.5.224.5.5h0c0,.276-.224.5-.5.5Z"/>
</svg>
