<?xml version="1.0" encoding="UTF-8"?>
<svg xmlns="http://www.w3.org/2000/svg" id="Layer_1" data-name="Layer 1" viewBox="0 0 24 24">
  <path d="m17.5,13c3.584,0,6.5-2.916,6.5-6.5S21.084,0,17.5,0s-6.5,2.916-6.5,6.5,2.916,6.5,6.5,6.5Zm0-12c3.033,0,5.5,2.467,5.5,5.5s-2.467,5.5-5.5,5.5-5.5-2.467-5.5-5.5,2.467-5.5,5.5-5.5Zm-.354,5.854c-.094-.094-.147-.222-.146-.355l.013-2.961c0-.275.225-.498.5-.498h.002c.276,0,.499.226.498.502l-.012,2.753,1.853,1.853c.195.195.195.512,0,.707-.098.098-.226.146-.354.146s-.256-.049-.354-.146l-2-2Zm3.547,8.571c-1.048-1.048-2.753-1.05-3.802-.002l-1.532,1.493c-3.681-1.499-6.679-4.5-8.295-8.303l1.488-1.525c1.049-1.049,1.049-2.756.043-3.756l-1.959-2.543c-1.017-1.017-2.814-.994-3.78-.023l-1.174,1.024C.582,2.887-.024,4.374-.024,5.976-.024,13.725,10.251,24,18,24c1.602,0,3.089-.605,4.211-1.729l.977-1.125c.508-.508.788-1.184.788-1.902s-.28-1.395-.837-1.945l-2.446-1.873Zm1.764,5.039l-.978,1.125c-.909.91-2.145,1.411-3.48,1.411C10.84,23,.976,13.136.976,5.976c0-1.335.501-2.571,1.387-3.456l1.175-1.025c.336-.336.779-.5,1.215-.5.419,0,.831.152,1.133.452l1.959,2.543c.659.659.659,1.732-.004,2.396l-1.722,1.766c-.138.142-.18.352-.106.536,1.729,4.305,5.113,7.688,9.286,9.28.18.07.387.027.527-.108l1.766-1.722s.003-.003.004-.005c.639-.639,1.703-.682,2.439.043l2.446,1.873c.659.659.659,1.731-.023,2.416Z"/>
</svg>
