<?xml version="1.0" encoding="UTF-8"?>
<svg xmlns="http://www.w3.org/2000/svg" id="Layer_1" data-name="Layer 1" viewBox="0 0 24 24">
  <path d="m14,11c0-.552.448-1,1-1s1,.448,1,1-.448,1-1,1-1-.448-1-1Zm9.983,6.183c-.102-1.131-.683-2.19-1.594-2.906-2.751-2.162-3.856-4.383-4.925-6.532-.711-1.429-1.383-2.778-2.464-3.97,0,0,.008-1.884.008-2.884S14.148-.016,14.008.02c-1.433.375-2.581,1.639-2.91,3.096h0C4.149,3.928,0,8.931,0,16.5v7c0,.276.224.5.5.5s.5-.224.5-.5v-7c0-7.012,3.818-11.644,10.214-12.391.536-.033.785-.325.859-.773.227-1.005.978-1.928,1.934-2.27l-.008,3.094.259.287c.989,1.09,1.63,2.379,2.31,3.745,1.118,2.247,2.274,4.571,5.203,6.872.695.546,1.138,1.352,1.215,2.209.077.853-.205,1.708-.774,2.35-.706.801-1.888.974-2.794.409l-5.147-3.205c-1.029-.641-2.268.431-1.781,1.541l.475,1.085c.558,1.279,1.159,2.473,1.78,3.535l.409.752c.088.161.256.261.439.261.379,0,.62-.406.439-.739l-.417-.766c-.608-1.041-1.191-2.199-1.734-3.443l-.453-1.035c-.099-.225.153-.443.362-.313l5.101,3.177c1.32.822,3.042.57,4.07-.597.75-.845,1.122-1.976,1.021-3.102Z"/>
</svg>
