<?xml version="1.0" encoding="UTF-8"?>
<svg xmlns="http://www.w3.org/2000/svg" id="Layer_1" data-name="Layer 1" viewBox="0 0 24 24">
  <path d="m15.672,7.957c-.14-.237-.446-.317-.685-.177l-1.322.778c-.636-.822-1.584-1.391-2.666-1.527v-1.531c0-.276-.224-.5-.5-.5s-.5.224-.5.5v1.531c-1.081.135-2.03.704-2.666,1.527l-1.322-.778c-.238-.141-.545-.061-.685.177-.14.238-.061.545.178.685l1.32.777c-.21.485-.326,1.02-.326,1.582s.116,1.096.326,1.582l-1.32.777c-.238.14-.317.446-.178.685.093.158.26.246.432.246.086,0,.173-.022.253-.069l1.322-.778c.636.822,1.584,1.391,2.666,1.527v1.531c0,.276.224.5.5.5s.5-.224.5-.5v-1.531c1.081-.135,2.03-.704,2.666-1.527l1.322.778c.08.047.167.069.253.069.171,0,.338-.088.432-.246.14-.238.061-.545-.178-.685l-1.32-.777c.21-.485.326-1.02.326-1.582s-.116-1.096-.326-1.582l1.32-.777c.238-.14.317-.446.178-.685Zm-5.172,6.043c-1.654,0-3-1.346-3-3s1.346-3,3-3,3,1.346,3,3-1.346,3-3,3Zm9.269-9.605C17.341,1.158,13.338-.483,9.318.128,4.5.853.439,5.289.075,10.229c-.2,2.699.481,5.209,1.968,7.259.626.862.958,1.808.958,2.732v1.28c0,1.472,1.028,2.5,2.5,2.5h8c1.378,0,2.5-1.121,2.5-2.5v-.5h.987c2.112,0,3.964-1.5,4.402-3.566l.516-2.434h.549c1.134,0,1.545-.869,1.545-1.454,0-1.281-2.843-7.428-4.231-9.151Zm2.686,9.605h-.957c-.236,0-.438.165-.487.396l-.6,2.83c-.341,1.606-1.781,2.773-3.424,2.773h-1.487c-.276,0-.5.224-.5.5v1c0,.827-.673,1.5-1.5,1.5H5.5c-.692,0-1.5-.393-1.5-1.5v-1.28c0-1.137-.397-2.285-1.148-3.32-1.346-1.855-1.962-4.137-1.78-6.597C1.404,5.81,5.091,1.774,9.467,1.116c.503-.075,1.007-.112,1.506-.112,3.127,0,6.099,1.456,8.001,3.997l.012.015c1.407,1.739,4.014,7.664,4.014,8.53,0,.137-.053.454-.545.454Z"/>
</svg>
