<?xml version="1.0" encoding="UTF-8"?>
<svg xmlns="http://www.w3.org/2000/svg" id="Layer_1" data-name="Layer 1" viewBox="0 0 24 24">
  <path d="m23.002,20.337l-3.104,3.082c-.373.37-.868.577-1.395.581h-.008c-.547-.004-1.046-.205-1.407-.563l-3.104-3.082c-.195-.195-.197-.511-.002-.708.194-.195.51-.197.707-.002l3.104,3.082c.065.064.135.112.206.15V.5c0-.276.224-.5.5-.5s.5.224.5.5v22.339c.066-.04.137-.073.193-.13l3.104-3.082c.197-.195.514-.192.707.002.195.196.193.513-.002.708ZM12,5v16c0,1.71-2.579,3-6,3s-6-1.29-6-3V5c0-1.71,2.579-3,6-3s6,1.29,6,3Zm-1,9.703c-1.057.794-2.864,1.297-5,1.297s-3.943-.503-5-1.297v2.297c0,.944,2.139,2,5,2s5-1.056,5-2v-2.297Zm0-4c-1.057.794-2.864,1.297-5,1.297s-3.943-.503-5-1.297v2.297c0,.944,2.139,2,5,2s5-1.056,5-2v-2.297Zm0-4c-1.057.794-2.864,1.297-5,1.297s-3.943-.503-5-1.297v2.297c0,.944,2.139,2,5,2s5-1.056,5-2v-2.297ZM1,5c0,.944,2.139,2,5,2s5-1.056,5-2-2.139-2-5-2S1,4.056,1,5Zm10,16v-2.297c-1.057.794-2.864,1.297-5,1.297s-3.943-.503-5-1.297v2.297c0,.944,2.139,2,5,2s5-1.056,5-2Z"/>
</svg>
