<?xml version="1.0" encoding="UTF-8"?>
<svg xmlns="http://www.w3.org/2000/svg" id="Layer_1" data-name="Layer 1" viewBox="0 0 24 24">
  <path d="m12,18c-3.125,0-5.692,2.345-5.973,5.455-.025.275.178.518.453.543.273.023.518-.178.543-.453.093-1.034.5-1.958,1.109-2.706l2.166,2.166c-.063.107-.135.208-.177.327-.092.26.043.546.304.639.259.091.546-.044.639-.304.142-.399.519-.667.937-.667s.795.268.937.667c.073.205.266.333.471.333.056,0,.112-.009.167-.029.26-.093.396-.378.304-.639-.043-.12-.115-.22-.177-.328l2.166-2.166c.609.747,1.015,1.672,1.109,2.706.023.26.201.453.543.453.275-.025.478-.268.453-.543-.281-3.11-2.848-5.455-5.973-5.455Zm1,4.293c-.3-.177-.638-.293-1-.293s-.7.116-1,.293l-2.158-2.158c.862-.704,1.955-1.135,3.158-1.135s2.296.431,3.158,1.135l-2.158,2.158Zm-1-10.293c3.309,0,6-2.691,6-6S15.309,0,12,0s-6,2.691-6,6,2.691,6,6,6Zm0-11c2.757,0,5,2.243,5,5s-2.243,5-5,5-5-2.243-5-5S9.243,1,12,1Zm9.974,22.46c.015.276-.139.506-.5.527-.264,0-.484-.207-.499-.473-.255-4.774-4.198-8.514-8.975-8.514s-8.719,3.74-8.975,8.514c-.015.276-.259.481-.526.473-.275-.015-.487-.25-.473-.526.284-5.305,4.665-9.46,9.974-9.46s9.689,4.156,9.974,9.46Z"/>
</svg>
