<?xml version="1.0" encoding="UTF-8"?>
<svg xmlns="http://www.w3.org/2000/svg" id="Layer_1" data-name="Layer 1" viewBox="0 0 24 24">
  <path d="m24,23.524c0,.276-.225.5-.5.5h0l-20-.024c-1.929,0-3.5-1.57-3.5-3.5V.5C0,.224.224,0,.5,0s.5.224.5.5v20c0,1.378,1.122,2.5,2.5,2.5l20.001.024c.275,0,.499.225.499.5ZM5,12.524v6.976c0,.276.224.5.5.5s.5-.224.5-.5v-6.976c0-.276-.224-.5-.5-.5s-.5.224-.5.5Zm5-2v8.976c0,.276.224.5.5.5s.5-.224.5-.5v-8.976c0-.276-.224-.5-.5-.5s-.5.224-.5.5Zm5,3v5.976c0,.276.224.5.5.5s.5-.224.5-.5v-5.976c0-.276-.224-.5-.5-.5s-.5.224-.5.5Zm5-4.024v10c0,.276.224.5.5.5s.5-.224.5-.5v-10c0-.276-.224-.5-.5-.5s-.5.224-.5.5Zm-15.5-.5c.128,0,.256-.049.354-.146l4.474-4.474c.371-.371.974-.371,1.345,0l2.948,2.949c.762.759,1.998.759,2.76,0L22.854.854c.195-.195.195-.512,0-.707s-.512-.195-.707,0l-6.474,6.474c-.371.371-.975.371-1.346,0l-2.948-2.948c-.761-.761-1.998-.761-2.759,0l-4.474,4.474c-.195.195-.195.512,0,.707.098.098.226.146.354.146Z"/>
</svg>
