<?xml version="1.0" encoding="UTF-8"?>
<svg xmlns="http://www.w3.org/2000/svg" id="Layer_1" data-name="Layer 1" viewBox="0 0 24 24">
  <path d="m5,20c0,.552-.448,1-1,1s-1-.448-1-1,.448-1,1-1,1,.448,1,1Zm15-9c-.552,0-1,.448-1,1s.448,1,1,1,1-.448,1-1-.448-1-1-1Zm-16,0c-.552,0-1,.448-1,1s.448,1,1,1,1-.448,1-1-.448-1-1-1Zm16,8c-.552,0-1,.448-1,1s.448,1,1,1,1-.448,1-1-.448-1-1-1Zm4-6.5v7c0,2.481-2.019,4.5-4.5,4.5H4.5c-2.481,0-4.5-2.019-4.5-4.5v-7c0-2.481,2.019-4.5,4.5-4.5h7V1.276l-2.651,2.582c-.097.095-.223.142-.349.142-.13,0-.26-.051-.358-.151-.192-.197-.188-.514.01-.707L10.925.44c.244-.244.681-.44,1.075-.44s.809.213,1.041.445l2.806,2.694c.199.191.205.508.014.707-.19.198-.506.206-.707.014l-2.653-2.548v6.688h7c2.481,0,4.5,2.019,4.5,4.5Zm-1,0c0-1.93-1.57-3.5-3.5-3.5H4.5c-1.93,0-3.5,1.57-3.5,3.5v7c0,1.93,1.57,3.5,3.5,3.5h15c1.93,0,3.5-1.57,3.5-3.5v-7Zm-7,3.5c0,2.206-1.794,4-4,4s-4-1.794-4-4,1.794-4,4-4,4,1.794,4,4Zm-1,0c0-1.654-1.346-3-3-3s-3,1.346-3,3,1.346,3,3,3,3-1.346,3-3Z"/>
</svg>
