<?xml version="1.0" encoding="UTF-8"?>
<svg xmlns="http://www.w3.org/2000/svg" id="Layer_1" data-name="Layer 1" viewBox="0 0 24 24">
  <path d="m2.5,18c-1.378,0-2.5,1.122-2.5,2.5s1.122,2.5,2.5,2.5,2.5-1.122,2.5-2.5-1.122-2.5-2.5-2.5Zm0,4c-.827,0-1.5-.673-1.5-1.5s.673-1.5,1.5-1.5,1.5.673,1.5,1.5-.673,1.5-1.5,1.5ZM21.5,6c1.378,0,2.5-1.122,2.5-2.5s-1.122-2.5-2.5-2.5-2.5,1.122-2.5,2.5,1.122,2.5,2.5,2.5Zm0-4c.827,0,1.5.673,1.5,1.5s-.673,1.5-1.5,1.5-1.5-.673-1.5-1.5.673-1.5,1.5-1.5Zm-3.5,10H4.5c-2.481,0-4.5-2.019-4.5-4.5S2.019,3,4.5,3h11.306c-.032-.044-.054-.093-.094-.131l-2.14-2.004c-.202-.188-.212-.505-.023-.707.188-.202.504-.212.707-.023l2.14,2.003c.352.329.604.861.604,1.361s-.265,1.006-.593,1.318l-2.148,2.044c-.097.092-.221.138-.345.138-.132,0-.264-.052-.362-.155-.19-.2-.183-.517.018-.707l2.148-2.044c.029-.027.042-.064.066-.094H4.5c-1.93,0-3.5,1.57-3.5,3.5s1.57,3.5,3.5,3.5h13.5c2.206,0,4,1.794,4,4v.5c0,.276-.224.5-.5.5s-.5-.224-.5-.5v-.5c0-1.654-1.346-3-3-3Zm3.5,6c-1.378,0-2.5,1.122-2.5,2.5s1.122,2.5,2.5,2.5,2.5-1.122,2.5-2.5-1.122-2.5-2.5-2.5Zm0,4c-.827,0-1.5-.673-1.5-1.5s.673-1.5,1.5-1.5,1.5.673,1.5,1.5-.673,1.5-1.5,1.5Zm-4.5-1.5c0,.5-.265,1.006-.593,1.318l-2.148,2.044c-.097.092-.221.138-.345.138-.132,0-.264-.052-.362-.155-.19-.2-.183-.517.018-.707l2.148-2.044c.029-.027.042-.064.066-.094H7.5c-.276,0-.5-.224-.5-.5s.224-.5.5-.5h8.306c-.032-.044-.054-.093-.094-.131l-2.14-2.004c-.202-.188-.212-.505-.023-.707.188-.202.504-.211.707-.023l2.14,2.003c.352.329.604.861.604,1.361Z"/>
</svg>
