<?xml version="1.0" encoding="UTF-8"?>
<svg xmlns="http://www.w3.org/2000/svg" id="Layer_1" data-name="Layer 1" viewBox="0 0 24 24">
  <path d="m19.5,23h-1.5v-8c1.103,0,2-.897,2-2s-.897-2-2-2v-3c0-2.608-1.672-4.831-4-5.657v-.343c0-1.103-.897-2-2-2s-2,.897-2,2v.343c-2.328.825-4,3.049-4,5.657v3c-1.103,0-2,.897-2,2s.897,2,2,2v8h-1.5c-.276,0-.5.224-.5.5s.224.5.5.5h15c.276,0,.5-.224.5-.5s-.224-.5-.5-.5ZM7,9h10v11H7v-11Zm12,4c0,.551-.448,1-1,1v-2c.552,0,1,.449,1,1ZM11,2c0-.551.448-1,1-1s1,.449,1,1v.084c-.325-.055-.659-.084-1-.084s-.675.029-1,.084v-.084Zm1,1c2.757,0,5,2.243,5,5H7c0-2.757,2.243-5,5-5Zm-7,10c0-.551.448-1,1-1v2c-.552,0-1-.449-1-1Zm2,8h10v2H7v-2Zm5-10c-1.103,0-2,.897-2,2s.897,2,2,2,2-.897,2-2-.897-2-2-2Zm0,3c-.552,0-1-.449-1-1s.448-1,1-1,1,.449,1,1-.448,1-1,1Z"/>
</svg>
