<?xml version="1.0" encoding="UTF-8"?>
<svg xmlns="http://www.w3.org/2000/svg" id="Layer_1" data-name="Layer 1" viewBox="0 0 24 24">
  <path d="m20,23.5c0,.276-.224.5-.5.5H.5c-.276,0-.5-.224-.5-.5s.224-.5.5-.5h19c.276,0,.5.224.5.5Zm4-15c0,2.491-2.007,5.5-4.5,5.5h-1.401l-.545,3.246c-.365,2.175-2.231,3.754-4.438,3.754h-6.232c-2.206,0-4.072-1.579-4.438-3.754L.055,3.015c-.159-.719.02-1.485.496-2.079.478-.595,1.188-.936,1.95-.936h14.998c.763,0,1.475.342,1.951.938.478.595.655,1.363.489,2.107l-.329,1.956c2.791.033,4.389,1.304,4.389,3.499Zm-7.433,8.58l1.936-11.523c-.002-.019-.004-.038-.004-.057,0-.077.018-.15.049-.216l.409-2.432c.105-.473-.002-.933-.288-1.29s-.713-.562-1.171-.562H2.501c-.457,0-.884.204-1.17.562-.286.355-.394.816-.295,1.262l2.396,14.257c.284,1.692,1.735,2.92,3.451,2.92h6.232c1.716,0,3.167-1.228,3.451-2.92Zm6.433-8.58c0-1.659-1.178-2.5-3.5-2.5h-.057l-1.176,7h1.233c1.853,0,3.5-2.517,3.5-4.5Z"/>
</svg>
