<?xml version="1.0" encoding="UTF-8"?>
<svg xmlns="http://www.w3.org/2000/svg" id="Layer_1" data-name="Layer 1" viewBox="0 0 24 24">
  <path d="m.131.837C-.056.633-.041.316.163.13.368-.055.684-.041.869.163l5.474,6.002c1.07,1.196,1.657,2.734,1.657,4.334v7.21l2.153-2.07c.198-.19.517-.185.707.014.191.199.186.516-.014.707l-2.301,2.212c-.286.286-.664.429-1.044.429s-.764-.145-1.055-.435l-2.294-2.206c-.199-.191-.205-.508-.014-.707.191-.199.51-.204.707-.014l2.153,2.07v-7.21c0-1.354-.497-2.655-1.399-3.664L.131.837Zm23.369,12.163c-.276,0-.5.224-.5.5v6c0,1.93-1.57,3.5-3.5,3.5H4.5c-1.93,0-3.5-1.57-3.5-3.5v-6c0-.276-.224-.5-.5-.5s-.5.224-.5.5v6c0,2.481,2.019,4.5,4.5,4.5h15c2.481,0,4.5-2.019,4.5-4.5v-6c0-.276-.224-.5-.5-.5Zm-8.053,5.566c.291.29.674.435,1.055.435s.758-.143,1.044-.429l2.301-2.212c.199-.191.205-.508.014-.707-.191-.199-.509-.204-.707-.014l-2.153,2.07v-7.21c0-1.354.497-2.655,1.396-3.661L23.869.837c.187-.204.172-.521-.032-.707-.203-.185-.52-.171-.706.033l-5.478,6.006c-1.066,1.192-1.653,2.73-1.653,4.331v7.21l-2.153-2.07c-.197-.19-.516-.185-.707.014-.191.199-.186.516.014.707l2.294,2.206Z"/>
</svg>
