<?xml version="1.0" encoding="UTF-8"?>
<svg xmlns="http://www.w3.org/2000/svg" id="Layer_1" data-name="Layer 1" viewBox="0 0 24 24">
  <path d="m23.927,18.7l-1.314-5.585s.003-.003.005-.005c.569-.561.883-1.311.882-2.113,0-1.321-.864-2.468-2.098-2.855C20.737,3.475,16.757,0,12.002,0h-.003C5.425,0,3.297,4.959,1.889,8.241c-.574,1.338-1.069,2.494-1.641,2.827-.195.113-.29.344-.231.562.059.219.257.37.483.37.22,0,3.697-.035,7.501-2.042,0,.014-.001.027-.001.041,0,.552.448,1,1,1s1-.448,1-1c0-.392-.226-.731-.554-.895,1.559-1.029,3.112-2.423,4.461-4.312.161-.226.108-.537-.116-.698-.224-.159-.536-.106-.697.116-3.64,5.096-8.986,6.368-11.37,6.686.373-.6.707-1.377,1.085-2.259C4.19,5.413,6.083.999,11.999.999c0,0,0,0,.003,0,4.36,0,7.992,3.266,8.449,7.598.023.221.189.399.408.439.95.173,1.64.997,1.641,1.965,0,.529-.5,1.961-1.99,1.961l-.429-.006c-.205.031-.407.132-.479.334-.969,2.745-4.15,5.708-7.599,5.708h-.003c-2.433,0-5.051-1.514-6.669-3.857-.493-.714-1.294-1.141-2.143-1.141-1.211,0-2.278.859-2.536,2.043l-.584,2.686c-.228,1.312.133,2.649.991,3.669.857,1.018,2.111,1.602,3.441,1.602h4c.133,0,.26-.052.354-.146s.146-.221.146-.354v-4.127c.982.405,2.003.626,3,.627,1.036,0,2.05-.235,3-.638v4.138c0,.276.224.5.5.5h4c1.331,0,2.585-.584,3.442-1.602.857-1.019,1.219-2.356.985-3.697Zm-15.927.3v3.999h-3.5c-1.035,0-2.01-.454-2.676-1.246-.667-.792-.948-1.832-.775-2.832l.58-2.665c.159-.728.814-1.256,1.559-1.256.521,0,1.014.265,1.32.709.926,1.341,2.154,2.438,3.503,3.187-.007.033-.011.068-.011.104Zm14.177,2.754c-.667.791-1.642,1.245-2.677,1.245h-3.5s0-3.999,0-3.999c0-.044-.006-.086-.017-.126,2.035-1.161,3.672-3.057,4.433-4.913h.08c.44.005.854-.079,1.231-.244l1.22,5.183c.177,1.021-.104,2.061-.771,2.854Zm-7.177-10.755c-.552,0-1-.448-1-1s.448-1,1-1,1,.448,1,1-.448,1-1,1Z"/>
</svg>
