<?xml version="1.0" encoding="UTF-8"?>
<svg xmlns="http://www.w3.org/2000/svg" id="Layer_1" data-name="Layer 1" viewBox="0 0 24 24">
  <path d="m12.5,5c1.379,0,2.5-1.122,2.5-2.5s-1.121-2.5-2.5-2.5-2.5,1.122-2.5,2.5,1.122,2.5,2.5,2.5Zm0-4c.827,0,1.5.673,1.5,1.5s-.673,1.5-1.5,1.5-1.5-.673-1.5-1.5.673-1.5,1.5-1.5Zm8.131,11.553l-3.499-1.75c-.246-.123-.453-.311-.6-.542l-2.151-3.407c-.475-.543-1.16-.854-1.881-.854h-1.424c-1.108,0-2.217.262-3.208.757l-2.109,1.055c-.664.332-1.143.936-1.314,1.658l-.93,3.915c-.064.269.102.539.371.602.039.009.078.014.116.014.226,0,.431-.155.486-.384l.93-3.915c.103-.433.39-.795.789-.995l2.109-1.055c.357-.178.732-.321,1.117-.427l-1.352,5.621c-.26,1.077.231,2.213,1.195,2.761l3.967,2.253c.468.266.759.766.759,1.305v4.336c0,.276.224.5.5.5s.5-.224.5-.5v-4.336c0-.897-.484-1.73-1.265-2.174l-1.529-.868,2.03-7.632,1.45,2.304c.244.387.589.699.998.904l3.499,1.75c.245.123.547.024.671-.224.123-.247.023-.547-.224-.671Zm-10.131-5.525s0,.002,0,0c0,0,0,0,0,0Zm.85,8.608l-1.581-.898c-.579-.329-.874-1.01-.717-1.657l1.453-6.053c.19-.018.381-.027.572-.027h1.424c.396,0,.774.157,1.018.385l-2.169,8.25Zm-1.988,2.036l-.5,1.953-1.909,4.088c-.085.181-.265.288-.453.288-.071,0-.143-.015-.212-.047-.25-.117-.357-.415-.24-.665l1.877-4,.468-1.865c.068-.268.342-.43.608-.36.268.068.429.341.36.608Z"/>
</svg>
