<?xml version="1.0" encoding="UTF-8"?>
<svg xmlns="http://www.w3.org/2000/svg" id="Layer_1" data-name="Layer 1" viewBox="0 0 24 24">
  <path d="m21,9c-.086,0-.168.018-.252.026l-1.978-3.616c.742-.547,1.23-1.419,1.23-2.409,0-1.654-1.346-3-3-3-1.483,0-2.71,1.084-2.949,2.5h-4.101c-.24-1.416-1.466-2.5-2.949-2.5-1.654,0-3,1.346-3,3,0,.99.488,1.863,1.23,2.409l-1.978,3.616c-.085-.007-.166-.026-.252-.026-1.654,0-3,1.346-3,3s1.346,3,3,3c.084,0,.163-.018.245-.025l1.984,3.616c-.742.547-1.23,1.419-1.23,2.409,0,1.654,1.346,3,3,3,1.483,0,2.71-1.084,2.949-2.5h4.101c.24,1.416,1.466,2.5,2.949,2.5,1.654,0,3-1.346,3-3,0-.998-.495-1.878-1.247-2.424l2.001-3.601c.083.007.162.025.246.025,1.654,0,3-1.346,3-3s-1.346-3-3-3ZM17,1c1.103,0,2,.897,2,2s-.897,2-2,2-2-.897-2-2,.897-2,2-2Zm-10,0c1.103,0,2,.897,2,2s-.897,2-2,2-2-.897-2-2,.897-2,2-2ZM1,12c0-1.103.897-2,2-2s2,.897,2,2-.897,2-2,2-2-.897-2-2Zm6,11c-1.103,0-2-.897-2-2s.897-2,2-2,2,.897,2,2-.897,2-2,2Zm10,0c-1.103,0-2-.897-2-2s.897-2,2-2,2,.897,2,2-.897,2-2,2Zm.851-4.862c-.272-.081-.554-.138-.851-.138-1.483,0-2.71,1.084-2.949,2.5h-4.101c-.24-1.416-1.466-2.5-2.949-2.5-.306,0-.596.06-.874.145l-1.879-3.425c1.032-.475,1.754-1.512,1.754-2.721s-.72-2.242-1.749-2.718l1.874-3.427c.279.086.568.145.874.145,1.483,0,2.71-1.084,2.949-2.5h4.101c.24,1.416,1.466,2.5,2.949,2.5.306,0,.596-.06.874-.145l1.874,3.427c-1.029.476-1.749,1.512-1.749,2.718s.721,2.243,1.751,2.719l-1.9,3.419Zm3.149-4.138c-1.103,0-2-.897-2-2s.897-2,2-2,2,.897,2,2-.897,2-2,2Zm-9-4c-1.103,0-2,.897-2,2s.897,2,2,2,2-.897,2-2-.897-2-2-2Zm0,3c-.552,0-1-.449-1-1s.448-1,1-1,1,.449,1,1-.448,1-1,1Zm4.896-2.667c.099-.388.041-.792-.163-1.135-.422-.711-1.344-.948-2.056-.526l-.261.155c-.279-.212-.585-.385-.916-.518v-.308c0-.827-.673-1.5-1.5-1.5s-1.5.673-1.5,1.5v.308c-.331.133-.637.306-.916.518l-.261-.155c-.712-.422-1.634-.185-2.055.526-.205.344-.263.748-.164,1.136.1.389.344.715.689.92l.258.152c-.035.208-.052.402-.052.595s.017.388.052.595l-.258.152c-.345.204-.59.531-.689.919-.099.389-.041.792.163,1.136.204.345.53.59.919.689.389.098.792.04,1.137-.163l.261-.154c.279.211.585.385.916.518v.308c0,.827.673,1.5,1.5,1.5s1.5-.673,1.5-1.5v-.308c.331-.133.637-.307.916-.518l.261.153c.345.205.749.262,1.137.164.389-.1.715-.345.918-.688.205-.345.263-.748.164-1.137-.1-.389-.345-.715-.689-.919l-.258-.152c.035-.208.052-.402.052-.595s-.017-.388-.052-.595l.258-.152c.346-.205.59-.531.689-.92Zm-1.896,1.667c0,.22-.031.449-.1.723-.053.214.041.438.23.551l.565.335c.115.067.197.177.23.306.032.13.014.264-.056.379-.067.115-.177.197-.306.23-.13.03-.265.013-.379-.056l-.564-.334c-.189-.112-.431-.087-.594.062-.331.306-.726.528-1.173.663-.211.063-.355.258-.355.479v.662c0,.275-.225.5-.5.5s-.5-.225-.5-.5v-.662c0-.221-.145-.415-.355-.479-.447-.135-.842-.357-1.173-.663-.095-.087-.217-.132-.339-.132-.088,0-.176.022-.255.069l-.564.335c-.114.067-.25.085-.379.055-.129-.033-.238-.115-.307-.231-.068-.114-.087-.248-.055-.378.033-.129.115-.238.23-.306l.565-.335c.189-.112.283-.336.23-.551-.068-.273-.1-.503-.1-.723s.031-.449.1-.723c.053-.214-.041-.438-.23-.551l-.565-.334c-.115-.068-.197-.177-.23-.307-.032-.129-.014-.263.056-.378.14-.238.445-.317.685-.176l.564.335c.189.112.431.087.594-.062.331-.305.726-.528,1.172-.662.212-.063.356-.258.356-.479v-.663c0-.276.225-.5.5-.5s.5.224.5.5v.663c0,.221.145.416.356.479.446.134.841.357,1.172.662.163.15.404.176.594.062l.564-.335c.234-.139.544-.062.686.176.068.115.087.249.055.378-.033.129-.115.238-.23.307l-.565.334c-.189.112-.283.336-.23.551.068.273.1.503.1.723Z"/>
</svg>
