<?xml version="1.0" encoding="UTF-8"?>
<svg xmlns="http://www.w3.org/2000/svg" id="Layer_1" data-name="Layer 1" viewBox="0 0 24 24">
  <path d="m22.416,14.777l-6,9c-.097.145-.255.223-.416.223-.096,0-.192-.027-.277-.084-.229-.153-.292-.464-.139-.693l6-9c.154-.23.465-.291.693-.139.229.153.292.464.139.693Zm1.584,7.223c0,1.103-.897,2-2,2s-2-.897-2-2,.897-2,2-2,2,.897,2,2Zm-1,0c0-.552-.448-1-1-1s-1,.448-1,1,.448,1,1,1,1-.448,1-1Zm-7-4c-1.103,0-2-.897-2-2s.897-2,2-2,2,.897,2,2-.897,2-2,2Zm0-1c.552,0,1-.448,1-1s-.448-1-1-1-1,.448-1,1,.448,1,1,1ZM4,5c-.552,0-1,.448-1,1s.448,1,1,1,1-.448,1-1-.448-1-1-1Zm17,1c0-.552-.448-1-1-1s-1,.448-1,1,.448,1,1,1,1-.448,1-1ZM4,13c-.552,0-1,.448-1,1s.448,1,1,1,1-.448,1-1-.448-1-1-1ZM19.5,2H4.5C2.019,2,0,4.019,0,6.5v7c0,2.481,2.019,4.5,4.5,4.5h7c.276,0,.5-.224.5-.5s-.224-.5-.5-.5h-7c-1.93,0-3.5-1.57-3.5-3.5v-7c0-1.93,1.57-3.5,3.5-3.5h15c1.93,0,3.5,1.57,3.5,3.5v5c0,.276.224.5.5.5s.5-.224.5-.5v-5c0-2.481-2.019-4.5-4.5-4.5Zm-7.5,12c-2.206,0-4-1.794-4-4s1.794-4,4-4,4,1.794,4,4-1.794,4-4,4Zm3-4c0-1.654-1.346-3-3-3s-3,1.346-3,3,1.346,3,3,3,3-1.346,3-3Z"/>
</svg>
