<?xml version="1.0" encoding="UTF-8"?>
<svg xmlns="http://www.w3.org/2000/svg" id="Layer_1" data-name="Layer 1" viewBox="0 0 24 24">
  <path d="m17.475,10.534l-6.475-1.436V2.607c0-1.273-.896-2.38-2.084-2.573-.729-.12-1.476.085-2.034.561-.561.477-.882,1.171-.882,1.905v12.602l-1.796-1.429c-.487-.454-1.101-.692-1.79-.671-.666.022-1.284.303-1.739.79-.941,1.007-.89,2.593.113,3.532l4.84,4.607c1.401,1.334,3.238,2.068,5.172,2.068h5.7c2.481,0,4.5-2.019,4.5-4.5v-4.572c0-2.126-1.45-3.933-3.525-4.394Zm2.525,8.966c0,1.93-1.57,3.5-3.5,3.5h-5.7c-1.676,0-3.268-.637-4.482-1.793l-4.843-4.61c-.604-.565-.635-1.517-.069-2.121.291-.312.685-.471,1.085-.471.374,0,.755.14,1.061.425l2.638,2.1c.15.118.357.142.528.059.173-.083.283-.258.283-.45V2.5c0-.44.192-.857.529-1.144.341-.29.776-.407,1.227-.336.709.116,1.244.798,1.244,1.587v6.893c0,.234.163.438.392.488l6.866,1.522c1.614.358,2.742,1.764,2.742,3.417v4.572ZM24,3.5c0,.276-.224.5-.5.5h-8.307c.032.044.054.093.095.132l2.14,2.003c.201.188.212.505.023.707-.099.105-.231.158-.365.158-.122,0-.245-.045-.342-.135l-2.14-2.003c-.353-.33-.604-.862-.604-1.362s.265-1.006.593-1.318L16.741.138c.199-.189.516-.184.707.018.19.2.183.517-.018.707l-2.148,2.044c-.029.027-.042.064-.066.094h8.284c.276,0,.5.224.5.5Z"/>
</svg>
