<?xml version="1.0" encoding="UTF-8"?>
<svg xmlns="http://www.w3.org/2000/svg" id="Layer_1" data-name="Layer 1" viewBox="0 0 24 24">
  <path d="m.243,8.444l10.31,6.186c.447.268.947.401,1.448.401s1.001-.134,1.448-.401l10.31-6.186c.15-.09.243-.253.243-.429s-.092-.338-.243-.429L13.448,1.401c-.894-.535-2.002-.535-2.896,0L.243,7.587c-.15.09-.243.253-.243.429s.092.338.243.429Zm12.69,5.328c-.575.346-1.291.346-1.866,0l-3.845-2.307,4.778-2.867,4.778,2.867-3.845,2.307Zm4.817-2.89l-4.778-2.867,4.778-2.867,4.778,2.867-4.778,2.867ZM11.067,2.258c.575-.345,1.291-.345,1.866,0l3.845,2.307-4.778,2.867-4.778-2.867,3.845-2.307Zm-4.817,2.89l4.778,2.867-4.778,2.867-4.778-2.867,4.778-2.867Zm17.679,6.194c.142.237.065.544-.171.686l-11.5,6.9c-.079.048-.168.071-.257.071s-.178-.023-.257-.071L.243,12.029c-.237-.142-.313-.449-.171-.686.142-.236.449-.313.686-.171l11.243,6.746,11.243-6.746c.237-.142.544-.065.686.171Zm0,3.5c.142.236.065.544-.171.686l-11.5,6.9c-.079.048-.168.071-.257.071s-.178-.023-.257-.071L.243,15.528c-.237-.142-.313-.449-.171-.686s.449-.316.686-.172l11.243,6.746,11.243-6.746c.237-.145.544-.064.686.172Z"/>
</svg>
