<?xml version="1.0" encoding="UTF-8"?>
<svg xmlns="http://www.w3.org/2000/svg" id="Layer_1" data-name="Layer 1" viewBox="0 0 24 24">
  <path d="m5.742,12.697l.354-1.418c.093-.371.716-.371.809,0l.356,1.424,1.424.356c.186.046.316.213.316.404s-.13.358-.316.404l-1.424.356-.356,1.424c-.046.186-.213.316-.404.316s-.358-.13-.404-.316l-.357-1.429-1.43-.385c-.185-.05-.312-.218-.308-.409s.137-.356.323-.399l1.418-.328Zm9.567,3.136l1.43.385.357,1.429c.046.186.213.316.404.316s.358-.13.404-.316l.356-1.424,1.424-.356c.186-.046.316-.213.316-.404s-.13-.358-.316-.404l-1.424-.356-.356-1.424c-.093-.371-.716-.371-.809,0l-.354,1.418-1.418.328c-.186.043-.32.208-.323.399s.124.36.308.409Zm-10.808-6.833c.276,0,.5-.224.5-.5v-.5c0-3.86,3.141-7,7-7s7,3.14,7,7v.5c0,.276.224.5.5.5s.5-.224.5-.5v-.5C20,3.589,16.411,0,12,0S4,3.589,4,8v.5c0,.276.224.5.5.5Zm13-.071c.276,0,.5-.224.5-.5v-.429c0-3.309-2.691-6-6-6s-6,2.691-6,6v.429c0,.276.224.5.5.5s.5-.224.5-.5v-.429c0-2.757,2.243-5,5-5s5,2.243,5,5v.429c0,.276.224.5.5.5Zm-2,0c.276,0,.5-.224.5-.5v-.429c0-2.206-1.794-4-4-4s-4,1.794-4,4v.429c0,.276.224.5.5.5s.5-.224.5-.5v-.429c0-1.654,1.346-3,3-3s3,1.346,3,3v.429c0,.276.224.5.5.5Zm5.256-7.704c-.27-.078-.542.078-.617.344-.076.266.078.542.344.618,1.497.427,2.543,1.812,2.543,3.369v11.652c0,1.692-1.209,3.141-2.874,3.444l-6.719,1.221c-.301.055-.604.085-.908.105l-.025-14.479c0-.276-.225-.499-.5-.499h0c-.276,0-.499.225-.499.501l.025,14.477c-.303-.019-.605-.05-.906-.104l-6.719-1.222c-1.666-.303-2.875-1.751-2.875-3.444V5.556c0-1.58,1.065-2.971,2.592-3.382.267-.072.425-.346.353-.613-.071-.267-.347-.425-.612-.353C1.396,1.737.025,3.525.025,5.556v11.652c0,2.176,1.555,4.038,3.695,4.427l6.719,1.222c.526.095,1.057.143,1.586.143s1.06-.048,1.586-.144l6.72-1.222c2.141-.389,3.694-2.251,3.694-4.427V5.556c0-2.001-1.345-3.782-3.27-4.331Z"/>
</svg>
