<?xml version="1.0" encoding="UTF-8"?>
<svg xmlns="http://www.w3.org/2000/svg" id="Layer_1" data-name="Layer 1" viewBox="0 0 24 24">
  <path d="m17.134,16.418c-.082-.465-.133-.935-.133-1.41.002-2.219.943-4.399,2.582-5.981.316-.306.467-.746.404-1.178-.016-.109-.046-.213-.086-.312-.113-.295-.327-.537-.616-.683-.846-.43-1.817-.703-2.8-.805.327-.196.646-.418.93-.703,1.101-1.101,1.466-2.619,1.578-3.7.046-.443-.109-.879-.426-1.196-.317-.317-.751-.477-1.196-.426-1.079.111-2.599.476-3.7,1.577-.736.736-1.147,1.665-1.379,2.52-.355-2.008-1.067-3.323-1.352-3.845-.132-.243-.437-.333-.678-.199-.243.132-.332.436-.2.678.335.615,1.305,2.428,1.417,5.246h-3.137c-1.235,0-2.469.295-3.567.853-.289.147-.502.389-.615.683-.04.099-.071.203-.086.312-.063.433.088.873.405,1.179,1.602,1.547,2.521,3.726,2.523,5.981,0,.464-.047.922-.12,1.373-.287,1.762-1.113,3.398-2.379,4.619-.317.306-.468.746-.405,1.179.061.419.31.771.684.964,1.122.579,2.319.873,3.561.873.272,0,.518-.029.75-.071,1.004-.096,1.995-.376,2.909-.858.928.49,1.939.779,2.968.872.215.035.443.058.691.058,1.26,0,2.554-.311,3.644-.873.373-.194.622-.546.683-.965.063-.433-.088-.873-.405-1.179-1.291-1.245-2.14-2.864-2.446-4.58Zm-2.757-14.11c.895-.895,2.178-1.195,3.097-1.29.016,0,.032-.002.048-.002.126,0,.246.05.338.141.103.103.153.243.139.386-.096.92-.397,2.203-1.291,3.097-1.072,1.072-2.73,1.311-3.599,1.361-.134-1.026.16-2.584,1.269-3.692Zm4.455,19.948c-.944.479-2.071.744-3.173.744-.19,0-.376-.021-.562-.037-.467-.082-.859-.256-1.265-.44-.222-.101-.438-.198-.661-.279-.41-.148-.717-.229-1.171-.229s-.761.081-1.171.229c-.223.081-.44.179-.662.279-.397.18-.782.349-1.236.433-1.252.11-2.525-.115-3.682-.702-.108-.055-.144-.148-.154-.217-.018-.116.024-.235.111-.319,1.424-1.369,2.349-3.217,2.665-5.217.078-.49.129-.985.129-1.487,0-.002,0-.005,0-.007,0-.003,0-.005,0-.007,0-2.549-1.027-4.998-2.817-6.719-.087-.084-.128-.203-.111-.318.004-.026.089-.163.143-.19.965-.5,2.045-.764,3.125-.764h7.318c1.103,0,2.232.271,3.183.764.055.028.14.172.144.192.017.116-.025.233-.111.317-1.827,1.757-2.875,4.205-2.875,6.719,0,.002,0,.005,0,.007s0,.005,0,.007c0,.526.057,1.047.148,1.562.34,1.938,1.286,3.756,2.728,5.142.087.084.129.202.111.318-.011.069-.046.163-.155.219Z"/>
</svg>
