<?xml version="1.0" encoding="UTF-8"?>
<svg xmlns="http://www.w3.org/2000/svg" id="Layer_1" data-name="Layer 1" viewBox="0 0 24 24">
  <path d="m21,14c0-1.103-.897-2-2-2h-2c-1.103,0-2,.897-2,2-1.654,0-3,1.346-3,3v4c0,1.654,1.346,3,3,3h6c1.654,0,3-1.346,3-3v-4c0-1.654-1.346-3-3-3Zm-4-1h2c.551,0,1,.449,1,1h-4c0-.551.449-1,1-1Zm-2,2h6c1.103,0,2,.897,2,2v1h-10v-1c0-1.103.897-2,2-2Zm6,8h-6c-1.103,0-2-.897-2-2v-2h4.5v1.5c0,.276.224.5.5.5s.5-.224.5-.5v-1.5h4.5v2c0,1.103-.897,2-2,2ZM.995,15.001c.036.008.072.012.108.012.229,0,.437-.159.488-.393.44-1.999,1.15-5.222,1.583-7.183.645,2.617,3.012,4.563,5.826,4.563,1.644,0,3.235-.686,4.364-1.882.189-.201.18-.517-.021-.707-.201-.188-.518-.18-.707.021-.955,1.011-2.246,1.568-3.636,1.568-2.415,0-4.436-1.721-4.9-4.002h.914c3.163-.094,5.897-2.198,6.828-5.185,1.257.804,2.187,2.17,2.609,3.942.032.134.496,2.232.963,4.352.059.27.326.438.596.381.27-.06.44-.326.381-.596-.469-2.129-.935-4.236-.967-4.37-.813-3.406-3.275-5.522-6.425-5.522S3.388,2.116,2.575,5.522c-.066.278-1.884,8.532-1.961,8.883-.06.27.111.536.381.596ZM5,5.997h-1c0-2.755,2.244-4.997,5-4.997.688,0,1.338.122,1.936.353-.755,2.669-3.159,4.562-5.936,4.644Zm5.996,8.663c-.04.273-.288.466-.566.424-.388-.056-.784-.084-1.179-.084-4.549,0-8.25,3.701-8.25,8.25v.25c0,.276-.224.5-.5.5s-.5-.224-.5-.5v-.25c0-5.101,4.149-9.25,9.25-9.25.442,0,.887.032,1.321.094.273.04.463.293.424.566Z"/>
</svg>
