<?xml version="1.0" encoding="UTF-8"?>
<svg xmlns="http://www.w3.org/2000/svg" id="Layer_1" data-name="Layer 1" viewBox="0 0 24 24">
  <path d="m21,14.99c0,.547-.443.99-.99.99s-.99-.443-.99-.99.443-.99.99-.99.99.443.99.99Zm-5-4.99c.552,0,1-.452,1-1.01s-.448-1.01-1-1.01-1,.452-1,1.01.448,1.01,1,1.01Zm8,2c0,6.617-5.383,12-12,12h-.016C5.367,24-.016,18.617-.016,12S5.367,0,11.984,0s12.016,5.383,12.016,12Zm-1,0c0-6.065-4.935-11-11-11S.984,5.935.984,12s4.935,11,11,11h.016c6.065,0,11-4.935,11-11Zm-11.508-1h-1.492v-1.5c0-.276.225-.5.5-.5h2.5c.276,0,.5-.224.5-.5s-.224-.5-.5-.5h-2.5c-.827,0-1.5.673-1.5,1.5v1.5c0,.551.448,1,1,1h1.492c.401,0,.778.157,1.062.441.283.285.438.663.438,1.064-.004.824-.677,1.494-1.5,1.494h-1.992c-.276,0-.5.224-.5.5s.224.5.5.5h1.992c1.372,0,2.494-1.117,2.5-2.49.002-.67-.257-1.3-.729-1.774-.473-.474-1.102-.735-1.771-.735Zm-4.655-3h-3.337c-.276,0-.5.224-.5.5s.224.5.5.5h3.337c.079,0,.12.048.138.077.019.029.043.087.021.134l-3.43,6.042c-.137.24-.053.546.188.682.078.045.163.065.247.065.174,0,.343-.091.435-.253l3.442-6.065c.182-.363.162-.786-.052-1.13-.213-.345-.583-.551-.988-.551Zm13.954.093c-.227-.161-.537-.109-.698.116l-5,7c-.16.226-.108.537.116.698.089.062.19.093.291.093.155,0,.31-.073.407-.209l5-7c.16-.225.108-.537-.116-.697Z"/>
</svg>
