<?xml version="1.0" encoding="UTF-8"?>
<svg xmlns="http://www.w3.org/2000/svg" id="Layer_1" data-name="Layer 1" viewBox="0 0 24 24">
  <path d="m9,5c0-.552.448-1,1-1s1,.448,1,1-.448,1-1,1-1-.448-1-1Zm-2,4c.552,0,1-.448,1-1s-.448-1-1-1-1,.448-1,1,.448,1,1,1Zm16,6.499s0,0,0,.001v2c0,3.033-2.468,5.5-5.5,5.5H6.5c-3.032,0-5.5-2.467-5.5-5.5v-1.821c-.607-.458-1-1.282-1-2.092,0-.816.393-1.63,1-2.086,0,0,0,0,0-.001C1,5.71,5.71,1,11.5,1h1c5.79,0,10.5,4.71,10.5,10.5,0,0,0,0,0,.001.607.457,1,1.183,1,1.999s-.393,1.542-1,1.999ZM2.011,11.048c.158-.031.322-.048.489-.048h19c.167,0,.331.017.489.048-.237-5.029-4.402-9.048-9.489-9.048h-1C6.413,2,2.248,6.019,2.011,11.048Zm19.989,4.901c-.162.033-.329.05-.5.05h-5c-2.288,0-4.5.826-6.229,2.327-.514.445-1.143.668-1.771.668s-1.258-.223-1.771-.668c-1.331-1.156-2.987-1.924-4.729-2.208-.005,0-.003,0,0,0v1.382c0,2.481,2.019,4.5,4.5,4.5h11c2.481,0,4.5-2.019,4.5-4.5v-1.55Zm1-2.45c0-.827-.673-1.5-1.5-1.5H2.5c-.827,0-1.5.76-1.5,1.587,0,.725.514,1.439,1.194,1.55,1.924.315,3.719,1.157,5.19,2.435.646.561,1.584.561,2.23,0,1.911-1.659,4.355-2.572,6.885-2.572h5c.827,0,1.5-.673,1.5-1.5Zm-21,2.618h0s.005,0,0,0Z"/>
</svg>
