<?xml version="1.0" encoding="UTF-8"?>
<svg xmlns="http://www.w3.org/2000/svg" id="Layer_1" data-name="Layer 1" viewBox="0 0 24 24">
  <path d="m21.887,9.114c-.517-.077-1.134-.114-1.887-.114-2.571,0-4.931,2.804-5.416,3.402-.594-.254-1.283-.437-2.095-.425-1.947.044-3.683,1.01-4.847,1.868.471-1.862.423-3.823.38-5.483-.024-.952-.047-1.799.047-2.361h1.494c.763,0,1.448-.424,1.789-1.105l.447-.895h.19c.644,0,1-.51,1.01-1C13,1.549,11.778.006,9.513,0h-.018c-1.664.007-2.976,1.147-3.005,1.175C.009,6.161.002,14.132,0,16.751c0,1.21.497,2.381,1.366,3.212,1.948,1.862,5.901,4.037,10.634,4.037,4.611,0,8.009-1.195,10.047-2.199,1.205-.593,1.953-1.797,1.953-3.142v-7.074c0-1.231-.909-2.294-2.113-2.471Zm1.113,9.545c0,.961-.534,1.821-1.395,2.245-1.943.956-5.187,2.096-9.605,2.096s-8.129-2.025-9.942-3.76c-.683-.653-1.059-1.537-1.058-2.489.002-2.497.008-10.097,6.125-14.804.011-.01,1.097-.945,2.38-.947,1.817.002,2.495,1.228,2.485,2h-1.5c-.402,0-.494-.274-.5-.505-.003-.273-.226-.495-.5-.495-.276,0-.5.224-.5.5,0,.603.399,1.5,1.5,1.5h.191l-.223.447c-.17.341-.514.553-.895.553h-1.884c-.212,0-.4.134-.472.333-.246.697-.22,1.737-.186,3.054.055,2.122.134,4.757-.956,6.879-.039.071-.066.148-.066.235,0,.276.224.5.5.5.15,0,.276-.057.367-.161.026-.028,2.6-2.771,5.633-2.839,2.234,0,3.534,1.703,3.584,1.777.153.229.464.289.693.138.229-.153.292-.462.14-.691-.035-.052-.534-.736-1.432-1.337.844-1.003,2.672-2.887,4.515-2.887.703,0,1.272.033,1.74.104.719.105,1.26.742,1.26,1.481v7.074Z"/>
</svg>
