<?xml version="1.0" encoding="UTF-8"?>
<svg xmlns="http://www.w3.org/2000/svg" id="Layer_1" data-name="Layer 1" viewBox="0 0 24 24">
  <path d="m24,23.524c0,.276-.224.5-.5.5h0l-20-.024c-1.929,0-3.5-1.57-3.5-3.5V.452C0,.175.224-.048.5-.048s.5.224.5.5v20.048c0,1.378,1.122,2.5,2.5,2.5l20,.024c.276,0,.5.225.5.5Zm0-17.789v3.91c0,.558-.32,1.037-.835,1.25-.173.071-.351.106-.526.106-.348,0-.686-.138-.948-.4l-1.805-1.805-4.146,4.146c-.668.668-1.834.668-2.502,0l-.693-.693c-.3-.3-.788-.3-1.088,0l-6.603,6.603c-.098.098-.226.146-.354.146s-.256-.049-.354-.146c-.195-.195-.195-.512,0-.707l6.603-6.603c.689-.689,1.812-.689,2.502,0l.693.693c.3.3.788.3,1.088,0l4.146-4.146-1.78-1.78c-.395-.395-.507-.959-.293-1.475s.693-.835,1.25-.835h3.91c.957,0,1.735.778,1.735,1.735Zm-1,0c0-.405-.33-.735-.735-.735h-3.91c-.213,0-.299.152-.327.218-.027.065-.074.234.077.385l4.292,4.292c.15.15.319.104.385.077.066-.027.218-.113.218-.327v-3.91Z"/>
</svg>
