<?xml version="1.0" encoding="UTF-8"?>
<svg xmlns="http://www.w3.org/2000/svg" id="Layer_1" data-name="Layer 1" viewBox="0 0 24 24">
  <path d="m12,5c1.379,0,2.5-1.122,2.5-2.5s-1.121-2.5-2.5-2.5-2.5,1.122-2.5,2.5,1.121,2.5,2.5,2.5Zm0-4c.827,0,1.5.673,1.5,1.5s-.673,1.5-1.5,1.5-1.5-.673-1.5-1.5.673-1.5,1.5-1.5Zm12,4.5v10.101c0,2.003-.78,3.886-2.196,5.303l-2.95,2.95c-.098.098-.226.146-.354.146s-.256-.049-.354-.146c-.195-.195-.195-.512,0-.707l2.95-2.95c1.228-1.228,1.903-2.86,1.903-4.596V5.5c0-.827-.673-1.5-1.5-1.5s-1.5.673-1.5,1.5c0,0,.002,8.036,0,8.054-.012.552-.209,1.101-.584,1.546l-2.639,2.746c-.098.102-.229.153-.36.153-.125,0-.25-.046-.347-.14-.199-.191-.205-.508-.014-.707l2.616-2.721c.225-.269.334-.613.327-.959v-.009c-.009-.346-.136-.693-.382-.968-.267-.297-.634-.474-1.032-.496-.395-.02-.782.113-1.08.38l-2.729,2.512c-.521.48-.925,1.053-1.229,1.691.291.746.452,1.542.452,2.356v4.559c0,.276-.224.5-.5.5s-.5-.224-.5-.5v-4.559c0-1.533-.647-3.009-1.776-4.048l-2.734-2.516c-.292-.263-.675-.396-1.075-.375-.398.022-.766.198-1.032.496-.494.551-.508,1.394-.032,1.96l2.594,2.695c.191.199.186.516-.014.707-.197.191-.517.186-.707-.014l-2.616-2.721c-.38-.452-.587-.999-.606-1.547-.004-.027,0-8.079,0-8.079,0-.827-.673-1.5-1.5-1.5s-1.5.673-1.5,1.5v10.101c0,1.736.676,3.368,1.903,4.596l2.95,2.95c.195.195.195.512,0,.707-.098.098-.226.146-.354.146s-.256-.049-.354-.146l-2.95-2.95c-1.416-1.417-2.196-3.3-2.196-5.303V5.5c0-1.378,1.121-2.5,2.5-2.5s2.5,1.122,2.5,2.5v5.997c.391-.294.86-.466,1.359-.494.673-.044,1.306.188,1.803.633l2.739,2.521c.43.395.793.849,1.098,1.336.306-.489.669-.94,1.099-1.336l2.734-2.516c.502-.45,1.142-.682,1.808-.637.5.027.969.199,1.359.494v-5.997c0-1.378,1.121-2.5,2.5-2.5s2.5,1.122,2.5,2.5Zm-15.944,3.929c.282-1.955,1.978-3.429,3.944-3.429s3.662,1.474,3.944,3.429c.039.273-.139.571-.496.571-.244,0-.458-.18-.494-.429-.211-1.466-1.481-2.571-2.954-2.571s-2.743,1.105-2.954,2.571c-.04.273-.299.458-.566.424-.273-.04-.463-.293-.424-.566Z"/>
</svg>
