<?xml version="1.0" encoding="UTF-8"?>
<svg xmlns="http://www.w3.org/2000/svg" id="Layer_1" data-name="Layer 1" viewBox="0 0 24 24">
  <path d="m24.5,11.5c0,.276-.224.5-.5.5H0c-.276,0-.5-.224-.5-.5s.224-.5.5-.5h24c.276,0,.5.224.5.5ZM.5,7c.276,0,.5-.224.5-.5v-2c0-1.93,1.57-3.5,3.5-3.5h2c.276,0,.5-.224.5-.5s-.224-.5-.5-.5h-2C2.019,0,0,2.019,0,4.5v2c0,.276.224.5.5.5Zm6,16h-2c-1.93,0-3.5-1.57-3.5-3.5v-2c0-.276-.224-.5-.5-.5s-.5.224-.5.5v2c0,2.481,2.019,4.5,4.5,4.5h2c.276,0,.5-.224.5-.5s-.224-.5-.5-.5Zm17-6c-.276,0-.5.224-.5.5v2c0,1.93-1.57,3.5-3.5,3.5h-2c-.276,0-.5.224-.5.5s.224.5.5.5h2c2.481,0,4.5-2.019,4.5-4.5v-2c0-.276-.224-.5-.5-.5ZM17.5,1h2c1.93,0,3.5,1.57,3.5,3.5v2c0,.276.224.5.5.5s.5-.224.5-.5v-2c0-2.481-2.019-4.5-4.5-4.5h-2c-.276,0-.5.224-.5.5s.224.5.5.5Z"/>
</svg>
