<?xml version="1.0" encoding="UTF-8"?>
<svg xmlns="http://www.w3.org/2000/svg" id="Layer_1" data-name="Layer 1" viewBox="0 0 24 24">
  <path d="m24,16.5c0-.276-.224-.5-.5-.5h-1.915l-.799-3h.2c.807,0,1.563-.315,2.131-.889.568-.573.877-1.333.869-2.12l.014-.477c.008-.276-.21-.506-.485-.514-.277-.004-.507.209-.515.486l-.014.496c.005.538-.201,1.044-.579,1.426-.379.382-.883.592-1.421.592h-.467l-.181-.679c-.52-1.388-1.861-2.321-3.339-2.321s-2.819.933-3.354,2.368l-1.227,4.632h-1.919c-.276,0-.5.224-.5.5s.224.5.5.5h1.654l-.12.452c-.021.181-.035.362-.035.548,0,.731.158,1.426.441,2.053-1.388.263-2.441,1.484-2.441,2.947v.5c0,.276.224.5.5.5s.5-.224.5-.5v-.5c0-1.103.897-2,2-2,0,0,.002,0,.003,0,.913,1.214,2.365,2,3.997,2s3.084-.786,3.997-2c0,0,.002,0,.003,0,1.103,0,2,.897,2,2v.5c0,.276.224.5.5.5s.5-.224.5-.5v-.5c0-1.463-1.053-2.684-2.441-2.947.283-.627.441-1.322.441-2.053,0-.186-.014-.367-.048-.619l-.101-.381h1.649c.276,0,.5-.224.5-.5Zm-7,5.5c-2.206,0-4-1.794-4-4,0-.147.012-.291.015-.362l1.584-5.966c.373-1,1.339-1.671,2.401-1.671s2.028.671,2.387,1.625l1.585,5.942c.017.143.028.287.028.434,0,2.206-1.794,4-4,4Zm-5-13c0-.186-.014-.367-.048-.619l-.101-.381h1.649c.276,0,.5-.224.5-.5s-.224-.5-.5-.5h-1.916l-.799-3h.215c1.654,0,3-1.346,3-3v-.5c0-.276-.224-.5-.5-.5s-.5.224-.5.5v.5c0,1.103-.897,2-2,2h-.481l-.181-.679c-.518-1.388-1.859-2.321-3.338-2.321s-2.82.933-3.353,2.368l-.168.632h-.465c-.538,0-1.042-.21-1.421-.592s-.584-.888-.579-1.421l.009-.477c.005-.276-.215-.504-.491-.509h-.009C.251,0,.028.218.023.491l-.009.482c-.007.807.301,1.566.869,2.139.568.573,1.325.888,2.131.888h.2l-.795,3H.5c-.276,0-.5.224-.5.5s.224.5.5.5h1.654l-.12.452c-.021.181-.035.362-.035.548,0,.731.158,1.426.441,2.053-1.388.263-2.441,1.484-2.441,2.947v.5c0,.276.224.5.5.5s.5-.224.5-.5v-.5c0-1.103.897-2,2-2,0,0,.002,0,.003,0,.913,1.214,2.365,2,3.997,2,2.757,0,5-2.243,5-5Zm-5,4c-2.206,0-4-1.794-4-4,0-.147.012-.291.015-.362l1.584-5.967c.373-1,1.338-1.671,2.401-1.671s2.028.671,2.386,1.625l1.586,5.942c.016.143.028.287.028.434,0,2.206-1.794,4-4,4Z"/>
</svg>
