<?xml version="1.0" encoding="UTF-8"?>
<svg xmlns="http://www.w3.org/2000/svg" id="Layer_1" data-name="Layer 1" viewBox="0 0 24 24">
  <path d="m16.5,0c-4.275,0-7.5,1.505-7.5,3.5v4c0,1.995,3.225,3.5,7.5,3.5,2.846,0,5.227-.667,6.5-1.702v2.202c0,1.183-2.67,2.5-6.5,2.5-.488,0-.978-.022-1.454-.067-.271-.027-.519.176-.544.452-.025.275.177.519.452.544.507.047,1.026.071,1.546.071,2.846,0,5.227-.667,6.5-1.702v2.202c0,1.183-2.67,2.5-6.5,2.5-.329,0-.653-.01-.97-.029-.268-.017-.513.193-.529.468-.017.276.192.513.469.53.336.021.68.031,1.03.031,2.846,0,5.227-.667,6.5-1.702v2.202c0,1.183-2.67,2.5-6.5,2.5-.833,0-1.647-.064-2.419-.19-.268-.044-.529.14-.574.413-.045.272.14.529.412.574.825.135,1.693.203,2.581.203,4.275,0,7.5-1.505,7.5-3.5V3.5c0-1.995-3.225-3.5-7.5-3.5Zm0,1c3.83,0,6.5,1.317,6.5,2.5s-2.67,2.5-6.5,2.5-6.5-1.317-6.5-2.5,2.67-2.5,6.5-2.5Zm0,9c-3.83,0-6.5-1.317-6.5-2.5v-2.202c1.273,1.035,3.654,1.702,6.5,1.702s5.227-.667,6.5-1.702v2.202c0,1.183-2.67,2.5-6.5,2.5Zm-10,1c-3.584,0-6.5,2.916-6.5,6.5s2.916,6.5,6.5,6.5,6.5-2.916,6.5-6.5-2.916-6.5-6.5-6.5Zm0,12c-3.032,0-5.5-2.467-5.5-5.5s2.468-5.5,5.5-5.5,5.5,2.467,5.5,5.5-2.468,5.5-5.5,5.5Zm.991-9.088c-.555-.552-1.453-.549-2.002.001l-1.854,1.832c-.273.319-.334.755-.158,1.137.176.381.546.618.966.618h1.558v3c0,.276.224.5.5.5s.5-.224.5-.5v-3h1.552c.421,0,.791-.238.967-.621.175-.383.112-.819-.191-1.167l-1.836-1.8Zm1.061,2.588h-4.109l-.076-.074,1.827-1.802.003-.003c.08-.081.187-.122.293-.122.107,0,.216.041.299.124l1.838,1.802-.074.075Z"/>
</svg>
