<?xml version="1.0" encoding="UTF-8"?>
<svg xmlns="http://www.w3.org/2000/svg" id="Layer_1" data-name="Layer 1" viewBox="0 0 24 24">
  <path d="m7,9.5v14c0,.276-.224.5-.5.5s-.5-.224-.5-.5v-14c0-.276.224-.5.5-.5s.5.224.5.5Zm-5.5,2.5c-.276,0-.5.224-.5.5v11c0,.276.224.5.5.5s.5-.224.5-.5v-11c0-.276-.224-.5-.5-.5Zm9.987-6.083h0c-.276,0-.5.224-.5.5l.013,17.083c0,.276.224.5.5.5h0c.276,0,.5-.224.5-.5l-.013-17.083c0-.276-.224-.5-.5-.5Zm10.703,11.189l-4.105-1.173c-.639-.182-1.085-.773-1.085-1.438,0-.824.671-1.495,1.495-1.495h3.01c.824,0,1.495.671,1.495,1.495,0,.276.224.5.5.5s.5-.224.5-.5c0-1.376-1.119-2.495-2.495-2.495h-1.005v-1.5c0-.276-.224-.5-.5-.5s-.5.224-.5.5v1.5h-1.005c-1.376,0-2.495,1.119-2.495,2.495,0,1.108.744,2.095,1.81,2.399l4.105,1.173c.639.182,1.085.773,1.085,1.438,0,.824-.671,1.495-1.495,1.495h-3.01c-.824,0-1.495-.671-1.495-1.495,0-.276-.224-.5-.5-.5s-.5.224-.5.5c0,1.376,1.119,2.495,2.495,2.495h1.005v1.5c0,.276.224.5.5.5s.5-.224.5-.5v-1.5h1.005c1.376,0,2.495-1.119,2.495-2.495,0-1.108-.744-2.095-1.81-2.399Zm-.69-9.105c.276,0,.5-.224.5-.5V.5c0-.276-.224-.5-.5-.5s-.5.224-.5.5v7c0,.276.224.5.5.5Zm-5,2c.276,0,.5-.224.5-.5V3.5c0-.276-.224-.5-.5-.5s-.5.224-.5.5v6c0,.276.224.5.5.5Z"/>
</svg>
