<?xml version="1.0" encoding="UTF-8"?>
<svg xmlns="http://www.w3.org/2000/svg" id="Layer_1" data-name="Layer 1" viewBox="0 0 24 24">
  <path d="m21.5,0h-5c-.276,0-.5.224-.5.5s.224.5.5.5h5c.231,0,.45.053.646.146l-8.003,8.003c-1.502-1.336-3.479-2.15-5.643-2.15C3.813,7,0,10.813,0,15.5s3.813,8.5,8.5,8.5,8.5-3.813,8.5-8.5c0-2.164-.813-4.141-2.15-5.643L22.853,1.853c.094.196.147.415.147.647v5.5c0,.276.224.5.5.5s.5-.224.5-.5V2.5c0-1.379-1.122-2.5-2.5-2.5Zm-13,23c-4.136,0-7.5-3.364-7.5-7.5s3.364-7.5,7.5-7.5,7.5,3.364,7.5,7.5-3.364,7.5-7.5,7.5Z"/>
</svg>
