<?xml version="1.0" encoding="UTF-8"?>
<svg xmlns="http://www.w3.org/2000/svg" id="Layer_1" data-name="Layer 1" viewBox="0 0 24 24">
  <path d="m7,17c0,.552-.448,1-1,1s-1-.448-1-1,.448-1,1-1,1,.448,1,1Zm5,5c-.552,0-1,.448-1,1s.448,1,1,1,1-.448,1-1-.448-1-1-1Zm-3-9c-.552,0-1,.448-1,1s.448,1,1,1,1-.448,1-1-.448-1-1-1Zm0,6c-.552,0-1,.448-1,1s.448,1,1,1,1-.448,1-1-.448-1-1-1Zm-3,3c-.552,0-1,.448-1,1s.448,1,1,1,1-.448,1-1-.448-1-1-1Zm-3-3c-.552,0-1,.448-1,1s.448,1,1,1,1-.448,1-1-.448-1-1-1Zm0-6c-.552,0-1,.448-1,1s.448,1,1,1,1-.448,1-1-.448-1-1-1ZM.5,7h23c.276,0,.5-.224.5-.5s-.224-.5-.5-.5H.5c-.276,0-.5.224-.5.5s.224.5.5.5Zm11.5,9c-.552,0-1,.448-1,1s.448,1,1,1,1-.448,1-1-.448-1-1-1Zm6,0c-.552,0-1,.448-1,1s.448,1,1,1,1-.448,1-1-.448-1-1-1Zm3-3c-.552,0-1,.448-1,1s.448,1,1,1,1-.448,1-1-.448-1-1-1Zm0,6c-.552,0-1,.448-1,1s.448,1,1,1,1-.448,1-1-.448-1-1-1Zm-6,0c-.552,0-1,.448-1,1s.448,1,1,1,1-.448,1-1-.448-1-1-1Zm3,3c-.552,0-1,.448-1,1s.448,1,1,1,1-.448,1-1-.448-1-1-1Zm-3-9c-.552,0-1,.448-1,1s.448,1,1,1,1-.448,1-1-.448-1-1-1Zm7.923-3.52c-.878-.639-2.153-.638-3.027,0-.936.681-2.312.681-3.245,0-.878-.639-2.153-.638-3.027,0-.936.681-2.311.681-3.246,0-.876-.639-2.15-.639-3.028,0-.932.68-2.309.68-3.244,0-.874-.638-2.149-.639-3.027,0-.259.188-.858.617-.858.617-.129.09-.219.233-.219.403,0,.276.224.5.5.5.106,0,.2-.041.281-.097,0,0,.622-.423.884-.614.53-.384,1.325-.383,1.852,0,1.278.932,3.146.931,4.421,0,.53-.384,1.325-.383,1.852,0,1.277.931,3.145.931,4.422,0,.526-.384,1.322-.385,1.851,0,.639.466,1.402.712,2.211.712s1.572-.246,2.211-.711c.526-.384,1.321-.384,1.852,0,.263.191.884.614.884.614.081.057.174.097.281.097.276,0,.5-.224.5-.5,0-.17-.09-.312-.219-.403,0,0-.599-.429-.858-.617Z"/>
</svg>
