<?xml version="1.0" encoding="UTF-8"?>
<svg xmlns="http://www.w3.org/2000/svg" id="Layer_1" data-name="Layer 1" viewBox="0 0 24 24">
  <path d="m7,20.5v-6.5h-2c-.276,0-.5-.224-.5-.5s.224-.5.5-.5h5c.276,0,.5.224.5.5s-.224.5-.5.5h-2v6.5c0,.276-.224.5-.5.5s-.5-.224-.5-.5Zm12.463,2.521c.104.256-.019.547-.274.651-.536.217-1.104.328-1.688.328H5.5c-2.481,0-4.5-2.019-4.5-4.5V4.5C1,2.019,3.019,0,5.5,0h5.515c1.735,0,3.368.676,4.597,1.904l3.484,3.485c1.228,1.227,1.904,2.859,1.904,4.596v.515c0,.276-.224.5-.5.5s-.5-.224-.5-.5v-.515c0-.334-.03-.663-.088-.985h-5.412c-1.379,0-2.5-1.122-2.5-2.5V1.088c-.322-.058-.651-.088-.985-.088h-5.515c-1.93,0-3.5,1.57-3.5,3.5v15c0,1.93,1.57,3.5,3.5,3.5h12c.455,0,.896-.085,1.312-.254.255-.104.548.019.651.275ZM14.904,2.611c-.552-.551-1.199-.97-1.904-1.243v5.132c0,.827.673,1.5,1.5,1.5h5.132c-.273-.706-.693-1.353-1.244-1.904l-3.484-3.485Zm-4.888,17.762l1.667-6.334c.16-.607.688-1.015,1.316-1.015s1.156.408,1.316,1.015l1.667,6.334c.07.267-.089.541-.356.611-.042.011-.085.017-.127.017-.222,0-.425-.148-.483-.373l-.43-1.635c-.028.005-.057.008-.086.008h-3.088l-.428,1.627c-.069.267-.348.428-.61.356-.268-.07-.427-.344-.356-.611Zm1.658-2.373h2.65l-.976-3.707c-.066-.25-.284-.27-.35-.27s-.283.019-.35.27l-.976,3.707Zm8.401-1l1.858-3.252c.137-.24.054-.545-.187-.682-.237-.137-.545-.055-.683.186l-1.565,2.74-1.565-2.74c-.139-.241-.447-.323-.683-.186-.24.137-.323.442-.187.682l1.858,3.252-1.858,3.252c-.137.24-.054.545.187.682.078.045.163.066.248.066.173,0,.342-.09.435-.252l1.565-2.74,1.565,2.74c.093.162.262.252.435.252.085,0,.17-.021.248-.066.24-.137.323-.442.187-.682l-1.858-3.252Z"/>
</svg>
