<?xml version="1.0" encoding="UTF-8"?>
<svg xmlns="http://www.w3.org/2000/svg" id="Layer_1" data-name="Layer 1" viewBox="0 0 24 24">
  <path d="m24,19.5c0,.276-.224.5-.5.5h-12c-2.481,0-4.5-2.019-4.5-4.5v-7c0-2.481,2.019-4.5,4.5-4.5h12c.276,0,.5.224.5.5s-.224.5-.5.5h-12c-1.93,0-3.5,1.57-3.5,3.5v7c0,1.93,1.57,3.5,3.5,3.5h12c.276,0,.5.224.5.5Zm-10-6c0-.276-.224-.5-.5-.5h-2c-.276,0-.5.224-.5.5s.224.5.5.5h2c.276,0,.5-.224.5-.5Zm4.5-.5h-2.5c-.276,0-.5.224-.5.5s.224.5.5.5h2.5c.276,0,.5-.224.5-.5s-.224-.5-.5-.5Zm5,0h-2c-.276,0-.5.224-.5.5s.224.5.5.5h2c.276,0,.5-.224.5-.5s-.224-.5-.5-.5Zm-10-3h-2c-.276,0-.5.224-.5.5s.224.5.5.5h2c.276,0,.5-.224.5-.5s-.224-.5-.5-.5Zm5,0h-2c-.276,0-.5.224-.5.5s.224.5.5.5h2c.276,0,.5-.224.5-.5s-.224-.5-.5-.5Zm5,0h-2c-.276,0-.5.224-.5.5s.224.5.5.5h2c.276,0,.5-.224.5-.5s-.224-.5-.5-.5Zm-10-3h-2c-.276,0-.5.224-.5.5s.224.5.5.5h2c.276,0,.5-.224.5-.5s-.224-.5-.5-.5Zm5,0h-2c-.276,0-.5.224-.5.5s.224.5.5.5h2c.276,0,.5-.224.5-.5s-.224-.5-.5-.5Zm5,0h-2c-.276,0-.5.224-.5.5s.224.5.5.5h2c.276,0,.5-.224.5-.5s-.224-.5-.5-.5Zm0,9h-8c-.276,0-.5.224-.5.5s.224.5.5.5h8c.276,0,.5-.224.5-.5s-.224-.5-.5-.5Zm-12,0c-.276,0-.5.224-.5.5s.224.5.5.5h1c.276,0,.5-.224.5-.5s-.224-.5-.5-.5h-1ZM1.284,12.631c-.378-.378-.378-.994-.008-1.364l3.569-3.405c.2-.19.207-.507.017-.707s-.508-.207-.707-.017l-3.578,3.414c-.769.768-.769,2.019.003,2.789l3.57,3.516c.097.096.224.144.351.144.129,0,.258-.05.356-.149.193-.196.191-.513-.006-.707l-3.567-3.512Z"/>
</svg>
