<?xml version="1.0" encoding="UTF-8"?>
<svg xmlns="http://www.w3.org/2000/svg" id="Layer_1" data-name="Layer 1" viewBox="0 0 24 24">
  <path d="m7,9.5c0,.276-.224.5-.5.5H.5c-.276,0-.5-.224-.5-.5s.224-.5.5-.5h6c.276,0,.5.224.5.5Zm-.5,3.5H.5c-.276,0-.5.224-.5.5s.224.5.5.5h6c.276,0,.5-.224.5-.5s-.224-.5-.5-.5Zm8-4h-5c-.276,0-.5.224-.5.5s.224.5.5.5h5c.276,0,.5-.224.5-.5s-.224-.5-.5-.5Zm0,4h-5c-.276,0-.5.224-.5.5s.224.5.5.5h5c.276,0,.5-.224.5-.5s-.224-.5-.5-.5Zm9-4h-6c-.276,0-.5.224-.5.5s.224.5.5.5h6c.276,0,.5-.224.5-.5s-.224-.5-.5-.5Zm0,4h-6c-.276,0-.5.224-.5.5s.224.5.5.5h6c.276,0,.5-.224.5-.5s-.224-.5-.5-.5Zm-17,4H.5c-.276,0-.5.224-.5.5s.224.5.5.5h6c.276,0,.5-.224.5-.5s-.224-.5-.5-.5Zm8,0h-5c-.276,0-.5.224-.5.5s.224.5.5.5h5c.276,0,.5-.224.5-.5s-.224-.5-.5-.5Zm9,0h-6c-.276,0-.5.224-.5.5s.224.5.5.5h6c.276,0,.5-.224.5-.5s-.224-.5-.5-.5Zm-17,4H.5c-.276,0-.5.224-.5.5s.224.5.5.5h6c.276,0,.5-.224.5-.5s-.224-.5-.5-.5Zm8,0h-5c-.276,0-.5.224-.5.5s.224.5.5.5h5c.276,0,.5-.224.5-.5s-.224-.5-.5-.5Zm9,0h-6c-.276,0-.5.224-.5.5s.224.5.5.5h6c.276,0,.5-.224.5-.5s-.224-.5-.5-.5ZM15.5,3.5c0,1.93-1.57,3.5-3.5,3.5s-3.5-1.57-3.5-3.5,1.57-3.5,3.5-3.5,3.5,1.57,3.5,3.5Zm-1,0c0-1.378-1.121-2.5-2.5-2.5s-2.5,1.122-2.5,2.5,1.121,2.5,2.5,2.5,2.5-1.122,2.5-2.5Zm-7.5,0c0,1.93-1.57,3.5-3.5,3.5S0,5.43,0,3.5,1.57,0,3.5,0s3.5,1.57,3.5,3.5Zm-1,0c0-1.378-1.121-2.5-2.5-2.5S1,2.122,1,3.5s1.121,2.5,2.5,2.5,2.5-1.122,2.5-2.5Zm11,0c0-1.93,1.57-3.5,3.5-3.5s3.5,1.57,3.5,3.5-1.57,3.5-3.5,3.5-3.5-1.57-3.5-3.5Zm1,0c0,1.378,1.121,2.5,2.5,2.5s2.5-1.122,2.5-2.5-1.121-2.5-2.5-2.5-2.5,1.122-2.5,2.5Z"/>
</svg>
