<?xml version="1.0" encoding="UTF-8"?>
<svg xmlns="http://www.w3.org/2000/svg" id="Layer_1" data-name="Layer 1" viewBox="0 0 24 24">
  <path d="m24,5.529v11.652c0,2.176-1.554,4.038-3.695,4.427l-6.719,1.222c-.526.096-1.056.144-1.585.144s-1.06-.048-1.585-.144l-6.719-1.222c-2.141-.389-3.695-2.25-3.695-4.427V5.529C0,3.543,1.331,1.766,3.237,1.207c.266-.075.543.075.621.339.078.265-.074.542-.339.621-1.483.435-2.519,1.817-2.519,3.362v11.652c0,1.692,1.208,3.141,2.874,3.443l6.719,1.222c.301.055.604.085.907.104v-5.45c0-.276.224-.5.5-.5s.5.224.5.5v5.45c.303-.019.606-.05.907-.104l6.719-1.222c1.666-.303,2.874-1.751,2.874-3.443V5.529c0-1.565-1.053-2.953-2.561-3.374-.266-.074-.421-.35-.347-.616.074-.267.352-.421.616-.347,1.938.541,3.292,2.324,3.292,4.337Zm-12-.529c.552,0,1-.448,1-1s-.448-1-1-1-1,.448-1,1,.448,1,1,1Zm0,1c-.276,0-.5.224-.5.5v3c0,.276.224.5.5.5s.5-.224.5-.5v-3c0-.276-.224-.5-.5-.5Zm-6,3V3c0-1.654,1.346-3,3-3h6c1.654,0,3,1.346,3,3v6c0,1.654-1.346,3-3,3h-.344l-1.536,1.536c-.309.309-.714.463-1.12.463s-.812-.154-1.12-.463l-1.536-1.536h-.344c-1.654,0-3-1.346-3-3Zm1,0c0,1.103.897,2,2,2h.551c.133,0,.26.053.354.146l1.683,1.683c.228.228.599.228.826,0l1.682-1.683c.094-.094.221-.146.354-.146h.551c1.103,0,2-.897,2-2V3c0-1.103-.897-2-2-2h-6c-1.103,0-2,.897-2,2v6Z"/>
</svg>
