<?xml version="1.0" encoding="UTF-8"?>
<svg xmlns="http://www.w3.org/2000/svg" id="Layer_1" data-name="Layer 1" viewBox="0 0 24 24">
  <path d="m18.764,2.216L12.157.025s-.132-.025-.157-.025-.157.025-.157.025l-6.606,2.19c-1.936.643-3.236,2.443-3.236,4.482v5.236c0,6.609,7.159,10.702,9.354,11.8,0,0,.423.266.649.266s.627-.214.627-.214c2.198-.884,9.37-4.351,9.37-11.852v-5.236c0-2.04-1.301-3.841-3.236-4.482ZM3,11.935v-5.236c0-1.607,1.025-3.027,2.551-3.533l5.949-1.973v21.494c-2.347-1.223-8.5-4.983-8.5-10.752Zm18,0c0,6.622-6.21,9.857-8.5,10.823V1.192l5.949,1.973c1.525.506,2.551,1.926,2.551,3.533v5.236Z"/>
</svg>
