<?xml version="1.0" encoding="UTF-8"?>
<svg xmlns="http://www.w3.org/2000/svg" id="Layer_1" data-name="Layer 1" viewBox="0 0 24 24">
  <path d="m19.5,3H4.5C2.019,3,0,5.019,0,7.5v9c0,2.481,2.019,4.5,4.5,4.5h15c2.481,0,4.5-2.019,4.5-4.5V7.5c0-2.481-2.019-4.5-4.5-4.5Zm-14,5c.827,0,1.5.673,1.5,1.5v5c0,.827-.673,1.5-1.5,1.5H1v-8h4.5ZM1.036,17h4.464c1.378,0,2.5-1.121,2.5-2.5v-5c0-1.379-1.122-2.5-2.5-2.5H1.036c.243-1.694,1.704-3,3.464-3h5.5v16h-5.5c-1.76,0-3.221-1.306-3.464-3Zm21.964-.5c0,1.93-1.57,3.5-3.5,3.5h-8.5V4h8.5c1.93,0,3.5,1.57,3.5,3.5v9Z"/>
</svg>
