<?xml version="1.0" encoding="UTF-8"?>
<svg xmlns="http://www.w3.org/2000/svg" id="Layer_1" data-name="Layer 1" viewBox="0 0 24 24">
  <path d="m6,5.5v3c0,.827.673,1.5,1.5,1.5s1.5-.673,1.5-1.5c0-.276.224-.5.5-.5s.5.224.5.5c0,1.379-1.122,2.5-2.5,2.5s-2.5-1.121-2.5-2.5v-3c0-1.379,1.122-2.5,2.5-2.5s2.5,1.121,2.5,2.5c0,.276-.224.5-.5.5s-.5-.224-.5-.5c0-.827-.673-1.5-1.5-1.5s-1.5.673-1.5,1.5Zm7.02,5.346c.369.19.805.205,1.191.041.404-.168.709-.537.814-.985l1.493-6.025c.078-.315-.16-.62-.485-.62h0c-.23,0-.43.157-.485.38l-1.495,6.031c-.033.143-.118.251-.228.297-.116.049-.244.046-.351-.009-.105-.054-.181-.149-.206-.261l-1.598-6.066c-.058-.22-.256-.373-.483-.373-.328,0-.567.31-.483.627l1.594,6.051c.089.385.353.722.722.911Zm8.98-6.346v9.515c0,1.735-.676,3.368-1.904,4.597l-3.485,3.484c-1.227,1.228-2.859,1.904-4.596,1.904h-5.515c-2.481,0-4.5-2.019-4.5-4.5V4.5C2,2.019,4.019,0,6.5,0h11c2.481,0,4.5,2.019,4.5,4.5Zm-9.985,18.5c.335,0,.663-.038.985-.096v-5.404c0-1.379,1.122-2.5,2.5-2.5h5.404c.058-.323.096-.651.096-.985V4.5c0-1.93-1.57-3.5-3.5-3.5H6.5c-1.93,0-3.5,1.57-3.5,3.5v15c0,1.93,1.57,3.5,3.5,3.5h5.515Zm8.606-7h-5.12c-.827,0-1.5.673-1.5,1.5v5.121c.704-.273,1.354-.682,1.904-1.232l3.485-3.484c.55-.551.959-1.2,1.231-1.904Z"/>
</svg>
