<?xml version="1.0" encoding="UTF-8"?>
<svg xmlns="http://www.w3.org/2000/svg" id="Layer_1" data-name="Layer 1" viewBox="0 0 24 24">
  <path d="m23.5,21h-9.051c-.199-.978-.971-1.75-1.949-1.949v-5.051h3.329c2.622,0,4.828-1.88,5.132-4.373.295-2.406-1.17-4.669-3.482-5.382-.41-.126-.724-.414-.884-.81C15.603.986,13.079-.385,10.459.096c-1.598.294-3.021,1.362-3.807,2.855-.47.893-.688,1.826-.648,2.773.011.242-.134.447-.378.536-1.696.618-2.77,2.305-2.609,4.103.18,2.04,2.007,3.637,4.158,3.637h4.325v5.051c-.978.199-1.75.971-1.949,1.949H.5c-.276,0-.5.224-.5.5s.224.5.5.5h9.051c.232,1.14,1.242,2,2.449,2s2.217-.86,2.449-2h9.051c.276,0,.5-.224.5-.5s-.224-.5-.5-.5ZM4.013,10.274c-.12-1.347.685-2.611,1.955-3.075.649-.236,1.065-.847,1.036-1.519-.032-.768.147-1.53.533-2.265.645-1.224,1.805-2.098,3.104-2.337.287-.053.573-.079.855-.079,1.823,0,3.469,1.075,4.171,2.81.271.671.824,1.178,1.517,1.391,1.85.57,3.021,2.38,2.785,4.305-.243,1.992-2.022,3.494-4.14,3.494H7.175c-1.638,0-3.027-1.197-3.162-2.726Zm7.987,12.726c-.827,0-1.5-.673-1.5-1.5s.673-1.5,1.5-1.5,1.5.673,1.5,1.5-.673,1.5-1.5,1.5Z"/>
</svg>
