<?xml version="1.0" encoding="UTF-8"?>
<svg xmlns="http://www.w3.org/2000/svg" id="Layer_1" data-name="Layer 1" viewBox="0 0 24 24">
  <path d="m19.094,18.051l2.872-15.14c.121-.726-.082-1.464-.559-2.026-.476-.562-1.172-.884-1.908-.884H6C3.794,0,2,1.794,2,4v6c0,2.206,1.794,4,4,4h1v4.036c-1.694.243-3,1.704-3,3.464,0,1.378,1.122,2.5,2.5,2.5h13c1.379,0,2.5-1.122,2.5-2.5,0-1.727-1.258-3.166-2.906-3.449Zm-13.094-5.051c-1.654,0-3-1.346-3-3v-6c0-1.654,1.346-3,3-3h1v12h-1Zm4.5,0h-2.5v-3h2.5c.276,0,.5-.224.5-.5s-.224-.5-.5-.5h-2.5v-3h2.5c.276,0,.5-.224.5-.5s-.224-.5-.5-.5h-2.5V1h11.499c.442,0,.859.193,1.146.531.285.337.407.78.337,1.205l-2.896,15.265h-10.086v-4h2.5c.276,0,.5-.224.5-.5s-.224-.5-.5-.5Zm9,10H6.5c-.827,0-1.5-.673-1.5-1.5,0-1.254.929-2.295,2.134-2.473.273,0,.366-.027.366-.027h11c1.379,0,2.5,1.122,2.5,2.5,0,.827-.673,1.5-1.5,1.5Z"/>
</svg>
