<?xml version="1.0" encoding="UTF-8"?>
<svg xmlns="http://www.w3.org/2000/svg" id="Layer_1" data-name="Layer 1" viewBox="0 0 24 24">
  <path d="m12,23.511c-.012.269-.233.479-.5.479h-.021c-6.437-.275-11.479-5.542-11.479-11.989C0,5.383,5.383,0,12,0c6.447,0,11.714,5.042,11.989,11.479.012.276-.203.509-.479.521-.319-.016-.51-.203-.521-.479-.252-5.9-5.079-10.521-10.989-10.521C5.935,1,1,5.935,1,12c0,5.91,4.621,10.737,10.521,10.989.275.013.49.245.479.521ZM7,7.5v3c0,.276.224.5.5.5s.5-.224.5-.5v-3c0-.276-.224-.5-.5-.5s-.5.224-.5.5Zm3,0v3c0,.276.224.5.5.5s.5-.224.5-.5v-3c0-.276-.224-.5-.5-.5s-.5.224-.5.5Zm3,0v3c0,.276.224.5.5.5s.5-.224.5-.5v-3c0-.276-.224-.5-.5-.5s-.5.224-.5.5Zm3,0v1c0,.276.224.5.5.5s.5-.224.5-.5v-1c0-.276-.224-.5-.5-.5s-.5.224-.5.5Zm3,0v1c0,.276.224.5.5.5s.5-.224.5-.5v-1c0-.276-.224-.5-.5-.5s-.5.224-.5.5Zm-15,0v3c0,.276.224.5.5.5s.5-.224.5-.5v-3c0-.276-.224-.5-.5-.5s-.5.224-.5.5Zm20,10.5c0,3.309-2.691,6-6,6s-6-2.691-6-6c0-2.284,1.164-3.965,2.141-4.973.142-.146.354-.195.547-.115.188.075.312.259.313.462.002.676.215,1.501.462,1.501.402,0,.524-.271.799-1.347.228-.89.51-1.997,1.361-2.98.091-.105.222-.168.36-.173.13-.008.272.049.371.146.383.383.884.802,1.413,1.246,1.886,1.579,4.233,3.545,4.233,6.232Zm-4,3c0-.534-.208-1.037-.586-1.415l-1.414-1.415-1.415,1.415c-.779.779-.779,2.049,0,2.829.779.779,2.05.779,2.829,0,.378-.378.586-.88.586-1.414Zm3-3c0-2.221-2.148-4.021-3.875-5.466-.377-.315-.739-.619-1.063-.913-.461.701-.655,1.466-.831,2.154-.264,1.032-.536,2.1-1.769,2.1-.708,0-1.116-.579-1.313-1.304-.616.861-1.148,2.014-1.148,3.429,0,1.736.889,3.267,2.236,4.164-.458-1.091-.244-2.4.642-3.286l1.769-1.769c.094-.094.221-.146.354-.146s.26.053.354.146l1.768,1.769c.566.566.879,1.32.879,2.122,0,.406-.08.799-.233,1.162,1.345-.897,2.233-2.428,2.233-4.162Z"/>
</svg>
