<?xml version="1.0" encoding="UTF-8"?>
<svg xmlns="http://www.w3.org/2000/svg" id="Layer_1" data-name="Layer 1" viewBox="0 0 24 24">
  <path d="m22.971,3.295l-.258-.258c-2.646-2.646-6.908-2.729-9.498-.185-.269.263-.514.545-.73.841l-3.257-2.033c-1.855-1.157-4.293-.751-5.674.941L.979,5.759c-1.256,1.54-1.309,3.732-.129,5.331l1.728,2.343c.012.016.024.03.037.044-1.059,1.223-1.627,2.751-1.609,4.353.021,1.79.78,3.491,2.132,4.783l.258.258c.729.729,1.696,1.129,2.727,1.129s1.999-.401,2.728-1.129l14.122-14.122c1.503-1.504,1.503-3.95,0-5.454ZM1.654,10.496c-.908-1.231-.867-2.919.1-4.105l2.575-3.158c1.062-1.305,2.941-1.617,4.369-.725l7.418,4.63-4.249,4.249c-2.774-.58-5.938-.914-8.541,1.376l-1.672-2.267Zm6.487,11.667c-1.112,1.113-2.926,1.114-4.04,0l-.266-.266c-1.164-1.112-1.813-2.561-1.831-4.08-.017-1.494.572-2.915,1.657-4.001,1.421-1.421,3.029-1.871,4.71-1.871,1.479,0,3.014.349,4.524.692,1.488.338,2.929.665,4.188.582l-8.943,8.943Zm4.977-10.5c-.031-.007-.061-.014-.092-.021l3.942-3.942c.006-.006.012-.013.018-.02l3.472,2.167-1.636,1.636c-1.203,1.203-3.289.729-5.703.18Zm9.146-3.622l-1.085,1.085c-.02-.017-7.842-4.903-7.842-4.903.173-.23.367-.45.579-.658,2.202-2.163,5.832-2.08,8.091.178l.258.258c1.113,1.113,1.113,2.926,0,4.04Z"/>
</svg>
