<?xml version="1.0" encoding="UTF-8"?>
<svg xmlns="http://www.w3.org/2000/svg" id="Layer_1" data-name="Layer 1" viewBox="0 0 24 24">
  <path d="m20,16H4c-2.206,0-4,1.794-4,4s1.794,4,4,4h16c2.206,0,4-1.794,4-4s-1.794-4-4-4Zm0,7H4c-1.654,0-3-1.346-3-3s1.346-3,3-3h16c1.654,0,3,1.346,3,3s-1.346,3-3,3ZM7.5,14h9c1.93,0,3.5-1.57,3.5-3.5V3.5c0-1.93-1.57-3.5-3.5-3.5H7.5c-1.93,0-3.5,1.57-3.5,3.5v7c0,1.93,1.57,3.5,3.5,3.5ZM11,1h2v3.5c0,.276-.225.5-.5.5h-1c-.275,0-.5-.224-.5-.5V1Zm-6,2.5c0-1.378,1.121-2.5,2.5-2.5h2.5v3.5c0,.827.673,1.5,1.5,1.5h1c.827,0,1.5-.673,1.5-1.5V1h2.5c1.379,0,2.5,1.122,2.5,2.5v7c0,1.378-1.121,2.5-2.5,2.5H7.5c-1.379,0-2.5-1.122-2.5-2.5V3.5Zm0,16.5c0,.552-.448,1-1,1s-1-.448-1-1,.448-1,1-1,1,.448,1,1Zm16,0c0,.552-.448,1-1,1s-1-.448-1-1,.448-1,1-1,1,.448,1,1Zm-11,0c0,.552-.448,1-1,1s-1-.448-1-1,.448-1,1-1,1,.448,1,1Zm6,0c0,.552-.448,1-1,1s-1-.448-1-1,.448-1,1-1,1,.448,1,1Z"/>
</svg>
