<?xml version="1.0" encoding="UTF-8"?>
<svg xmlns="http://www.w3.org/2000/svg" id="Layer_1" data-name="Layer 1" viewBox="0 0 24 24">
  <path d="m16.008,8.987c.631.47.992,1.146.992,1.854v.658c0,.827.673,1.5,1.5,1.5h1c.827,0,1.5-.673,1.5-1.5v-.657c0-.707.366-1.387,1.004-1.865,1.269-.952,1.996-2.401,1.996-3.978,0-1.514-.675-2.93-1.852-3.884-1.176-.955-2.717-1.32-4.23-1.001-1.997.42-3.547,2.069-3.858,4.104-.28,1.838.467,3.666,1.948,4.769Zm3.492,3.013h-1c-.275,0-.5-.224-.5-.5v-.5h2v.5c0,.276-.225.5-.5.5Zm-4.452-7.631c.245-1.599,1.51-2.947,3.076-3.276.289-.061.579-.091.866-.091.921,0,1.811.308,2.528.89.941.764,1.481,1.897,1.481,3.108,0,1.259-.582,2.417-1.596,3.178-.642.481-1.077,1.121-1.276,1.822h-.628v-4.071c.86-.224,1.5-1,1.5-1.929,0-.276-.224-.5-.5-.5s-.5.224-.5.5c0,.551-.448,1-1,1s-1-.449-1-1c0-.276-.224-.5-.5-.5s-.5.224-.5.5c0,.929.64,1.705,1.5,1.929v4.071h-.626c-.198-.702-.631-1.34-1.268-1.814-1.202-.896-1.785-2.323-1.558-3.816Zm8.905,7.147c-.072,2.206-.762,4.27-1.996,5.97-.626.863-.957,1.808-.957,2.733v1.28c0,1.472-1.028,2.5-2.5,2.5h-8c-1.378,0-2.5-1.122-2.5-2.5v-.5h-.987c-2.112,0-3.964-1.5-4.402-3.566l-.516-2.434h-.549c-1.134,0-1.545-.87-1.545-1.455,0-1.282,2.851-7.445,4.237-9.159C6.415,1.479,9.91-.162,13.523.013c.276.013.489.248.476.523-.013.276-.244.49-.522.476-3.302-.153-6.461,1.334-8.451,3.989-1.418,1.755-4.025,7.68-4.025,8.545.007.203.107.455.545.455h.957c.236,0,.438.165.487.396l.6,2.83c.341,1.607,1.781,2.773,3.424,2.773h1.487c.276,0,.5.224.5.5v1c0,.827.673,1.5,1.5,1.5h8c.692,0,1.5-.393,1.5-1.5v-1.28c0-1.138.397-2.286,1.148-3.321,1.115-1.538,1.739-3.41,1.805-5.415.009-.275.193-.502.517-.483.275.009.492.24.483.516Z"/>
</svg>
