<?xml version="1.0" encoding="UTF-8"?>
<svg xmlns="http://www.w3.org/2000/svg" id="Layer_1" data-name="Layer 1" viewBox="0 0 24 24">
  <path d="m.116,5.377c-.193-.197-.19-.514.006-.707.198-.192.515-.19.707.007l2.987,3.043c.056.056.118.104.184.143V.5c0-.276.224-.5.5-.5s.5.224.5.5v7.362c.066-.04.129-.088.187-.146l2.984-3.04c.192-.197.509-.199.707-.007.196.193.199.51.006.707l-2.987,3.043c-.385.386-.891.579-1.396.58,0,0,0,0,0,0h0c-.505,0-1.009-.192-1.393-.576L.116,5.377Zm23.259,16.796c-.73,1.144-1.977,1.826-3.333,1.826H.5c-.276,0-.5-.224-.5-.5s.224-.5.5-.5h4.827c-.267-.238-.503-.516-.702-.826-.729-1.144-.824-2.562-.253-3.793l6.077-9.158c.896-1.429,2.159-2.223,3.549-2.223,1.445,0,2.711.797,3.563,2.246l6.029,9.07c.608,1.297.514,2.715-.216,3.858Zm-5.661.826l-2.62-5.277c-.207-.447-.614-.708-1.095-.708s-.888.261-1.09.695l-2.623,5.29h7.427Zm5.008-4.197l-6.007-9.026c-.69-1.17-1.625-1.776-2.717-1.776-1.324,0-2.204.96-2.709,1.765l-6.048,9.103c-.39.854-.318,1.913.227,2.768.546.854,1.477,1.364,2.49,1.364h1.211l2.839-5.723c.359-.774,1.124-1.263,1.991-1.263s1.632.488,1.996,1.275l2.836,5.71h1.211c1.014,0,1.944-.51,2.49-1.364.545-.854.616-1.914.189-2.833Z"/>
</svg>
