<?xml version="1.0" encoding="UTF-8"?>
<svg xmlns="http://www.w3.org/2000/svg" id="Layer_1" data-name="Layer 1" viewBox="0 0 24 24">
  <path d="m17.5,0H6.5C4.019,0,2,2.019,2,4.5v16c0,1.93,1.57,3.5,3.5,3.5h12c2.481,0,4.5-2.019,4.5-4.5V4.5c0-2.481-2.019-4.5-4.5-4.5ZM3,4.5c0-1.93,1.57-3.5,3.5-3.5h11c1.93,0,3.5,1.57,3.5,3.5v12.5H5.5c-.98,0-1.864.407-2.5,1.058V4.5Zm14.5,18.5H5.5c-1.378,0-2.5-1.121-2.5-2.5s1.122-2.5,2.5-2.5h15.5v1.5c0,1.93-1.57,3.5-3.5,3.5Zm-9.5-14.05v3.55c0,1.379,1.122,2.5,2.5,2.5h3c1.378,0,2.5-1.121,2.5-2.5v-3.55c1.14-.232,2-1.243,2-2.45,0-1.379-1.122-2.5-2.5-2.5-.618,0-1.21.232-1.664.639-1.048-.82-2.624-.82-3.672,0-.454-.406-1.046-.639-1.664-.639-1.378,0-2.5,1.121-2.5,2.5,0,1.207.86,2.218,2,2.45Zm.5-3.95c.485,0,.943.239,1.225.64.088.125.229.203.381.211.158.022.301-.054.402-.168.778-.881,2.205-.881,2.983,0,.101.114.246.185.402.168.153-.008.293-.086.381-.211.282-.4.74-.64,1.225-.64.827,0,1.5.673,1.5,1.5s-.673,1.5-1.5,1.5c-.276,0-.5.224-.5.5v4c0,.827-.673,1.5-1.5,1.5h-3c-.827,0-1.5-.673-1.5-1.5v-4c0-.276-.224-.5-.5-.5-.827,0-1.5-.673-1.5-1.5s.673-1.5,1.5-1.5Z"/>
</svg>
