<?xml version="1.0" encoding="UTF-8"?>
<svg xmlns="http://www.w3.org/2000/svg" id="Layer_1" data-name="Layer 1" viewBox="0 0 24 24">
  <path d="m21.8,17h-.8v-2.5c0-1.93-1.57-3.5-3.5-3.5h-5v-4h.8c1.213,0,2.2-.987,2.2-2.2v-1.6c0-1.213-.987-2.2-2.2-2.2h-2.6c-1.213,0-2.2.987-2.2,2.2v1.6c0,1.213.987,2.2,2.2,2.2h.8v4h-5c-1.93,0-3.5,1.57-3.5,3.5v2.5h-.8c-1.213,0-2.2.987-2.2,2.2v1.6c0,1.213.987,2.2,2.2,2.2h2.6c1.213,0,2.2-.987,2.2-2.2v-1.6c0-1.213-.987-2.2-2.2-2.2h-.8v-2.5c0-1.379,1.122-2.5,2.5-2.5h5v5h-.8c-1.213,0-2.2.987-2.2,2.2v1.6c0,1.213.987,2.2,2.2,2.2h2.6c1.213,0,2.2-.987,2.2-2.2v-1.6c0-1.213-.987-2.2-2.2-2.2h-.8v-5h5c1.379,0,2.5,1.121,2.5,2.5v2.5h-.8c-1.213,0-2.2.987-2.2,2.2v1.6c0,1.213.987,2.2,2.2,2.2h2.6c1.213,0,2.2-.987,2.2-2.2v-1.6c0-1.213-.987-2.2-2.2-2.2ZM9.5,4.8v-1.6c0-.662.539-1.2,1.2-1.2h2.6c.662,0,1.2.538,1.2,1.2v1.6c0,.662-.538,1.2-1.2,1.2h-2.6c-.662,0-1.2-.538-1.2-1.2Zm-3.5,14.4v1.6c0,.662-.539,1.2-1.2,1.2h-2.6c-.662,0-1.2-.538-1.2-1.2v-1.6c0-.662.539-1.2,1.2-1.2h2.6c.662,0,1.2.538,1.2,1.2Zm8.5,0v1.6c0,.662-.538,1.2-1.2,1.2h-2.6c-.662,0-1.2-.538-1.2-1.2v-1.6c0-.662.539-1.2,1.2-1.2h2.6c.662,0,1.2.538,1.2,1.2Zm8.5,1.6c0,.662-.538,1.2-1.2,1.2h-2.6c-.662,0-1.2-.538-1.2-1.2v-1.6c0-.662.538-1.2,1.2-1.2h2.6c.662,0,1.2.538,1.2,1.2v1.6Z"/>
</svg>
