<?xml version="1.0" encoding="UTF-8"?>
<svg xmlns="http://www.w3.org/2000/svg" id="Layer_1" data-name="Layer 1" viewBox="0 0 24 24">
  <path d="m21,12c0,.276-.224.5-.5.5h-2v2c0,.276-.224.5-.5.5s-.5-.224-.5-.5v-2h-2c-.276,0-.5-.224-.5-.5s.224-.5.5-.5h2v-2c0-.276.224-.5.5-.5s.5.224.5.5v2h2c.276,0,.5.224.5.5Zm-7,2c0,1.654-1.346,3-3,3s-3-1.346-3-3c0-1.085.584-2.028,1.449-2.555-.574-.458-.949-1.155-.949-1.945,0-1.379,1.122-2.5,2.5-2.5s2.5,1.121,2.5,2.5c0,.79-.375,1.487-.949,1.945.865.527,1.449,1.47,1.449,2.555Zm-3-3c.827,0,1.5-.673,1.5-1.5s-.673-1.5-1.5-1.5-1.5.673-1.5,1.5.673,1.5,1.5,1.5Zm2,3c0-1.103-.897-2-2-2s-2,.897-2,2,.897,2,2,2,2-.897,2-2Zm11-2c0,6.617-5.383,12-12,12S0,18.617,0,12,5.383,0,12,0s12,5.383,12,12Zm-1,0c0-6.065-4.935-11-11-11S1,5.935,1,12s4.935,11,11,11,11-4.935,11-11ZM5.487,7.056c-.312-.12-.659-.042-.887.206l-1.732,1.901c-.186.204-.171.521.033.707.205.186.521.172.707-.033l1.393-1.529v8.192c0,.276.224.5.5.5s.5-.224.5-.5V7.807c0-.334-.201-.629-.513-.751Z"/>
</svg>
