<?xml version="1.0" encoding="UTF-8"?>
<svg xmlns="http://www.w3.org/2000/svg" id="Layer_1" data-name="Layer 1" viewBox="0 0 24 24">
  <path d="m16.918,4.002c-.006,0-.012,0-.018,0-.466-2.31-2.499-4.002-4.9-4.002s-4.435,1.692-4.901,4.004c-.269.007-.54.034-.811.082-1.918.342-3.517,1.791-4.074,3.691-.41,1.401-.233,2.818.522,4.116l6.881,10.798c.521.818,1.412,1.307,2.382,1.307s1.861-.488,2.383-1.307l6.891-10.815c.482-.829.727-1.712.727-2.626,0-2.853-2.232-5.157-5.082-5.248Zm4.082,5.248c0,.253-.024.503-.071.75h-8.358c-.067-.353-.087-.712-.059-1.07.174-2.198,2.157-4.029,4.374-3.928,2.307.073,4.113,1.939,4.113,4.248ZM12,1c1.882,0,3.482,1.298,3.896,3.089-1.688.307-3.154,1.41-3.888,2.941-.321-.688-.791-1.305-1.389-1.806-.726-.608-1.593-.999-2.511-1.151.42-1.782,2.016-3.073,3.892-3.073ZM3.175,8.059c.451-1.54,1.742-2.713,3.29-2.988.258-.046.518-.068.774-.068,1.001,0,1.969.344,2.738.988.968.811,1.523,1.999,1.523,3.26,0,.251-.024.502-.071.75H3.072c-.107-.564-.109-1.218.103-1.941Zm10.365,14.096c-.337.528-.913.844-1.54.844s-1.202-.315-1.539-.844L3.591,11.374c-.066-.114-.132-.239-.195-.374h17.21c-.056.12-.118.239-.186.356l-6.88,10.798Z"/>
</svg>
