<?xml version="1.0" encoding="UTF-8"?>
<svg xmlns="http://www.w3.org/2000/svg" id="Layer_1" data-name="Layer 1" viewBox="0 0 24 24">
  <path d="m19,9.393v-5.393h1.5c.276,0,.5-.224.5-.5s-.224-.5-.5-.5h-1.536c-.243-1.694-1.704-3-3.464-3h-7c-1.93,0-3.5,1.57-3.5,3.5v5.893c-1.17.64-2,1.68-2,2.607,0,2.346,2.178,6.076,6.961,6.843-.273,1.133-1.888,1.157-1.961,1.157-1.103,0-2,.897-2,2s.897,2,2,2h8c1.103,0,2-.897,2-2s-.897-2-2-2c-.075,0-1.691-.014-1.961-1.157,4.784-.766,6.961-4.112,6.961-6.843,0-.927-.83-1.966-2-2.607ZM6,3.5c0-1.379,1.121-2.5,2.5-2.5h7c1.379,0,2.5,1.121,2.5,2.5v5.5H6V3.5Zm10,17.5c.552,0,1,.448,1,1s-.448,1-1,1h-8c-.552,0-1-.448-1-1s.448-1,1-1c.952,0,2.682-.44,2.961-2.04.335.026.681.04,1.039.04s.704-.014,1.039-.04c.279,1.6,2.009,2.04,2.961,2.04Zm-4-3c-4.34,0-6.802-2.121-7.655-4.21,1.465.784,4.085,1.21,7.655,1.21,3.345,0,5.998-.196,7.534-.936-.951,1.997-3.384,3.936-7.534,3.936Zm0-4c-5.869,0-8-1.196-8-2,0-.535.791-1.541,2.084-2h11.832c1.293.459,2.084,1.465,2.084,2,0,1.402-2.393,2-8,2Z"/>
</svg>
