<?xml version="1.0" encoding="UTF-8"?>
<svg xmlns="http://www.w3.org/2000/svg" id="Layer_1" data-name="Layer 1" viewBox="0 0 24 24">
  <path d="m20,5c1.378,0,2.5-1.122,2.5-2.5s-1.122-2.5-2.5-2.5-2.5,1.122-2.5,2.5,1.122,2.5,2.5,2.5Zm0-4c.827,0,1.5.673,1.5,1.5s-.673,1.5-1.5,1.5-1.5-.673-1.5-1.5.673-1.5,1.5-1.5Z"/>
  <path d="m16,5c.276,0,.5-.224.5-.5s-.224-.5-.5-.5c-.827,0-1.5-.673-1.5-1.5s.673-1.5,1.5-1.5c.276,0,.5-.224.5-.5s-.224-.5-.5-.5c-1.378,0-2.5,1.122-2.5,2.5s1.122,2.5,2.5,2.5Z"/>
  <path d="m12,5c.276,0,.5-.224.5-.5s-.224-.5-.5-.5c-.827,0-1.5-.673-1.5-1.5s.673-1.5,1.5-1.5c.276,0,.5-.224.5-.5s-.224-.5-.5-.5c-1.378,0-2.5,1.122-2.5,2.5s1.122,2.5,2.5,2.5Z"/>
  <path d="m8,5c.276,0,.5-.224.5-.5s-.224-.5-.5-.5c-.827,0-1.5-.673-1.5-1.5s.673-1.5,1.5-1.5c.276,0,.5-.224.5-.5s-.224-.5-.5-.5c-1.378,0-2.5,1.122-2.5,2.5s1.122,2.5,2.5,2.5Z"/>
  <path d="m4,5c.276,0,.5-.224.5-.5s-.224-.5-.5-.5c-.827,0-1.5-.673-1.5-1.5s.673-1.5,1.5-1.5c.276,0,.5-.224.5-.5s-.224-.5-.5-.5C2.622,0,1.5,1.122,1.5,2.5s1.122,2.5,2.5,2.5Z"/>
  <path d="m20.5,6h-1c-1.93,0-3.5,1.57-3.5,3.5v4c0,1.391.822,2.585,2,3.149v6.851c0,.276.224.5.5.5s.5-.224.5-.5v-6.551c.165.024.329.051.5.051h1c.171,0,.335-.027.5-.051v6.551c0,.276.224.5.5.5s.5-.224.5-.5v-6.851c1.178-.564,2-1.758,2-3.149v-4c0-1.93-1.57-3.5-3.5-3.5Zm2.5,7.5c0,1.378-1.122,2.5-2.5,2.5h-1c-1.378,0-2.5-1.122-2.5-2.5v-4c0-1.378,1.122-2.5,2.5-2.5h1c1.378,0,2.5,1.122,2.5,2.5v4Z"/>
  <path d="m14.917,6.048c-1.69.283-2.917,1.735-2.917,3.452v4c0,1.36.791,2.589,2,3.163v5.837c0,.276.224.5.5.5s.5-.224.5-.5v-6.171c0-.212-.134-.401-.333-.472-.997-.352-1.667-1.299-1.667-2.357v-4c0-1.226.876-2.263,2.083-2.465.272-.046.456-.303.411-.576-.046-.273-.304-.462-.576-.411Z"/>
  <path d="m10.917,6.048c-1.69.283-2.917,1.735-2.917,3.452v3.171c0,1.36.791,2.589,2,3.163v5.666c0,.276.224.5.5.5s.5-.224.5-.5v-6c0-.212-.134-.401-.333-.472-.997-.352-1.667-1.299-1.667-2.357v-3.171c0-1.226.876-2.263,2.083-2.465.272-.046.456-.303.411-.576-.046-.273-.306-.462-.576-.411Z"/>
  <path d="m6.917,6.048c-1.69.283-2.917,1.735-2.917,3.452v2c0,1.36.791,2.589,2,3.163v5.666c0,.276.224.5.5.5s.5-.224.5-.5v-6c0-.212-.134-.401-.333-.472-.997-.352-1.667-1.299-1.667-2.357v-2c0-1.226.876-2.263,2.083-2.465.272-.046.456-.303.411-.576-.046-.273-.307-.462-.576-.411Z"/>
  <path d="m2.917,6.048c-1.69.283-2.917,1.735-2.917,3.452v1.671c0,1.36.791,2.589,2,3.163v4.666c0,.276.224.5.5.5s.5-.224.5-.5v-5c0-.212-.134-.401-.333-.472-.997-.352-1.667-1.299-1.667-2.357v-1.671c0-1.226.876-2.263,2.083-2.465.272-.046.456-.303.411-.576-.046-.273-.304-.462-.576-.411Z"/>
</svg>
