<?xml version="1.0" encoding="UTF-8"?>
<svg xmlns="http://www.w3.org/2000/svg" id="Layer_1" data-name="Layer 1" viewBox="0 0 24 24">
  <path d="m23.325,9.426c-1.028-1.889-3.349-5.504-7.347-8.493-.833-.623-1.836-.946-2.888-.933-.954.011-1.879.298-2.677.83-.031.021-8.904,9.38-8.904,9.38-.972,1.025-1.508,2.369-1.508,3.783v5.507c0,2.481,2.019,4.5,4.5,4.5h15c2.481,0,4.5-2.019,4.5-4.5v-7.375c0-.954-.233-1.887-.675-2.699ZM1,19v-2h22v2H1Zm0-5.007c0-.339.048-.669.122-.993h21.878v3H1v-2.007Zm1.233-3.095L11.013,1.632c.625-.405,1.347-.623,2.088-.632.784-.022,1.622.245,2.278.734,3.846,2.875,6.079,6.353,7.067,8.169.343.631.527,1.354.546,2.097H1.486c.197-.396.436-.774.748-1.103Zm17.267,12.103H4.5c-1.758,0-3.204-1.308-3.449-3h21.899c-.245,1.692-1.691,3-3.449,3Z"/>
</svg>
