<?xml version="1.0" encoding="UTF-8"?>
<svg xmlns="http://www.w3.org/2000/svg" id="Layer_1" data-name="Layer 1" viewBox="0 0 24 24">
  <path d="m7.5,12c3.032,0,5.5-2.467,5.5-5.5S10.532,1,7.5,1,2,3.467,2,6.5s2.468,5.5,5.5,5.5Zm0-10c2.481,0,4.5,2.019,4.5,4.5s-2.019,4.5-4.5,4.5-4.5-2.019-4.5-4.5S5.019,2,7.5,2Zm7.5,19.5v2c0,.276-.224.5-.5.5s-.5-.224-.5-.5v-2c0-3.584-2.916-6.5-6.5-6.5s-6.5,2.916-6.5,6.5v2c0,.276-.224.5-.5.5s-.5-.224-.5-.5v-2c0-4.136,3.364-7.5,7.5-7.5s7.5,3.364,7.5,7.5ZM22.001,0h-6.001c-1.103,0-2,.896-2,2l.002,7.272c0,.588.308,1.108.824,1.391.24.132.499.198.76.198.299,0,.599-.087.871-.262l2.325-1.601,3.217.002h0c.534,0,1.036-.208,1.414-.585.378-.378.586-.88.586-1.415V2.001c0-1.103-.896-2-1.999-2Zm.999,6.999c0,.267-.104.519-.293.707-.188.189-.44.293-.707.293h0l-3.372-.002c-.102,0-.2.031-.283.088l-2.439,1.68c-.185.117-.409.124-.598.021-.19-.104-.305-.297-.305-.514l-.002-7.272c0-.552.448-1,1-1h6.001c.552,0,1,.45,1,1.001v4.999Zm-1.147-4.206c.195.195.195.512,0,.707l-2.519,2.519c-.321.322-.74.483-1.159.483-.403,0-.807-.149-1.126-.449l-.893-.843c-.201-.189-.21-.506-.021-.707.188-.201.505-.209.706-.021l.893.842c.255.239.646.233.893-.013l2.519-2.519c.195-.195.512-.195.707,0Z"/>
</svg>
