<?xml version="1.0" encoding="UTF-8"?>
<svg xmlns="http://www.w3.org/2000/svg" id="Layer_1" data-name="Layer 1" viewBox="0 0 24 24">
  <path d="m6.1,1.7c-.038.028.028-.038,0,0h0Zm11.7-.1c.038.028-.028-.038,0,0h0Zm3.444,20.239l-1.491,1.452c-.47.458-1.088.708-1.743.708-.013,0-.026,0-.04,0-.669-.01-1.294-.281-1.759-.762l-4.327-4.61-4.102,4.59c-.477.498-1.102.771-1.773.782-.015,0-.029,0-.044,0-.654,0-1.271-.25-1.742-.708l-1.466-1.427c-.983-.958-1.008-2.54-.055-3.528l4.365-4.841-2.819-3.003c-.854-.884-1.19-2.154-.871-3.31.531-1.92,1.473-3.816,2.723-5.483.087-.065,2.275-1.7,5.9-1.7s5.713,1.535,5.8,1.6c1.247,1.662,2.287,3.652,2.819,5.567.324,1.167-.02,2.445-.896,3.337l-2.892,2.941,4.496,4.896c.923.983.887,2.554-.083,3.498Zm-8.491-12.834l3.401,3.703,2.856-2.905c.627-.638.875-1.545.646-2.369-.385-1.386-.999-2.76-1.799-4.034l-5.104,5.605Zm.423-1.949c-.719-.069-1.479-.073-2.224-.013l1.122,1.222,1.102-1.21ZM6.764,2.485l3.349,3.646c1.289-.18,2.662-.172,3.884.023,0,0,3.255-3.562,3.299-3.587-.049-.068-.098-.136-.148-.203-.331-.222-2.179-1.364-5.147-1.364s-4.816,1.142-5.147,1.364c-.03.04-.06.081-.089.121Zm1.189,19.041l-3.611-3.516-.909,1.008c-.583.605-.568,1.555.021,2.129l1.466,1.427c.289.281.68.429,1.072.425.403-.007.778-.171,1.057-.461l.905-1.012Zm3.244-3.63l-3.444-3.669-2.741,3.04,3.608,3.512,2.577-2.884Zm4.131,2.94l3.66-3.562L6.186,3.334c-.823,1.297-1.454,2.7-1.845,4.116-.226.816.016,1.718.631,2.354l10.356,11.032Zm5.266-1.813l-.929-1.012-3.652,3.555.922.983c.274.284.649.446,1.05.452.413.047.782-.144,1.07-.425l1.491-1.452c.582-.566.603-1.509.047-2.101Z"/>
</svg>
