<?xml version="1.0" encoding="UTF-8"?>
<svg xmlns="http://www.w3.org/2000/svg" id="Layer_1" data-name="Layer 1" viewBox="0 0 24 24">
  <path d="m10.008,18.732c.031.08.132.268.395.268h4.075c.276,0,.5.224.5.5s-.224.5-.5.5h-4.075c-.594,0-1.114-.356-1.327-.908-.216-.561-.066-1.185.382-1.591.435-.393.998-.752,1.594-1.133,1.534-.98,3.12-1.995,2.93-3.707-.104-.932-.974-1.661-1.98-1.661-.961,0-1.825.688-2.01,1.6-.055.271-.318.447-.59.391-.271-.055-.445-.319-.391-.59.282-1.391,1.54-2.4,2.99-2.4,1.509,0,2.815,1.12,2.975,2.55.26,2.331-1.762,3.623-3.385,4.66-.561.358-1.089.696-1.462,1.033-.212.192-.146.423-.12.489ZM22.845,2.148l-3.674,7.454c1.131,1.505,1.802,3.374,1.802,5.397,0,4.963-4.037,9-9,9S2.973,19.963,2.973,15c0-2.023.671-3.892,1.802-5.396L1.1,2.148c-.229-.465-.203-1.006.071-1.445.273-.44.746-.703,1.265-.703h4.025c1.343,0,2.546.748,3.139,1.952l2.002,4.056c.123-.005.247-.008.371-.008s.247.003.37.008l2.002-4.057c.595-1.203,1.797-1.951,3.139-1.951h4.025c.519,0,.991.263,1.265.703.274.439.301.98.071,1.445ZM5.48,8.774c1.325-1.382,3.086-2.342,5.059-2.659l-1.836-3.72c-.424-.86-1.283-1.395-2.242-1.395H2.436c-.245,0-.373.161-.416.23-.043.07-.132.256-.023.477l3.483,7.067Zm14.493,6.226c0-4.176-3.835-8-8-8S3.973,10.824,3.973,15c0,4.411,3.589,8,8,8s8-3.589,8-8Zm1.952-13.77c-.043-.069-.171-.23-.416-.23h-4.025c-.958,0-1.817.534-2.242,1.395l-1.835,3.72c1.973.317,3.734,1.277,5.059,2.659l3.483-7.066c.108-.221.02-.406-.023-.477Z"/>
</svg>
