<?xml version="1.0" encoding="UTF-8"?>
<svg xmlns="http://www.w3.org/2000/svg" id="Layer_1" data-name="Layer 1" viewBox="0 0 24 24">
  <path d="m23.564,15.756c-.369-.441-.934-.698-1.564-.739v-4.017C22,4.935,17.065,0,11,0S0,4.935,0,11s4.935,11,11,11c2.041,0,4.033-.562,5.762-1.628.235-.145.308-.453.164-.688-.146-.234-.454-.308-.688-.163-1.571.968-3.382,1.479-5.238,1.479-5.514,0-10-4.486-10-10S5.486,1,11,1s10,4.486,10,10v4.012c-.653.03-1.241.294-1.619.751-.367.443-.507,1.017-.396,1.598l.823,5.366c.113.738.736,1.273,1.482,1.273h.369c.746,0,1.37-.535,1.482-1.272l.823-5.369c.108-.594-.035-1.163-.401-1.603Zm-1.411,6.82c-.038.245-.246.424-.494.424h-.369c-.249,0-.457-.179-.494-.425l-.826-5.385c-.058-.304.004-.577.181-.79.211-.255.562-.4.965-.4h.717c.401,0,.752.145.962.397.176.21.24.48.183.796l-.825,5.383ZM11,6c-2.757,0-5,2.243-5,5s2.243,5,5,5,5-2.243,5-5-2.243-5-5-5Zm0,9c-2.206,0-4-1.794-4-4s1.794-4,4-4,4,1.794,4,4-1.794,4-4,4Zm0-6c-1.103,0-2,.897-2,2s.897,2,2,2,2-.897,2-2-.897-2-2-2Zm0,3c-.551,0-1-.448-1-1s.449-1,1-1,1,.448,1,1-.449,1-1,1Zm0-9C6.589,3,3,6.589,3,11s3.589,8,8,8,8-3.589,8-8S15.411,3,11,3Zm0,15c-3.86,0-7-3.141-7-7s3.14-7,7-7,7,3.141,7,7-3.14,7-7,7Z"/>
</svg>
