<?xml version="1.0" encoding="UTF-8"?>
<svg xmlns="http://www.w3.org/2000/svg" id="Layer_1" data-name="Layer 1" viewBox="0 0 24 24">
  <path d="m23.464,7.724c-1.251-1.302-5.654-5.461-10.964-5.712V.5c0-.276-.224-.5-.5-.5s-.5.224-.5.5v1.512C6.19,2.263,1.788,6.422.537,7.724c-.346.359-.537.834-.537,1.338,0,1.068.869,1.938,1.938,1.938h20.125c1.068,0,1.938-.869,1.938-1.938,0-.504-.19-.979-.536-1.338Zm-1.401,2.276H1.938c-.517,0-.938-.42-.938-.938,0-.244.091-.473.257-.645,1.222-1.271,5.607-5.417,10.743-5.417s9.521,4.146,10.744,5.417c.165.172.256.401.256.645,0,.517-.42.938-.938.938Zm-10.739,9.321c-.136.152-1.323,1.522-1.323,2.681,0,.533.208,1.035.585,1.411.377.378.88.586,1.415.586s1.036-.208,1.414-.586.586-.88.586-1.414c0-1.157-1.188-2.526-1.294-2.643-.329-.449-1.112-.412-1.382-.036Zm1.384,3.386c-.378.378-1.036.378-1.415,0-.188-.188-.292-.438-.292-.704,0-.546.564-1.411,1-1.936.414.49,1,1.378,1,1.933,0,.267-.104.518-.293.707Zm-6.707-3.707h0c-.277,0-.541.134-.676.321-.136.152-1.323,1.522-1.323,2.681,0,.533.208,1.035.586,1.412.378.378.88.586,1.414.586s1.036-.208,1.414-.586.586-.88.586-1.414c0-1.157-1.188-2.526-1.294-2.644-.165-.223-.429-.356-.706-.356Zm.707,3.707c-.378.378-1.036.378-1.415,0-.188-.188-.292-.438-.292-.704,0-.546.564-1.412,1-1.936.321.384,1,1.321,1,1.933,0,.267-.104.518-.293.707Zm11.293-3.707h0c-.277,0-.541.134-.676.321-.136.152-1.323,1.522-1.323,2.681,0,.533.208,1.035.586,1.412.378.378.88.586,1.414.586s1.036-.208,1.414-.586.586-.88.586-1.414c0-1.157-1.188-2.526-1.294-2.644-.165-.223-.429-.356-.706-.356Zm.707,3.707c-.378.378-1.036.378-1.415,0-.188-.188-.292-.438-.292-.704,0-.546.564-1.412,1-1.936.321.384,1,1.321,1,1.933,0,.267-.104.518-.293.707Zm-7.707-6.707c0-1.157-1.188-2.526-1.294-2.644-.165-.223-.429-.356-.706-.356h0c-.277,0-.541.134-.676.321-.136.152-1.323,1.522-1.323,2.681,0,.533.208,1.035.586,1.412.378.378.88.586,1.414.586s1.036-.208,1.414-.586.586-.88.586-1.414Zm-1.293.707c-.378.378-1.036.378-1.415,0-.188-.188-.292-.438-.292-.704,0-.546.564-1.412,1-1.936.321.384,1,1.321,1,1.933,0,.267-.104.518-.293.707Zm7.293-.707c0-1.157-1.188-2.526-1.294-2.643-.329-.448-1.112-.412-1.383-.036-.136.152-1.323,1.522-1.323,2.681,0,.533.208,1.035.586,1.412.378.378.88.586,1.414.586s1.036-.208,1.414-.586.586-.88.586-1.414Zm-1.293.707c-.378.378-1.036.378-1.415,0-.188-.188-.292-.438-.292-.704,0-.546.564-1.412,1-1.936.321.384,1,1.321,1,1.933,0,.267-.104.518-.293.707Z"/>
</svg>
