<?xml version="1.0" encoding="UTF-8"?>
<svg xmlns="http://www.w3.org/2000/svg" id="Layer_1" data-name="Layer 1" viewBox="0 0 24 24">
  <path d="m22.194,18.331L13.359,5.673c.973-.497,1.641-1.508,1.641-2.673,0-1.654-1.346-3-3-3s-3,1.346-3,3c0,1.165.668,2.177,1.641,2.673L1.806,18.331c-.888,1.273-1.057,2.726-.451,3.885.591,1.134,1.841,1.784,3.429,1.784h14.434c1.588,0,2.838-.65,3.429-1.784.605-1.16.437-2.612-.451-3.885Zm-7.2,4.669h-4.332l6.785-9.721,2.157,3.089-4.553,6.522c-.024.035-.043.072-.057.109Zm1.843-10.595l-7.318,10.486c-.024.035-.043.072-.057.109h-4.252l9.511-13.626,2.116,3.031ZM10,3c0-1.103.897-2,2-2s2,.897,2,2-.897,2-2,2-2-.897-2-2ZM2.241,21.754c-.424-.811-.276-1.903.385-2.851L11.648,5.979c.116.014.233.021.352.021s.237-.008.352-.021l1.76,2.522-10.045,14.39c-.011.016-.021.032-.029.048-.843-.147-1.468-.555-1.797-1.185Zm19.518,0c-.419.804-1.321,1.246-2.542,1.246h-3.022l4.019-5.758,1.16,1.661c.661.947.809,2.04.385,2.851Z"/>
</svg>
