<?xml version="1.0" encoding="UTF-8"?>
<svg xmlns="http://www.w3.org/2000/svg" id="Layer_1" data-name="Layer 1" viewBox="0 0 24 24">
  <path d="m10.002,15c-.109,0-.203.004-.301.008l.154-.154c.195-.195.195-.512,0-.707s-.512-.195-.707,0l-.154.154c.003-.097.008-.192.008-.301,0-1.813-1.174-3.67-1.868-4.48-.566-.66-1.697-.66-2.264,0-.694.811-1.868,2.667-1.868,4.48,0,2.059,1.211,3.76,1.813,4.48L.149,23.146c-.195.195-.195.512,0,.707.098.098.226.146.354.146s.256-.049.354-.146l4.667-4.667c.72.602,2.421,1.813,4.48,1.813,1.814,0,3.669-1.175,4.479-1.868.331-.282.521-.695.521-1.132s-.189-.85-.52-1.132c-.811-.693-2.666-1.868-4.48-1.868Zm-6-1c0-1.324.844-2.914,1.628-3.83.188-.219.557-.219.744,0,.784.916,1.628,2.506,1.628,3.83,0,1.061-.597,1.857-.671,1.964l-1.804,1.804c-.532-.657-1.525-2.105-1.525-3.768Zm9.83,4.372c-.916.784-2.504,1.628-3.83,1.628-1.662,0-3.11-.993-3.768-1.525l1.804-1.804c.107-.074.903-.671,1.964-.671,1.325,0,2.914.844,3.83,1.628.148.127.17.287.17.372s-.022.245-.17.372Zm10.021,4.774l-6.957-6.957c.579-.303,1.137-.673,1.585-1.058.331-.282.521-.695.521-1.132,0-.395-.162-.766-.436-1.043,1.624-.202,3.19-1.204,3.916-1.825.331-.282.521-.695.521-1.132s-.189-.85-.52-1.132c-.398-.341-1.052-.798-1.827-1.175.506-.164.971-.402,1.323-.755,1.196-1.195,1.748-3.459,2.001-5.147.074-.495-.085-.981-.438-1.335-.353-.353-.841-.511-1.336-.438-1.688.253-3.953.806-5.147,2.001-.351.351-.589.816-.751,1.324-.376-.773-.832-1.425-1.173-1.823-.566-.66-1.697-.66-2.264,0-.622.727-1.624,2.295-1.825,3.919-.588-.57-1.635-.548-2.175.081-.386.452-.756,1.009-1.058,1.586L.854.146C.658-.049.342-.049.146.146S-.049.658.146.854l23,23c.098.098.226.146.354.146s.256-.049.354-.146c.195-.195.195-.512,0-.707Zm-6.021-8.774c-.459.394-1.076.78-1.685,1.068l-3.33-3.33c.236-.073.574-.111,1.185-.111,1.325,0,2.914.844,3.83,1.628.148.127.17.287.17.372s-.022.245-.17.372Zm4.17-4.372c0,.085-.022.245-.17.372-.916.784-2.504,1.628-3.83,1.628-.15,0-.62-.006-.804-.021-.903-.516-2.057-.979-3.196-.979-.109,0-.202.003-.299.006l2.333-2.334c.108-.074.905-.672,1.965-.672,1.325,0,2.914.844,3.83,1.628.148.127.17.287.17.372Zm-4.237-7.274c.782-.782,2.412-1.393,4.588-1.72.179-.024.354.031.48.157s.183.301.156.479c-.326,2.177-.936,3.807-1.719,4.589-.871.871-3.068.825-4.205.7-.123-1.14-.163-3.345.698-4.206Zm-4.135-.556c.188-.219.557-.219.744,0,.778.909,1.613,2.481,1.626,3.799,0,.017.001.033.002.05-.002,1.043-.596,1.838-.669,1.944l-2.336,2.336c.002-.097.006-.19.006-.298,0-1.141-.465-2.297-.982-3.201,0-.019-.018-.641-.018-.799,0-1.324.844-2.914,1.628-3.83Zm-4,4c.188-.219.557-.219.744,0,.784.916,1.628,2.506,1.628,3.83,0,.611-.037.949-.11,1.185l-3.33-3.33c.287-.606.673-1.222,1.069-1.685Z"/>
</svg>
