<?xml version="1.0" encoding="UTF-8"?>
<svg xmlns="http://www.w3.org/2000/svg" id="Layer_1" data-name="Layer 1" viewBox="0 0 24 24">
  <path d="m18.5,24H5.5c-2.481,0-4.5-2.019-4.5-4.5V4.5C1,2.019,3.019,0,5.5,0h13c2.481,0,4.5,2.019,4.5,4.5v15c0,2.481-2.019,4.5-4.5,4.5ZM5.5,1c-1.93,0-3.5,1.57-3.5,3.5v15c0,1.93,1.57,3.5,3.5,3.5h13c1.93,0,3.5-1.57,3.5-3.5V4.5c0-1.93-1.57-3.5-3.5-3.5H5.5Zm11.5,7H7c-1.103,0-2-.897-2-2s.897-2,2-2h10c1.103,0,2,.897,2,2s-.897,2-2,2Zm-10-3c-.551,0-1,.448-1,1s.449,1,1,1h10c.551,0,1-.448,1-1s-.449-1-1-1H7Zm12,14.5c0-.276-.224-.5-.5-.5h-5c-.276,0-.5.224-.5.5s.224.5.5.5h5c.276,0,.5-.224.5-.5Zm-12-4c0-.276-.224-.5-.5-.5h-1c-.276,0-.5.224-.5.5s.224.5.5.5h1c.276,0,.5-.224.5-.5Zm4,0c0-.276-.224-.5-.5-.5h-1c-.276,0-.5.224-.5.5s.224.5.5.5h1c.276,0,.5-.224.5-.5Zm-4,4c0-.276-.224-.5-.5-.5h-1c-.276,0-.5.224-.5.5s.224.5.5.5h1c.276,0,.5-.224.5-.5Zm4,0c0-.276-.224-.5-.5-.5h-1c-.276,0-.5.224-.5.5s.224.5.5.5h1c.276,0,.5-.224.5-.5Zm4-4c0-.276-.224-.5-.5-.5h-1c-.276,0-.5.224-.5.5s.224.5.5.5h1c.276,0,.5-.224.5-.5Zm4,0c0-.276-.224-.5-.5-.5h-1c-.276,0-.5.224-.5.5s.224.5.5.5h1c.276,0,.5-.224.5-.5Zm-12-4c0-.276-.224-.5-.5-.5h-1c-.276,0-.5.224-.5.5s.224.5.5.5h1c.276,0,.5-.224.5-.5Zm4,0c0-.276-.224-.5-.5-.5h-1c-.276,0-.5.224-.5.5s.224.5.5.5h1c.276,0,.5-.224.5-.5Zm4,0c0-.276-.224-.5-.5-.5h-1c-.276,0-.5.224-.5.5s.224.5.5.5h1c.276,0,.5-.224.5-.5Zm4,0c0-.276-.224-.5-.5-.5h-1c-.276,0-.5.224-.5.5s.224.5.5.5h1c.276,0,.5-.224.5-.5Z"/>
</svg>
