<?xml version="1.0" encoding="UTF-8"?>
<svg xmlns="http://www.w3.org/2000/svg" id="Layer_1" data-name="Layer 1" viewBox="0 0 24 24">
  <path d="m22.466.91c-.996-.795-2.279-1.089-3.515-.806l-8.24,1.802L7.83.483C5.961-.44,4.31.177,3.685.483l-1.628.804C.807,1.904.03,3.153.03,4.547l-.03,17.253c0,.942.331,1.648.932,1.988.25.142.531.212.835.212.455,0,.959-.158,1.482-.472l2.322-1.458,3.152,1.527c1.122.405,2.336.507,3.506.294l7.957-1.317c2.227-.405,3.844-2.342,3.844-4.606V4.16c0-1.272-.57-2.457-1.564-3.25ZM2.727,22.676c-.536.319-1.009.406-1.303.242-.273-.155-.424-.552-.424-1.117l.03-17.253c0-1.011.563-1.917,1.47-2.364l1.627-.804c.226-.111.538-.236.913-.313v20.156l-2.313,1.452Zm3.313-1.489V1.003c.417.032.872.143,1.347.377l2.633,1.3-.057,20.225c-.292-.054-.578-.13-.852-.228l-3.071-1.49Zm16.99-3.219c0,1.78-1.271,3.304-3.016,3.621l-7.957,1.317c-.363.067-.73.097-1.095.094l.056-20.139,8.15-1.782c.943-.215,1.917.009,2.673.611.755.603,1.188,1.503,1.188,2.469v13.808Zm-2.039-13.406c.052.271-.126.534-.396.586,0,0-7.064,1.353-7.096,1.353-.234,0-.444-.166-.49-.405-.052-.271.126-.534.396-.586l7-1.344c.272-.052.533.125.586.396Zm0,8.05c.052.271-.126.533-.397.585,0,0-7.063,1.352-7.095,1.352-.234,0-.444-.166-.49-.406-.052-.271.126-.533.397-.585l7-1.343c.263-.049.532.125.585.397Zm0-4c.052.271-.126.533-.397.585,0,0-7.063,1.352-7.095,1.352-.234,0-.444-.166-.49-.406-.052-.271.126-.533.397-.585l7-1.343c.263-.05.532.125.585.397Zm-2,8.382c.052.271-.126.534-.396.586,0,0-5.064.969-5.096.969-.234,0-.444-.166-.49-.405-.052-.271.126-.533.396-.586l5-.96c.271-.049.533.125.586.396Z"/>
</svg>
