<?xml version="1.0" encoding="UTF-8"?>
<svg xmlns="http://www.w3.org/2000/svg" id="Layer_1" data-name="Layer 1" viewBox="0 0 24 24">
  <path d="m21.951,5.324C19.708,2.046,15.966,0,12,0S4.291,2.047,2.049,5.325c-.374.172-.723.401-1.023.701C.365,6.688.002,7.568.003,8.503l.007,7c.001,1.404.839,2.609,2.037,3.165,2.242,3.278,5.988,5.331,9.954,5.331s7.708-2.046,9.951-5.324c1.206-.553,2.049-1.765,2.049-3.176v-7c0-1.411-.844-2.622-2.049-3.176ZM12,1c3.295,0,6.384,1.486,8.465,4H3.535C5.616,2.486,8.705,1,12,1Zm0,22c-3.295,0-6.384-1.486-8.465-4h16.93c-2.081,2.514-5.17,4-8.465,4Zm11-7.5c0,1.378-1.121,2.5-2.5,2.5H3.51c-1.377,0-2.498-1.121-2.5-2.498l-.007-7c0-.668.259-1.296.73-1.769.473-.473,1.101-.733,1.77-.733h16.997c1.379,0,2.5,1.122,2.5,2.5v7Zm-4.513-7.5h-1.487c-.552,0-1,.449-1,1v6c0,.551.448,1,1,1h1.5c1.379,0,2.5-1.122,2.5-2.5v-2.988c0-1.385-1.127-2.512-2.513-2.512Zm1.513,5.5c0,.827-.673,1.5-1.5,1.5h-1.5v-6h1.487c.834,0,1.513.678,1.513,1.512v2.988Zm-15-5.5h-1c-.552,0-1,.449-1,1v6.5c0,.276.224.5.5.5s.5-.224.5-.5v-2.5h1c1.379,0,2.5-1.122,2.5-2.5s-1.121-2.5-2.5-2.5Zm0,4h-1v-3h1c.827,0,1.5.673,1.5,1.5s-.673,1.5-1.5,1.5Zm10-3.5v7c0,.276-.224.5-.5.5s-.5-.224-.5-.5v-7c0-.276.224-.5.5-.5s.5.224.5.5Zm-4.504-.5c-.737,0-1.126.689-1.207,1.088l-1.279,6.308c-.061.302.17.583.48.585h.018c.235.001.438-.163.485-.392l.323-1.589h2.376l.333,1.61c.047.226.247.389.48.39.312.002.546-.282.485-.585l-1.28-6.296c-.094-.459-.477-1.119-1.214-1.119Zm-.976,5l.757-3.715c.024-.118.085-.284.219-.284s.189.132.227.316l.763,3.683h-1.965Z"/>
</svg>
