<?xml version="1.0" encoding="UTF-8"?>
<svg xmlns="http://www.w3.org/2000/svg" id="Layer_1" data-name="Layer 1" viewBox="0 0 24 24">
  <path d="m23.998,11.396c-.019-3.947-2.585-7.491-6.255-8.628-1.506-.467-3.76-.768-5.743-.768s-4.237.301-5.743.768C2.587,3.905.021,7.45.002,11.396c0,.003-.002,5.104-.002,5.104,0,3.799,2.26,5.5,4.5,5.5.802,0,1.555-.312,2.121-.878.197-.199.559-.199.758,0,1.133,1.134,3.109,1.133,4.242,0,.197-.199.559-.199.758,0,1.133,1.134,3.109,1.133,4.242,0,.197-.199.559-.199.758,0,.566.567,1.319.879,2.121.879,2.24,0,4.5-1.701,4.5-5.5,0,0-.002-5.1-.002-5.104ZM6.554,3.723c.563-.174,1.257-.324,2.004-.443l3.593,5.717c.095.151.257.234.423.234.092,0,.184-.025.266-.077.234-.147.305-.456.157-.689l-3.35-5.329c.789-.086,1.597-.136,2.353-.136.005,0,.011,0,.016,0l4.205,6.691c.095.151.257.234.423.234.092,0,.184-.025.266-.077.234-.147.305-.456.157-.689l-3.845-6.118c.922.055,1.857.168,2.701.323.003.006.003.012.007.018l4.956,7.885c.095.151.257.234.423.234.092,0,.184-.025.266-.077.234-.147.305-.456.157-.689l-4.433-7.052c.048.014.102.027.148.041,3.271,1.014,5.554,4.187,5.554,7.717v.25c0,.669-.296,1.222-.832,1.554-.597.37-1.363.387-2.048.046-1.979-.983-4.974-2.291-8.12-2.291s-6.142,1.308-8.12,2.291c-.624.309-1.321.276-1.911-.09-.606-.376-.969-1.034-.969-1.76,0-.631.097-1.244.235-1.842l1.29,2.052c.095.151.257.234.423.234.092,0,.184-.025.266-.077.234-.147.305-.456.157-.689l-1.74-2.768c.317-.777.745-1.494,1.273-2.132l2.581,4.105c.095.151.257.234.423.234.092,0,.184-.025.267-.077.233-.147.304-.456.156-.689l-2.721-4.329c.508-.474,1.069-.89,1.69-1.215l3.266,5.198c.096.151.258.234.424.234.092,0,.184-.025.266-.077.234-.147.305-.456.158-.689l-3.18-5.06c.109-.039.209-.096.321-.13Zm12.946,17.277c-.534,0-1.036-.208-1.414-.586-.588-.587-1.584-.587-2.172,0-.756.756-2.072.756-2.828,0-.588-.587-1.584-.587-2.172,0-.756.756-2.072.756-2.828,0-.588-.587-1.584-.587-2.172,0-.378.378-.88.586-1.414.586-1.614,0-3.5-1.179-3.5-4.5v-2.808c.139.128.277.257.441.359.879.545,1.957.595,2.884.136,1.889-.938,4.739-2.187,7.675-2.187s5.786,1.248,7.675,2.187c.47.233.968.349,1.456.349.552,0,1.091-.147,1.564-.441.114-.071.204-.164.305-.248v2.653c0,3.321-1.886,4.5-3.5,4.5Z"/>
</svg>
