<?xml version="1.0" encoding="UTF-8"?>
<svg xmlns="http://www.w3.org/2000/svg" id="Layer_1" data-name="Layer 1" viewBox="0 0 24 24">
  <path d="m24,2v4.5c0,.276-.224.5-.5.5s-.5-.224-.5-.5V2c0-.086-.029-.164-.049-.244l-5.097,5.097c-.098.098-.226.146-.354.146s-.256-.049-.354-.146c-.195-.195-.195-.512,0-.707l5.097-5.097c-.08-.021-.157-.049-.244-.049h-4.5c-.276,0-.5-.224-.5-.5s.224-.5.5-.5h4.5c1.103,0,2,.897,2,2Zm-.49,10.077c-.27-.039-.51.199-.523.475-.289,5.858-5.114,10.448-10.986,10.448-6.065,0-11-4.935-11-11C1,6.091,5.621,1.264,11.521,1.011c.275-.013.49-.245.479-.521-.013-.275-.21-.493-.521-.479C5.042.287,0,5.554,0,12c0,6.617,5.383,12,12,12,6.405,0,11.67-5.007,11.984-11.399.014-.275-.198-.51-.475-.523Zm-12.01-6.577v1.5h-1.005c-1.376,0-2.495,1.119-2.495,2.495,0,1.108.744,2.095,1.81,2.398l4.106,1.174c.638.183,1.084.773,1.084,1.438,0,.824-.671,1.495-1.495,1.495h-3.01c-.824,0-1.495-.671-1.495-1.495v-.505c0-.276-.224-.5-.5-.5s-.5.224-.5.5v.505c0,1.376,1.119,2.495,2.495,2.495h1.005v1.5c0,.276.224.5.5.5s.5-.224.5-.5v-1.5h1.005c1.376,0,2.495-1.119,2.495-2.495,0-1.108-.744-2.095-1.81-2.398l-4.106-1.174c-.638-.183-1.084-.773-1.084-1.438,0-.824.671-1.495,1.495-1.495h3.01c.824,0,1.495.671,1.495,1.495v.505c0,.276.224.5.5.5s.5-.224.5-.5v-.505c0-1.376-1.119-2.495-2.495-2.495h-1.005v-1.5c0-.276-.224-.5-.5-.5s-.5.224-.5.5Z"/>
</svg>
