<?xml version="1.0" encoding="UTF-8"?>
<svg xmlns="http://www.w3.org/2000/svg" id="Layer_1" data-name="Layer 1" viewBox="0 0 24 24">
  <path d="m16.5,0H7.5C5.019,0,3,2.019,3,4.5v18.995c0,.188.106.361.274.446.168.085.37.068.522-.044l2.546-1.873,2.539,1.767c.171.119.399.119.571,0l2.548-1.771,2.548,1.772c.172.119.399.119.571,0l2.54-1.766,2.544,1.876c.088.064.192.098.297.098.077,0,.154-.018.226-.054.168-.085.274-.258.274-.446V4.5c0-2.481-2.019-4.5-4.5-4.5Zm3.5,22.51l-2.036-1.501c-.172-.127-.406-.132-.583-.008l-2.548,1.771-2.548-1.772c-.086-.06-.186-.09-.286-.09s-.2.03-.286.09l-2.548,1.771-2.547-1.772c-.176-.122-.41-.12-.582.008l-2.038,1.499V4.5c0-1.93,1.57-3.5,3.5-3.5h9c1.93,0,3.5,1.57,3.5,3.5v18.01ZM7,6v2.5h2c.276,0,.5.224.5.5s-.224.5-.5.5h-2v3c0,.276-.224.5-.5.5s-.5-.224-.5-.5v-6.5c0-.551.449-1,1-1h2c.276,0,.5.224.5.5s-.224.5-.5.5h-2Zm4.5,0v2.5h2c.276,0,.5.224.5.5s-.224.5-.5.5h-2v2.5h2c.276,0,.5.224.5.5s-.224.5-.5.5h-2c-.551,0-1-.449-1-1v-6c0-.551.449-1,1-1h2c.276,0,.5.224.5.5s-.224.5-.5.5h-2Zm4.5,0v2.5h2c.276,0,.5.224.5.5s-.224.5-.5.5h-2v2.5h2c.276,0,.5.224.5.5s-.224.5-.5.5h-2c-.551,0-1-.449-1-1v-6c0-.551.449-1,1-1h2c.276,0,.5.224.5.5s-.224.5-.5.5h-2Z"/>
</svg>
