<?xml version="1.0" encoding="UTF-8"?>
<svg xmlns="http://www.w3.org/2000/svg" id="Layer_1" data-name="Layer 1" viewBox="0 0 24 24">
  <path d="m22.801.703c-.273-.44-.747-.703-1.265-.703h-4.025c-1.342,0-2.545.748-3.139,1.951l-2.002,4.057c-.123-.005-.247-.008-.371-.008s-.248.003-.371.008l-2.002-4.057c-.594-1.203-1.796-1.951-3.139-1.951H2.463c-.518,0-.991.263-1.265.703-.274.439-.301.98-.071,1.445l3.675,7.455c-1.131,1.505-1.802,3.374-1.802,5.397,0,4.963,4.038,9,9,9s9-4.037,9-9c0-2.023-.671-3.892-1.802-5.397l3.675-7.455c.229-.465.202-1.006-.072-1.445ZM2.024,1.707c-.109-.221-.02-.406.023-.477.043-.069.17-.23.416-.23h4.025c.958,0,1.818.534,2.242,1.395l1.835,3.72c-1.973.317-3.734,1.278-5.059,2.659L2.024,1.707Zm9.976,21.293c-4.411,0-8-3.589-8-8,0-4.177,3.846-8,8-8s8,3.825,8,8c0,4.411-3.589,8-8,8ZM21.976,1.707l-3.483,7.067c-1.325-1.382-3.086-2.342-5.059-2.659l1.835-3.72c.424-.86,1.284-1.395,2.242-1.395h4.025c.246,0,.373.161.416.23.043.07.132.256.023.477Zm-8.976,9.293v8.5c0,.276-.224.5-.5.5s-.5-.224-.5-.5v-8.361l-1.639,1.708c-.191.197-.509.206-.707.014-.199-.19-.206-.508-.015-.707l1.742-1.814c.279-.277.682-.36,1.037-.211.354.146.583.489.583.872Z"/>
</svg>
