<?xml version="1.0" encoding="UTF-8"?>
<svg xmlns="http://www.w3.org/2000/svg" id="Layer_1" data-name="Layer 1" viewBox="0 0 24 24">
  <path d="m21.5,0c-1.379,0-2.5,1.121-2.5,2.5v11.55c0,1.068.416,2.073,1.172,2.829l.975.975c.098.098.226.146.354.146s.256-.049.354-.146l.975-.975c.756-.756,1.172-1.761,1.172-2.829V2.5c0-1.379-1.121-2.5-2.5-2.5Zm1.5,14.05c0,.802-.313,1.556-.879,2.122l-.621.621-.621-.621c-.566-.566-.879-1.32-.879-2.122V2.5c0-.827.673-1.5,1.5-1.5s1.5.673,1.5,1.5v11.55ZM3.146,5.21c-.195-.195-.195-.512,0-.707s.512-.195.707,0l1.347,1.346c.098.098.227.151.364.151s.268-.054.365-.151l2.525-2.525c.195-.195.512-.195.707,0s.195.512,0,.707l-2.525,2.525c-.287.287-.667.444-1.072.444h0c-.404,0-.785-.158-1.07-.444l-1.347-1.346Zm3.49,7.346c-.287.287-.667.444-1.072.444h0c-.404,0-.785-.158-1.07-.444l-1.347-1.346c-.195-.195-.195-.512,0-.707s.512-.195.707,0l1.347,1.346c.098.098.227.151.364.151s.268-.054.365-.151l2.525-2.525c.195-.195.512-.195.707,0s.195.512,0,.707l-2.525,2.525Zm11.363,6.444h-1V4c0-2.206-1.794-4-4-4H4C1.794,0,0,1.794,0,4v17c0,1.654,1.346,3,3,3h14c1.654,0,3-1.346,3-3,0-1.103-.897-2-2-2Zm-15,4c-1.103,0-2-.897-2-2V4c0-1.654,1.346-3,3-3h9c1.654,0,3,1.346,3,3v15H7c-1.103,0-2,.897-2,2s-.897,2-2,2Zm14,0H5.234c.476-.531.766-1.232.766-2,0-.552.448-1,1-1h11c.552,0,1,.448,1,1,0,1.103-.897,2-2,2Z"/>
</svg>
