<?xml version="1.0" encoding="UTF-8"?>
<svg xmlns="http://www.w3.org/2000/svg" id="Layer_1" data-name="Layer 1" viewBox="0 0 24 24">
  <path d="m14.854,18.854l-2.146,2.146,2.146,2.146c.195.195.195.512,0,.707-.098.098-.226.146-.354.146s-.256-.049-.354-.146l-2.146-2.146-2.146,2.146c-.098.098-.226.146-.354.146s-.256-.049-.354-.146c-.195-.195-.195-.512,0-.707l2.146-2.146-2.146-2.146c-.195-.195-.195-.512,0-.707s.512-.195.707,0l2.146,2.146,2.146-2.146c.195-.195.512-.195.707,0s.195.512,0,.707Zm5.854,2.146l2.146-2.146c.195-.195.195-.512,0-.707s-.512-.195-.707,0l-2.146,2.146-2.146-2.146c-.195-.195-.512-.195-.707,0s-.195.512,0,.707l2.146,2.146-2.146,2.146c-.195.195-.195.512,0,.707.098.098.226.146.354.146s.256-.049.354-.146l2.146-2.146,2.146,2.146c.098.098.226.146.354.146s.256-.049.354-.146c.195-.195.195-.512,0-.707l-2.146-2.146Zm-13.854-2.854c-.195-.195-.512-.195-.707,0l-2.146,2.146-2.146-2.146c-.195-.195-.512-.195-.707,0s-.195.512,0,.707l2.146,2.146-2.146,2.146c-.195.195-.195.512,0,.707.098.098.226.146.354.146s.256-.049.354-.146l2.146-2.146,2.146,2.146c.098.098.226.146.354.146s.256-.049.354-.146c.195-.195.195-.512,0-.707l-2.146-2.146,2.146-2.146c.195-.195.195-.512,0-.707Zm11.146-6.646c0,1.93-1.57,3.5-3.5,3.5h-5c-1.93,0-3.5-1.57-3.5-3.5v-3c0-1.58,1.059-2.903,2.5-3.337v-1.663c0-1.93,1.57-3.5,3.5-3.5s3.5,1.57,3.5,3.5v1.663c1.441.434,2.5,1.757,2.5,3.337v3Zm-8.5-6.5h5v-1.5c0-1.378-1.121-2.5-2.5-2.5s-2.5,1.122-2.5,2.5v1.5Zm7.5,3.5c0-1.378-1.121-2.5-2.5-2.5h-5c-1.379,0-2.5,1.122-2.5,2.5v3c0,1.378,1.121,2.5,2.5,2.5h5c1.379,0,2.5-1.122,2.5-2.5v-3Zm-5,.5c-.552,0-1,.448-1,1s.448,1,1,1,1-.448,1-1-.448-1-1-1Z"/>
</svg>
