<?xml version="1.0" encoding="UTF-8"?>
<svg xmlns="http://www.w3.org/2000/svg" id="Layer_1" data-name="Layer 1" viewBox="0 0 24 24">
  <path d="m13.5,9v-3c0-1.103.897-2,2-2s2,.897,2,2c0,.276-.224.5-.5.5s-.5-.224-.5-.5c0-.551-.448-1-1-1s-1,.449-1,1v3c0,.551.448,1,1,1s1-.449,1-1v-.5h-1c-.276,0-.5-.224-.5-.5s.224-.5.5-.5h1.5c.276,0,.5.224.5.5v1c0,1.103-.897,2-2,2s-2-.897-2-2Zm-1.098-5h-.005c-.229,0-.428.156-.483.378l-1.346,5.43-1.401-5.435c-.057-.219-.255-.373-.482-.373-.327,0-.565.309-.481.625l1.511,5.741c.054.24.224.458.462.579.236.122.518.132.771.024.261-.109.451-.345.521-.645l1.415-5.708c.078-.314-.16-.617-.483-.617Zm-6.271,3.033c-.264-.1-1.012-.396-1.289-.565-.256-.182-.375-.447-.336-.745.041-.314.248-.569.539-.666.451-.149.912-.003,1.447.46.208.181.523.158.705-.051.181-.208.158-.524-.051-.705-.805-.698-1.615-.917-2.414-.654-.66.218-1.127.787-1.219,1.485-.087.663.193,1.294.787,1.713.427.265,1.372.624,1.467.659.853.345.822.967.793,1.149-.084.514-.538.887-1.08.887-.427,0-1.122-.312-1.458-.653-.193-.198-.513-.199-.707-.006-.197.194-.199.511-.006.708.461.467,1.398.951,2.171.951,1.035,0,1.904-.726,2.066-1.727.117-.722-.18-1.741-1.416-2.241Zm17.868-2.533v9.515c0,1.736-.677,3.369-1.904,4.597l-3.484,3.484c-1.228,1.228-2.86,1.904-4.597,1.904H4.5c-2.481,0-4.5-2.019-4.5-4.5V4.5C0,2.019,2.019,0,4.5,0h15c2.481,0,4.5,2.019,4.5,4.5Zm-9.985,18.5c.335,0,.663-.038.985-.096v-5.404c0-1.379,1.121-2.5,2.5-2.5h5.404c.058-.323.096-.651.096-.985V4.5c0-1.93-1.57-3.5-3.5-3.5H4.5c-1.93,0-3.5,1.57-3.5,3.5v15c0,1.93,1.57,3.5,3.5,3.5h9.515Zm8.606-7h-5.12c-.827,0-1.5.673-1.5,1.5v5.121c.704-.273,1.354-.682,1.904-1.232l3.484-3.484c.55-.55.959-1.2,1.232-1.904Z"/>
</svg>
