<?xml version="1.0" encoding="UTF-8"?>
<svg xmlns="http://www.w3.org/2000/svg" id="Layer_1" data-name="Layer 1" viewBox="0 0 24 24">
  <path d="m18.5,10c1.292,0,2.423-.838,2.832-2.034,1.497-.167,2.668-1.426,2.668-2.966,0-.866-.437-3.395-.799-4.352-.144-.38-.498-.634-.902-.648-.399.011-.784.219-.955.592-.121.263-.229.584-.344.932-.115-.348-.223-.669-.344-.931-.171-.374-.536-.58-.955-.593-.404.015-.759.269-.902.647-.362.957-.799,3.486-.799,4.353,0,1.404.973,2.576,2.277,2.902-.334.656-1.012,1.098-1.777,1.098h-2.5v-2.275c0-.645-.248-1.717-.618-2.802.362-.15.618-.506.618-.923,0-.552-.448-1-1-1-.134,0-.261.028-.378.076-.235-.472-.483-.893-.731-1.202-.891-1.111-2.758-1.112-3.646,0-.253.315-.52.754-.778,1.256-.141-.076-.295-.13-.466-.13-.552,0-1,.448-1,1,0,.439.287.801.681.936-.399,1.075-.681,2.141-.681,2.789v2.275h-2.5c-.765,0-1.443-.442-1.777-1.098,1.305-.326,2.277-1.498,2.277-2.902,0-.866-.437-3.395-.799-4.352-.144-.38-.498-.634-.902-.648-.402.011-.784.219-.955.592-.121.263-.229.584-.344.932-.115-.348-.223-.669-.344-.931-.171-.374-.539-.58-.955-.593-.404.015-.759.269-.902.647-.362.957-.799,3.486-.799,4.353,0,1.541,1.172,2.799,2.668,2.966.409,1.196,1.54,2.034,2.832,2.034h2.5v2h-.843c-1.202,0-2.333.468-3.183,1.318l-.828.828c-.195.195-.195.512,0,.707s.512.195.707,0l.828-.828c.661-.661,1.54-1.025,2.476-1.025h.843v2h-.258c-.921,0-1.823.374-2.475,1.025l-1.121,1.121c-.195.195-.195.512,0,.707s.512.195.707,0l1.121-1.121c.466-.466,1.109-.732,1.768-.732h.258v2.858l-1.514,1.667c-.676.676-.643,1.583.086,2.312,1.097,1.098,3.506,1.874,5.428.319.776.628,1.632.876,2.448.876,1.205,0,2.325-.541,2.979-1.195.729-.729.762-1.636.103-2.294l-1.53-1.685v-2.858h.258c.658,0,1.302.267,1.768.732l1.121,1.121c.098.098.226.146.354.146s.256-.049.354-.146c.195-.195.195-.512,0-.707l-1.121-1.121c-.651-.651-1.554-1.025-2.475-1.025h-.258v-2h.843c.936,0,1.814.364,2.476,1.025l.828.828c.098.098.226.146.354.146s.256-.049.354-.146c.195-.195.195-.512,0-.707l-.828-.828c-.85-.851-1.98-1.318-3.183-1.318h-.843v-2h2.5Zm.5-5c0-.765.417-3.162.748-3.99.108.235.203.525.306.838.135.406.287.868.494,1.308.164.35.74.35.904,0,.207-.439.359-.901.494-1.308.103-.312.197-.603.316-.852l.003.006h0c.317.836.734,3.233.734,3.998,0,1.103-.897,2-2,2s-2-.897-2-2ZM1,5c0-.765.417-3.162.748-3.99.108.235.203.525.306.838.135.406.287.868.494,1.308.164.35.74.35.904,0,.207-.439.359-.901.494-1.308.103-.312.197-.603.316-.852l.003.006h0c.317.836.734,3.233.734,3.998,0,1.103-.897,2-2,2s-2-.897-2-2Zm8,1.725c0-1.066,1.086-4.055,2.024-5.226.509-.636,1.577-.634,2.086,0,.312.39,1.89,3.512,1.89,5.226v2.275h-6v-2.275Zm7.721,15.405c-.685.685-2.731,1.634-4.367,0-.098-.098-.226-.146-.354-.146s-.256.049-.354.146c-1.635,1.636-3.683.686-4.367,0-.491-.492-.207-.776-.069-.915l2.012-2.215h5.557l2.028,2.232c.121.121.405.405-.086.897Zm-1.721-4.13h-6v-2h6v2Zm0-3h-6v-2h6v2Zm0-3h-6v-2h6v2Z"/>
</svg>
