<?xml version="1.0" encoding="UTF-8"?>
<svg xmlns="http://www.w3.org/2000/svg" id="Layer_1" data-name="Layer 1" viewBox="0 0 24 24">
  <path d="m16,10.5v9c0,2.481-2.019,4.5-4.5,4.5h-7c-2.481,0-4.5-2.019-4.5-4.5V4.5C0,2.019,2.019,0,4.5,0c.276,0,.5.224.5.5s-.224.5-.5.5c-1.93,0-3.5,1.57-3.5,3.5v15c0,1.93,1.57,3.5,3.5,3.5h7c1.93,0,3.5-1.57,3.5-3.5v-9c0-.276.224-.5.5-.5s.5.224.5.5Zm-11.5-.5h-1c-.276,0-.5.224-.5.5s.224.5.5.5h1c.276,0,.5-.224.5-.5s-.224-.5-.5-.5Zm0,4h-1c-.276,0-.5.224-.5.5s.224.5.5.5h1c.276,0,.5-.224.5-.5s-.224-.5-.5-.5Zm0-8h-1c-.276,0-.5.224-.5.5s.224.5.5.5h1c.276,0,.5-.224.5-.5s-.224-.5-.5-.5Zm3,9h1c.276,0,.5-.224.5-.5s-.224-.5-.5-.5h-1c-.276,0-.5.224-.5.5s.224.5.5.5Zm-3,3h-1c-.276,0-.5.224-.5.5s.224.5.5.5h1c.276,0,.5-.224.5-.5s-.224-.5-.5-.5Zm3,1h1c.276,0,.5-.224.5-.5s-.224-.5-.5-.5h-1c-.276,0-.5.224-.5.5s.224.5.5.5Zm5-5h-1c-.276,0-.5.224-.5.5s.224.5.5.5h1c.276,0,.5-.224.5-.5s-.224-.5-.5-.5Zm-5-3h1c.276,0,.5-.224.5-.5s-.224-.5-.5-.5h-1c-.276,0-.5.224-.5.5s.224.5.5.5Zm3.5-.5c0,.276.224.5.5.5h1c.276,0,.5-.224.5-.5s-.224-.5-.5-.5h-1c-.276,0-.5.224-.5.5Zm1.5,7.5h-1c-.276,0-.5.224-.5.5s.224.5.5.5h1c.276,0,.5-.224.5-.5s-.224-.5-.5-.5ZM24,2.5v3c0,1.379-1.122,2.5-2.5,2.5s-2.5-1.121-2.5-2.5v-3c0-1.379,1.122-2.5,2.5-2.5s2.5,1.121,2.5,2.5Zm-1,0c0-.827-.673-1.5-1.5-1.5s-1.5.673-1.5,1.5v3c0,.827.673,1.5,1.5,1.5s1.5-.673,1.5-1.5v-3Zm-7.5-1.5c.827,0,1.5.673,1.5,1.5,0,.276.224.5.5.5s.5-.224.5-.5c0-1.379-1.122-2.5-2.5-2.5s-2.5,1.121-2.5,2.5v3c0,1.379,1.122,2.5,2.5,2.5s2.5-1.121,2.5-2.5c0-.827-.673-1.5-1.5-1.5h-.5c-.276,0-.5.224-.5.5s.224.5.5.5h.5c.276,0,.5.225.5.5,0,.827-.673,1.5-1.5,1.5s-1.5-.673-1.5-1.5v-3c0-.827.673-1.5,1.5-1.5Zm-8,7c.276,0,.5-.224.5-.5V1.802l2.488,5.729c.153.345.521.527.886.452.369-.078.626-.396.626-.772V.5c0-.276-.224-.5-.5-.5s-.5.224-.5.5v5.698L8.512.47c-.153-.345-.52-.53-.886-.452-.369.078-.626.396-.626.772v6.71c0,.276.224.5.5.5Z"/>
</svg>
