<?xml version="1.0" encoding="UTF-8"?>
<svg xmlns="http://www.w3.org/2000/svg" id="Layer_1" data-name="Layer 1" viewBox="0 0 24 24">
  <path d="m23.929,10.243c-.142-.237-.449-.312-.687-.171l-13.219,7.943c-.845.01-4.423.09-5.541.704-1.36.748-1.858,2.463-1.11,3.823.362.659.96,1.138,1.683,1.347.26.076.525.113.789.113.468,0,.931-.118,1.353-.35,1.133-.623,2.867-3.854,3.348-4.782l13.213-7.94c.236-.143.313-.45.171-.686ZM6.714,22.775c-.425.233-.915.287-1.381.152s-.851-.443-1.084-.869c-.234-.424-.288-.915-.153-1.38.136-.465.444-.851.869-1.084.619-.34,2.739-.513,4.36-.564-.819,1.502-2,3.41-2.611,3.746Zm1.19-6.922c2.313-.486,4.219-2.291,4.854-4.598,1.111-4.042-1.756-6.913-4.061-9.22-.22-.22-.435-.435-.64-.645-.326-.334-.794-.478-1.253-.379-.457.097-.827.417-.989.854-.276.742-.405,1.479-.52,2.129-.266,1.516-.425,2.006-1.292,2.007-.1-.038-.271-.291-.519-1.285-.092-.364-.39-.64-.758-.703-.375-.061-.729.095-.937.409-.862,1.31-1.791,3.458-1.791,5.078,0,1.967.877,3.808,2.406,5.049,1.168.948,2.612,1.449,4.105,1.449.462,0,.929-.048,1.393-.146Zm-4.868-2.08c-1.294-1.05-2.036-2.608-2.036-4.272,0-1.293.784-3.2,1.549-4.407.204.807.528,1.907,1.451,1.907,1.784,0,2.037-1.44,2.281-2.833.111-.637.228-1.297.472-1.954.062-.166.202-.212.259-.224.058-.012.205-.028.331.1.207.213.425.43.647.653,2.231,2.234,4.761,4.766,3.803,8.248-.536,1.95-2.143,3.475-4.094,3.885-1.672.349-3.37-.051-4.663-1.102Zm5.355-.649c.843-.983.745-2.511-.222-3.479l-.765-.765c-.504-.505-1.327-.504-1.831,0l-.766.765c-.967.966-1.064,2.495-.222,3.479.478.558,1.171.877,1.902.877s1.425-.32,1.902-.877Zm-.76-.65c-.574.671-1.711.671-2.285,0-.497-.58-.421-1.531.169-2.121l.766-.765c.058-.058.133-.086.209-.086.075,0,.15.029.208.086l.765.765c.59.59.666,1.542.169,2.121Z"/>
</svg>
