<?xml version="1.0" encoding="UTF-8"?>
<svg xmlns="http://www.w3.org/2000/svg" id="Layer_1" data-name="Layer 1" viewBox="0 0 24 24">
  <path d="m22,19.05v-1.55c0-1.93-1.57-3.5-3.5-3.5h-1c-.276,0-.5.224-.5.5s.224.5.5.5h1c1.379,0,2.5,1.121,2.5,2.5v1.5H3v-1.5c0-1.379,1.121-2.5,2.5-2.5h1c.276,0,.5-.224.5-.5s-.224-.5-.5-.5h-1c-1.93,0-3.5,1.57-3.5,3.5v1.55c-1.14.232-2,1.242-2,2.45,0,1.379,1.121,2.5,2.5,2.5h19c1.379,0,2.5-1.121,2.5-2.5,0-1.208-.86-2.218-2-2.45Zm-.5,3.95H2.5c-.827,0-1.5-.673-1.5-1.5s.673-1.5,1.5-1.5h4.5v1.5c0,.276.224.5.5.5s.5-.224.5-.5v-1.5h2v1.5c0,.276.224.5.5.5s.5-.224.5-.5v-1.5h2v1.5c0,.276.224.5.5.5s.5-.224.5-.5v-1.5h2v1.5c0,.276.224.5.5.5s.5-.224.5-.5v-1.5h4.5c.827,0,1.5.673,1.5,1.5s-.673,1.5-1.5,1.5Zm-9.5-9c3.309,0,6-2.691,6-6,0-2.785-2.576-5.081-4.457-6.758-.444-.396-.855-.762-1.189-1.096-.099-.098-.239-.154-.371-.146-.139.005-.27.067-.36.173-.871,1.006-1.142,2.262-1.358,3.271-.256,1.187-.395,1.557-.764,1.557-.228,0-.484-.84-.5-1.635-.004-.201-.129-.382-.317-.455-.188-.074-.4-.028-.542.117-.977,1.008-2.141,2.688-2.141,4.973,0,3.309,2.691,6,6,6Zm1.414-1.586c-.778.779-2.049.779-2.829,0-.779-.78-.779-2.05,0-2.829l1.415-1.415,1.414,1.415c.378.378.586.881.586,1.415s-.208,1.036-.586,1.414Zm-5.258-7.854c.176.697.55,1.439,1.344,1.439,1.236,0,1.493-1.193,1.741-2.347.17-.786.357-1.66.822-2.399.25.232.525.478.814.735,1.836,1.637,4.122,3.674,4.122,6.011,0,1.734-.888,3.265-2.233,4.162.153-.363.233-.756.233-1.162,0-.802-.313-1.556-.879-2.122l-1.768-1.769c-.094-.094-.221-.146-.354-.146s-.26.053-.354.146l-1.769,1.769c-.886.886-1.1,2.195-.642,3.286-1.347-.897-2.236-2.429-2.236-4.164,0-1.421.537-2.577,1.156-3.439Z"/>
</svg>
