<?xml version="1.0" encoding="UTF-8"?>
<svg xmlns="http://www.w3.org/2000/svg" id="Layer_1" data-name="Layer 1" viewBox="0 0 24 24">
  <path d="m23.552,8.142L15.858.448C15.562.152,15.157-.02,14.731,0c-.418.012-.801.189-1.076.499-1.663,1.865-2.655,4.346-2.655,6.634v1.079L.992,18.221c-.64.64-.992,1.489-.992,2.395s.352,1.754.992,2.394c.66.66,1.527.989,2.394.989s1.734-.329,2.394-.989l10.008-10.009h1.08c2.288,0,4.767-.992,6.633-2.655.31-.275.488-.658.5-1.076.012-.42-.151-.83-.448-1.127ZM5.072,22.302c-.93.93-2.443.93-3.373,0-.451-.45-.699-1.05-.699-1.687s.248-1.237.699-1.688l9.797-9.797,3.374,3.373-9.797,9.798Zm17.763-12.703c-1.688,1.504-3.918,2.401-5.968,2.401h-1.088l-3.779-3.778v-1.088c0-2.05.898-4.281,2.402-5.969.091-.102.219-.161.359-.165.133,0,.288.053.391.155l7.693,7.693c.103.103.159.245.155.391-.004.141-.062.268-.165.359Zm-11.981,4.255l-1.5,1.5c-.098.098-.226.146-.354.146s-.256-.049-.354-.146c-.195-.195-.195-.512,0-.707l1.5-1.5c.195-.195.512-.195.707,0s.195.512,0,.707Z"/>
</svg>
