<?xml version="1.0" encoding="UTF-8"?>
<svg xmlns="http://www.w3.org/2000/svg" id="Layer_1" data-name="Layer 1" viewBox="0 0 24 24">
  <path d="m19,3.461c.003-.191.137-.356.323-.399l1.418-.328.354-1.418c.093-.371.716-.371.809,0l.356,1.424,1.424.356c.186.046.316.213.316.404s-.13.358-.316.404l-1.424.356-.356,1.424c-.046.186-.213.316-.404.316s-.358-.13-.404-.316l-.357-1.429-1.43-.385c-.185-.05-.312-.218-.308-.409Zm-12.308,3.37l1.49-1.953-1.408-2.166c-.186-.295-.168-.67.039-.94.203-.268.556-.386.879-.289l2.477.792,1.491-1.953c.21-.275.571-.391.898-.284.323.1.554.395.571.731l.079,2.507,2.428.844c.328.113.549.422.55.77s-.217.659-.543.775l-1.912.68,10.048,6.739c.229.153.291.464.137.693-.096.144-.254.222-.416.222-.096,0-.192-.027-.278-.085l-10.15-6.807-.132,2.124c-.01.161-.067.315-.166.444-.108.143-.256.244-.429.292-.073.021-.147.031-.222.031-.262,0-.515-.126-.671-.348l-1.495-2.109-2.432.584c-.341.073-.691-.07-.875-.358-.184-.289-.167-.666.041-.937Zm1.104.202l2.258-.542c.214-.065.43.063.524.197l1.396,1.97.154-2.481c.036-.33.32-.436.332-.44l2.362-.84-2.267-.788c-.196-.068-.329-.25-.335-.457l-.074-2.319-1.396,1.829c-.128.168-.349.237-.55.173l-2.309-.738,1.321,2.031c.115.177.107.408-.021.576l-1.396,1.829Zm-7.487-.162l1.43.385.357,1.429c.046.186.213.316.404.316s.358-.13.404-.316l.356-1.424,1.424-.356c.186-.046.316-.213.316-.404s-.13-.358-.316-.404l-1.424-.356-.356-1.424c-.093-.371-.716-.371-.809,0l-.354,1.418-1.418.328C.137,6.105.003,6.27,0,6.461c-.003.191.124.36.308.409Zm16.692,13.13h6.5c.276,0,.5-.224.5-.5s-.224-.5-.5-.5h-6.5c-3.944,0-4.824,2.831-5,4-.176-1.169-1.056-4-5-4H.5c-.276,0-.5.224-.5.5s.224.5.5.5h6.5c2.584,0,3.495,1.448,3.819,2.484-.708-.785-1.882-1.484-3.819-1.484H.5c-.276,0-.5.224-.5.5s.224.5.5.5h6.5c1.263,0,2.242.337,2.928,1H.5c-.276,0-.5.224-.5.5s.224.5.5.5h23c.276,0,.5-.224.5-.5s-.224-.5-.5-.5h-9.428c.685-.663,1.664-1,2.928-1h6.5c.276,0,.5-.224.5-.5s-.224-.5-.5-.5h-6.5c-1.937,0-3.11.699-3.819,1.484.324-1.035,1.235-2.484,3.819-2.484Zm-4.74-6.26l-.356-1.424c-.093-.371-.716-.371-.809,0l-.354,1.418-1.418.328c-.186.043-.32.208-.323.399-.003.191.124.36.308.409l1.43.385.357,1.429c.046.186.213.316.404.316s.358-.13.404-.316l.356-1.424,1.424-.356c.186-.046.316-.213.316-.404s-.13-.358-.316-.404l-1.424-.356Z"/>
</svg>
