<?xml version="1.0" encoding="UTF-8"?>
<svg xmlns="http://www.w3.org/2000/svg" id="Layer_1" data-name="Layer 1" viewBox="0 0 24 24">
  <path d="m23.999,4.5s0,.003,0,.005c0,.503-.193,1.006-.576,1.389l-3.046,2.991c-.098.095-.225.143-.351.143-.13,0-.259-.05-.356-.15-.193-.197-.19-.514.006-.707l3.043-2.987c.056-.056.104-.118.143-.183H1.137c.04.066.089.129.146.187l3.04,2.984c.196.193.199.51.006.707-.098.1-.227.15-.356.15-.126,0-.253-.048-.351-.143L.579,5.897C.194,5.512.002,5.008,0,4.504c0-.001,0-.003,0-.004,0-.002,0-.003,0-.005,0-.503.193-1.006.576-1.389L3.622.116c.199-.193.516-.189.707.007.193.197.19.514-.006.707L1.28,3.817c-.056.056-.104.118-.143.183h21.725c-.04-.066-.089-.129-.146-.187l-3.04-2.984c-.196-.193-.199-.51-.006-.707.192-.196.509-.2.707-.007l3.043,2.987c.385.385.578.889.579,1.393,0,.001,0,.003,0,.004Zm-2.408,13.815c.608,1.297.514,2.715-.216,3.858-.73,1.144-1.977,1.826-3.333,1.826H5.958c-1.356,0-2.603-.683-3.333-1.826-.729-1.144-.824-2.562-.253-3.793.011-.022,6.077-9.158,6.077-9.158.896-1.429,2.159-2.223,3.549-2.223,1.445,0,2.711.797,3.563,2.246l6.029,9.07Zm-5.877,4.685l-2.62-5.277c-.207-.447-.614-.708-1.095-.708s-.888.261-1.09.695l-2.623,5.29h7.427Zm5.008-4.197l-6.007-9.026c-.69-1.17-1.625-1.776-2.717-1.776-1.324,0-2.204.96-2.709,1.765l-6.025,9.071c-.41.911-.334,1.955.204,2.8.546.854,1.477,1.364,2.49,1.364h1.211l2.839-5.723c.359-.774,1.124-1.263,1.991-1.263s1.632.488,1.996,1.275l2.836,5.71h1.211c1.014,0,1.944-.51,2.49-1.364.545-.854.616-1.914.189-2.833Z"/>
</svg>
