<?xml version="1.0" encoding="UTF-8"?>
<svg xmlns="http://www.w3.org/2000/svg" id="Layer_1" data-name="Layer 1" viewBox="0 0 24 24">
  <path d="m17.5,0H6.5C4.019,0,2,2.019,2,4.5v16c0,1.93,1.57,3.5,3.5,3.5h12c2.481,0,4.5-2.019,4.5-4.5V4.5c0-2.481-2.019-4.5-4.5-4.5Zm3.5,11h-3.5c-.827,0-1.5-.673-1.5-1.5s.673-1.5,1.5-1.5h3.5v3Zm0-6.5v2.5h-3.5c-1.379,0-2.5,1.121-2.5,2.5s1.121,2.5,2.5,2.5h3.5v5H7V1h10.5c1.93,0,3.5,1.57,3.5,3.5Zm-18,0c0-1.76,1.306-3.221,3-3.464v15.964h-.5c-.978,0-1.864.404-2.5,1.053V4.5Zm14.5,18.5H5.5c-1.378,0-2.5-1.121-2.5-2.5s1.122-2.5,2.5-2.5h15.5v1.5c0,1.93-1.57,3.5-3.5,3.5Z"/>
</svg>
