<?xml version="1.0" encoding="UTF-8"?>
<svg xmlns="http://www.w3.org/2000/svg" id="Layer_1" data-name="Layer 1" viewBox="0 0 24 24">
  <path d="m23.5,9h-2.329c-.1-.574-.17-1.221-.17-2.013,0-2.5,2.651-4.031,2.891-4.519.364-.741-.203-1.441-.953-1.441-.121,0-.246.018-.374.057-3.595,1.105-7.446,3.521-8.922,7.916h-3.474c-.093-.5-.168-1.005-.168-1.513,0-4.5,4.333-5.464,4.841-6.065.524-.619.023-1.398-.741-1.398-.06,0-.122.005-.185.015C9.009.826,4.059,3.037,2.51,9.002c-.003,0-.006-.002-.01-.002H.5c-.276,0-.5.224-.5.5s.224.5.5.5h1.776c-.176.963-.27,2.014-.27,3.162,0,2.299,1.499,4.411,3.771,4.768.245.038.487.057.725.057,2.482,0,4.5-2.018,4.5-4.5,0-.443-.097-.997-.23-1.763-.093-.535-.247-1.12-.392-1.724h2.98c-.218.919-.349,1.907-.349,2.988,0,2.458,1.697,4.803,4.148,4.986.115.009.23.013.343.013,2.482,0,4.5-2.018,4.5-4.5,0-1.441-.331-2.376-.612-3.487h2.111c.276,0,.5-.224.5-.5s-.224-.5-.5-.5Zm-16.999,7.987c-.188,0-.38-.015-.57-.045-1.695-.266-2.926-1.856-2.926-3.78C3.006,6.439,6.372,2.508,13.291,1.165c-1.576.818-4.29,2.454-4.29,6.322,0,1.114.268,2.2.504,3.158.11.447.214.869.281,1.251.125.717.216,1.234.216,1.591,0,1.93-1.57,3.5-3.5,3.5Zm11,0c-.089,0-.179-.003-.269-.01-2.017-.15-3.223-2.146-3.223-3.989,0-7.159,5.544-9.932,8.849-10.948.028-.009.055-.013.08-.013.006,0,.011,0,.017,0-.078.073-.185.168-.277.25-.936.833-2.677,2.383-2.677,4.709,0,1.727.303,2.855.571,3.849.23.855.429,1.594.429,2.651,0,1.93-1.57,3.5-3.5,3.5Zm-7.386,3.013c0,.552-.448,1-1,1s-1-.448-1-1,.448-1,1-1,1,.448,1,1Zm-6,0c0,.552-.448,1-1,1s-1-.448-1-1,.448-1,1-1,1,.448,1,1Zm12,0c0,.552-.448,1-1,1s-1-.448-1-1,.448-1,1-1,1,.448,1,1Zm6,0c0,.552-.448,1-1,1s-1-.448-1-1,.448-1,1-1,1,.448,1,1Zm-15,3c0,.552-.448,1-1,1s-1-.448-1-1,.448-1,1-1,1,.448,1,1Zm6,0c0,.552-.448,1-1,1s-1-.448-1-1,.448-1,1-1,1,.448,1,1Zm6,0c0,.552-.448,1-1,1s-1-.448-1-1,.448-1,1-1,1,.448,1,1Z"/>
</svg>
