<?xml version="1.0" encoding="UTF-8"?>
<svg xmlns="http://www.w3.org/2000/svg" id="Layer_1" data-name="Layer 1" viewBox="0 0 24 24">
  <path d="m23.427,18.1l-3.443-3.333c-.003-.225-.029-.448-.079-.669-.119-.525.122-1.087.601-1.396.449-.29.814-.685,1.084-1.172.255-.459.388-.989.386-1.528.002-.543-.131-1.072-.386-1.532-.27-.487-.635-.882-1.085-1.172-.478-.309-.719-.87-.6-1.396.122-.534.104-1.083-.055-1.63-.295-1.029-1.117-1.852-2.146-2.146-.549-.158-1.098-.176-1.629-.055-.525.118-1.087-.121-1.396-.6-.289-.449-.684-.813-1.172-1.084-.936-.52-2.1-.52-3.036,0-.488.271-.882.635-1.172,1.084-.308.479-.872.718-1.396.6-.534-.122-1.082-.103-1.628.055-1.029.295-1.852,1.117-2.147,2.146-.157.549-.176,1.097-.055,1.63.12.526-.121,1.087-.6,1.396-.449.29-.814.685-1.083,1.172-.255.459-.388.989-.386,1.528-.002.543.131,1.073.386,1.532.27.487.634.882,1.084,1.172.479.309.72.869.6,1.396-.052.227-.077.457-.078.689l-3.42,3.311c-.53.512-.71,1.262-.47,1.958s.845,1.175,1.577,1.25l1.134.118.134.967c.098.703.577,1.283,1.249,1.513.2.068.405.102.608.102.48,0,.947-.186,1.303-.533l4.129-4.001c.075.049.152.096.232.141.468.26.994.39,1.519.39s1.05-.13,1.518-.39c.085-.047.167-.097.246-.15l4.136,4.008c.356.349.825.535,1.305.535.203,0,.408-.033.608-.102.673-.229,1.151-.81,1.249-1.514l.134-.966,1.134-.118c.732-.075,1.337-.554,1.577-1.25s.061-1.446-.469-1.957Zm-18.015,4.656c-.24.235-.573.31-.891.202-.318-.108-.535-.372-.582-.704l-.188-1.354c-.032-.229-.215-.405-.443-.429l-1.524-.158c-.346-.036-.621-.253-.734-.582-.113-.329-.032-.67.22-.912l2.94-2.847c.347.914,1.119,1.631,2.065,1.902.547.157,1.096.176,1.628.055.529-.122,1.088.121,1.396.6.061.094.126.184.196.271l-4.082,3.957Zm5.543-4.019c-.342-.189-.617-.441-.815-.75-.442-.687-1.193-1.089-1.967-1.089-.164,0-.328.019-.491.056-.368.082-.748.068-1.132-.041-.69-.198-1.264-.771-1.461-1.461-.11-.385-.124-.766-.041-1.132.212-.936-.203-1.923-1.033-2.458-.31-.2-.562-.475-.751-.816-.172-.311-.262-.672-.261-1.048-.001-.372.088-.733.261-1.044.189-.342.442-.616.751-.816.831-.535,1.246-1.522,1.033-2.457-.083-.367-.069-.748.041-1.133.198-.689.771-1.263,1.461-1.461.384-.109.765-.123,1.131-.041.935.213,1.922-.202,2.458-1.033.199-.309.473-.561.816-.75.628-.35,1.439-.35,2.067,0,.343.189.616.441.815.751.536.83,1.521,1.246,2.458,1.032.366-.082.746-.068,1.132.041.689.198,1.263.771,1.461,1.462.11.384.124.765.041,1.131-.213.935.202,1.923,1.032,2.458.311.2.563.475.752.816.172.311.263.672.261,1.048.002.372-.089.733-.261,1.044-.188.342-.441.616-.751.816-.831.535-1.246,1.523-1.033,2.458.083.366.069.747-.041,1.132-.198.689-.771,1.263-1.461,1.461-.386.11-.768.123-1.131.041-.934-.213-1.923.202-2.46,1.033-.198.309-.472.561-.814.75-.629.35-1.439.35-2.067,0Zm11.995.993c-.113.329-.388.546-.734.582l-1.524.158c-.229.023-.412.2-.443.429l-.188,1.354c-.047.333-.264.597-.582.705-.317.107-.651.032-.893-.204l-4.093-3.967c.066-.083.128-.168.185-.258.309-.479.875-.719,1.397-.601.533.121,1.081.102,1.628-.055.952-.273,1.727-.997,2.071-1.918l2.957,2.863c.251.242.332.583.219.912Zm-10.45-4.73h-3c-.276,0-.5-.224-.5-.5s.224-.5.5-.5h3c1.103,0,2-.897,2-2s-.897-2-2-2h-1c-.276,0-.5-.224-.5-.5s.224-.5.5-.5h.782c.827,0,1.5-.673,1.5-1.5s-.673-1.5-1.5-1.5h-2.782c-.276,0-.5-.224-.5-.5s.224-.5.5-.5h2.782c1.379,0,2.5,1.121,2.5,2.5,0,.743-.326,1.411-.842,1.869.929.51,1.56,1.498,1.56,2.631,0,1.654-1.346,3-3,3Z"/>
</svg>
