<?xml version="1.0" encoding="UTF-8"?>
<svg xmlns="http://www.w3.org/2000/svg" id="Layer_1" data-name="Layer 1" viewBox="0 0 24 24">
  <path d="m16.001,3.5V.5c0-.276.224-.5.5-.5s.5.224.5.5v3c0,.276-.224.5-.5.5s-.5-.224-.5-.5Zm-4,.5c.276,0,.5-.224.5-.5V.5c0-.276-.224-.5-.5-.5s-.5.224-.5.5v3c0,.276.224.5.5.5Zm11.932,5.192c-.702,3.063-3.717,6.483-6.407,8.268l2.437,5.848c.105.255-.015.548-.27.654-.062.026-.128.039-.192.039-.195,0-.382-.116-.462-.308l-.705-1.692h-7.832c-.276,0-.5-.224-.5-.5s.224-.5.5-.5h7.415l-1.261-3.026c-.05.016-.102.026-.156.026H7.334l-.562,1.348c.735.436,1.229,1.237,1.229,2.152,0,1.378-1.121,2.5-2.5,2.5s-2.5-1.122-2.5-2.5,1.121-2.5,2.5-2.5c.11,0,.217.008.323.022l.546-1.312C3.499,15.938.777,12.286.067,9.192c-.18-.783.004-1.591.503-2.217.493-.619,1.23-.975,2.022-.975h18.814c.792,0,1.529.355,2.022.975.499.626.683,1.434.503,2.217ZM5.501,20c-.827,0-1.5.673-1.5,1.5s.673,1.5,1.5,1.5,1.5-.673,1.5-1.5-.673-1.5-1.5-1.5ZM22.647,7.598c-.303-.38-.755-.598-1.24-.598H2.593c-.485,0-.938.218-1.24.598-.309.386-.422.886-.311,1.37.677,2.95,3.337,6.451,6.09,8.032h9.237c2.649-1.517,5.889-4.978,6.589-8.032.111-.484-.002-.984-.311-1.37Zm-15.146-3.598c.276,0,.5-.224.5-.5V.5c0-.276-.224-.5-.5-.5s-.5.224-.5.5v3c0,.276.224.5.5.5Z"/>
</svg>
