<?xml version="1.0" encoding="UTF-8"?>
<svg xmlns="http://www.w3.org/2000/svg" id="Layer_1" data-name="Layer 1" viewBox="0 0 24 24">
  <path d="m17.855,6.148c-.194-.195-.51-.198-.707-.004l-4.17,4.122c-.29-.165-.621-.266-.978-.266-1.103,0-2,.897-2,2s.897,2,2,2,2-.897,2-2c0-.383-.113-.737-.3-1.041l4.152-4.104c.196-.194.198-.511.004-.707Zm-5.855,6.852c-.552,0-1-.449-1-1s.448-1,1-1,1,.449,1,1-.448,1-1,1Zm12-1c0,2.436-.726,4.781-2.1,6.783-.097.141-.253.217-.412.217-.098,0-.196-.028-.283-.088-.228-.156-.285-.468-.129-.695,1.259-1.834,1.924-3.983,1.924-6.217,0-6.065-4.935-11-11-11S1,5.935,1,12c0,2.233.665,4.383,1.924,6.217.156.228.099.539-.129.695-.229.157-.539.099-.695-.129-1.374-2.002-2.1-4.348-2.1-6.783C0,5.383,5.383,0,12,0s12,5.383,12,12Zm-4.666-3.2c.37.847.588,1.745.648,2.667.018.276-.191.514-.467.532-.011,0-.021,0-.033,0-.261,0-.48-.203-.498-.467-.053-.807-.243-1.592-.566-2.333-.11-.253.005-.548.258-.658.253-.109.548.004.658.258Zm-14.318,2.733c-.018.265-.237.467-.498.467-.012,0-.022,0-.034,0-.275-.018-.483-.256-.466-.532.275-4.188,3.781-7.467,7.982-7.467,1.112,0,2.188.224,3.2.666.253.11.368.405.258.658-.11.254-.405.37-.658.258-.885-.386-1.826-.582-2.8-.582-3.676,0-6.744,2.87-6.984,6.533Zm13.984,4.967v7c0,.276-.224.5-.5.5s-.5-.224-.5-.5v-7c0-.276.224-.5.5-.5s.5.224.5.5Zm-5-.5h-1c-.827,0-1.5.673-1.5,1.5v6c0,.276.224.5.5.5s.5-.224.5-.5v-2.5h1.5c1.379,0,2.5-1.121,2.5-2.5s-1.121-2.5-2.5-2.5Zm0,4h-1.5v-2.5c0-.275.225-.5.5-.5h1c.827,0,1.5.673,1.5,1.5s-.673,1.5-1.5,1.5Zm-3.784,3.299c.11.253-.004.548-.257.659-.065.028-.134.042-.201.042-.192,0-.375-.111-.458-.299l-1.407-3.201h-1.893v3c0,.276-.224.5-.5.5s-.5-.224-.5-.5v-7c0-.276.224-.5.5-.5s.5.224.5.5v3h1.64c.004-.008,1.675-3.23,1.675-3.23.128-.246.433-.338.674-.213.245.127.341.43.213.674l-1.558,2.992,1.572,3.576Z"/>
</svg>
