<?xml version="1.0" encoding="UTF-8"?>
<svg xmlns="http://www.w3.org/2000/svg" id="Layer_1" data-name="Layer 1" viewBox="0 0 24 24">
  <path d="m23.181,9.654c-.497-.451-1.143-.683-1.809-.651-.67.031-1.288.321-1.739.817l-3.732,4.103c-.314-1.108-1.335-1.923-2.542-1.923H3.5c-1.93,0-3.5,1.57-3.5,3.5v5c0,1.93,1.57,3.5,3.5,3.5h5.965c2.706,0,5.292-1.159,7.093-3.18l6.806-7.64c.91-1.022.828-2.604-.184-3.526Zm-.563,2.86l-6.806,7.64c-1.612,1.809-3.925,2.846-6.347,2.846H3.5c-1.378,0-2.5-1.121-2.5-2.5v-5c0-1.379,1.122-2.5,2.5-2.5h9.858c.905,0,1.642.737,1.642,1.643,0,.812-.606,1.511-1.399,1.624l-6.161.737c-.274.032-.47.281-.437.556.033.274.274.477.556.437l6.171-.738c1.022-.146,1.846-.878,2.146-1.824l4.495-4.939c.272-.299.644-.474,1.047-.492.399-.02.79.121,1.088.392.608.556.658,1.507.11,2.121Zm-13.617-2.515c2.206,0,4-1.734,4-3.865,0-1.527-1.289-3.106-2.497-4.467-.763-.859-2.243-.859-3.006,0-1.208,1.36-2.497,2.939-2.497,4.467,0,2.131,1.794,3.865,4,3.865Zm-.756-7.668c.195-.219.463-.34.756-.34s.561.121.755.34c.785.883,2.245,2.527,2.245,3.803,0,1.58-1.346,2.865-3,2.865s-3-1.285-3-2.865c0-1.275,1.46-2.92,2.244-3.803Z"/>
</svg>
