<?xml version="1.0" encoding="UTF-8"?>
<svg xmlns="http://www.w3.org/2000/svg" id="Layer_1" data-name="Layer 1" viewBox="0 0 24 24">
  <path d="m24,1.5v5c0,.276-.224.5-.5.5s-.5-.224-.5-.5V1.707l-7.358,7.358c-.874.876-2.405.879-3.284,0l-2.787-2.658c-.522-.522-1.361-.524-1.878-.008L.87,13.35c-.098.1-.228.15-.357.15-.126,0-.253-.048-.35-.143-.197-.193-.2-.51-.007-.707l6.827-6.955c.908-.91,2.382-.909,3.287-.003l2.787,2.658c.516.517,1.378.508,1.878.008l7.358-7.358h-4.793c-.276,0-.5-.224-.5-.5s.224-.5.5-.5h5c.827,0,1.5.673,1.5,1.5Zm-.869,9.15l-6.824,6.952c-.515.515-1.353.516-1.879-.008l-2.786-2.658c-.877-.878-2.407-.878-3.284,0l-7.358,7.358v-4.793c0-.276-.224-.5-.5-.5s-.5.224-.5.5v5c0,.827.673,1.5,1.5,1.5h5c.276,0,.5-.224.5-.5s-.224-.5-.5-.5H1.707l7.358-7.358c.5-.5,1.362-.508,1.878.008l2.786,2.658c.904.905,2.379.904,3.287-.003l6.827-6.955c.193-.197.19-.514-.006-.707-.197-.192-.514-.19-.707.007Z"/>
</svg>
