<?xml version="1.0" encoding="UTF-8"?>
<svg xmlns="http://www.w3.org/2000/svg" id="Layer_1" data-name="Layer 1" viewBox="0 0 24 24">
  <path d="m22,12c0,.276-.224.5-.5.5h-2v2c0,.276-.224.5-.5.5s-.5-.224-.5-.5v-2h-2c-.276,0-.5-.224-.5-.5s.224-.5.5-.5h2v-2c0-.276.224-.5.5-.5s.5.224.5.5v2h2c.276,0,.5.224.5.5Zm2,0c0,6.617-5.383,12-12,12S0,18.617,0,12,5.383,0,12,0s12,5.383,12,12Zm-1,0c0-6.065-4.935-11-11-11S1,5.935,1,12s4.935,11,11,11,11-4.935,11-11Zm-14.5,4h-4.182c-.141,0-.239-.091-.284-.176-.033-.063-.06-.159.006-.256.356-.522,1.057-.938,1.799-1.378,1.43-.849,3.209-1.904,3.159-4.295-.034-1.597-1.379-2.896-2.999-2.896-1.421,0-2.658,1.01-2.94,2.4-.055.271.12.534.391.59.271.056.535-.119.589-.391.188-.927,1.013-1.6,1.96-1.6,1.08,0,1.977.86,1.999,1.917.038,1.807-1.277,2.587-2.669,3.413-.84.499-1.635.97-2.115,1.676-.262.385-.287.865-.064,1.285.231.438.679.709,1.168.709h4.182c.276,0,.5-.224.5-.5s-.224-.5-.5-.5Zm4.987-8.944c-.311-.12-.659-.042-.887.206l-1.732,1.901c-.186.204-.171.521.033.707.206.186.521.172.707-.033l1.393-1.529v8.192c0,.276.224.5.5.5s.5-.224.5-.5V7.807c0-.334-.201-.629-.513-.751Z"/>
</svg>
