<?xml version="1.0" encoding="UTF-8"?>
<svg xmlns="http://www.w3.org/2000/svg" id="Layer_1" data-name="Layer 1" viewBox="0 0 24 24">
  <path d="m5.546,2.001s0,0,0,0c-.008,0-.004,0,0,0Zm17.454,10.499v4c0,1.379-1.122,2.5-2.5,2.5h-1.5v.5c0,2.481-2.019,4.5-4.5,4.5H5.5c-2.481,0-4.5-2.019-4.5-4.5v-11c0-.816.393-1.542,1-1.999,0,0,0,0,0-.001v-1c0-1.93,1.579-3.496,3.545-3.499.007,0,.004,0,0,0,.711-1.226,2.03-2.001,3.454-2.001,1.551,0,2.932.892,3.589,2.27.457-.179.93-.27,1.411-.27,2.206,0,4,1.794,4,4v.5s0,0,0,.001c.607.456,1,1.182,1,1.999v1.5h1.5c1.378,0,2.5,1.121,2.5,2.5ZM3,6.05c.162-.033.329-.05.5-.05h3c.276,0,.5.224.5.5v6.893c0,.789.535,1.471,1.245,1.587.449.07.886-.046,1.226-.336.336-.286.529-.703.529-1.144v-7c0-.276.224-.5.5-.5h6c.171,0,.338.017.5.05,0-1.701-1.346-3.05-3-3.05-.491,0-.975.13-1.438.385-.13.074-.287.082-.427.027-.139-.056-.246-.171-.292-.313-.398-1.255-1.541-2.099-2.844-2.099-1.158,0-2.223.685-2.715,1.744-.09.193-.296.309-.506.286,0,0-.224-.03-.279-.03-1.378,0-2.5,1.121-2.5,2.5v.55Zm15,2.45c0-.827-.673-1.5-1.5-1.5h-5.5v6.5c0,.734-.321,1.429-.881,1.905-.559.476-1.299.682-2.035.561-1.188-.193-2.083-1.3-2.083-2.573v-6.393h-2.5c-.827,0-1.5.673-1.5,1.5v11c0,1.93,1.57,3.5,3.5,3.5h9c1.93,0,3.5-1.57,3.5-3.5v-11Zm4,4c0-.827-.673-1.5-1.5-1.5h-1.5v7h1.5c.827,0,1.5-.673,1.5-1.5v-4Z"/>
</svg>
