<?xml version="1.0" encoding="UTF-8"?>
<svg xmlns="http://www.w3.org/2000/svg" id="Layer_1" data-name="Layer 1" viewBox="0 0 24 24">
  <path d="m6.5,5c1.378,0,2.5-1.121,2.5-2.5S7.878,0,6.5,0s-2.5,1.121-2.5,2.5,1.122,2.5,2.5,2.5Zm0-4c.827,0,1.5.673,1.5,1.5s-.673,1.5-1.5,1.5-1.5-.673-1.5-1.5.673-1.5,1.5-1.5Zm4.5,11.5c0,.276-.224.5-.5.5s-.5-.224-.5-.5v-3c0-1.379-1.122-2.5-2.5-2.5h-2c-1.378,0-2.5,1.121-2.5,2.5v4c0,1.379,1.122,2.5,2.5,2.5h2c.286,0,.566-.048.833-.143.152-.052.323-.03.455.063.133.094.211.246.211.408v7.171c0,.276-.224.5-.5.5s-.5-.224-.5-.5v-6.535c-.165.023-.332.035-.5.035h-2c-.17,0-.337-.012-.5-.036v6.536c0,.276-.224.5-.5.5s-.5-.224-.5-.5v-6.838c-1.181-.563-2-1.769-2-3.162v-4c0-1.93,1.57-3.5,3.5-3.5h2c1.93,0,3.5,1.57,3.5,3.5v3Zm6.5-1.5c-3.584,0-6.5,2.916-6.5,6.5s2.916,6.5,6.5,6.5,6.5-2.916,6.5-6.5-2.916-6.5-6.5-6.5Zm0,12c-3.033,0-5.5-2.468-5.5-5.5s2.467-5.5,5.5-5.5,5.5,2.468,5.5,5.5-2.467,5.5-5.5,5.5Zm1-2c0,.552-.448,1-1,1s-1-.448-1-1,.448-1,1-1,1,.448,1,1Zm1.461-5.949c.186,1.062-.318,2.123-1.255,2.64-.342.188-.587.413-.673.897-.043.242-.254.412-.492.412-.029,0-.059-.003-.088-.008-.272-.048-.453-.308-.405-.58.168-.943.75-1.363,1.174-1.597.571-.315.867-.94.753-1.592-.105-.601-.599-1.094-1.199-1.199-.456-.08-.895.035-1.24.326-.341.285-.537.705-.537,1.149,0,.276-.224.5-.5.5s-.5-.224-.5-.5c0-.741.326-1.439.894-1.916.567-.476,1.317-.675,2.056-.544,1.006.176,1.834,1.003,2.012,2.011Z"/>
</svg>
