<?xml version="1.0" encoding="UTF-8"?>
<svg xmlns="http://www.w3.org/2000/svg" id="Layer_1" data-name="Layer 1" viewBox="0 0 24 24">
  <path d="m24,7.5c0-2.171-2.157-5.443-5.415-5.499-.737-.239-6.359-2.001-12.085-2.001-.276,0-.5.224-.5.5s.224.5.5.5c3.792,0,7.622.823,9.862,1.406-.566.196-1.141.445-1.754.711-1.934.839-4.341,1.883-8.108,1.883-.276,0-.5.224-.5.5s.224.5.5.5c3.736,0,6.18-.963,8.137-1.806-.404.675-.637,1.464-.637,2.306,0,.742.18,1.442.499,2.059-7.676,1.947-9.741,8.031-10.296,11.113-.447-.417-1.046-.673-1.704-.673-1.378,0-2.5,1.121-2.5,2.5s1.122,2.5,2.5,2.5h20c.276,0,.5-.224.5-.5s-.224-.5-.5-.5h-1.5v-12.328c1.7-.483,3-1.513,3-3.172ZM2.5,23c-.827,0-1.5-.673-1.5-1.5s.673-1.5,1.5-1.5,1.5.673,1.5,1.5-.673,1.5-1.5,1.5Zm17.5,0h-3v-2.5c0-3.238-2.262-5.5-5.5-5.5-.276,0-.5.224-.5.5s.224.5.5.5c2.691,0,4.5,1.809,4.5,4.5v2.5H4.499c.315-.418.501-.938.501-1.5,0-.098.111-9.755,10.098-12.057.826.953,2.045,1.557,3.402,1.557.505,0,1.011-.037,1.5-.112v12.112Zm-1.5-13c-1.93,0-3.5-1.57-3.5-3.5,0-1.899,1.612-3.452,3.5-3.5,2.61,0,4.5,2.688,4.5,4.5,0,1.974-2.829,2.5-4.5,2.5Z"/>
</svg>
