<?xml version="1.0" encoding="UTF-8"?>
<svg xmlns="http://www.w3.org/2000/svg" id="Layer_1" data-name="Layer 1" viewBox="0 0 24 24">
  <path d="m.146,5.146l2.146-2.146L.146.854C-.049.658-.049.342.146.146S.658-.049.854.146l2.146,2.146L5.146.146c.195-.195.512-.195.707,0s.195.512,0,.707l-2.146,2.146,2.146,2.146c.195.195.195.512,0,.707-.098.098-.226.146-.354.146s-.256-.049-.354-.146l-2.146-2.146L.854,5.854c-.098.098-.226.146-.354.146s-.256-.049-.354-.146c-.195-.195-.195-.512,0-.707Zm9,4.707c.098.098.226.146.354.146s.256-.049.354-.146l2.146-2.146,2.146,2.146c.098.098.226.146.354.146s.256-.049.354-.146c.195-.195.195-.512,0-.707l-2.146-2.146,2.146-2.146c.195-.195.195-.512,0-.707s-.512-.195-.707,0l-2.146,2.146-2.146-2.146c-.195-.195-.512-.195-.707,0s-.195.512,0,.707l2.146,2.146-2.146,2.146c-.195.195-.195.512,0,.707Zm11.707,8.293c-.195-.195-.512-.195-.707,0l-2.146,2.146-2.146-2.146c-.195-.195-.512-.195-.707,0s-.195.512,0,.707l2.146,2.146-2.146,2.146c-.195.195-.195.512,0,.707.098.098.226.146.354.146s.256-.049.354-.146l2.146-2.146,2.146,2.146c.098.098.226.146.354.146s.256-.049.354-.146c.195-.195.195-.512,0-.707l-2.146-2.146,2.146-2.146c.195-.195.195-.512,0-.707Zm3.007-14.8c-.098.102-.229.153-.36.153-.125,0-.25-.046-.347-.14l-2.153-2.07v8.21c0,2.481-2.019,4.5-4.5,4.5H6.495c-1.925,0-3.495,1.566-3.5,3.492l-.003,1.509c0,.017-.008.032-.01.049,1.145.228,2.01,1.239,2.01,2.451,0,1.379-1.121,2.5-2.5,2.5S-.008,22.879-.008,21.5c0-1.211.865-2.222,2.01-2.451-.002-.017-.01-.033-.01-.05l.003-1.509c.007-2.477,2.025-4.49,4.5-4.49h10.005c1.93,0,3.5-1.57,3.5-3.5V1.29l-2.153,2.07c-.197.191-.516.186-.707-.014-.191-.199-.186-.516.014-.707l2.301-2.212c.573-.572,1.518-.572,2.099.006l2.294,2.206c.199.191.205.508.014.707ZM2.492,20c-.827,0-1.5.673-1.5,1.5s.673,1.5,1.5,1.5,1.5-.673,1.5-1.5-.673-1.5-1.5-1.5Z"/>
</svg>
