<?xml version="1.0" encoding="UTF-8"?>
<svg xmlns="http://www.w3.org/2000/svg" id="Layer_1" data-name="Layer 1" viewBox="0 0 24 24">
  <path d="m4.989,10.612v.009c-.005-.009-.014-.03,0-.009Zm8.011,3.388h-3.038c-.276,0-.5.224-.5.5s.224.5.5.5h3.038c1.379,0,2.5-1.121,2.5-2.5,0-.995-.584-1.856-1.427-2.258.438-.451.709-1.065.709-1.742,0-1.379-1.121-2.5-2.5-2.5h-2.32c-.276,0-.5.224-.5.5s.224.5.5.5h2.32c.827,0,1.5.673,1.5,1.5s-.673,1.5-1.5,1.5h-.82c-.276,0-.5.224-.5.5s.224.5.5.5h1.538c.827,0,1.5.673,1.5,1.5s-.673,1.5-1.5,1.5Zm-9.732-1.499c.005,0,.01,0,.015,0-.01-.008-.044-.024-.015,0Zm15.744-1.837h0s.001-.003,0,0Zm4.842,2.898c.191.394.193.846.006,1.24-.475,1-1.321,2.297-2.745,3.189.133.101.257.201.372.299.358.304.551.745.528,1.211-.022.459-.253.873-.632,1.135-.788.544-1.976,1.181-3.376,1.331.02.046.039.092.057.136.155.381.128.806-.076,1.166-.204.359-.555.602-.962.664-.49.074-.939.108-1.352.108-1.913,0-3.026-.734-3.675-1.583-.649.849-1.762,1.583-3.675,1.583-.412,0-.861-.034-1.351-.108-.408-.062-.759-.305-.963-.664-.204-.36-.231-.785-.076-1.166.018-.044.037-.09.057-.136-1.4-.15-2.588-.787-3.376-1.331-.379-.262-.609-.676-.632-1.135-.022-.466.17-.907.528-1.212.098-.083.203-.169.314-.254C1.358,17.141.493,15.818.011,14.801c-.187-.394-.185-.846.007-1.239.204-.419.589-.72,1.057-.825.126-.029.259-.056.397-.082-.456-.348-.851-.795-1.06-1.334C-.197,9.751-.021,7.8.233,6.439c.08-.424.36-.779.752-.952.36-.158.769-.145,1.117.03-.168-.632-.15-1.293.188-1.935C3.073,2.096,4.598.927,5.738.208c.381-.238.83-.272,1.239-.099.427.184.738.576.832,1.049.539,2.705-.039,5.216-1.674,7.314-.933,7.465,2.922,11.546,5.879,11.991,2.947-.444,6.787-4.528,5.848-12.003-2.228-2.914-1.926-6.035-1.672-7.302.094-.473.405-.865.832-1.049.411-.174.86-.14,1.239.099,1.141.719,2.665,1.888,3.448,3.374.338.642.355,1.303.188,1.935.349-.175.758-.188,1.117-.03.392.173.672.528.752.951.255,1.361.431,3.312-.178,4.882-.214.551-.62,1.004-1.085,1.354.102.02.2.041.295.062.467.105.852.406,1.056.825ZM5.171,8.077c1.606-1.925,2.164-4.185,1.658-6.724-.03-.15-.122-.271-.247-.325-.035-.016-.081-.028-.132-.028-.055,0-.115.014-.179.054-.85.535-2.381,1.636-3.097,2.995-.759,1.44,1.17,3.316,1.996,4.028Zm-1.903,4.424c.592.014,1.228.096,1.844.287-.086-.682-.129-1.405-.123-2.167.003.006.005.007,0-.009-.759-2.182-2.246-3.533-3.31-4.188-.13-.079-.246-.041-.289-.021-.054.023-.147.084-.174.222-.188,1.009-.424,2.914.127,4.335.279.719,1.283,1.319,1.926,1.542Zm.491,4.907c.675-.389,1.484-.718,2.402-.849-.362-.786-.656-1.665-.859-2.639-1.407-.606-2.955-.449-4.006-.21-.171.039-.309.144-.379.288-.041.085-.075.22-.003.373.465.979,1.331,2.284,2.845,3.036Zm2.711,3.59c.331-.589.775-1.241,1.365-1.878-.425-.467-.822-1.003-1.177-1.607-1.514.105-2.731.887-3.498,1.539-.12.102-.185.247-.177.4.004.086.036.247.201.361.758.524,1.935,1.146,3.286,1.185Zm5.029.385c-.978-.221-2.006-.742-2.949-1.563-.886.963-1.404,1.961-1.689,2.661-.054.132-.01.241.021.296.052.092.141.153.244.169,2.202.329,3.672-.194,4.374-1.563Zm7.513-10.719s0,.002,0,0c.004.732-.037,1.426-.117,2.084.593-.168,1.188-.239,1.754-.248-.005.002-.006.004.008,0,.743-.224,1.72-.817,2.001-1.541.551-1.421.315-3.326.127-4.336-.026-.137-.12-.197-.174-.221-.043-.02-.159-.058-.289.021-1.097.675-2.567,1.974-3.309,4.24Zm-.181-2.59c.828-.715,2.749-2.591,1.994-4.025-.716-1.359-2.247-2.46-3.097-2.995-.063-.04-.124-.054-.178-.054-.052,0-.097.013-.133.028-.125.054-.217.175-.247.325-.231,1.16-.51,4.064,1.66,6.721Zm-1.692,14.406c-.285-.698-.801-1.691-1.681-2.652-.945.824-1.975,1.343-2.954,1.56.703,1.366,2.173,1.889,4.372,1.557.103-.016.191-.077.243-.169.03-.055.074-.164.021-.296Zm3.878-3.028c.008-.153-.057-.299-.176-.399-.247-.21-.976-.694-1.017-.729-.68-.403-1.517-.742-2.472-.811-.356.608-.754,1.147-1.18,1.616.586.635,1.028,1.284,1.358,1.87,1.351-.039,2.528-.661,3.286-1.185.165-.114.197-.275.201-.361Zm1.938-5.453c-.07-.145-.208-.249-.378-.288-1.016-.229-2.495-.385-3.863.151-.203.997-.5,1.897-.868,2.699.887.127,1.672.441,2.333.813,1.471-.756,2.32-2.036,2.779-3.002.072-.153.038-.288-.003-.373Zm-2.307-1.499s.005,0,.008,0c.02-.011,0-.004-.008,0Z"/>
</svg>
