<?xml version="1.0" encoding="UTF-8"?>
<svg xmlns="http://www.w3.org/2000/svg" id="Layer_1" data-name="Layer 1" viewBox="0 0 24 24">
  <path d="m24,12c0,.276-.224.5-.5.5H7.257l4.096,4.096c.195.195.195.512,0,.707-.098.098-.226.146-.354.146s-.256-.049-.354-.146l-4.243-4.243c-.585-.585-.585-1.536,0-2.121l4.243-4.243c.195-.195.512-.195.707,0s.195.512,0,.707l-4.096,4.096h16.243c.276,0,.5.224.5.5Zm-.891,3.023c-.263-.084-.544.061-.628.325-1.46,4.577-5.672,7.652-10.481,7.652-6.065,0-11-4.935-11-11S5.935,1,12,1c4.809,0,9.021,3.075,10.481,7.652.083.263.365.409.628.325.263-.084.408-.366.325-.628C21.84,3.355,17.246,0,12,0,5.383,0,0,5.383,0,12s5.383,12,12,12c5.246,0,9.84-3.355,11.434-8.348.083-.263-.062-.544-.325-.628Z"/>
</svg>
