<?xml version="1.0" encoding="UTF-8"?>
<svg xmlns="http://www.w3.org/2000/svg" id="Layer_1" data-name="Layer 1" viewBox="0 0 24 24">
  <path d="m22.522,17.039l-1.891-2.192c.473-.188.871-.539,1.117-1.006.375-.715.324-1.572-.176-2.289l-2.329-2.566c.656-.079,1.231-.47,1.536-1.059.339-.654.287-1.405-.173-2.051L16.011.677c-.76-.859-2.263-.859-3.021,0l-.99,1.119-.989-1.119c-.76-.859-2.262-.859-3.021,0L3.359,5.919c-.427.603-.479,1.354-.14,2.008.306.589.881.979,1.537,1.059l-2.372,2.618c-.458.665-.509,1.522-.134,2.237.246.467.645.818,1.117,1.006,0,0-1.913,2.22-1.924,2.235-.528.768-.588,1.757-.154,2.581.434.825,1.281,1.337,2.213,1.337h5.497v2.5c0,.276.224.5.5.5s.5-.224.5-.5v-2.5h4v2.5c0,.276.224.5.5.5s.5-.224.5-.5v-2.5h5.497c.932,0,1.779-.512,2.213-1.337.434-.824.374-1.813-.188-2.624Zm-5.698,2.158c-.264.503-.761.803-1.328.803h-5.496v-9.5c0-.276-.224-.5-.5-.5s-.5.224-.5.5v9.5H3.503c-.567,0-1.063-.3-1.327-.802-.261-.495-.23-1.064.078-1.528l2.452-2.844c.128-.147.157-.356.075-.534-.081-.178-.259-.292-.454-.292h-.157c-.441,0-.828-.233-1.033-.624-.205-.392-.179-.842.03-1.152l3.074-3.388c.133-.146.167-.357.087-.538-.08-.182-.259-.298-.457-.298h-.868c-.388,0-.723-.199-.896-.533-.163-.316-.138-.679.035-.929L8.739,1.339c.379-.43,1.143-.43,1.521,0l4.563,5.156c.206.293.231.655.068.972-.173.334-.508.533-.896.533h-.868c-.198,0-.377.116-.457.298-.08.181-.046.392.087.538l3.032,3.336c.251.362.277.812.072,1.204-.205.391-.592.624-1.033.624h-.157c-.195,0-.373.114-.454.292-.082.178-.053.387.075.534l2.438,2.822c.322.468.356,1.047.093,1.549Zm5,0c-.264.502-.76.802-1.327.802h-3.028c.083-.11.175-.212.241-.337.433-.825.374-1.814-.188-2.624l-1.891-2.192c.473-.188.871-.539,1.117-1.006.375-.715.324-1.572-.176-2.289l-2.329-2.566c.656-.079,1.231-.47,1.536-1.059.339-.654.287-1.405-.173-2.051l-2.941-3.326,1.073-1.211c.379-.43,1.143-.43,1.521,0l4.563,5.156c.206.293.231.655.068.972-.173.334-.508.533-.896.533h-.868c-.198,0-.377.116-.457.298-.08.181-.046.392.087.538l3.032,3.336c.251.362.277.812.072,1.204-.205.391-.592.624-1.033.624h-.157c-.195,0-.373.114-.454.292-.082.178-.053.387.075.534l2.438,2.822c.322.468.357,1.047.093,1.55Z"/>
</svg>
