<?xml version="1.0" encoding="UTF-8"?>
<svg xmlns="http://www.w3.org/2000/svg" id="Layer_1" data-name="Layer 1" viewBox="0 0 24 24">
  <path d="m22.5,20c0-1.312-.716-2.771-2.129-4.335-1.715-1.898-3.841-6.207-4.956-8.606-1.052-2.265-1.384-3.466-1.413-6.563-.002-.274-.226-.495-.5-.495h-.004c-.276.003-.498.229-.496.505.03,3.258.402,4.6,1.506,6.976,1.139,2.45,3.318,6.859,5.121,8.854,1.224,1.355,1.871,2.622,1.876,3.735.001.01.12.998-.574,1.798-.651.751-1.806,1.132-3.431,1.132-1.567,0-2.613-1.056-3.624-2.077-.935-.944-1.901-1.92-3.235-1.92-.808,0-1.296.522-1.45.815-.311.548-.447,1.84,1.26,2.808,2.423,1.374,3.777,1.374,7.049,1.374,1.928,0,3.337-.497,4.187-1.477.996-1.148.818-2.523.813-2.523Z"/>
  <path d="m7.276,12.053c-.215.107-5.276,2.682-5.276,6.447,0,3.786,3.648,5.393,3.803,5.46.064.027.131.04.196.04.193,0,.378-.113.459-.303.109-.253-.008-.547-.261-.656-.13-.057-3.198-1.422-3.198-4.541,0-3.147,4.677-5.529,4.724-5.553.247-.124.347-.424.223-.671-.124-.246-.423-.347-.67-.224Z"/>
</svg>
