<?xml version="1.0" encoding="UTF-8"?>
<svg xmlns="http://www.w3.org/2000/svg" id="Layer_1" data-name="Layer 1" viewBox="0 0 24 24">
  <path d="m22.5,8h-.717c-.579-2.832-2.386-5.318-4.928-6.736-.294-.739-1.013-1.264-1.856-1.264h-6c-.842,0-1.562.526-1.856,1.264-2.542,1.417-4.349,3.902-4.929,6.736h-.716c-.276,0-.5.224-.5.5s.224.5.5.5h.59l2.276,11.383c.419,2.096,2.274,3.617,4.412,3.617h6.442c2.138,0,3.993-1.521,4.412-3.617l2.277-11.383h.59c.276,0,.5-.224.5-.5s-.224-.5-.5-.5ZM9,1h6c.552,0,1,.448,1,1s-.448,1-1,1h-6c-.552,0-1-.448-1-1s.448-1,1-1Zm-1.933,1.486c.219.867.999,1.514,1.933,1.514h6c.934,0,1.715-.647,1.933-1.514,1.934,1.275,3.313,3.262,3.827,5.514H3.238c.515-2.252,1.895-4.239,3.828-5.514Zm11.586,17.701c-.326,1.63-1.77,2.812-3.432,2.812h-6.442c-1.662,0-3.105-1.183-3.432-2.812l-1.437-7.188h13.59c.276,0,.5-.224.5-.5s-.224-.5-.5-.5H3.71l-.6-3h17.78l-2.238,11.188Z"/>
</svg>
