<?xml version="1.0" encoding="UTF-8"?>
<svg xmlns="http://www.w3.org/2000/svg" id="Layer_1" data-name="Layer 1" viewBox="0 0 24 24">
  <path d="m17.421,10.918c-.12-.182-.25-.357-.387-.525l6.276,2.57c.062.025.126.037.189.037.196,0,.384-.117.463-.311.104-.255-.018-.547-.273-.652l-8.205-3.36,3.82-1.671c1.638-.716,2.696-2.334,2.696-4.123V.5c0-.276-.224-.5-.5-.5s-.5.224-.5.5v2.384c0,1.391-.823,2.649-2.097,3.207l-4.908,2.147c.616-.55,1.004-1.349,1.004-2.237,0-1.654-1.346-3-3-3s-3,1.346-3,3c0,.889.389,1.688,1.004,2.237l-4.908-2.147c-1.273-.557-2.097-1.816-2.097-3.207V.5c0-.276-.224-.5-.5-.5s-.5.224-.5.5v2.384c0,1.788,1.059,3.406,2.696,4.123l3.82,1.671L.311,12.037c-.256.105-.378.397-.273.652.079.193.267.311.463.311.063,0,.128-.012.189-.037l6.276-2.57c-.138.168-.267.344-.387.525l-5.123,6.305c-.939,1.155-1.456,2.61-1.456,4.099v2.178c0,.276.224.5.5.5s.5-.224.5-.5v-2.178c0-1.259.437-2.49,1.231-3.468l3.308-4.072c-.026.236-.04.475-.04.718,0,3.584,2.916,6.5,6.5,6.5s6.5-2.916,6.5-6.5c0-.243-.014-.482-.04-.718l3.308,4.072c.794.978,1.231,2.209,1.231,3.468v2.178c0,.276.224.5.5.5s.5-.224.5-.5v-2.178c0-1.488-.517-2.943-1.456-4.099l-5.123-6.305Zm-5.421-6.918c1.103,0,2,.897,2,2s-.897,2-2,2-2-.897-2-2,.897-2,2-2Zm5.5,10.5c0,3.032-2.468,5.5-5.5,5.5s-5.5-2.468-5.5-5.5c0-3.295,3.09-5.5,5.5-5.5,2.462,0,5.5,2.077,5.5,5.5Zm-3.531-1.667l-1.433,1.667,1.433,1.666c.269.336.03.834-.401.834h-3.139c-.43,0-.669-.498-.401-.834l1.433-1.666-1.433-1.667c-.269-.336-.03-.833.401-.833h3.139c.43,0,.669.498.401.833Z"/>
</svg>
