<?xml version="1.0" encoding="UTF-8"?>
<svg xmlns="http://www.w3.org/2000/svg" id="Layer_1" data-name="Layer 1" viewBox="0 0 24 24">
  <path d="m11.5,3.5V.5c0-.276.224-.5.5-.5s.5.224.5.5v3c0,.276-.224.5-.5.5s-.5-.224-.5-.5Zm3.743.429c.08.048.169.071.257.071.169,0,.335-.086.429-.243l1.5-2.5c.143-.237.065-.544-.172-.686-.233-.14-.543-.065-.686.171l-1.5,2.5c-.143.237-.065.544.172.686Zm-7.172-.171c.094.156.26.243.429.243.088,0,.177-.023.257-.071.237-.142.314-.449.172-.686l-1.5-2.5c-.142-.237-.451-.312-.686-.171-.237.142-.314.449-.172.686l1.5,2.5Zm15.587,18.717l-4.5,1.5c-.053.018-.105.026-.158.026-.209,0-.404-.132-.475-.342-.087-.262.055-.545.316-.632l1.721-.574-1.243-3.586c-.374.09-.752.135-1.129.135-.815,0-1.621-.21-2.352-.622-1.117-.63-1.921-1.658-2.265-2.893l-1.575-4.751-1.582,4.774c-.337,1.212-1.141,2.239-2.258,2.87-.73.412-1.536.622-2.352.622-.377,0-.755-.045-1.129-.135l-1.243,3.586,1.721.574c.262.087.403.37.316.632-.07.209-.266.342-.475.342-.053,0-.105-.008-.158-.026l-4.5-1.5c-.262-.087-.403-.37-.316-.632.088-.262.371-.401.633-.316l1.83.61,1.249-3.602c-.888-.42-1.623-1.103-2.115-1.976-.631-1.117-.788-2.412-.443-3.647l1.998-6.04c.41-1.356,1.868-2.156,3.244-1.773l4.141,1.153c.589.164,1.09.516,1.439,1.005.35-.488.85-.841,1.438-1.005l4.143-1.153c1.38-.385,2.834.417,3.247,1.786l1.987,6.004c.352,1.258.194,2.553-.437,3.67-.492.873-1.228,1.555-2.115,1.976l1.249,3.602,1.83-.61c.263-.086.545.054.633.316.087.262-.055.545-.316.632Zm-12.799-11.474H2.862l-.729,2.202c-.266.955-.141,1.98.357,2.864.499.884,1.312,1.521,2.29,1.793.98.272,2.004.147,2.888-.352s1.521-1.312,1.793-2.29l1.397-4.218Zm.641-2.226c-.006-.26-.074-.527-.205-.764-.216-.393-.572-.675-1.004-.795l-4.141-1.153c-.146-.041-.293-.06-.438-.06-.71,0-1.371.464-1.585,1.171l-.935,2.827h7.997l.242-.731c.044-.144.066-.345.068-.495Zm1.309,1.226h7.997l-.932-2.814c-.217-.718-.88-1.184-1.59-1.184-.145,0-.291.019-.436.06l-4.143,1.153c-.431.121-.787.403-1.003.795-.13.237-.198.496-.204.759.002.153.025.362.071.513l.238.719Zm8.699,6.066c.498-.884.623-1.91.351-2.887l-.721-2.179h-7.997l1.39,4.195c.279,1.001.916,1.814,1.8,2.313s1.908.624,2.888.352c.978-.272,1.791-.91,2.29-1.793Z"/>
</svg>
