<?xml version="1.0" encoding="UTF-8"?>
<svg xmlns="http://www.w3.org/2000/svg" id="Layer_1" data-name="Layer 1" viewBox="0 0 24 24">
  <path d="m8.5,20h-4c-1.93,0-3.5-1.57-3.5-3.5V4.5c0-1.93,1.57-3.5,3.5-3.5h.5v4.5c0,.827.673,1.5,1.5,1.5h8c.827,0,1.5-.673,1.5-1.5V1.195c.119.067.23.151.327.249l3.238,3.266c.28.282.435.657.435,1.056v2.734c0,.276.224.5.5.5s.5-.224.5-.5v-2.734c0-.665-.258-1.29-.725-1.76l-3.237-3.265c-.364-.368-1.038-.74-1.775-.74H4.5C2.019,0,0,2.019,0,4.5v12c0,2.481,2.019,4.5,4.5,4.5h4c.276,0,.5-.224.5-.5s-.224-.5-.5-.5Zm6-14H6.5c-.275,0-.5-.224-.5-.5V1h9v4.5c0,.276-.225.5-.5.5Zm8.768,5.732c-.975-.975-2.561-.975-3.535,0l-7.707,7.707c-.651.651-1.025,1.554-1.025,2.475v1.586c0,.276.224.5.5.5h1.586c.936,0,1.814-.364,2.475-1.025l7.707-7.707c.473-.472.732-1.1.732-1.768s-.26-1.296-.732-1.768Zm-.707,2.828l-7.707,7.707c-.472.472-1.1.732-1.768.732h-1.086v-1.086c0-.658.267-1.302.732-1.768l7.707-7.707c.584-.585,1.537-.585,2.121,0,.283.283.439.66.439,1.061s-.156.777-.439,1.061Zm-8.561-1.061c0-1.93-1.57-3.5-3.5-3.5s-3.5,1.57-3.5,3.5,1.57,3.5,3.5,3.5,3.5-1.57,3.5-3.5Zm-3.5,2.5c-1.379,0-2.5-1.122-2.5-2.5s1.121-2.5,2.5-2.5,2.5,1.122,2.5,2.5-1.121,2.5-2.5,2.5Z"/>
</svg>
