<?xml version="1.0" encoding="UTF-8"?>
<svg xmlns="http://www.w3.org/2000/svg" id="Layer_1" data-name="Layer 1" viewBox="0 0 24 24">
  <path d="m24,16.5v7c0,.276-.224.5-.5.5s-.5-.224-.5-.5v-7c0-.276.224-.5.5-.5s.5.224.5.5Zm-9.5.5c.276,0,.5-.224.5-.5s-.224-.5-.5-.5h-2.5c-.551,0-1,.448-1,1v6.5c0,.276.224.5.5.5s.5-.224.5-.5v-2.5h2.5c.276,0,.5-.224.5-.5s-.224-.5-.5-.5h-2.5v-3h2.5Zm5.967,3.663l.819,2.691c.08.265-.069.544-.333.624-.048.015-.098.021-.146.021-.214,0-.413-.139-.479-.354l-.813-2.674c-.092.01-.183.028-.278.028h-1.5v2.5c0,.276-.224.5-.5.5s-.5-.224-.5-.5v-6.5c0-.552.449-1,1-1h1.5c1.378,0,2.5,1.121,2.5,2.5,0,.93-.516,1.733-1.27,2.163Zm.27-2.163c0-.827-.673-1.5-1.5-1.5h-1.5v3h1.5c.827,0,1.5-.673,1.5-1.5Zm3.262-12v7c0,.276-.224.5-.5.5s-.5-.224-.5-.5v-4.5H1v10.5c0,1.93,1.57,3.5,3.5,3.5h4c.276,0,.5.224.5.5s-.224.5-.5.5h-4c-2.481,0-4.5-2.019-4.5-4.5V6.5C0,4.019,2.019,2,4.5,2h1.5V.5c0-.276.224-.5.5-.5s.5.224.5.5v1.5h10V.5c0-.276.224-.5.5-.5s.5.224.5.5v1.5h1.5c2.481,0,4.5,2.019,4.5,4.5Zm-1,1.5v-1.5c0-1.93-1.57-3.5-3.5-3.5H4.5c-1.93,0-3.5,1.57-3.5,3.5v1.5h22Z"/>
</svg>
