<?xml version="1.0" encoding="UTF-8"?>
<svg xmlns="http://www.w3.org/2000/svg" id="Layer_1" data-name="Layer 1" viewBox="0 0 24 24">
  <path d="m12,5c1.379,0,2.5-1.122,2.5-2.5s-1.121-2.5-2.5-2.5-2.5,1.122-2.5,2.5,1.121,2.5,2.5,2.5Zm0-4c.827,0,1.5.673,1.5,1.5s-.673,1.5-1.5,1.5-1.5-.673-1.5-1.5.673-1.5,1.5-1.5Zm7.5,20h-5.5v-5.172c1.164-.413,2-1.524,2-2.828v-4c0-1.654-1.346-3-3-3h-3.276c-.351,0-.691-.124-.96-.348L3.32,1.116c-.212-.175-.526-.148-.704.064-.177.212-.148.528.063.705l5.443,4.537c.449.374,1.017.579,1.601.579h3.276c1.103,0,2,.897,2,2v4c0,1.103-.897,2-2,2h-3v-5.5c0-.276-.224-.5-.5-.5s-.5.224-.5.5v11.5h-4.5c-1.379,0-2.5,1.122-2.5,2.5,0,.276.224.5.5.5s.5-.224.5-.5c0-.827.673-1.5,1.5-1.5h15c.827,0,1.5.673,1.5,1.5,0,.276.224.5.5.5s.5-.224.5-.5c0-1.378-1.121-2.5-2.5-2.5Zm-9.5-5h3v5h-3v-5Z"/>
</svg>
