<?xml version="1.0" encoding="UTF-8"?>
<svg xmlns="http://www.w3.org/2000/svg" id="Layer_1" data-name="Layer 1" viewBox="0 0 24 24">
  <path d="m12.498,12.046s0,0,0,0c0-.007,0-.004,0,0Zm11.502,2.126v.328c0,8.574-4.546,9.5-6.5,9.5-1.198,0-2.117-.544-3.005-1.07-.808-.479-1.57-.93-2.495-.93s-1.688.452-2.495.93c-.888.526-1.807,1.07-3.005,1.07-1.955,0-6.5-.926-6.5-9.5v-.324c.008-1.208.546-2.355,1.478-3.15.944-.806,2.181-1.165,3.396-.977,3.083.469,5.479,1.455,6.628,1.998,0-3.436-3.113-5.047-6.002-5.047-1.378,0-2.5-1.122-2.5-2.5s1.122-2.5,2.5-2.5c2.409,0,4.729,1.524,6,3.611V.5c0-.276.224-.5.5-.5s.5.224.5.5v5.112c1.271-2.087,3.592-3.612,6-3.612,1.379,0,2.5,1.122,2.5,2.5s-1.121,2.5-2.5,2.5c-2.89,0-6.002,1.611-6.002,5.047,0,.008,0,.004,0,0,1.15-.544,3.545-1.529,6.628-1.998,1.218-.187,2.453.171,3.396.977.931.795,1.47,1.942,1.478,3.147Zm-11.491-5.46c1.185-1.682,3.328-2.712,5.991-2.712.827,0,1.5-.673,1.5-1.5s-.673-1.5-1.5-1.5c-2.932,0-5.812,2.787-5.991,5.712Zm-1.018,0c-.18-2.925-3.059-5.712-5.991-5.712-.827,0-1.5.673-1.5,1.5s.673,1.5,1.5,1.5c2.663,0,4.807,1.03,5.991,2.712Zm11.509,5.464c-.006-.912-.417-1.784-1.127-2.39-.723-.617-1.671-.892-2.597-.749-4.109.626-7.001,2.241-7.03,2.257-.152.087-.339.086-.492,0-.029-.017-2.933-1.633-7.031-2.258-.93-.143-1.875.132-2.597.749-.71.606-1.121,1.479-1.127,2.394v.321c0,5.481,1.953,8.5,5.5,8.5.925,0,1.687-.452,2.495-.93.888-.526,1.807-1.07,3.005-1.07s2.117.544,3.005,1.07c.808.479,1.57.93,2.495.93,3.547,0,5.5-3.019,5.5-8.5v-.324Zm-3.025,1.97c-.298,1.897-.641,3.169-1.428,3.655-.217.133-.452.2-.704.2-.165,0-.338-.028-.517-.086-.452-.145-1.007-.466-1.648-.839-1.074-.623-2.406-1.395-3.678-1.571-1.272.176-2.604.948-3.677,1.571-.643.373-1.197.695-1.65.839-.179.058-.351.086-.516.086-.252,0-.488-.066-.704-.2-.787-.486-1.13-1.759-1.427-3.655-.105-.675.116-1.354.579-1.772.363-.328.828-.447,1.275-.33,2.361.62,5.292,1.999,6.12,2.4.828-.4,3.759-1.779,6.12-2.399.444-.118.913.002,1.274.329.463.418.686,1.097.58,1.772Zm-9.454.712c-1.263-.572-3.251-1.415-4.895-1.846-.029-.007-.058-.011-.086-.011-.091,0-.18.039-.265.116-.161.146-.326.462-.261.875.112.715.41,2.617.964,2.958.069.042.175.082.39.013.35-.112.861-.409,1.453-.752.794-.46,1.72-.998,2.7-1.353Zm8.204-1.742c-.111-.101-.231-.135-.351-.104-1.645.432-3.633,1.274-4.896,1.846.98.354,1.907.892,2.701,1.353.592.344,1.103.64,1.451.752.215.068.321.029.391-.013.554-.341.853-2.243.965-2.958.064-.413-.101-.729-.262-.875Z"/>
</svg>
