<?xml version="1.0" encoding="UTF-8"?>
<svg xmlns="http://www.w3.org/2000/svg" id="Layer_1" data-name="Layer 1" viewBox="0 0 24 24">
  <path d="m13.146,5.354c-.195-.195-.195-.512,0-.707l2.5-2.5c.195-.195.512-.195.707,0s.195.512,0,.707l-2.5,2.5c-.098.098-.226.146-.354.146s-.256-.049-.354-.146Zm-8,0c.098.098.226.146.354.146s.256-.049.354-.146c.195-.195.195-.512,0-.707l-2.5-2.5c-.195-.195-.512-.195-.707,0s-.195.512,0,.707l2.5,2.5Zm4.354-.354c.276,0,.5-.224.5-.5V.5c0-.276-.224-.5-.5-.5s-.5.224-.5.5v4c0,.276.224.5.5.5Zm11.725,3.254c.883-.882,1.028-2.269.339-3.226-.426-.591-1.081-.963-1.799-1.021-.722-.057-1.422.201-1.933.712l-8.688,8.827-.249-2.184c-.024-.713-.357-1.379-.914-1.826s-1.284-.626-1.992-.496c-1.152.215-1.989,1.274-1.989,2.518v7.784c0,.921-.374,1.823-1.025,2.475l-1.328,1.329c-.195.195-.195.512,0,.707s.512.195.707,0l1.328-1.329c.838-.838,1.318-1.998,1.318-3.182v-7.784c0-.75.504-1.41,1.173-1.534.426-.079.849.023,1.183.292.329.265.526.658.543,1.12l.371,3.264c.022.191.152.353.334.416.183.062.384.015.52-.122l9.419-9.57c.302-.301.723-.458,1.142-.419.432.035.811.251,1.069.609.405.562.304,1.394-.241,1.939l-4.218,4.352c-.491.507-.564,1.274-.179,1.864l3.274,5.014c1.001,1.464.902,3.218-.243,4.364-.195.195-.195.512,0,.707.098.098.226.146.354.146s.256-.049.354-.146c1.474-1.473,1.622-3.791.368-5.627l-3.27-5.005c-.128-.196-.104-.452.061-.621l4.212-4.346Z"/>
</svg>
