<?xml version="1.0" encoding="UTF-8"?>
<svg xmlns="http://www.w3.org/2000/svg" id="Layer_1" data-name="Layer 1" viewBox="0 0 24 24">
  <path d="m17.5,0c-.276,0-.5.224-.5.5,0,3.444-2.43,5.5-6.5,5.5H3.5c-1.93,0-3.5,1.57-3.5,3.5v2c0,1.158.565,2.186,1.435,2.824l3.608,8.054c.438.985,1.417,1.622,2.496,1.622.843,0,1.621-.422,2.081-1.13.459-.707.529-1.59.185-2.365l-2.525-5.505h3.221c4.07,0,6.5,2.056,6.5,5.5,0,.276.224.5.5.5s.5-.224.5-.5V.5c0-.276-.224-.5-.5-.5Zm-8.607,20.916c.208.467.167.98-.111,1.409-.279.429-.731.675-1.243.675-.684,0-1.305-.403-1.583-1.029l-3.155-7.041c.226.046.46.07.699.07h2.679l2.714,5.916Zm8.107-4.014c-1.217-1.846-3.486-2.902-6.5-2.902H3.5c-1.378,0-2.5-1.121-2.5-2.5v-2c0-1.379,1.122-2.5,2.5-2.5h7c3.014,0,5.283-1.057,6.5-2.902v12.805Zm6.947-1.179c-.088.175-.265.276-.447.276-.075,0-.151-.017-.224-.053l-2-1c-.247-.124-.347-.424-.224-.671.125-.247.424-.346.671-.224l2,1c.247.124.347.424.224.671Zm-2.895-9c-.123-.247-.023-.547.224-.671l2-1c.247-.123.547-.023.671.224.123.247.023.547-.224.671l-2,1c-.072.036-.148.053-.224.053-.183,0-.359-.102-.447-.276Zm-.053,3.776c0-.276.224-.5.5-.5h2c.276,0,.5.224.5.5s-.224.5-.5.5h-2c-.276,0-.5-.224-.5-.5Z"/>
</svg>
