<?xml version="1.0" encoding="UTF-8"?>
<svg xmlns="http://www.w3.org/2000/svg" id="Layer_1" data-name="Layer 1" viewBox="0 0 24 24">
  <path d="m11.5,3.929v4.071c0,.276.224.5.5.5s.5-.224.5-.5V3.929c.86-.224,1.5-1,1.5-1.929,0-1.103-.897-2-2-2s-2,.897-2,2c0,.929.64,1.705,1.5,1.929Zm.5-2.929c.552,0,1,.448,1,1s-.448,1-1,1-1-.448-1-1,.448-1,1-1Zm8.5,14c-.545,0-1.039.221-1.4.576l-3.343-2.004c-.233-.142-.543-.065-.686.172-.143.236-.065.544.172.686l3.348,2.007c-.053.18-.091.367-.091.564,0,1.103.897,2,2,2s2-.897,2-2-.897-2-2-2Zm0,3c-.552,0-1-.448-1-1s.448-1,1-1,1,.448,1,1-.448,1-1,1Zm-2.558,1.768c.129.245.034.547-.21.675l-4.012,2.104c-.526.301-1.12.452-1.717.452-.601,0-1.204-.153-1.741-.46l-3.995-2.097c-.244-.128-.339-.431-.21-.675.128-.244.432-.337.675-.21l4.011,2.104c.239.136.496.216.757.269v-9.641L3.146,7.517c-.086.255-.146.519-.146.795v4.688c0,.276-.224.5-.5.5s-.5-.224-.5-.5v-4.688c0-1.253.676-2.417,1.764-3.039l3.994-2.211c.242-.132.545-.047.68.195.134.241.046.546-.195.68l-3.988,2.208c-.233.133-.429.311-.604.507l8.35,4.772,8.35-4.771c-.176-.197-.374-.376-.609-.51l-3.982-2.205c-.241-.134-.329-.438-.195-.68.135-.242.438-.327.68-.195l3.988,2.208c1.094.625,1.77,1.789,1.77,3.042v4.688c0,.276-.224.5-.5.5s-.5-.224-.5-.5v-4.688c0-.276-.06-.54-.146-.795l-8.354,4.773v9.642c.256-.052.508-.13.74-.263l4.027-2.112c.243-.127.546-.034.675.21Zm-9.188-5.338c.237-.141.316-.447.175-.685-.141-.237-.448-.316-.685-.175l-3.361,1.992c-.36-.347-.847-.562-1.384-.562-1.103,0-2,.897-2,2s.897,2,2,2,2-.897,2-2c0-.204-.04-.398-.097-.584l3.352-1.987Zm-5.255,3.57c-.552,0-1-.448-1-1s.448-1,1-1,1,.448,1,1-.448,1-1,1Z"/>
</svg>
