<?xml version="1.0" encoding="UTF-8"?>
<svg xmlns="http://www.w3.org/2000/svg" id="Layer_1" data-name="Layer 1" viewBox="0 0 24 24">
  <path d="m11.002,8.663c.294.224.646.336.998.336s.704-.112.998-.336c1.038-.792,4.002-3.579,4.002-5.913,0-1.517-1.233-2.75-2.75-2.75-.929,0-1.752.463-2.25,1.17-.498-.708-1.321-1.17-2.25-1.17-1.517,0-2.75,1.233-2.75,2.75,0,2.334,2.964,5.121,4.002,5.913Zm-1.252-7.663c.965,0,1.75.785,1.75,1.75,0,.276.224.5.5.5s.5-.224.5-.5c0-.965.785-1.75,1.75-1.75s1.75.785,1.75,1.75c0,1.613-2.153,4.008-3.609,5.118-.23.176-.551.176-.781,0-1.456-1.11-3.609-3.505-3.609-5.118,0-.965.785-1.75,1.75-1.75Zm2.25,11c-1.654,0-3,1.346-3,3s1.346,3,3,3,3-1.346,3-3-1.346-3-3-3Zm0,5c-1.103,0-2-.897-2-2s.897-2,2-2,2,.897,2,2-.897,2-2,2Zm9.854-3.146l-5.854,5.854v3.793c0,.276-.224.5-.5.5s-.5-.224-.5-.5v-3.5h-6v3.5c0,.276-.224.5-.5.5s-.5-.224-.5-.5v-3.793l-5.854-5.854c-.195-.195-.195-.512,0-.707s.512-.195.707,0l5.854,5.854h6.586l5.854-5.854c.195-.195.512-.195.707,0s.195.512,0,.707Z"/>
</svg>
