<?xml version="1.0" encoding="UTF-8"?>
<svg xmlns="http://www.w3.org/2000/svg" id="Layer_1" data-name="Layer 1" viewBox="0 0 24 24">
  <path d="m5,19c0,.552-.448,1-1,1s-1-.448-1-1,.448-1,1-1,1,.448,1,1ZM23.785,6.899c-.341.678-1.024,1.1-1.785,1.1h-5.002c-.015,1.857-.118,3.518-.321,5h1.028c.697,0,1.32.275,1.753.774.433.499.617,1.154.519,1.844-.194,1.358-1.374,2.382-2.746,2.382h-1.729c-.065,0-.126-.013-.183-.035-1.838,3.887-5.329,5.598-11.175,6.034-.095.007-.189.011-.283.011-1.015,0-1.995-.405-2.725-1.135-.797-.798-1.207-1.894-1.124-3.008.237-3.184.852-5.669,1.989-7.57v-.372c0-3.875,2.858-7.205,6.595-7.883.828-.146,1.681.09,2.337.642.679.571,1.068,1.407,1.068,2.293v.229c1.22-.125,2.55-.19,4.001-.203V2c0-.76.421-1.444,1.1-1.785.683-.343,1.49-.271,2.106.185.898.668,1.463,1.545,1.72,2.673,1.128.257,2.004.822,2.673,1.72.458.616.529,1.422.185,2.106ZM3.083,10.833c1.737-1.906,4.291-3.01,7.917-3.508v-.348c0-.591-.26-1.148-.712-1.529-.435-.367-.975-.514-1.526-.421-2.918.529-5.234,2.902-5.679,5.806Zm6.287,11.19c-.776-3.675-3.717-6.611-7.384-7.387-.515,1.467-.823,3.221-.978,5.305-.061.823.243,1.635.834,2.226.591.592,1.409.894,2.226.834,2.083-.155,3.836-.463,5.302-.979Zm6.628-14.021c-7.742.06-11.743,1.538-13.635,5.693,3.914.898,7.05,4.029,7.948,7.951,4.15-1.893,5.627-5.897,5.687-13.643Zm.521,5.998c-.198,1.106-.461,2.104-.795,3h1.506c.877,0,1.632-.655,1.756-1.523.057-.399-.044-.771-.284-1.047-.24-.277-.594-.429-.998-.429h-1.185Zm6.278-8.609c-.58-.78-1.336-1.224-2.378-1.398-.211-.035-.376-.2-.411-.411-.174-1.042-.618-1.798-1.398-2.378-.316-.235-.712-.271-1.061-.094-.343.172-.548.505-.548.891v4.999h4.999c.386,0,.719-.205.891-.548.175-.349.14-.746-.094-1.061Z"/>
</svg>
