<?xml version="1.0" encoding="UTF-8"?>
<svg xmlns="http://www.w3.org/2000/svg" id="Layer_1" data-name="Layer 1" viewBox="0 0 24 24">
  <path d="m19,1c0-.552.448-1,1-1s1,.448,1,1-.448,1-1,1-1-.448-1-1Zm-1,3c.552,0,1-.448,1-1s-.448-1-1-1-1,.448-1,1,.448,1,1,1Zm5-1c-.552,0-1,.448-1,1s.448,1,1,1,1-.448,1-1-.448-1-1-1Zm-2,2c-.552,0-1,.448-1,1s.448,1,1,1,1-.448,1-1-.448-1-1-1Zm-3.519,2.229c1.866,2.19,2.041,5.367.334,7.76-.453.666-1.128,1.057-1.844,1.011-.922-.045-1.688.411-2.348,1.417-.791,1.208-.665,2.004-.411,2.686.331.888.024,1.891-.747,2.439-1.383.981-2.981,1.462-4.57,1.462-2.032,0-4.048-.786-5.581-2.319-.005-.004-.009-.009-.014-.014-2.719-2.733-3.072-6.992-.84-10.136.562-.789,1.593-1.101,2.454-.742.647.27,1.206.504,2.67-.426,1.004-.638,1.467-1.403,1.416-2.339-.038-.688.346-1.391,1.001-1.835,2.4-1.714,5.58-1.54,7.772.33L23.146.146c.195-.195.512-.195.707,0s.195.512,0,.707l-6.372,6.375Zm-.707.708l-5.915,5.917c-.098.098-.226.146-.354.146s-.256-.049-.354-.146c-.195-.195-.195-.512,0-.707l5.915-5.918c-1.841-1.524-4.482-1.654-6.475-.23-.385.262-.611.645-.594.974.072,1.311-.56,2.4-1.878,3.238-1.601,1.016-2.497.961-3.591.504-.435-.179-.961-.014-1.255.398-1.855,2.612-1.641,6.094.428,8.483l1.449-1.449c.195-.195.512-.195.707,0s.195.512,0,.707l-1.449,1.449c2.388,2.063,5.865,2.275,8.476.422.402-.286.562-.81.389-1.274-.31-.832-.532-1.99.513-3.583.859-1.312,1.956-1.944,3.24-1.867.331.009.708-.205.955-.567,1.439-2.017,1.312-4.656-.209-6.497Zm-9.915,7.21c-.195-.195-.512-.195-.707,0s-.195.512,0,.707l2,2c.098.098.226.146.354.146s.256-.049.354-.146c.195-.195.195-.512,0-.707l-2-2Z"/>
</svg>
