<?xml version="1.0" encoding="UTF-8"?>
<svg xmlns="http://www.w3.org/2000/svg" id="Layer_1" data-name="Layer 1" viewBox="0 0 24 24">
  <path d="m19.416,16.101l-2.55,2.74c-.188.202-.504.214-.707.025-.202-.188-.213-.505-.025-.707l2.533-2.721c.459-.547.445-1.39-.049-1.94-.267-.298-.634-.475-1.032-.496-.395-.01-.782.113-1.08.38l-3.204,3.239c-.84.849-1.302,1.973-1.302,3.165v3.714c0,.276-.224.5-.5.5s-.5-.224-.5-.5v-3.714c0-1.458.565-2.832,1.591-3.868l3.226-3.26c.52-.467,1.158-.7,1.824-.654.666.036,1.277.33,1.722.826.824.919.848,2.325.054,3.271ZM21.5,0h-5c-1.379,0-2.5,1.121-2.5,2.5v8c0,.276.224.5.5.5s.5-.224.5-.5V2.5c0-.827.673-1.5,1.5-1.5h5c.827,0,1.5.673,1.5,1.5v9c0,.542-.294,1.043-.768,1.31-.24.135-.326.439-.19.681.092.163.261.255.436.255.083,0,.167-.021.245-.064.788-.442,1.277-1.278,1.277-2.181V2.5c0-1.379-1.121-2.5-2.5-2.5Zm-13,23h-4c-1.93,0-3.5-1.57-3.5-3.5V4.5c0-1.93,1.57-3.5,3.5-3.5h8c.276,0,.5-.224.5-.5s-.224-.5-.5-.5H4.5C2.019,0,0,2.019,0,4.5v15c0,2.481,2.019,4.5,4.5,4.5h4c.276,0,.5-.224.5-.5s-.224-.5-.5-.5ZM5.3,5h6.2c.276,0,.5-.224.5-.5s-.224-.5-.5-.5h-6.2c-.717,0-1.3.583-1.3,1.3v1.4c0,.717.583,1.3,1.3,1.3h6.2c.276,0,.5-.224.5-.5s-.224-.5-.5-.5h-6.2c-.165,0-.3-.135-.3-.3v-1.4c0-.165.135-.3.3-.3Zm.2,5h-1c-.276,0-.5.224-.5.5s.224.5.5.5h1c.276,0,.5-.224.5-.5s-.224-.5-.5-.5Zm0,3h-1c-.276,0-.5.224-.5.5s.224.5.5.5h1c.276,0,.5-.224.5-.5s-.224-.5-.5-.5Zm4-3h-1c-.276,0-.5.224-.5.5s.224.5.5.5h1c.276,0,.5-.224.5-.5s-.224-.5-.5-.5Zm0,3h-1c-.276,0-.5.224-.5.5s.224.5.5.5h1c.276,0,.5-.224.5-.5s-.224-.5-.5-.5Zm-4,3h-1c-.276,0-.5.224-.5.5s.224.5.5.5h1c.276,0,.5-.224.5-.5s-.224-.5-.5-.5Zm4,0h-1c-.276,0-.5.224-.5.5s.224.5.5.5h1c.276,0,.5-.224.5-.5s-.224-.5-.5-.5Zm-4,3h-1c-.276,0-.5.224-.5.5s.224.5.5.5h1c.276,0,.5-.224.5-.5s-.224-.5-.5-.5Zm18-4c-.276,0-.5.224-.5.5v1.099c0,1.438-.486,2.855-1.369,3.99l-2.025,2.604c-.17.218-.131.532.088.701.091.071.199.105.307.105.148,0,.296-.066.395-.193l2.025-2.604c1.019-1.309,1.58-2.944,1.58-4.604v-1.099c0-.276-.224-.5-.5-.5Z"/>
</svg>
