<?xml version="1.0" encoding="UTF-8"?>
<svg xmlns="http://www.w3.org/2000/svg" id="Layer_1" data-name="Layer 1" viewBox="0 0 24 24">
  <path d="m12,0C5.383,0,0,5.383,0,12s5.383,12,12,12,12-5.383,12-12S18.617,0,12,0Zm0,23c-6.065,0-11-4.935-11-11S5.935,1,12,1s11,4.935,11,11-4.935,11-11,11Zm7-11c0,.276-.224.5-.5.5h-2v2c0,.276-.224.5-.5.5s-.5-.224-.5-.5v-2h-2c-.276,0-.5-.224-.5-.5s.224-.5.5-.5h2v-2c0-.276.224-.5.5-.5s.5.224.5.5v2h2c.276,0,.5.224.5.5Zm-7,2c0,1.654-1.346,3-3,3h-2.5c-.276,0-.5-.224-.5-.5s.224-.5.5-.5h2.5c1.103,0,2-.897,2-2s-.897-2-2-2h-1.5c-.276,0-.5-.224-.5-.5s.224-.5.5-.5h1.5c.827,0,1.5-.673,1.5-1.5s-.673-1.5-1.5-1.5h-2.5c-.276,0-.5-.224-.5-.5s.224-.5.5-.5h2.5c1.379,0,2.5,1.122,2.5,2.5,0,.79-.375,1.487-.949,1.945.865.527,1.449,1.47,1.449,2.555Z"/>
</svg>
