<?xml version="1.0" encoding="UTF-8"?>
<svg xmlns="http://www.w3.org/2000/svg" id="Layer_1" data-name="Layer 1" viewBox="0 0 24 24">
  <path d="m12,7.5c1.103,0,2-.897,2-2s-.897-2-2-2-2,.897-2,2,.897,2,2,2Zm0-3c.551,0,1,.448,1,1s-.449,1-1,1-1-.448-1-1,.449-1,1-1Zm-1.903,6.68c.511.498,1.187.772,1.903.772s1.392-.274,1.892-.763l1.996-1.836c1.039-1.035,1.611-2.411,1.611-3.875s-.572-2.84-1.611-3.875h0c-1.039-1.034-2.419-1.604-3.888-1.604s-2.849.569-3.889,1.604c-1.039,1.035-1.611,2.411-1.611,3.875s.572,2.84,1.626,3.889l1.971,1.812Zm-1.28-8.867c.851-.847,1.981-1.312,3.183-1.312s2.333.466,3.183,1.312c.849.846,1.317,1.97,1.317,3.166s-.468,2.32-1.303,3.152l-1.992,1.832c-.646.631-1.751.641-2.42-.01l-1.967-1.809c-.85-.846-1.317-1.97-1.317-3.166s.468-2.32,1.317-3.166Zm15.153,16.812l-1.023-8.697c-.185-1.566-1.532-3.395-3.387-3.615-.273-.043-.523.163-.556.437-.033.274.163.523.438.556,1.309.156,2.375,1.569,2.512,2.74l.128,1.09-11.687,5.565L2.225,9.875c.374-.984,1.269-1.944,2.334-2.072.274-.032.47-.281.438-.556-.033-.273-.281-.481-.556-.437-1.855.221-3.203,2.049-3.387,3.615L.03,19.124c-.146,1.237.246,2.48,1.074,3.411s2.017,1.465,3.262,1.465h15.268c1.245,0,2.435-.534,3.262-1.465s1.219-2.174,1.074-3.411ZM1.852,21.871c-.638-.718-.94-1.677-.828-2.63l.969-8.232,13.374,11.991H4.366c-.96,0-1.876-.411-2.515-1.129Zm20.297,0c-.638.718-1.555,1.129-2.515,1.129h-2.77l-5.663-5.078,11.004-5.24.772,6.559c.112.953-.19,1.912-.828,2.63Z"/>
</svg>
