<?xml version="1.0" encoding="UTF-8"?>
<svg xmlns="http://www.w3.org/2000/svg" id="Layer_1" data-name="Layer 1" viewBox="0 0 24 24">
  <path d="m21.488,14.051l.011-4.101c1.416-.239,2.501-1.466,2.501-2.95,0-1.654-1.346-3-3-3-.999,0-1.879.495-2.424,1.248l-3.601-2.001c.007-.083.025-.162.025-.247,0-1.654-1.346-3-3-3s-3,1.346-3,3c0,.086.018.168.026.252l-3.616,1.978c-.547-.742-1.419-1.23-2.409-1.23-1.654,0-3,1.346-3,3,0,1.483,1.083,2.709,2.499,2.949l-.011,4.101C1.071,14.29-.014,15.516-.014,17c0,1.654,1.346,3,3,3,.99,0,1.863-.488,2.409-1.23l3.616,1.978c-.007.084-.025.166-.025.252,0,1.654,1.346,3,3,3s3-1.346,3-3c0-.084-.018-.163-.025-.245l3.616-1.984c.547.742,1.419,1.229,2.409,1.229,1.654,0,3-1.346,3-3,0-1.483-1.083-2.709-2.499-2.949Zm-.488-9.051c1.103,0,2,.897,2,2s-.897,2-2,2-2-.897-2-2,.897-2,2-2ZM12,1c1.103,0,2,.897,2,2s-.897,2-2,2-2-.897-2-2,.897-2,2-2ZM1,7c0-1.103.897-2,2-2s2,.897,2,2-.897,2-2,2-2-.897-2-2Zm1.986,12c-1.103,0-2-.897-2-2s.897-2,2-2,2,.897,2,2-.897,2-2,2Zm9,4c-1.103,0-2-.897-2-2s.897-2,2-2,2,.897,2,2-.897,2-2,2Zm2.721-3.247c-.475-1.032-1.512-1.753-2.721-1.753s-2.242.72-2.718,1.749l-3.427-1.875c.086-.279.145-.568.145-.874,0-1.483-1.083-2.709-2.499-2.949l.011-4.101c1.416-.239,2.501-1.466,2.501-2.95,0-.306-.06-.596-.145-.874l3.427-1.874c.476,1.029,1.512,1.749,2.718,1.749s2.244-.721,2.719-1.751l3.419,1.9c-.081.272-.138.554-.138.851,0,1.483,1.083,2.709,2.499,2.949l-.011,4.101c-1.416.239-2.501,1.466-2.501,2.95,0,.306.06.596.145.874l-3.425,1.879Zm6.279-.753c-1.103,0-2-.897-2-2s.897-2,2-2,2,.897,2,2-.897,2-2,2Zm-5.994-9.865l-2.001-1.144c-.614-.351-1.374-.35-1.985,0l-2,1.143c-.621.356-1.007,1.021-1.006,1.737v2.498c0,.716.387,1.38,1.008,1.735l1.999,1.144c.307.175.65.263.993.263s.687-.087.992-.262l2-1.144c.622-.355,1.008-1.021,1.008-1.737v-2.498c0-.715-.387-1.38-1.008-1.735Zm-3.49-.275c.153-.088.325-.131.497-.131s.343.043.496.131l2.001,1.144c.059.034.11.078.16.122l-2.614,1.47c-.014-.001-.026-.008-.04-.008s-.026.007-.04.008l-2.618-1.472c.05-.044.099-.087.158-.121l1.999-1.143Zm-1.998,5.376c-.31-.177-.503-.51-.503-.867v-2.292s2.502,1.407,2.502,1.407v2.895l-1.999-1.143Zm4.993,0l-1.994,1.14v-2.892l2.498-1.405v2.289c0,.358-.192.69-.503.868Z"/>
</svg>
