<?xml version="1.0" encoding="UTF-8"?>
<svg xmlns="http://www.w3.org/2000/svg" id="Layer_1" data-name="Layer 1" viewBox="0 0 24 24">
  <path d="m23.995,4.487c-.063-1.342-.673-2.555-1.715-3.416-1.846-1.522-4.677-1.331-6.446.438L4.136,13.206c-1.138,1.138-1.22,3.551-1.089,5.375.011.15-.042.295-.144.397l-2.461,2.461c-.585.585-.585,1.536,0,2.121.283.283.66.439,1.061.439s.777-.156,1.061-.439l2.461-2.461c.104-.104.239-.152.398-.144,2.652.189,4.461-.177,5.374-1.09l11.824-11.824c.936-.936,1.437-2.231,1.374-3.555Zm-2.081,2.848l-11.824,11.824c-.679.68-2.31.962-4.595.799-.443-.026-.869.126-1.177.435l-2.461,2.461c-.189.189-.518.189-.707,0-.094-.095-.146-.22-.146-.354s.052-.259.146-.354l2.461-2.461c.308-.309.466-.737.434-1.177-.164-2.284.12-3.916.799-4.596l1.183-1.183,2.122,2.122c.098.098.226.146.354.146s.256-.049.354-.146c.195-.195.195-.512,0-.707l-2.122-2.122,2.293-2.293,2.122,2.122c.098.098.226.146.354.146s.256-.049.354-.146c.195-.195.195-.512,0-.707l-2.122-2.122,2.293-2.293,2.122,2.122c.098.098.226.146.354.146s.256-.049.354-.146c.195-.195.195-.512,0-.707l-2.122-2.122,2.293-2.293,2.122,2.122c.098.098.226.146.354.146s.256-.049.354-.146c.195-.195.195-.512,0-.707l-2.122-2.122.807-.807c.777-.777,1.807-1.176,2.818-1.176.822,0,1.633.264,2.284.802.822.68,1.303,1.636,1.353,2.692.05,1.042-.345,2.062-1.082,2.8Z"/>
</svg>
