<?xml version="1.0" encoding="UTF-8"?>
<svg xmlns="http://www.w3.org/2000/svg" id="Layer_1" data-name="Layer 1" viewBox="0 0 24 24">
  <path d="m19.767,11.892c-.529-.443-1.03-.863-1.413-1.246-.098-.098-.232-.165-.371-.146-.139.005-.27.067-.36.172-.852.983-1.134,2.09-1.361,2.98-.274,1.076-.396,1.347-.799,1.347-.247,0-.46-.825-.462-1.5,0-.204-.124-.387-.313-.463-.193-.078-.405-.03-.547.115-.977,1.008-2.141,2.689-2.141,4.973,0,3.309,2.691,6,6,6s6-2.691,6-6c0-2.688-2.348-4.653-4.233-6.233Zm-.353,10.647c-.291.291-.914.575-1.414.575s-1.124-.284-1.415-.575c-.779-.781-.779-2.051,0-2.831l1.415-1.415,1.414,1.415c.779.781.78,2.05,0,2.83Zm1.348-.253c.457-1.09.245-2.397-.641-3.284l-1.768-1.768c-.094-.094-.221-.146-.354-.146s-.26.053-.354.146l-1.769,1.768c-.886.886-1.097,2.193-.64,3.284-1.347-.897-2.238-2.426-2.238-4.162,0-1.415.532-2.568,1.148-3.428.197.724.605,1.303,1.313,1.303,1.232,0,1.505-1.067,1.769-2.1.176-.688.37-1.454.831-2.154.324.293.687.597,1.063.912,1.727,1.446,3.875,3.246,3.875,5.466,0,1.736-.891,3.265-2.238,4.162Zm-.762-22.287H4C1.798,0-.002,1.801,0,4.003l.002,2.809.71,9.041c.12,1.531,1.024,2.83,2.288,3.548v1.6c0,1.657,1.343,3,3,3s3-1.343,3-3v-1h.5c.276,0,.5-.224.5-.5s-.224-.5-.5-.5h-4.303c-1.827,0-3.346-1.405-3.489-3.226l-.612-7.774h21.806l-.272,3.461c-.022.275.184.516.459.538.273.02.516-.184.537-.459l.373-4.766v-2.773c0-2.209-1.791-4-4-4ZM4,19.816c.385.108.782.184,1.198.184h2.802v1c0,.564-.24,1.104-.658,1.483-.425.384-.972.563-1.55.506-1.005-.101-1.792-1.037-1.792-2.132v-1.042Zm0-12.816H1.018l-.018-3c0-1.654,1.346-3,3-3v6Zm5,0h-4V1h4v6Zm5,0h-4V1h4v6Zm5,0h-4V1h4v6Zm3.981,0h-2.981V1c1.654,0,3,1.346,3,3l-.019,3Z"/>
</svg>
