<?xml version="1.0" encoding="UTF-8"?>
<svg xmlns="http://www.w3.org/2000/svg" id="Layer_1" data-name="Layer 1" viewBox="0 0 24 24">
  <path d="m20.625,6.288c.31-.714.437-1.503.345-2.303-.157-1.374-.936-2.59-2.135-3.337-1.381-.86-3.18-.882-4.58-.055-.187.111-.363.231-.527.36-1.67,1.314-3.52,2.022-5.348,2.048-.407.005-.82.041-1.228.104C3.424,3.689.435,6.839.046,10.597c-.266,2.576.625,5.096,2.444,6.915.936.936,2.062,1.617,3.281,2.03l.736,4.048c.043.242.254.411.491.411.03,0,.06-.002.09-.008.272-.049.452-.31.402-.581l-.65-3.574c.544.108,1.102.163,1.666.163.298,0,.598-.016.899-.046.475-.049.94-.14,1.392-.268l.71,3.904c.043.242.254.411.491.411.03,0,.06-.002.09-.008.272-.049.452-.31.402-.581l-.74-4.068c2.679-1.127,4.713-3.609,5.152-6.554.083-.552.112-1.112.088-1.663-.05-1.143.485-2.135,1.363-2.528.181-.081.348-.186.516-.29,3.036,1.861,3.856,6.723,4.038,8.237.031.26.251.456.513.456.29,0,.525-.239.517-.529-.148-5.768-2.677-9.365-3.313-10.182Zm-2.68,1.397c-1.255.562-2.021,1.93-1.953,3.485.021.487-.005.982-.078,1.471-.401,2.694-2.842,5.961-6.612,6.317-2.892.273-5.222-1.271-6.105-2.154-1.605-1.604-2.391-3.83-2.156-6.105.342-3.313,2.978-6.091,6.267-6.605.361-.057.727-.088,1.086-.093,2.05-.029,4.108-.811,5.952-2.261.13-.102.27-.198.418-.286.529-.312,1.131-.468,1.734-.468.63,0,1.261.171,1.808.511.939.585,1.547,1.534,1.67,2.603.123,1.068-.243,2.117-1.002,2.875-.3.3-.646.539-1.029.71Zm.054-3.685c0,.552-.448,1-1,1s-1-.448-1-1,.448-1,1-1,1,.448,1,1Z"/>
</svg>
