<?xml version="1.0" encoding="UTF-8"?>
<svg xmlns="http://www.w3.org/2000/svg" id="Layer_1" data-name="Layer 1" viewBox="0 0 24 24">
  <path d="m21,12c0,.276-.224.5-.5.5h-2v2c0,.276-.224.5-.5.5s-.5-.224-.5-.5v-2h-2c-.276,0-.5-.224-.5-.5s.224-.5.5-.5h2v-2c0-.276.224-.5.5-.5s.5.224.5.5v2h2c.276,0,.5.224.5.5Zm3,0c0,6.617-5.383,12-12,12S0,18.617,0,12,5.383,0,12,0s12,5.383,12,12Zm-1,0c0-6.065-4.935-11-11-11S1,5.935,1,12s4.935,11,11,11,11-4.935,11-11Zm-9.5,4h-4.113c-.227,0-.325-.174-.35-.227-.029-.062-.082-.22.042-.368.376-.451,1.023-.828,1.708-1.227,1.454-.848,3.263-1.901,3.212-4.283-.034-1.597-1.379-2.896-2.999-2.896-1.421,0-2.658,1.01-2.94,2.4-.055.271.12.534.391.59.269.056.535-.119.589-.391.188-.927,1.013-1.6,1.96-1.6,1.08,0,1.977.86,1.999,1.917.038,1.793-1.299,2.572-2.716,3.397-.763.444-1.483.864-1.972,1.45-.336.402-.405.951-.18,1.432.231.496.713.804,1.256.804h4.113c.276,0,.5-.224.5-.5s-.224-.5-.5-.5ZM5.487,7.056c-.312-.12-.659-.042-.887.206l-1.732,1.901c-.186.204-.171.521.033.707.206.186.521.172.707-.033l1.393-1.529v8.192c0,.276.224.5.5.5s.5-.224.5-.5V7.807c0-.334-.201-.629-.513-.751Z"/>
</svg>
