<?xml version="1.0" encoding="UTF-8"?>
<svg xmlns="http://www.w3.org/2000/svg" id="Layer_1" data-name="Layer 1" viewBox="0 0 24 24">
  <path d="m12,8c-2.206,0-4,1.794-4,4s1.794,4,4,4,4-1.794,4-4-1.794-4-4-4Zm0,7c-1.654,0-3-1.346-3-3s1.346-3,3-3,3,1.346,3,3-1.346,3-3,3Zm9.65-2.982c0-.012,0-.024,0-.036-.006-.181.029-.447.233-.686.72-.839,1.117-1.908,1.117-3.009,0-2.582-2.108-4.682-4.7-4.682-.264,0-.529.023-.789.068-.471.088-.938-.163-1.085-.572-.667-1.855-2.446-3.102-4.426-3.102s-3.758,1.247-4.425,3.102c-.147.409-.613.661-1.086.572-.259-.045-.524-.068-.789-.068-2.592,0-4.7,2.1-4.7,4.682,0,1.101.396,2.169,1.116,3.008.205.239.24.505.233.723.006.181-.029.447-.233.686-.72.839-1.117,1.908-1.117,3.009,0,2.582,2.108,4.682,4.7,4.682.264,0,.529-.023.789-.068.471-.085.938.163,1.085.572.667,1.855,2.446,3.102,4.426,3.102s3.758-1.247,4.425-3.102c.147-.409.617-.655,1.086-.572.259.045.524.068.789.068,2.592,0,4.7-2.1,4.7-4.682,0-1.101-.396-2.169-1.116-3.008-.205-.239-.24-.505-.233-.687Zm-3.351,7.376c-.21,0-.416-.019-.616-.054-.96-.167-1.884.344-2.2,1.218-.525,1.46-1.925,2.441-3.484,2.441s-2.959-.981-3.485-2.441c-.274-.763-1.013-1.25-1.835-1.25-.12,0-.77.085-.98.085-2.041,0-3.7-1.651-3.7-3.682,0-.862.311-1.7.876-2.358.323-.378.491-.866.473-1.337.019-.507-.149-.995-.473-1.374-.564-.658-.875-1.495-.875-2.357,0-2.03,1.66-3.682,3.7-3.682.21,0,.416.019.616.054.963.172,1.885-.344,2.2-1.218.525-1.46,1.925-2.441,3.484-2.441s2.959.981,3.485,2.441c.314.875,1.238,1.389,2.199,1.218.2-.035.405-.054.616-.054,2.041,0,3.7,1.651,3.7,3.682,0,.862-.311,1.7-.876,2.358-.319.374-.487.854-.473,1.355-.014.501.154.981.474,1.355.564.658.875,1.495.875,2.357,0,2.03-1.66,3.682-3.7,3.682Z"/>
</svg>
