<?xml version="1.0" encoding="UTF-8"?>
<svg xmlns="http://www.w3.org/2000/svg" id="Layer_1" data-name="Layer 1" viewBox="0 0 24 24">
  <path d="m14.616,11.993l8.558-7.359c.796-.735,1.04-1.833.636-2.864-.421-1.075-1.427-1.77-2.564-1.77H2.754C1.618,0,.611.694.19,1.77-.213,2.801.03,3.898.871,4.675l8.502,7.31c.615.559,1.36.876,2.126.977v10.039h-5c-.276,0-.5.224-.5.5s.224.5.5.5h11c.276,0,.5-.224.5-.5s-.224-.5-.5-.5h-5v-10.038c.764-.099,1.506-.414,2.116-.969ZM1.505,3.899c-.494-.457-.637-1.116-.383-1.765.27-.689.911-1.135,1.633-1.135h18.491c.722,0,1.363.445,1.633,1.135.254.648.111,1.308-.402,1.782l-8.523,7.327c-.555.504-1.25.756-1.947.757-.002,0-.004-.001-.007-.001-.003,0-.005.002-.008.002-.698-.003-1.396-.258-1.956-.766L1.505,3.899Z"/>
</svg>
