<?xml version="1.0" encoding="UTF-8"?>
<svg xmlns="http://www.w3.org/2000/svg" id="Layer_1" data-name="Layer 1" viewBox="0 0 24 24">
  <path d="m16.5,0h-6.343c-1.202,0-2.333.468-3.183,1.318l-2.656,2.657c-.838.838-1.318,1.998-1.318,3.182v12.343c0,2.481,2.019,4.5,4.5,4.5h9c2.481,0,4.5-2.019,4.5-4.5V4.5c0-2.481-2.019-4.5-4.5-4.5Zm3.5,19.5c0,1.93-1.57,3.5-3.5,3.5H7.5c-1.93,0-3.5-1.57-3.5-3.5V7.157c0-.921.374-1.823,1.025-2.475l2.656-2.657c.661-.661,1.54-1.025,2.476-1.025h6.343c1.93,0,3.5,1.57,3.5,3.5v15Zm-2-16v3c0,.276-.224.5-.5.5s-.5-.224-.5-.5v-3c0-.276.224-.5.5-.5s.5.224.5.5Zm-2,0v3c0,.276-.224.5-.5.5s-.5-.224-.5-.5v-3c0-.276.224-.5.5-.5s.5.224.5.5Zm-2,0v3c0,.276-.224.5-.5.5s-.5-.224-.5-.5v-3c0-.276.224-.5.5-.5s.5.224.5.5Zm-2,0v3c0,.276-.224.5-.5.5s-.5-.224-.5-.5v-3c0-.276.224-.5.5-.5s.5.224.5.5Zm-2,0v3c0,.276-.224.5-.5.5s-.5-.224-.5-.5v-3c0-.276.224-.5.5-.5s.5.224.5.5Z"/>
</svg>
