<?xml version="1.0" encoding="UTF-8"?>
<svg xmlns="http://www.w3.org/2000/svg" id="Layer_1" data-name="Layer 1" viewBox="0 0 24 24">
  <path d="m5.5,13h.007c1.378-.003,2.496-1.128,2.493-2.507-.003-1.376-1.125-2.493-2.5-2.493h-.007c-1.378.003-2.496,1.128-2.493,2.507.003,1.376,1.125,2.493,2.5,2.493Zm-.005-4h.004c.826,0,1.499.67,1.5,1.496.002.827-.668,1.502-1.496,1.504h-.004c-.826,0-1.499-.67-1.5-1.496-.002-.827.668-1.502,1.496-1.504Zm11.482,9h3.522c.276,0,.5-.224.5-.5s-.224-.5-.5-.5h-3.522c-.698,0-1.369.295-1.84.809l-3.27,3.558-2.854-6.897,2.685-.358c.742-.099,1.302-.737,1.302-1.487v-4.125c0-.276-.224-.5-.5-.5s-.5.224-.5.5v4.125c0,.25-.186.462-.434.495l-6.566.881H1.5c-.276,0-.5-.225-.5-.5v-4c0-.276-.224-.5-.5-.5s-.5.224-.5.5v4c0,.827.673,1.5,1.5,1.5l2.496-.003,3.188,7.462c.472,1.12,1.676,1.739,2.882,1.46l5.06-1.404c.288-.078.589-.072.873.021l4.345,1.438c.052.018.105.025.157.025.21,0,.405-.133.475-.343.087-.263-.055-.545-.317-.632l-4.344-1.438c-.473-.157-.975-.17-1.456-.035l-2.421.672,3.437-3.74c.283-.308.685-.484,1.104-.484Zm-7.157,4.95c-.71.161-1.432-.208-1.716-.882l-3.022-7.074,2.905-.388,3.286,7.941-1.453.403Zm14.179-14.341c0,.188-.105.359-.271.445l-2.344,1.205c-.562.289-.836.937-.654,1.541l.763,2.524c.056.186,0,.387-.145.517-.144.13-.35.166-.529.088l-2.242-.951c-.322-.136-.677-.139-1-.009-.324.131-.577.38-.714.701-.081.19-.266.305-.46.305-.065,0-.132-.013-.196-.04-.254-.107-.373-.401-.264-.655.241-.567.688-1.007,1.259-1.237.572-.232,1.199-.225,1.766.016l1.259.534-.454-1.502c-.322-1.066.163-2.209,1.154-2.719l1.479-.76-1.479-.76c-.991-.51-1.476-1.653-1.154-2.72l.454-1.502-1.259.535c-1.171.497-2.528-.052-3.025-1.223l-.534-1.259-.717,1.395c-.509.99-1.655,1.476-2.719,1.154l-1.502-.454.535,1.259c.152.359.211.753.171,1.14-.029.274-.276.474-.549.445-.275-.028-.474-.274-.445-.549.022-.219-.011-.442-.098-.646l-.951-2.242c-.076-.179-.041-.385.088-.529.129-.146.332-.202.517-.145l2.523.763c.603.184,1.252-.092,1.541-.654l1.205-2.344c.089-.172.256-.285.463-.271.194.007.366.125.442.304l.951,2.242c.281.663,1.052.975,1.714.692l2.242-.951c.179-.075.385-.041.529.088.145.129.201.331.145.517l-.763,2.523c-.183.604.092,1.252.654,1.541l2.344,1.205c.167.086.271.257.271.445Z"/>
</svg>
