<?xml version="1.0" encoding="UTF-8"?>
<svg xmlns="http://www.w3.org/2000/svg" id="Layer_1" data-name="Layer 1" viewBox="0 0 24 24">
  <path d="m9.853,24.002c-2.936,0-5.44-.918-7.188-2.666C-1.939,16.731-.095,7.47,4.501,2.873l1.394-1.394c1.97-1.972,5.179-1.972,7.15,0,.926.926,1.402,1.966,1.455,3.18.049,1.122-.293,2.315-1.017,3.547-.423.719-.782,1.721-.094,2.409.547.547,1.356.513,2.407-.105,1.226-.719,2.422-1.053,3.544-1.01,1.219.053,2.259.526,3.179,1.446,1.971,1.971,1.971,5.179,0,7.151l-1.394,1.394c-2.249,2.249-5.674,3.88-9.162,4.362-.724.1-1.43.149-2.111.149Zm-.383-23.003c-1.083,0-2.102.422-2.868,1.188l-1.394,1.394C.958,7.831-.724,16.533,3.372,20.629c1.926,1.927,4.931,2.72,8.455,2.232,3.28-.453,6.492-1.978,8.592-4.078l1.394-1.394c1.582-1.582,1.582-4.155,0-5.737-.745-.745-1.544-1.112-2.515-1.154-.934-.037-1.939.254-2.994.874-1.45.852-2.735.835-3.621-.05s-.912-2.176-.062-3.623c.625-1.063.92-2.071.88-2.997-.042-.965-.412-1.765-1.163-2.516-.766-.766-1.785-1.188-2.868-1.188Z"/>
</svg>
