<?xml version="1.0" encoding="UTF-8"?>
<svg xmlns="http://www.w3.org/2000/svg" id="Layer_1" data-name="Layer 1" viewBox="0 0 24 24">
  <path d="m15.5,16c-.276,0-.5.224-.5.5v.5H1V4.5c0-1.93,1.57-3.5,3.5-3.5h8c.276,0,.5-.224.5-.5s-.224-.5-.5-.5H4.5C2.019,0,0,2.019,0,4.5v15c0,2.481,2.019,4.5,4.5,4.5h7c2.481,0,4.5-2.019,4.5-4.5v-3c0-.276-.224-.5-.5-.5Zm-4,7h-7c-1.93,0-3.5-1.57-3.5-3.5v-1.5h14v1.5c0,1.93-1.57,3.5-3.5,3.5Zm3.854-15.623l-1.146,1.146,1.146,1.146c.195.195.195.512,0,.707-.098.098-.226.146-.354.146s-.256-.049-.354-.146l-1.146-1.146-1.146,1.146c-.098.098-.226.146-.354.146s-.256-.049-.354-.146c-.195-.195-.195-.512,0-.707l1.146-1.146-1.146-1.146c-.195-.195-.195-.512,0-.707s.512-.195.707,0l1.146,1.146,1.146-1.146c.195-.195.512-.195.707,0s.195.512,0,.707Zm6.019,0l-1.146,1.146,1.146,1.146c.195.195.195.512,0,.707-.098.098-.226.146-.354.146s-.256-.049-.354-.146l-1.146-1.146-1.146,1.146c-.098.098-.226.146-.354.146s-.256-.049-.354-.146c-.195-.195-.195-.512,0-.707l1.146-1.146-1.146-1.146c-.195-.195-.195-.512,0-.707s.512-.195.707,0l1.146,1.146,1.146-1.146c.195-.195.512-.195.707,0s.195.512,0,.707Zm-11.998,0l-1.146,1.146,1.146,1.146c.195.195.195.512,0,.707-.098.098-.226.146-.354.146s-.256-.049-.354-.146l-1.146-1.146-1.146,1.146c-.098.098-.226.146-.354.146s-.256-.049-.354-.146c-.195-.195-.195-.512,0-.707l1.146-1.146-1.146-1.146c-.195-.195-.195-.512,0-.707s.512-.195.707,0l1.146,1.146,1.146-1.146c.195-.195.512-.195.707,0s.195.512,0,.707Zm11.126-4.377H6.5c-1.93,0-3.5,1.57-3.5,3.5v4c0,1.93,1.57,3.5,3.5,3.5h14c1.93,0,3.5-1.57,3.5-3.5v-4c0-1.93-1.57-3.5-3.5-3.5Zm2.5,7.5c0,1.378-1.121,2.5-2.5,2.5H6.5c-1.379,0-2.5-1.122-2.5-2.5v-4c0-1.378,1.121-2.5,2.5-2.5h14c1.379,0,2.5,1.122,2.5,2.5v4Z"/>
  <path d="m9.5,20c0,.276-.224.5-.5.5h-2c-.276,0-.5-.224-.5-.5s.224-.5.5-.5h2c.276,0,.5.224.5.5Z"/>
</svg>
