<?xml version="1.0" encoding="UTF-8"?>
<svg xmlns="http://www.w3.org/2000/svg" id="Layer_1" data-name="Layer 1" viewBox="0 0 24 24">
  <path d="m23.707,5.568c-.134-.499-.511-.877-1.009-1.009-.491-.131-1,.006-1.357.369l-3.556,3.587c-.645.646-1.695.644-2.339,0-.312-.312-.484-.728-.484-1.17s.172-.856.486-1.171l3.543-3.573c.358-.361.492-.871.358-1.362-.136-.496-.514-.869-1.012-.999-1.058-.275-2.149-.314-3.244-.116-2.927.532-5.32,2.843-5.954,5.751-.257,1.177-.229,2.359.082,3.512.153.566.016,1.133-.368,1.515L.954,18.777c-1.136,1.134-1.271,2.942-.307,4.117.54.658,1.353,1.105,2.331,1.105.794,0,1.563-.315,2.127-.878l8.021-8c.379-.378.939-.516,1.5-.368,1.16.306,2.347.323,3.524.054,2.899-.659,5.188-3.066,5.695-5.987.191-1.1.145-2.193-.139-3.252Zm-.846,3.08c-.439,2.529-2.421,4.613-4.932,5.185-1.021.23-2.046.218-3.048-.046-.907-.237-1.827-.004-2.46.627l-8.021,7.999c-.4.399-.954.613-1.521.584-.573-.028-1.091-.29-1.458-.737-.641-.781-.535-2,.241-2.774l7.897-7.875c.64-.639.875-1.567.627-2.483-.27-.997-.293-2.02-.07-3.039.549-2.519,2.621-4.52,5.155-4.979.399-.072.797-.108,1.192-.108.547,0,1.09.069,1.622.207.212.056.28.226.299.296.019.068.046.243-.103.395l-3.542,3.572c-.501.501-.777,1.167-.777,1.876s.276,1.376.777,1.877c1.035,1.036,2.719,1.035,3.754-.002l3.558-3.589c.149-.149.322-.124.39-.105.071.019.242.086.3.302.246.916.286,1.865.12,2.82Z"/>
</svg>
