<?xml version="1.0" encoding="UTF-8"?>
<svg xmlns="http://www.w3.org/2000/svg" id="Layer_1" data-name="Layer 1" viewBox="0 0 24 24">
  <path d="m20.95,4.938c-.477-.596-1.188-.938-1.951-.938h-5.434l.204-1.672c.092-.75.73-1.317,1.486-1.318l4.245-.01c.276,0,.5-.225.499-.501s-.225-.499-.5-.499h0l-4.245.01c-1.26.002-2.324.947-2.477,2.197l-.219,1.793h-7.557c-.763,0-1.473.341-1.95.936-.477.594-.655,1.36-.499,2.055l1.536,13.036c.267,2.266,2.188,3.974,4.469,3.974h6.887c2.281,0,4.202-1.708,4.469-3.974l1.527-12.981c.166-.744-.012-1.513-.489-2.107Zm-1.951.062c.458,0,.885.205,1.171.562s.394.817.285,1.314l-.368,3.123h-7.254l.61-5h5.556Zm-15.168.562c.286-.357.713-.562,1.17-.562h7.435l-.61,5H3.911l-.375-3.177c-.099-.445.009-.906.295-1.262Zm15.089,14.348c-.208,1.762-1.702,3.091-3.477,3.091h-6.887c-1.774,0-3.269-1.329-3.477-3.091l-1.051-8.909h15.94l-1.049,8.909Zm-6.529-6.348l-.867,6.96c-.031.253-.247.438-.495.438-.021,0-.042,0-.062-.004-.274-.034-.469-.284-.435-.558l.867-6.96c.033-.274.284-.478.558-.435.274.034.469.284.435.558Z"/>
</svg>
