<?xml version="1.0" encoding="UTF-8"?>
<svg xmlns="http://www.w3.org/2000/svg" id="Layer_1" data-name="Layer 1" viewBox="0 0 24 24">
  <path d="m20.002,7.204c-.699,1.922-1.74,3.763-3.043,5.446-.005.006-.01.013-.014.019-.002.002-.003.005-.005.007,0,0,0,0,0,0-.183.232-.467.382-.786.382-.552,0-1-.448-1-1s.448-1,1-1c.223,0,.43.073.596.197.743-1.058,1.377-2.173,1.883-3.324-.371-.146-.633-.508-.633-.93,0-.552.448-1,1-1s1,.448,1,1c0,.067.002.204.002.204Zm3.447,2.378c-.287.868-.625,1.708-1.009,2.52.332.163.56.504.56.898,0,.552-.448,1-1,1-.181,0-.351-.048-.497-.132-2.234,3.778-5.56,6.783-9.621,8.66.075.141.118.301.118.472,0,.552-.448,1-1,1-.454,0-.837-.303-.959-.717-.151.054-.302.107-.454.159-1.118.377-2.365.566-3.578.566-2.68,0-5.2-.925-5.844-2.808-.724-2.13,1.047-4.606,3.482-6.178-.093-.152-.147-.331-.147-.522,0-.552.448-1,1-1,.408,0,.758.244.914.594.121-.05.242-.097.363-.142,2.271-.834,3.838-1.784,5.081-3.082,1.178-1.128,2.064-2.507,2.837-4.418-.403-.129-.695-.507-.695-.953,0-.552.448-1,1-1,.169,0,.327.042.466.115C15.955,1.709,18.799-.65,21.207.165c2.713.927,3.433,5.822,2.242,9.417Zm-2.564-8.47c-.229-.078-.466-.115-.707-.115-1.989,0-4.313,2.487-5.281,5.123-.879,2.388-1.937,4.121-3.331,5.457-1.32,1.379-3.055,2.437-5.444,3.314-2.956,1.085-5.727,3.876-5.009,5.986.662,1.937,4.779,2.752,8.156,1.616,6.332-2.132,11.155-6.952,13.231-13.227,1.121-3.384.306-7.5-1.615-8.155ZM7.92,18.609c-.159-.373-.539-.63-.975-.607-.511.027-.929.456-.945.967-.017.567.437,1.031,1,1.031.072,0,.141-.008.209-.022,0,0,2.791-.478,7.315-4.649.236-.218.2-.608-.073-.777-.003-.002-.006-.004-.009-.006-.193-.119-.441-.102-.606.053-1.732,1.629-3.741,3.004-5.915,4.008Z"/>
</svg>
