<?xml version="1.0" encoding="UTF-8"?>
<svg xmlns="http://www.w3.org/2000/svg" id="Layer_1" data-name="Layer 1" viewBox="0 0 24 24">
  <path d="m22.5,4c-.827,0-1.5.673-1.5,1.5v13c0,.827.673,1.5,1.5,1.5s1.5-.673,1.5-1.5V5.5c0-.827-.673-1.5-1.5-1.5Zm.5,14.5c0,.275-.225.5-.5.5s-.5-.225-.5-.5V5.5c0-.275.225-.5.5-.5s.5.225.5.5v13Zm-4.5-14.5c-.827,0-1.5.673-1.5,1.5v13c0,.827.673,1.5,1.5,1.5s1.5-.673,1.5-1.5V5.5c0-.827-.673-1.5-1.5-1.5Zm.5,14.5c0,.275-.225.5-.5.5s-.5-.225-.5-.5V5.5c0-.275.225-.5.5-.5s.5.225.5.5v13Zm-3.564-14.436c-.385-.117-.789-.076-1.143.113-.354.188-.611.503-.729.886l-1.032,3.354c-.269-.257-.632-.417-1.033-.417H3.567l1.001-1.202c.304-.364.441-.823.39-1.294-.052-.472-.287-.891-.663-1.18-.738-.567-1.784-.453-2.38.263L.116,6.747c-.177.213-.148.527.063.704s.527.149.704-.063l1.8-2.16c.25-.3.69-.351,1.002-.11.158.121.257.298.278.496.022.198-.036.392-.163.544l-1.685,2.022c-.125.149-.151.356-.069.532.083.176.259.288.453.288h9c.275,0,.5.225.5.5s-.225.5-.5.5h-4c-.2,0-.381.119-.46.303l-2.221,5.182c-.394.921-1.296,1.516-2.298,1.516H.5c-.276,0-.5.224-.5.5s.224.5.5.5h2.021c1.402,0,2.665-.833,3.218-2.121l2.091-4.879h3.67c.084,0,.165-.011.245-.025l-2.181,7.088c-.239.791.209,1.631,1,1.872.145.044.291.065.438.065.243,0,.484-.061.705-.179.354-.188.612-.504.728-.885l4.001-13.001c.239-.791-.209-1.631-1-1.872Zm.044,1.579l-4.001,13.001c-.039.128-.125.233-.243.296-.116.063-.251.077-.38.038-.264-.08-.414-.36-.335-.622l4-12.999s0-.002,0-.002c.039-.128.125-.233.243-.296.073-.04.154-.06.235-.06.048,0,.097.007.145.021.264.08.414.36.335.622Z"/>
</svg>
