<?xml version="1.0" encoding="UTF-8"?>
<svg xmlns="http://www.w3.org/2000/svg" id="Layer_1" data-name="Layer 1" viewBox="0 0 24 24">
  <path d="m19.146,10.412l-1.633-4.187c-.34-.873-.513-1.79-.513-2.726v-.592c.581-.207,1-.757,1-1.408,0-.827-.673-1.5-1.5-1.5H7.5c-.827,0-1.5.673-1.5,1.5,0,.651.419,1.201,1,1.408v.592c0,.936-.172,1.853-.513,2.726l-1.633,4.187c-.495,1.271-.854,3.69-.854,4.542v4.546c0,2.481,2.019,4.5,4.5,4.5h7c2.481,0,4.5-2.019,4.5-4.5v-4.546c0-1.56-.288-3.087-.854-4.542ZM7.5,1h9c.276,0,.5.225.5.5s-.224.5-.5.5H7.5c-.276,0-.5-.225-.5-.5s.224-.5.5-.5Zm-2.5,14h9c.551,0,1,.448,1,1v2c0,.552-.449,1-1,1H5v-4Zm14,4.5c0,1.93-1.57,3.5-3.5,3.5h-7c-1.758,0-3.204-1.308-3.449-3h8.949c1.103,0,2-.897,2-2v-2c0-1.103-.897-2-2-2H5.044c.091-1.103.337-2.184.742-3.225l1.633-4.187c.386-.989.581-2.028.581-3.089v-.5h8v.5c0,1.061.195,2.1.581,3.089l1.633,4.187c.521,1.339.786,2.744.786,4.179v4.546Z"/>
</svg>
