<?xml version="1.0" encoding="UTF-8"?>
<svg xmlns="http://www.w3.org/2000/svg" id="Layer_1" data-name="Layer 1" viewBox="0 0 24 24">
  <path d="m23.501,11.625c-.18-.329-.386-.631-.614-.9-.02-.22-.047-.461-.083-.729-.065-.492.037-.986.297-1.429.527-.896,2.037-4.048-.706-6.987-2.917-2.721-6.067-1.21-6.962-.682-.444.26-.937.359-1.43.297-.268-.036-.509-.063-.73-.083-.271-.229-.576-.437-.93-.629-3.07-1.413-5.198.643-5.777,1.306-.26.298-.614.497-1.024.574-.854.161-1.354.327-1.838.487l-.246.081c-.872.282-1.578.888-1.989,1.705-.288.571-.406,1.209-.342,1.847.059.577-.084,1.125-.413,1.583-.102.143-.195.296-.276.458-.464.919-.506,1.998-.117,2.958.142.351.178.682.107.983-.388,1.659-.43,5.122-.43,6.534v1.5c0,1.93,1.57,3.5,3.5,3.5h1.5c1.755,0,4.938-.056,6.534-.43.299-.071.632-.035.983.106.958.39,2.036.35,2.96-.116.161-.082.313-.174.456-.276.459-.328,1.005-.466,1.584-.413.634.066,1.275-.054,1.846-.342.817-.412,1.423-1.118,1.705-1.989l.081-.245c.16-.483.326-.983.487-1.838.077-.41.275-.764.574-1.023.664-.58,2.72-2.71,1.29-5.809ZM15.94,1.76c.955-.562,3.43-1.633,5.749.526,2.185,2.344,1.112,4.818.551,5.774-.375.638-.522,1.354-.426,2.068.04.301.068.566.087.806,0,.024.002.047.005.071.038.506.038.9.037,1.285v.332c.005.806-.306,1.563-.875,2.134-.396.396-.896.669-1.442.79-.947.21-1.745.727-2.308,1.496-.092.126-.193.245-.307.358-.658.658-1.581.994-2.508.928-.658-.047-1.278.095-1.793.41-1.939,1.185-7.225,2.811-10.203,3.674-.083.025-.166.035-.247.032l8.445-8.445h5.793c.276,0,.5-.224.5-.5s-.224-.5-.5-.5h-4.793l5.146-5.146c.195-.195.195-.512,0-.707s-.512-.195-.707,0l-5.146,5.146v-4.793c0-.276-.224-.5-.5-.5s-.5.224-.5.5v5.793L1.556,21.737c-.004-.081.006-.164.03-.246.865-2.979,2.491-8.266,3.675-10.203.316-.518.458-1.138.409-1.793-.068-.936.27-1.85.927-2.507.114-.113.234-.216.36-.309.769-.561,1.286-1.358,1.496-2.307.121-.547.394-1.046.791-1.442.566-.565,1.317-.876,2.116-.876h.35c.385,0,.778,0,1.284.038.025.004.051.006.077.006.239.019.502.047.801.087.713.098,1.43-.05,2.069-.426ZM1.25,11.107c-.281-.693-.251-1.472.083-2.134.058-.115.124-.224.196-.325.472-.659.678-1.442.595-2.266-.045-.447.038-.896.24-1.297.29-.576.789-1.004,1.405-1.203l.252-.083c.452-.15.92-.305,1.708-.454.623-.117,1.188-.437,1.591-.898.515-.59,1.813-1.768,3.67-1.376-.927.084-1.787.485-2.454,1.152-.531.532-.898,1.2-1.06,1.933-.156.707-.54,1.301-1.108,1.716-.167.121-.326.257-.477.408-.864.863-1.308,2.062-1.218,3.287.033.453-.056.856-.266,1.199-1.085,1.775-2.485,6.093-3.408,9.176v-.943c0-2.911.147-5.21.404-6.306.119-.508.067-1.041-.154-1.587Zm20.304,5.572c-.463.403-.782.968-.899,1.592-.149.788-.305,1.256-.454,1.708l-.083.252c-.199.615-.627,1.114-1.203,1.405-.4.201-.847.285-1.296.24-.823-.086-1.605.122-2.266.594-.103.072-.212.139-.326.197-.663.333-1.44.364-2.134.082-.545-.22-1.078-.273-1.587-.153-1.095.256-3.393.403-6.306.403h-.943c3.083-.923,7.399-2.322,9.176-3.407.342-.21.744-.302,1.199-.266,1.219.083,2.423-.354,3.287-1.219.15-.15.287-.311.407-.477.416-.568,1.01-.952,1.717-1.108.732-.162,1.4-.528,1.933-1.06.662-.663,1.062-1.515,1.15-2.435.378,1.856-.788,3.14-1.373,3.651Z"/>
</svg>
