<?xml version="1.0" encoding="UTF-8"?>
<svg xmlns="http://www.w3.org/2000/svg" id="Layer_1" data-name="Layer 1" viewBox="0 0 24 24">
  <path d="m19,6c0,.552-.448,1-1,1s-1-.448-1-1,.448-1,1-1,1,.448,1,1Zm5,2.5c0,.827-.673,1.5-1.5,1.5h-5.899c-.466,0-.972.034-1.492.097-.101,1.158-.444,2.512-1.029,4.038-.195.507-.748.865-1.315.865-.491-.038-.96-.351-1.059-.81-.217-1.013-.499-1.834-.84-2.44-.53.416-1.026.913-1.455,1.534-.785,1.138-1.582,3.344-2.026,5.108,1.709.661,3.05,2.13,3.478,3.852.116.465-.009.955-.333,1.312-.266.293-.636.455-1.018.455-.067,0-.135-.005-.202-.016-2.083-.317-3.316-1.418-3.913-2.127-.59.712-1.817,1.812-3.922,2.127-.454.071-.908-.098-1.219-.439-.324-.356-.448-.847-.333-1.312.467-1.88,1.943-3.396,3.83-3.98-.382-1.656-.752-3.909-.752-5.764,0-2.193.343-4.04.921-5.596-.793-1.732-1.957-3.225-3.478-4.429C.019,2.141-.112,1.603.1,1.071.328.501,1-.064,1.77.006c2.319.214,4.41.794,6.238,1.705,1.853-1.188,3.987-1.711,5.992-1.711,5.017,0,7.749,3.443,7.983,7h.517c.827,0,1.5.673,1.5,1.5ZM4.433,5.721c.696-1.387,1.608-2.485,2.647-3.335-1.604-.725-3.408-1.2-5.403-1.384-.271-.018-.556.207-.649.44-.067.168,0,.221.036.249,1.394,1.104,2.532,2.489,3.369,4.03Zm9.648,4.552c-.808.181-1.623.476-2.395.924.392.694.76,1.669.998,2.784.013.016.093.032.21-.002.12-.038.219-.117.252-.203.508-1.324.814-2.493.935-3.503Zm8.919-1.774c0-.275-.224-.5-.5-.5h-1c-.276,0-.5-.224-.5-.5,0-3.23-2.404-6.5-7-6.5C6.18,1,3.718,8.692,4,12.5c.144,1.945.433,4.379.837,6.002.033.132.011.271-.061.386s-.187.196-.319.225c-1.722.369-3.155,1.725-3.564,3.373-.035.141.003.288.102.397.052.057.165.148.332.124,2.603-.39,3.584-2.16,3.625-2.235.087-.161.256-.264.44-.264h0c.183,0,.352.1.44.26.041.073,1.052,1.847,3.627,2.239.164.023.278-.066.331-.124.099-.108.137-.257.102-.396-.381-1.533-1.653-2.823-3.241-3.288-.253-.074-.406-.333-.347-.591.422-1.855,1.317-4.49,2.283-5.892,1.677-2.431,4.448-3.716,8.013-3.716h5.899c.276,0,.5-.225.5-.5Z"/>
</svg>
