<?xml version="1.0" encoding="UTF-8"?>
<svg xmlns="http://www.w3.org/2000/svg" id="Layer_1" data-name="Layer 1" viewBox="0 0 24 24">
  <path d="m21.218,12.074l-1.56-4.681c-.478-1.432-1.812-2.394-3.32-2.394h-.838c-1.379,0-2.5,1.121-2.5,2.5v10.5H.5c-.276,0-.5.224-.5.5s.224.5.5.5h1.5v1c0,1.654,1.346,3,3,3s3-1.346,3-3v-1h8v1c0,1.654,1.346,3,3,3s3-1.346,3-3v-1h.5c.827,0,1.5-.673,1.5-1.5v-2c0-1.683-1.195-3.093-2.782-3.426Zm-5.718-6.074h.838c1.078,0,2.03.688,2.371,1.71l1.43,4.29h-6.139v-4.5c0-.827.673-1.5,1.5-1.5Zm-8.5,14c0,1.103-.897,2-2,2s-2-.897-2-2v-1h4v1Zm14,0c0,1.103-.897,2-2,2s-2-.897-2-2v-1h4v1Zm2-2.5c0,.275-.225.5-.5.5h-8.5v-5h6.5c1.379,0,2.5,1.121,2.5,2.5v2Z"/>
</svg>
