<?xml version="1.0" encoding="UTF-8"?>
<svg xmlns="http://www.w3.org/2000/svg" id="Layer_1" data-name="Layer 1" viewBox="0 0 24 24">
  <path d="m16.901,20.753c.165.222.119.534-.103.699-1.681,1.249-3.333,1.999-4.168,2.334,0,0-.394.214-.627.214s-.649-.266-.649-.266c-2.194-1.097-9.354-5.188-9.354-11.8v-5.435c0-.276.224-.5.5-.5s.5.224.5.5v5.435c0,6.037,6.736,9.873,8.801,10.905l.224.112.231-.094c.791-.317,2.354-1.026,3.945-2.209.222-.165.535-.119.7.104Zm6.952,3.101c-.098.098-.226.146-.354.146s-.256-.049-.354-.146L.146.854C-.049.658-.049.342.146.146S.658-.049.854.146l2.888,2.888c.445-.362.947-.638,1.494-.819L11.843.025c.102-.033.213-.033.314,0l6.606,2.19c1.936.642,3.236,2.442,3.236,4.482v5.236c0,2.539-.827,4.859-2.457,6.901l4.311,4.311c.195.195.195.512,0,.707ZM4.454,3.747l14.376,14.376c1.44-1.839,2.169-3.919,2.169-6.189v-5.236c0-1.607-1.025-3.027-2.551-3.533l-6.449-2.139-6.449,2.139c-.398.132-.766.328-1.096.582Z"/>
</svg>
