<?xml version="1.0" encoding="UTF-8"?>
<svg xmlns="http://www.w3.org/2000/svg" id="Layer_1" data-name="Layer 1" viewBox="0 0 24 24">
  <path d="m19.5,6h-6.363L17.869.838c.187-.204.173-.52-.031-.707-.204-.186-.52-.173-.707.031l-5.131,5.598L6.869.162c-.186-.204-.503-.217-.707-.031-.204.187-.217.503-.031.707l4.732,5.162h-6.363c-2.481,0-4.5,2.019-4.5,4.5v9c0,2.481,2.019,4.5,4.5,4.5h15c2.481,0,4.5-2.019,4.5-4.5v-9c0-2.481-2.019-4.5-4.5-4.5Zm3.5,13.5c0,1.93-1.57,3.5-3.5,3.5H4.5c-1.93,0-3.5-1.57-3.5-3.5v-9c0-1.93,1.57-3.5,3.5-3.5h15c1.93,0,3.5,1.57,3.5,3.5v9Zm-7.5-9.5H5.5c-.827,0-1.5.673-1.5,1.5v7c0,.827.673,1.5,1.5,1.5h10c.827,0,1.5-.673,1.5-1.5v-7c0-.827-.673-1.5-1.5-1.5Zm.5,8.5c0,.276-.224.5-.5.5H5.5c-.276,0-.5-.224-.5-.5v-7c0-.276.224-.5.5-.5h10c.276,0,.5.224.5.5v7Zm5-7.5c0,.552-.448,1-1,1s-1-.448-1-1,.448-1,1-1,1,.448,1,1Zm0,4c0,.552-.448,1-1,1s-1-.448-1-1,.448-1,1-1,1,.448,1,1Zm0,4c0,.552-.448,1-1,1s-1-.448-1-1,.448-1,1-1,1,.448,1,1Z"/>
</svg>
