<?xml version="1.0" encoding="UTF-8"?>
<svg xmlns="http://www.w3.org/2000/svg" id="Layer_1" data-name="Layer 1" viewBox="0 0 24 24">
  <path d="m8.191,8.956l2.503,2.503c.349.349.812.541,1.306.541s.957-.192,1.306-.541l2.503-2.503c.195-.195.195-.512,0-.707s-.512-.195-.707,0c0,0-2.567,2.56-2.602,2.585V3.937c.862-.223,1.5-1.007,1.5-1.937,0-1.103-.897-2-2-2s-2,.897-2,2c0,.93.638,1.714,1.5,1.937v6.898c-.035-.025-2.602-2.585-2.602-2.585-.195-.195-.512-.195-.707,0s-.195.512,0,.707Zm2.809-6.956c0-.552.448-1,1-1s1,.448,1,1-.448,1-1,1-1-.448-1-1Zm5.19.827c-.256-.108-.547.016-.652.271-.105.255.016.548.271.652,3.761,1.552,6.19,5.182,6.19,9.249,0,.685-.069,1.354-.201,2h-4.964c.105-.647.165-1.315.165-2,0-.521-.016-1.03-.047-1.531-.018-.274-.227-.494-.53-.468-.275.017-.484.254-.468.53.029.479.045.97.045,1.469,0,.683-.067,1.352-.182,2h-7.636c-.116-.648-.182-1.316-.182-2,0-.499.016-.989.045-1.469.017-.276-.192-.514-.468-.53-.308-.029-.514.193-.53.468-.031.501-.047,1.011-.047,1.531,0,.685.06,1.353.165,2H2.201c-.132-.646-.201-1.315-.201-2,0-4.067,2.43-7.697,6.19-9.249.256-.104.377-.397.271-.652-.104-.256-.396-.379-.652-.271C3.673,4.533,1,8.526,1,13c0,6.065,4.935,11,11,11s11-4.935,11-11c0-4.474-2.673-8.467-6.81-10.173Zm-.594,13.173c-.845,3.22-2.79,5.78-3.597,6.743-.809-.962-2.754-3.52-3.598-6.743h7.194Zm-13.137,0h4.906c.751,3.128,2.478,5.653,3.494,6.935-3.965-.452-7.233-3.231-8.4-6.935Zm10.68,6.935c1.016-1.282,2.743-3.807,3.494-6.935h4.906c-1.167,3.703-4.436,6.483-8.4,6.935Z"/>
</svg>
