<?xml version="1.0" encoding="UTF-8"?>
<svg xmlns="http://www.w3.org/2000/svg" id="Layer_1" data-name="Layer 1" viewBox="0 0 24 24">
  <path d="m20.585,13.769c1.334-.506,3.415-2.121,3.415-7.269,0-.276-.224-.5-.5-.5s-.5.224-.5.5c0,6.366-3.361,6.498-3.5,6.5h-4.238L10.505,2.879c-.289-.609-.901-.953-1.578-.867-.67.083-1.188.563-1.32,1.226l-1.94,9.763h-2.861l1.992-9.648c.047-.235.196-.341.313-.39.256-.105.377-.397.271-.653-.104-.255-.396-.375-.652-.272-.478.197-.811.605-.912,1.116L1.785,13h-.294c-.455,0-.884.202-1.174.555-.278.337-.391.772-.309,1.192.17.876.514,1.683.992,2.388L.009,22.408c-.051.271.127.533.398.583.031.006.062.009.094.009.235,0,.445-.167.49-.408l.839-4.461c.704.692,1.562,1.221,2.512,1.537l-.543,2.734c-.054.271.122.534.393.588.033.007.065.01.099.01.233,0,.442-.165.489-.402l.534-2.688c.351.059.711.09,1.076.09h11.078l1.292,2.715c.085.18.265.285.451.285.072,0,.146-.016.215-.048.249-.119.355-.417.236-.667l-1.088-2.285h3.925c1.101,0,1.5-.897,1.5-1.5,0-2.042-1.519-3.782-3.415-4.731Zm-5.3-.72l-.007-.014c.013.004.018.009.007.014Zm-10.747,5.63c-1.786-.64-3.17-2.18-3.547-4.122-.034-.173.047-.303.098-.365.099-.12.249-.191.402-.191h3.977l-.93,4.679Zm17.961.321H6.39c-.299,0-.594-.025-.881-.071l.979-4.929h5.013c.276,0,.5-.224.5-.5s-.224-.5-.5-.5h-4.814l1.901-9.567c.071-.354.371-.417.462-.429.088-.011.396-.024.552.302l6.303,13.407c.117.25.414.357.665.24.25-.118.357-.416.239-.666l-1.075-2.287h1.767c2.491,0,5.5,2.007,5.5,4.494-.006.231-.098.506-.5.506Z"/>
</svg>
