<?xml version="1.0" encoding="UTF-8"?>
<svg xmlns="http://www.w3.org/2000/svg" id="Layer_1" data-name="Layer 1" viewBox="0 0 24 24">
  <path d="m19.646,10.129l3.129-3.129h-3.275C10.727,7,2.92,13.733,2.077,22.015c.63.607,1.482.985,2.423.985h19c.276,0,.5.224.5.5s-.224.5-.5.5H4.5c-2.481,0-4.5-2.019-4.5-4.5V.5C0,.224.224,0,.5,0s.5.224.5.5v19c0,.457.094.891.254,1.291C2.705,12.537,10.628,6,19.5,6h3.229l-3.044-3.126c-.192-.197-.188-.515.01-.707.197-.193.513-.188.707.01l3.207,3.293c.231.231.432.666.432,1.043.003.388-.141.777-.437,1.073l-3.25,3.25c-.098.098-.226.146-.354.146s-.256-.049-.354-.146c-.195-.195-.195-.512,0-.707Z"/>
</svg>
