<?xml version="1.0" encoding="UTF-8"?>
<svg xmlns="http://www.w3.org/2000/svg" id="Layer_1" data-name="Layer 1" viewBox="0 0 24 24">
  <path d="m22,21.051V7h.5c.276,0,.5-.224.5-.5s-.224-.5-.5-.5h-.5v-1.5c0-1.207-.86-2.217-2-2.449V.5c0-.276-.224-.5-.5-.5s-.5.224-.5.5v1.551c-1.14.232-2,1.242-2,2.449v1.5h-.5c-.276,0-.5.224-.5.5s.224.5.5.5h.5v14h-4v-3.649c1.232-1.099,2-2.644,2-4.145,0-3.162-2.796-4.573-4.837-5.604-.776-.392-1.566-.793-1.94-1.179-.058-.107-.114-.26-.159-.459.573-.101,1.069-.425,1.393-.881.116-.163-.022-.383-.219-.353-.1.015-.202.023-.307.023-1.206,0-2.184-.978-2.184-2.184,0-.104.008-.207.023-.307.03-.197-.191-.335-.353-.219-.6.427-.976,1.148-.91,1.956.069.847.634,1.555,1.398,1.85-.056.328-.14.531-.218.657-.4.361-1.13.733-1.851,1.097-2.041,1.031-4.837,2.442-4.837,5.604,0,1.501.768,3.046,2,4.145v3.7c-1.14.232-2,1.242-2,2.449,0,.276.224.5.5.5s.5-.224.5-.5c0-.827.673-1.5,1.5-1.5h19c.827,0,1.5.673,1.5,1.5,0,.276.224.5.5.5s.5-.224.5-.5c0-1.207-.86-2.217-2-2.449Zm-10-.051H3v-3h9v3Zm-.165-4H3.165c-1.59-1.098-2.165-2.718-2.165-3.794,0-2.546,2.278-3.696,4.288-4.711.894-.452,1.713-.865,2.212-1.378.499.513,1.318.926,2.212,1.378,2.01,1.015,4.288,2.165,4.288,4.711,0,1.076-.576,2.696-2.165,3.794Zm9.165,4h-3V7h3v14Zm0-15h-3v-1.5c0-.827.673-1.5,1.5-1.5s1.5.673,1.5,1.5v1.5Z"/>
</svg>
