<?xml version="1.0" encoding="UTF-8"?>
<svg xmlns="http://www.w3.org/2000/svg" id="Layer_1" data-name="Layer 1" viewBox="0 0 24 24">
  <path d="m23.626,19.581l-2.244-2.42c-.188-.204-.505-.214-.706-.027-.202.188-.215.504-.026.707l2.003,2.16h-2.152c-1.305,0-2.383-2.226-3.334-4.19-.99-2.044-1.845-3.81-3.166-3.81s-2.176,1.766-3.166,3.81c-.951,1.964-2.029,4.19-3.334,4.19h-.5c-.289,0-.563-.054-.828-.131.785-1.365,1.506-3.89,2.264-6.558.939-3.31,2.36-8.311,3.564-8.311.457,0,1.259.807,2.484,4.652.085.262.361.409.629.325.263-.084.408-.365.324-.628-1.211-3.799-2.207-5.348-3.437-5.348-1.828,0-2.93,3.415-4.526,9.038-.728,2.563-1.478,5.187-2.211,6.398-.761-.545-1.262-1.431-1.262-2.436V1.348l2.177,2.019c.096.089.218.133.34.133.134,0,.269-.054.366-.16.188-.202.176-.519-.026-.707L4.434.387c-.249-.25-.581-.387-.934-.387h0c-.353,0-.684.138-.918.374L.16,2.618c-.202.188-.215.504-.026.707.187.203.506.214.706.027L3,1.349v15.651c0,2.206,1.794,4,4,4h15.652l-2.018,2.177c-.188.202-.176.519.026.707.096.089.218.133.34.133.134,0,.269-.054.366-.16l2.247-2.423c.249-.25.387-.581.387-.934s-.138-.684-.374-.919Zm-11.893-3.334c.701-1.446,1.572-3.246,2.267-3.246s1.565,1.8,2.267,3.246c.682,1.407,1.38,2.834,2.247,3.754h-9.027c.867-.92,1.566-2.346,2.247-3.754Z"/>
</svg>
