<?xml version="1.0" encoding="UTF-8"?>
<svg xmlns="http://www.w3.org/2000/svg" id="Layer_1" data-name="Layer 1" viewBox="0 0 24 24">
  <path d="m21.987,10.756c-.107-1.435-.661-2.915-1.577-4.259.036.001.072.003.108.003.807,0,1.564-.313,2.134-.884,1.13-1.129,1.955-3.788.738-5.006-1.22-1.217-3.876-.391-5.006.738-.616.616-.909,1.435-.88,2.244-1.337-.909-2.808-1.457-4.252-1.57-.471-.526-2.047-2.023-4.752-2.023h-2c-.276,0-.5.224-.5.5s.224.5.5.5h2c1.553,0,2.658.573,3.328,1.073-1.571.222-3.073.94-4.288,2.154-1.456,1.455-2.928,4.117-3.776,6.78-1.425.079-3.764.875-3.764,3.493,0,.276.224.5.5.5s.5-.224.5-.5c0-1.832,1.599-2.321,2.464-2.452-.687,2.683-.609,4.917.21,6.47-.452.741-.925,1.616-1.135,2.178-.179.479.287.944.765.765.561-.21,1.436-.683,2.177-1.134.851.449,1.906.675,3.127.675,1.008,0,2.13-.155,3.343-.466-.131.865-.62,2.464-2.452,2.464-.276,0-.5.224-.5.5s.224.5.5.5c2.618,0,3.414-2.339,3.493-3.764,2.663-.848,5.326-2.321,6.78-3.776,1.211-1.211,1.959-2.693,2.17-4.265.496.672,1.056,1.77,1.056,3.305v2c0,.276.224.5.5.5s.5-.224.5-.5v-2c0-2.69-1.479-4.263-2.013-4.744Zm-2.896-8.701c.61-.61,1.74-1.052,2.615-1.052.406,0,.758.095.977.313.688.689.155,2.698-.738,3.592-.762.762-2.092.762-2.854,0-.787-.787-.787-2.066,0-2.854Zm1.781,7.944h-4.752l-2.12-2.12V3.137c1.543.319,3.089,1.185,4.384,2.48s2.171,2.85,2.488,4.384Zm-10.492-.62l2.923-.783,2.14,2.14-.775,2.891c-.007.006-.014.012-.021.019s-.013.014-.019.021l-2.891.775-2.14-2.14.783-2.923Zm1.684,10.092c-.021.006-.042.011-.063.017v-4.081l2.918-.782,2.461,2.461c-1.496.978-3.427,1.858-5.316,2.385Zm-3.816-14.538c1.248-1.248,2.828-1.934,4.453-1.934h.028c.09,0,.181.004.271.008v4.634l-2.879.772-2.621-2.621c.247-.321.498-.61.747-.859Zm-1.334,1.687l2.5,2.5-.772,2.879h-4.131c.006-.021.011-.042.017-.063.527-1.889,1.407-3.82,2.385-5.316Zm-1.769,12.235c-1.118-1.118-1.423-3.219-.875-5.855h4.61l2.12,2.12v4.611c-2.637.548-4.738.244-5.855-.875Zm13.922-3.103c-.249.249-.539.5-.859.747l-2.581-2.581.782-2.918h4.591c0,.007,0,.014.001.021.073,1.732-.614,3.413-1.934,4.732Z"/>
</svg>
