<?xml version="1.0" encoding="UTF-8"?>
<svg xmlns="http://www.w3.org/2000/svg" id="Layer_1" data-name="Layer 1" viewBox="0 0 24 24">
  <path d="m13.959.583c-1.189-.774-2.729-.774-3.918,0C7.038,2.539,2,6.42,2,10.443v7.481c0,2.021,1.208,3.826,3.078,4.596l3.235,1.332c.603.247,1.284.178,1.823-.183.541-.362.863-.966.863-1.617v-6.047c0-.553-.302-1.059-.788-1.32l-2.57-1.388c-.539-.291-.775-.928-.563-1.514.168-.462.675-.785,1.232-.785h7.379c.558,0,1.064.323,1.232.784.212.586-.024,1.223-.563,1.514l-2.569,1.387c-.487.262-.789.768-.789,1.32v6.047c0,.65.322,1.255.863,1.617.325.218.702.33,1.082.33.25,0,.502-.049.741-.147l3.235-1.332c1.87-.771,3.078-2.575,3.078-4.596v-7.481c0-4.023-5.038-7.904-8.041-9.859Zm7.041,17.34c0,1.615-.965,3.056-2.459,3.671l-3.235,1.332c-.295.122-.62.09-.886-.089-.267-.178-.42-.465-.42-.786v-6.047c0-.184.101-.353.263-.44l2.57-1.388c.979-.529,1.412-1.679,1.028-2.735-.313-.863-1.187-1.443-2.172-1.443h-7.379c-.985,0-1.858.58-2.172,1.443-.384,1.056.049,2.206,1.028,2.735l2.571,1.388c.161.087.262.255.262.439v6.047c0,.321-.153.607-.42.786-.266.179-.591.21-.886.089l-3.235-1.332c-1.494-.615-2.459-2.057-2.459-3.671v-7.481c0-3.684,5.306-7.536,7.586-9.021.859-.559,1.969-.559,2.828,0,2.281,1.486,7.586,5.338,7.586,9.021v7.481Z"/>
</svg>
