<?xml version="1.0" encoding="UTF-8"?>
<svg xmlns="http://www.w3.org/2000/svg" id="Layer_1" data-name="Layer 1" viewBox="0 0 24 24">
  <path d="m9.346,21.766c-.479.155-.933.234-1.346.234-1.658,0-3.108-.992-3.768-1.525l1.799-1.799c.111-.076.21-.149.301-.218.392-.295.607-.458,1.668-.458.146,0,.292.01.439.027.27.045.522-.16.557-.436.034-.273-.161-.523-.436-.557-.187-.023-.374-.035-.561-.035-.105,0-.204.002-.298.005L23.854.854c.195-.195.195-.512,0-.707s-.512-.195-.707,0l-8.151,8.151c.003-.094.005-.193.005-.298,0-1.175-.493-2.368-1.029-3.283l3.881-3.863c.196-.195.196-.512.002-.707-.195-.197-.512-.195-.707-.002l-3.739,3.721c-.097-.13-.191-.247-.277-.347-.564-.66-1.699-.66-2.264,0-.621.724-1.623,2.284-1.83,3.902-.589-.56-1.635-.528-2.17.098-.621.724-1.623,2.284-1.83,3.902-.589-.56-1.635-.528-2.17.098-.694.811-1.868,2.667-1.868,4.48,0,2.05,1.207,3.755,1.812,4.481L.146,23.146c-.195.195-.195.512,0,.707.098.098.226.146.354.146s.256-.049.354-.146l2.666-2.666c.726.605,2.431,1.812,4.481,1.812.518,0,1.074-.096,1.654-.283.263-.085.406-.367.321-.63-.085-.262-.361-.405-.63-.321Zm2.282-17.596c.127-.148.287-.17.372-.17s.245.021.372.17c.784.916,1.628,2.506,1.628,3.83,0,1.061-.163,1.276-.458,1.668-.069.092-.142.19-.218.301l-2.329,2.329c.003-.094.005-.193.005-.298,0-1.135-.46-2.287-.974-3.189,0-.023-.026-.654-.026-.811,0-1.324.844-2.914,1.628-3.83Zm-4,4c.127-.148.287-.17.372-.17s.245.021.372.17c.784.916,1.628,2.506,1.628,3.83,0,1.061-.163,1.276-.458,1.668-.069.092-.142.19-.218.301l-2.329,2.329c.003-.094.005-.193.005-.298,0-1.136-.461-2.289-.976-3.191.002-.031-.024-.652-.024-.809,0-1.324.844-2.914,1.628-3.83Zm-5.628,7.83c0-1.324.844-2.914,1.628-3.83.127-.148.287-.17.372-.17s.245.021.372.17c.784.916,1.628,2.506,1.628,3.83,0,1.061-.163,1.276-.458,1.668-.069.092-.142.19-.218.301l-1.799,1.799c-.533-.66-1.525-2.11-1.525-3.768ZM23.854,6.146c.195.195.195.512,0,.707l-3,3c-.098.098-.226.146-.354.146s-.256-.049-.354-.146c-.195-.195-.195-.512,0-.707l3-3c.195-.195.512-.195.707,0Zm-5.354,14.854c0,.552-.448,1-1,1s-1-.448-1-1,.448-1,1-1,1,.448,1,1Zm-1-10c-3.584,0-6.5,2.916-6.5,6.5s2.916,6.5,6.5,6.5,6.5-2.916,6.5-6.5-2.916-6.5-6.5-6.5Zm0,12c-3.032,0-5.5-2.468-5.5-5.5s2.468-5.5,5.5-5.5,5.5,2.468,5.5,5.5-2.468,5.5-5.5,5.5Zm-.5-4.5v-5c0-.276.224-.5.5-.5s.5.224.5.5v5c0,.276-.224.5-.5.5s-.5-.224-.5-.5Z"/>
</svg>
