<?xml version="1.0" encoding="UTF-8"?>
<svg xmlns="http://www.w3.org/2000/svg" id="Layer_1" data-name="Layer 1" viewBox="0 0 24 24">
  <path d="m3,2c0-.552.448-1,1-1s1,.448,1,1-.448,1-1,1-1-.448-1-1ZM0,13.5c0-1.93,1.57-3.5,3.5-3.5s3.5,1.57,3.5,3.5-1.57,3.5-3.5,3.5-3.5-1.57-3.5-3.5Zm1,0c0,1.379,1.122,2.5,2.5,2.5s2.5-1.121,2.5-2.5-1.122-2.5-2.5-2.5-2.5,1.121-2.5,2.5Zm17,8.5c-.552,0-1,.448-1,1s.448,1,1,1,1-.448,1-1-.448-1-1-1Zm5-4c-.552,0-1,.448-1,1s.448,1,1,1,1-.448,1-1-.448-1-1-1Zm1-5.051c0,.193-.111.381-.285.464-.064.031-.806.379-1.969.742-.704,2.226-2.789,3.845-5.245,3.845s-4.541-1.619-5.245-3.845c-1.164-.363-1.906-.711-1.969-.742-.174-.083-.285-.258-.285-.451,0-.2.119-.394.303-.473.03-.012.677-.287,1.721-.499.258-2.794,2.615-4.99,5.476-4.99s5.218,2.196,5.476,4.99c1.044.212,1.691.487,1.721.499.184.079.303.26.303.46Zm-12-.449c0,.291.028.576.081.851,1.205.338,2.764.649,4.419.649s3.214-.311,4.419-.649c.053-.276.081-.56.081-.851,0-2.481-2.019-4.5-4.5-4.5s-4.5,2.019-4.5,4.5Zm8.535,1.991c-1.16.282-2.553.509-4.035.509s-2.875-.227-4.035-.509c.736,1.486,2.268,2.509,4.035,2.509s3.299-1.024,4.035-2.509Zm-7.331,4.99c-4.682,3.438-9.303,4.488-11.238,2.553-.763-.763-1.083-1.967-.927-3.482.028-.274-.172-.52-.446-.548-.278-.031-.52.171-.549.446-.188,1.825.232,3.309,1.215,4.291.841.842,2.036,1.251,3.463,1.251,2.523,0,5.771-1.279,9.073-3.704.223-.164.271-.477.107-.699-.164-.224-.477-.271-.699-.107Zm-7.204-10.784c.136,0,.272-.056.371-.165.337-.372.688-.742,1.054-1.106,2.723-2.724,5.778-4.777,8.603-5.784,2.701-.964,4.833-.846,6.006.326,1.15,1.149,1.282,3.234.373,5.87-.09.261.048.546.31.636.262.09.545-.049.636-.31,1.041-3.017.824-5.469-.611-6.903-1.461-1.461-3.964-1.662-7.049-.561-2.961,1.055-6.149,3.192-8.974,6.018-.377.377-.74.759-1.088,1.145-.186.204-.169.521.035.706.096.086.216.129.335.129Z"/>
</svg>
