<?xml version="1.0" encoding="UTF-8"?>
<svg xmlns="http://www.w3.org/2000/svg" id="Layer_1" data-name="Layer 1" viewBox="0 0 24 24">
  <path d="m19.5,5h-3.5v-.5c0-2.481-2.019-4.5-4.5-4.5h-7C2.019,0,0,2.019,0,4.5v15c0,2.481,2.019,4.5,4.5,4.5h15c2.481,0,4.5-2.019,4.5-4.5v-10c0-2.481-2.019-4.5-4.5-4.5ZM1,19.5V4.5c0-1.93,1.57-3.5,3.5-3.5h7c1.93,0,3.5,1.57,3.5,3.5v18.5H4.5c-1.93,0-3.5-1.57-3.5-3.5Zm22,0c0,1.93-1.57,3.5-3.5,3.5h-3.5V6h3.5c1.93,0,3.5,1.57,3.5,3.5v10ZM7,13.5c0,.276-.224.5-.5.5h-2c-.276,0-.5-.224-.5-.5s.224-.5.5-.5h2c.276,0,.5.224.5.5Zm0,4c0,.276-.224.5-.5.5h-2c-.276,0-.5-.224-.5-.5s.224-.5.5-.5h2c.276,0,.5.224.5.5Zm5,0c0,.276-.224.5-.5.5h-2c-.276,0-.5-.224-.5-.5s.224-.5.5-.5h2c.276,0,.5.224.5.5ZM7,5.5c0,.276-.224.5-.5.5h-2c-.276,0-.5-.224-.5-.5s.224-.5.5-.5h2c.276,0,.5.224.5.5Zm0,4c0,.276-.224.5-.5.5h-2c-.276,0-.5-.224-.5-.5s.224-.5.5-.5h2c.276,0,.5.224.5.5Zm5,4c0,.276-.224.5-.5.5h-2c-.276,0-.5-.224-.5-.5s.224-.5.5-.5h2c.276,0,.5.224.5.5Zm0-8c0,.276-.224.5-.5.5h-2c-.276,0-.5-.224-.5-.5s.224-.5.5-.5h2c.276,0,.5.224.5.5Zm0,4c0,.276-.224.5-.5.5h-2c-.276,0-.5-.224-.5-.5s.224-.5.5-.5h2c.276,0,.5.224.5.5Zm8,8c0,.276-.224.5-.5.5h-1c-.276,0-.5-.224-.5-.5s.224-.5.5-.5h1c.276,0,.5.224.5.5Zm0-8c0,.276-.224.5-.5.5h-1c-.276,0-.5-.224-.5-.5s.224-.5.5-.5h1c.276,0,.5.224.5.5Zm0,4c0,.276-.224.5-.5.5h-1c-.276,0-.5-.224-.5-.5s.224-.5.5-.5h1c.276,0,.5.224.5.5Z"/>
</svg>
