<?xml version="1.0" encoding="UTF-8"?>
<svg xmlns="http://www.w3.org/2000/svg" id="Layer_1" data-name="Layer 1" viewBox="0 0 24 24">
  <path d="m19.5,3H4.5C2.019,3,0,5.019,0,7.5v9c0,2.481,2.019,4.5,4.5,4.5h15c2.481,0,4.5-2.019,4.5-4.5V7.5c0-2.481-2.019-4.5-4.5-4.5Zm3.5,13.5c0,1.93-1.57,3.5-3.5,3.5H4.5c-1.93,0-3.5-1.57-3.5-3.5V7.5c0-1.93,1.57-3.5,3.5-3.5h15c1.93,0,3.5,1.57,3.5,3.5v9Zm-12,1c0,.276-.224.5-.5.5H3.5c-.276,0-.5-.224-.5-.5s.224-.5.5-.5h7c.276,0,.5.224.5.5Zm10,0c0,.276-.224.5-.5.5h-7c-.276,0-.5-.224-.5-.5s.224-.5.5-.5h7c.276,0,.5.224.5.5ZM4.5,11h7c.827,0,1.5-.673,1.5-1.5v-2c0-.827-.673-1.5-1.5-1.5h-7c-.827,0-1.5.673-1.5,1.5v2c0,.827.673,1.5,1.5,1.5Zm-.5-3.5c0-.275.224-.5.5-.5h7c.276,0,.5.225.5.5v2c0,.275-.224.5-.5.5h-7c-.276,0-.5-.225-.5-.5v-2Zm-1,6.5c0-.552.448-1,1-1s1,.448,1,1-.448,1-1,1-1-.448-1-1Zm5-1c.552,0,1,.448,1,1s-.448,1-1,1-1-.448-1-1,.448-1,1-1Zm5,1c0,.552-.448,1-1,1s-1-.448-1-1,.448-1,1-1,1,.448,1,1Z"/>
</svg>
