<?xml version="1.0" encoding="UTF-8"?>
<svg xmlns="http://www.w3.org/2000/svg" id="Layer_1" data-name="Layer 1" viewBox="0 0 24 24">
  <path d="m24,7.231c0-.68-.551-1.231-1.231-1.231-.419,0-.789.209-1.011.529-.739-.717-1.572-1.394-2.889-1.988,1.118-.583,1.94-1.67,2.126-2.97.039-.273-.151-.527-.424-.566-.273-.031-.527.151-.566.424-.209,1.466-1.501,2.571-3.004,2.571-1.654,0-3-1.346-3-3.001V.499c0-.275-.225-.499-.5-.499h0c-.276,0-.5.225-.5.501v.499c0,1.194.526,2.267,1.358,3h-2.357c-1.654,0-3-1.346-3-3.001V.499c0-.275-.225-.499-.5-.499h0c-.276,0-.5.225-.5.501v.499c0,2.206,1.795,4,4,4h2.371c-1.349,1.201-1.372,3.058-1.372,3.086v1.414c0,.275-.224.5-.5.5h-7.106c-.967,0-1.92.398-2.614,1.093-.076.076-2.659,3.082-2.659,3.082-.18.209-.156.525.054.705.094.08.21.12.326.12.141,0,.281-.06.379-.175l.849-.99c.042,1.255.409,2.104.765,2.926.177.409.36.831.506,1.312v3.427c0,1.379,1.122,2.5,2.5,2.5s2.5-1.121,2.5-2.5v-2.5h4v2.5c0,1.379,1.121,2.5,2.5,2.5s2.5-1.121,2.5-2.5v-3.301c.494-.548,2-2.454,2-5.3v-2.017c0-.252.188-.465.438-.496l2.1-.263c.833-.104,1.462-.816,1.462-1.657,0-.009,0-.018,0-.027.57-.108,1.001-.608,1.001-1.209Zm-2.586,1.901l-2.1.263c-.749.094-1.314.733-1.314,1.488v2.017c0,2.895-1.831,4.725-1.849,4.743-.096.094-.151.224-.151.357v3.5c0,.827-.673,1.5-1.5,1.5s-1.5-.673-1.5-1.5v-3c0-.276-.224-.5-.5-.5h-5c-.276,0-.5.224-.5.5v3c0,.827-.673,1.5-1.5,1.5s-1.5-.673-1.5-1.5c0,0-.007-3.595-.02-3.641-.167-.568-.371-1.04-.569-1.496-.367-.85-.685-1.583-.687-2.76,0-.67.27-1.311.763-1.804.507-.508,1.202-.8,1.906-.8h7.106c.827,0,1.5-.673,1.5-1.5v-1.412c.002-.313.114-3.043,3.289-3.087,2.358.784,3.469,1.93,4.57,3.057.09.118.142.262.142.408,0,.337-.252.623-.586.665Z"/>
</svg>
