<?xml version="1.0" encoding="UTF-8"?>
<svg xmlns="http://www.w3.org/2000/svg" id="Layer_1" data-name="Layer 1" viewBox="0 0 24 24">
  <path d="m12,14.5c0,.276-.224.5-.5.5h-1.5c-.551,0-1-.448-1-1v-1.5c0-.276.224-.5.5-.5s.5.224.5.5v1.5h1.5c.276,0,.5.224.5.5Zm-5.5-.5h-1.5v-1.5c0-.276-.224-.5-.5-.5s-.5.224-.5.5v1.5c0,.552.449,1,1,1h1.5c.276,0,.5-.224.5-.5s-.224-.5-.5-.5Zm5,5h-1.5v-1.5c0-.276-.224-.5-.5-.5s-.5.224-.5.5v1.5c0,.552.449,1,1,1h1.5c.276,0,.5-.224.5-.5s-.224-.5-.5-.5Zm0-10h-1.5v-1.5c0-.276-.224-.5-.5-.5s-.5.224-.5.5v1.5c0,.551.449,1,1,1h1.5c.276,0,.5-.224.5-.5s-.224-.5-.5-.5Zm3.5,3.5c0-.276-.224-.5-.5-.5s-.5.224-.5.5v1.5c0,.552.449,1,1,1h1.5c.276,0,.5-.224.5-.5s-.224-.5-.5-.5h-1.5v-1.5Zm8.999-6.803c-.014.397-.209.752-.536.973-.181.122-.507.256-.823.37.258.247.542.541.745.851.225.343.265.775.107,1.156-.157.377-.487.65-.883.731-1.126.231-2.475.374-3.573.461.82,1.457,1.114,2.874.893,4.28-.359,2.284-2.027,4.213-3.613,5.798-2.004,2.004-4.175,3.669-6.713,3.669-1.878,0-3.956-.911-6.316-3.271C-2.264,15.163.197,11.171,3.684,7.684c1.585-1.585,3.513-3.254,5.798-3.613,1.401-.22,2.817.072,4.274.891.087-1.102.231-2.448.46-3.57.081-.396.354-.727.731-.883.38-.159.812-.12,1.157.106.309.203.604.486.852.744.113-.315.246-.641.368-.821.222-.328.578-.523.975-.537.416-.003.783.166,1.027.479.309.394.543.757.709,1.04.424-.324,1.081-.738,1.833-.907.424-.095.866.031,1.175.34s.437.749.341,1.175c-.169.751-.583,1.407-.906,1.833.284.165.647.399,1.042.707.313.246.493.63.479,1.029Zm-7.993,2.297c-2.007-2.007-3.857-2.993-5.629-2.993-.248,0-.495.02-.74.058-2.001.314-3.774,1.861-5.246,3.332-3.708,3.708-5.068,6.945-.397,11.616,4.671,4.671,7.907,3.311,11.615-.397,1.471-1.472,3.018-3.245,3.332-5.246.314-1.998-.646-4.082-2.935-6.37Zm6.994-2.332c0-.038-.005-.135-.096-.206-.765-.599-1.405-.883-1.412-.886-.151-.066-.26-.204-.291-.366-.03-.163.021-.33.139-.447.008-.008.845-.851,1.069-1.848.029-.13-.041-.217-.072-.249s-.117-.102-.249-.072c-.998.225-1.839,1.06-1.848,1.068-.117.117-.285.167-.445.139-.162-.03-.299-.138-.367-.289-.003-.006-.291-.645-.891-1.412-.071-.09-.17-.1-.206-.096-.044.001-.125.016-.181.098-.114.168-.347.83-.497,1.347-.047.162-.172.289-.333.338-.162.049-.335.015-.465-.091-.095-.078-.23-.221-.391-.393-.251-.27-.594-.639-.911-.847-.096-.063-.188-.034-.224-.019-.042.017-.116.062-.136.16-.258,1.26-.404,2.835-.482,3.98.657.466,1.323,1.038,2,1.715.676.676,1.246,1.339,1.712,1.994,1.136-.077,2.717-.223,3.983-.482.099-.021.143-.094.16-.136.015-.036.043-.129-.019-.224-.207-.315-.576-.656-.845-.905-.175-.161-.319-.298-.397-.394-.106-.13-.141-.304-.092-.464.05-.161.176-.286.337-.333.518-.152,1.182-.387,1.351-.501.081-.055.096-.136.097-.18Z"/>
</svg>
