<?xml version="1.0" encoding="UTF-8"?>
<svg xmlns="http://www.w3.org/2000/svg" id="Layer_1" data-name="Layer 1" viewBox="0 0 24 24">
  <path d="m21.498,14.505l-.748-.423c.166-.691.25-1.391.25-2.082s-.084-1.391-.25-2.082l.749-.424c.58-.329.999-.864,1.177-1.508.179-.644.096-1.318-.233-1.898-.329-.582-.865-1-1.509-1.179-.643-.176-1.317-.096-1.898.234l-.752.426c-1.063-1.041-2.358-1.796-3.783-2.208v-.861c0-1.379-1.121-2.5-2.5-2.5s-2.5,1.121-2.5,2.5v.861c-1.425.412-2.72,1.167-3.784,2.208l-.75-.425c-.581-.331-1.255-.411-1.899-.235-.644.179-1.179.597-1.508,1.179-.679,1.198-.256,2.727.943,3.406l.748.424c-.166.692-.25,1.391-.25,2.082s.084,1.39.25,2.082l-.748.423c-.581.329-1,.865-1.178,1.509-.178.644-.095,1.317.234,1.898.329.582.864,1,1.508,1.179.643.176,1.317.095,1.899-.234l.751-.426c1.064,1.041,2.359,1.796,3.784,2.208v.861c0,1.379,1.122,2.5,2.5,2.5s2.5-1.121,2.5-2.5v-.861c1.425-.412,2.72-1.167,3.783-2.208l.751.425c.582.331,1.256.413,1.899.235.644-.179,1.18-.597,1.508-1.178.33-.581.413-1.256.234-1.899-.178-.644-.597-1.18-1.178-1.509Zm.073,2.915c-.197.349-.519.6-.904.707-.385.106-.791.057-1.14-.142l-1.086-.614c-.202-.112-.453-.075-.611.094-1.069,1.141-2.435,1.937-3.947,2.303-.225.055-.383.256-.383.486v1.246c0,.827-.673,1.5-1.5,1.5s-1.5-.673-1.5-1.5v-1.246c0-.23-.158-.432-.382-.486-1.514-.366-2.879-1.162-3.949-2.303-.097-.104-.23-.158-.365-.158-.084,0-.169.021-.246.064l-1.086.615c-.349.197-.753.246-1.139.141-.386-.107-.708-.358-.905-.707-.407-.72-.153-1.637.566-2.044l1.083-.613c.201-.114.297-.351.234-.572-.207-.728-.312-1.464-.312-2.19s.105-1.463.312-2.19c.063-.222-.034-.458-.234-.571l-1.083-.613c-.72-.408-.974-1.325-.566-2.045.197-.349.519-.6.905-.707.386-.105.791-.057,1.14.142l1.085.614c.201.112.453.075.611-.094,1.069-1.141,2.435-1.937,3.949-2.303.224-.055.382-.256.382-.486v-1.246c0-.827.673-1.5,1.5-1.5s1.5.673,1.5,1.5v1.246c0,.23.158.432.383.486,1.513.366,2.878,1.162,3.947,2.303.159.168.412.206.611.094l1.087-.615c.35-.196.754-.245,1.139-.141.386.107.707.358.905.708.197.348.247.752.14,1.138-.106.387-.357.708-.706.905l-1.083.613c-.201.114-.298.351-.234.572.207.727.312,1.464.312,2.19s-.104,1.464-.312,2.19c-.063.222.033.458.234.572l1.083.613c.349.197.6.519.706.904.107.387.058.791-.141,1.14Zm-5.724-7.279c.198.192.203.509.012.707-.099.102-.229.152-.359.152-.125,0-.251-.047-.348-.141l-2.652-2.572v8.212c0,.276-.224.5-.5.5s-.5-.224-.5-.5v-8.213l-2.652,2.572c-.198.19-.515.188-.707-.012-.192-.198-.188-.515.011-.707l2.845-2.759c.527-.527,1.474-.533,2.012.006l2.839,2.753Z"/>
</svg>
