<?xml version="1.0" encoding="UTF-8"?>
<svg xmlns="http://www.w3.org/2000/svg" id="Layer_1" data-name="Layer 1" viewBox="0 0 24 24">
  <path d="m23.761,15.073c-.636-.389-1.312-.704-2.01-.937-1.047-.35-1.75-1.308-1.75-2.384v-1.801c2.114-.22,4-1.195,4-3.077,0-1.988-1.926-4.875-4.944-4.875-.019,0-.037,0-.056,0V.711c0-.487-.48-.826-.942-.674-1.195.395-2.058,1.635-2.058,2.963v.373c-.622.703-1,1.623-1,2.627,0,.317.038.626.109.922-.065.878-1.638,1.909-3.301,2.999-3.033,1.989-6.808,4.463-6.808,8.75,0,.588.062,1.128.186,1.623-.094-.131-.184-.266-.269-.405-1.787-2.919-3.917-7.699-3.917-13.889C1,3.243,3.243,1,6,1s5,2.243,5,5c0,.463-.063.922-.188,1.364-.075.266.079.542.345.617.262.075.542-.079.617-.345.15-.53.226-1.081.226-1.636,0-3.309-2.691-6-6-6S0,2.691,0,6c0,6.423,2.21,11.382,4.064,14.412,1.375,2.247,3.769,3.588,6.403,3.588h11.032c.276,0,.5-.224.5-.5s-.224-.5-.5-.5h-4.503c1.216-.913,2.003-2.366,2.003-4,0-2.553-1.911-4.689-4.445-4.97-.279-.026-.521.168-.552.442-.03.274.167.522.442.552,2.027.224,3.555,1.934,3.555,3.976,0,2.206-1.794,4-4,4h-3.532c-.772,0-1.521-.134-2.22-.385-1.555-.872-2.248-2.089-2.248-3.944,0-3.746,3.524-6.057,6.356-7.913,1.426-.935,2.648-1.736,3.285-2.602.712,1.094,1.95,1.825,3.359,1.844v1.754c0,1.507.978,2.846,2.434,3.332.626.209,1.234.492,1.805.842.082.05.171.073.26.073.168,0,.333-.085.427-.239.144-.236.07-.543-.166-.688Zm-7.761-9.073c0-1.654,1.371-3,3.056-3,2.288,0,3.944,2.314,3.944,3.875,0,1.681-2.58,2.125-3.944,2.125-1.416,0-3.056-1.5-3.056-3Z"/>
</svg>
