<?xml version="1.0" encoding="UTF-8"?>
<svg xmlns="http://www.w3.org/2000/svg" id="Layer_1" data-name="Layer 1" viewBox="0 0 24 24">
  <path d="m23.287,16.673l-3.83-3.791c-.655-.657-1.595-.974-2.518-.856l-2.567.339c-1.161.154-2.071,1.113-2.164,2.28l-.198,2.479c-.07.876.246,1.734.868,2.359l3.848,3.809c.457.455,1.062.705,1.707.705h.011c.648-.003,1.255-.259,1.711-.72l3.148-3.188c.933-.945.926-2.477-.016-3.415Zm-.696,2.712l-3.148,3.188c-.267.271-.624.421-1.003.423-.359.009-.738-.146-1.009-.415l-3.847-3.807c-.413-.415-.624-.988-.577-1.571l.198-2.479c.056-.701.602-1.276,1.298-1.368,0,0,2.738-.356,2.823-.356.529,0,1.046.212,1.425.591l3.832,3.792c.552.55.556,1.447.008,2.002Zm-5.591-3.385c0,.552-.448,1-1,1s-1-.448-1-1,.448-1,1-1,1,.448,1,1Zm-8-4c3.309,0,6-2.691,6-6S12.309,0,9,0,3,2.691,3,6s2.691,6,6,6Zm0-11c2.757,0,5,2.243,5,5s-2.243,5-5,5-5-2.243-5-5S6.243,1,9,1Zm1,13.5c0,.276-.224.5-.5.5-4.687,0-8.5,3.813-8.5,8.5,0,.276-.224.5-.5.5s-.5-.224-.5-.5c0-5.238,4.262-9.5,9.5-9.5.276,0,.5.224.5.5Z"/>
</svg>
