<?xml version="1.0" encoding="UTF-8"?>
<svg xmlns="http://www.w3.org/2000/svg" id="Layer_1" data-name="Layer 1" viewBox="0 0 24 24">
  <path d="m2.179,11.313s0,0,0,0c-.002-.005-.003-.011,0,0Zm21.673,4.515c-.691,2.453-2.075,3.881-3.731,5.59-1.59,1.641-3.84,2.582-6.175,2.582h-3.891c-2.335,0-4.585-.941-6.175-2.582-1.656-1.709-3.04-3.137-3.731-5.59-.334-1.185-.104-2.42.629-3.39.377-.498.859-.88,1.4-1.125.002.005.004.01,0,0-.104-.405-.179-.888-.179-1.313,0-1.655.808-3.124,2.051-4.035-.011-.011-.022-.021-.033-.032-1.354-1.355-1.354-3.56,0-4.915,1.354-1.355,3.559-1.356,4.915,0,0-.017.136-.017.185-.038,1.306-1.317,3.509-1.319,4.865.038.785.784,1.141,1.869.997,2.913.823-.525,1.859-1.559,2.003-3.469.021-.275.241-.484.537-.461.275.021.481.261.461.536-.097,1.283-.538,2.246-1.087,2.96.873-.218,1.75-.378,2.53-.479.723-.092,1.421.151,1.927.669.505.517.732,1.222.623,1.936-.222,1.448-.803,3.569-1.645,5.376h.033c1.126,0,2.169.524,2.861,1.438.733.969.963,2.205.629,3.39ZM13.845,5.721c-.249.207-.505.398-.711.547-1.061,1.079-1.413,2.635-.918,4.069.078.168.257.484.413.663h.664l3.354-3.354c.195-.195.512-.195.707,0s.195.512,0,.707l-2.646,2.646h4.51c.906-1.792,1.547-4.084,1.768-5.528.061-.399-.066-.795-.35-1.085-.285-.291-.683-.43-1.083-.376-1.924.249-4.324.866-5.707,1.71Zm-9.121-.496c.072.071.152.14.242.207.622-.278,1.31-.433,2.033-.433,1.808,0,3.395.965,4.274,2.407.241-.691.637-1.33,1.178-1.871.218-.218.483-.422.785-.613.322-.27.566-.507.618-.611.341-.874.114-1.892-.58-2.586-.965-.965-2.536-.966-3.501,0-.235.236-.586.271-.774.271s-.539-.035-.774-.271c-.966-.966-2.537-.965-3.501,0-.965.965-.965,2.536,0,3.5Zm-1.725,4.774c0,.34.042.677.126,1,.003.012.005.024.007.036.166-.024.335-.036.505-.036h7.235c.084-.323.126-.66.126-1,0-2.206-1.794-4-4-4s-4,1.794-4,4Zm19.425,3.042c-.501-.663-1.254-1.042-2.063-1.042H3.639c-.81,0-1.562.38-2.063,1.042-.543.717-.712,1.634-.464,2.514.623,2.21,1.868,3.495,3.487,5.166,1.401,1.448,3.391,2.278,5.456,2.278h3.891c2.065,0,4.055-.83,5.456-2.277,1.619-1.67,2.864-2.956,3.487-5.166.248-.88.079-1.797-.464-2.514Z"/>
</svg>
