<?xml version="1.0" encoding="UTF-8"?>
<svg xmlns="http://www.w3.org/2000/svg" id="Layer_1" data-name="Layer 1" viewBox="0 0 24 24">
  <path d="m12,7c-3.309,0-6,2.691-6,6s2.691,6,6,6,6-2.691,6-6-2.691-6-6-6Zm0,11c-2.757,0-5-2.243-5-5s2.243-5,5-5,5,2.243,5,5-2.243,5-5,5Zm-.5-4.5v-4c0-.276.224-.5.5-.5s.5.224.5.5v4c0,.276-.224.5-.5.5s-.5-.224-.5-.5Zm1.5,2.5c0,.552-.448,1-1,1s-1-.448-1-1,.448-1,1-1,1,.448,1,1Zm3.5-14h-.55c-.232-1.14-1.242-2-2.45-2h-3c-1.208,0-2.217.86-2.45,2h-.55c-2.481,0-4.5,2.019-4.5,4.5v13c0,2.481,2.019,4.5,4.5,4.5h9c2.481,0,4.5-2.019,4.5-4.5V6.5c0-2.481-2.019-4.5-4.5-4.5Zm3.5,17.5c0,1.93-1.57,3.5-3.5,3.5H7.5c-1.93,0-3.5-1.57-3.5-3.5V6.5c0-1.93,1.57-3.5,3.5-3.5h1c.276,0,.5-.224.5-.5,0-.827.673-1.5,1.5-1.5h3c.827,0,1.5.673,1.5,1.5,0,.276.224.5.5.5h1c1.93,0,3.5,1.57,3.5,3.5v13Z"/>
</svg>
