<?xml version="1.0" encoding="UTF-8"?>
<svg xmlns="http://www.w3.org/2000/svg" id="Layer_1" data-name="Layer 1" viewBox="0 0 24 24">
  <path d="m23.909,9.322C22.491,3.833,17.594,0,12,0,6,0,1.42,4.177.091,9.322c-.222.858-.032,1.761.522,2.476.583.753,1.506,1.202,2.469,1.202h4.819c-.561,2.699-.901,5.538-.901,6.5,0,2.523,2.196,4.5,5,4.5s5-1.977,5-4.5c0-.962-.339-3.801-.901-6.5h4.819c.963,0,1.886-.449,2.469-1.202.554-.715.744-1.617.522-2.476ZM11,2c0,1.654-1.346,3-3,3-1.184,0-2.231-.682-2.717-1.753,1.601-1.2,3.514-1.975,5.566-2.187.1.301.151.616.151.94Zm-2,8.5c0-.827.673-1.5,1.5-1.5s1.5.673,1.5,1.5-.673,1.5-1.5,1.5-1.5-.673-1.5-1.5Zm7,9c0,1.963-1.757,3.5-4,3.5s-4-1.537-4-3.5c0-.943.349-3.807.922-6.5h6.156c.573,2.693.922,5.557.922,6.5Zm6.596-8.314c-.395.51-1.022.814-1.678.814h-8.419c.315-.418.501-.938.501-1.5,0-1.379-1.122-2.5-2.5-2.5s-2.5,1.121-2.5,2.5c0,.562.187,1.082.501,1.5H3.082c-.656,0-1.283-.305-1.678-.814-.363-.469-.488-1.057-.345-1.613.583-2.254,1.803-4.204,3.432-5.673.689,1.291,2.017,2.101,3.509,2.101,2.206,0,4-1.794,4-4,0-.341-.042-.675-.126-.999.042,0,.084-.001.126-.001,5.138,0,9.637,3.525,10.941,8.572.144.557.018,1.145-.345,1.613Zm-5.596-6.186c-1.103,0-2,.897-2,2s.897,2,2,2,2-.897,2-2-.897-2-2-2Zm0,3c-.551,0-1-.448-1-1s.449-1,1-1,1,.448,1,1-.449,1-1,1Z"/>
</svg>
