<?xml version="1.0" encoding="UTF-8"?>
<svg xmlns="http://www.w3.org/2000/svg" id="Layer_1" data-name="Layer 1" viewBox="0 0 24 24">
  <path d="m18.518,15.614l-5.654,5.654c-.472.472-1.1.732-1.768.732s-1.296-.26-1.768-.732l-3.385-3.384c-.195-.195-.195-.512,0-.707s.512-.195.707,0l3.385,3.384c.566.566,1.555.566,2.121,0l5.654-5.654c.195-.195.512-.195.707,0s.195.512,0,.707Zm-.37-8.426c-.441-.099-.806-.378-1-.767-1.615-3.223-5.101-4.944-8.675-4.279-3.135.582-5.669,3.081-6.306,6.218-.19.933-.218,1.873-.083,2.796.083.568-.058,1.073-.386,1.387-1.095,1.046-1.698,2.452-1.698,3.958,0,3.033,2.467,5.5,5.5,5.5h1c.276,0,.5-.224.5-.5s-.224-.5-.5-.5h-1c-2.481,0-4.5-2.019-4.5-4.5,0-1.23.493-2.379,1.388-3.235.566-.541.815-1.362.685-2.254-.118-.808-.093-1.633.074-2.452.557-2.742,2.77-4.926,5.508-5.434,3.128-.583,6.185.923,7.598,3.743.33.659.94,1.13,1.676,1.295,2.938.659,5.071,3.324,5.071,6.337,0,3.584-2.916,6.5-6.5,6.5h-1c-.276,0-.5.224-.5.5s.224.5.5.5h1c4.136,0,7.5-3.364,7.5-7.5,0-3.533-2.406-6.54-5.852-7.312Z"/>
</svg>
