<?xml version="1.0" encoding="UTF-8"?>
<svg xmlns="http://www.w3.org/2000/svg" id="Layer_1" data-name="Layer 1" viewBox="0 0 24 24">
  <path d="m12,0C5.383,0,0,5.383,0,12s5.383,12,12,12,12-5.383,12-12S18.617,0,12,0Zm0,1c4.475,0,8.327,2.69,10.044,6.535-.436-.344-.976-.535-1.544-.535h-4.185c-1.023,0-1.984.358-2.791,1h-3.023c-.006,0-.01.003-.016.003-.795-.639-1.764-1.003-2.798-1.003H3.5c-.568,0-1.108.191-1.544.535C3.673,3.69,7.525,1,12,1Zm4.314,7h4.185c.451,0,.874.2,1.16.549s.399.803.311,1.246l-.239,1.195c-.233,1.164-1.264,2.01-2.452,2.01h-2.279c-1.149,0-2.147-.778-2.426-1.894l-.561-2.243c.638-.559,1.446-.863,2.301-.863Zm-6.329.865l-.56,2.241c-.279,1.115-1.276,1.894-2.426,1.894h-2.279c-1.188,0-2.219-.846-2.452-2.01l-.239-1.195c-.088-.443.025-.897.311-1.246s.708-.549,1.16-.549h4.185c.844,0,1.643.297,2.3.865Zm2.014,14.135c-6.065,0-11-4.935-11-11,0-.546.053-1.079.13-1.604l.158.79c.326,1.631,1.769,2.814,3.432,2.814h2.279c1.609,0,3.005-1.09,3.396-2.651l.587-2.349h2.035l.587,2.349c.39,1.562,1.787,2.651,3.396,2.651h2.279c1.663,0,3.106-1.184,3.432-2.814l.158-.79c.077.525.13,1.058.13,1.604,0,6.065-4.935,11-11,11Z"/>
  <path d="m17.084,15.973c-1.284,1.926-3.168,2.942-5.6,3.021-.276.009-.493.24-.483.517.009.271.23.483.499.483h.017c3.455-.113,5.387-1.947,6.4-3.467.153-.229.091-.54-.139-.693-.231-.153-.541-.091-.693.139Z"/>
</svg>
