<?xml version="1.0" encoding="UTF-8"?>
<svg xmlns="http://www.w3.org/2000/svg" id="Layer_1" data-name="Layer 1" viewBox="0 0 24 24">
  <path d="m13.414,20.707c-.255-.255-.574-.424-.914-.507v-3.943l2.957-1.707,2.795,1.602c.078.045.164.066.248.066.173,0,.342-.09.434-.251.138-.24.055-.546-.185-.683l-2.749-1.576v-3.421l3.138-1.799c.239.254.547.448.904.55l3.322.94c.045.013.091.019.137.019.218,0,.418-.144.48-.364.075-.266-.079-.542-.345-.617l-3.321-.94c-.525-.148-.835-.697-.693-1.224l.907-3.346c.072-.267-.085-.541-.352-.613-.268-.073-.542.085-.613.352l-.907,3.346c-.094.346-.089.697-.004,1.023l-3.072,1.761-3.081-1.779v-3.782c.343-.088.657-.266.914-.523l2.439-2.439c.195-.195.195-.512,0-.707s-.512-.195-.707,0l-2.439,2.439c-.378.377-1.036.377-1.414,0L8.854.146c-.195-.195-.512-.195-.707,0s-.195.512,0,.707l2.439,2.439c.257.257.571.435.914.523v3.782l-3.081,1.779-3.072-1.761c.085-.326.09-.677-.004-1.023l-.907-3.346c-.072-.267-.347-.422-.613-.352-.267.072-.424.347-.352.613l.907,3.346c.143.526-.168,1.075-.692,1.224l-3.322.94c-.266.075-.42.352-.345.617.062.221.263.364.48.364.045,0,.091-.006.137-.019l3.322-.94c.357-.102.665-.296.904-.55l3.138,1.799v3.37l-2.784,1.595c-.24.137-.323.442-.185.683.092.161.261.251.434.251.084,0,.17-.021.248-.066l2.786-1.596,3.001,1.732v3.943c-.34.083-.659.251-.914.507l-2.439,2.439c-.195.195-.195.512,0,.707s.512.195.707,0l2.439-2.439c.378-.377,1.036-.377,1.414,0l2.439,2.439c.098.098.226.146.354.146s.256-.049.354-.146c.195-.195.195-.512,0-.707l-2.439-2.439Zm-1.886-.513c.003-.009.006-.011.01-.002-.003,0-.006.002-.01.002Zm-2.528-6.534v-3.464l2.943-1.7c.019.002.038.003.057.003s.038-.001.057-.003l2.943,1.7v3.464l-3,1.732-3-1.732Zm3.472,6.534s-.006-.002-.01-.002c.003-.008.007-.006.01.002Zm-8.528-2.809c-.521-.51-1.368-.51-1.931.048l-1.134,1.446c-1.169,1.17-1.169,3.072,0,4.242.566.566,1.319.879,2.121.879s1.555-.312,2.121-.879c1.169-1.17,1.169-3.072.04-4.198l-1.217-1.538Zm.47,5.029c-.755.756-2.073.756-2.828,0-.78-.779-.78-2.049.04-2.872l1.13-1.442c.075-.073.176-.106.267-.106.072,0,.138.021.179.059l1.213,1.534c.78.779.78,2.049,0,2.828Zm18.747-3.491l-1.217-1.538c-.521-.51-1.368-.51-1.931.048l-1.134,1.446c-1.169,1.17-1.169,3.072,0,4.242.566.566,1.319.879,2.121.879s1.555-.312,2.121-.879c1.169-1.17,1.169-3.072.04-4.198Zm-.747,3.491c-.755.756-2.073.756-2.828,0-.78-.779-.78-2.049.04-2.872l1.13-1.442c.075-.073.176-.106.267-.106.072,0,.138.021.179.059l1.213,1.534c.78.779.78,2.049,0,2.828Z"/>
</svg>
