<?xml version="1.0" encoding="UTF-8"?>
<svg xmlns="http://www.w3.org/2000/svg" id="Layer_1" data-name="Layer 1" viewBox="0 0 24 24">
  <path d="m23.86,12.715c-1.181-3.285-4.33-5.534-7.922-5.704-.49-3.966-3.891-7.011-7.939-7.011C3.589,0,0,3.589,0,8v15.5c0,.276.224.5.5.5s.5-.224.5-.5v-15.5c0-3.859,3.141-7,7-7,3.502,0,6.452,2.604,6.931,6.018-3.537.218-6.625,2.452-7.792,5.697-.264.735-.152,1.529.306,2.179.487.692,1.294,1.106,2.157,1.106h3.397v.5c0,1.379,1.121,2.5,2.5,2.5s2.5-1.121,2.5-2.5v-.5h3.397c.863,0,1.67-.414,2.157-1.106.458-.649.569-1.443.306-2.179Zm-6.86,3.785c0,.827-.673,1.5-1.5,1.5s-1.5-.673-1.5-1.5v-.5h3v.5Zm5.737-2.182c-.301.427-.802.682-1.34.682h-11.795c-.538,0-1.039-.255-1.34-.682-.268-.381-.334-.842-.182-1.266,1.081-3.01,4.085-5.036,7.419-5.053,3.352,0,6.333,2.03,7.419,5.053.152.424.086.885-.182,1.266Z"/>
</svg>
