<?xml version="1.0" encoding="UTF-8"?>
<svg xmlns="http://www.w3.org/2000/svg" id="Layer_1" data-name="Layer 1" viewBox="0 0 24 24">
  <path d="m18,16.5v5c0,1.379-1.121,2.5-2.5,2.5s-2.5-1.121-2.5-2.5v-5c0-.276.224-.5.5-.5s.5.224.5.5v5c0,.827.673,1.5,1.5,1.5s1.5-.673,1.5-1.5v-5c0-.276.224-.5.5-.5s.5.224.5.5Zm-7.627,3.032c-.31-.116-1.188-.466-1.522-.67-.325-.231-.478-.568-.428-.948.053-.398.315-.723.687-.846.559-.185,1.121-.009,1.769.553.209.181.525.158.705-.051.181-.208.158-.524-.051-.705-.914-.792-1.833-1.045-2.736-.746-.738.244-1.262.882-1.365,1.665-.098.754.209,1.444.88,1.917.491.306,1.588.721,1.699.763,1.052.425,1.013,1.203.976,1.432-.104.64-.669,1.104-1.342,1.104-.524,0-1.349-.368-1.763-.787-.193-.195-.51-.199-.707-.004-.196.194-.198.511-.004.707.526.533,1.596,1.084,2.474,1.084,1.166,0,2.146-.817,2.328-1.944.133-.812-.204-1.96-1.599-2.523Zm13.627-13.032v7c0,.276-.224.5-.5.5s-.5-.224-.5-.5v-4.5H1v10.5c0,1.93,1.57,3.5,3.5,3.5.276,0,.5.224.5.5s-.224.5-.5.5c-2.481,0-4.5-2.019-4.5-4.5V6.5C0,4.019,2.019,2,4.5,2h1.5V.5c0-.276.224-.5.5-.5s.5.224.5.5v1.5h10V.5c0-.276.224-.5.5-.5s.5.224.5.5v1.5h1.5c2.481,0,4.5,2.019,4.5,4.5Zm-1,1.5v-1.5c0-1.93-1.57-3.5-3.5-3.5H4.5c-1.93,0-3.5,1.57-3.5,3.5v1.5h22Zm.5,8c-.276,0-.5.224-.5.5v5.653l-2.521-5.682c-.149-.338-.507-.522-.865-.443-.361.076-.613.387-.613.756v6.716c0,.276.224.5.5.5s.5-.224.5-.5v-5.642l2.521,5.683c.127.285.401.459.702.459.054,0,.109-.006.164-.018.36-.076.612-.387.612-.755v-6.728c0-.276-.224-.5-.5-.5Z"/>
</svg>
