<?xml version="1.0" encoding="UTF-8"?>
<svg xmlns="http://www.w3.org/2000/svg" id="Layer_1" data-name="Layer 1" viewBox="0 0 24 24">
  <path d="m3.317,4.478c-.214-.185-.233-.513-.039-.719.548-.58,1.152-1.104,1.803-1.564.231-.163.553-.098.707.14l.004.007c.146.226.085.525-.135.681-.593.42-1.142.897-1.64,1.423-.185.196-.49.214-.693.037l-.007-.006ZM8.765.98c.076.259.343.408.604.343.693-.172,1.411-.28,2.149-.313.269-.012.482-.23.482-.499C12,.228,11.765-.001,11.482.011c-.799.034-1.591.147-2.362.337-.275.068-.436.354-.356.626l.002.006ZM.628,10.366l.012.002c.267.038.513-.142.562-.407.135-.722.34-1.419.608-2.084.101-.25-.009-.534-.254-.646l-.009-.004c-.258-.118-.564,0-.671.263-.3.74-.526,1.508-.672,2.293-.052.278.142.544.422.583Zm.575,3.674c-.05-.265-.296-.445-.563-.407l-.013.002c-.28.04-.474.305-.422.584.147.786.372,1.554.672,2.294.107.262.413.381.671.263l.01-.004c.245-.112.355-.397.254-.646-.269-.665-.474-1.362-.609-2.084Zm9.531-1.665l.468-.375-.468-.374c-.673-.538-2.283-2.008-2.708-4.022-.051-.24-.053-.749.259-1.134.173-.214.508-.469,1.12-.469h5.192c.61,0,.944.254,1.118.467.385.473.274,1.068.261,1.134-.425,2.016-2.035,3.486-2.708,4.024l-.468.375.468.375c.673.538,2.283,2.008,2.708,4.022.014.067.124.663-.261,1.136-.174.213-.508.467-1.118.467h-5.192c-.611,0-.946-.255-1.12-.469-.312-.386-.31-.895-.259-1.135.424-2.014,2.035-3.484,2.708-4.022Zm.625-1.53l.642.515.643-.514c.589-.471,1.996-1.75,2.354-3.448.008-.047.011-.217-.06-.301-.07-.083-.244-.096-.341-.096h-5.192c-.097,0-.271.013-.341.096-.071.084-.068.252-.059.304.357,1.694,1.765,2.974,2.354,3.444Zm-2.354,5.758c-.008.048-.011.217.06.301.07.083.244.096.341.096h5.192c.097,0,.271-.013.341-.096.07-.084.067-.253.059-.305-.357-1.693-1.765-2.973-2.354-3.443l-.643-.515-.642.514c-.589.471-1.997,1.75-2.354,3.448ZM19.909,3h3.591c.276,0,.5-.224.5-.5s-.224-.5-.5-.5h-4c-.827,0-1.5.673-1.5,1.5v4c0,.276.224.5.5.5s.5-.224.5-.5v-3.965c2.539,2.099,4,5.155,4,8.465,0,6.065-4.935,11-11,11-3.37,0-6.507-1.514-8.609-4.152-.171-.216-.485-.251-.703-.08-.216.172-.251.487-.08.703,2.292,2.878,5.715,4.529,9.391,4.529,6.617,0,12-5.383,12-12,0-3.49-1.49-6.719-4.091-9Z"/>
</svg>
