<?xml version="1.0" encoding="UTF-8"?>
<svg xmlns="http://www.w3.org/2000/svg" id="Layer_1" data-name="Layer 1" viewBox="0 0 24 24">
  <path d="m21,6c1.654,0,3-1.346,3-3s-1.346-3-3-3c-1.304,0-2.415.836-2.828,2H5.828c-.413-1.164-1.524-2-2.828-2C1.346,0,0,1.346,0,3c0,1.304.836,2.415,2,2.828v10.344c-1.164.413-2,1.524-2,2.828,0,1.654,1.346,3,3,3,1.304,0,2.415-.836,2.828-2h16.038c-.043.075-.096.144-.159.207l-2.939,2.939c-.195.195-.195.512,0,.707.098.098.226.146.354.146s.256-.049.354-.146l2.939-2.939c.378-.377.586-.88.586-1.414s-.208-1.037-.586-1.414l-2.939-2.939c-.195-.195-.512-.195-.707,0s-.195.512,0,.707l2.939,2.939c.063.063.116.132.159.207H6c0-1.654-1.346-3-3-3V6c1.654,0,3-1.346,3-3h12c0,1.654,1.346,3,3,3ZM5,19c0,1.103-.897,2-2,2s-2-.897-2-2,.897-2,2-2,2,.897,2,2ZM3,5c-1.103,0-2-.897-2-2S1.897,1,3,1s2,.897,2,2-.897,2-2,2ZM21,1c1.103,0,2,.897,2,2s-.897,2-2,2-2-.897-2-2,.897-2,2-2Zm-12,10c0,1.654,1.346,3,3,3s3-1.346,3-3-1.346-3-3-3-3,1.346-3,3Zm5,0c0,1.103-.897,2-2,2s-2-.897-2-2,.897-2,2-2,2,.897,2,2Z"/>
</svg>
