<?xml version="1.0" encoding="UTF-8"?>
<svg xmlns="http://www.w3.org/2000/svg" id="Layer_1" data-name="Layer 1" viewBox="0 0 24 24">
  <path d="m6.5,10h4c1.378,0,2.5-1.208,2.5-2.694,0-1.645-1.678-3.628-3.228-4.436.378-.27.777-.634,1.058-1.102.218-.362.226-.814.019-1.181-.208-.368-.584-.587-1.007-.587h-2.683c-.423,0-.8.22-1.007.587-.207.367-.2.819.019,1.18.282.468.68.832,1.058,1.102-1.551.808-3.228,2.792-3.228,4.436,0,1.485,1.122,2.694,2.5,2.694Zm.522-8.921c.02-.036.061-.079.136-.079h2.683c.076,0,.116.043.136.079.018.032.042.097-.004.173-.389.646-1.136,1.048-1.474,1.205-.338-.157-1.084-.559-1.474-1.205-.046-.076-.022-.141-.004-.172Zm1.478,2.421c1.205,0,3.5,2.275,3.5,3.806,0,.934-.673,1.694-1.5,1.694h-4c-.827,0-1.5-.76-1.5-1.694,0-1.531,2.295-3.806,3.5-3.806Zm6.189.396c-.195-.195-.195-.512,0-.707l2.75-2.75c.285-.285.561-.439,1.061-.439s.776.154,1.061.439l2.752,2.752c.195.195.195.512,0,.707-.098.098-.226.146-.354.146s-.256-.049-.354-.146l-2.605-2.605v6.207c0,.276-.224.5-.5.5s-.5-.224-.5-.5V1.293l-2.604,2.604c-.195.195-.512.195-.707,0Zm8.491,5.758c-.496-.452-1.141-.675-1.809-.652-.67.032-1.288.322-1.739.818l-3.732,4.102c-.314-1.108-1.335-1.923-2.543-1.923H3.5c-1.93,0-3.5,1.57-3.5,3.5v5c0,1.93,1.57,3.5,3.5,3.5h5.965c2.706,0,5.291-1.159,7.093-3.18l6.806-7.64c.911-1.022.829-2.604-.183-3.526Zm-.563,2.861l-6.806,7.639c-1.612,1.809-3.925,2.846-6.347,2.846H3.5c-1.378,0-2.5-1.121-2.5-2.5v-5c0-1.379,1.122-2.5,2.5-2.5h9.857c.905,0,1.643.737,1.643,1.643,0,.812-.605,1.511-1.398,1.624l-6.161.737c-.274.032-.47.281-.437.556.033.273.274.479.556.437l6.172-.738c1.022-.146,1.846-.879,2.146-1.824l4.496-4.94c.271-.298.643-.473,1.046-.492.403-.02.79.12,1.088.393.609.555.658,1.506.11,2.122Z"/>
</svg>
