<?xml version="1.0" encoding="UTF-8"?>
<svg xmlns="http://www.w3.org/2000/svg" id="Layer_1" data-name="Layer 1" viewBox="0 0 24 24">
  <path d="m13,23c0,.552-.448,1-1,1s-1-.448-1-1,.448-1,1-1,1,.448,1,1Zm-3.828-2.829c-.195.195-.195.512,0,.707s.512.195.707,0c1.133-1.133,3.109-1.133,4.242,0,.098.098.226.146.354.146s.256-.049.354-.146c.195-.195.195-.512,0-.707-1.51-1.511-4.146-1.511-5.656,0Zm8.485-2.121c.195-.195.195-.512,0-.707-3.119-3.119-8.195-3.119-11.314,0-.195.195-.195.512,0,.707s.512.195.707,0c2.73-2.729,7.17-2.729,9.9,0,.098.098.226.146.354.146s.256-.049.354-.146Zm.491-10.863c-.441-.099-.807-.378-1.001-.767-1.614-3.221-5.099-4.942-8.674-4.279-3.135.582-5.669,3.081-6.308,6.218-.189.934-.217,1.875-.083,2.796.083.568-.058,1.074-.386,1.387-1.095,1.045-1.697,2.451-1.697,3.958,0,3.033,2.468,5.5,5.5,5.5h1c.276,0,.5-.224.5-.5s-.224-.5-.5-.5h-1c-2.481,0-4.5-2.019-4.5-4.5,0-1.23.493-2.379,1.389-3.234.565-.54.814-1.362.685-2.255-.118-.807-.094-1.632.073-2.452.558-2.742,2.771-4.926,5.509-5.434,3.13-.58,6.184.924,7.598,3.744.33.658.941,1.13,1.677,1.294,2.938.659,5.07,3.324,5.07,6.337,0,3.214-2.395,5.98-5.571,6.434-.272.039-.463.292-.424.566s.285.461.566.424c3.665-.524,6.429-3.716,6.429-7.424,0-3.533-2.406-6.54-5.852-7.312Z"/>
</svg>
