<?xml version="1.0" encoding="UTF-8"?>
<svg xmlns="http://www.w3.org/2000/svg" id="Layer_1" data-name="Layer 1" viewBox="0 0 24 24">
  <path d="m17.778,13.569c.295.506.297,1.111.005,1.619-.292.508-.816.812-1.402.812h-1.882c-.276,0-.5-.224-.5-.5s.224-.5.5-.5h1.882c.322,0,.481-.217.535-.31.053-.093.16-.339-.002-.617l-4.382-7.512c-.161-.276-.426-.307-.532-.307s-.372.03-.532.307l-4.382,7.512c-.163.278-.056.524-.002.617.054.093.212.31.535.31h1.882c.276,0,.5.224.5.5s-.224.5-.5.5h-1.882c-.586,0-1.11-.304-1.402-.812-.292-.508-.29-1.113.005-1.619l4.382-7.512c.292-.502.814-.803,1.396-.803s1.104.301,1.396.803l4.382,7.512Zm-5.278-1.069v-3c0-.276-.224-.5-.5-.5s-.5.224-.5.5v3c0,.276.224.5.5.5s.5-.224.5-.5Zm-.5,1.5c-.552,0-1,.448-1,1s.448,1,1,1,1-.448,1-1-.448-1-1-1Zm10.442,3.912c-.329.582-.865,1-1.508,1.179-.644.177-1.318.095-1.899-.235l-.75-.425c-1.064,1.041-2.359,1.796-3.784,2.208v.861c0,1.379-1.122,2.5-2.5,2.5s-2.5-1.121-2.5-2.5v-.861c-1.425-.412-2.72-1.167-3.784-2.208l-.751.426c-.581.329-1.256.41-1.899.234-.644-.179-1.179-.597-1.508-1.179-.329-.581-.412-1.255-.234-1.898.178-.644.597-1.18,1.178-1.509l.748-.423c-.166-.692-.25-1.391-.25-2.082s.084-1.39.25-2.082l-.748-.424c-1.199-.68-1.623-2.208-.943-3.406.329-.582.864-1,1.508-1.179.646-.176,1.319-.095,1.899.235l.75.425c1.064-1.041,2.359-1.796,3.784-2.208v-.861c0-1.379,1.122-2.5,2.5-2.5s2.5,1.121,2.5,2.5v.861c1.425.412,2.72,1.167,3.784,2.208l.751-.426c.582-.329,1.256-.41,1.899-.234.644.179,1.179.597,1.508,1.179.679,1.198.256,2.727-.943,3.406l-.748.424c.166.692.25,1.391.25,2.082s-.084,1.39-.25,2.082l.749.423c.581.329.999.865,1.177,1.509s.095,1.317-.234,1.898Zm-.73-1.632c-.107-.386-.358-.707-.706-.904l-1.083-.613c-.201-.114-.297-.351-.234-.572.207-.728.312-1.464.312-2.19s-.105-1.463-.312-2.19c-.063-.222.034-.458.234-.571l1.083-.613c.72-.408.974-1.325.566-2.045-.197-.349-.519-.6-.905-.707-.386-.105-.791-.056-1.139.141l-1.086.615c-.201.11-.453.074-.611-.094-1.069-1.141-2.435-1.937-3.949-2.303-.224-.055-.382-.256-.382-.486v-1.246c0-.827-.673-1.5-1.5-1.5s-1.5.673-1.5,1.5v1.246c0,.23-.158.432-.382.486-1.514.366-2.879,1.162-3.949,2.303-.158.169-.411.205-.611.094l-1.085-.614c-.349-.198-.754-.247-1.14-.142-.386.107-.708.358-.905.707-.408.72-.153,1.637.566,2.045l1.083.613c.201.113.297.35.234.571-.207.728-.312,1.464-.312,2.19s.105,1.463.312,2.19c.063.222-.034.458-.234.572l-1.083.613c-.72.407-.974,1.324-.566,2.044.198.349.519.6.905.707.386.105.791.056,1.139-.141l1.086-.615c.077-.043.162-.064.246-.064.135,0,.268.055.365.158,1.07,1.141,2.435,1.937,3.949,2.303.224.055.382.256.382.486v1.246c0,.827.673,1.5,1.5,1.5s1.5-.673,1.5-1.5v-1.246c0-.23.158-.432.382-.486,1.514-.366,2.879-1.162,3.949-2.303.159-.168.411-.205.611-.094l1.085.614c.349.198.753.247,1.14.142.386-.107.708-.358.905-.707s.248-.754.141-1.14Z"/>
</svg>
