<?xml version="1.0" encoding="UTF-8"?>
<svg xmlns="http://www.w3.org/2000/svg" id="Layer_1" data-name="Layer 1" viewBox="0 0 24 24">
  <path d="m23.602,10.535c-.337-.468-.835-.773-1.388-.883l.9-.9c.804-.803.937-2.068.308-2.94-.384-.534-.975-.871-1.623-.928.286-.708.229-1.519-.215-2.137-.388-.539-.985-.878-1.641-.931-.659-.051-1.297.183-1.76.647l-.356.356c-.054-.308-.166-.605-.354-.865-.388-.539-.985-.878-1.641-.931-.659-.052-1.297.184-1.76.647L5,10.74v-3.147c0-1.273-.896-2.379-2.084-2.573-.731-.117-1.475.085-2.035.562-.56.476-.881,1.17-.881,1.905v7.17c0,2.248.915,4.447,2.511,6.031l.815.81c1.627,1.616,3.78,2.503,6.07,2.503.026,0,.052,0,.079,0,2.319-.021,4.487-.947,6.103-2.61l7.717-7.914c.804-.803.937-2.067.308-2.94Zm-1.02,2.237l-7.722,7.919c-1.429,1.471-3.345,2.29-5.395,2.309-2.045-.011-3.98-.768-5.435-2.212l-.815-.81c-1.408-1.398-2.215-3.338-2.215-5.322v-7.17c0-.44.193-.857.529-1.143.342-.29.778-.407,1.227-.336.709.115,1.245.797,1.245,1.586v4.354c0,.202.122.385.309.462.186.079.401.035.545-.108L14.778,2.376c.256-.256.616-.384.973-.357.366.03.689.214.909.519.345.479.258,1.188-.202,1.648l-5.137,5.136c-.195.195-.195.512,0,.707.098.098.226.146.354.146s.256-.049.354-.146l5.136-5.135s0,0,0,0c0,0,0,0,0,0l1.723-1.723c.256-.256.612-.385.973-.357.366.03.689.214.909.519.345.48.258,1.189-.203,1.649l-1.689,1.689s0,0,0,.001l-5.104,5.103c-.195.195-.195.512,0,.707.098.098.226.146.354.146s.256-.049.354-.146l6.247-6.247c.256-.256.612-.384.973-.357.366.03.689.214.909.519.345.479.258,1.188-.203,1.649l-2.689,2.69-3.491,3.491c-.195.195-.195.512,0,.707s.512.195.707,0l3.118-3.117s0,0,0,0l.373-.373.484-.484c.256-.256.611-.383.973-.357.366.03.689.214.909.519.345.479.258,1.188-.208,1.653Zm-11.832.749c-.722,0-1.344.303-1.75.792-.406-.489-1.028-.792-1.75-.792-1.241,0-2.25,1.072-2.25,2.391,0,1.504,1.576,3.11,2.897,4.193.319.262.711.393,1.103.393s.783-.131,1.103-.393c1.322-1.083,2.897-2.689,2.897-4.193,0-1.318-1.009-2.391-2.25-2.391Zm-1.281,5.811c-.276.227-.661.227-.938,0-1.609-1.318-2.531-2.564-2.531-3.42,0-.767.561-1.391,1.25-1.391.736,0,1.25.501,1.25,1.219,0,.276.224.5.5.5s.5-.224.5-.5c0-.718.514-1.219,1.25-1.219.689,0,1.25.624,1.25,1.391,0,.855-.922,2.102-2.531,3.42Z"/>
</svg>
