<?xml version="1.0" encoding="UTF-8"?>
<svg xmlns="http://www.w3.org/2000/svg" id="Layer_1" data-name="Layer 1" viewBox="0 0 24 24">
  <path d="m5,23.5c0,.276-.224.5-.5.5h-1c-1.93,0-3.5-1.57-3.5-3.5v-1c0-.276.224-.5.5-.5s.5.224.5.5v1c0,1.379,1.122,2.5,2.5,2.5h1c.276,0,.5.224.5.5ZM4.5,0h-1C1.57,0,0,1.57,0,3.5v1c0,.276.224.5.5.5s.5-.224.5-.5v-1c0-1.379,1.122-2.5,2.5-2.5h1c.276,0,.5-.224.5-.5s-.224-.5-.5-.5ZM.5,11c.276,0,.5-.224.5-.5v-3c0-.276-.224-.5-.5-.5s-.5.224-.5.5v3c0,.276.224.5.5.5Zm0,6c.276,0,.5-.224.5-.5v-3c0-.276-.224-.5-.5-.5s-.5.224-.5.5v3c0,.276.224.5.5.5ZM23.909,4.441l-3.617,15.914c-.488,2.146-2.366,3.645-4.566,3.645h-5.088c-1.112,0-2.148-.499-2.842-1.368-.694-.869-.951-1.989-.705-3.073l3.617-15.914c.488-2.146,2.366-3.645,4.566-3.645h5.088c1.112,0,2.148.499,2.842,1.368.694.869.951,1.989.705,3.073Zm-1.486-2.449c-.503-.631-1.254-.992-2.061-.992h-5.088c-1.73,0-3.207,1.179-3.591,2.866l-3.616,15.913c-.179.786.007,1.599.51,2.229.503.631,1.254.992,2.061.992h5.088c1.73,0,3.207-1.179,3.591-2.866l3.616-15.913c.179-.786-.007-1.599-.51-2.229Zm-14.923-.992h2c.276,0,.5-.224.5-.5s-.224-.5-.5-.5h-2c-.276,0-.5.224-.5.5s.224.5.5.5Z"/>
</svg>
