<?xml version="1.0" encoding="UTF-8"?>
<svg xmlns="http://www.w3.org/2000/svg" id="Layer_1" data-name="Layer 1" viewBox="0 0 24 24">
  <path d="m15.435,6.131c.137.24.054.545-.187.682l-2.5,1.429c-.078.045-.163.066-.248.066-.173,0-.342-.09-.435-.252-.137-.24-.054-.545.187-.682l2.5-1.429c.236-.137.544-.055.683.186Zm.63-1.735c-.217-.649.134-1.353.781-1.569l1.437-.542.549-1.456c.116-.349.408-.642.775-.764.314-.106.649-.081.946.066.296.148.517.402.621.715l.548,1.452,1.441.531c.642.22.988.919.773,1.564-.125.369-.417.66-.782.782l-1.447.533-.539,1.46c-.099.299-.319.553-.615.701-.175.087-.363.131-.553.131-.132,0-.265-.021-.394-.064-.367-.122-.659-.415-.782-.782l-.527-1.432-1.469-.553c-.348-.115-.64-.407-.764-.773Zm.948-.318c.023.07.079.126.149.15l1.916.72.689,1.875c.029.085.085.141.155.165.081.026.149.003.183-.013.033-.017.093-.056.119-.137l.703-1.908,1.896-.697c.085-.028.141-.085.165-.157.041-.123-.026-.259-.15-.3l-.015-.005-1.877-.692-.715-1.897c-.033-.099-.093-.139-.126-.155-.021-.011-.06-.025-.106-.025-.023,0-.049.004-.076.013-.07.023-.126.08-.149.15l-.715,1.898-1.878.708c-.143.048-.21.184-.168.309Zm-6.761,4.439l-1.5.857c-.24.137-.323.442-.187.682.093.162.262.252.435.252.085,0,.17-.021.248-.066l1.5-.857c.24-.137.323-.442.187-.682-.14-.242-.446-.323-.683-.186Zm13.248,12.483h-12.5v-3.5c0-.827-.673-1.5-1.5-1.5h-2.5v-6.5c0-.276-.224-.5-.5-.5s-.5.224-.5.5v6.5h-3c-1.103,0-2-.897-2-2v-5c0-1.103.897-2,2-2h3.969c.435,0,.864-.114,1.24-.33l6.539-3.736c.24-.137.323-.442.187-.682-.139-.241-.446-.323-.683-.186l-6.539,3.736c-.227.129-.483.198-.744.198h-3.969c-1.654,0-3,1.346-3,3v5c0,1.304.836,2.415,2,2.828v6.672c0,.276.224.5.5.5s.5-.224.5-.5v-6.5h6.5c.275,0,.5.224.5.5v3.55c-1.14.232-2,1.242-2,2.45,0,.276.224.5.5.5s.5-.224.5-.5c0-.827.673-1.5,1.5-1.5h13c.276,0,.5-.224.5-.5s-.224-.5-.5-.5ZM2,2.5c0-1.378,1.121-2.5,2.5-2.5s2.5,1.122,2.5,2.5-1.121,2.5-2.5,2.5-2.5-1.122-2.5-2.5Zm1,0c0,.827.673,1.5,1.5,1.5s1.5-.673,1.5-1.5-.673-1.5-1.5-1.5-1.5.673-1.5,1.5Z"/>
</svg>
