<?xml version="1.0" encoding="UTF-8"?>
<svg xmlns="http://www.w3.org/2000/svg" id="Layer_1" data-name="Layer 1" viewBox="0 0 24 24">
  <path d="m23.619,19.581c.246.246.381.572.381.919s-.135.674-.381.919l-2.434,2.434c-.098.098-.226.146-.354.146s-.256-.049-.354-.146c-.195-.195-.195-.512,0-.707l2.146-2.146h-5.625c-.276,0-.5-.224-.5-.5s.224-.5.5-.5h5.625l-2.146-2.146c-.195-.195-.195-.512,0-.707s.512-.195.707,0l2.434,2.434Zm-7.619-3.581c-4.411,0-8-3.589-8-8S11.589,0,16,0s8,3.589,8,8-3.589,8-8,8Zm7-8c0-3.86-3.14-7-7-7s-7,3.14-7,7,3.14,7,7,7,7-3.14,7-7Zm-7.76,10.029c-.262-.093-.546.044-.638.305-.987,2.791-3.64,4.667-6.602,4.667-3.86,0-7-3.14-7-7,0-2.962,1.875-5.615,4.667-6.602.26-.092.397-.377.305-.638-.092-.261-.376-.397-.638-.305-3.19,1.127-5.333,4.16-5.333,7.544,0,4.411,3.589,8,8,8,3.385,0,6.417-2.144,7.544-5.333.092-.26-.044-.546-.305-.638Zm-7.24,3.971c.276,0,.5-.224.5-.5v-1h.55c1.324,0,2.44-1.052,2.45-2.376.009-1.184-.835-2.188-2.001-2.381l-2.833-.473c-.675-.112-1.166-.691-1.166-1.375,0-.615.401-1.139.955-1.324.244-.081.392-.33.331-.58-.001-.004-.002-.009-.003-.013-.066-.272-.349-.437-.615-.353-.966.307-1.668,1.204-1.668,2.27,0,1.176.842,2.169,2.001,2.362l2.833.473c.687.114,1.183.712,1.165,1.412-.02.763-.672,1.358-1.435,1.358h-2.169c-.77,0-1.395-.625-1.395-1.395v-.105c0-.276-.224-.5-.5-.5s-.5.224-.5.5v.105c0,1.323,1.072,2.395,2.395,2.395h.605v1c0,.276.224.5.5.5Zm12-12c0,1.378-1.122,2.5-2.5,2.5h-1v1c0,.276-.224.5-.5.5s-.5-.224-.5-.5v-1h-1c-.827,0-1.5-.673-1.5-1.5v-6c0-.827.673-1.5,1.5-1.5h1v-1c0-.276.224-.5.5-.5s.5.224.5.5v1h.5c1.378,0,2.5,1.122,2.5,2.5,0,.715-.301,1.36-.784,1.816.765.428,1.284,1.246,1.284,2.184Zm-6-2.5h3c.827,0,1.5-.673,1.5-1.5s-.673-1.5-1.5-1.5h-2.5c-.276,0-.5.224-.5.5v2.5Zm5,2.5c0-.827-.673-1.5-1.5-1.5h-3.5v2.5c0,.276.224.5.5.5h3c.827,0,1.5-.673,1.5-1.5ZM2.815,6.854c.098.098.226.146.354.146s.256-.049.354-.146c.195-.195.195-.512,0-.707l-2.146-2.146h5.625c.276,0,.5-.224.5-.5s-.224-.5-.5-.5H1.375L3.522.854c.195-.195.195-.512,0-.707s-.512-.195-.707,0L.381,2.581c-.246.246-.381.572-.381.919s.135.674.381.919l2.434,2.434Z"/>
</svg>
