<?xml version="1.0" encoding="UTF-8"?>
<svg xmlns="http://www.w3.org/2000/svg" id="Layer_1" data-name="Layer 1" viewBox="0 0 24 24">
  <path d="m23.427,18.1l-3.443-3.333c-.003-.225-.029-.448-.079-.669-.119-.525.122-1.087.601-1.396.449-.29.814-.685,1.084-1.172.255-.459.388-.989.386-1.528.002-.543-.131-1.072-.386-1.532-.27-.487-.635-.882-1.085-1.172-.478-.309-.719-.87-.6-1.396.122-.534.104-1.083-.055-1.63-.295-1.029-1.117-1.852-2.146-2.146-.549-.158-1.098-.177-1.629-.055-.525.118-1.087-.121-1.396-.6-.289-.449-.684-.813-1.172-1.084-.935-.519-2.1-.52-3.036,0-.487.27-.882.635-1.172,1.084-.309.479-.871.719-1.396.6-.534-.122-1.082-.103-1.628.055-1.029.295-1.852,1.117-2.146,2.146-.158.548-.177,1.097-.055,1.63.119.527-.122,1.088-.601,1.396-.449.29-.814.685-1.084,1.172-.255.459-.388.989-.386,1.528-.002.543.131,1.073.386,1.532.27.487.635.882,1.085,1.172.478.309.719.869.6,1.396-.052.228-.078.459-.079.691l-3.421,3.311c-.529.511-.709,1.261-.469,1.957s.845,1.175,1.576,1.25l1.135.118.134.967c.098.703.576,1.283,1.249,1.513.2.068.405.102.608.102.479,0,.947-.186,1.303-.533l4.129-4.001c.075.049.152.097.233.141.468.26.993.39,1.519.39s1.05-.13,1.518-.39c.085-.047.167-.097.246-.15l4.136,4.008c.356.349.825.535,1.305.535.203,0,.408-.033.608-.102.673-.229,1.151-.81,1.249-1.514l.134-.966,1.134-.118c.732-.075,1.337-.554,1.577-1.25s.061-1.446-.469-1.957Zm-18.015,4.656c-.24.235-.573.309-.891.202-.318-.108-.535-.372-.582-.704l-.188-1.354c-.031-.229-.215-.405-.443-.429l-1.525-.158c-.346-.036-.62-.253-.733-.582s-.032-.67.219-.912l2.941-2.847c.347.914,1.118,1.631,2.065,1.903.547.157,1.094.177,1.629.055.524-.119,1.087.121,1.396.601.061.094.126.184.196.27l-4.083,3.957Zm5.543-4.019c-.342-.189-.617-.441-.816-.75-.441-.686-1.191-1.089-1.966-1.089-.163,0-.328.019-.491.056-.366.081-.748.068-1.132-.041-.689-.198-1.263-.771-1.461-1.462-.11-.384-.124-.765-.041-1.132.212-.935-.203-1.923-1.032-2.457-.311-.2-.563-.475-.752-.816-.172-.311-.263-.672-.261-1.048-.002-.372.089-.733.261-1.044.188-.342.441-.616.751-.816.83-.534,1.245-1.522,1.033-2.458-.083-.366-.069-.747.041-1.132.198-.689.771-1.263,1.461-1.461.383-.109.763-.123,1.131-.041.938.213,1.924-.202,2.458-1.032.199-.31.475-.562.816-.751.631-.35,1.44-.349,2.067,0,.343.189.616.441.815.751.536.83,1.521,1.245,2.458,1.032.365-.081.746-.068,1.132.041.689.198,1.263.771,1.461,1.462.11.384.124.765.041,1.131-.213.935.202,1.923,1.032,2.458.311.2.563.475.752.816.172.311.263.672.261,1.048.002.372-.089.733-.261,1.044-.188.342-.441.616-.751.816-.831.535-1.246,1.523-1.033,2.458.083.366.069.747-.041,1.132-.198.689-.771,1.263-1.461,1.461-.386.109-.768.122-1.131.041-.933-.21-1.922.203-2.46,1.033-.198.309-.472.561-.814.75-.629.351-1.438.35-2.067,0Zm11.995.993c-.113.329-.388.546-.734.582l-1.524.158c-.229.023-.412.2-.443.429l-.188,1.354c-.047.333-.264.597-.582.705s-.651.032-.893-.204l-4.093-3.967c.066-.083.128-.168.185-.258.309-.479.875-.719,1.397-.601.533.121,1.081.102,1.628-.055.952-.273,1.727-.997,2.071-1.918l2.957,2.863c.251.242.332.583.219.912Zm-8.45-4.73h-4.075c-.594,0-1.114-.356-1.327-.908-.216-.561-.066-1.185.382-1.591.435-.393.998-.752,1.594-1.133,1.534-.98,3.12-1.995,2.93-3.707-.104-.932-.974-1.661-1.98-1.661-.974,0-1.848.688-2.032,1.6-.055.271-.318.447-.59.391-.271-.055-.445-.319-.391-.59.277-1.368,1.573-2.4,3.013-2.4,1.509,0,2.815,1.12,2.975,2.55.26,2.331-1.762,3.623-3.385,4.66-.561.358-1.089.696-1.462,1.033-.212.192-.146.423-.12.489.031.08.132.268.395.268h4.075c.276,0,.5.224.5.5s-.224.5-.5.5Z"/>
</svg>
