<?xml version="1.0" encoding="UTF-8"?>
<svg xmlns="http://www.w3.org/2000/svg" id="Layer_1" data-name="Layer 1" viewBox="0 0 24 24">
  <path d="m20,0h-5.5c-.827,0-1.5.673-1.5,1.5v4c0,.827.673,1.5,1.5,1.5h8c.827,0,1.5-.673,1.5-1.5v-1.5c0-2.206-1.794-4-4-4Zm3,5.5c0,.276-.225.5-.5.5h-8c-.275,0-.5-.224-.5-.5V1.5c0-.276.225-.5.5-.5h5.5c1.654,0,3,1.346,3,3v1.5Zm-.5,5.5h-14.5v-4.5c0-.827-.673-1.5-1.5-1.5h-2.5C1.794,5,0,6.794,0,9v11c0,2.206,1.794,4,4,4h16c2.206,0,4-1.794,4-4v-7.5c0-.827-.673-1.5-1.5-1.5Zm.5,1.5v4.5h-10.5v-5h10c.275,0,.5.224.5.5Zm-7,5.5v5h-8v-5h8ZM1,9c0-1.654,1.346-3,3-3h2.5c.275,0,.5.224.5.5v4.5H1v-2Zm10.5,3v5H1v-5h10.5ZM1,20v-2h6v5h-3c-1.654,0-3-1.346-3-3Zm19,3h-3v-5h6v2c0,1.654-1.346,3-3,3Z"/>
</svg>
