<?xml version="1.0" encoding="UTF-8"?>
<svg xmlns="http://www.w3.org/2000/svg" id="Layer_1" data-name="Layer 1" viewBox="0 0 24 24">
  <path d="m12,12c3.309,0,6-2.691,6-6,0-3.5-2.927-6-6-6s-6,2.5-6,6c0,3.309,2.691,6,6,6Zm0-1c-2.757,0-5-2.243-5-5h10c0,2.757-2.243,5-5,5Zm4.899-6h-5.862l4.04-2.938c.919.72,1.581,1.753,1.822,2.938ZM12,1c.774,0,1.507.177,2.161.492l-4.824,3.508h-2.237c.465-2.279,2.485-4,4.899-4Zm0,13c-4.411,0-8,3.589-8,8,0,1.103.897,2,2,2h9c.276,0,.5-.224.5-.5s-.224-.5-.5-.5h-2.12l-2.188-7.877c.424-.081.861-.123,1.308-.123,3.859,0,7,3.141,7,7v1.5c0,.276.224.5.5.5s.5-.224.5-.5v-1.5c0-4.411-3.589-8-8-8Zm-.158,9h-5.842c-.552,0-1-.448-1-1,0-3.064,1.979-5.674,4.726-6.62l2.117,7.62Z"/>
</svg>
