<?xml version="1.0" encoding="UTF-8"?>
<svg xmlns="http://www.w3.org/2000/svg" id="Layer_1" data-name="Layer 1" viewBox="0 0 24 24">
  <path d="m4,10.5v3c0,.827.673,1.5,1.5,1.5.679,0,1.273-.463,1.445-1.125.068-.268.343-.429.609-.359.267.069.428.343.358.609-.286,1.104-1.278,1.875-2.413,1.875-1.378,0-2.5-1.121-2.5-2.5v-3c0-1.378,1.122-2.5,2.5-2.5,1.135,0,2.127.771,2.413,1.875.069.268-.091.54-.358.609-.266.072-.541-.091-.609-.358-.172-.663-.766-1.125-1.445-1.125-.827,0-1.5.673-1.5,1.5Zm17.09,7.714c-2.039,2.924-5.562,4.746-9.09,4.786-3.31,0-6.366-1.461-8.466-4h3.966c.276,0,.5-.224.5-.5s-.224-.5-.5-.5H3.486c-.819,0-1.486.666-1.486,1.485v4.015c0,.276.224.5.5.5s.5-.224.5-.5v-3.59c2.253,2.568,5.518,4.062,8.959,4.097,3.891,0,7.705-2,9.951-5.221.158-.227.103-.538-.124-.696-.224-.156-.536-.104-.696.124Zm-5.03-2.648l.435-6.36,1.581,3.477c.166.364.683.364.848,0l1.581-3.477.53,6.367c.02.241.222.427.464.427.271,0,.484-.23.465-.5l-.471-6.5c-.043-.705-.472-1-.988-1-.342,0-.66.242-.841.64l-1.164,2.56-1.164-2.56c-.181-.398-.499-.64-.841-.64-.516,0-.945.295-.988,1l-.471,6.5c-.02.27.194.5.465.5.245,0,.542-.19.559-.434ZM21.5,0c-.276,0-.5.224-.5.5v3.591C18.719,1.491,15.49,0,12,0c-3.901.027-7.652,1.977-9.91,5.214-.158.227-.103.538.124.696.087.061.187.09.286.09.158,0,.313-.075.411-.214C4.998,2.793,8.396,1.007,12.002,1.007c3.273.023,6.369,1.469,8.452,3.979l-3.956.014c-.276,0-.499.226-.498.502,0,.275.225.498.5.498h.002l4.013-.014c.819,0,1.485-.667,1.485-1.486V.5c0-.276-.224-.5-.5-.5Zm-8.614,12.578l.921,2.764c.087.262-.055.545-.316.633-.053.018-.105.025-.158.025-.209,0-.405-.133-.474-.342l-.901-2.704c-.149.028-.301.046-.457.046h-1.5v2.5c0,.276-.224.5-.5.5s-.5-.224-.5-.5v-6c0-.827.673-1.5,1.5-1.5h1c1.378,0,2.5,1.122,2.5,2.5,0,.866-.443,1.629-1.114,2.078Zm.114-2.078c0-.827-.673-1.5-1.5-1.5h-1c-.276,0-.5.224-.5.5v2.5h1.5c.827,0,1.5-.673,1.5-1.5Z"/>
</svg>
