<?xml version="1.0" encoding="UTF-8"?>
<svg xmlns="http://www.w3.org/2000/svg" id="Layer_1" data-name="Layer 1" viewBox="0 0 24 24">
  <path d="m15,13c1.103,0,2-.897,2-2s-.897-2-2-2-2,.897-2,2,.897,2,2,2Zm0-3c.552,0,1,.448,1,1s-.448,1-1,1-1-.448-1-1,.448-1,1-1Zm-6,3c1.103,0,2-.897,2-2s-.897-2-2-2-2,.897-2,2,.897,2,2,2Zm0-3c.551,0,1,.448,1,1s-.449,1-1,1-1-.448-1-1,.449-1,1-1ZM24,.5c0-.276-.224-.5-.5-.5s-.5.224-.5.5c0,1.93-1.57,3.5-3.5,3.5H4.5c-1.93,0-3.5-1.57-3.5-3.5,0-.276-.224-.5-.5-.5s-.5.224-.5.5c0,2.481,2.019,4.5,4.5,4.5h1.277l-2.58,6.842c-.581,1.657.167,3.501,1.796,4.312l1.811.633c.166.059.287.195.324.367l.959,4.475c.294,1.375,1.528,2.372,2.933,2.372h1.958c1.406,0,2.639-.997,2.934-2.372l.959-4.476c.035-.168.159-.309.323-.366l1.869-.657c1.571-.786,2.318-2.63,1.734-4.299l-2.576-6.83h1.277c2.481,0,4.5-2.019,4.5-4.5Zm-4.141,11.672c.414,1.185-.12,2.501-1.184,3.038l-1.811.633c-.491.172-.864.595-.972,1.102l-.959,4.475c-.196.916-1.019,1.581-1.956,1.581h-1.958c-.937,0-1.759-.665-1.956-1.581l-.959-4.476c-.109-.508-.481-.93-.972-1.101l-1.752-.608c-1.123-.562-1.656-1.878-1.246-3.051l2.709-7.184h10.308l2.705,7.172Z"/>
</svg>
