<?xml version="1.0" encoding="UTF-8"?>
<svg xmlns="http://www.w3.org/2000/svg" id="Layer_1" data-name="Layer 1" viewBox="0 0 24 24">
  <path d="m23.502,20l-.372-.002h-.012c-1.038,0-2.075-.126-3.082-.375l-.9-.224c-1.086-.269-2.204-.404-3.323-.404h-.013l-4.66.005h-.003c-1.041,0-1.947-.714-2.107-1.662-.093-.548.033-1.094.355-1.536.323-.442.8-.729,1.271-.802h6.843c.276,0,.5-.224.5-.5s-.224-.5-.5-.5l-3.887.003,6.639-7.446,3.039,1.397c.068.031.139.046.208.046.189,0,.371-.108.455-.291.116-.251.006-.548-.245-.663l-2.761-1.269.212-.238c.502-.502.779-1.169.779-1.88s-.276-1.378-.779-1.88c-1.004-1.005-2.733-1.029-3.782.023l-1.506,1.715-8.468,3.217c-1.011.409-1.909,1.072-2.601,1.92L.732,13.732c-.975.975-.975,2.561,0,3.534.18.182.388.334.616.453.074.038.153.057.231.057.18,0,.354-.098.444-.269.127-.245.033-.547-.212-.675-.138-.072-.263-.163-.372-.272-.585-.585-.585-1.536.037-2.161l4.106-5.116c.583-.715,1.343-1.276,2.188-1.619l6.693-2.543L3.218,17.929c-.753.857-1.168,1.958-1.168,3.1v1.472c0,.276.224.5.5.5h1.106c1.384,0,2.691-.605,3.585-1.661l1.801-2.117c.562.482,1.3.778,2.095.778h.005l4.66-.005h.012c1.038,0,2.076.126,3.083.375l.9.224c1.086.269,2.204.404,3.32.404h.013l.369.002h.002c.275,0,.499-.222.5-.497.001-.276-.221-.501-.498-.503Zm-17.023.691c-.704.832-1.732,1.309-2.822,1.309h-.606v-.972c0-.898.326-1.765.919-2.439L18.107,2.486c.627-.628,1.719-.627,2.346,0,.313.313.486.73.486,1.173s-.172.859-.505,1.193l-8.161,9.152h-1.686c-.812.117-1.525.546-2.008,1.209-.483.662-.673,1.477-.534,2.292.057.337.179.652.346.94l-1.911,2.246Z"/>
</svg>
