<?xml version="1.0" encoding="UTF-8"?>
<svg xmlns="http://www.w3.org/2000/svg" id="Layer_1" data-name="Layer 1" viewBox="0 0 24 24">
  <path d="m24,6.5v8c0,2.481-2.019,4.5-4.5,4.5h-7v2h4c.276,0,.5.224.5.5s-.224.5-.5.5H7.5c-.276,0-.5-.224-.5-.5s.224-.5.5-.5h4v-2h-7c-2.481,0-4.5-2.019-4.5-4.5V6.5C0,4.019,2.019,2,4.5,2h4c.276,0,.5.224.5.5s-.224.5-.5.5h-4c-1.93,0-3.5,1.57-3.5,3.5v8c0,1.93,1.57,3.5,3.5,3.5h15c1.93,0,3.5-1.57,3.5-3.5V6.5c0-1.93-1.57-3.5-3.5-3.5h-4c-.276,0-.5-.224-.5-.5s.224-.5.5-.5h4c2.481,0,4.5,2.019,4.5,4.5Zm-15.904.643c-.197.193-.201.51-.008.707l2.52,2.574c.372.373.867.578,1.394.578s1.021-.205,1.396-.582l2.516-2.57c.193-.197.189-.514-.008-.707-.196-.193-.515-.189-.707.008l-2.512,2.566c-.054.054-.123.083-.187.121V.5c0-.276-.224-.5-.5-.5s-.5.224-.5.5v9.337c-.062-.037-.13-.065-.182-.117l-2.516-2.57c-.191-.197-.511-.201-.707-.008Z"/>
</svg>
