<?xml version="1.0" encoding="UTF-8"?>
<svg xmlns="http://www.w3.org/2000/svg" id="Layer_1" data-name="Layer 1" viewBox="0 0 24 24">
  <path d="m17.851,10.143c.196.194.199.51.006.708-.098.1-.227.149-.356.149-.127,0-.253-.048-.351-.143l-4.649-4.567v17.21c0,.276-.224.5-.5.5s-.5-.224-.5-.5V6.29l-4.65,4.567c-.197.192-.513.19-.707-.006-.193-.197-.19-.514.007-.708l4.793-4.707c.29-.291.673-.436,1.057-.436,0,0,0,0,0,0,.013,0,.024.006.036.007.371.01.741.149,1.024.432l4.79,4.704Zm1.649-10.143H4.5C2.019,0,0,2.019,0,4.5v19c0,.276.224.5.5.5s.5-.224.5-.5V4.5c0-1.93,1.57-3.5,3.5-3.5h15c1.93,0,3.5,1.57,3.5,3.5v19c0,.276.224.5.5.5s.5-.224.5-.5V4.5c0-2.481-2.019-4.5-4.5-4.5Z"/>
</svg>
