<?xml version="1.0" encoding="UTF-8"?>
<svg xmlns="http://www.w3.org/2000/svg" id="Layer_1" data-name="Layer 1" viewBox="0 0 24 24">
  <path d="m22.318,1.088c-1.069-.892-2.471-1.258-3.837-1.012l-3.995.727c-1.073.195-1.964.848-2.486,1.736-.521-.888-1.413-1.541-2.486-1.736L5.519.077c-1.368-.25-2.768.119-3.837,1.011C.613,1.98,0,3.291,0,4.683v13.373c0,2.264,1.617,4.201,3.844,4.606l6.57,1.195c.526.095,1.056.143,1.585.143s1.06-.048,1.585-.144l6.57-1.195c2.228-.405,3.844-2.342,3.844-4.606V4.683c0-1.393-.613-2.703-1.682-3.595Zm-10.818,21.896c-.303-.02-.605-.056-.907-.111l-6.57-1.195c-1.751-.318-3.023-1.842-3.023-3.623V4.683c0-1.095.482-2.125,1.323-2.827.668-.558,1.5-.855,2.355-.855.22,0,.442.02.663.06l3.995.726c1.254.228,2.165,1.319,2.165,2.594v18.604Zm11.5-4.928c0,1.781-1.271,3.304-3.023,3.623l-6.57,1.194c-.301.055-.604.092-.907.111V4.381c0-1.275.91-2.366,2.165-2.594l3.995-.726c1.076-.197,2.176.094,3.018.796.841.701,1.323,1.731,1.323,2.827v13.373Zm-14.011-4.401c-.049.235-.257.397-.489.397-.034,0-5.104-1.062-5.104-1.062-.27-.057-.443-.322-.386-.592.056-.27.324-.444.592-.386l5,1.052c.27.057.443.322.386.592Zm0-4c-.049.235-.257.397-.489.397-.034,0-5.104-1.062-5.104-1.062-.27-.057-.443-.322-.386-.592.056-.27.324-.444.592-.386l5,1.052c.27.057.443.322.386.592Zm-2.001,7.628c-.052.233-.259.391-.487.391-.036,0-3.11-.686-3.11-.686-.27-.061-.439-.328-.378-.597.061-.27.328-.439.597-.378l3,.674c.27.061.439.328.378.597Zm2.001-11.628c-.049.235-.257.397-.489.397-.034,0-5.104-1.062-5.104-1.062-.27-.057-.443-.322-.386-.592.056-.27.324-.443.592-.386l5,1.052c.27.057.443.322.386.592Zm12,6.742c.057.271-.116.536-.386.592,0,0-5.069,1.062-5.104,1.062-.231,0-.439-.162-.489-.397-.057-.271.116-.536.386-.592l5-1.052c.268-.058.535.116.592.386Zm0-4c.057.271-.116.536-.386.592,0,0-5.069,1.062-5.104,1.062-.231,0-.439-.162-.489-.397-.057-.271.116-.536.386-.592l5-1.052c.268-.058.535.116.592.386Zm0-4c.057.271-.116.536-.386.592,0,0-5.069,1.062-5.104,1.062-.231,0-.439-.162-.489-.397-.057-.271.116-.536.386-.592l5-1.052c.268-.057.535.116.592.386Zm-2.001,12.32c.061.269-.109.537-.378.597,0,0-3.074.686-3.11.686-.229,0-.435-.158-.487-.391-.061-.269.109-.537.378-.597l3-.674c.266-.062.536.109.597.378Z"/>
</svg>
