<?xml version="1.0" encoding="UTF-8"?>
<svg xmlns="http://www.w3.org/2000/svg" id="Layer_1" data-name="Layer 1" viewBox="0 0 24 24">
  <path d="m15.893,8.063c.408,1.784-.382,3.569-1.965,4.441-.988.545-1.428,1.16-1.428,1.995,0,.276-.224.5-.5.5s-.5-.224-.5-.5c0-1.21.636-2.149,1.946-2.87,1.188-.655,1.78-1.999,1.473-3.344-.245-1.073-1.131-1.96-2.205-2.205-.853-.193-1.709-.036-2.411.444-.69.475-1.154,1.221-1.272,2.045-.039.274-.292.462-.566.425-.273-.039-.463-.292-.424-.565.157-1.102.775-2.096,1.696-2.729.934-.642,2.07-.854,3.2-.595,1.463.334,2.624,1.495,2.957,2.957Zm6.107-1.473l-.002,5.344c0,7.5-7.172,10.968-9.37,11.852,0,0-.426.214-.627.214s-.649-.266-.649-.266c-2.194-1.097-9.354-5.189-9.354-11.8l.002-5.347c0-1.943,1.239-3.659,3.083-4.27L11.843.077c.102-.033.213-.033.314,0l6.759,2.24c1.846.612,3.085,2.329,3.084,4.273Zm-1,0c0-1.513-.963-2.849-2.398-3.324l-6.602-2.188-6.603,2.189c-1.434.475-2.397,1.81-2.397,3.32l-.002,5.347c0,6.037,6.736,9.873,8.801,10.905l.224.112.232-.094c2.051-.825,8.744-4.051,8.744-10.924l.002-5.344Zm-9,10.409c-.552,0-1,.448-1,1s.448,1,1,1,1-.448,1-1-.448-1-1-1Z"/>
</svg>
