<?xml version="1.0" encoding="UTF-8"?>
<svg xmlns="http://www.w3.org/2000/svg" id="Layer_1" data-name="Layer 1" viewBox="0 0 24 24">
  <path d="m18,23.5c0,.276-.224.5-.5.5h-8c-4.136,0-7.5-3.364-7.5-7.5V4.5c0-.276.224-.5.5-.5s.5.224.5.5v12c0,3.584,2.916,6.5,6.5,6.5h8c.276,0,.5.224.5.5Zm1-11.5v3c0,1.654-1.346,3-3,3h-5c-1.654,0-3-1.346-3-3v-3c0-1.654,1.346-3,3-3h5c1.654,0,3,1.346,3,3Zm-10,1h3v-3h-1c-1.103,0-2,.897-2,2v1Zm5,1h-5v1c0,1.103.897,2,2,2h3v-3Zm4,0h-3v3h1c1.103,0,2-.897,2-2v-1Zm0-2c0-1.103-.897-2-2-2h-3v3h5v-1Zm4-6.258v10.758c0,2.481-2.019,4.5-4.5,4.5h-8c-2.481,0-4.5-2.019-4.5-4.5V4.5C5,2.019,7.019,0,9.5,0h6.758c.921,0,1.823.374,2.475,1.025l2.242,2.242c.651.651,1.025,1.554,1.025,2.475Zm-1,0c0-.658-.267-1.302-.732-1.768l-2.242-2.242c-.466-.466-1.109-.732-1.768-.732h-6.758c-1.93,0-3.5,1.57-3.5,3.5v12c0,1.93,1.57,3.5,3.5,3.5h8c1.93,0,3.5-1.57,3.5-3.5V5.742Z"/>
</svg>
