<?xml version="1.0" encoding="UTF-8"?>
<svg xmlns="http://www.w3.org/2000/svg" id="Layer_1" data-name="Layer 1" viewBox="0 0 24 24">
  <path d="m2.5,0C1.122,0,0,1.122,0,2.5s1.122,2.5,2.5,2.5,2.5-1.122,2.5-2.5S3.878,0,2.5,0Zm0,4c-.827,0-1.5-.673-1.5-1.5s.673-1.5,1.5-1.5,1.5.673,1.5,1.5-.673,1.5-1.5,1.5Z"/>
  <path d="m2.5,6c-1.378,0-2.5,1.122-2.5,2.5v6.5c0,1.103.897,2,2,2v6.513c0,.276.224.5.5.5s.5-.224.5-.5v-6.513c1.103,0,2-.897,2-2v-6.5c0-1.378-1.122-2.5-2.5-2.5Zm1.5,9c0,.551-.449,1-1,1h-1c-.551,0-1-.449-1-1v-6.5c0-.827.673-1.5,1.5-1.5s1.5.673,1.5,1.5v6.5Z"/>
  <path d="m8.5,0c-1.378,0-2.5,1.122-2.5,2.5s1.122,2.5,2.5,2.5,2.5-1.122,2.5-2.5-1.122-2.5-2.5-2.5Zm0,4c-.827,0-1.5-.673-1.5-1.5s.673-1.5,1.5-1.5,1.5.673,1.5,1.5-.673,1.5-1.5,1.5Z"/>
  <path d="m8.5,6c-1.378,0-2.5,1.122-2.5,2.5v6.5c0,1.103.897,2,2,2v6.513c0,.276.224.5.5.5s.5-.224.5-.5v-6.513c1.103,0,2-.897,2-2v-6.5c0-1.378-1.122-2.5-2.5-2.5Zm1.5,9c0,.551-.449,1-1,1h-1c-.551,0-1-.449-1-1v-6.5c0-.827.673-1.5,1.5-1.5s1.5.673,1.5,1.5v6.5Z"/>
  <path d="m14.5,0c-1.378,0-2.5,1.122-2.5,2.5s1.122,2.5,2.5,2.5,2.5-1.122,2.5-2.5-1.122-2.5-2.5-2.5Zm0,4c-.827,0-1.5-.673-1.5-1.5s.673-1.5,1.5-1.5,1.5.673,1.5,1.5-.673,1.5-1.5,1.5Z"/>
  <path d="m14.5,6c-1.378,0-2.5,1.122-2.5,2.5v6.5c0,1.103.897,2,2,2v6.513c0,.276.224.5.5.5s.5-.224.5-.5v-6.513c1.103,0,2-.897,2-2v-6.5c0-1.378-1.122-2.5-2.5-2.5Zm1.5,9c0,.551-.449,1-1,1h-1c-.551,0-1-.449-1-1v-6.5c0-.827.673-1.5,1.5-1.5s1.5.673,1.5,1.5v6.5Z"/>
  <path d="m20.5,5c1.378,0,2.5-1.122,2.5-2.5s-1.122-2.5-2.5-2.5-2.5,1.122-2.5,2.5,1.122,2.5,2.5,2.5Zm0-4c.827,0,1.5.673,1.5,1.5s-.673,1.5-1.5,1.5-1.5-.673-1.5-1.5.673-1.5,1.5-1.5Z"/>
  <path d="m20.5,6c-1.378,0-2.5,1.122-2.5,2.5v6.5c0,1.103.897,2,2,2v6.513c0,.276.224.5.5.5s.5-.224.5-.5v-6.513c1.103,0,2-.897,2-2v-6.5c0-1.378-1.122-2.5-2.5-2.5Zm1.5,9c0,.551-.449,1-1,1h-1c-.551,0-1-.449-1-1v-6.5c0-.827.673-1.5,1.5-1.5s1.5.673,1.5,1.5v6.5Z"/>
</svg>
