<?xml version="1.0" encoding="UTF-8"?>
<svg xmlns="http://www.w3.org/2000/svg" id="Layer_1" data-name="Layer 1" viewBox="0 0 24 24">
  <path d="m18,0H6C3.794,0,2,1.794,2,4v19.5c0,.276.224.5.5.5s.5-.224.5-.5v-2.5h18v2.5c0,.276.224.5.5.5s.5-.224.5-.5V4c0-2.206-1.794-4-4-4ZM3,15v-4h8.5v1.5c0,.276.224.5.5.5s.5-.224.5-.5v-1.5h8.5v4H3Zm9-7c.276,0,.5-.224.5-.5v-1.5h8.5v4H3v-4h8.5v1.5c0,.276.224.5.5.5ZM6,1h5.5v1.5c0,.276.224.5.5.5s.5-.224.5-.5v-1.5h5.5c1.654,0,3,1.346,3,3v1H3v-1c0-1.654,1.346-3,3-3Zm-3,19v-4h8.5v1.5c0,.276.224.5.5.5s.5-.224.5-.5v-1.5h8.5v4H3Z"/>
</svg>
