<?xml version="1.0" encoding="UTF-8"?>
<svg xmlns="http://www.w3.org/2000/svg" id="Layer_1" data-name="Layer 1" viewBox="0 0 24 24">
  <path d="m23.879,16.407c.18.21.156.525-.054.705-.666.572-1.524.888-2.417.888-1.239,0-2.434-.594-3.136-1.494-.703.9-2.033,1.494-3.272,1.494-5.299,0-9-3.701-9-9,0-3.022,1.427-6.062,3.662-8h-.13C4.667,1,1,4.439,1,9v4c0,.276-.224.5-.5.5s-.5-.224-.5-.5v-4C0,3.869,4.098,0,9.531,0h1.663c.225,0,.422.149.482.366s-.032.446-.224.562c-2.663,1.602-4.452,4.845-4.452,8.071,0,4.71,3.29,8,8,8,1.168,0,2.451-.72,2.804-1.674.145-.393.793-.393.938,0,.353.954,1.5,1.674,2.667,1.674.654,0,1.281-.229,1.766-.646.21-.179.525-.156.705.053Zm-.705,5.947c-.485.416-1.112.646-1.766.646-1.168,0-2.314-.72-2.667-1.674-.145-.393-.793-.393-.938,0-.353.954-1.5,1.674-2.667,1.674s-2.314-.72-2.667-1.674c-.145-.393-.793-.393-.938,0-.353.954-1.5,1.674-2.667,1.674s-2.315-.72-2.668-1.674c-.144-.393-.792-.391-.938,0-.352.953-1.499,1.673-2.667,1.673-.654,0-1.281-.229-1.765-.646-.209-.179-.525-.156-.705.053-.18.21-.156.525.053.705.666.572,1.524.888,2.417.888,1.24,0,2.434-.594,3.136-1.494.703.9,1.897,1.494,3.137,1.494s2.434-.594,3.136-1.494c.703.9,1.897,1.494,3.136,1.494s2.434-.594,3.136-1.494c.703.9,1.897,1.494,3.136,1.494.893,0,1.751-.315,2.417-.888.209-.18.233-.495.054-.705-.18-.209-.495-.231-.705-.053Zm-.792-18.279l-2.786-2.18c-1.528-1.196-3.664-1.196-5.194,0l-2.786,2.18c-1.028.804-1.617,2.014-1.617,3.318v5.106c0,.276.224.5.5.5s.5-.224.5-.5v-5.106c0-.995.45-1.918,1.233-2.531l2.786-2.18c1.167-.912,2.796-.912,3.962,0l2.786,2.18c.784.614,1.233,1.536,1.233,2.531v5.106c0,.276.224.5.5.5s.5-.224.5-.5v-5.106c0-1.305-.589-2.514-1.617-3.318Zm-5.883,6.925c-.827,0-1.5-.673-1.5-1.5v-1c0-.827.673-1.5,1.5-1.5h1c.827,0,1.5.673,1.5,1.5v1c0,.827-.673,1.5-1.5,1.5h-1Zm0-1h1c.276,0,.5-.225.5-.5v-1c0-.275-.224-.5-.5-.5h-1c-.276,0-.5.225-.5.5v1c0,.275.224.5.5.5Z"/>
</svg>
