<?xml version="1.0" encoding="UTF-8"?>
<svg xmlns="http://www.w3.org/2000/svg" id="Layer_1" data-name="Layer 1" viewBox="0 0 24 24">
  <path d="m12.5,10h-2.2c-.717,0-1.3.583-1.3,1.3v6.4c0,.717.583,1.3,1.3,1.3h2.7c1.378,0,2.5-1.121,2.5-2.5,0-.938-.519-1.756-1.284-2.184.482-.456.784-1.102.784-1.816,0-1.378-1.122-2.5-2.5-2.5Zm-2.5,1.3c0-.166.134-.3.3-.3h2.2c.827,0,1.5.673,1.5,1.5s-.673,1.5-1.5,1.5h-2.5v-2.7Zm4.5,5.2c0,.827-.673,1.5-1.5,1.5h-2.7c-.166,0-.3-.135-.3-.3v-2.7h3c.827,0,1.5.673,1.5,1.5ZM2.83,11.193l1.019-.712,1.023.712c.394.273.926.277,1.332.003.43-.292.617-.84.455-1.334l-.36-1.094.915-.64c.396-.276.583-.776.461-1.258-.128-.513-.595-.871-1.135-.871h-1.198l-.274-1.062c-.145-.552-.644-.938-1.215-.938s-1.07.386-1.215.939l-.275,1.061h-1.208c-.542,0-1.009.36-1.141.895-.115.467.073.965.467,1.24l.916.638-.353,1.104c-.158.494.022,1.024.449,1.318.199.138.433.207.666.207.235,0,.47-.07.67-.21Zm-.833-1.011l.579-1.808-1.522-1.06c-.059-.041-.085-.112-.063-.201.021-.084.102-.114.165-.114h1.982l.468-1.809c.059-.225.436-.223.494-.001l.468,1.811h1.973c.063,0,.144.03.168.129.017.067-.01.14-.068.18l-1.525,1.066.592,1.8c.024.072-.003.152-.071.198-.058.04-.137.039-.194,0l-1.595-1.111-1.591,1.112c-.059.041-.136.041-.195,0-.062-.042-.088-.119-.065-.191Zm21.964-3.311c-.128-.513-.595-.871-1.135-.871h-1.198l-.274-1.062c-.145-.552-.644-.938-1.215-.938s-1.07.386-1.215.939l-.274,1.061h-1.208c-.542,0-1.009.36-1.141.895-.115.467.073.966.468,1.24l.916.638-.353,1.104c-.158.494.022,1.023.448,1.318.199.138.433.207.666.207.235,0,.47-.07.67-.21l1.02-.712,1.023.712c.395.273.926.276,1.331.004.43-.292.618-.84.456-1.334l-.36-1.094.916-.64c.395-.276.582-.775.461-1.257Zm-1.034.438l-1.525,1.066.593,1.8c.024.073-.003.151-.072.198-.058.039-.136.038-.193,0l-1.595-1.111-1.591,1.112c-.059.04-.136.041-.195,0-.061-.042-.087-.121-.065-.191l.578-1.808-1.522-1.06c-.059-.041-.085-.112-.063-.201.021-.084.102-.114.165-.114h1.982l.468-1.809c.059-.225.436-.223.494-.001l.468,1.811h1.973c.063,0,.144.03.169.128.017.068-.01.141-.068.181Zm-14.298-3.159l.916.638-.354,1.105c-.157.494.024,1.023.45,1.318.199.138.433.207.666.207.235,0,.47-.07.67-.21l1.019-.712,1.023.712c.395.276.927.279,1.332.004.43-.292.617-.84.455-1.334l-.36-1.094.915-.64c.396-.276.583-.776.461-1.258-.13-.521-.597-.886-1.135-.886h-1.199l-.273-1.047c-.145-.552-.644-.938-1.215-.938s-1.07.386-1.215.938l-.274,1.047h-1.208c-.54,0-1.007.366-1.141.91-.115.467.073.966.467,1.24Zm.674-1.15h1.98l.469-1.794c.059-.225.436-.224.494,0l.469,1.794h1.972c.078,0,.146.053.168.144.017.067-.01.14-.068.18l-1.525,1.066.592,1.8h0c.023.072-.004.152-.072.198-.059.04-.134.039-.193-.001l-1.595-1.111-1.591,1.113c-.059.041-.136.041-.194,0-.062-.043-.088-.121-.066-.192l.579-1.807-1.522-1.061c-.058-.04-.084-.112-.063-.2.019-.076.087-.129.166-.129Zm12.684,10.475c.009.175.013.349.013.525,0,5.514-4.486,10-10,10S2,19.514,2,14c0-.177.004-.351.013-.525.014-.275.245-.511.524-.474.276.014.488.248.475.524-.008.157-.012.315-.012.475,0,4.963,4.038,9,9,9s9-4.037,9-9c0-.159-.004-.317-.012-.475-.014-.276.199-.511.475-.524.269-.04.51.198.524.474Z"/>
</svg>
