<?xml version="1.0" encoding="UTF-8"?>
<svg xmlns="http://www.w3.org/2000/svg" id="Layer_1" data-name="Layer 1" viewBox="0 0 24 24">
  <path d="m13.648,5.274c-.173-.762-.815-1.274-1.597-1.274s-1.425.513-1.591,1.246l-2.941,10.114c-.076.263.093.638.47.639-.004,0-.003,0,.011,0,.019,0,.016,0,.009,0,.213-.004.409-.144.472-.36l1.056-3.632h4.964l1.018,3.627c.075.267.354.422.616.347.267-.074.421-.351.347-.616l-2.833-10.091Zm-3.822,5.733l1.602-5.511c.083-.366.376-.497.623-.497s.539.131.628.521l1.54,5.487h-4.393ZM20.5,0H3.5C1.57,0,0,1.57,0,3.5v13c0,1.93,1.57,3.5,3.5,3.5h3.605l3.898,3.283c.285.254.645.38,1.001.38.352,0,.702-.123.978-.368l3.985-3.295h3.532c1.93,0,3.5-1.57,3.5-3.5V3.5c0-1.93-1.57-3.5-3.5-3.5Zm2.5,16.5c0,1.379-1.121,2.5-2.5,2.5h-3.712c-.116,0-.229.041-.318.114l-4.138,3.421c-.188.168-.475.171-.674-.009l-4.048-3.409c-.09-.075-.204-.117-.322-.117h-3.788c-1.379,0-2.5-1.121-2.5-2.5V3.5c0-1.379,1.121-2.5,2.5-2.5h17c1.379,0,2.5,1.121,2.5,2.5v13Z"/>
</svg>
