<?xml version="1.0" encoding="UTF-8"?>
<svg xmlns="http://www.w3.org/2000/svg" id="Layer_1" data-name="Layer 1" viewBox="0 0 24 24">
  <path d="m20,6v7.5c0,.276-.224.5-.5.5s-.5-.224-.5-.5v-7.5c0-.089-.012-.176-.034-.259l-13.112,13.112c-.098.098-.226.146-.354.146s-.256-.049-.354-.146c-.195-.195-.195-.512,0-.707l13.112-13.112c-.083-.022-.169-.034-.259-.034h-7.5c-.276,0-.5-.224-.5-.5s.224-.5.5-.5h7.5c1.103,0,2,.897,2,2Zm4-1.5v15c0,2.481-2.019,4.5-4.5,4.5H4.5c-2.481,0-4.5-2.019-4.5-4.5V4.5C0,2.019,2.019,0,4.5,0h15c2.481,0,4.5,2.019,4.5,4.5Zm-1,0c0-1.93-1.57-3.5-3.5-3.5H4.5c-1.93,0-3.5,1.57-3.5,3.5v15c0,1.93,1.57,3.5,3.5,3.5h15c1.93,0,3.5-1.57,3.5-3.5V4.5Z"/>
</svg>
