<?xml version="1.0" encoding="UTF-8"?>
<svg xmlns="http://www.w3.org/2000/svg" id="Layer_1" data-name="Layer 1" viewBox="0 0 24 24">
  <path d="m8.5,10c-.979,0-1.864.403-2.5,1.053v-.053c0-1.654,1.346-3,3-3h1.5c.276,0,.5-.224.5-.5s-.224-.5-.5-.5h-1.5c-2.206,0-4,1.794-4,4v2.67c0,1.836,1.494,3.33,3.33,3.33,1.925,0,3.569-1.486,3.665-3.312.051-.971-.289-1.893-.956-2.597-.667-.703-1.569-1.091-2.539-1.091Zm-.17,6c-1.285,0-2.33-1.215-2.33-2.5,0-1.379,1.122-2.5,2.5-2.5.693,0,1.337.277,1.814.779.477.503.719,1.161.682,1.855-.068,1.305-1.264,2.365-2.666,2.365ZM12,0C5.383,0,0,5.383,0,12s5.383,12,12,12,12-5.383,12-12S18.617,0,12,0Zm0,23c-6.065,0-11-4.935-11-11S5.935,1,12,1s11,4.935,11,11-4.935,11-11,11Zm8-11c0,.276-.224.5-.5.5h-2v2c0,.276-.224.5-.5.5s-.5-.224-.5-.5v-2h-2c-.276,0-.5-.224-.5-.5s.224-.5.5-.5h2v-2c0-.276.224-.5.5-.5s.5.224.5.5v2h2c.276,0,.5.224.5.5Z"/>
</svg>
