<?xml version="1.0" encoding="UTF-8"?>
<svg xmlns="http://www.w3.org/2000/svg" id="Layer_1" data-name="Layer 1" viewBox="0 0 24 24">
  <path d="m10.323,11.025l1.418-.328.354-1.418c.093-.371.716-.371.809,0l.356,1.424,1.424.356c.186.046.316.213.316.404s-.13.358-.316.404l-1.424.356-.356,1.424c-.046.186-.213.316-.404.316s-.358-.13-.404-.316l-.357-1.429-1.43-.385c-.185-.05-.312-.218-.308-.409s.137-.356.323-.399Zm2.985-8.192l1.43.385.357,1.429c.046.186.213.316.404.316s.358-.13.404-.316l.356-1.424,1.424-.356c.186-.046.316-.213.316-.404s-.13-.358-.316-.404l-1.424-.356-.356-1.424c-.093-.371-.716-.371-.809,0l-.354,1.418-1.418.328c-.186.043-.32.208-.323.399s.124.36.308.409Zm-7,3l1.43.385.357,1.429c.046.186.213.316.404.316s.358-.13.404-.316l.356-1.424,1.424-.356c.186-.046.316-.213.316-.404s-.13-.358-.316-.404l-1.424-.356-.356-1.424c-.093-.371-.716-.371-.809,0l-.354,1.418-1.418.328c-.186.043-.32.208-.323.399s.124.36.308.409Zm-4.293-.212c.13.52.004,1.06-.142,1.685-.228.979-.486,2.087.179,3.417.418.837.997,1.36,1.506,1.822.805.729,1.441,1.306,1.441,2.954v1c0,.276.224.5.5.5s.5-.224.5-.5v-1c0-2.092-.899-2.907-1.77-3.695-.488-.442-.949-.859-1.283-1.528-.504-1.008-.308-1.851-.1-2.743.16-.688.326-1.4.137-2.154-.269-1.078-.81-1.773-1.245-2.332-.429-.552-.74-.95-.74-1.547V.5c0-.276-.224-.5-.5-.5s-.5.224-.5.5v1c0,.94.483,1.562.951,2.162.416.535.846,1.087,1.064,1.959Zm14.985,14.379h6.5c.276,0,.5-.224.5-.5s-.224-.5-.5-.5h-6.5c-3.944,0-4.824,2.831-5,4-.176-1.169-1.056-4-5-4H.5c-.276,0-.5.224-.5.5s.224.5.5.5h6.5c2.584,0,3.495,1.448,3.819,2.484-.708-.785-1.882-1.484-3.819-1.484H.5c-.276,0-.5.224-.5.5s.224.5.5.5h6.5c1.263,0,2.242.337,2.928,1H.5c-.276,0-.5.224-.5.5s.224.5.5.5h23c.276,0,.5-.224.5-.5s-.224-.5-.5-.5h-9.428c.685-.663,1.664-1,2.928-1h6.5c.276,0,.5-.224.5-.5s-.224-.5-.5-.5h-6.5c-1.937,0-3.11.699-3.819,1.484.324-1.035,1.235-2.484,3.819-2.484ZM23.5,0c-.276,0-.5.224-.5.5v1c0,.597-.311.996-.74,1.547-.435.559-.976,1.254-1.245,2.332-.189.754-.023,1.466.137,2.154.208.893.404,1.735-.1,2.743-.334.669-.795,1.086-1.283,1.528-.87.788-1.77,1.604-1.77,3.695v1c0,.276.224.5.5.5s.5-.224.5-.5v-1c0-1.648.636-2.225,1.441-2.954.51-.462,1.088-.985,1.506-1.822.665-1.331.407-2.439.179-3.417-.146-.625-.271-1.165-.142-1.685.218-.873.648-1.425,1.064-1.959.467-.6.951-1.221.951-2.162V.5c0-.276-.224-.5-.5-.5Z"/>
</svg>
