<?xml version="1.0" encoding="UTF-8"?>
<svg xmlns="http://www.w3.org/2000/svg" id="Layer_1" data-name="Layer 1" viewBox="0 0 24 24">
  <path d="m22.12,4.996c-.51,0-.978-.3-1.19-.764-.345-.751-1.157-1.236-2.07-1.236h-.858V.937c0-.3-.144-.588-.386-.77-.236-.177-.531-.232-.81-.153-1.046.302-1.805,1.346-1.805,2.481v1.756l-.994,2.754c-.126.35-.384.619-.697.791L.762.074C.525-.072.218.002.074.238-.07.473.003.781.238.926l11.491,7.071-4.232.002c-1.707,0-3.234.783-4.243,2.008-.344-.199-2.255-1.441-2.255-4.511,0-.276-.224-.5-.5-.5S-.001,5.219-.001,5.496C-.001,8.915,2.051,10.442,2.691,10.835c-.44.79-.692,1.698-.692,2.665l.002,8.002c0,1.377,1.122,2.498,2.499,2.498s2.499-1.121,2.499-2.499v-3.506l7.003-.003v3.505c0,1.378,1.121,2.499,2.505,2.499s2.499-1.121,2.499-2.499l-.008-3.411,1.23-6.681c.044-.237.25-.41.492-.41,1.81,0,3.283-1.473,3.283-3.283v-.717c0-1.467-1.125-2-1.882-2Zm-9.12,11.996l-6.502.004c-.276,0-.5.224-.5.5v4.006c0,.826-.672,1.499-1.499,1.499s-1.498-.672-1.499-1.498l-.002-8.002c0-2.48,2.017-4.5,4.498-4.501l5.102-.002c.136,0,.27-.012.401-.034v8.029Zm5.005,1.004v3.501c0,.826-.672,1.499-1.505,1.499-.826,0-1.499-.672-1.499-1.499v-4.006c0-.133-.053-.26-.146-.354s-.221-.146-.354-.146h-.502s0-7.62,0-7.62l5.045,2.943-1.039,5.682Zm4.997-10.283c0,1.259-1.024,2.283-2.283,2.283-.724,0-1.344.517-1.475,1.229l-.008.043-4.983-2.907c.306-.271.551-.615.695-1.015l1.053-3.006v-1.843c0-.689.465-1.342,1-1.559v2.559c0,.276.224.5.5.5h1.358c.515,0,.981.262,1.161.652.375.819,1.199,1.348,2.099,1.348.147,0,.882.048.882,1v.717Zm-7-3.374c.02-.055,0,.058,0,0h0Z"/>
</svg>
