<?xml version="1.0" encoding="UTF-8"?>
<svg xmlns="http://www.w3.org/2000/svg" id="Layer_1" data-name="Layer 1" viewBox="0 0 24 24">
  <path d="m23.161.821c-.662-.656-1.602-.946-2.525-.77-4.07.772-9.808,2.986-13.703,6.881S.824,16.564.051,20.635c-.174.919.113,1.863.771,2.526.535.541,1.26.838,2.009.838.166,0,.333-.015.499-.044,4.036-.723,9.764-2.912,13.738-6.887,3.978-3.977,6.165-9.704,6.887-13.738.164-.917-.132-1.854-.793-2.508Zm-.191,2.332c-.695,3.884-2.796,9.394-6.609,13.207-3.811,3.812-9.321,5.914-13.207,6.61-.607.108-1.193-.08-1.622-.512-.431-.436-.612-1.032-.498-1.636.745-3.924,2.872-9.448,6.606-13.182,3.734-3.735,9.258-5.861,13.183-6.606.118-.022.236-.034.354-.034.479,0,.932.186,1.282.532.433.429.62,1.02.512,1.622Zm-12.97,8.847c-1.103,0-2,.897-2,2s.897,2,2,2,2-.897,2-2-.897-2-2-2Zm0,3c-.552,0-1-.449-1-1s.448-1,1-1,1,.449,1,1-.448,1-1,1Zm4-7c-1.103,0-2,.897-2,2s.897,2,2,2,2-.897,2-2-.897-2-2-2Zm0,3c-.552,0-1-.449-1-1s.448-1,1-1,1,.449,1,1-.448,1-1,1Zm-8,5c-1.103,0-2,.897-2,2s.897,2,2,2,2-.897,2-2-.897-2-2-2Zm0,3c-.552,0-1-.449-1-1s.448-1,1-1,1,.449,1,1-.448,1-1,1Zm12-15c-1.103,0-2,.897-2,2s.897,2,2,2,2-.897,2-2-.897-2-2-2Zm0,3c-.552,0-1-.449-1-1s.448-1,1-1,1,.449,1,1-.448,1-1,1Z"/>
</svg>
