<?xml version="1.0" encoding="UTF-8"?>
<svg xmlns="http://www.w3.org/2000/svg" id="Layer_1" data-name="Layer 1" viewBox="0 0 24 24">
  <path d="m4,9.5v-5C4,2.019,6.019,0,8.5,0h7c1.602,0,3.096.862,3.897,2.25.139.239.057.545-.183.683-.236.139-.545.057-.683-.182-.624-1.08-1.786-1.75-3.032-1.75h-7c-1.93,0-3.5,1.57-3.5,3.5v5c0,.276-.224.5-.5.5s-.5-.224-.5-.5Zm15.5,2.5c-.276,0-.5.224-.5.5v7c0,1.93-1.57,3.5-3.5,3.5h-7c-1.93,0-3.5-1.57-3.5-3.5,0-.276-.224-.5-.5-.5s-.5.224-.5.5c0,2.481,2.019,4.5,4.5,4.5h7c2.481,0,4.5-2.019,4.5-4.5v-7c0-.276-.224-.5-.5-.5Zm4.098-5.472l-2.382-2.381c-.195-.195-.512-.195-.707,0s-.195.512,0,.707l2.146,2.146h-5.155c-.276,0-.5.224-.5.5s.224.5.5.5h5.156l-2.147,2.146c-.195.195-.195.512,0,.707.098.098.226.146.354.146s.256-.049.354-.146l2.383-2.382c.534-.536.534-1.408,0-1.944ZM1.345,15h5.155c.276,0,.5-.224.5-.5s-.224-.5-.5-.5H1.344l2.147-2.146c.195-.195.195-.512,0-.707s-.512-.195-.707,0L.401,13.528c-.534.536-.534,1.408,0,1.944l2.382,2.381c.098.098.226.146.354.146s.256-.049.354-.146c.195-.195.195-.512,0-.707l-2.146-2.146Zm9.155,5c-.276,0-.5.224-.5.5s.224.5.5.5h3c.276,0,.5-.224.5-.5s-.224-.5-.5-.5h-3Zm.658-12h1.684c.576,0,1.158.309,1.158,1,0,.276.224.5.5.5s.5-.224.5-.5c0-1.159-.907-2-2.158-2h-.342v-.5c0-.276-.224-.5-.5-.5s-.5.224-.5.5v.5h-.342c-1.19,0-2.158.968-2.158,2.158,0,1.059.759,1.954,1.795,2.127l2.237.415c.561.094.968.574.968,1.142,0,.639-.52,1.158-1.158,1.158h-1.684c-.576,0-1.158-.309-1.158-1,0-.276-.224-.5-.5-.5s-.5.224-.5.5c0,1.159.907,2,2.158,2h.342v.5c0,.276.224.5.5.5s.5-.224.5-.5v-.5h.342c1.19,0,2.158-.968,2.158-2.158,0-1.059-.759-1.954-1.795-2.127l-2.237-.415c-.561-.094-.968-.574-.968-1.142,0-.639.52-1.158,1.158-1.158Z"/>
</svg>
