<?xml version="1.0" encoding="UTF-8"?>
<svg xmlns="http://www.w3.org/2000/svg" id="Layer_1" data-name="Layer 1" viewBox="0 0 24 24">
  <path d="m23.5,19h-2.5c-.551,0-1-.448-1-1V4.5c0-.276-.224-.5-.5-.5s-.5.224-.5.5v9.5h-2.866l-2.014-10.359c-.411-2.109-2.269-3.641-4.417-3.641h-5.203C2.019,0,0,2.019,0,4.5v16.5c0,1.654,1.346,3,3,3s3-1.346,3-3v-1h5v1c0,1.654,1.346,3,3,3s3-1.346,3-3l-.009-2.596-.662-3.404h2.671v3c0,1.103.897,2,2,2h2.5c.276,0,.5-.224.5-.5s-.224-.5-.5-.5ZM4.5,1h5.203c1.671,0,3.117,1.191,3.436,2.832l1.984,10.168h-4.522c-.719,0-1.357-.483-1.552-1.176-.302-1.074-1.292-1.824-2.407-1.824H1v-6.5c0-1.93,1.57-3.5,3.5-3.5Zm.5,20c0,1.103-.897,2-2,2s-2-.897-2-2v-1h4v1Zm9,2c-1.103,0-2-.897-2-2v-1h4v1c0,1.103-.897,2-2,2Zm2-4.5v.5H1v-7h5.642c.669,0,1.264.45,1.444,1.094.315,1.122,1.349,1.906,2.515,1.906h4.717l.683,3.5Z"/>
</svg>
