<?xml version="1.0" encoding="UTF-8"?>
<svg xmlns="http://www.w3.org/2000/svg" id="Layer_1" data-name="Layer 1" viewBox="0 0 24 24">
  <path d="m23.803,10.493l-.839-6.563c-.286-2.24-2.205-3.93-4.464-3.93H5.335C3.076,0,1.157,1.689.871,3.93L.032,10.494c-.146,1.139.207,2.288.967,3.15.759.862,1.854,1.356,3.002,1.356h7.499v1.5c0,2.458-2.879,2.5-3,2.5-1.379,0-2.5,1.122-2.5,2.5s1.121,2.5,2.5,2.5h7c1.379,0,2.5-1.122,2.5-2.5s-1.121-2.5-2.499-2.5c-.122,0-3.001-.042-3.001-2.5v-1.5h7.334c1.148,0,2.243-.495,3.002-1.356.76-.862,1.112-2.011.967-3.15Zm-8.303,9.507c.827,0,1.5.673,1.5,1.5s-.673,1.5-1.5,1.5h-7c-.827,0-1.5-.673-1.5-1.5s.673-1.5,1.5-1.5c1.009,0,2.672-.389,3.5-1.672.828,1.283,2.491,1.672,3.5,1.672Zm6.586-7.018c-.569.646-1.391,1.018-2.252,1.018H4.001c-.861,0-1.683-.371-2.252-1.018s-.834-1.508-.725-2.362l.839-6.563c.223-1.743,1.715-3.057,3.472-3.057h13.165c1.757,0,3.249,1.314,3.472,3.057l.839,6.563c.109.855-.155,1.716-.725,2.363Z"/>
</svg>
