<?xml version="1.0" encoding="UTF-8"?>
<svg xmlns="http://www.w3.org/2000/svg" id="Layer_1" data-name="Layer 1" viewBox="0 0 24 24">
  <path d="m23.854.854c.195-.195.195-.512,0-.707s-.512-.195-.707,0l-3.035,3.035c-2.138-1.969-4.982-3.182-8.111-3.182S6.028,1.214,3.889,3.182L.854.146C.658-.049.342-.049.146.146S-.049.658.146.854l3.036,3.036C1.214,6.028,0,8.871,0,12c0,6.617,5.383,12,12,12s12-5.383,12-12c0-3.129-1.213-5.973-3.182-8.111l3.035-3.035Zm-7.854.91v5.267c-.912-1.225-2.359-2.031-4-2.031s-3.088.806-4,2.031V1.764c1.242-.487,2.588-.764,4-.764s2.758.277,4,.764Zm0,8.236c0,2.206-1.794,4-4,4s-4-1.794-4-4,1.794-4,4-4,4,1.794,4,4Zm-4,13c-6.065,0-11-4.935-11-11C1,7.736,3.444,4.039,7,2.214v7.786c0,2.757,2.243,5,5,5s5-2.243,5-5V2.214c3.556,1.825,6,5.521,6,9.786,0,6.065-4.935,11-11,11Z"/>
</svg>
