<?xml version="1.0" encoding="UTF-8"?>
<svg xmlns="http://www.w3.org/2000/svg" id="Layer_1" data-name="Layer 1" viewBox="0 0 24 24">
  <path d="m12,0C5.383,0,0,5.383,0,12s5.383,12,12,12,12-5.383,12-12S18.617,0,12,0Zm0,23c-6.065,0-11-4.935-11-11S5.935,1,12,1s11,4.935,11,11-4.935,11-11,11Z"/>
  <path d="m19.5,12.5c.276,0,.5-.224.5-.5s-.224-.5-.5-.5h-2.5v-3.5h2.5c.276,0,.5-.224.5-.5s-.224-.5-.5-.5h-2.5v-2.5c0-.276-.224-.5-.5-.5s-.5.224-.5.5v2.5h-3.5v-2.5c0-.276-.224-.5-.5-.5s-.5.224-.5.5v2.5h-3.5v-2.5c0-.276-.224-.5-.5-.5s-.5.224-.5.5v2.5h-2.5c-.276,0-.5.224-.5.5s.224.5.5.5h2.5v3.5h-2.5c-.276,0-.5.224-.5.5s.224.5.5.5h2.5v3.5h-2.5c-.276,0-.5.224-.5.5s.224.5.5.5h2.5v2.5c0,.276.224.5.5.5s.5-.224.5-.5v-2.5h3.5v2.5c0,.276.224.5.5.5s.5-.224.5-.5v-2.5h3.5v2.5c0,.276.224.5.5.5s.5-.224.5-.5v-2.5h2.5c.276,0,.5-.224.5-.5s-.224-.5-.5-.5h-2.5v-3.5h2.5Zm-3.5-4.5v3.5h-3.5v-3.5h3.5Zm-8,0h3.5v3.5h-3.5v-3.5Zm0,8v-3.5h3.5v3.5h-3.5Zm8,0h-3.5v-3.5h3.5v3.5Z"/>
</svg>
