<?xml version="1.0" encoding="UTF-8"?>
<svg xmlns="http://www.w3.org/2000/svg" id="Layer_1" data-name="Layer 1" viewBox="0 0 24 24">
  <path d="m3.5,10c0-.276.224-.5.5-.5h4v-4c0-.276.224-.5.5-.5s.5.224.5.5v4h4c.276,0,.5.224.5.5s-.224.5-.5.5h-4v4c0,.276-.224.5-.5.5s-.5-.224-.5-.5v-4h-4c-.276,0-.5-.224-.5-.5Zm20.5.5v5c0,1.499-.952,2.771-2.28,3.268.179.387.28.802.28,1.232,0,1.654-1.346,3-3,3s-3-1.346-3-3c0-.345.064-.68.18-1H7.82c.116.32.18.655.18,1,0,1.654-1.346,3-3,3s-3-1.346-3-3c0-.43.101-.845.28-1.232-1.328-.498-2.28-1.769-2.28-3.268V5.5C0,3.019,2.019,1,4.5,1h8c2.481,0,4.5,2.019,4.5,4.5v.5h2.5c2.481,0,4.5,2.019,4.5,4.5Zm-7-3.5v5h6v-1.5c0-1.93-1.57-3.5-3.5-3.5h-2.5ZM3.5,18h12.5V5.5c0-1.93-1.57-3.5-3.5-3.5H4.5c-1.93,0-3.5,1.57-3.5,3.5v10c0,1.379,1.121,2.5,2.5,2.5Zm3.196,1h-3.196c-.064,0-.123-.015-.186-.019-.192.314-.314.657-.314,1.019,0,1.103.897,2,2,2s2-.897,2-2c0-.355-.119-.691-.304-1Zm13.99-.019c-.063.003-.122.019-.186.019h-3.196c-.185.309-.304.645-.304,1,0,1.103.897,2,2,2s2-.897,2-2c0-.362-.122-.705-.314-1.019Zm2.314-3.481v-2.5h-6v5h3.5c1.379,0,2.5-1.121,2.5-2.5Z"/>
</svg>
