<?xml version="1.0" encoding="UTF-8"?>
<svg xmlns="http://www.w3.org/2000/svg" id="Layer_1" data-name="Layer 1" viewBox="0 0 24 24">
  <path d="m19.522,6.989h0l-7.522.009h-.001c-.266,0-.517-.104-.706-.292-.188-.188-.293-.439-.293-.706,0-1.017-.374-1.934-1-2.633v-.483c0-1.325-.859-2.45-2.051-2.847-.465-.155-.949.189-.949.679v1.284s-.26.011-.314.03c-.381.029-.818.082-1.095.169l-3.668,1.325c-.739.266-1.33.803-1.664,1.513-.335.709-.373,1.507-.108,2.245.267.744.84,1.341,1.658,1.728.396.187,1.198.396,2.383.621.468.089.808.502.808.98v10.395c0,1.651,1.343,2.994,2.995,2.994.802,0,1.556-.313,2.122-.882.566-.568.876-1.324.872-2.126l-.009-1.982,7.022-.009.009,2.012c.007,1.641,1.347,2.978,2.992,2.981.806-.03,1.553-.309,2.12-.872.567-.564.88-1.316.881-2.116l.018-9.517c0-2.481-2.019-4.5-4.5-4.5Zm-15.143,1.659c-1.446-.275-1.964-.458-2.143-.543-.399-.188-.922-.543-1.144-1.161-.175-.487-.15-1.013.071-1.481.221-.468.611-.822,1.099-.997l3.65-1.319c.211-.066.761-.12,1.171-.14,1.652.107,2.916,1.384,2.916,2.993,0,.534.208,1.036.586,1.414.377.377.879.584,1.412.584h.002l7.522-.009c1.93,0,3.5,1.57,3.5,3.499l-.002,1.083-.04-.04c-.783-.707-1.834-.707-2.618,0l-1.319,1.194c-.406.367-.872.366-1.277,0l-1.32-1.196c-.783-.707-1.834-.706-2.618,0l-1.32,1.195c-.405.367-.87.366-1.276,0l-1.32-1.196c-.782-.706-1.834-.705-2.625.007l-1.287,1.213v-3.14c0-.958-.681-1.783-1.621-1.963Zm18.038,13.765c-.376.375-.876.581-1.412.581h-.004c-1.092-.002-1.985-.893-1.99-1.985l-.011-2.511c-.001-.275-.225-.498-.5-.498h0l-8.022.011c-.133,0-.26.054-.354.147s-.146.222-.146.354l.011,2.483c.002.535-.204,1.038-.581,1.417-.377.378-.879.587-1.413.587-1.1,0-1.995-.895-1.995-1.994v-5.88l1.965-1.853c.406-.367.872-.366,1.277,0l1.32,1.196c.784.708,1.835.707,2.618,0l1.32-1.195c.405-.367.87-.366,1.276,0l1.32,1.196c.782.707,1.834.709,2.618,0l1.32-1.194c.406-.367.871-.368,1.258-.018l.726.727-.013,7.021c0,.533-.209,1.033-.587,1.409Z"/>
</svg>
