<?xml version="1.0" encoding="UTF-8"?>
<svg xmlns="http://www.w3.org/2000/svg" id="Layer_1" data-name="Layer 1" viewBox="0 0 24 24">
  <path d="m23.97,10.418C23.092,3.892,17.251-.646,10.671.075,5.142.686.687,5.142.076,10.671c-.726,6.578,3.816,12.421,10.342,13.299.146.02.292.029.438.029.929,0,1.856-.387,2.548-1.078l9.518-9.518c.801-.801,1.193-1.917,1.049-2.985Zm-13.419,12.562C4.568,22.173.403,16.815,1.07,10.78,1.629,5.713,5.713,1.629,10.78,1.069c.426-.047.847-.07,1.265-.07,5.502,0,10.185,3.991,10.934,9.552.02.15.025.301.016.452-6.569.098-11.895,5.423-11.993,11.993-.151.009-.302.005-.451-.015Zm2.146-.766c-.205.205-.438.373-.686.5.239-5.795,4.909-10.465,10.704-10.704-.127.248-.296.481-.5.686l-9.518,9.518Z"/>
</svg>
