<?xml version="1.0" encoding="UTF-8"?>
<svg xmlns="http://www.w3.org/2000/svg" id="Layer_1" data-name="Layer 1" viewBox="0 0 24 24">
  <path d="m6,17.5v3c0,.827.673,1.5,1.5,1.5.679,0,1.273-.463,1.445-1.126.069-.267.339-.429.61-.358.267.069.428.343.358.61-.287,1.104-1.279,1.874-2.414,1.874-1.379,0-2.5-1.121-2.5-2.5v-3c0-1.379,1.121-2.5,2.5-2.5,1.135,0,2.127.771,2.414,1.874.069.268-.092.541-.358.61-.271.07-.541-.093-.61-.358-.172-.663-.767-1.126-1.445-1.126-.827,0-1.5.673-1.5,1.5Zm16.505-2.5c-.342,0-.66.242-.841.64l-1.164,2.56-1.164-2.56c-.181-.398-.499-.64-.841-.64-.516,0-.945.295-.988,1l-.471,6.5c-.02.27.194.5.465.5.245,0,.542-.19.559-.434l.435-6.36,1.581,3.477c.166.364.683.364.848,0l1.581-3.477.53,6.367c.02.241.222.427.464.427.271,0,.484-.23.465-.5l-.471-6.5c-.043-.705-.472-1-.988-1Zm-7.618,4.578l.921,2.763c.087.262-.055.545-.316.633-.053.018-.105.025-.158.025-.209,0-.404-.133-.475-.342l-.901-2.704c-.149.028-.3.046-.457.046h-1.5v2.5c0,.276-.224.5-.5.5s-.5-.224-.5-.5v-6c0-.827.673-1.5,1.5-1.5h1c1.379,0,2.5,1.121,2.5,2.5,0,.866-.443,1.63-1.114,2.078Zm.114-2.078c0-.827-.673-1.5-1.5-1.5h-1c-.275,0-.5.225-.5.5v2.5h1.5c.827,0,1.5-.673,1.5-1.5ZM4,4c-.552,0-1,.448-1,1s.448,1,1,1,1-.448,1-1-.448-1-1-1Zm20,1.5v7c0,.276-.224.5-.5.5s-.5-.224-.5-.5v-3.5H1v9.5c0,1.246.671,2.407,1.75,3.032.239.138.321.444.183.683-.093.16-.261.25-.433.25-.085,0-.172-.021-.25-.067-1.388-.803-2.25-2.296-2.25-3.897V5.5C0,3.019,2.019,1,4.5,1h15c2.481,0,4.5,2.019,4.5,4.5Zm-1,0c0-1.93-1.57-3.5-3.5-3.5H4.5c-1.93,0-3.5,1.57-3.5,3.5v2.5h22v-2.5Zm-13-1.5c-.552,0-1,.448-1,1s.448,1,1,1,1-.448,1-1-.448-1-1-1Zm-3,0c-.552,0-1,.448-1,1s.448,1,1,1,1-.448,1-1-.448-1-1-1Z"/>
</svg>
