<?xml version="1.0" encoding="UTF-8"?>
<svg xmlns="http://www.w3.org/2000/svg" id="Layer_1" data-name="Layer 1" viewBox="0 0 24 24">
  <path d="m21.974,23.46c.015.276-.196.511-.473.526-.263.021-.512-.197-.525-.473-.256-4.774-4.199-8.514-8.976-8.514s-8.719,3.74-8.975,8.514c-.015.267-.235.473-.499.473-.306,0-.515-.251-.5-.527.284-5.305,4.665-9.46,9.974-9.46s9.689,4.156,9.974,9.46Zm-4.001-.005c.024.275-.151.545-.499.545-.256,0-.474-.195-.497-.455-.093-1.034-.5-1.958-1.109-2.706l-2.166,2.166c.062.107.134.207.177.327.093.26-.043.546-.303.639-.056.02-.112.029-.168.029-.205,0-.398-.127-.471-.332-.142-.399-.519-.668-.937-.668s-.795.268-.937.667c-.093.26-.381.395-.639.304-.26-.093-.396-.378-.304-.639.043-.12.115-.22.177-.327l-2.166-2.166c-.609.747-1.015,1.672-1.109,2.706-.024.275-.273.477-.543.453-.275-.025-.478-.268-.453-.543.281-3.11,2.848-5.455,5.973-5.455s5.692,2.345,5.973,5.455Zm-5.973-1.455c.363,0,.701.116,1,.293l2.158-2.158c-.863-.704-1.955-1.135-3.158-1.135s-2.296.431-3.158,1.135l2.158,2.158c.3-.177.638-.293,1-.293ZM3.614,14.405c.077-.351,1.895-8.605,1.961-8.883C6.306,2.459,8.377.454,11.077.079c.302-.047.608-.079.923-.079,3.149,0,5.611,2.116,6.425,5.522.066.277,1.884,8.532,1.961,8.883.06.27-.102.607-.488.607-.23,0-.437-.159-.488-.393-.654-2.972-1.905-8.65-1.957-8.865-.425-1.781-1.368-3.144-2.635-3.946-.933,2.984-3.642,5.095-6.803,5.188h-.914c.464,2.281,2.484,4.003,4.899,4.003,1.39,0,2.682-.557,3.637-1.568.188-.2.506-.21.707-.02.2.189.209.506.02.707-1.146,1.213-2.695,1.882-4.363,1.882-2.818,0-5.181-1.955-5.823-4.578-.433,1.96-1.145,5.192-1.587,7.198-.06.27-.327.44-.596.381-.27-.06-.44-.326-.381-.596ZM13.918,1.35c-.593-.227-1.236-.35-1.918-.35-2.756,0-4.999,2.242-5,4.999h.999c2.776-.083,5.163-1.982,5.919-4.648Z"/>
</svg>
