<?xml version="1.0" encoding="UTF-8"?>
<svg xmlns="http://www.w3.org/2000/svg" id="Layer_1" data-name="Layer 1" viewBox="0 0 24 24">
  <path d="m23.984,10.692c-.151-1.51-1.525-2.692-3.127-2.692h-.623c.476-.531.766-1.232.766-2,0-1.654-1.346-3-3-3h-2.247c-.176,0-.338-.09-.42-.235-.664-1.16-1.704-2.198-2.649-2.643-.384-.182-.822-.167-1.2.041-.383.21-.645.593-.7,1.023,0,0-.137,1.058-.234,1.447-.054.216-.247.367-.469.367h-3.94c-1.601,0-2.974,1.183-3.125,2.692-.084.842.188,1.682.749,2.308h-.622C1.541,8,.167,9.183.016,10.692c-.085.847.192,1.693.759,2.32.493.545,1.171.871,1.893.953l1.46,3.053c1.833,3.059,3.766,3.033,6.696,2.991.213-.003.448-.003.676-.004v2.996h-4c-.276,0-.5.224-.5.5s.224.5.5.5h9c.276,0,.5-.224.5-.5s-.224-.5-.5-.5h-4v-2.995c.243.002,1.373.015,1.683.015,2.383,0,4.076-.291,5.712-3.024l1.438-3.031c.722-.082,1.4-.408,1.892-.953.567-.627.844-1.473.759-2.32Zm-4.97,5.832c-1.53,2.551-2.954,2.527-5.781,2.486-.383-.005-2.054-.007-2.423-.001-2.855.041-4.287.061-5.803-2.463l-1.215-2.545h16.417l-1.195,2.524Zm3.469-4.183c-.379.418-.919.659-1.483.659H3c-.564,0-1.104-.24-1.483-.659-.384-.424-.563-.975-.506-1.549.101-1.005,1.037-1.792,2.132-1.792h9.357c.276,0,.5-.224.5-.5s-.224-.5-.5-.5h-6.5c-.564,0-1.104-.24-1.483-.659-.384-.424-.563-.975-.506-1.549.101-1.005,1.036-1.792,2.13-1.792h3.94c.683,0,1.275-.463,1.44-1.126.11-.445.255-1.56.255-1.56.015-.117.084-.217.189-.275.055-.03.166-.074.293-.013.749.353,1.656,1.272,2.208,2.236.261.455.754.738,1.289.738h2.247c1.103,0,2,.897,2,2s-.897,2-2,2h-.5c-.276,0-.5.224-.5.5s.224.5.5.5h3.357c1.095,0,2.031.787,2.132,1.792.058.575-.122,1.125-.506,1.549Z"/>
</svg>
