<?xml version="1.0" encoding="UTF-8"?>
<svg xmlns="http://www.w3.org/2000/svg" id="Layer_1" data-name="Layer 1" viewBox="0 0 24 24">
  <path d="m10,10c2.757,0,5-2.243,5-5S12.757,0,10,0s-5,2.243-5,5,2.243,5,5,5Zm0-9c2.206,0,4,1.794,4,4s-1.794,4-4,4-4-1.794-4-4S7.794,1,10,1Zm9.5,19h-1.5v-1c0-4.411-3.589-8-8-8S2,14.589,2,19v1H.5c-.276,0-.5.224-.5.5s.224.5.5.5h.5v2.5c0,.276.224.5.5.5s.5-.224.5-.5v-2.5h16v2.5c0,.276.224.5.5.5s.5-.224.5-.5v-2.5h.5c.276,0,.5-.224.5-.5s-.224-.5-.5-.5Zm-2.5-1v1h-4.61l-1.352-5.406,1.425-2.138c2.646,1,4.537,3.552,4.537,6.544Zm-5.538-6.844l-1.378,2.067c-.078.117-.103.262-.069.398l1.345,5.379h-2.72l1.345-5.379c.034-.137.009-.281-.069-.398l-1.378-2.067c.472-.101.96-.156,1.462-.156s.99.055,1.462.156Zm-8.462,6.844c0-2.992,1.89-5.544,4.537-6.544l1.425,2.138-1.352,5.406H3v-1ZM23.5,0h-6c-.276,0-.5.224-.5.5s.224.5.5.5h.5v5.052c0,.384.229.728.584.875.356.147.761.067,1.05-.224l.865-.957.883.976c.182.182.422.277.668.277.122,0,.246-.023.364-.072.355-.147.584-.491.584-.875V1h.5c.276,0,.5-.224.5-.5s-.224-.5-.5-.5Zm-1.5,5.914l-1.129-1.249c-.095-.105-.229-.165-.371-.165s-.276.06-.371.165l-1.129,1.249V1h3v4.914Z"/>
</svg>
