<?xml version="1.0" encoding="UTF-8"?>
<svg xmlns="http://www.w3.org/2000/svg" id="Layer_1" data-name="Layer 1" viewBox="0 0 24 24">
  <path d="m18,6.5c.552,0,1,.672,1,1.5s-.448,1.5-1,1.5-1-.672-1-1.5.448-1.5,1-1.5Zm6,15.346c0,1.188-.966,2.154-2.153,2.154h-10.847c-2.206,0-4-1.794-4-4v-4h-2.5c-2.523,0-4.5-3.514-4.5-8S2.092,0,4.5,0h13.5c2.243,0,4,3.514,4,8v9c0,1.231,0,1.793.854,2.646.771.771,1.146,1.491,1.146,2.2ZM18,1c-1.419,0-3,2.875-3,7s1.581,7,3,7,3-2.875,3-7-1.581-7-3-7ZM4.5,15h11.535c-1.224-1.353-2.035-3.952-2.035-7h-1.5c-.276,0-.5-.224-.5-.5s.224-.5.5-.5h1.53c.156-2.611.918-4.797,2.005-6H4.5c-1.728,0-3.211,2.659-3.462,6h1.462c.276,0,.5.224.5.5s-.224.5-.5.5h-1.5c0,3.794,1.603,7,3.5,7Zm18.5,6.846c0-.43-.279-.918-.854-1.493-1.146-1.146-1.146-2.072-1.146-3.354v-3.656c-.727,1.638-1.793,2.656-3,2.656h-10v4c0,1.654,1.346,3,3,3h10.847c.636,0,1.153-.518,1.153-1.154ZM6.5,7h-2c-.276,0-.5.224-.5.5s.224.5.5.5h2c.276,0,.5-.224.5-.5s-.224-.5-.5-.5Zm2,1h2c.276,0,.5-.224.5-.5s-.224-.5-.5-.5h-2c-.276,0-.5.224-.5.5s.224.5.5.5Z"/>
</svg>
