<?xml version="1.0" encoding="UTF-8"?>
<svg xmlns="http://www.w3.org/2000/svg" id="Layer_1" data-name="Layer 1" viewBox="0 0 24 24">
  <path d="m21.043,2.958C18.927.841,15.988-.195,12.782.03c-3.184.227-6.263,1.677-8.668,4.083C1.708,6.52.257,9.598.03,12.782c-.226,3.181.928,6.26,2.969,8.301,1.459,1.459,4.502,2.917,7.351,2.917.287,0,.576-.01.868-.031,3.184-.227,6.262-1.677,8.668-4.083,4.986-4.986,5.505-12.58,1.156-16.929Zm-1.298,4.723c-2.219,4.436-7.631,9.848-12.065,12.065-1.905.953-3.396,1.179-4,.606-.005-.005-.011-.01-.016-.015s-.01-.011-.015-.016c-.572-.602-.347-2.094.606-4,2.217-4.435,7.629-9.847,12.064-12.065,1.211-.605,2.255-.917,3.01-.917.443,0,.787.108,1.006.327.592.592.371,2.093-.59,4.016ZM1.028,12.853c.21-2.944,1.557-5.796,3.793-8.032S9.909,1.238,12.854,1.028c.267-.019.531-.028.794-.028,1.86,0,3.592.476,5.062,1.381-.742.104-1.672.398-2.838.98-4.599,2.3-10.212,7.913-12.512,12.512-.582,1.165-.876,2.094-.981,2.835-1.031-1.677-1.506-3.694-1.352-5.855Zm18.152,6.326c-2.236,2.236-5.089,3.583-8.033,3.793-2.159.15-4.177-.322-5.854-1.352.741-.105,1.67-.398,2.834-.98,4.599-2.299,10.211-7.913,12.512-12.512.582-1.164.876-2.093.98-2.834,2.479,4.046,1.576,9.869-2.44,13.886Z"/>
</svg>
