<?xml version="1.0" encoding="UTF-8"?>
<svg xmlns="http://www.w3.org/2000/svg" id="Layer_1" data-name="Layer 1" viewBox="0 0 24 24">
  <path d="m4.5,5c1.379,0,2.5-1.122,2.5-2.5S5.879,0,4.5,0s-2.5,1.122-2.5,2.5,1.121,2.5,2.5,2.5Zm0-4c.827,0,1.5.673,1.5,1.5s-.673,1.5-1.5,1.5-1.5-.673-1.5-1.5.673-1.5,1.5-1.5Z"/>
  <path d="m10.14,12.347c.099.102.229.153.36.153.125,0,.25-.046.347-.14.199-.191.205-.508.014-.707l-1.593-1.653h6.233c.276,0,.5-.224.5-.5s-.224-.5-.5-.5h-6.232l1.593-1.653c.191-.199.186-.515-.014-.707-.197-.192-.513-.186-.707.013l-1.686,1.75c-.604.605-.604,1.588-.007,2.187l1.692,1.757Z"/>
  <path d="m13.86,11.653c-.193-.198-.509-.205-.707-.013-.199.191-.205.508-.014.707l1.593,1.653h-6.233c-.276,0-.5.224-.5.5s.224.5.5.5h6.232l-1.593,1.653c-.191.199-.186.515.014.707.097.094.222.14.347.14.131,0,.262-.051.36-.153l1.686-1.75c.604-.605.604-1.588.007-2.187l-1.692-1.757Z"/>
  <path d="m19.5,5c1.379,0,2.5-1.122,2.5-2.5s-1.121-2.5-2.5-2.5-2.5,1.122-2.5,2.5,1.121,2.5,2.5,2.5Zm0-4c.827,0,1.5.673,1.5,1.5s-.673,1.5-1.5,1.5-1.5-.673-1.5-1.5.673-1.5,1.5-1.5Z"/>
  <path d="m7.25,6.469c-.529-.307-1.135-.469-1.75-.469h-2c-1.93,0-3.5,1.57-3.5,3.5v4c0,1.391.822,2.585,2,3.149v6.851c0,.276.224.5.5.5s.5-.224.5-.5v-6.551c.165.024.329.051.5.051h2c.168,0,.335-.012.5-.036v6.536c0,.276.224.5.5.5s.5-.224.5-.5v-7.171c0-.163-.079-.314-.212-.408-.132-.094-.303-.116-.455-.063-.266.094-.546.142-.833.142h-2c-1.379,0-2.5-1.122-2.5-2.5v-4c0-1.378,1.121-2.5,2.5-2.5h2c.439,0,.872.116,1.25.334.237.139.544.057.683-.182s.057-.545-.183-.683Z"/>
  <path d="m20.5,6h-2c-.692,0-1.361.202-1.936.584-.229.153-.292.463-.139.693.152.23.462.292.693.139.409-.272.887-.416,1.381-.416h2c1.379,0,2.5,1.122,2.5,2.5v4c0,1.378-1.121,2.5-2.5,2.5h-2c-.287,0-.567-.048-.833-.142-.152-.053-.322-.031-.455.063s-.212.246-.212.408v7.171c0,.276.224.5.5.5s.5-.224.5-.5v-6.536c.165.024.332.036.5.036h2c.171,0,.335-.027.5-.051v6.551c0,.276.224.5.5.5s.5-.224.5-.5v-6.851c1.178-.564,2-1.758,2-3.149v-4c0-1.93-1.57-3.5-3.5-3.5Z"/>
</svg>
