<?xml version="1.0" encoding="UTF-8"?>
<svg xmlns="http://www.w3.org/2000/svg" id="Layer_1" data-name="Layer 1" viewBox="0 0 24 24">
  <path d="m22.346.812c-.473-.516-1.145-.812-1.844-.812H3.501c-.697,0-1.368.294-1.84.807s-.709,1.205-.651,1.898l1.411,17.164c.19,2.317,2.16,4.131,4.484,4.131h10.096c2.35,0,4.276-1.765,4.482-4.106l1.51-17.175c.062-.696-.175-1.392-.647-1.907Zm-5.345,22.188H6.905c-1.808,0-3.34-1.412-3.488-3.213l-.64-7.787h18.397l-.686,7.806c-.16,1.821-1.659,3.194-3.486,3.194Zm4.26-12H2.695l-.689-8.377c-.035-.422.104-.827.391-1.139.288-.312.68-.484,1.104-.484h17.001c.426,0,.819.173,1.106.487.288.314.426.721.389,1.145l-.736,8.369Z"/>
</svg>
