<?xml version="1.0" encoding="UTF-8"?>
<svg xmlns="http://www.w3.org/2000/svg" id="Layer_1" data-name="Layer 1" viewBox="0 0 24 24">
  <path d="m8,11c1.103,0,2-.897,2-2s-.897-2-2-2-2,.897-2,2,.897,2,2,2Zm0-3c.552,0,1,.449,1,1s-.448,1-1,1-1-.449-1-1,.448-1,1-1Zm8-1c-1.103,0-2,.897-2,2s.897,2,2,2,2-.897,2-2-.897-2-2-2Zm0,3c-.552,0-1-.449-1-1s.448-1,1-1,1,.449,1,1-.448,1-1,1Zm1.373,4.167c.184.206.166.521-.04.706-.097.086-2.414,2.127-5.333,2.127s-5.236-2.041-5.333-2.127c-.206-.184-.224-.5-.04-.706.183-.207.498-.226.706-.041.021.019,2.137,1.873,4.667,1.873s4.646-1.854,4.667-1.873c.207-.185.522-.167.706.041Zm5.127-5.167h-.5v-1.5c0-2.481-2.019-4.5-4.5-4.5h-5V.5c0-.276-.224-.5-.5-.5s-.5.224-.5.5v2.5h-5c-2.481,0-4.5,2.019-4.5,4.5v1.5h-.5c-.827,0-1.5.673-1.5,1.5v4c0,.827.673,1.5,1.5,1.5h.5v.5c0,2.481,2.019,4.5,4.5,4.5h8.849l4.089,2.726c.276.184.595.277.914.277.267,0,.534-.065.778-.195.537-.288.87-.844.87-1.453v-6.355h.5c.827,0,1.5-.673,1.5-1.5v-4c0-.827-.673-1.5-1.5-1.5ZM1.5,15c-.275,0-.5-.224-.5-.5v-4c0-.276.225-.5.5-.5h.5v5h-.5Zm19.5,7.355c0,.243-.128.457-.342.571-.217.115-.465.101-.666-.032l-4.215-2.81c-.082-.055-.179-.084-.277-.084H6.5c-1.93,0-3.5-1.57-3.5-3.5V7.5c0-1.93,1.57-3.5,3.5-3.5h11c1.93,0,3.5,1.57,3.5,3.5v14.855Zm2-7.855c0,.276-.225.5-.5.5h-.5v-5h.5c.275,0,.5.224.5.5v4Z"/>
</svg>
