<?xml version="1.0" encoding="UTF-8"?>
<svg xmlns="http://www.w3.org/2000/svg" id="Layer_1" data-name="Layer 1" viewBox="0 0 24 24">
  <path d="m23.019,5.779c-1.705-.765-3.369-1.825-4.019-4.355V.491c0-.314-.3-.565-.6-.471-.517.162-.922.569-1.164,1.066-1.544.204-2.783.793-3.683,1.77-1.692,1.839-1.574,4.367-1.554,4.661-.009.819-.679,1.483-1.5,1.483h-3.006c-1.197,0-2.255.606-2.887,1.527-3.014.996-4.607,3.752-4.607,7.973,0,.276.224.5.5.5s.5-.224.5-.5c0-2.539.602-4.421,1.768-5.657-.512,1.345-.768,3.197-.768,5.657,0,.276.224.5.5.5s.5-.224.5-.5c0-2.802.333-4.758.997-5.95.015,1.668.714,3.865,1.228,5.474.119.372.229.715.319,1.019l-.27,2.191c-.086.701.132,1.406.6,1.934.468.529,1.141.832,1.847.832,1.272,0,2.327-.955,2.453-2.22l.278-2.78h2.547v2.5c0,1.378,1.121,2.5,2.5,2.5s2.5-1.122,2.5-2.5v-2.947l.403-1.896c.404-1.415.597-2.338.597-3.758v-3.399c0-.276.225-.5.5-.5h2.811c.932,0,1.689-.758,1.689-1.689,0-.663-.385-1.264-.981-1.532Zm-.708,2.221h-2.811c-.827,0-1.5.673-1.5,1.5v3.399c0,1.31-.172,2.133-.566,3.517l-.423,1.98c-.007.034-.011,3.104-.011,3.104,0,.827-.673,1.5-1.5,1.5s-1.5-.673-1.5-1.5v-3c0-.276-.224-.5-.5-.5h-3.5c-.257,0-.472.195-.498.45l-.323,3.23c-.075.752-.702,1.319-1.458,1.319-.419,0-.82-.18-1.098-.495-.278-.314-.408-.733-.357-1.149l.282-2.295c.008-.068.003-.136-.016-.202-.098-.333-.221-.719-.355-1.14-.5-1.564-1.184-3.707-1.184-5.225.003-1.376,1.125-2.495,2.5-2.495h3.006c1.378,0,2.499-1.162,2.499-2.541-.002-.023-.167-2.347,1.297-3.932.871-.943,2.157-1.454,3.825-1.52.816,2.711,2.718,3.89,4.488,4.684.237.106.391.35.391.62,0,.38-.31.689-.689.689Z"/>
</svg>
