<?xml version="1.0" encoding="UTF-8"?>
<svg xmlns="http://www.w3.org/2000/svg" id="Layer_1" data-name="Layer 1" viewBox="0 0 24 24">
  <path d="m8.5,5c1.379,0,2.5-1.121,2.5-2.5s-1.121-2.5-2.5-2.5-2.5,1.121-2.5,2.5,1.121,2.5,2.5,2.5Zm0-4c.827,0,1.5.673,1.5,1.5s-.673,1.5-1.5,1.5-1.5-.673-1.5-1.5.673-1.5,1.5-1.5Zm-4.483,8.372c.527-1.985,2.371-3.372,4.483-3.372s3.956,1.387,4.483,3.372c.07.267-.088.54-.355.611-.291.084-.552-.131-.611-.355-.41-1.547-1.856-2.628-3.517-2.628s-3.106,1.081-3.517,2.628c-.071.268-.341.43-.611.355-.268-.071-.426-.345-.355-.611Zm19.164.282c-.497-.451-1.146-.683-1.809-.651-.67.031-1.288.321-1.739.817l-3.732,4.103c-.314-1.108-1.335-1.923-2.543-1.923H3.5c-1.93,0-3.5,1.57-3.5,3.5v5c0,1.93,1.57,3.5,3.5,3.5h5.965c2.706,0,5.291-1.159,7.093-3.18l6.806-7.64c.911-1.021.829-2.604-.183-3.526Zm-.563,2.86l-6.806,7.64c-1.612,1.809-3.926,2.846-6.347,2.846H3.5c-1.379,0-2.5-1.121-2.5-2.5v-5c0-1.379,1.121-2.5,2.5-2.5h9.857c.905,0,1.643.737,1.643,1.643,0,.812-.605,1.511-1.398,1.624l-6.161.737c-.274.032-.47.281-.437.556.032.274.283.477.556.437l6.172-.738c1.022-.146,1.846-.879,2.146-1.824l4.496-4.939c.271-.299.643-.474,1.046-.492.405-.019.789.12,1.088.392.609.556.658,1.507.11,2.121Z"/>
</svg>
