<?xml version="1.0" encoding="UTF-8"?>
<svg xmlns="http://www.w3.org/2000/svg" id="Layer_1" data-name="Layer 1" viewBox="0 0 24 24">
  <path d="m21.055,10.143c-.057-.049-.065-.111-.065-.143,0-.033.009-.095.065-.144l2.753-2.395c.033-.029.062-.062.086-.098.188-.277.128-.626.014-.854-.155-.319-.46-.509-.814-.509h-6.093c-1.103,0-2,.897-2,2v1h-6v-1c0-1.103-.897-2-2-2H.907c-.354,0-.659.19-.813.509-.154.318-.118.674.167,1.023l2.685,2.326c.057.049.065.111.065.144s-.008.094-.065.144L.192,12.539c-.033.029-.062.062-.087.099-.23.342-.067.74-.012.854.155.319.459.509.813.509h4.093v1.5c0,1.378,1.122,2.5,2.5,2.5h9c1.379,0,2.5-1.122,2.5-2.5v-1.5h4.093c.354,0,.659-.19.811-.502.124-.246.163-.626-.163-1.029l-2.686-2.326ZM1.187,13l2.416-2.101c.26-.227.409-.555.408-.899,0-.345-.15-.672-.411-.898l-2.426-2.102h5.827c.086,0,.164.029.244.049l-1.511,1.511c-.472.472-.732,1.1-.732,1.768v2.671H1.187Zm16.813,2.5c0,.827-.673,1.5-1.5,1.5H7.5c-.827,0-1.5-.673-1.5-1.5v-5.171c0-.112.015-.222.039-.329h11.922c.024.107.039.216.039.329v5.171Zm1-2.5v-2.671c0-.668-.26-1.296-.732-1.768l-1.511-1.511c.08-.021.157-.049.244-.049h5.813l-2.415,2.101c-.261.227-.409.555-.409.9,0,.345.15.672.411.897l2.439,2.102h-3.84Z"/>
</svg>
