<?xml version="1.0" encoding="UTF-8"?>
<svg xmlns="http://www.w3.org/2000/svg" id="Layer_1" data-name="Layer 1" viewBox="0 0 24 24">
  <path d="m19.5,2h-1.5V.5c0-.276-.224-.5-.5-.5s-.5.224-.5.5v1.5H7V.5c0-.276-.224-.5-.5-.5s-.5.224-.5.5v1.5h-1.5C2.019,2,0,4.019,0,6.5v13c0,2.481,2.019,4.5,4.5,4.5h6c.276,0,.5-.224.5-.5s-.224-.5-.5-.5h-6c-1.93,0-3.5-1.57-3.5-3.5v-10.5h22v2.5c0,.276.224.5.5.5s.5-.224.5-.5v-5c0-2.481-2.019-4.5-4.5-4.5Zm3.5,6H1v-1.5c0-1.93,1.57-3.5,3.5-3.5h15c1.93,0,3.5,1.57,3.5,3.5v1.5Zm-5,6c-1.103,0-2,.897-2,2s.897,2,2,2,2-.897,2-2-.897-2-2-2Zm0,3c-.551,0-1-.449-1-1s.449-1,1-1,1,.449,1,1-.449,1-1,1Zm0-5c-3.314,0-6,2.686-6,6s2.686,6,6,6,6-2.686,6-6-2.686-6-6-6Zm2,10.582c-.613.269-1.289.418-2,.418s-1.387-.149-2-.418v-.582c0-1.103.897-2,2-2s2,.897,2,2v.582Zm1-.585c-.001-1.653-1.346-2.997-3-2.997s-2.998,1.344-3,2.997c-1.214-.913-2-2.365-2-3.997,0-2.757,2.243-5,5-5s5,2.243,5,5c0,1.632-.786,3.084-2,3.997Z"/>
</svg>
