<?xml version="1.0" encoding="UTF-8"?>
<svg xmlns="http://www.w3.org/2000/svg" id="Layer_1" data-name="Layer 1" viewBox="0 0 24 24">
  <path d="m23.294,5.783l-3.154-4.261c-.681-.953-1.788-1.522-2.959-1.522h-7.255s-.008,0-.012,0h-3.094c-1.172,0-2.278.569-2.953,1.514L.667,5.784c-.938,1.326-.878,3.133.127,4.369l9.176,12.866c.494.623,1.234.98,2.029.98h.001c.795,0,1.535-.358,2.044-1l9.139-12.771c1.042-1.283,1.088-3.11.11-4.445Zm-3.962-3.672l3.157,4.266c.143.195.255.405.338.623h-5.97l-2.065-6h2.389c.85,0,1.652.413,2.151,1.111Zm-11.131,4.889l2.065-6h3.469l2.065,6h-7.599Zm7.639,1l-3.84,13.653-3.84-13.653h7.68ZM4.673,2.104c.494-.691,1.296-1.104,2.146-1.104h2.389l-2.065,6H1.151c.078-.22.186-.431.324-.627l3.199-4.269Zm6.096,20.314L1.589,9.548c-.366-.45-.562-.996-.587-1.548h6.118l4.167,14.816c-.201-.091-.381-.224-.519-.397Zm2.478-.021c-.145.182-.329.319-.533.413l4.166-14.812h6.116c-.016.573-.218,1.144-.606,1.622l-9.142,12.776Z"/>
</svg>
