<?xml version="1.0" encoding="UTF-8"?>
<svg xmlns="http://www.w3.org/2000/svg" id="Layer_1" data-name="Layer 1" viewBox="0 0 24 24">
  <path d="m19.5,4H4.5C2.019,4,0,6.019,0,8.5v4c0,2.481,2.019,4.5,4.5,4.5h15c2.481,0,4.5-2.019,4.5-4.5v-4c0-2.481-2.019-4.5-4.5-4.5Zm3.5,8.5c0,1.93-1.57,3.5-3.5,3.5H4.5c-1.93,0-3.5-1.57-3.5-3.5v-4c0-1.93,1.57-3.5,3.5-3.5h15c1.93,0,3.5,1.57,3.5,3.5v4Zm-16-2c0,.276-.224.5-.5.5h-2c-.276,0-.5-.224-.5-.5s.224-.5.5-.5h2c.276,0,.5.224.5.5Zm2,0c0-.276.224-.5.5-.5h2c.276,0,.5.224.5.5s-.224.5-.5.5h-2c-.276,0-.5-.224-.5-.5Zm11,0c0,.276-.224.5-.5.5h-5c-.276,0-.5-.224-.5-.5s.224-.5.5-.5h5c.276,0,.5.224.5.5Zm-13-3c0,.276-.224.5-.5.5h-2c-.276,0-.5-.224-.5-.5s.224-.5.5-.5h2c.276,0,.5.224.5.5Zm2,0c0-.276.224-.5.5-.5h2c.276,0,.5.224.5.5s-.224.5-.5.5h-2c-.276,0-.5-.224-.5-.5Zm11,0c0,.276-.224.5-.5.5h-5c-.276,0-.5-.224-.5-.5s.224-.5.5-.5h5c.276,0,.5.224.5.5Zm-4,6c0,.276-.224.5-.5.5h-7c-.276,0-.5-.224-.5-.5s.224-.5.5-.5h7c.276,0,.5.224.5.5Zm4,0c0,.276-.224.5-.5.5h-1c-.276,0-.5-.224-.5-.5s.224-.5.5-.5h1c.276,0,.5.224.5.5Zm-14,0c0,.276-.224.5-.5.5h-1c-.276,0-.5-.224-.5-.5s.224-.5.5-.5h1c.276,0,.5.224.5.5Zm10.85,5.644c.197.194.199.511.006.707l-3.515,3.569c-.386.386-.892.579-1.397.579s-1.008-.192-1.392-.576l-3.414-3.578c-.19-.199-.183-.516.017-.706.199-.191.517-.185.707.017l3.405,3.569c.37.369.985.37,1.364-.009l3.512-3.566c.193-.198.51-.199.707-.006Z"/>
</svg>
