<?xml version="1.0" encoding="UTF-8"?>
<svg xmlns="http://www.w3.org/2000/svg" id="Layer_1" data-name="Layer 1" viewBox="0 0 24 24">
  <path d="m19.5,1H4.5C2.019,1,0,3.019,0,5.5v9c0,2.481,2.019,4.5,4.5,4.5h7v3h-5c-.276,0-.5.224-.5.5s.224.5.5.5h11c.276,0,.5-.224.5-.5s-.224-.5-.5-.5h-5v-3h7c2.481,0,4.5-2.019,4.5-4.5V5.5c0-2.481-2.019-4.5-4.5-4.5Zm3.5,13.5c0,1.93-1.57,3.5-3.5,3.5H4.5c-1.93,0-3.5-1.57-3.5-3.5V5.5c0-1.93,1.57-3.5,3.5-3.5h15c1.93,0,3.5,1.57,3.5,3.5v9Zm-8.64-6.143l-1.646,1.646,1.646,1.646c.195.195.195.512,0,.707-.098.098-.226.146-.354.146s-.256-.049-.354-.146l-1.646-1.646-1.646,1.646c-.098.098-.226.146-.354.146s-.256-.049-.354-.146c-.195-.195-.195-.512,0-.707l1.646-1.646-1.646-1.646c-.195-.195-.195-.512,0-.707s.512-.195.707,0l1.646,1.646,1.646-1.646c.195-.195.512-.195.707,0s.195.512,0,.707Zm6.992,0l-1.646,1.646,1.646,1.646c.195.195.195.512,0,.707-.098.098-.226.146-.354.146s-.256-.049-.354-.146l-1.646-1.646-1.646,1.646c-.098.098-.226.146-.354.146s-.256-.049-.354-.146c-.195-.195-.195-.512,0-.707l1.646-1.646-1.646-1.646c-.195-.195-.195-.512,0-.707s.512-.195.707,0l1.646,1.646,1.646-1.646c.195-.195.512-.195.707,0s.195.512,0,.707Zm-13.991-.007l-1.646,1.646,1.646,1.646c.195.195.195.512,0,.707-.098.098-.226.146-.354.146s-.256-.049-.354-.146l-1.646-1.646-1.646,1.646c-.098.098-.226.146-.354.146s-.256-.049-.354-.146c-.195-.195-.195-.512,0-.707l1.646-1.646-1.646-1.646c-.195-.195-.195-.512,0-.707s.512-.195.707,0l1.646,1.646,1.646-1.646c.195-.195.512-.195.707,0s.195.512,0,.707Z"/>
</svg>
