<?xml version="1.0" encoding="UTF-8"?>
<svg xmlns="http://www.w3.org/2000/svg" id="Layer_1" data-name="Layer 1" viewBox="0 0 24 24">
  <path d="m21.5,8h-.5v-.5c0-1.378-1.121-2.5-2.5-2.5h-.5v-.5c0-1.378-1.121-2.5-2.5-2.5h-7c-1.378,0-2.5,1.122-2.5,2.5v.5h-.5c-1.378,0-2.5,1.122-2.5,2.5v.5h-.5c-1.378,0-2.5,1.122-2.5,2.5v7c0,2.481,2.019,4.5,4.5,4.5h15c2.481,0,4.5-2.019,4.5-4.5v-7c0-1.378-1.121-2.5-2.5-2.5Zm1.5,9.5c0,1.758-1.308,3.204-3,3.449v-3.449c0-.276-.224-.5-.5-.5s-.5.224-.5.5v3.5h-2v-3.5c0-.276-.224-.5-.5-.5s-.5.224-.5.5v3.5h-2v-3.5c0-.276-.224-.5-.5-.5s-.5.224-.5.5v3.5h-2v-3.5c0-.276-.224-.5-.5-.5s-.5.224-.5.5v3.5h-2v-3.5c0-.276-.224-.5-.5-.5s-.5.224-.5.5v3.5h-2v-3.5c0-.276-.224-.5-.5-.5s-.5.224-.5.5v3.449c-1.692-.245-3-1.691-3-3.449v-7c0-.827.673-1.5,1.5-1.5h1c.276,0,.5-.224.5-.5v-1c0-.827.673-1.5,1.5-1.5h1c.276,0,.5-.224.5-.5v-1c0-.827.673-1.5,1.5-1.5h7c.827,0,1.5.673,1.5,1.5v1c0,.276.224.5.5.5h1c.827,0,1.5.673,1.5,1.5v1c0,.276.224.5.5.5h1c.827,0,1.5.673,1.5,1.5v7Z"/>
</svg>
