<?xml version="1.0" encoding="UTF-8"?>
<svg xmlns="http://www.w3.org/2000/svg" id="Layer_1" data-name="Layer 1" viewBox="0 0 24 24">
  <path d="m23.88,13.175l-1.381-9.333c-.323-2.19-2.237-3.842-4.451-3.842h-1.548c-.276,0-.5.224-.5.5s.224.5.5.5h1.548c1.722,0,3.211,1.285,3.463,2.988l1.333,9.012h-5.344c-1.557,0-2.931.795-3.739,2h-3.522c-.808-1.205-2.182-2-3.739-2H1.156L2.489,3.988c.252-1.704,1.741-2.988,3.463-2.988h1.548c.276,0,.5-.224.5-.5s-.224-.5-.5-.5h-1.548C3.738,0,1.824,1.652,1.501,3.842L.12,13.175c-.075.087-.12,1.138-.12,1.437v4.888c0,2.481,2.019,4.5,4.5,4.5h2c2.481,0,4.5-2.019,4.5-4.5v-2c0-.526-.091-1.031-.257-1.5h2.515c-.166.469-.257.974-.257,1.5v2c0,2.481,2.019,4.5,4.5,4.5h2c2.481,0,4.5-2.019,4.5-4.5v-4.888c0-.299-.045-1.349-.12-1.437Zm-13.88,6.325c0,1.93-1.57,3.5-3.5,3.5h-2c-1.93,0-3.5-1.57-3.5-3.5v-4.888c0-.203.009-.407.025-.612h5.475c1.93,0,3.5,1.57,3.5,3.5v2Zm13,0c0,1.93-1.57,3.5-3.5,3.5h-2c-1.93,0-3.5-1.57-3.5-3.5v-2c0-1.93,1.57-3.5,3.5-3.5h5.475c.017.204.025.409.025.612v4.888Z"/>
</svg>
