<?xml version="1.0" encoding="UTF-8"?>
<svg xmlns="http://www.w3.org/2000/svg" id="Layer_1" data-name="Layer 1" viewBox="0 0 24 24">
  <path d="m16.864,18.585c.189.201.18.518-.022.707-1.859,1.746-4.29,2.708-6.842,2.708C4.486,22,0,17.514,0,12S4.486,2,10,2c1.273,0,2.512.236,3.685.701.257.102.382.393.28.649-.103.256-.394.381-.649.28-1.054-.418-2.169-.63-3.315-.63C5.038,3,1,7.038,1,12s4.038,9,9,9c2.297,0,4.484-.865,6.158-2.437.199-.188.518-.18.706.022Zm-7.364-12.085v5.293l-2.854,2.854c-.195.195-.195.512,0,.707.098.098.226.146.354.146s.256-.049.354-.146l3-3c.094-.094.146-.221.146-.354v-5.5c0-.276-.224-.5-.5-.5s-.5.224-.5.5Zm14.5,1c0,2.31-1.756,4.197-4,4.449v11.551c0,.276-.224.5-.5.5s-.5-.224-.5-.5v-11.551c-2.244-.252-4-2.139-4-4.449,0-2.226,1.716-7.5,4.422-7.5,2.754,0,4.578,5.337,4.578,7.5Zm-1,0c0-2.043-1.796-6.5-3.578-6.5-1.768,0-3.422,4.469-3.422,6.5,0,1.93,1.57,3.5,3.5,3.5s3.5-1.57,3.5-3.5Z"/>
</svg>
