<?xml version="1.0" encoding="UTF-8"?>
<svg xmlns="http://www.w3.org/2000/svg" id="Layer_1" data-name="Layer 1" viewBox="0 0 24 24">
  <path d="m6,.5c0-.276.224-.5.5-.5h11c.276,0,.5.224.5.5s-.224.5-.5.5H6.5c-.276,0-.5-.224-.5-.5Zm-2.5,5.5h17c.276,0,.5-.224.5-.5s-.224-.5-.5-.5H3.5c-.276,0-.5.224-.5.5s.224.5.5.5Zm20.5,11.5c0,3.584-2.916,6.5-6.5,6.5s-6.5-2.916-6.5-6.5,2.916-6.5,6.5-6.5,6.5,2.916,6.5,6.5Zm-1,0c0-3.032-2.467-5.5-5.5-5.5s-5.5,2.468-5.5,5.5,2.467,5.5,5.5,5.5,5.5-2.468,5.5-5.5Zm-2.5-.5h-2.5v-2.5c0-.276-.224-.5-.5-.5s-.5.224-.5.5v2.5h-2.5c-.276,0-.5.224-.5.5s.224.5.5.5h2.5v2.5c0,.276.224.5.5.5s.5-.224.5-.5v-2.5h2.5c.276,0,.5-.224.5-.5s-.224-.5-.5-.5Zm-10,6h-6c-1.93,0-3.5-1.57-3.5-3.5v-5c0-1.93,1.57-3.5,3.5-3.5h7c.276,0,.5-.224.5-.5s-.224-.5-.5-.5h-7c-2.481,0-4.5,2.019-4.5,4.5v5c0,2.481,2.019,4.5,4.5,4.5h6c.276,0,.5-.224.5-.5s-.224-.5-.5-.5Z"/>
</svg>
