<?xml version="1.0" encoding="UTF-8"?>
<svg xmlns="http://www.w3.org/2000/svg" id="Layer_1" data-name="Layer 1" viewBox="0 0 24 24">
  <path d="m4.5,5c1.379,0,2.5-1.121,2.5-2.5S5.879,0,4.5,0s-2.5,1.121-2.5,2.5,1.121,2.5,2.5,2.5Zm0-4c.827,0,1.5.673,1.5,1.5s-.673,1.5-1.5,1.5-1.5-.673-1.5-1.5.673-1.5,1.5-1.5Zm10.5,7c-1.379,0-2.5,1.121-2.5,2.5s1.121,2.5,2.5,2.5,2.5-1.121,2.5-2.5-1.121-2.5-2.5-2.5Zm0,4c-.827,0-1.5-.673-1.5-1.5s.673-1.5,1.5-1.5,1.5.673,1.5,1.5-.673,1.5-1.5,1.5Zm0,2c-1.654,0-3,1.346-3,3v1.5c0,.815.397,1.533,1.002,1.989,0,.004-.002.007-.002.011v3c0,.276.224.5.5.5s.5-.224.5-.5v-2.551c.162.033.329.051.5.051h1c.171,0,.338-.018.5-.051v2.551c0,.276.224.5.5.5s.5-.224.5-.5v-3s-.002-.007-.002-.011c.605-.457,1.002-1.174,1.002-1.989v-1.5c0-1.654-1.346-3-3-3Zm2,4.5c0,.827-.673,1.5-1.5,1.5h-1c-.827,0-1.5-.673-1.5-1.5v-1.5c0-1.103.897-2,2-2s2,.897,2,2v1.5Zm4-9.5c1.379,0,2.5-1.121,2.5-2.5s-1.121-2.5-2.5-2.5-2.5,1.121-2.5,2.5,1.121,2.5,2.5,2.5Zm0-4c.827,0,1.5.673,1.5,1.5s-.673,1.5-1.5,1.5-1.5-.673-1.5-1.5.673-1.5,1.5-1.5Zm3,8v1.5c0,.815-.397,1.533-1.002,1.989,0,.004.002.007.002.011v3c0,.276-.224.5-.5.5s-.5-.224-.5-.5v-2.551c-.162.033-.329.051-.5.051h-1c-.276,0-.5-.224-.5-.5s.224-.5.5-.5h1c.827,0,1.5-.673,1.5-1.5v-1.5c0-1.103-.897-2-2-2-.438,0-.852.138-1.199.399-.219.166-.535.123-.7-.099-.166-.221-.122-.534.099-.7.522-.393,1.145-.601,1.801-.601,1.654,0,3,1.346,3,3Zm-11.5-6c.276,0,.5-.224.5-.5v-1.291l3.435-1.72c.354-.243.565-.656.565-1.104s-.211-.86-.565-1.104c-.025-.018-2.646-1.181-2.806-1.229-.381-.115-.783-.043-1.106.196-.327.243-.522.631-.522,1.037v4.713H3.5c-1.93,0-3.5,1.57-3.5,3.5v4c0,1.391.822,2.585,2,3.149v6.851c0,.276.224.5.5.5s.5-.224.5-.5v-6.551c.165.024.329.051.5.051h2.5v6.5c0,.276.224.5.5.5s.5-.224.5-.5V7h5.5Zm.5-5.713c0-.132.083-.207.119-.234.029-.021.197-.049.223-.041.119.035.238.079.355.132l2.197.983c.066.06.105.154.105.259,0,.118-.049.223-.072.244l-2.928,1.462V1.287Zm-7,14.713h-2.5c-1.379,0-2.5-1.121-2.5-2.5v-4c0-1.379,1.121-2.5,2.5-2.5h2.5v9Z"/>
</svg>
