<?xml version="1.0" encoding="UTF-8"?>
<svg xmlns="http://www.w3.org/2000/svg" id="Layer_1" data-name="Layer 1" viewBox="0 0 24 24">
  <path d="m13.875,7.854l-4.554,4.554c-.481.481-1.12.723-1.759.723-.62,0-1.24-.228-1.718-.684l-2.69-2.572c-.199-.191-.206-.507-.016-.707.189-.198.508-.207.707-.016l2.69,2.572c.578.553,1.51.543,2.078-.023l4.554-4.554c.195-.195.512-.195.707,0s.195.512,0,.707Zm5.625-1.854h-2.5v-.5c0-2.481-2.019-4.5-4.5-4.5H4.5C2.019,1,0,3.019,0,5.5v10c0,1.499.952,2.771,2.28,3.268-.179.387-.28.802-.28,1.232,0,1.654,1.346,3,3,3s3-1.346,3-3c0-.345-.064-.68-.18-1h8.359c-.116.32-.18.655-.18,1,0,1.654,1.346,3,3,3s3-1.346,3-3c0-.43-.101-.845-.28-1.232,1.328-.498,2.28-1.769,2.28-3.268v-5c0-2.481-2.019-4.5-4.5-4.5Zm0,1c1.93,0,3.5,1.57,3.5,3.5v1.5h-6v-5h2.5ZM1,15.5V5.5c0-1.93,1.57-3.5,3.5-3.5h8c1.93,0,3.5,1.57,3.5,3.5v12.5H3.5c-1.379,0-2.5-1.121-2.5-2.5Zm6,4.5c0,1.103-.897,2-2,2s-2-.897-2-2c0-.362.122-.705.314-1.019.063.003.122.019.186.019h3.196c.185.309.304.645.304,1Zm14,0c0,1.103-.897,2-2,2s-2-.897-2-2c0-.355.119-.691.304-1h3.196c.064,0,.123-.015.186-.019.192.314.314.657.314,1.019Zm-.5-2h-3.5v-5h6v2.5c0,1.379-1.121,2.5-2.5,2.5Z"/>
</svg>
