<?xml version="1.0" encoding="UTF-8"?>
<svg xmlns="http://www.w3.org/2000/svg" id="Layer_1" data-name="Layer 1" viewBox="0 0 24 24">
  <path d="m6.648,8.001c-.757,0-1.281.587-1.385,1.167l-1.253,6.241c-.061.306.172.591.484.591.235,0,.437-.166.484-.396l.325-1.604h2.66l.331,1.605c.047.23.249.394.484.394h.007c.313,0,.547-.287.484-.593l-1.276-6.213c-.12-.668-.589-1.192-1.346-1.192Zm-1.142,4.999l.741-3.657c.019-.107.146-.342.4-.342.088,0,.295,0,.366.393l.743,3.606h-2.251Zm5.494-2.411v2.81c0,.766.53,1.478,1.289,1.585.94.133,1.711-.627,1.711-1.527v-.458h-1.013c-.269,0-.487-.218-.487-.487v-.025c0-.269.218-.487.487-.487h1.013c.552,0,1,.448,1,1v.6h-.011c-.061,1.424-1.305,2.542-2.779,2.377-1.286-.145-2.21-1.324-2.21-2.619v-2.714c0-1.325.964-2.53,2.284-2.641,1.266-.106,2.357.732,2.643,1.888.076.307-.159.603-.474.603h-.028c-.227,0-.417-.158-.475-.378-.187-.707-.877-1.21-1.665-1.1-.755.105-1.285.811-1.285,1.574Zm13,1.411c0,6.617-5.383,12-12,12S0,18.617,0,12,5.383,0,12,0c3.49,0,6.719,1.491,9,4.091V.5c0-.276.224-.5.5-.5s.5.224.5.5v4c0,.827-.673,1.5-1.5,1.5h-4c-.276,0-.5-.224-.5-.5s.224-.5.5-.5h3.966c-2.1-2.54-5.156-4-8.466-4C5.935,1,1,5.935,1,12s4.935,11,11,11,11-4.935,11-11c0-.276.224-.5.5-.5s.5.224.5.5Zm-7-2.5v2h2.5c.276,0,.5.224.5.5s-.224.5-.5.5h-2.5v2c0,.276.224.5.5.5h2c.276,0,.5.224.5.5s-.224.5-.5.5h-2c-.827,0-1.5-.673-1.5-1.5v-5c0-.827.673-1.5,1.5-1.5h2c.276,0,.5.224.5.5s-.224.5-.5.5h-2c-.276,0-.5.224-.5.5Z"/>
</svg>
