<?xml version="1.0" encoding="UTF-8"?>
<svg xmlns="http://www.w3.org/2000/svg" id="Layer_1" data-name="Layer 1" viewBox="0 0 24 24">
  <path d="m17.5,0H6.5C4.019,0,2,2.019,2,4.5v16c0,1.93,1.57,3.5,3.5,3.5h12c2.481,0,4.5-2.019,4.5-4.5V4.5c0-2.481-2.019-4.5-4.5-4.5Zm3.5,4.5v12.5H7V1h10.5c1.93,0,3.5,1.57,3.5,3.5Zm-18,0c0-1.758,1.308-3.204,3-3.449v15.949h-.5c-.98,0-1.864.407-2.5,1.058V4.5Zm14.5,18.5H5.5c-1.379,0-2.5-1.122-2.5-2.5s1.121-2.5,2.5-2.5h15.5v1.5c0,1.93-1.57,3.5-3.5,3.5Zm-6.354-13.146c-.195-.195-.195-.512,0-.707s.512-.195.707,0l2.146,2.146,2.146-2.146c.195-.195.512-.195.707,0s.195.512,0,.707l-2.146,2.146,2.146,2.146c.195.195.195.512,0,.707-.098.098-.226.146-.354.146s-.256-.049-.354-.146l-2.146-2.146-2.146,2.146c-.098.098-.226.146-.354.146s-.256-.049-.354-.146c-.195-.195-.195-.512,0-.707l2.146-2.146-2.146-2.146Zm.021-4.632c-.199-.191-.205-.508-.014-.707.193-.198.509-.204.707-.013l1.378,1.328c.25.235.643.229.889-.017l2.983-2.983c.195-.195.512-.195.707,0s.195.512,0,.707l-2.983,2.983c-.321.322-.74.483-1.159.483-.403,0-.807-.149-1.126-.449l-1.382-1.333Z"/>
</svg>
