<?xml version="1.0" encoding="UTF-8"?>
<svg xmlns="http://www.w3.org/2000/svg" id="Layer_1" data-name="Layer 1" viewBox="0 0 24 24">
  <path d="m16.5,0H7.5C5.019,0,3,2.019,3,4.5v15c0,2.481,2.019,4.5,4.5,4.5h9c2.481,0,4.5-2.019,4.5-4.5V4.5c0-2.481-2.019-4.5-4.5-4.5Zm3.5,19.5c0,1.93-1.57,3.5-3.5,3.5H7.5c-1.93,0-3.5-1.57-3.5-3.5V4.5c0-1.93,1.57-3.5,3.5-3.5h9c1.93,0,3.5,1.57,3.5,3.5v15Zm-6.145-10.5c-.77,0-1.431.328-1.855.858-.424-.53-1.086-.858-1.856-.858-1.299,0-2.355,1.124-2.355,2.504,0,1.797,2.164,3.739,3.455,4.737.223.172.49.258.757.258s.534-.086.757-.258c1.291-.998,3.455-2.94,3.455-4.737,0-1.381-1.057-2.504-2.356-2.504Zm-1.709,6.45c-.087.067-.206.066-.292,0-1.919-1.484-3.065-2.959-3.065-3.946,0-.83.608-1.504,1.355-1.504.798,0,1.356.544,1.356,1.322,0,.044.017.197.017.197,0,.276.224.5.5.5s.5-.224.5-.5c0,0-.004-.311-.01-.344.066-.699.602-1.175,1.349-1.175s1.356.675,1.356,1.504c0,.986-1.146,2.461-3.065,3.945Z"/>
</svg>
