<?xml version="1.0" encoding="UTF-8"?>
<svg xmlns="http://www.w3.org/2000/svg" id="Layer_1" data-name="Layer 1" viewBox="0 0 24 24">
  <path d="m22.183,2.828c.483-.25.817-.748.817-1.328,0-.827-.673-1.5-1.5-1.5H2.5c-.827,0-1.5.673-1.5,1.5,0,.58.334,1.078.817,1.328C.661,4.983,0,7.489,0,9.81c0,4.32,2.752,9.484,3.935,11.504.971,1.657,2.783,2.687,4.729,2.687h6.671c1.946,0,3.758-1.029,4.73-2.687,1.183-2.02,3.935-7.184,3.935-11.504,0-2.321-.661-4.827-1.817-6.982ZM2.5,1h19c.276,0,.5.224.5.5s-.224.5-.5.5h-5.5c-1.103,0-2,.897-2,2v4.5c0,.276-.224.5-.5.5s-.5-.224-.5-.5v-4.5c0-1.103-.897-2-2-2s-2,.897-2,2v8.5c0,.276-.224.5-.5.5s-.5-.224-.5-.5V4c0-1.103-.897-2-2-2h-3.5c-.276,0-.5-.224-.5-.5s.224-.5.5-.5Zm16.703,19.808c-.792,1.353-2.274,2.192-3.867,2.192h-6.671c-1.593,0-3.075-.84-3.867-2.192-2.378-4.06-3.798-8.171-3.798-10.998,0-2.235.697-4.756,1.863-6.81h3.137c.551,0,1,.449,1,1v8.5c0,.827.673,1.5,1.5,1.5s1.5-.673,1.5-1.5V4c0-.551.449-1,1-1s1,.449,1,1v4.5c0,.827.673,1.5,1.5,1.5s1.5-.673,1.5-1.5v-4.5c0-.551.449-1,1-1h5.137c1.167,2.054,1.863,4.575,1.863,6.81,0,2.827-1.42,6.938-3.797,10.998Z"/>
</svg>
