<?xml version="1.0" encoding="UTF-8"?>
<svg xmlns="http://www.w3.org/2000/svg" id="Layer_1" data-name="Layer 1" viewBox="0 0 24 24">
  <path d="m9,14c0,.552-.448,1-1,1s-1-.448-1-1,.448-1,1-1,1,.448,1,1Zm3,3c-.552,0-1,.448-1,1s.448,1,1,1,1-.448,1-1-.448-1-1-1Zm-4,0c-.552,0-1,.448-1,1s.448,1,1,1,1-.448,1-1-.448-1-1-1Zm14-8.508v11.009c0,2.481-2.019,4.499-4.5,4.499H6.5c-2.481,0-4.5-2.018-4.5-4.499v-11.009C.516,7.45-.238,5.666.069,3.866.447,1.662,2.494,0,4.83,0h14.34c2.336,0,4.383,1.662,4.761,3.866.308,1.799-.446,3.584-1.931,4.625Zm.944-4.457c-.296-1.73-1.919-3.035-3.774-3.035H4.83c-1.855,0-3.479,1.305-3.774,3.035-.259,1.511.396,2.953,1.707,3.762.147.091.237.252.237.426v11.278c0,1.929,1.57,3.499,3.5,3.499h11c1.93,0,3.5-1.57,3.5-3.499v-11.278c0-.173.09-.334.237-.426,1.312-.809,1.966-2.25,1.707-3.762Z"/>
</svg>
