<?xml version="1.0" encoding="UTF-8"?>
<svg xmlns="http://www.w3.org/2000/svg" id="Layer_1" data-name="Layer 1" viewBox="0 0 24 24">
  <path d="m20,8c2.206,0,4-1.794,4-4s-1.794-4-4-4-4,1.794-4,4,1.794,4,4,4Zm0-7c1.654,0,3,1.346,3,3s-1.346,3-3,3-3-1.346-3-3,1.346-3,3-3Zm-.839,10.87c-.433-.812-1.241-1.297-2.161-1.297s-1.729.485-2.161,1.297l-4.548,8.528c-.408.766-.387,1.667.061,2.411.446.745,1.231,1.19,2.101,1.19h9.096c.869,0,1.654-.445,2.101-1.19.447-.744.469-1.646.061-2.411l-4.548-8.528Zm3.63,10.426c-.265.44-.729.704-1.243.704h-9.096c-.515,0-.979-.264-1.243-.704s-.277-.974-.035-1.427l4.548-8.528c.256-.48.733-.768,1.278-.768s1.022.287,1.278.768l4.548,8.528c.242.453.229.986-.035,1.427ZM9.976,6c-.534,0-1.002.281-1.253.752L1.17,20.912c-.237.444-.224.968.035,1.399.259.431.714.688,1.217.688h5.078c.276,0,.5.224.5.5s-.224.5-.5.5H2.422c-.857,0-1.633-.438-2.074-1.174s-.464-1.627-.061-2.385L7.84,6.281c.428-.802,1.227-1.281,2.136-1.281s1.707.479,2.135,1.281l1.591,2.983c.13.244.037.547-.206.677-.244.128-.547.038-.677-.206l-1.591-2.983c-.251-.471-.719-.752-1.252-.752Z"/>
</svg>
