<?xml version="1.0" encoding="UTF-8"?>
<svg xmlns="http://www.w3.org/2000/svg" id="Layer_1" data-name="Layer 1" viewBox="0 0 24 24">
  <path d="m22.274.706c-1.34-.938-3.209-.939-4.549,0-1.569,1.101-2.15,3.093-1.413,4.844.255.607.137,1.278-.308,1.713l-1.829,1.849-1.101-1.101c-1.305-1.305-3.58-1.305-4.885,0-.652.652-1.012,1.52-1.012,2.443,0,.289.047.569.116.842-1.14-.285-2.394.005-3.283.894-1.347,1.347-1.347,3.539,0,4.885l1.103,1.103L.146,23.146c-.195.195-.195.512,0,.707.098.098.226.146.354.146s.256-.049.354-.146l4.968-4.968,1.103,1.103c.652.652,1.52,1.012,2.442,1.012s1.79-.359,2.442-1.012,1.012-1.52,1.012-2.443c0-.289-.047-.569-.116-.842.276.069.556.116.839.116.885,0,1.77-.336,2.443-1.01,1.347-1.347,1.347-3.539,0-4.885l-1.105-1.105,1.827-1.847c.733-.718.939-1.821.524-2.809-.553-1.314-.115-2.81,1.065-3.638,1.002-.701,2.4-.701,3.4,0,.753.528,1.21,1.313,1.288,2.212.077.886-.238,1.755-.867,2.384-.195.195-.195.512,0,.707s.512.195.707,0c.838-.838,1.26-1.996,1.156-3.178-.103-1.181-.726-2.253-1.71-2.944Zm-10.453,16.839c0,.656-.255,1.272-.719,1.736-.928.927-2.543.927-3.471,0l-2.913-2.913c-.956-.957-.956-2.514,0-3.471.479-.478,1.107-.717,1.736-.717s1.257.239,1.735.717l2.912,2.912c.464.464.719,1.08.719,1.736Zm3.46-2.443c-.956.955-2.514.957-3.472,0l-2.912-2.912c-.464-.464-.719-1.08-.719-1.736s.255-1.272.719-1.736c.928-.927,2.543-.927,3.471,0l1.458,1.457s0,0,0,0c0,0,0,0,0,0l1.454,1.454c.956.957.956,2.514,0,3.471Z"/>
</svg>
