<?xml version="1.0" encoding="UTF-8"?>
<svg xmlns="http://www.w3.org/2000/svg" id="Layer_1" data-name="Layer 1" viewBox="0 0 24 24">
  <path d="m23.448,1.577l-1.025-1.026c-.602-.601-1.534-.723-2.271-.299l-2.98,1.72c-.723.417-1.172,1.194-1.172,2.028v3.293l-5.27,5.27c-1.174-.826-2.807-.724-3.855.322L.954,18.777c-1.137,1.134-1.272,2.941-.308,4.116.541.658,1.354,1.106,2.332,1.106.795,0,1.563-.315,2.126-.878l6.021-5.993c.568-.566.881-1.319.882-2.121,0-.635-.203-1.235-.567-1.741l5.267-5.267h3.293c.834,0,1.611-.449,2.029-1.172l1.718-2.981c.425-.735.302-1.669-.299-2.27Zm-13.028,14.843l-6.021,5.994c-.399.398-.949.603-1.52.584-.574-.029-1.092-.291-1.459-.739-.641-.781-.535-1.999.241-2.772l5.92-5.893s0,0,0,0c.392-.39.906-.585,1.42-.585s1.028.195,1.42.585c.379.379.587.881.587,1.415,0,.533-.209,1.035-.587,1.412ZM22.881,3.347l-1.718,2.981c-.239.414-.686.672-1.163.672h-3v-3c0-.478.258-.924.672-1.163l2.979-1.719c.346-.198.781-.142,1.064.14l1.025,1.026c.281.281.339.719.14,1.062Z"/>
</svg>
