<?xml version="1.0" encoding="UTF-8"?>
<svg xmlns="http://www.w3.org/2000/svg" id="Layer_1" data-name="Layer 1" viewBox="0 0 24 24">
  <path d="m19,10.5c0,.276.224.5.5.5s.5-.224.5-.5v-.515c0-1.737-.677-3.369-1.904-4.596l-3.484-3.485c-1.229-1.228-2.861-1.904-4.597-1.904h-5.515C2.019,0,0,2.019,0,4.5v15c0,2.481,2.019,4.5,4.5,4.5h13c.276,0,.5-.224.5-.5s-.224-.5-.5-.5H4.5c-1.93,0-3.5-1.57-3.5-3.5V4.5c0-1.93,1.57-3.5,3.5-3.5h5.515c.335,0,.663.038.985.096v5.404c0,1.378,1.122,2.5,2.5,2.5h5.404c.058.323.096.651.096.985v.515Zm-5.5-2.5c-.827,0-1.5-.673-1.5-1.5V1.379c.704.273,1.354.682,1.904,1.231l3.484,3.485c.55.55.959,1.199,1.232,1.904h-5.121Zm4.5,5.5v7c0,.276-.224.5-.5.5s-.5-.224-.5-.5v-7c0-.276.224-.5.5-.5s.5.224.5.5Zm-3.29.619c-.094-.459-.477-1.119-1.214-1.119s-1.126.689-1.207,1.088l-1.279,6.308c-.061.302.17.583.48.585h.018c.235.001.438-.163.485-.392l.323-1.589h2.376l.333,1.61c.047.226.247.389.48.39.312.002.546-.282.485-.585l-1.28-6.296Zm-2.19,3.881l.757-3.715c.024-.118.085-.284.219-.284s.189.132.227.316l.763,3.683h-1.965Zm8.967-5h-1.487c-.552,0-1,.449-1,1v6c0,.551.448,1,1,1h1.5c1.379,0,2.5-1.122,2.5-2.5v-2.988c0-1.385-1.127-2.512-2.513-2.512Zm1.513,5.5c0,.827-.673,1.5-1.5,1.5h-1.5v-6h1.487c.834,0,1.513.678,1.513,1.512v2.988Zm-15-5.5h-1c-.551,0-1,.449-1,1v6.5c0,.276.224.5.5.5s.5-.224.5-.5v-2.5h1c1.378,0,2.5-1.122,2.5-2.5s-1.122-2.5-2.5-2.5Zm0,4h-1v-3h1c.827,0,1.5.673,1.5,1.5s-.673,1.5-1.5,1.5Z"/>
</svg>
