<?xml version="1.0" encoding="UTF-8"?>
<svg xmlns="http://www.w3.org/2000/svg" id="Layer_1" data-name="Layer 1" viewBox="0 0 24 24">
  <path d="m22,20.5c0,1.93-1.57,3.5-3.5,3.5H4.41c-.99,0-1.856-.599-2.207-1.524s-.099-1.947.644-2.604l8.898-7.872L2.847,4.127c-.742-.655-.994-1.677-.644-2.603s1.217-1.524,2.207-1.524h14.09c1.93,0,3.5,1.57,3.5,3.5,0,.276-.224.5-.5.5s-.5-.224-.5-.5c0-1.378-1.121-2.5-2.5-2.5H4.41c-.692,0-1.111.454-1.272.878-.16.425-.147,1.042.371,1.5l9.322,8.247c.107.095.169.231.169.375s-.062.28-.169.375L3.509,20.621c-.519.459-.531,1.076-.371,1.501.161.424.58.878,1.272.878h14.09c1.379,0,2.5-1.121,2.5-2.5,0-.276.224-.5.5-.5s.5.224.5.5Z"/>
</svg>
