<?xml version="1.0" encoding="UTF-8"?>
<svg xmlns="http://www.w3.org/2000/svg" id="Layer_1" data-name="Layer 1" viewBox="0 0 24 24">
  <path d="m17.987,2.28C16.075.575,13.508-.234,10.937.062c-3.993.458-7.293,3.675-7.846,7.647-.421,3.014.678,6.01,2.939,8.013,1.252,1.109,1.97,2.725,1.97,4.431v.348c0,1.93,1.57,3.5,3.5,3.5h1c1.93,0,3.5-1.57,3.5-3.5v-.353c0-1.686.752-3.309,2.118-4.571,1.831-1.694,2.882-4.091,2.882-6.576,0-2.563-1.098-5.012-3.013-6.72Zm-2.987,18.22c0,1.378-1.121,2.5-2.5,2.5h-1c-1.379,0-2.5-1.122-2.5-2.5v-.348c0-.39-.041-.774-.104-1.152h6.213c-.066.378-.109.76-.109,1.147v.353Zm2.439-5.658c-.987.912-1.695,1.993-2.086,3.158h-6.691c-.374-1.161-1.047-2.21-1.969-3.027-2.01-1.78-2.986-4.444-2.612-7.126.491-3.528,3.422-6.384,6.969-6.792.323-.037.644-.055.962-.055,1.968,0,3.825.703,5.311,2.027,1.701,1.518,2.678,3.695,2.678,5.973,0,2.24-.909,4.315-2.561,5.842Zm-2.439-9.842h-.684c.021-.147.036-.297.036-.43,0-1.014-.825-1.839-1.84-1.839h0c-.49,0-.952.191-1.3.539-.348.348-.539.81-.539,1.301,0,.133.015.282.036.43h-.709c-1.103,0-2,.897-2,2v.694c-.143-.021-.287-.034-.416-.034-1.015,0-1.84.825-1.84,1.84s.825,1.84,1.839,1.84c.13,0,.274-.014.417-.034v.694c0,1.103.897,2,2,2h5c1.103,0,2-.897,2-2v-1.487c0-.158-.075-.308-.202-.402s-.292-.12-.443-.077c-.487.148-.914.216-1.104.216-.413,0-.75-.336-.75-.75s.337-.75.75-.75c.188,0,.614.067,1.105.216.149.047.315.018.442-.077.127-.094.202-.243.202-.401v-1.487c0-1.103-.897-2-2-2Zm1,2.844c-.291-.06-.556-.094-.75-.094-.965,0-1.75.785-1.75,1.75s.785,1.75,1.75,1.75c.196,0,.46-.034.75-.094v.844c0,.551-.448,1-1,1h-5c-.552,0-1-.449-1-1v-1.3c0-.153-.07-.298-.19-.393-.089-.07-.198-.107-.31-.107-.039,0-.078.004-.117.014-.386.093-.666.126-.8.126-.463,0-.839-.377-.839-.84s.377-.84.84-.84c.133,0,.412.033.799.126.149.036.306.001.427-.093.12-.095.19-.24.19-.393v-1.301c0-.551.448-1,1-1h1.316c.153,0,.298-.07.394-.191.095-.121.129-.278.093-.427-.096-.393-.13-.676-.13-.812,0-.224.088-.435.246-.593.159-.159.369-.246.593-.246h0c.463,0,.84.376.84.839,0,.134-.034.418-.129.813-.035.149,0,.306.094.426.095.12.239.19.393.19h1.29c.552,0,1,.449,1,1v.844Z"/>
</svg>
