<?xml version="1.0" encoding="UTF-8"?>
<svg xmlns="http://www.w3.org/2000/svg" id="Layer_1" data-name="Layer 1" viewBox="0 0 24 24">
  <path d="m10.939,18.561c.266.266.718.439,1.061.439.375-.006.773-.152,1.057-.436l4.293-4.207c.197-.193.2-.51.007-.707s-.51-.201-.707-.007l-4.15,4.067V.5c0-.276-.224-.5-.5-.5s-.5.224-.5.5v17.21l-4.15-4.067c-.198-.194-.515-.19-.707.007-.193.197-.19.514.007.707l4.29,4.204Z"/>
  <path d="m23.5,16h-1.5c-1.103,0-2,.897-2,2v2c0,1.654-1.346,3-3,3H7c-1.654,0-3-1.346-3-3v-2c0-1.103-.897-2-2-2H.5c-.276,0-.5.224-.5.5s.224.5.5.5h1.5c.551,0,1,.449,1,1v2c0,2.206,1.794,4,4,4h10c2.206,0,4-1.794,4-4v-2c0-.551.449-1,1-1h1.5c.276,0,.5-.224.5-.5s-.224-.5-.5-.5Z"/>
</svg>
