<?xml version="1.0" encoding="UTF-8"?>
<svg xmlns="http://www.w3.org/2000/svg" id="Layer_1" data-name="Layer 1" viewBox="0 0 24 24">
  <path d="m15,6.5c-1.654,0-3,1.346-3,3s1.346,3,3,3,3-1.346,3-3-1.346-3-3-3Zm0,5c-1.103,0-2-.897-2-2s.897-2,2-2,2,.897,2,2-.897,2-2,2Zm8.17,2.059c.083.392.008.793-.211,1.129-.219.335-.556.565-.947.648-.391.086-.793.009-1.129-.211l-.975-.635c-.342.336-.717.637-1.119.896-.084.055-.178.08-.271.08-.164,0-.324-.081-.42-.229-.15-.232-.083-.542.148-.691.448-.289.857-.638,1.216-1.037.167-.184.441-.219.645-.084l1.322.861c.113.073.246.1.377.07.13-.027.242-.104.315-.217.073-.111.098-.245.07-.376-.027-.13-.104-.242-.217-.315l-1.32-.86c-.206-.135-.284-.399-.183-.624.351-.777.528-1.606.528-2.465s-.178-1.688-.528-2.465c-.102-.225-.023-.489.183-.624l1.32-.86c.112-.073.189-.186.217-.315.027-.131.003-.265-.07-.376-.073-.112-.186-.189-.315-.217-.133-.03-.265-.003-.376.07l-1.323.861c-.203.135-.479.101-.645-.085-.923-1.027-2.18-1.709-3.538-1.919-.244-.038-.424-.247-.424-.494v-1.576c0-.275-.225-.5-.5-.5s-.5.225-.5.5v1.576c0,.247-.18.456-.424.494-1.358.21-2.615.892-3.539,1.919-.164.186-.438.221-.645.085l-1.322-.861c-.112-.073-.246-.101-.376-.07-.131.027-.243.104-.316.217-.15.23-.085.541.146.691l1.32.86c.231.15.297.461.146.692-.15.23-.46.296-.692.146l-1.32-.86c-.692-.451-.889-1.383-.438-2.075.219-.336.555-.566.947-.649.391-.085.792-.009,1.129.211l.974.635c.94-.924,2.126-1.567,3.409-1.849v-1.161c0-.827.673-1.5,1.5-1.5s1.5.673,1.5,1.5v1.161c1.283.281,2.469.925,3.408,1.849l.976-.635c.335-.219.737-.296,1.128-.211.392.083.729.313.947.648.219.336.294.737.211,1.129s-.313.729-.648.947l-.973.634c.3.79.451,1.622.451,2.478s-.151,1.688-.451,2.478l.973.634c.335.219.565.556.648.947Zm-10.171.441h-4.183s0,0,0,0l.587-3.329q.021-.451,0-.533c-.121-.444-.401-.793-.79-.984-.394-.193-.847-.201-1.286-.019-.252.106-.5.368-.675.711l-2.196,4.155h-1.456c-1.654,0-3,1.346-3,3v4c0,1.654,1.346,3,3,3h8.379c1.9,0,3.55-1.353,3.923-3.216l.64-3.196c.176-.887-.051-1.794-.623-2.49-.572-.697-1.418-1.098-2.319-1.098ZM1,21v-4c0-1.103.897-2,2-2h1v8h-1c-1.103,0-2-.897-2-2Zm13.961-3.608l-.64,3.196c-.279,1.397-1.517,2.412-2.942,2.412h-6.379v-8.161c.141-.091.259-.218.34-.372l2.2-4.161c.102-.199.178-.249.176-.251.164-.067.325-.069.456-.005.112.056.199.158.246.286l-.586,3.488h0c-.052.293.027.591.218.818s.47.357.766.357h4.183c.601,0,1.164.267,1.546.732.382.464.533,1.069.416,1.659Z"/>
</svg>
