<?xml version="1.0" encoding="UTF-8"?>
<svg xmlns="http://www.w3.org/2000/svg" id="Layer_1" data-name="Layer 1" viewBox="0 0 24 24">
  <path d="m23.854,4.646L19.354.146c-.195-.195-.512-.195-.707,0s-.195.512,0,.707l1.896,1.896-8.396,8.396c-.011.011-.021.023-.031.035l-2.01-2.01c-1.56-1.56-4.098-1.56-5.657,0l-3.716,3.716c-.975.975-.975,2.561,0,3.536l6.844,6.844c.487.487,1.127.731,1.768.731s1.281-.244,1.768-.731l3.716-3.716c1.56-1.56,1.56-4.098,0-5.657l-2.009-2.01c.012-.01.024-.02.035-.031L21.25,3.457l1.896,1.896c.098.098.226.146.354.146s.256-.049.354-.146c.195-.195.195-.512,0-.707Zm-9.732,14.198l-3.716,3.716c-.584.584-1.536.585-2.122,0l-.569-.569,4.138-4.138c.195-.195.195-.512,0-.707s-.512-.195-.707,0l-4.138,4.138-1.793-1.793,4.138-4.138c.195-.195.195-.512,0-.707s-.512-.195-.707,0l-4.138,4.138-1.793-1.793,4.138-4.138c.195-.195.195-.512,0-.707s-.512-.195-.707,0l-4.138,4.138-.569-.569c-.585-.585-.585-1.537,0-2.122l3.716-3.716c1.169-1.169,3.072-1.17,4.243,0l4.723,4.723c1.17,1.17,1.17,3.073,0,4.243Z"/>
</svg>
