<?xml version="1.0" encoding="UTF-8"?>
<svg xmlns="http://www.w3.org/2000/svg" id="Layer_1" data-name="Layer 1" viewBox="0 0 24 24">
  <path d="m20.999,23.467c.018.276-.19.514-.466.532-.264.022-.514-.19-.532-.466-.24-3.664-3.315-6.533-7.001-6.533h-2c-.34,0-.672.032-1,.079v6.421c0,.276-.224.5-.5.5s-.5-.224-.5-.5v-6.209c-2.741.817-4.805,3.267-5.001,6.242-.018.264-.237.467-.499.467-.011,0-.022,0-.033,0-.276-.019-.484-.256-.466-.532.276-4.187,3.789-7.467,7.999-7.467h2c4.21,0,7.724,3.28,7.999,7.467Zm-7.999-5.467c-.552,0-1,.448-1,1s.448,1,1,1,1-.448,1-1-.448-1-1-1Zm0,4c-.552,0-1,.448-1,1s.448,1,1,1,1-.448,1-1-.448-1-1-1ZM4,2.643c0-1.457,1.186-2.643,2.643-2.643.658,0,1.497.249,2.202.646.527-.204,1.824-.646,3.155-.646s2.628.442,3.155.646c.705-.397,1.544-.646,2.202-.646,1.457,0,2.643,1.186,2.643,2.643,0,.979-.541,1.873-1.411,2.33-.369.193-.589.533-.589.907v3.12c0,3.309-2.691,6-6,6s-6-2.691-6-6v-3.12c0-.374-.22-.714-.589-.907-.871-.457-1.411-1.351-1.411-2.33Zm13,6.357v-1H7v1c0,2.757,2.243,5,5,5s5-2.243,5-5ZM5,2.643c0,.607.336,1.161.876,1.445.693.363,1.124,1.051,1.124,1.792v1.12h10v-1.12c0-.741.431-1.429,1.124-1.792.54-.284.876-.838.876-1.445,0-.905-.737-1.643-1.643-1.643-.545,0-1.305.251-1.892.625-.14.09-.317.105-.471.035-.015-.006-1.518-.66-2.995-.66s-2.98.654-2.996.66c-.153.07-.329.055-.47-.035-.587-.374-1.347-.625-1.891-.625-.906,0-1.643.737-1.643,1.643Z"/>
</svg>
