<?xml version="1.0" encoding="UTF-8"?>
<svg xmlns="http://www.w3.org/2000/svg" id="Layer_1" data-name="Layer 1" viewBox="0 0 24 24">
  <path d="m4,14h6c1.654,0,3-1.346,3-3v-6c0-1.654-1.346-3-3-3h-6c-1.654,0-3,1.346-3,3v6c0,1.654,1.346,3,3,3ZM2,5c0-1.103.897-2,2-2h6c1.103,0,2,.897,2,2v6c0,1.103-.897,2-2,2h-6c-1.103,0-2-.897-2-2v-6Zm15.5,9h3c1.379,0,2.5-1.122,2.5-2.5v-3c0-1.378-1.121-2.5-2.5-2.5h-3c-1.379,0-2.5,1.122-2.5,2.5v3c0,1.378,1.121,2.5,2.5,2.5Zm-1.5-5.5c0-.827.673-1.5,1.5-1.5h3c.827,0,1.5.673,1.5,1.5v3c0,.827-.673,1.5-1.5,1.5h-3c-.827,0-1.5-.673-1.5-1.5v-3Zm4,7.5H4c-2.206,0-4,1.794-4,4s1.794,4,4,4h16c2.206,0,4-1.794,4-4s-1.794-4-4-4Zm0,7H4c-1.654,0-3-1.346-3-3s1.346-3,3-3h16c1.654,0,3,1.346,3,3s-1.346,3-3,3Zm-15-3c0,.552-.448,1-1,1s-1-.448-1-1,.448-1,1-1,1,.448,1,1Zm16,0c0,.552-.448,1-1,1s-1-.448-1-1,.448-1,1-1,1,.448,1,1Zm-11,0c0,.552-.448,1-1,1s-1-.448-1-1,.448-1,1-1,1,.448,1,1Zm6,0c0,.552-.448,1-1,1s-1-.448-1-1,.448-1,1-1,1,.448,1,1Z"/>
</svg>
