<?xml version="1.0" encoding="UTF-8"?>
<svg xmlns="http://www.w3.org/2000/svg" id="Layer_1" data-name="Layer 1" viewBox="0 0 24 24">
  <path d="m18.764,2.216L12.157.025c-.102-.033-.213-.033-.314,0l-6.607,2.19c-1.936.643-3.236,2.443-3.236,4.482v5.236c0,6.611,7.16,10.703,9.354,11.8,0,0,.421.266.649.266s.627-.214.627-.214c2.198-.884,9.37-4.352,9.37-11.852v-5.236c0-2.04-1.301-3.841-3.236-4.482Zm2.236,9.719c0,6.873-6.692,10.099-8.744,10.924l-.231.094-.224-.112c-2.065-1.032-8.801-4.868-8.801-10.905v-5.236c0-1.607,1.025-3.027,2.551-3.533l6.449-2.139,6.449,2.139c1.526.506,2.551,1.926,2.551,3.533v5.236Zm-4-.435c0,.276-.224.5-.5.5H7.5c-.276,0-.5-.224-.5-.5s.224-.5.5-.5h9c.276,0,.5.224.5.5Z"/>
</svg>
