<?xml version="1.0" encoding="UTF-8"?>
<svg xmlns="http://www.w3.org/2000/svg" id="Layer_1" data-name="Layer 1" viewBox="0 0 24 24">
  <path d="m9,24C4.037,24,0,19.963,0,15,0,9.385,4.885,6,9,6c1.288,0,2.513.271,3.621.761l1.967-3.347c-.363-.362-.588-.863-.588-1.415C14,.896,14.897,0,16,0s2,.897,2,2-.897,2-2,2c-.19,0-.376-.027-.551-.077l-1.936,3.294c.795.463,2.14,1.4,2.928,2.728l3.656-2.327c-.063-.195-.098-.402-.098-.618,0-1.103.897-2,2-2s2,.897,2,2-.897,2-2,2c-.527,0-1.007-.205-1.365-.539l-3.677,2.34c.241.455,1.042,2.123,1.042,4.2,0,4.963-4.037,9-9,9ZM1.395,12.516c-.256.782-.395,1.617-.395,2.484,0,4.411,3.589,8,8,8,.992,0,1.942-.182,2.819-.513-5.485-.254-9.933-4.551-10.425-9.972Zm.985-2.002c-.022.312-.03.715-.03,1.002,0,5.505,4.479,9.983,9.983,9.983.494,0,.99-.036,1.475-.108.582-.439,1.104-.957,1.547-1.536-.55.096-1.11.145-1.675.145-5.41,0-9.68-3.999-9.68-9.68,0-.563.049-1.123.145-1.673-.684.523-1.28,1.154-1.765,1.867Zm9.821,8.36c1.273.22,2.649.147,3.916-.221.563-1.096.883-2.338.883-3.652,0-.227-.01-.451-.028-.673-1.012,2.017-2.705,3.632-4.771,4.546Zm-3.823-1.686c.649.502,1.372.915,2.148,1.219,2.894-.771,5.207-3.002,6.088-5.862-.246-.763-.605-1.477-1.056-2.121-1.034,3.37-3.762,5.936-7.181,6.764Zm-2.181-2.473c.352.596.772,1.146,1.251,1.641,3.622-.583,6.518-3.298,7.329-6.884-.49-.512-1.048-.96-1.659-1.328-.954,3.246-3.636,5.787-6.921,6.571Zm-1.054-2.82c.122.663.319,1.3.583,1.901,3.112-.646,5.661-3.049,6.485-6.123-.577-.254-1.189-.441-1.827-.553-.977,2.27-2.894,4.015-5.241,4.774Zm.203-4.01c-.23.788-.347,1.606-.347,2.435,0,.188.006.376.018.562,1.894-.667,3.452-2.065,4.32-3.875-1.418-.053-2.801.264-3.991.877Zm16.653-1.885c-.552,0-1,.449-1,1s.448,1,1,1,1-.449,1-1-.448-1-1-1ZM16,.999c-.552,0-1,.449-1,1s.448,1,1,1,1-.449,1-1-.448-1-1-1Z"/>
</svg>
