<?xml version="1.0" encoding="UTF-8"?>
<svg xmlns="http://www.w3.org/2000/svg" id="Layer_1" data-name="Layer 1" viewBox="0 0 24 24">
  <path d="m17.5,20.5c0,.276-.224.5-.5.5H2.5c-1.379,0-2.5-1.121-2.5-2.5,0-1.208.86-2.218,2-2.45V7.5c0-.38.048-.758.142-1.125.068-.268.344-.429.608-.36.268.069.429.341.36.609-.073.285-.11.579-.11.875v8.5h5.5c.133,0,.26.053.354.146l.854.854h3.793c.276,0,.5.224.5.5s-.224.5-.5.5h-4c-.133,0-.26-.053-.354-.146l-.854-.854H2.5c-.827,0-1.5.673-1.5,1.5s.673,1.5,1.5,1.5h14.5c.276,0,.5.224.5.5Zm6.504,3.504c-.098.098-.226.146-.354.146s-.256-.049-.354-.146L-.004.704C-.199.508-.199.192-.004-.003S.508-.199.703-.003l3.585,3.584c.672-.38,1.436-.581,2.212-.581h11c2.481,0,4.5,2.019,4.5,4.5v8.55c1.14.232,2,1.242,2,2.45,0,1.312-1.015,2.39-2.302,2.491l2.305,2.305c.195.195.195.512,0,.707Zm-2.504-7.004h-3.793l3.059,3.058c.07-.037.15-.058.235-.058h.5c.827,0,1.5-.673,1.5-1.5s-.673-1.5-1.5-1.5ZM5.03,4.323l11.677,11.677h4.293V7.5c0-1.93-1.57-3.5-3.5-3.5H6.5c-.51,0-1.013.111-1.47.323Z"/>
</svg>
