<?xml version="1.0" encoding="UTF-8"?>
<svg xmlns="http://www.w3.org/2000/svg" id="Layer_1" data-name="Layer 1" viewBox="0 0 24 24">
  <path d="m19.5,7h-1c-.276,0-.5.224-.5.5s.224.5.5.5h1c1.758,0,3.204,1.308,3.449,3H1.051c.245-1.692,1.691-3,3.449-3h1c.276,0,.5-.224.5-.5s-.224-.5-.5-.5h-1c-2.481,0-4.5,2.019-4.5,4.5v8c0,2.481,2.019,4.5,4.5,4.5h15c2.481,0,4.5-2.019,4.5-4.5v-8c0-2.481-2.019-4.5-4.5-4.5Zm-10,12v-3h13.5v3h-13.5Zm-1-4H1v-3h7.5v3Zm1-3h13.5v3h-13.5v-3ZM1,16h7.5v3H1v-3Zm.051,4h7.449v3h-4c-1.758,0-3.204-1.308-3.449-3Zm18.449,3h-10v-3h13.449c-.245,1.692-1.691,3-3.449,3Zm-10.504-14.997l6,.014h.005c.533,0,1.034-.208,1.412-.584.379-.378.587-.881.587-1.416V.91c0-.388-.236-.724-.604-.856-.366-.131-.764-.02-1.029.307l-1.146,1.577-1.318-1.556c-.5-.496-1.32-.484-1.856.055l-1.271,1.506s-1.321-1.758-1.363-1.788c-.233-.166-.587-.186-.885-.052-.325.15-.527.467-.527.825v5.076c0,1.1.895,1.998,1.996,2Zm-.996-6.77l1.066,1.429c.167.205.414.327.629.331.27.034.54-.069.757-.303l1.33-1.577c.117-.116.312-.125.387-.054l1.393,1.646c.181.193.425.304.699.289.264-.01.51-.134.69-.359l1.049-1.444v4.827c0,.268-.104.519-.294.708-.189.188-.439.292-.706.292h-.002l-6-.014c-.55-.001-.998-.45-.998-1V1.234Z"/>
</svg>
