<?xml version="1.0" encoding="UTF-8"?>
<svg xmlns="http://www.w3.org/2000/svg" id="Layer_1" data-name="Layer 1" viewBox="0 0 24 24">
  <path d="m.5,15h9.179l-2.646-2.646c-.195-.195-.195-.512,0-.707s.512-.195.707,0l2.84,2.84c.271.271.42.63.42,1.014s-.149.743-.42,1.014l-2.84,2.839c-.098.098-.226.146-.354.146s-.256-.049-.354-.146c-.195-.195-.195-.512,0-.707l2.646-2.646H.5c-.276,0-.5-.224-.5-.5s.224-.5.5-.5ZM24,6.5v13c0,2.481-2.019,4.5-4.5,4.5H4.5c-2.481,0-4.5-2.019-4.5-4.5v-1c0-.276.224-.5.5-.5s.5.224.5.5v1c0,1.93,1.57,3.5,3.5,3.5h15c1.93,0,3.5-1.57,3.5-3.5v-10.5H1v3.5c0,.276-.224.5-.5.5s-.5-.224-.5-.5v-6C0,4.019,2.019,2,4.5,2h1.5V.5c0-.276.224-.5.5-.5s.5.224.5.5v1.5h10V.5c0-.276.224-.5.5-.5s.5.224.5.5v1.5h1.5c2.481,0,4.5,2.019,4.5,4.5Zm-1,1.5v-1.5c0-1.93-1.57-3.5-3.5-3.5H4.5c-1.93,0-3.5,1.57-3.5,3.5v1.5h22Z"/>
</svg>
