<?xml version="1.0" encoding="UTF-8"?>
<svg xmlns="http://www.w3.org/2000/svg" id="Layer_1" data-name="Layer 1" viewBox="0 0 24 24">
  <path d="m23.784,2.089c-.229-.156-.539-.1-.695.127-.023.033-1.654,2.319-5.209,3.719-.513-2.8-2.479-5.934-3.379-5.934-.651,0-1.117.311-1.527.584-.335.224-.624.416-.973.416-.36,0-.668-.2-1.024-.433-.408-.266-.871-.567-1.476-.567-.9,0-2.867,3.134-3.379,5.935C2.565,4.535.934,2.249.911,2.216c-.158-.227-.468-.283-.695-.127-.227.157-.284.468-.128.694.104.151,1.92,2.72,5.912,4.195v1.022c0,3.309,2.691,6,6,6s6-2.691,6-6v-1.022c3.992-1.475,5.808-4.044,5.912-4.195.156-.227.099-.537-.128-.694Zm-14.198-1.084c.276.03.541.203.843.4.428.278.913.595,1.57.595.651,0,1.117-.311,1.527-.584.307-.204.575-.383.885-.412.525.393,2.138,2.871,2.513,5.268-1.388.438-3.025.728-4.927.728s-3.537-.29-4.926-.728c.375-2.396,1.986-4.872,2.513-5.267Zm2.414,11.995c-2.757,0-5-2.243-5-5v-.69c1.423.419,3.084.69,5,.69s3.577-.271,5-.69v.69c0,2.757-2.243,5-5,5Zm7.974,10.467c.018.275-.19.514-.466.532-.011,0-.022,0-.034,0-.261,0-.481-.203-.499-.467-.242-3.664-3.306-6.533-6.976-6.533s-6.733,2.869-6.976,6.533c-.019.275-.257.494-.532.466-.275-.019-.484-.257-.466-.532.277-4.187,3.779-7.467,7.974-7.467s7.697,3.28,7.974,7.467Z"/>
</svg>
