<?xml version="1.0" encoding="UTF-8"?>
<svg xmlns="http://www.w3.org/2000/svg" id="Layer_1" data-name="Layer 1" viewBox="0 0 24 24">
  <path d="m24,7.5c0-2.171-2.157-5.443-5.415-5.499-.737-.239-6.359-2.001-12.085-2.001-.276,0-.5.224-.5.5s.224.5.5.5c3.792,0,7.622.823,9.862,1.406-.566.196-1.141.445-1.754.711-1.934.839-4.341,1.883-8.108,1.883-.276,0-.5.224-.5.5s.224.5.5.5c3.736,0,6.18-.963,8.137-1.806-.404.675-.637,1.464-.637,2.306,0,.924.28,1.784.76,2.5h-6.524c-1.203,0-2.34.338-3.305.921-.262-1.1-1.252-1.921-2.432-1.921-1.378,0-2.5,1.121-2.5,2.5,0,1.33,1.043,2.419,2.353,2.495-.167.45-.278.925-.325,1.417-.164,1.715.38,3.356,1.531,4.623,1.135,1.249,2.754,1.965,4.441,1.965,1.007,0,1.911.6,2.304,1.526.378.896,1.302,1.474,2.353,1.474h7.843c.276,0,.5-.224.5-.5s-.224-.5-.5-.5h-5.664l4.942-12.081c2.258-.291,4.222-1.38,4.222-3.419Zm-5.5-4.5c2.61,0,4.5,2.688,4.5,4.5,0,1.974-2.829,2.5-4.5,2.5-1.93,0-3.5-1.57-3.5-3.5,0-1.899,1.612-3.452,3.5-3.5ZM2.5,12c-.827,0-1.5-.673-1.5-1.5s.673-1.5,1.5-1.5,1.5.673,1.5,1.5c0,.034.003.067.01.099-.447.396-.835.853-1.148,1.357-.115.029-.237.044-.362.044Zm11.5,10.401v-1.901c0-1.865-.446-3.216-1.363-4.13-.917-.913-2.268-1.357-4.13-1.357-.294-.004-.542.211-.541.502,0,.275.225.498.5.498h.002c1.617.029,2.738.343,3.463,1.065.719.717,1.069,1.836,1.069,3.422v2.5h-.343c-.639,0-1.214-.347-1.432-.863-.55-1.298-1.815-2.137-3.225-2.137s-2.755-.597-3.701-1.638c-.959-1.055-1.412-2.424-1.276-3.854.241-2.528,2.531-4.508,5.213-4.508h7.439c.773.625,1.756,1,2.825,1,.055,0,.11,0,.165-.001l-4.665,11.403Z"/>
</svg>
