<?xml version="1.0" encoding="UTF-8"?>
<svg xmlns="http://www.w3.org/2000/svg" id="Layer_1" data-name="Layer 1" viewBox="0 0 24 24">
  <path d="m24,16.935c0-.055-1.066-3.236-1.066-3.236-.345-1.016-1.296-1.699-2.368-1.699h-6.131c-1.072,0-2.023.683-2.368,1.699,0,0-1.066,3.181-1.066,3.235,0,.748.403,1.398,1,1.76v2.805c0,1.378,1.121,2.5,2.5,2.5h6c1.379,0,2.5-1.122,2.5-2.5v-2.805c.597-.363,1-1.013,1-1.76Zm-10.986-2.915c.207-.61.777-1.02,1.421-1.02h.565v1.5c0,.276.224.5.5.5s.5-.224.5-.5v-1.5h3v1.5c0,.276.224.5.5.5s.5-.224.5-.5v-1.5h.565c.644,0,1.214.41,1.421,1.02l1.011,2.99c-.038.553-.5.991-1.062.991h-.869c-.607,0-1.065-.43-1.065-1,0-.276-.224-.5-.5-.5s-.5.224-.5.5c0,.57-.458,1-1.065,1h-.869c-.607,0-1.065-.43-1.065-1,0-.276-.224-.5-.5-.5s-.5.224-.5.5c0,.551-.448,1-1,1h-.935c-.562,0-1.024-.438-1.062-.991l1.011-2.989Zm8.986,7.48c0,.827-.673,1.5-1.5,1.5h-6c-.827,0-1.5-.673-1.5-1.5v-2.507c.022,0,.043.007.065.007h.935c.601,0,1.135-.272,1.502-.693.376.423.929.693,1.564.693h.869c.636,0,1.189-.271,1.565-.695.376.425.929.695,1.565.695h.869c.022,0,.043-.006.065-.007v2.507Zm-14-9.5c3.309,0,6-2.691,6-6S11.309,0,8,0,2,2.691,2,6s2.691,6,6,6Zm0-11c2.757,0,5,2.243,5,5s-2.243,5-5,5-5-2.243-5-5S5.243,1,8,1Zm1.99,13.749c-.055.271-.318.446-.59.391-.458-.093-.93-.14-1.4-.14-3.859,0-7,3.14-7,7v1.5c0,.276-.224.5-.5.5s-.5-.224-.5-.5v-1.5c0-4.411,3.589-8,8-8,.538,0,1.076.054,1.6.16.271.055.445.319.391.589Z"/>
</svg>
