<?xml version="1.0" encoding="UTF-8"?>
<svg xmlns="http://www.w3.org/2000/svg" id="Layer_1" data-name="Layer 1" viewBox="0 0 24 24">
  <path d="m23.854,23.146l-7.142-7.142.553-.966h3.735c.881,0,1.715-.386,2.286-1.058.571-.671.816-1.562.673-2.442-.232-1.426-1.562-2.5-3.093-2.5h-3.602L12.958,1.516c-.497-.911-1.45-1.478-2.487-1.478-.805,0-1.536.375-2.005,1.029s-.592,1.467-.332,2.238l2.041,5.732h-.429L.854.146C.658-.049.342-.049.146.146S-.049.658.146.854l23,23c.098.098.226.146.354.146s.256-.049.354-.146c.195-.195.195-.512,0-.707Zm-12.5-13.776l-2.275-6.393c-.153-.454-.081-.938.199-1.327.279-.389.714-.612,1.193-.612.671,0,1.288.366,1.614.965l4.456,7.783c.089.156.255.252.434.252h3.892c1.046,0,1.952.714,2.106,1.66.098.6-.062,1.181-.448,1.635-.381.448-.937.705-1.524.705h-4.025c-.179,0-.345.096-.434.252l-.562.982-5.234-5.234h.138c.163,0,.315-.079.409-.212s.117-.303.062-.456Zm3.787,9.378l-2.188,3.822c-.491.902-1.444,1.468-2.482,1.468-.805,0-1.536-.375-2.006-1.029-.469-.653-.591-1.467-.333-2.229l2.043-5.741h-4.786l-1.229,1.872c-.463.706-1.245,1.128-2.09,1.128-.676,0-1.307-.328-1.691-.879-.384-.55-.475-1.254-.244-1.883l1.128-3.23L.067,8.912c-.159-.808.031-1.563.483-2.107.411-.494.983-.767,1.61-.767.84,0,1.619.418,2.084,1.119l1.246,1.881h.51c.276,0,.5.224.5.5s-.224.5-.5.5h-.778c-.168,0-.324-.084-.417-.224l-1.394-2.104c-.458-.692-1.535-.936-2.091-.266-.264.318-.374.766-.293,1.198l1.236,3.218c.042.109.043.231.005.343l-1.191,3.41c-.123.335-.077.688.123.974.201.287.516.451.866.451.513,0,.981-.253,1.259-.677l1.376-2.098c.092-.141.25-.226.418-.226h5.765c.163,0,.315.079.409.212s.117.303.062.456l-2.278,6.401c-.15.446-.078.93.201,1.318s.714.612,1.193.612c.671,0,1.288-.366,1.609-.955l2.193-3.831c.137-.24.442-.323.683-.186.24.137.323.442.186.682Z"/>
</svg>
