<?xml version="1.0" encoding="UTF-8"?>
<svg xmlns="http://www.w3.org/2000/svg" id="Layer_1" data-name="Layer 1" viewBox="0 0 24 24">
  <path d="m20.5,7h-6c-.98,0-1.864.407-2.5,1.058V1h1.5c.276,0,.5-.224.5-.5s-.224-.5-.5-.5H4.5c-.276,0-.5.224-.5.5s.224.5.5.5h1.5v12H1v-1.5c0-.276-.224-.5-.5-.5s-.5.224-.5.5v9c0,.276.224.5.5.5s.5-.224.5-.5v-1.5h10v1.5c0,1.93,1.57,3.5,3.5,3.5h6c1.93,0,3.5-1.57,3.5-3.5v-10c0-1.93-1.57-3.5-3.5-3.5ZM1,14h5v4H1v-4Zm6,4V1h4v17h-4Zm13.5,5h-6c-1.378,0-2.5-1.121-2.5-2.5v-10c0-1.379,1.122-2.5,2.5-2.5h6c1.378,0,2.5,1.121,2.5,2.5v.5h-8.5c-.276,0-.5.224-.5.5s.224.5.5.5h8.5v3h-8.5c-.276,0-.5.224-.5.5s.224.5.5.5h8.5v3h-8.5c-.276,0-.5.224-.5.5s.224.5.5.5h8.5v.5c0,1.379-1.122,2.5-2.5,2.5Z"/>
</svg>
