<?xml version="1.0" encoding="UTF-8"?>
<svg xmlns="http://www.w3.org/2000/svg" id="Layer_1" data-name="Layer 1" viewBox="0 0 24 24">
  <path d="m23.546.621c-.349-.396-.848-.621-1.373-.621h-.028c-2.584.042-5.042.269-6.72,2.546-1.078-.354-2.229-.546-3.424-.546s-2.346.192-3.424.546C6.898.269,4.44.042,1.855,0,1.326-.01.81.217.454.621.103,1.019-.057,1.546.018,2.069c.1.703.621,3.297,2.181,5.94.01.017.004.011-.002.004-.765,1.498-1.197,3.193-1.197,4.987,0,6.065,4.935,11,11,11s11-4.935,11-11c0-1.794-.432-3.489-1.197-4.987-.006.008-.012.014-.002-.004,1.561-2.643,2.082-5.237,2.181-5.94.074-.522-.085-1.05-.437-1.448ZM1.008,1.928c-.033-.235.036-.465.196-.646.161-.184.385-.281.636-.282,2.728.044,4.493.372,5.76,1.919-1.983.869-3.663,2.306-4.831,4.105C1.477,4.686,1.096,2.551,1.008,1.928Zm20.992,11.072c0,5.514-4.486,10-10,10S2,18.514,2,13,6.486,3,12,3s10,4.486,10,10Zm.992-11.072c-.088.623-.469,2.758-1.761,5.096-1.168-1.799-2.848-3.236-4.831-4.105,1.266-1.548,3.031-1.876,5.76-1.92h.013c.238,0,.465.102.623.282.16.182.229.411.196.646Zm-10.992,10.072c-2.206,0-4,1.57-4,3.5s1.794,3.5,4,3.5,4-1.57,4-3.5-1.794-3.5-4-3.5Zm0,6c-1.654,0-3-1.122-3-2.5s1.346-2.5,3-2.5,3,1.122,3,2.5-1.346,2.5-3,2.5Zm9.803-9.987s-.001-.002-.002-.004c.014-.015.008-.005.002.004Zm-19.604-.004s-.001.002-.002.004c-.006-.008-.013-.018.002-.004Zm14.801,1.991c0,.552-.448,1-1,1s-1-.448-1-1,.448-1,1-1,1,.448,1,1Zm-9,1c-.552,0-1-.448-1-1s.448-1,1-1,1,.448,1,1-.448,1-1,1Z"/>
</svg>
