<?xml version="1.0" encoding="UTF-8"?>
<svg xmlns="http://www.w3.org/2000/svg" id="Layer_1" data-name="Layer 1" viewBox="0 0 24 24">
  <path d="m11,7.051V3c0-1.654-1.346-3-3-3h-1c-1.654,0-3,1.346-3,3v4.051c-2.244.252-4,2.139-4,4.449v8c0,2.481,2.019,4.5,4.5,4.5h6c2.481,0,4.5-2.019,4.5-4.5v-8c0-2.31-1.756-4.197-4-4.449ZM5,3c0-1.103.897-2,2-2h1c1.103,0,2,.897,2,2v4h-5V3Zm9,16.5c0,1.93-1.57,3.5-3.5,3.5h-6c-1.93,0-3.5-1.57-3.5-3.5v-8c0-1.93,1.57-3.5,3.5-3.5h6c1.93,0,3.5,1.57,3.5,3.5v8Zm-6.5-8.5c-2.481,0-4.5,2.019-4.5,4.5s2.019,4.5,4.5,4.5,4.5-2.019,4.5-4.5-2.019-4.5-4.5-4.5Zm0,8c-1.93,0-3.5-1.57-3.5-3.5s1.57-3.5,3.5-3.5,3.5,1.57,3.5,3.5-1.57,3.5-3.5,3.5ZM18.684,2.867l-1.424.356-.356,1.424c-.046.186-.213.316-.404.316s-.358-.13-.404-.316l-.357-1.429-1.43-.385c-.185-.05-.312-.218-.308-.409s.137-.356.323-.399l1.418-.328.354-1.418c.093-.371.716-.371.809,0l.356,1.424,1.424.356c.186.046.316.213.316.404s-.13.358-.316.404Zm5.316,2.596c0,.191-.13.358-.316.404l-1.424.356-.356,1.424c-.046.186-.213.316-.404.316s-.358-.13-.404-.316l-.357-1.429-1.43-.385c-.185-.05-.312-.218-.308-.409s.137-.356.323-.399l1.418-.328.354-1.418c.093-.371.716-.371.809,0l.356,1.424,1.424.356c.186.046.316.213.316.404Zm-1,6.037c0,.191-.13.358-.316.404l-1.424.356-.356,1.424c-.046.186-.213.316-.404.316s-.358-.13-.404-.316l-.357-1.429-1.43-.385c-.185-.05-.312-.218-.308-.409.003-.191.137-.356.323-.399l1.418-.328.354-1.418c.093-.371.716-.371.809,0l.356,1.424,1.424.356c.186.046.316.213.316.404Z"/>
</svg>
