<?xml version="1.0" encoding="UTF-8"?>
<svg xmlns="http://www.w3.org/2000/svg" id="Layer_1" data-name="Layer 1" viewBox="0 0 24 24">
  <path d="m19.5,0H4.5C2.019,0,0,2.019,0,4.5v15c0,2.481,2.019,4.5,4.5,4.5h15c2.481,0,4.5-2.019,4.5-4.5V4.5c0-2.481-2.019-4.5-4.5-4.5Zm3.5,4.5v7h-5V1h1.5c1.93,0,3.5,1.57,3.5,3.5Zm-11.5,8v10.5h-4.5v-10.5h4.5Zm-4.5-1V1h4.5v10.5h-4.5Zm5.5,1h4.5v10.5h-4.5v-10.5Zm0-1V1h4.5v10.5h-4.5ZM4.5,1h1.5v10.5H1v-7c0-1.93,1.57-3.5,3.5-3.5ZM1,19.5v-7h5v10.5h-1.5c-1.93,0-3.5-1.57-3.5-3.5Zm18.5,3.5h-1.5v-10.5h5v7c0,1.93-1.57,3.5-3.5,3.5Z"/>
</svg>
