<?xml version="1.0" encoding="UTF-8"?>
<svg xmlns="http://www.w3.org/2000/svg" id="Layer_1" data-name="Layer 1" viewBox="0 0 24 24">
  <path d="m19.5,0h-3c-.276,0-.5.224-.5.5s.224.5.5.5h3c1.93,0,3.5,1.57,3.5,3.5v7.978c-.457.332-1.011.522-1.591.522-1.168,0-2.315-.72-2.668-1.674-.145-.393-.793-.393-.938,0-.353.954-1.499,1.674-2.667,1.674s-2.315-.72-2.668-1.674c-.145-.393-.793-.393-.938,0-.353.954-1.5,1.674-2.667,1.674s-2.315-.72-2.667-1.673c-.073-.196-.26-.327-.469-.327s-.396.13-.469.326c-.353.954-1.5,1.674-2.667,1.674-.58,0-1.134-.19-1.591-.521v-7.979c0-1.93,1.57-3.5,3.5-3.5h3c.276,0,.5-.224.5-.5s-.224-.5-.5-.5h-3C2.019,0,0,2.019,0,4.5v15c0,2.481,2.019,4.5,4.5,4.5h15c2.481,0,4.5-2.019,4.5-4.5V4.5c0-2.481-2.019-4.5-4.5-4.5Zm0,23H4.5c-1.93,0-3.5-1.57-3.5-3.5v-5.87c.493.233,1.032.37,1.591.37,1.239,0,2.434-.594,3.136-1.494.703.9,1.896,1.494,3.136,1.494s2.434-.594,3.136-1.494c.703.9,1.897,1.494,3.137,1.494s2.433-.594,3.136-1.494c.703.9,1.897,1.494,3.137,1.494.559,0,1.098-.137,1.591-.369v5.869c0,1.93-1.57,3.5-3.5,3.5Zm-7.5-15c.881,0,1.79-.403,2.492-1.105.678-.678,1.008-1.45,1.008-2.361,0-1.478-1.567-3.42-2.407-4.132-.634-.539-1.553-.538-2.186,0-.839.712-2.407,2.655-2.407,4.133,0,.918.313,1.659.985,2.332.71.711,1.651,1.135,2.515,1.135Zm-.446-6.837c.129-.109.288-.164.446-.164s.317.055.447.164c.837.711,2.054,2.377,2.054,3.37,0,.641-.228,1.167-.715,1.654-.509.509-1.176.812-1.785.812-.596,0-1.289-.322-1.808-.842-.479-.479-.692-.98-.692-1.625,0-.994,1.216-2.659,2.054-3.37Z"/>
</svg>
