<?xml version="1.0" encoding="UTF-8"?>
<svg xmlns="http://www.w3.org/2000/svg" id="Layer_1" data-name="Layer 1" viewBox="0 0 24 24">
  <path d="m12,16.859c0-.491-.313-.926-.762-1.076l-4.372-1.643c-.558-.186-1.174-.188-1.749.007l-4.338,1.63c-.466.156-.779.591-.779,1.082,0,.579.44,1.04,1,1.112v5.028h-.5c-.276,0-.5.224-.5.5s.224.5.5.5h11c.276,0,.5-.224.5-.5s-.224-.5-.5-.5h-.5v-5.028c.56-.072,1-.533,1-1.112Zm-8,6.141h-2v-5h2v5Zm3,0h-2v-5h2v5Zm3,0h-2v-5h2v5Zm.859-6H1.141c-.078,0-.141-.063-.141-.141,0-.061.039-.115.114-.141l4.337-1.629c.18-.061.368-.09.555-.09.181,0,.36.028.526.083l4.371,1.642c.058.02.097.074.097.135,0,.077-.063.141-.141.141Zm12.994,5.146c.195.195.195.512,0,.707-.098.098-.226.146-.354.146s-.256-.049-.354-.146l-1.707-1.707c-.093-.093-.222-.146-.354-.146h-3.086c-1.103,0-2-.897-2-2v-3.011c0-.155-.07-.299-.193-.395l-8.228-6.4c-.368-.286-.579-.718-.579-1.184v-3.011c0-.551-.449-1-1-1h-3.086c-.4,0-.777-.156-1.061-.439L.146,1.854C-.049,1.658-.049,1.342.146,1.146s.512-.195.707,0l1.707,1.707c.093.093.222.146.354.146h3.086c1.103,0,2,.897,2,2v3.011c0,.153.072.301.193.395l8.228,6.4c.368.286.579.718.579,1.184v3.011c0,.552.448,1,1,1h3.086c.395,0,.781.16,1.061.439l1.707,1.707Zm-.354-13.146h-.5V3.972c.56-.072,1-.533,1-1.112,0-.492-.313-.927-.763-1.076L18.865.14c-.565-.188-1.165-.189-1.749.006l-4.336,1.63c-.467.155-.78.59-.78,1.083,0,.579.44,1.04,1,1.112v5.028h-.5c-.276,0-.5.224-.5.5s.224.5.5.5h11c.276,0,.5-.224.5-.5s-.224-.5-.5-.5Zm-7.5,0h-2v-5h2v5Zm3,0h-2v-5h2v5Zm3,0h-2v-5h2v5Zm.859-6h-9.719c-.077,0-.141-.063-.141-.141,0-.061.038-.114.114-.14l4.335-1.63c.183-.061.371-.091.556-.091.181,0,.358.028.527.084l4.372,1.643c.057.019.096.073.096.133,0,.078-.063.141-.141.141Z"/>
</svg>
