<?xml version="1.0" encoding="UTF-8"?>
<svg xmlns="http://www.w3.org/2000/svg" id="Layer_1" data-name="Layer 1" viewBox="0 0 24 24">
  <path d="m9.803,15.484c.215.173.25.487.078.703l-1.87,2.337c-.485.606-1.498.605-1.982,0l-1.883-2.354c-.141-.176-.393-.213-.576-.087-1.609,1.124-2.569,2.961-2.569,4.917v2.5c0,.276-.224.5-.5.5S0,23.776,0,23.5v-2.5C0,18.718,1.121,16.573,2.998,15.263c.612-.428,1.459-.305,1.929.282l1.883,2.354c.139.174.278.176.421,0l1.869-2.337c.173-.214.487-.25.703-.078Zm11.231-.2c-.613-.434-1.463-.312-1.935.278l-1.869,2.337c-.143.176-.282.174-.421,0l-1.883-2.354c-.469-.586-1.316-.709-1.929-.282-1.876,1.31-2.997,3.455-2.997,5.737v2.5c0,.276.224.5.5.5s.5-.224.5-.5v-2.5c0-1.956.96-3.793,2.569-4.917.182-.126.436-.089.576.087l1.883,2.354c.484.605,1.497.606,1.982,0l1.87-2.337c.141-.177.393-.214.576-.086,1.593,1.125,2.543,2.957,2.543,4.899v2.5c0,.276.224.5.5.5s.5-.224.5-.5v-2.5c0-2.268-1.109-4.404-2.966-5.716ZM0,14.5c0-.039.014-.113.014-.113C.014,14.387,2.009,5.799,2.075,5.522,2.807,2.459,4.878.454,7.577.079c.302-.047.608-.079.923-.079,1.661,0,3.143.594,4.313,1.71,1.082-1.056,2.559-1.71,4.187-1.71,3.309,0,6,2.691,6,6s-2.691,6-6,6-6-2.691-6-6c0-1.317.432-2.533,1.154-3.523-.261-.253-.541-.474-.838-.663-.935,2.981-3.642,5.091-6.801,5.183h-.914c.464,2.281,2.484,4.003,4.899,4.003.628,0,1.24-.115,1.818-.341.257-.102.547.026.648.284s-.027.547-.284.648c-.696.271-1.43.409-2.183.409-2.832,0-5.205-1.973-5.832-4.616-.596,2.56-1.69,7.227-1.69,7.227-.052.221-.241.389-.478.389-.276,0-.5-.224-.5-.5ZM12,6c0,2.757,2.243,5,5,5s5-2.243,5-5-2.243-5-5-5-5,2.243-5,5Zm-8.5-.001h.999c2.773-.083,5.157-1.978,5.916-4.64-.596-.228-1.235-.359-1.915-.359-2.756,0-4.999,2.242-5,4.999Z"/>
</svg>
