<?xml version="1.0" encoding="UTF-8"?>
<svg xmlns="http://www.w3.org/2000/svg" id="Layer_1" data-name="Layer 1" viewBox="0 0 24 24">
  <path d="m14.881,10.938h.619c1.93,0,3.5-1.57,3.5-3.5v-3.938c0-1.93-1.57-3.5-3.5-3.5h-7c-1.93,0-3.5,1.57-3.5,3.5v3.938c0,1.93,1.57,3.5,3.5,3.5h.654c.122,0,.24.044.331.124l1.834,1.617c.195.173.439.259.683.259.242,0,.482-.085.673-.255l1.878-1.624c.09-.078.207-.121.327-.121Zm-2.898.992l-1.837-1.619c-.274-.24-.626-.373-.991-.373h-.654c-1.378,0-2.5-1.121-2.5-2.5v-3.938c0-1.379,1.122-2.5,2.5-2.5h7c1.378,0,2.5,1.121,2.5,2.5v3.938c0,1.379-1.122,2.5-2.5,2.5h-.619c-.361,0-.709.13-.981.365l-1.917,1.627Zm3.869-7.575l-3.064,3.025c-.374.369-.865.554-1.356.554s-.979-.183-1.352-.55l-1.525-1.491c-.197-.193-.201-.51-.008-.707.193-.197.511-.199.707-.008l1.526,1.492c.36.354.946.354,1.305,0l3.064-3.025c.196-.195.512-.192.707.004.194.196.192.514-.005.707Zm-9.157,12.151c-.286-.647-.685-.784-1.194-.784-.509,0-.909.137-1.202.804l-1.354,4.034c-.118.352.144.717.516.717.233,0,.439-.148.515-.368l.254-.743h2.544l.254.743c.075.22.282.368.514.368h0c.372,0,.634-.365.515-.717l-1.362-4.055Zm-2.087,2.549l.725-2.121c.022-.047.112-.102.167-.102.057,0,.142.047.16.083l.732,2.139h-1.784Zm15.9-.849c.143-.254.223-.549.214-.863-.024-.911-.801-1.622-1.712-1.622h-.848c-1.088,0-1.883.796-1.883,1.778v2c0,.982.796,1.778,1.778,1.778h1.512c.875,0,1.635-.657,1.705-1.53.052-.645-.267-1.222-.765-1.541Zm-3.118-.818c0-.307.249-.556.556-.556h1.086c.29,0,.549.211.578.499.033.331-.228.612-.553.612h-1.667v-.556Zm2.198,2.778h-1.643c-.307,0-.555-.249-.555-.556v-.556h2.222c.325,0,.586.281.553.612-.029.288-.287.499-.577.499Zm-14.087-7.167c-3.033,0-5.5,2.468-5.5,5.5s2.467,5.5,5.5,5.5,5.5-2.468,5.5-5.5-2.467-5.5-5.5-5.5Zm0,10c-2.481,0-4.5-2.019-4.5-4.5s2.019-4.5,4.5-4.5,4.5,2.019,4.5,4.5-2.019,4.5-4.5,4.5Zm13-10c-3.033,0-5.5,2.468-5.5,5.5s2.467,5.5,5.5,5.5,5.5-2.468,5.5-5.5-2.467-5.5-5.5-5.5Zm0,10c-2.481,0-4.5-2.019-4.5-4.5s2.019-4.5,4.5-4.5,4.5,2.019,4.5,4.5-2.019,4.5-4.5,4.5Z"/>
</svg>
