<?xml version="1.0" encoding="UTF-8"?>
<svg xmlns="http://www.w3.org/2000/svg" id="Layer_1" data-name="Layer 1" viewBox="0 0 24 24">
  <path d="m20.556,17.082c-.014-.02-.028-.038-.045-.055l-1.977-2.143c.515-.176.952-.543,1.215-1.042.375-.715.324-1.572-.183-2.297l-2.411-2.55c.693-.053,1.306-.452,1.625-1.068.339-.654.287-1.404-.19-2.069L13.511.677c-.76-.86-2.279-.841-3.004-.019l-5.147,5.261c-.427.604-.479,1.354-.14,2.008.306.59.881.98,1.537,1.059l-2.372,2.619c-.458.665-.509,1.522-.134,2.237.246.467.645.819,1.117,1.006l-1.924,2.234c-.528.767-.587,1.756-.154,2.581.434.825,1.282,1.337,2.214,1.337h5.996v2.5c0,.276.224.5.5.5s.5-.224.5-.5v-2.5h5.996c.932,0,1.78-.513,2.214-1.337.433-.825.374-1.814-.154-2.581Zm-.731,2.116c-.264.502-.761.803-1.328.803H5.504c-.567,0-1.064-.3-1.328-.803s-.229-1.081.06-1.505l2.321-2.692h7.943c.276,0,.5-.224.5-.5s-.224-.5-.5-.5H6.17c-.441,0-.828-.233-1.033-.625-.205-.391-.179-.841.03-1.152l2.925-3.224h4.408c.276,0,.5-.224.5-.5s-.224-.5-.5-.5h-5.497c-.388,0-.723-.2-.896-.534-.163-.315-.138-.679.018-.909L11.239,1.339c.189-.215.467-.339.761-.339s.571.124.778.358l5.046,5.138c.206.292.231.655.068.971-.173.334-.508.534-.896.534h-.997c-.199,0-.38.119-.459.302s-.042.396.096.542l3.154,3.328c.251.363.277.813.072,1.204-.205.391-.592.625-1.033.625h-.33c-.198,0-.378.118-.458.299-.08.182-.044.394.091.54l2.617,2.837c.305.462.333,1.028.074,1.521Z"/>
</svg>
