<?xml version="1.0" encoding="UTF-8"?>
<svg xmlns="http://www.w3.org/2000/svg" id="Layer_1" data-name="Layer 1" viewBox="0 0 24 24">
  <path d="m16,16.5c0,.276-.224.5-.5.5h-7c-.276,0-.5-.224-.5-.5s.224-.5.5-.5h7c.276,0,.5.224.5.5Zm-8.5-5.5c-1.055,0-2.5,0-2.5-1.5,0-1.378,1.121-2.5,2.5-2.5s2.5,1.122,2.5,2.5c0,1.5-1.445,1.5-2.5,1.5Zm1.5-1.5c0-.827-.673-1.5-1.5-1.5s-1.5.673-1.5,1.5c0,.399.147.5,1.5.5s1.5-.101,1.5-.5Zm15,2.5c0,6.617-5.383,12-12,12S0,18.617,0,12,5.383,0,12,0s12,5.383,12,12Zm-1,0c0-6.065-4.935-11-11-11S1,5.935,1,12s4.935,11,11,11,11-4.935,11-11Zm-4-2.5c0,1.5-1.445,1.5-2.5,1.5s-2.5,0-2.5-1.5c0-1.378,1.121-2.5,2.5-2.5s2.5,1.122,2.5,2.5Zm-1,0c0-.827-.673-1.5-1.5-1.5s-1.5.673-1.5,1.5c0,.399.147.5,1.5.5s1.5-.101,1.5-.5Z"/>
</svg>
