<?xml version="1.0" encoding="UTF-8"?>
<svg xmlns="http://www.w3.org/2000/svg" id="Layer_1" data-name="Layer 1" viewBox="0 0 24 24">
  <path d="m21.108,20.401c1.813-1.418,2.892-3.588,2.892-5.901,0-3.533-2.406-6.54-5.852-7.312-.441-.099-.807-.378-1.001-.767-1.614-3.222-5.103-4.943-8.675-4.279-1.392.258-2.684.907-3.762,1.862L.854.146C.658-.049.342-.049.146.146S-.049.658.146.854l23,23c.098.098.226.146.354.146s.256-.049.354-.146c.195-.195.195-.512,0-.707l-2.746-2.746ZM8.655,3.125c3.133-.58,6.185.924,7.598,3.744.33.658.941,1.13,1.677,1.294,2.938.659,5.07,3.324,5.07,6.337,0,2.045-.974,3.964-2.603,5.19L5.42,4.713c.933-.812,2.042-1.366,3.235-1.588Zm9.34,18.234c.039.273-.151.526-.425.565-.354.05-.714.076-1.07.076H5.5c-3.033,0-5.5-2.467-5.5-5.5,0-1.506.603-2.912,1.698-3.958.328-.314.469-.819.386-1.387-.135-.923-.107-1.863.083-2.796.107-.532.273-1.057.492-1.559.11-.252.405-.369.658-.259.253.11.369.405.259.658-.191.438-.335.895-.429,1.358-.167.819-.191,1.645-.074,2.453.13.892-.119,1.714-.685,2.254-.895.856-1.388,2.004-1.388,3.235,0,2.481,2.019,4.5,4.5,4.5h11c.31,0,.622-.022.93-.066.269-.038.527.151.565.425Z"/>
</svg>
