<?xml version="1.0" encoding="UTF-8"?>
<svg xmlns="http://www.w3.org/2000/svg" id="Layer_1" data-name="Layer 1" viewBox="0 0 24 24">
  <path d="m9.146,4.354c-.729-.729-1.146-1.737-1.146-2.768V.5c0-.276.224-.5.5-.5s.5.224.5.5v1.086c0,.767.311,1.518.854,2.061.729.729,1.146,1.737,1.146,2.768v1.086c0,.276-.224.5-.5.5s-.5-.224-.5-.5v-1.086c0-.767-.311-1.518-.854-2.061Zm4.854,1.061v1.086c0,.276.224.5.5.5s.5-.224.5-.5v-1.086c0-1.046-.407-2.029-1.146-2.768-.526-.526-.854-1.349-.854-2.146,0-.276-.224-.5-.5-.5s-.5.224-.5.5c0,1.069.429,2.136,1.146,2.854.551.55.854,1.282.854,2.061Zm9.852,9.413c-.713,2.527-2.003,4.807-3.731,6.591-1.59,1.641-3.84,2.582-6.175,2.582h-3.891c-2.334,0-4.585-.941-6.174-2.582-1.729-1.785-3.02-4.064-3.732-6.591-.333-1.185-.104-2.42.63-3.39.692-.914,1.735-1.438,2.861-1.438h16.723c1.126,0,2.169.524,2.861,1.438.733.969.963,2.205.629,3.39Zm-1.427-2.786c-.501-.663-1.254-1.042-2.063-1.042H3.639c-.81,0-1.562.38-2.063,1.042-.543.717-.712,1.634-.464,2.515.658,2.334,1.896,4.524,3.487,6.167,1.403,1.448,3.392,2.278,5.457,2.278h3.891c2.065,0,4.055-.83,5.456-2.277,1.591-1.642,2.829-3.832,3.487-6.167.248-.88.079-1.797-.464-2.514Z"/>
</svg>
