<?xml version="1.0" encoding="UTF-8"?>
<svg xmlns="http://www.w3.org/2000/svg" id="Layer_1" data-name="Layer 1" viewBox="0 0 24 24">
  <path d="m12.5,6.001H3.5c-1.93,0-3.5,1.569-3.5,3.499v11c0,1.93,1.57,3.5,3.5,3.5h9c1.93,0,3.5-1.569,3.5-3.499v-11c0-1.93-1.57-3.5-3.5-3.5Zm2.5,14.5c0,1.378-1.122,2.5-2.5,2.5H3.5c-1.378,0-2.5-1.123-2.5-2.501v-11c0-1.378,1.122-2.5,2.5-2.5h9c1.378,0,2.5,1.123,2.5,2.501v11Zm-3.5-11.5h-7c-.827,0-1.5.673-1.5,1.5v8.999c0,.827.673,1.5,1.5,1.5h7c.827,0,1.5-.673,1.5-1.5v-8.999c0-.827-.673-1.5-1.5-1.5Zm.5,10.499c0,.276-.224.5-.5.5h-7c-.276,0-.5-.224-.5-.5v-8.999c0-.276.224-.5.5-.5h7c.276,0,.5.224.5.5v8.999ZM19,.5v13c0,.276-.224.5-.5.5s-.5-.224-.5-.5V.5c0-.276.224-.5.5-.5s.5.224.5.5Zm2,0v13c0,.276-.224.5-.5.5s-.5-.224-.5-.5V.5c0-.276.224-.5.5-.5s.5.224.5.5Zm-13,3V.5c0-.276.224-.5.5-.5s.5.224.5.5v3c0,.276-.224.5-.5.5s-.5-.224-.5-.5Zm3-.5V1c0-.552.448-1,1-1s1,.448,1,1v2c0,.552-.448,1-1,1s-1-.448-1-1Zm5-2v2.5c0,.552-.448,1-1,1s-1-.448-1-1V1c0-.552.448-1,1-1s1,.448,1,1Zm8,0v12c0,.552-.448,1-1,1s-1-.448-1-1V1c0-.552.448-1,1-1s1,.448,1,1Z"/>
</svg>
