<?xml version="1.0" encoding="UTF-8"?>
<svg xmlns="http://www.w3.org/2000/svg" id="Layer_1" data-name="Layer 1" viewBox="0 0 24 24">
  <path d="m19.5,0H4.5C2.019,0,0,2.019,0,4.5v16c0,1.93,1.57,3.5,3.5,3.5h5c1.93,0,3.5-1.57,3.5-3.5V6.796c2.012,5.756,6.525,8.106,8.464,8.873-1.105.961-3.04,3.116-3.404,6.664-.045.426.095.853.381,1.171.284.314.688.495,1.11.495h1.949c1.93,0,3.5-1.57,3.5-3.5V4.5c0-2.481-2.019-4.5-4.5-4.5ZM4.5,1h6.5v11H1v-7.5c0-1.93,1.57-3.5,3.5-3.5Zm4,22H3.5c-1.378,0-2.5-1.122-2.5-2.5v-7.5h10v7.5c0,1.378-1.122,2.5-2.5,2.5ZM12.024,1h1.994c.188,6.556,3.972,9.453,6.258,10.6.072.036.148.053.225.053.183,0,.359-.101.447-.276.123-.247.023-.547-.223-.671-2.081-1.044-5.522-3.688-5.707-9.706h2.007c.128,3.707,1.606,5.438,3.134,6.865.097.09.22.135.342.135.134,0,.267-.053.365-.159.188-.202.178-.518-.023-.707-1.425-1.331-2.696-2.83-2.818-6.135h1.476c1.93,0,3.5,1.57,3.5,3.5v10.5h-1.436c-.857-.234-9.286-2.847-9.541-14Zm8.476,22h-1.949c-.142,0-.271-.059-.367-.165-.099-.109-.145-.251-.13-.398.407-3.959,3.043-6.038,3.602-6.437h1.345v4.5c0,1.378-1.121,2.5-2.5,2.5ZM7.5,15h-3c-.827,0-1.5.673-1.5,1.5s.673,1.5,1.5,1.5h3c.827,0,1.5-.673,1.5-1.5s-.673-1.5-1.5-1.5Zm0,2h-3c-.276,0-.5-.224-.5-.5s.224-.5.5-.5h3c.276,0,.5.224.5.5s-.224.5-.5.5Z"/>
</svg>
