<?xml version="1.0" encoding="UTF-8"?>
<svg xmlns="http://www.w3.org/2000/svg" id="Layer_1" data-name="Layer 1" viewBox="0 0 24 24">
  <path d="m22,.5c0-.276.224-.5.5-.5h1c.276,0,.5.224.5.5s-.224.5-.5.5h-1c-.276,0-.5-.224-.5-.5Zm-3.5.5h1c.276,0,.5-.224.5-.5s-.224-.5-.5-.5h-1c-.276,0-.5.224-.5.5s.224.5.5.5Zm-4,0h1c.276,0,.5-.224.5-.5s-.224-.5-.5-.5h-1c-.276,0-.5.224-.5.5s.224.5.5.5Zm-4,0h1c.276,0,.5-.224.5-.5s-.224-.5-.5-.5h-1c-.276,0-.5.224-.5.5s.224.5.5.5Zm0,3h1c.276,0,.5-.224.5-.5s-.224-.5-.5-.5h-1c-.276,0-.5.224-.5.5s.224.5.5.5Zm13-1h-1c-.276,0-.5.224-.5.5s.224.5.5.5h1c.276,0,.5-.224.5-.5s-.224-.5-.5-.5Zm-9,1h5c.276,0,.5-.224.5-.5s-.224-.5-.5-.5h-5c-.276,0-.5.224-.5.5s.224.5.5.5Zm8.639,13.298c.557.551.837,1.227.837,1.945s-.28,1.395-.788,1.902l-.977,1.125c-1.122,1.124-2.609,1.729-4.211,1.729C10.251,24-.024,13.725-.024,5.977-.024,4.374.582,2.887,1.681,1.789l1.175-1.024c1.023-1.025,2.731-1.025,3.78.023l1.959,2.544c.465.459.745,1.135.745,1.854s-.28,1.395-.788,1.902l-1.488,1.525c1.616,3.803,4.614,6.804,8.295,8.303l1.532-1.494c1.05-1.045,2.755-1.044,3.802.003l2.446,1.873Zm-.658.75l-2.446-1.873c-.708-.702-1.781-.701-2.439-.043-.001.002-.003.003-.004.005l-1.766,1.722c-.14.137-.348.179-.527.108-4.172-1.593-7.557-4.976-9.286-9.28-.074-.184-.032-.394.106-.536l1.722-1.765c.324-.324.5-.749.5-1.2s-.176-.876-.495-1.195l-1.959-2.544c-.302-.3-.714-.452-1.133-.452-.436,0-.879.165-1.215.501l-1.175,1.024c-.885.886-1.386,2.122-1.386,3.457,0,7.159,9.864,17.023,17.024,17.023,1.335,0,2.571-.501,3.48-1.411l.978-1.125c.683-.685.683-1.757.023-2.416Z"/>
</svg>
