<?xml version="1.0" encoding="UTF-8"?>
<svg xmlns="http://www.w3.org/2000/svg" id="Layer_1" data-name="Layer 1" viewBox="0 0 24 24">
  <path d="m12,13c1.654,0,3-1.346,3-3s-1.346-3-3-3-3,1.346-3,3,1.346,3,3,3Zm0-5c1.103,0,2,.897,2,2s-.897,2-2,2-2-.897-2-2,.897-2,2-2Z"/>
  <path d="m12,15c-1.967,0-3.663,1.474-3.944,3.429-.04.273.15.526.423.566.274.039.527-.15.566-.424.212-1.466,1.482-2.571,2.955-2.571s2.743,1.105,2.955,2.571c.036.249.25.429.494.429.023,0,.048-.002.072-.005.273-.04.463-.293.423-.566-.282-1.955-1.978-3.429-3.944-3.429Z"/>
  <path d="m15.716,14.29c.402-.192.834-.29,1.284-.29,1.473,0,2.743,1.105,2.955,2.571.036.249.25.429.494.429.023,0,.048-.002.072-.005.273-.04.463-.293.423-.566-.282-1.955-1.978-3.429-3.944-3.429-.6,0-1.177.131-1.716.388-.249.119-.354.418-.235.667.119.249.417.353.667.235Z"/>
  <path d="m8.666,13.388c-.539-.257-1.116-.388-1.716-.388-1.967,0-3.663,1.474-3.944,3.429-.04.273.15.526.423.566.024.003.048.005.072.005.245,0,.458-.18.494-.429.212-1.466,1.482-2.571,2.955-2.571.45,0,.882.098,1.284.29.25.118.548.014.667-.235s.014-.548-.235-.667Z"/>
  <path d="m15.8,6.399c.348-.261.763-.399,1.2-.399,1.103,0,2,.897,2,2,0,.948-.673,1.772-1.6,1.96-.271.055-.445.319-.391.59.048.237.257.4.49.4.033,0,.066-.003.1-.01,1.391-.282,2.4-1.519,2.4-2.94,0-1.654-1.346-3-3-3-.655,0-1.277.208-1.8.601-.221.165-.265.479-.1.699.167.222.481.269.7.1Z"/>
  <path d="m4,8c0,1.422,1.01,2.658,2.4,2.94.034.007.067.01.1.01.233,0,.441-.163.49-.4.055-.271-.12-.535-.391-.59-.927-.188-1.6-1.012-1.6-1.96,0-1.103.897-2,2-2,.437,0,.852.139,1.2.399.221.168.535.122.7-.1.166-.221.121-.534-.1-.699-.523-.393-1.146-.601-1.8-.601-1.654,0-3,1.346-3,3Z"/>
  <path d="m.5,7c.276,0,.5-.224.5-.5v-2c0-1.93,1.57-3.5,3.5-3.5h2c.276,0,.5-.224.5-.5s-.224-.5-.5-.5h-2C2.019,0,0,2.019,0,4.5v2c0,.276.224.5.5.5Z"/>
  <path d="m6.5,23h-2c-1.93,0-3.5-1.57-3.5-3.5v-2c0-.276-.224-.5-.5-.5s-.5.224-.5.5v2c0,2.481,2.019,4.5,4.5,4.5h2c.276,0,.5-.224.5-.5s-.224-.5-.5-.5Z"/>
  <path d="m23.5,17c-.276,0-.5.224-.5.5v2c0,1.93-1.57,3.5-3.5,3.5h-2c-.276,0-.5.224-.5.5s.224.5.5.5h2c2.481,0,4.5-2.019,4.5-4.5v-2c0-.276-.224-.5-.5-.5Z"/>
  <path d="m19.5,0h-2c-.276,0-.5.224-.5.5s.224.5.5.5h2c1.93,0,3.5,1.57,3.5,3.5v2c0,.276.224.5.5.5s.5-.224.5-.5v-2c0-2.481-2.019-4.5-4.5-4.5Z"/>
</svg>
