<?xml version="1.0" encoding="UTF-8"?>
<svg xmlns="http://www.w3.org/2000/svg" id="Layer_1" data-name="Layer 1" viewBox="0 0 24 24">
  <path d="m9.436,7.735l-2.529,4.487,2.208,5.046c.151.345-.102.731-.478.731-.209,0-.398-.125-.48-.318l-1.992-4.682h-2.164v4.5c0,.276-.224.5-.5.5s-.5-.224-.5-.5V7.5c0-.276.224-.5.5-.5s.5.224.5.5v4.5h1.795l2.786-4.756c.088-.151.25-.244.425-.244.377,0,.615.406.43.735Zm11.064-.735c-.276,0-.5.224-.5.5v10c0,.276.224.5.5.5s.5-.224.5-.5V7.5c0-.276-.224-.5-.5-.5Zm-2.5,3.5c0,1.93-1.57,3.5-3.5,3.5h-2.5v3.5c0,.276-.224.5-.5.5s-.5-.224-.5-.5v-9c0-.827.673-1.5,1.5-1.5h2c1.93,0,3.5,1.57,3.5,3.5Zm-1,0c0-1.379-1.122-2.5-2.5-2.5h-2c-.276,0-.5.225-.5.5v4.5h2.5c1.378,0,2.5-1.121,2.5-2.5Z"/>
</svg>
