<?xml version="1.0" encoding="UTF-8"?>
<svg xmlns="http://www.w3.org/2000/svg" id="Layer_1" data-name="Layer 1" viewBox="0 0 24 24">
  <path d="m22.937,12.524c-.791-.844-3.602-3.675-6.971-5.141.023-.125.035-.253.035-.384,0-.997-.534-1.928-1.357-2.579.235-.434.357-.918.357-1.421,0-1.654-1.346-3-3-3s-3,1.346-3,3c0,.503.123.987.357,1.421-.823.651-1.357,1.582-1.357,2.579,0,.129.012.256.034.381-3.554,1.527-6.439,4.443-7.179,5.358C.209,13.538-.087,14.54.021,15.562c.109,1.022.611,1.94,1.413,2.586.711.573,1.566.851,2.416.851,1.125,0,2.242-.489,3.002-1.429.198-.244.486-.688.864-1.327.512,2.578,1.845,7.757,4.284,7.757s3.765-5.154,4.28-7.738c.456.757.805,1.266,1.046,1.522.756.807,1.78,1.214,2.807,1.214.943,0,1.888-.344,2.629-1.038,1.547-1.45,1.625-3.889.175-5.436ZM10,3c0-1.103.897-2,2-2s2,.897,2,2c0,.316-.073.62-.212.896-.545-.252-1.155-.396-1.788-.396s-1.243.144-1.788.396c-.139-.276-.212-.581-.212-.896Zm2,1.5c1.717,0,3,1.32,3,2.5,0,1.05-1.545,2.08-2.52,2.481-.311.128-.651.128-.96,0-.975-.402-2.52-1.431-2.52-2.481,0-1.18,1.283-2.5,3-2.5Zm-.861,5.906c.278.114.569.171.861.171s.584-.057.862-.171c.066-.027.134-.057.204-.089.505.989.971,1.883,1.395,2.682h-4.95c.425-.798.894-1.695,1.408-2.69.076.035.149.067.22.096Zm-5.064,6.535c-.989,1.222-2.789,1.413-4.014.427-.593-.478-.964-1.157-1.045-1.913-.081-.755.138-1.496.617-2.087.877-1.084,3.664-3.715,6.778-5.06.393.618,1.014,1.137,1.629,1.525-2.036,3.94-3.44,6.459-3.966,7.108Zm8.48,2.062c-.018-.002-.036-.003-.054-.003h-5c-.018,0-.037.001-.054.003-.2-.632-.383-1.308-.545-2.003h6.198c-.162.695-.345,1.371-.545,2.003Zm-2.554,3.997c-.76,0-1.549-1.232-2.212-3h4.423c-.663,1.768-1.452,3-2.212,3Zm3.314-7h-6.628c-.071-.359-.135-.719-.193-1.079-.002-.011-.004-.021-.007-.032.154-.277.316-.574.488-.891.008,0,.017.001.025.001h5.998c.178.328.347.635.508.923-.057.359-.122.719-.192,1.077Zm6.764,1.23c-.555.52-1.295.792-2.038.768-.76-.024-1.464-.344-1.984-.898-.568-.605-2.024-3.177-4.109-7.258.619-.389,1.246-.911,1.642-1.532,3.183,1.392,5.864,4.092,6.619,4.898,1.073,1.145,1.015,2.949-.129,4.022Z"/>
</svg>
