<?xml version="1.0" encoding="UTF-8"?>
<svg xmlns="http://www.w3.org/2000/svg" id="Layer_1" data-name="Layer 1" viewBox="0 0 24 24">
  <path d="m24,12.521c-.275,6.437-5.547,11.479-12,11.479C5.383,24,0,18.617,0,12S5.383,0,12,0c4.028,0,7.787,2.036,10,5.365V1.5c0-.276.224-.5.5-.5s.5.224.5.5v4c0,.827-.673,1.5-1.5,1.5h-4c-.276,0-.5-.224-.5-.5s.224-.5.5-.5h3.721c-2.021-3.1-5.496-5-9.221-5C5.935,1,1,5.935,1,12s4.935,11,11,11c5.916,0,10.748-4.621,11-10.521.012-.275.208-.478.521-.479.275.013.49.245.479.521Zm-13.505-4.521h3.01c.824,0,1.495.671,1.495,1.495,0,.276.224.5.5.5s.5-.224.5-.5c0-1.376-1.119-2.495-2.495-2.495h-1.005v-1.5c0-.276-.224-.5-.5-.5s-.5.224-.5.5v1.5h-1.005c-1.376,0-2.495,1.119-2.495,2.495,0,1.108.744,2.095,1.81,2.398l4.106,1.174c.638.183,1.084.773,1.084,1.438,0,.824-.671,1.495-1.495,1.495h-3.01c-.824,0-1.495-.671-1.495-1.495,0-.276-.224-.5-.5-.5s-.5.224-.5.5c0,1.376,1.119,2.495,2.495,2.495h1.005v1.5c0,.276.224.5.5.5s.5-.224.5-.5v-1.5h1.005c1.376,0,2.495-1.119,2.495-2.495,0-1.108-.744-2.095-1.81-2.398l-4.106-1.174c-.638-.183-1.084-.773-1.084-1.438,0-.824.671-1.495,1.495-1.495Z"/>
</svg>
