<?xml version="1.0" encoding="UTF-8"?>
<svg xmlns="http://www.w3.org/2000/svg" id="Layer_1" data-name="Layer 1" viewBox="0 0 24 24">
  <path d="m22,15.023v-.523c0-2.481-2.019-4.5-4.5-4.5s-4.5,2.019-4.5,4.5v.523c-.563.054-1.089.31-1.462.743-.42.486-.607,1.13-.514,1.766l.6,4.088c.2,1.357,1.385,2.381,2.756,2.381h6.239c1.372,0,2.557-1.023,2.756-2.381l.6-4.088c.094-.636-.094-1.279-.514-1.766-.374-.433-.899-.689-1.462-.743Zm-4.5-4.023c1.93,0,3.5,1.57,3.5,3.5v.5h-7v-.5c0-1.93,1.57-3.5,3.5-3.5Zm5.487,6.386l-.6,4.088c-.128.87-.888,1.526-1.767,1.526h-6.239c-.879,0-1.639-.656-1.767-1.526l-.6-4.088c-.051-.348.051-.7.281-.967.23-.266.564-.419.916-.419h8.58c.352,0,.686.153.916.419.23.267.333.619.281.967ZM19.5,0H4.5C2.019,0,0,2.019,0,4.5v13c0,2.481,2.019,4.5,4.5,4.5h4c.276,0,.5-.224.5-.5s-.224-.5-.5-.5h-4c-1.93,0-3.5-1.57-3.5-3.5v-9.5h22v3.5c0,.276.224.5.5.5s.5-.224.5-.5v-7c0-2.481-2.019-4.5-4.5-4.5ZM1,7v-2.5c0-1.93,1.57-3.5,3.5-3.5h15c1.93,0,3.5,1.57,3.5,3.5v2.5H1Zm4-3c0,.552-.448,1-1,1s-1-.448-1-1,.448-1,1-1,1,.448,1,1Zm3,0c0,.552-.448,1-1,1s-1-.448-1-1,.448-1,1-1,1,.448,1,1Zm3,0c0,.552-.448,1-1,1s-1-.448-1-1,.448-1,1-1,1,.448,1,1Z"/>
</svg>
