<?xml version="1.0" encoding="UTF-8"?>
<svg xmlns="http://www.w3.org/2000/svg" id="Layer_1" data-name="Layer 1" viewBox="0 0 24 24">
  <path d="m19,13c.552,0,1,.448,1,1s-.448,1-1,1-1-.448-1-1,.448-1,1-1Zm-4,4c0,.552.448,1,1,1s1-.448,1-1-.448-1-1-1-1,.448-1,1Zm.061-16.261c-.132-.242-.043-.546.2-.678.241-.132.545-.043.678.2.285.522.997,1.829,1.353,3.832.232-.851.646-1.775,1.378-2.508C19.771.484,21.29.12,22.37.008c.447-.043.879.109,1.196.426s.472.753.426,1.196c-.112,1.08-.477,2.599-1.578,3.7-1.539,1.539-3.928,1.67-4.696,1.67-.112,0-.715,0-.715,0h-.004c-.132,0-.258-.052-.352-.145-.095-.094-.148-.222-.148-.355,0-3.123-1.083-5.108-1.439-5.761Zm2.947,5.253c.838-.039,2.588-.258,3.7-1.369.894-.894,1.194-2.177,1.29-3.097h0c.015-.142-.036-.283-.139-.386-.091-.091-.212-.141-.337-.141-.016,0-.033,0-.049.002-.919.096-2.203.396-3.097,1.29-1.111,1.111-1.33,2.862-1.369,3.7Zm4.71,2.039c-.259.095-.392.383-.296.642.384,1.042.578,2.161.578,3.327,0,9.584-9.235,10.906-19.214,10.906-1.536,0-2.786-1.25-2.786-2.786,0-1.268,1.008-2.059,1.744-2.636l.164-.129c1.696-1.352,2.592-3.203,2.592-5.355,0-4.837,3.381-8.61,8.039-8.973.275-.021.481-.262.46-.537-.021-.275-.272-.479-.537-.46-5.193.404-8.961,4.597-8.961,9.97,0,1.863-.746,3.401-2.215,4.573l-.158.125c-.795.624-2.127,1.669-2.127,3.423,0,2.087,1.698,3.786,3.786,3.786,7.064,0,20.214,0,20.214-11.906,0-1.284-.215-2.52-.64-3.673-.096-.259-.383-.393-.642-.296Z"/>
</svg>
