<?xml version="1.0" encoding="UTF-8"?>
<svg xmlns="http://www.w3.org/2000/svg" id="Layer_1" data-name="Layer 1" viewBox="0 0 24 24">
  <path d="m23.243,10.173l-2.243-2.243v-2.43c0-1.379-1.122-2.5-2.5-2.5h-2.43l-2.243-2.243c-1.008-1.008-2.646-1.008-3.654,0l-2.243,2.243h-2.43c-1.378,0-2.5,1.121-2.5,2.5v2.43l-2.243,2.243c-.488.487-.757,1.137-.757,1.827s.269,1.34.757,1.827l2.243,2.243v2.43c0,1.379,1.122,2.5,2.5,2.5h2.43l2.243,2.243c.504.504,1.166.755,1.827.755s1.323-.251,1.827-.755l2.243-2.243h2.43c1.378,0,2.5-1.121,2.5-2.5v-2.43l2.243-2.243c.488-.487.757-1.137.757-1.827s-.269-1.339-.757-1.827Zm-.707,2.947l-2.39,2.39c-.094.094-.146.221-.146.354v2.637c0,.827-.673,1.5-1.5,1.5h-2.637c-.133,0-.26.053-.354.146l-2.39,2.39c-.617.617-1.623.617-2.24,0l-2.39-2.39c-.094-.094-.221-.146-.354-.146h-2.637c-.827,0-1.5-.673-1.5-1.5v-2.637c0-.133-.053-.26-.146-.354l-2.39-2.39c-.299-.299-.464-.697-.464-1.12s.165-.821.464-1.12l2.39-2.39c.094-.094.146-.221.146-.354v-2.637c0-.827.673-1.5,1.5-1.5h2.637c.133,0,.26-.053.354-.146l2.39-2.39c.617-.617,1.623-.617,2.24,0l2.39,2.39c.094.094.221.146.354.146h2.637c.827,0,1.5.673,1.5,1.5v2.637c0,.133.053.26.146.354l2.39,2.39c.299.299.464.697.464,1.12s-.165.821-.464,1.12Z"/>
</svg>
