<?xml version="1.0" encoding="UTF-8"?>
<svg xmlns="http://www.w3.org/2000/svg" id="Layer_1" data-name="Layer 1" viewBox="0 0 24 24">
  <path d="m18.912,21.205c.156.229.099.539-.129.695-2.002,1.374-4.347,2.1-6.783,2.1C5.383,24,0,18.617,0,12S5.383,0,12,0s12,5.383,12,12c0,.879-.096,1.757-.284,2.608-.06.27-.329.438-.596.38-.27-.06-.44-.327-.38-.597.173-.78.261-1.585.261-2.392,0-6.065-4.935-11-11-11S1,5.935,1,12s4.935,11,11,11c2.232,0,4.382-.665,6.217-1.924.229-.156.539-.098.695.129ZM7,7.5v3c0,.276.224.5.5.5s.5-.224.5-.5v-3c0-.276-.224-.5-.5-.5s-.5.224-.5.5Zm3,0v3c0,.276.224.5.5.5s.5-.224.5-.5v-3c0-.276-.224-.5-.5-.5s-.5.224-.5.5Zm3,0v3c0,.276.224.5.5.5s.5-.224.5-.5v-3c0-.276-.224-.5-.5-.5s-.5.224-.5.5Zm3,0v3c0,.276.224.5.5.5s.5-.224.5-.5v-3c0-.276-.224-.5-.5-.5s-.5.224-.5.5Zm-12,0v3c0,.276.224.5.5.5s.5-.224.5-.5v-3c0-.276-.224-.5-.5-.5s-.5.224-.5.5Zm18.429,9.5h-3.837c-.189,0-.362-.087-.475-.238-.097-.132-.135-.292-.108-.449l3.392-4.512c.166-.221.121-.534-.1-.7-.22-.168-.534-.12-.7.099,0,0-3.514,4.693-3.531,4.75-.147.486-.058,1,.245,1.408s.769.643,1.277.643h3.837c.213,0,.401.112.501.3.101.188.091.407-.007.558l-3.32,4.339c-.168.219-.126.533.093.701.09.069.197.103.303.103.15,0,.299-.067.397-.196l3.339-4.366c.32-.482.349-1.1.075-1.61-.274-.51-.804-.827-1.383-.827Z"/>
</svg>
