<?xml version="1.0" encoding="UTF-8"?>
<svg xmlns="http://www.w3.org/2000/svg" id="Layer_1" data-name="Layer 1" viewBox="0 0 24 24">
  <path d="m.647,7.226c1.707,1.175,2.969,1.771,3.748,1.771.456,0,1.007-.22,1.563-.52-.242.691-.426,1.417-.525,1.958-.078.429.06.868.366,1.175.25.25.588.387.937.387.079,0,.159-.007.239-.022,1.722-.313,2.909-.695,3.542-1.135.037.287.16.559.37.769.25.25.588.388.937.388.079,0,.158-.007.238-.022,1.663-.302,2.821-.669,3.47-1.089.044.27.162.525.361.724.25.25.588.388.937.388.079,0,.159-.007.239-.022,1.993-.363,3.272-.816,3.803-1.346.817-.817,1.791-3.215,2.143-4.128h.486c.276,0,.5-.224.5-.5s-.224-.5-.5-.5h-.48c-.338-.904-1.272-3.269-2.091-4.087-.529-.529-1.824-.998-3.849-1.391-.431-.085-.876.05-1.188.359-.202.2-.322.458-.366.732-.645-.42-1.801-.788-3.461-1.093-.429-.08-.871.058-1.178.366-.212.212-.336.489-.371.78-.649-.428-1.828-.812-3.529-1.143-.43-.085-.875.049-1.188.359-.312.308-.45.75-.37,1.183.1.539.284,1.262.527,1.95-.555-.299-1.105-.517-1.561-.517-.779,0-2.041.596-3.748,1.771C.243,5.045.002,5.505.002,5.997s.241.951.646,1.229Zm6.148,3.765c-.147.026-.253-.053-.289-.089-.036-.036-.117-.136-.089-.288.215-1.18.739-2.727,1.193-3.232.188-.145.357-.281.512-.41.349-.218.755-.382,1.198-.475h2.527c-.453,1.129-1.225,2.873-1.776,3.424-.362.362-1.587.762-3.275,1.07Zm5.087,0c-.148.026-.253-.053-.288-.089-.036-.036-.117-.136-.089-.288.213-1.168.779-2.799,1.252-3.271.411-.411,1.001-.695,1.753-.845h2.678c-.051.046-.109.085-.157.132-.416.416-.777,1.23-1.052,2.061-.409.735-.673,1.081-.82,1.229-.362.362-1.587.762-3.276,1.07Zm8.281-1.07c-.362.362-1.587.762-3.275,1.07-.146.026-.253-.053-.289-.089-.036-.036-.116-.136-.088-.289.086-.475.484-1.739.487-1.813.23-.654.496-1.218.739-1.462.413-.413,1.006-.698,1.667-.838h2.534c-.453,1.129-1.225,2.872-1.775,3.422Zm-3.567-8.83c.035-.036.141-.119.292-.088,1.724.335,2.969.752,3.333,1.117.55.55,1.294,2.268,1.728,3.379h-2.463c-.749-.151-1.338-.434-1.748-.844-.258-.258-.541-.876-.781-1.579-.01-.04-.361-1.205-.451-1.694-.028-.153.054-.254.091-.291Zm-5.002,0c.036-.037.139-.117.289-.089,1.684.31,2.903.71,3.264,1.071.152.151.424.504.846,1.276.274.814.63,1.605,1.038,2.012.05.05.111.09.164.137h-2.668s-.003-.002-.005-.003c-.759-.149-1.353-.434-1.765-.846-.47-.47-1.037-2.1-1.252-3.271-.027-.151.053-.252.089-.288Zm-5.182.291c-.028-.154.054-.255.09-.292.086-.088.271-.092.293-.088,1.724.335,2.969.752,3.333,1.117.55.55,1.293,2.267,1.727,3.378h-2.471c-.489-.1-.903-.261-1.249-.472-.16-.132-.337-.274-.532-.424-.451-.511-.973-2.046-1.19-3.219ZM1.214,5.591c2.092-1.439,2.922-1.595,3.182-1.595.574,0,1.601.638,2.518,1.334.008.009.759.608.823.662-.068.058-.81.654-.817.66-.918.7-1.948,1.343-2.524,1.343-.26,0-1.09-.155-3.182-1.595-.135-.093-.212-.241-.212-.405s.077-.312.212-.405Zm19.697,7.409H2.993c-1.105,0-2.002.411-2.523,1.156-.522.747-.614,1.746-.252,2.74.719,1.97,2.016,3.743,3.752,5.126,1.599,1.275,3.765,1.978,6.1,1.978h3.873c2.301,0,4.525-.721,6.101-1.978,1.735-1.384,3.032-3.157,3.751-5.126.351-.96.252-1.941-.271-2.689-.544-.778-1.472-1.207-2.611-1.207Zm1.943,3.553c-.646,1.771-1.866,3.436-3.435,4.687-1.402,1.119-3.398,1.76-5.478,1.76h-3.873c-2.078,0-4.074-.641-5.477-1.76-1.569-1.251-2.789-2.916-3.436-4.687-.249-.684-.201-1.349.132-1.824.333-.477.923-.729,1.704-.729h17.918c.804,0,1.44.277,1.792.78.333.477.389,1.124.151,1.773Z"/>
</svg>
