<?xml version="1.0" encoding="UTF-8"?>
<svg xmlns="http://www.w3.org/2000/svg" id="Layer_1" data-name="Layer 1" viewBox="0 0 24 24">
  <path d="m22.682,4.227l-2.884-2.884c-.838-.838-1.997-1.318-3.182-1.318h-5.116C9.019.024,7,2.043,7,4.524v7.976c0,.276.224.5.5.5s.5-.224.5-.5v-7.976c0-1.93,1.57-3.5,3.5-3.5h5.116c.129,0,.256.024.384.039v3.437c0,1.379,1.121,2.5,2.5,2.5h3.459c.016.136.041.271.041.408v9.092c0,.854-.311,1.675-.875,2.314-.183.207-.163.523.044.706.096.084.213.125.331.125.139,0,.276-.058.375-.169.726-.822,1.125-1.88,1.125-2.977V7.408c0-1.185-.48-2.344-1.318-3.182Zm-3.182,1.773c-.827,0-1.5-.673-1.5-1.5V1.317c.404.174.777.419,1.091.733l2.884,2.884c.307.307.546.672.72,1.066h-3.194ZM2.5,0C1.121,0,0,1.121,0,2.5v9.758c0,.921.374,1.823,1.025,2.475l1.121,1.121c.098.098.226.146.354.146s.256-.049.354-.146l1.121-1.121c.651-.651,1.025-1.554,1.025-2.475V2.5c0-1.379-1.121-2.5-2.5-2.5Zm1.5,12.258c0,.658-.267,1.302-.732,1.768l-.768.768-.768-.768c-.466-.466-.732-1.109-.732-1.768V2.5c0-.827.673-1.5,1.5-1.5s1.5.673,1.5,1.5v9.758Zm12.5,1.742h-6c-1.93,0-3.5,1.57-3.5,3.5v3c0,1.93,1.57,3.5,3.5,3.5h6c1.93,0,3.5-1.57,3.5-3.5v-3c0-1.93-1.57-3.5-3.5-3.5Zm-6,1h6c.759,0,1.432.347,1.891.883l-3.571,3.57c-.705.705-1.934.705-2.639,0l-3.571-3.57c.459-.536,1.131-.883,1.891-.883Zm8.5,5.5c0,1.379-1.121,2.5-2.5,2.5h-6c-1.379,0-2.5-1.121-2.5-2.5v-3c0-.245.046-.477.112-.7l3.362,3.361c.542.542,1.261.84,2.026.84s1.484-.298,2.026-.84l3.361-3.361c.066.224.112.456.112.7v3Z"/>
</svg>
