<?xml version="1.0" encoding="UTF-8"?>
<svg xmlns="http://www.w3.org/2000/svg" id="Layer_1" data-name="Layer 1" viewBox="0 0 24 24">
  <path d="m23.181,9.655c-.496-.452-1.141-.674-1.809-.652-.67.032-1.288.322-1.739.818l-3.732,4.102c-.314-1.108-1.335-1.922-2.543-1.922h-.261c.559-.582.903-1.37.903-2.237,0-2.777-2.082-5.598-4.487-6.481.467-.317.958-.749,1.3-1.312.243-.4.25-.884.019-1.296-.233-.416-.673-.673-1.146-.673h-3.371c-.474,0-.913.258-1.146.673-.231.412-.225.896.019,1.296.342.563.833.995,1.3,1.312-2.405.883-4.487,3.704-4.487,6.481,0,.889.362,1.696.946,2.281-1.668.266-2.946,1.715-2.946,3.456v5c0,1.93,1.57,3.5,3.5,3.5h5.965c2.707,0,5.292-1.159,7.093-3.181l6.806-7.639c.911-1.022.829-2.604-.183-3.526ZM6.04,1.45c-.073-.121-.031-.231,0-.287.021-.039.105-.164.275-.164h3.371c.17,0,.254.125.275.164.03.055.072.166,0,.287-.521.855-1.562,1.35-1.96,1.514-.398-.165-1.439-.659-1.96-1.514Zm1.96,2.55c2.43,0,5,2.962,5,5.763,0,1.234-1.01,2.237-2.25,2.237h-5.5c-1.24,0-2.25-1.003-2.25-2.237,0-2.801,2.57-5.763,5-5.763Zm14.617,8.516l-6.806,7.639c-1.611,1.809-3.925,2.846-6.347,2.846H3.5c-1.379,0-2.5-1.122-2.5-2.5v-5c0-1.378,1.121-2.5,2.5-2.5h9.857c.905,0,1.643.737,1.643,1.642,0,.812-.606,1.511-1.398,1.624l-6.161.737c-.274.033-.47.282-.437.556.032.274.282.464.556.437l6.173-.739c1.021-.146,1.844-.878,2.145-1.824l4.496-4.94c.271-.298.643-.473,1.046-.492.398-.018.789.12,1.088.393.609.555.658,1.506.11,2.122Z"/>
</svg>
