<?xml version="1.0" encoding="UTF-8"?>
<svg xmlns="http://www.w3.org/2000/svg" id="Layer_1" data-name="Layer 1" viewBox="0 0 24 24">
  <path d="m12,10c2.757,0,5-2.243,5-5S14.757,0,12,0s-5,2.243-5,5,2.243,5,5,5Zm0-9c2.206,0,4,1.794,4,4s-1.794,4-4,4-4-1.794-4-4,1.794-4,4-4Zm11.5,19h-3.5v-1c0-4.411-3.589-8-8-8s-8,3.589-8,8v1H.5c-.276,0-.5.224-.5.5s.224.5.5.5h1.5v2.5c0,.276.224.5.5.5s.5-.224.5-.5v-2.5h18v2.5c0,.276.224.5.5.5s.5-.224.5-.5v-2.5h1.5c.276,0,.5-.224.5-.5s-.224-.5-.5-.5Zm-4.5-1v1h-4.61l-1.352-5.407,1.425-2.137c2.646,1,4.537,3.552,4.537,6.544Zm-5.538-6.844l-1.378,2.067c-.078.117-.103.262-.069.398l1.345,5.379h-2.72l1.345-5.379c.034-.137.009-.281-.069-.398l-1.378-2.067c.472-.101.96-.156,1.462-.156s.99.055,1.462.156Zm-8.462,6.844c0-2.992,1.89-5.544,4.537-6.544l1.425,2.137-1.352,5.407h-4.61v-1Z"/>
</svg>
