<?xml version="1.0" encoding="UTF-8"?>
<svg xmlns="http://www.w3.org/2000/svg" id="Layer_1" data-name="Layer 1" viewBox="0 0 24 24">
  <path d="m17,5c0,.552-.448,1-1,1s-1-.448-1-1,.448-1,1-1,1,.448,1,1Zm2-1c-.552,0-1,.448-1,1s.448,1,1,1,1-.448,1-1-.448-1-1-1Zm4.89-1.446c-.407.653-1.148,1.104-1.955,1.298.031.213.065.426.065.648v3.879c0,2.268-1.682,3.621-4.5,3.621s-4.5-1.354-4.5-3.621v-1.304c-.304.064-.599.165-.863.341-.388.257-.887.257-1.272,0-1.007-.67-2.396-.487-3.202.399-.343.375-.868.505-1.336.334-.27-.099-.547-.149-.826-.149-1.378,0-2.5,1.122-2.5,2.5.001.569-.286,1.076-.769,1.361-.771.454-1.231,1.253-1.231,2.139s.46,1.685,1.23,2.139c.476.28.771.8.77,1.355,0,1.385,1.122,2.506,2.5,2.506.279,0,.556-.051.825-.149.47-.173.994-.041,1.336.333.8.879,2.171,1.068,3.174.42.404-.262.926-.262,1.33,0,1.002.648,2.374.459,3.173-.419.344-.375.869-.507,1.335-.335.271.1.548.15.827.15,1.378,0,2.5-1.121,2.5-2.5-.001-.562.293-1.081.77-1.361.771-.454,1.23-1.253,1.23-2.139,0-.286-.048-.565-.143-.832-.093-.26.042-.546.302-.639.261-.094.547.043.639.302.134.375.202.767.202,1.168,0,1.243-.644,2.365-1.723,3-.174.103-.278.286-.277.492,0,1.396-.822,2.592-2,3.157v1.851c0,.827-.673,1.5-1.5,1.5s-1.5-.673-1.5-1.5v-1.573c-.655.678-1.557,1.073-2.5,1.073-.665,0-1.314-.192-1.878-.557-.075-.049-.168-.049-.244,0-1.01.653-2.313.685-3.378.191v.866c0,.827-.673,1.5-1.5,1.5s-1.5-.673-1.5-1.5v-1.551c-1.692-.245-3-1.691-3-3.449,0-.214-.103-.397-.277-.5-1.079-.635-1.723-1.757-1.723-3s.644-2.365,1.723-3c.174-.103.278-.287.277-.492,0-1.938,1.57-3.508,3.5-3.508.397,0,.791.071,1.171.211.084.03.185.003.252-.07,1.124-1.231,3.101-1.486,4.495-.558.049.032.114.033.165,0,.431-.287.914-.472,1.417-.546v-1.537c0-.222.034-.435.065-.648-.807-.194-1.548-.644-1.955-1.298-.258-.414-.044-.96.431-1.072.706-.167,1.912-.402,3.277-.574.751-.562,1.673-.908,2.682-.908s1.93.345,2.682.908c1.364.172,2.571.407,3.277.574.475.113.689.658.431,1.072Zm-6.39,18.446c-.168,0-.334-.02-.5-.045v1.545c0,.275.224.5.5.5s.5-.225.5-.5v-1.551c-.165.024-.329.051-.5.051Zm-11.5-.045v1.545c0,.275.224.5.5.5s.5-.225.5-.5c0,0,.01-1.54.012-1.56-.028-.029-.062-.051-.089-.081-.067-.073-.168-.102-.252-.069-.219.081-.444.132-.67.166ZM21,4.5c0-1.93-1.57-3.5-3.5-3.5s-3.5,1.57-3.5,3.5v3.879c0,2.281,2.193,2.621,3.5,2.621s3.5-.34,3.5-2.621v-3.879Z"/>
</svg>
