<?xml version="1.0" encoding="UTF-8"?>
<svg xmlns="http://www.w3.org/2000/svg" id="Layer_1" data-name="Layer 1" viewBox="0 0 24 24">
  <path d="m16.5,0H7.5C5.019,0,3,2.019,3,4.5v15c0,2.481,2.019,4.5,4.5,4.5h9c2.481,0,4.5-2.019,4.5-4.5V4.5c0-2.481-2.019-4.5-4.5-4.5Zm3.5,19.5c0,1.93-1.57,3.5-3.5,3.5H7.5c-1.93,0-3.5-1.57-3.5-3.5V4.5c0-1.93,1.57-3.5,3.5-3.5h9c1.93,0,3.5,1.57,3.5,3.5v15Zm-7.01-11.607c-.452-.645-1.527-.645-1.979,0l-2.21,3.158c-.398.569-.398,1.333,0,1.901l2.211,3.159c.226.322.596.515.989.515s.763-.192.99-.515l2.21-3.159c.398-.568.398-1.332,0-1.901l-2.21-3.159Zm1.391,4.486h0s-2.21,3.159-2.21,3.159c-.108.154-.234.154-.341,0l-2.21-3.159c-.158-.225-.158-.528,0-.754l2.21-3.158c.054-.078.13-.089.17-.089s.116.012.17.089l2.21,3.158c.158.226.158.529,0,.754Z"/>
</svg>
