<?xml version="1.0" encoding="UTF-8"?>
<svg xmlns="http://www.w3.org/2000/svg" id="Layer_1" data-name="Layer 1" viewBox="0 0 24 24">
  <path d="m12,10c1.379,0,2.5-1.121,2.5-2.5s-1.121-2.5-2.5-2.5-2.5,1.121-2.5,2.5,1.121,2.5,2.5,2.5Zm0-4c.827,0,1.5.673,1.5,1.5s-.673,1.5-1.5,1.5-1.5-.673-1.5-1.5.673-1.5,1.5-1.5Zm1,5h-2c-1.654,0-3,1.346-3,3v3c0,1.304.836,2.415,2,2.828v3.672c0,.276.224.5.5.5s.5-.224.5-.5v-3.5h2v3.5c0,.276.224.5.5.5s.5-.224.5-.5v-3.672c1.164-.413,2-1.524,2-2.828v-3c0-1.654-1.346-3-3-3Zm2,6c0,1.103-.897,2-2,2h-2c-1.103,0-2-.897-2-2v-3c0-1.103.897-2,2-2h2c1.103,0,2,.897,2,2v3Zm4.5-12c1.379,0,2.5-1.121,2.5-2.5s-1.121-2.5-2.5-2.5-2.5,1.121-2.5,2.5,1.121,2.5,2.5,2.5Zm0-4c.827,0,1.5.673,1.5,1.5s-.673,1.5-1.5,1.5-1.5-.673-1.5-1.5.673-1.5,1.5-1.5Zm4.5,8.5v4c0,1.393-.819,2.599-2,3.162v6.838c0,.276-.224.5-.5.5s-.5-.224-.5-.5v-6.536c-.163.023-.33.036-.5.036h-2c-.276,0-.5-.224-.5-.5s.224-.5.5-.5h2c1.379,0,2.5-1.121,2.5-2.5v-4c0-1.379-1.121-2.5-2.5-2.5h-2c-.438,0-.871.115-1.25.334-.24.139-.546.057-.683-.183-.139-.239-.057-.545.183-.683.53-.307,1.136-.469,1.75-.469h2c1.93,0,3.5,1.57,3.5,3.5ZM4.5,5c1.379,0,2.5-1.121,2.5-2.5S5.879,0,4.5,0s-2.5,1.121-2.5,2.5,1.121,2.5,2.5,2.5Zm0-4c.827,0,1.5.673,1.5,1.5s-.673,1.5-1.5,1.5-1.5-.673-1.5-1.5.673-1.5,1.5-1.5Zm2.933,6.151c-.137.24-.442.322-.683.183-.379-.219-.812-.334-1.25-.334h-2c-1.379,0-2.5,1.121-2.5,2.5v4c0,1.379,1.121,2.5,2.5,2.5h2c.276,0,.5.224.5.5s-.224.5-.5.5h-2c-.17,0-.337-.012-.5-.036v6.536c0,.276-.224.5-.5.5s-.5-.224-.5-.5v-6.838c-1.181-.563-2-1.769-2-3.162v-4c0-1.93,1.57-3.5,3.5-3.5h2c.614,0,1.22.162,1.75.469.239.138.321.443.183.683Z"/>
</svg>
