<?xml version="1.0" encoding="UTF-8"?>
<svg xmlns="http://www.w3.org/2000/svg" id="Layer_1" data-name="Layer 1" viewBox="0 0 24 24">
  <path d="m19.847,19.64c.199.191.205.508.014.707l-2.96,3.076c-.389.389-.896.583-1.403.583-.504,0-1.007-.192-1.391-.576l-2.967-3.083c-.191-.199-.186-.516.014-.707.198-.19.515-.185.707.014l2.96,3.076c.053.053.119.081.18.119v-9.348c0-.276.224-.5.5-.5s.5.224.5.5v9.346c.064-.039.132-.069.187-.124l2.953-3.069c.193-.199.51-.204.707-.014Zm-1.698-12.452c-.441-.099-.807-.378-1.001-.767-1.614-3.221-5.101-4.942-8.674-4.279-3.135.582-5.669,3.081-6.308,6.218-.189.934-.217,1.875-.083,2.796.083.568-.058,1.074-.386,1.387-1.095,1.045-1.697,2.451-1.697,3.958,0,3.033,2.468,5.5,5.5,5.5h4c.276,0,.5-.224.5-.5s-.224-.5-.5-.5h-4c-2.481,0-4.5-2.019-4.5-4.5,0-1.23.493-2.379,1.389-3.234.565-.54.814-1.362.685-2.255-.118-.807-.094-1.632.073-2.452.558-2.742,2.771-4.926,5.509-5.434,3.132-.58,6.185.924,7.598,3.744.33.658.941,1.13,1.677,1.294,2.938.659,5.07,3.324,5.07,6.337,0,1.475-.481,2.866-1.393,4.021-.171.217-.134.531.083.702.218.171.532.134.702-.083,1.052-1.333,1.607-2.938,1.607-4.64,0-3.533-2.406-6.54-5.852-7.312Z"/>
</svg>
