<?xml version="1.0" encoding="UTF-8"?>
<svg xmlns="http://www.w3.org/2000/svg" id="Layer_1" data-name="Layer 1" viewBox="0 0 24 24">
  <path d="m17,21.5c0,.276-.224.5-.5.5H7.5c-.276,0-.5-.224-.5-.5s.224-.5.5-.5h4v-2h-7c-2.481,0-4.5-2.019-4.5-4.5V6.5c0-.584.11-1.152.328-1.688.104-.256.396-.378.651-.275.256.104.379.396.275.651-.169.416-.254.857-.254,1.312v8c0,1.93,1.57,3.5,3.5,3.5h10c.276,0,.5.224.5.5s-.224.5-.5.5h-2v2h4c.276,0,.5.224.5.5Zm2.688-2.519l4.165,4.165c.195.195.195.512,0,.707-.098.098-.226.146-.354.146s-.256-.049-.354-.146L.146.854C-.049.658-.049.342.146.146S.658-.049.854.146l2.13,2.13c.486-.175.993-.276,1.517-.276h15c2.481,0,4.5,2.019,4.5,4.5v8c0,2.417-1.919,4.38-4.312,4.481Zm3.312-4.481V6.5c0-1.93-1.57-3.5-3.5-3.5H4.5c-.243,0-.482.029-.716.077l14.923,14.923h.793c1.93,0,3.5-1.57,3.5-3.5Z"/>
</svg>
