<?xml version="1.0" encoding="UTF-8"?>
<svg xmlns="http://www.w3.org/2000/svg" id="Layer_1" data-name="Layer 1" viewBox="0 0 24 24">
  <path d="m24,23.5c0,.276-.224.5-.5.5H3.716c-1.323,0-2.516-.679-3.191-1.816-.675-1.137-.701-2.509-.068-3.671L10.397.261c.131-.241.434-.331.678-.2.242.133.332.437.2.679L1.335,18.991c-.462.849-.443,1.852.05,2.682.494.831,1.365,1.327,2.332,1.327h19.784c.276,0,.5.224.5.5ZM15.634,6.867c.099.105.232.159.366.159.122,0,.245-.045.341-.135.202-.188.213-.504.025-.706-1.078-1.156-2.284-2.189-3.585-3.072-.228-.152-.539-.095-.695.134-.155.229-.095.539.133.694,1.239.84,2.388,1.824,3.415,2.926Zm3.985,6.315c.078.197.266.317.465.317.061,0,.123-.011.183-.035.257-.101.383-.391.282-.647-.642-1.633-1.49-3.184-2.522-4.61-.162-.224-.476-.273-.698-.112-.224.162-.274.475-.112.698.983,1.358,1.791,2.836,2.402,4.39Zm.782,2.439c.397,1.585.599,3.227.599,4.878,0,.276.224.5.5.5s.5-.224.5-.5c0-1.733-.212-3.456-.629-5.122-.067-.268-.337-.428-.606-.363-.268.067-.431.339-.363.607Z"/>
</svg>
