<?xml version="1.0" encoding="UTF-8"?>
<svg xmlns="http://www.w3.org/2000/svg" id="Layer_1" data-name="Layer 1" viewBox="0 0 24 24">
  <path d="m20,23.5c0,.276-.224.5-.5.5H4.5c-.276,0-.5-.224-.5-.5s.224-.5.5-.5h7V3.128l-5.867-1.404c-.137-.034-.272-.032-.403-.01l.9,2.227c.104.256-.02.548-.276.651-.062.025-.125.037-.188.037-.198,0-.385-.118-.463-.312l-.768-1.9-.767,1.9c-.103.256-.395.381-.651.276-.256-.103-.379-.395-.276-.651l.781-1.932c.333-.947,1.345-1.497,2.343-1.258l5.635,1.349V.5c0-.276.224-.5.5-.5s.5.224.5.5v1.839l6.058,1.45c.405.097.771.298,1.076.568.003.001.006,0,.009.002.141.058.234.175.278.308.146.183.276.38.367.601l.995,2.414c.105.255-.017.547-.272.653-.062.025-.127.038-.19.038-.196,0-.383-.117-.462-.31l-.852-2.067-1.198,2.889c-.08.192-.266.309-.462.309-.064,0-.129-.012-.191-.038-.255-.106-.376-.398-.271-.653l1.45-3.499c-.154-.108-.322-.196-.509-.241l-5.826-1.394v19.633h7c.276,0,.5.224.5.5Zm-15.5-6.5C2.296,17,.322,15.274.005,13.071c0,0-.001-.288-.003-.587-.002-.425.087-.845.259-1.233l.275-.618c.104-.255.395-.379.651-.276.256.104.379.395.276.651l-.401.992h6.888l-.401-.992c-.104-.256.02-.547.276-.651.257-.104.547.02.651.276l.275.634c.164.377.249.784.249,1.196v.538c-.324,2.311-2.257,4-4.5,4Zm0-1c1.697,0,3.217-1.312,3.494-3H1.006c.279,1.688,1.8,3,3.494,3Zm-2.104-5.877c.098.098.226.146.354.146s.256-.049.354-.146l1.396-1.396,1.396,1.396c.098.098.226.146.354.146s.256-.049.354-.146c.195-.195.195-.512,0-.707l-1.396-1.396,1.396-1.396c.195-.195.195-.512,0-.707s-.512-.195-.707,0l-1.396,1.396-1.396-1.396c-.195-.195-.512-.195-.707,0s-.195.512,0,.707l1.396,1.396-1.396,1.396c-.195.195-.195.512,0,.707Zm16.727,1.877h-.003c-.168,0-.327-.068-.445-.188l-1.145-1.167c-.194-.197-.511-.201-.707-.007-.197.193-.2.51-.007.707l1.145,1.167c.307.313.716.486,1.154.489h.009c.435,0,.844-.169,1.151-.477l2.579-2.579c.195-.195.195-.512,0-.707s-.512-.195-.707,0l-2.579,2.579c-.119.119-.276.184-.444.184Zm4.877,4c-.324,2.311-2.257,4-4.5,4-2.204,0-4.183-1.726-4.5-3.929v-.733c0-.37.068-.736.202-1.081l.482-1.247c.094-.259.381-.393.641-.3.26.094.394.381.3.641l-.598,1.65h6.945l-.873-2.255c-.1-.258.028-.547.286-.647.257-.1.547.028.647.286l.749,1.841c.146.359.221.743.221,1.13v.645Zm-1.006,0h-6.988c.279,1.688,1.8,3,3.494,3s3.217-1.312,3.494-3Z"/>
</svg>
