<?xml version="1.0" encoding="UTF-8"?>
<svg xmlns="http://www.w3.org/2000/svg" id="Layer_1" data-name="Layer 1" viewBox="0 0 24 24">
  <path d="m22.272,12.304l-2.999-2.347c-1.635-1.278-3.915-1.278-5.546,0l-3.001,2.348c-1.097.859-1.727,2.15-1.727,3.544v4.152c0,2.206,1.794,4,4,4h7c2.206,0,4-1.794,4-4v-4.152c0-1.393-.63-2.685-1.728-3.544Zm.728,7.696c0,1.654-1.346,3-3,3h-7c-1.654,0-3-1.346-3-3v-4.152c0-1.084.489-2.089,1.343-2.756l3.001-2.348c.635-.497,1.396-.745,2.156-.745s1.521.249,2.157.745l2.999,2.347c.854.668,1.344,1.673,1.344,2.757v4.152Zm-5.5-5h-2c-.827,0-1.5.673-1.5,1.5v2c0,.827.673,1.5,1.5,1.5h2c.827,0,1.5-.673,1.5-1.5v-2c0-.827-.673-1.5-1.5-1.5Zm.5,3.5c0,.276-.225.5-.5.5h-2c-.275,0-.5-.224-.5-.5v-2c0-.276.225-.5.5-.5h2c.275,0,.5.224.5.5v2Zm-11.067-3.552c-.092.16-.26.25-.433.25-.085,0-.171-.021-.25-.067-.351-.203-.679-.438-.981-.698l-1.915,1.921c-.098.098-.226.147-.354.147s-.255-.049-.353-.146c-.195-.195-.196-.511,0-.707l1.917-1.924c-.886-1.039-1.436-2.343-1.543-3.727H.5c-.276,0-.5-.224-.5-.5s.224-.5.5-.5h2.519c.109-1.416.674-2.706,1.547-3.723l-1.92-1.92c-.195-.195-.195-.512,0-.707s.512-.195.707,0l1.92,1.92c1.018-.873,2.308-1.438,3.724-1.547l.003-2.52c0-.276.224-.5.5-.5h0c.276,0,.5.225.5.5l-.003,2.519c1.384.107,2.688.657,3.726,1.543l1.924-1.917c.195-.194.512-.195.707,0,.194.196.194.512-.002.707l-1.921,1.914c.26.302.495.63.698.982.139.239.057.545-.183.683-.237.138-.544.057-.683-.182-.981-1.697-2.807-2.75-4.765-2.75-3.033,0-5.5,2.467-5.5,5.5,0,1.958,1.054,3.783,2.75,4.765.239.138.321.444.182.683Z"/>
</svg>
