<?xml version="1.0" encoding="UTF-8"?>
<svg xmlns="http://www.w3.org/2000/svg" id="Layer_1" data-name="Layer 1" viewBox="0 0 24 24">
  <path d="m24,23.5c0,.276-.224.5-.5.5H.5c-.276,0-.5-.224-.5-.5s.224-.5.5-.5h1.5v-7.5c0-.276.224-.5.5-.5s.5.224.5.5v7.5h18v-7.5c0-.276.224-.5.5-.5s.5.224.5.5v7.5h1.5c.276,0,.5.224.5.5ZM2,12.5V4.5C2,2.019,4.019,0,6.5,0h11c2.481,0,4.5,2.019,4.5,4.5v8c0,.276-.224.5-.5.5H2.5c-.276,0-.5-.224-.5-.5ZM17.5,1h-5v11h8.5v-7.5c0-1.93-1.57-3.5-3.5-3.5ZM3,12h8.5V1h-5c-1.93,0-3.5,1.57-3.5,3.5v7.5Z"/>
</svg>
