<?xml version="1.0" encoding="UTF-8"?>
<svg xmlns="http://www.w3.org/2000/svg" id="Layer_1" data-name="Layer 1" viewBox="0 0 24 24">
  <path d="m12,7.5c0,.276-.224.5-.5.5h-6.2c-.717,0-1.3-.583-1.3-1.3v-1.4c0-.717.583-1.3,1.3-1.3h3.2c.276,0,.5.224.5.5s-.224.5-.5.5h-3.2c-.166,0-.3.134-.3.3v1.4c0,.166.134.3.3.3h6.2c.276,0,.5.224.5.5Zm-6.5,2.5h-1c-.276,0-.5.224-.5.5s.224.5.5.5h1c.276,0,.5-.224.5-.5s-.224-.5-.5-.5Zm8,0h-1c-.276,0-.5.224-.5.5s.224.5.5.5h1c.276,0,.5-.224.5-.5s-.224-.5-.5-.5Zm-8,3h-1c-.276,0-.5.224-.5.5s.224.5.5.5h1c.276,0,.5-.224.5-.5s-.224-.5-.5-.5Zm8,0h-1c-.276,0-.5.224-.5.5s.224.5.5.5h1c.276,0,.5-.224.5-.5s-.224-.5-.5-.5Zm-4-3h-1c-.276,0-.5.224-.5.5s.224.5.5.5h1c.276,0,.5-.224.5-.5s-.224-.5-.5-.5Zm0,3h-1c-.276,0-.5.224-.5.5s.224.5.5.5h1c.276,0,.5-.224.5-.5s-.224-.5-.5-.5Zm-4,3h-1c-.276,0-.5.224-.5.5s.224.5.5.5h1c.276,0,.5-.224.5-.5s-.224-.5-.5-.5Zm8,0h-1c-.276,0-.5.224-.5.5s.224.5.5.5h1c.276,0,.5-.224.5-.5s-.224-.5-.5-.5Zm-4,0h-1c-.276,0-.5.224-.5.5s.224.5.5.5h1c.276,0,.5-.224.5-.5s-.224-.5-.5-.5Zm-4,3h-1c-.276,0-.5.224-.5.5s.224.5.5.5h1c.276,0,.5-.224.5-.5s-.224-.5-.5-.5Zm8,0h-1c-.276,0-.5.224-.5.5s.224.5.5.5h1c.276,0,.5-.224.5-.5s-.224-.5-.5-.5Zm-4,0h-1c-.276,0-.5.224-.5.5s.224.5.5.5h1c.276,0,.5-.224.5-.5s-.224-.5-.5-.5Zm10-8c-.276,0-.5.224-.5.5v8c0,.276-.224.5-.5.5h-.551c.019-.166.051-.329.051-.5v-7c0-.276-.224-.5-.5-.5s-.5.224-.5.5v7c0,1.93-1.57,3.5-3.5,3.5H4.5c-1.93,0-3.5-1.57-3.5-3.5V4.5c0-1.93,1.57-3.5,3.5-3.5h5c.276,0,.5-.224.5-.5s-.224-.5-.5-.5h-5C2.019,0,0,2.019,0,4.5v15c0,2.481,2.019,4.5,4.5,4.5h9c1.953,0,3.602-1.258,4.224-3h.776c.827,0,1.5-.673,1.5-1.5v-8c0-.276-.224-.5-.5-.5Zm-6.389-5.389c-.195.195-.195.512,0,.707s.512.195.707,0c1.755-1.755,4.609-1.755,6.364,0,.098.098.226.146.354.146s.256-.049.354-.146c.195-.195.195-.512,0-.707-2.145-2.145-5.634-2.145-7.778,0Zm10.223-3.192c-3.61-3.234-9.058-3.234-12.668,0-.206.185-.223.5-.039.706.186.206.501.224.706.039,3.23-2.895,8.104-2.895,11.334,0,.095.085.214.127.333.127.137,0,.273-.056.373-.167.184-.206.167-.521-.039-.706Zm-5.334,6.581c0-.552-.448-1-1-1s-1,.448-1,1,.448,1,1,1,1-.448,1-1Z"/>
</svg>
