<?xml version="1.0" encoding="UTF-8"?>
<svg xmlns="http://www.w3.org/2000/svg" id="Layer_1" data-name="Layer 1" viewBox="0 0 24 24">
  <path d="m17.235,14.291l-1.967-4.267h1.4c.583,0,1.118.343,1.362.872l1.296,2.812c.116.251.411.36.664.245.25-.115.36-.413.245-.663l-1.296-2.812c-.407-.884-1.298-1.454-2.271-1.454h-3.528c-.872,0-1.692.464-2.142,1.211l-1.84,3.057c-.27.448-.763.727-1.286.727h-.006l-2.362-.019h-.004c-.274,0-.498.222-.5.496-.002.276.22.502.496.504l2.364.019h.01c.874,0,1.695-.463,2.145-1.211l1.502-2.494,2.778,6.028-2.027,1.149c-.782.442-1.268,1.276-1.268,2.175v2.835c0,.276.224.5.5.5s.5-.224.5-.5v-2.835c0-.539.291-1.039.76-1.305l3.507-1.988c1.028-.65,1.438-1.938.968-3.081Zm-1.482,2.224l-.586.332-2.98-6.466c.266-.221.599-.356.953-.356h1.028l2.151,4.666c.277.674.031,1.446-.565,1.824ZM5.5,1c-1.93,0-3.5,1.57-3.5,3.5l-.002,19c0,.276-.224.5-.5.5s-.5-.224-.5-.5l.002-19C1,2.019,3.019,0,5.5,0h9c2.481,0,4.5,2.019,4.5,4.5v2c0,.276-.224.5-.5.5s-.5-.224-.5-.5v-2c0-1.93-1.57-3.5-3.5-3.5H5.5Zm3.5,4.5c0,1.379,1.122,2.5,2.5,2.5s2.5-1.121,2.5-2.5-1.122-2.5-2.5-2.5-2.5,1.121-2.5,2.5Zm4,0c0,.827-.673,1.5-1.5,1.5s-1.5-.673-1.5-1.5.673-1.5,1.5-1.5,1.5.673,1.5,1.5Zm10,14c0,.276-.224.5-.5.5h-3.264c-.953,0-1.81-.529-2.236-1.382-.124-.247-.023-.547.224-.671.248-.125.547-.022.671.224.256.512.77.829,1.341.829h3.264c.276,0,.5.224.5.5Z"/>
</svg>
