<?xml version="1.0" encoding="UTF-8"?>
<svg xmlns="http://www.w3.org/2000/svg" id="Layer_1" data-name="Layer 1" viewBox="0 0 24 24">
  <path d="m22,20.334v-1.334c0-1.103-.897-2-2-2s-2,.897-2,2v1.335l-1.366,1.845c-.196.393-.176.851.055,1.224.23.374.631.597,1.07.597h4.482c.439,0,.839-.223,1.07-.597.231-.373.251-.831.009-1.299l-1.32-1.77Zm-3-1.334c0-.551.449-1,1-1s1,.449,1,1v1h-2v-1Zm3.46,3.878c-.022.037-.089.122-.219.122h-4.482c-.13,0-.197-.085-.219-.122-.023-.037-.069-.135-.058-.176l1.269-1.702h2.499l1.221,1.627c.058.116.012.214-.011.251Zm-.382-20.957C20.679.522,18.727-.151,16.581.028c-2.114.176-4.167,1.162-5.779,2.774s-2.598,3.665-2.774,5.779c-.164,1.964.386,3.766,1.554,5.13l-3.607,3.607c-.818-.482-1.943-.379-2.632.308l-2.716,2.716c-.835.835-.835,2.195,0,3.031.418.418.967.627,1.515.627s1.098-.209,1.516-.627l2.716-2.716c.714-.714.817-1.81.311-2.635l3.604-3.604c1.207,1.033,2.755,1.582,4.456,1.582.222,0,.447-.009.674-.028,2.114-.176,4.166-1.162,5.779-2.774s2.598-3.665,2.774-5.779c.179-2.146-.494-4.098-1.894-5.498ZM5.667,19.95l-2.716,2.716c-.445.445-1.169.446-1.617,0-.445-.446-.445-1.171,0-1.617l2.716-2.716c.215-.215.502-.334.808-.334s.593.119.809.334c.445.446.445,1.171,0,1.617ZM22.976,7.335c-.157,1.879-1.039,3.709-2.485,5.155s-3.276,2.328-5.155,2.485c-1.846.156-3.52-.416-4.707-1.604-1.188-1.188-1.758-2.86-1.604-4.707.156-1.879,1.039-3.709,2.484-5.155s3.277-2.328,5.155-2.485c.198-.017.395-.025.588-.025,1.613,0,3.059.568,4.12,1.629,1.188,1.188,1.758,2.86,1.604,4.707Z"/>
</svg>
