<?xml version="1.0" encoding="UTF-8"?>
<svg xmlns="http://www.w3.org/2000/svg" id="Layer_1" data-name="Layer 1" viewBox="0 0 24 24">
  <path d="m21.5,5h-2.5v-.5c0-1.379-1.122-2.5-2.5-2.5H4.539c-1.378,0-2.5,1.121-2.5,2.5v10c0,2.481,2.019,4.5,4.5,4.5h7.961c2.481,0,4.5-2.019,4.5-4.5v-.5h2.5c1.378,0,2.5-1.121,2.5-2.5v-4c0-1.379-1.122-2.5-2.5-2.5Zm-12,2.207l1.061,1.061c.279.279.439.666.439,1.061v1.672c0,.552-.449,1-1,1h-1c-.551,0-1-.448-1-1v-1.672c0-.395.16-.781.439-1.061l1.061-1.061Zm8.5,7.293c0,1.93-1.57,3.5-3.5,3.5h-7.961c-1.93,0-3.5-1.57-3.5-3.5V4.5c0-.827.673-1.5,1.5-1.5h4.461v3.293l-1.268,1.268c-.472.473-.732,1.1-.732,1.768v1.672c0,1.103.897,2,2,2h1c1.103,0,2-.897,2-2v-1.672c0-.668-.26-1.295-.732-1.768l-1.268-1.268v-3.293h6.5c.827,0,1.5.673,1.5,1.5v10Zm5-3c0,.827-.673,1.5-1.5,1.5h-2.5v-7h2.5c.827,0,1.5.673,1.5,1.5v4Zm-1.942,10c0,.276-.224.5-.5.5H.481c-.276,0-.5-.224-.5-.5s.224-.5.5-.5h20.077c.276,0,.5.224.5.5Z"/>
</svg>
