<?xml version="1.0" encoding="UTF-8"?>
<svg xmlns="http://www.w3.org/2000/svg" id="Layer_1" data-name="Layer 1" viewBox="0 0 24 24">
  <path d="m12.918,21.525c.3.516.302,1.132.005,1.648-.297.518-.831.826-1.427.826h-1.997c-.276,0-.5-.224-.5-.5s.224-.5.5-.5h1.997c.337,0,.504-.227.56-.324.056-.098.167-.355-.002-.646l-4.497-7.709c-.237-.406-.877-.406-1.116,0l-4.496,7.709c-.17.291-.058.549-.002.646.056.098.223.324.56.324h1.997c.276,0,.5.224.5.5s-.224.5-.5.5h-1.997c-.597,0-1.13-.309-1.427-.826-.297-.517-.295-1.133.005-1.648l4.497-7.709c.299-.512.83-.816,1.422-.816s1.123.305,1.421.816l4.497,7.709Zm-5.418-1.025v-3c0-.276-.224-.5-.5-.5s-.5.224-.5.5v3c0,.276.224.5.5.5s.5-.224.5-.5Zm-.5,1.5c-.552,0-1,.448-1,1s.448,1,1,1,1-.448,1-1-.448-1-1-1Zm-4.273-7.971c.084.055.179.081.272.081.164,0,.323-.08.419-.227.151-.231.085-.541-.146-.692-1.423-.928-2.273-2.495-2.273-4.191,0-2.757,2.242-4.999,5.022-4.999h.002c.193,0,.368-.11.451-.285.799-1.675,2.438-2.716,4.275-2.716,1.324,0,2.558.544,3.474,1.532.17.184.45.211.656.068.555-.393,1.202-.601,1.871-.601,1.718,0,3.137,1.351,3.23,3.076.013.238.194.436.431.468,1.476.204,2.589,1.475,2.589,2.956,0,.544-.148,1.075-.428,1.538-.143.236-.067.544.169.687.237.142.543.067.687-.169.375-.618.572-1.329.572-2.056,0-1.845-1.291-3.444-3.061-3.872-.303-2.063-2.073-3.628-4.189-3.628-.735,0-1.45.19-2.088.555-1.071-1.006-2.445-1.555-3.912-1.555-2.123,0-4.024,1.144-5.035,3.007-3.177.149-5.715,2.78-5.715,5.993,0,2.036,1.02,3.916,2.727,5.029Zm15.773-3.029c-.542,0-1.094.09-1.647.268-2.147-1.581-5.234-1.655-7.447-.184-.23.152-.292.463-.14.692.154.231.463.292.693.14,1.952-1.298,4.652-1.18,6.488.302.137.109.322.138.488.079,3.112-1.159,6.064,1.213,6.064,4.203s-2.953,5.361-6.064,4.203c-.166-.061-.351-.031-.488.079-.356.287-.746.528-1.157.718-.251.115-.361.412-.245.663.084.184.265.291.455.291.07,0,.141-.015.208-.046.402-.185.785-.412,1.144-.676.553.178,1.106.268,1.647.268,3.033,0,5.5-2.468,5.5-5.5s-2.467-5.5-5.5-5.5Z"/>
</svg>
