<?xml version="1.0" encoding="UTF-8"?>
<svg xmlns="http://www.w3.org/2000/svg" id="Layer_1" data-name="Layer 1" viewBox="0 0 24 24">
  <path d="m22,13.051v-1.551c0-1.93-1.57-3.5-3.5-3.5H5.5c-1.93,0-3.5,1.57-3.5,3.5v1.551c-1.14.232-2,1.242-2,2.449v2.5c0,1.478.815,2.757,2.01,3.449-.002.018-.01,2.051-.01,2.051,0,.276.224.5.5.5s.5-.224.5-.5v-1.642c.322.084.653.142,1,.142h16c.347,0,.678-.058,1-.142v1.642c0,.276.224.5.5.5s.5-.224.5-.5c0,0-.008-2.033-.01-2.051,1.195-.692,2.01-1.971,2.01-3.449v-2.5c0-1.207-.86-2.217-2-2.449ZM5.5,9h13c1.378,0,2.5,1.122,2.5,2.5v1.551c-1.14.232-2,1.242-2,2.449v1.5H5v-1.5c0-1.207-.86-2.217-2-2.449v-1.551c0-1.378,1.122-2.5,2.5-2.5Zm17.5,9c0,1.654-1.346,3-3,3H4c-1.654,0-3-1.346-3-3v-2.5c0-.827.673-1.5,1.5-1.5s1.5.673,1.5,1.5v2c0,.276.224.5.5.5h15c.276,0,.5-.224.5-.5v-2c0-.827.673-1.5,1.5-1.5s1.5.673,1.5,1.5v2.5ZM.389,4.413c-.235-.208-.389-.553-.389-.913s.154-.705.422-.946L2.633.161c.187-.204.503-.216.707-.028.203.188.215.504.028.707l-1.998,2.161h21.265l-2.001-2.161c-.188-.203-.175-.519.028-.707.202-.188.518-.176.707.028l2.244,2.426c.235.208.389.553.389.913s-.154.705-.422.946l-2.211,2.394c-.099.106-.233.161-.367.161-.122,0-.243-.044-.339-.133-.203-.188-.215-.504-.028-.707l1.998-2.161H1.366l2.001,2.161c.188.203.175.519-.028.707-.096.089-.218.133-.339.133-.134,0-.269-.054-.367-.161L.389,4.413Z"/>
</svg>
