<?xml version="1.0" encoding="UTF-8"?>
<svg xmlns="http://www.w3.org/2000/svg" id="Layer_1" data-name="Layer 1" viewBox="0 0 24 24">
  <path d="m11,23.5c0,.276-.224.5-.5.5h-6c-1.93,0-3.5-1.57-3.5-3.5v-9.558c-.617-.631-1-1.492-1-2.442C0,8.459,2.015.379,2.015.379c.056-.223.255-.379.485-.379h19c.229,0,.429.156.485.379,0,0,2.015,8.08,2.015,8.121,0,.862-.316,1.691-.892,2.333-.185.206-.5.224-.706.039-.206-.184-.223-.5-.039-.706.397-.444.622-1.013.636-1.608l-1.89-7.559h-4.109v3.5c0,.276-.224.5-.5.5s-.5-.224-.5-.5V1h-8v3.5c0,.276-.224.5-.5.5s-.5-.224-.5-.5V1H2.891l-1.89,7.559c.032,1.352,1.141,2.441,2.5,2.441h1c1.378,0,2.5-1.122,2.5-2.5,0-.276.224-.5.5-.5s.5.224.5.5c0,1.378,1.122,2.5,2.5,2.5h1c.276,0,.5.224.5.5s-.224.5-.5.5h-1c-1.28,0-2.39-.698-3-1.726-.61,1.028-1.72,1.726-3,1.726h-1c-.539,0-1.044-.133-1.5-.351v8.851c0,1.379,1.122,2.5,2.5,2.5h6c.276,0,.5.224.5.5Zm13-6c0,3.584-2.916,6.5-6.5,6.5s-6.5-2.916-6.5-6.5,2.916-6.5,6.5-6.5,6.5,2.916,6.5,6.5Zm-1,0c0-3.032-2.467-5.5-5.5-5.5s-5.5,2.468-5.5,5.5,2.467,5.5,5.5,5.5,5.5-2.468,5.5-5.5Zm-2.857-1.369l-2.706,2.618c-.337.33-.886.334-1.223.004l-1.363-1.345c-.196-.194-.513-.191-.707.004-.194.197-.192.514.005.707l1.364,1.347c.362.354.837.531,1.312.531s.951-.178,1.311-.533l2.703-2.614c.198-.192.204-.509.012-.707-.191-.198-.508-.203-.707-.012Z"/>
</svg>
