<?xml version="1.0" encoding="UTF-8"?>
<svg xmlns="http://www.w3.org/2000/svg" id="Layer_1" data-name="Layer 1" viewBox="0 0 24 24">
  <path d="m17.993,0c-2.542,0-4.795,1.632-5.638,4H2.362c-.976,0-1.839.596-2.199,1.517-.347.886-.137,1.829.587,2.498l7.022,6.037c.501.456,1.104.725,1.728.821v8.127h-4c-.276,0-.5.224-.5.5s.224.5.5.5h9c.276,0,.5-.224.5-.5s-.224-.5-.5-.5h-4v-8.126c.621-.095,1.221-.361,1.718-.813l3.122-2.685c.828.41,1.718.623,2.65.625h.003s.004,0,.007,0h.003c3.304-.005,5.99-2.695,5.99-6S21.302,0,17.993,0Zm-6.438,13.312c-.409.371-.786.565-1.556.565s-1.152-.198-1.565-.574L1.39,7.245c-.381-.352-.491-.862-.295-1.363.159-.407.586-.882,1.268-.882h15.275c.682,0,1.108.475,1.268.882.196.501.086,1.011-.308,1.375l-7.042,6.055Zm6.441-2.312c-.632,0-1.241-.12-1.818-.346l3.111-2.675c.684-.633.894-1.576.547-2.462-.36-.921-1.224-1.517-2.199-1.517h-4.217c.786-1.793,2.575-3,4.573-3,2.757,0,5,2.243,5,5s-2.241,4.998-4.996,5Z"/>
</svg>
