<?xml version="1.0" encoding="UTF-8"?>
<svg xmlns="http://www.w3.org/2000/svg" id="Layer_1" data-name="Layer 1" viewBox="0 0 24 24">
  <path d="m22.5,6h-1.257c-.619-1.746-2.287-3-4.243-3H4.5c-.169,0-.336.01-.5.028v-1.528c0-.276-.224-.5-.5-.5s-.5.224-.5.5v1.757C1.254,3.876,0,5.544,0,7.5c0,1.863,1.138,3.466,2.756,4.148L.09,20.967c-.203.727-.058,1.487.397,2.089.456.6,1.149.944,1.903.944,1.067,0,2.013-.718,2.3-1.742l1.501-5.258h2.808v1.5c0,.276.224.5.5.5s.5-.224.5-.5v-4c0-.276-.224-.5-.5-.5s-.5.224-.5.5v1.5h-2.523l1.142-4h9.381c1.956,0,3.624-1.254,4.243-3h1.257c.827,0,1.5-.673,1.5-1.5s-.673-1.5-1.5-1.5ZM3.729,21.985c-.167.598-.718,1.015-1.338,1.015-.438,0-.842-.2-1.106-.549-.265-.35-.35-.793-.232-1.212l2.663-9.308c.255.045.517.069.785.069h2.08l-2.851,9.985Zm13.271-10.985H7.273c-.023-.002-.045-.001-.067,0h-2.706c-1.93,0-3.5-1.57-3.5-3.5s1.57-3.5,3.5-3.5h12.5c1.93,0,3.5,1.57,3.5,3.5s-1.57,3.5-3.5,3.5Zm5.5-3h-1.028c.018-.164.028-.331.028-.5s-.01-.336-.028-.5h1.028c.275,0,.5.225.5.5s-.225.5-.5.5Zm-10-2H4.5c-.827,0-1.5.673-1.5,1.5s.673,1.5,1.5,1.5h8c.827,0,1.5-.673,1.5-1.5s-.673-1.5-1.5-1.5Zm0,2H4.5c-.275,0-.5-.225-.5-.5s.225-.5.5-.5h8c.275,0,.5.225.5.5s-.225.5-.5.5Z"/>
</svg>
