<?xml version="1.0" encoding="UTF-8"?>
<svg xmlns="http://www.w3.org/2000/svg" id="Layer_1" data-name="Layer 1" viewBox="0 0 24 24">
  <path d="m12.5,0C6.71,0,2,4.71,2,10.5c0,2.859,1.183,5.574,3.243,7.55l-3.347,3.347c-.608.608-.608,1.599,0,2.207.294.295.687.457,1.104.457s.809-.162,1.104-.457l4.11-4.11c.295-.295.458-.687.458-1.104s-.163-.809-.458-1.104l-.675-.675c-.356-.82-.539-1.864-.539-3.112,0-4.136,3.364-7.5,7.5-7.5,3.593,0,6.688,2.562,7.358,6.093.045.236.275.407.515.407.247,0,.457-.18.494-.424.09-.588.132-1.089.132-1.576C23,4.71,18.29,0,12.5,0Zm-4.993,18.786l-4.11,4.11c-.219.219-.574.219-.793,0s-.219-.574,0-.793l4.507-4.507.396.396c.106.106.165.247.165.396s-.059.291-.165.396Zm6.993-13.786c-4.687,0-8.5,3.813-8.5,8.5,0,1.27.175,2.369.521,3.272l-.581.581c-1.874-1.789-2.939-4.261-2.939-6.854C3,5.262,7.262,1,12.5,1c4.864,0,8.886,3.675,9.436,8.395-1.461-2.649-4.279-4.395-7.436-4.395Z"/>
</svg>
