<?xml version="1.0" encoding="UTF-8"?>
<svg xmlns="http://www.w3.org/2000/svg" id="Layer_1" data-name="Layer 1" viewBox="0 0 24 24">
  <path d="m22.287,11.474l-3-.995c-.508-.168-1.067-.168-1.573,0l-3,.995c-1.025.339-1.713,1.293-1.713,2.373v3.701c0,3.616,3.869,5.83,5.054,6.422,0,0,.179.165.447.165s.418-.129.418-.129c1.192-.479,5.08-2.361,5.08-6.458v-3.702c0-1.08-.688-2.033-1.713-2.373Zm.713,6.074c0,3.469-3.409,5.109-4.453,5.53l-.023.009-.022-.011c-1.056-.527-4.501-2.485-4.501-5.528v-3.701c0-.648.413-1.22,1.028-1.424l3-.995c.152-.051.312-.076.472-.076s.319.025.472.076l3,.995c.615.204,1.028.775,1.028,1.423v3.702Zm-9.5-9.548H4.5c-.276,0-.5-.224-.5-.5s.224-.5.5-.5h9c.276,0,.5.224.5.5s-.224.5-.5.5Zm-2.5,3.5c0,.276-.224.5-.5.5h-6c-.276,0-.5-.224-.5-.5s.224-.5.5-.5h6c.276,0,.5.224.5.5Zm0,4c0,.276-.224.5-.5.5h-6c-.276,0-.5-.224-.5-.5s.224-.5.5-.5h6c.276,0,.5.224.5.5Zm2,8c0,.276-.224.5-.5.5H4.5c-2.481,0-4.5-2.019-4.5-4.5V6.5C0,4.019,2.019,2,4.5,2h.55c.232-1.14,1.242-2,2.45-2h3c1.208,0,2.217.86,2.45,2h.55c2.481,0,4.5,2.019,4.5,4.5v1c0,.276-.224.5-.5.5s-.5-.224-.5-.5v-1c0-1.93-1.57-3.5-3.5-3.5h-1c-.276,0-.5-.224-.5-.5,0-.827-.673-1.5-1.5-1.5h-3c-.827,0-1.5.673-1.5,1.5,0,.276-.224.5-.5.5h-1c-1.93,0-3.5,1.57-3.5,3.5v13c0,1.93,1.57,3.5,3.5,3.5h8c.276,0,.5.224.5.5Z"/>
</svg>
