<?xml version="1.0" encoding="UTF-8"?>
<svg xmlns="http://www.w3.org/2000/svg" id="Layer_1" data-name="Layer 1" viewBox="0 0 24 24">
  <path d="m9,9.495c0,.664.446,1.255,1.085,1.438l4.105,1.173c1.065.305,1.81,1.291,1.81,2.399,0,1.376-1.119,2.495-2.495,2.495h-1.005v1.5c0,.276-.224.5-.5.5s-.5-.224-.5-.5v-1.5h-1.005c-1.376,0-2.495-1.119-2.495-2.495,0-.276.224-.5.5-.5s.5.224.5.5c0,.824.671,1.495,1.495,1.495h3.01c.824,0,1.495-.671,1.495-1.495,0-.664-.446-1.255-1.085-1.438l-4.105-1.173c-1.065-.305-1.81-1.291-1.81-2.399,0-1.376,1.119-2.495,2.495-2.495h1.005v-1.5c0-.276.224-.5.5-.5s.5.224.5.5v1.5h1.005c1.376,0,2.495,1.119,2.495,2.495,0,.276-.224.5-.5.5s-.5-.224-.5-.5c0-.824-.671-1.495-1.495-1.495h-3.01c-.824,0-1.495.671-1.495,1.495Zm-2.146,7.651c.195.195.195.512,0,.707l-1.41,1.41c.35.491.556,1.09.556,1.737,0,1.654-1.346,3-3,3s-3-1.346-3-3,1.346-3,3-3c.647,0,1.246.207,1.737.556l1.41-1.41c.195-.195.512-.195.707,0Zm-1.854,3.854c0-1.103-.897-2-2-2s-2,.897-2,2,.897,2,2,2,2-.897,2-2Zm1.146-14.146l-1.41-1.41c-.491.35-1.09.556-1.737.556-1.654,0-3-1.346-3-3S1.346,0,3,0s3,1.346,3,3c0,.647-.207,1.246-.556,1.737l1.41,1.41c.195.195.195.512,0,.707s-.512.195-.707,0ZM3,1c-1.103,0-2,.897-2,2s.897,2,2,2,2-.897,2-2-.897-2-2-2Zm14.854,16.146l1.41,1.41c.491-.35,1.09-.556,1.737-.556,1.654,0,3,1.346,3,3,0,1.654-1.346,3-3,3s-3-1.346-3-3c0-.647.207-1.246.556-1.737l-1.41-1.41c-.195-.195-.195-.512,0-.707s.512-.195.707,0Zm3.146,5.854c1.103,0,2-.897,2-2,0-1.103-.897-2-2-2s-2,.897-2,2c0,1.103.897,2,2,2Zm-3.854-16.146c-.195-.195-.195-.512,0-.707l1.41-1.41c-.35-.491-.556-1.09-.556-1.737C18,1.346,19.346,0,21,0s3,1.346,3,3-1.346,3-3,3c-.647,0-1.246-.207-1.737-.556l-1.41,1.41c-.195.195-.512.195-.707,0Zm1.854-3.854c0,1.103.897,2,2,2s2-.897,2-2-.897-2-2-2-2,.897-2,2Z"/>
</svg>
