<?xml version="1.0" encoding="UTF-8"?>
<svg xmlns="http://www.w3.org/2000/svg" id="Layer_1" data-name="Layer 1" viewBox="0 0 24 24">
  <path d="m12,0C5.609,0,.383,5.026.034,11.332c-.019.053-.034.533-.034.668,0,6.617,5.383,12,12,12,2.436,0,4.781-.726,6.783-2.1.228-.156.286-.467.129-.695-.156-.227-.466-.285-.695-.129-1.835,1.259-3.985,1.924-6.217,1.924-6.061,0-10.993-4.928-10.999-10.988.606.034,1.083.546,1.377.986.433.646,1.009,1.002,1.623,1.002s1.191-.355,1.624-1.002c.294-.44.771-.953,1.378-.986.007,2.751,2.246,4.988,4.999,4.988,1.641,0,3.088-.806,4-2.031v1.531c0,.827.673,1.5,1.5,1.5s1.5-.673,1.5-1.5v-4.5c0-.552.449-1,1-1s1,.448,1,1v8.5c0,.827.673,1.5,1.5,1.5s1.5-.673,1.5-1.5v-8.5C24,5.383,18.617,0,12,0Zm0,16c-2.206,0-4-1.794-4-4s1.794-4,4-4,4,1.794,4,4-1.794,4-4,4Zm11,4.5c0,.275-.224.5-.5.5s-.5-.225-.5-.5v-8.5c0-1.103-.897-2-2-2s-2,.897-2,2v4.5c0,.275-.224.5-.5.5s-.5-.225-.5-.5v-4.5c0-2.757-2.243-5-5-5-2.414,0-4.434,1.721-4.899,4h-.042c-.853,0-1.637.499-2.267,1.441-.481.72-1.101.722-1.584,0-.603-.902-1.349-1.384-2.159-1.425C1.55,5.411,6.267,1,12,1c6.065,0,11,4.935,11,11v8.5Z"/>
</svg>
