<?xml version="1.0" encoding="UTF-8"?>
<svg xmlns="http://www.w3.org/2000/svg" id="Layer_1" data-name="Layer 1" viewBox="0 0 24 24">
  <path d="m21,0h-5c-1.103,0-2,.897-2,2v3c0,1.103.897,2,2,2h2v4h-4.959c-.488,0-.948-.239-1.229-.64l-1.709-2.441c-.842-1.202-2.22-1.919-3.687-1.919h-1.917c-1.93,0-3.5,1.57-3.5,3.5v4c0,1.393.819,2.599,2,3.162v6.838c0,.276.224.5.5.5s.5-.224.5-.5v-6.536c.163.023.33.036.5.036h2.5v6.5c0,.276.224.5.5.5s.5-.224.5-.5v-13c0-.276-.224-.5-.5-.5s-.5.224-.5.5v5.5h-2.5c-1.379,0-2.5-1.122-2.5-2.5v-4c0-1.378,1.121-2.5,2.5-2.5h1.917c1.141,0,2.213.558,2.868,1.493l1.708,2.441c.468.668,1.233,1.066,2.048,1.066h5.459c.276,0,.5-.224.5-.5v-4.5h2c1.103,0,2-.897,2-2v-3c0-1.103-.897-2-2-2Zm1,5c0,.551-.448,1-1,1h-5c-.552,0-1-.449-1-1v-3c0-.551.448-1,1-1h5c.552,0,1,.449,1,1v3Zm-16.5,0c1.379,0,2.5-1.122,2.5-2.5S6.879,0,5.5,0s-2.5,1.122-2.5,2.5,1.121,2.5,2.5,2.5Zm0-4c.827,0,1.5.673,1.5,1.5s-.673,1.5-1.5,1.5-1.5-.673-1.5-1.5.673-1.5,1.5-1.5Z"/>
</svg>
