<?xml version="1.0" encoding="UTF-8"?>
<svg xmlns="http://www.w3.org/2000/svg" id="Layer_1" data-name="Layer 1" viewBox="0 0 24 24">
  <path d="m11.929,8.5l-.471,6.5c-.043.705-.472,1-.988,1-.342,0-.66-.242-.841-.64l-1.164-2.56-1.164,2.56c-.181.398-.499.64-.841.64-.516,0-.945-.295-.988-1l-.471-6.5c-.02-.27.228-.5.499-.5.245,0,.508.19.525.434l.435,6.36,1.581-3.478c.166-.364.683-.364.848,0l1.581,3.477.53-6.367c.02-.241.222-.427.464-.427.271,0,.484.23.465.5Zm1.571-.5c-.276,0-.5.224-.5.5v7c0,.276.224.5.5.5s.5-.224.5-.5v-7c0-.276-.224-.5-.5-.5Zm6.5,2.5c0,1.378-1.121,2.5-2.5,2.5h-1.5v2.5c0,.276-.224.5-.5.5s-.5-.224-.5-.5v-6c0-.827.673-1.5,1.5-1.5h1c1.379,0,2.5,1.122,2.5,2.5Zm-1,0c0-.827-.673-1.5-1.5-1.5h-1c-.275,0-.5.224-.5.5v2.5h1.5c.827,0,1.5-.673,1.5-1.5Zm5,1.5c0,1.207-.47,2.341-1.323,3.194l-7.483,7.483c-.853.853-1.987,1.323-3.193,1.323s-2.341-.47-3.193-1.323L1.323,15.194c-.854-.853-1.323-1.987-1.323-3.194s.47-2.341,1.323-3.194L8.807,1.323c1.762-1.761,4.625-1.761,6.387,0l7.483,7.483c.854.853,1.323,1.987,1.323,3.194Zm-1,0c0-.939-.366-1.822-1.03-2.487l-7.483-7.483c-.686-.686-1.586-1.028-2.486-1.028s-1.801.343-2.486,1.028l-7.483,7.483c-.664.665-1.03,1.547-1.03,2.487s.366,1.822,1.03,2.487l7.483,7.483c1.328,1.329,3.645,1.329,4.973,0l7.483-7.483c.664-.665,1.03-1.547,1.03-2.487Z"/>
</svg>
