<?xml version="1.0" encoding="UTF-8"?>
<svg xmlns="http://www.w3.org/2000/svg" id="Layer_1" data-name="Layer 1" viewBox="0 0 24 24">
  <path d="m24,2v8.5c0,.276-.224.5-.5.5s-.5-.224-.5-.5V2c0-.09-.012-.177-.034-.259l-15.112,15.113c-.098.098-.226.146-.354.146s-.256-.049-.354-.146c-.195-.195-.195-.512,0-.707L22.258,1.034c-.082-.022-.169-.034-.258-.034h-8.5c-.276,0-.5-.224-.5-.5s.224-.5.5-.5h8.5c1.103,0,2,.897,2,2Zm-.5,12c-.276,0-.5.224-.5.5v5c0,1.93-1.57,3.5-3.5,3.5H4.5c-1.93,0-3.5-1.57-3.5-3.5V4.5c0-1.93,1.57-3.5,3.5-3.5h5c.276,0,.5-.224.5-.5s-.224-.5-.5-.5h-5C2.019,0,0,2.019,0,4.5v15c0,2.481,2.019,4.5,4.5,4.5h15c2.481,0,4.5-2.019,4.5-4.5v-5c0-.276-.224-.5-.5-.5Z"/>
</svg>
