<?xml version="1.0" encoding="UTF-8"?>
<svg xmlns="http://www.w3.org/2000/svg" id="Layer_1" data-name="Layer 1" viewBox="0 0 24 24">
  <path d="m9.5,12c-1.379,0-2.5,1.121-2.5,2.5s1.121,2.5,2.5,2.5,2.5-1.121,2.5-2.5-1.121-2.5-2.5-2.5Zm0,4c-.827,0-1.5-.673-1.5-1.5s.673-1.5,1.5-1.5,1.5.673,1.5,1.5-.673,1.5-1.5,1.5Zm-2.646,3.146c.195.195.195.512,0,.707-.098.098-.226.146-.354.146s-.256-.049-.354-.146l-2-2c-.195-.195-.195-.512,0-.707s.512-.195.707,0l2,2ZM23.336.664c-.885-.885-2.322-.885-3.207,0l-.215.215c-1.185,1.185-1.858,2.743-1.91,4.41l-2.193,2.193c-2.251-1.926-5.478-1.992-7.398-.071-.146.146-.278.298-.399.458-.522.688-1.202,1.099-1.914,1.155-1.626.129-3.072.784-4.181,1.893-2.762,2.762-2.504,7.512.574,10.59,1.648,1.648,3.776,2.488,5.822,2.488,1.773,0,3.485-.632,4.768-1.914,1.108-1.108,1.764-2.555,1.893-4.182.057-.711.467-1.391,1.155-1.913.16-.121.312-.254.458-.399,1.921-1.921,1.857-5.147-.071-7.398l2.193-2.193c1.667-.052,3.226-.726,4.41-1.91l.215-.215c.884-.884.884-2.323,0-3.207Zm-7.455,14.217c-.112.112-.231.216-.354.31-.919.697-1.469,1.632-1.548,2.631-.111,1.387-.665,2.615-1.604,3.554-2.371,2.371-6.486,2.114-9.176-.574-2.688-2.688-2.945-6.805-.574-9.176.938-.938,2.167-1.492,3.553-1.604,1-.079,1.935-.629,2.632-1.548.094-.123.197-.242.31-.354.75-.75,1.753-1.117,2.8-1.117,1.094,0,2.234.402,3.182,1.19l-1.954,1.954c-.195.195-.195.512,0,.707.098.098.226.146.354.146s.256-.049.354-.146l1.955-1.955c1.543,1.855,1.606,4.449.073,5.982Zm6.748-11.717l-.215.215c-.921.921-2.109,1.478-3.39,1.597.119-1.28.676-2.469,1.597-3.39l.215-.215c.247-.247.572-.371.896-.371s.649.124.896.371c.494.494.494,1.299,0,1.793Z"/>
</svg>
