<?xml version="1.0" encoding="UTF-8"?>
<svg xmlns="http://www.w3.org/2000/svg" id="Layer_1" data-name="Layer 1" viewBox="0 0 24 24">
  <path d="m23.5,3.944h-2.5v-.5c0-.276-.224-.5-.5-.5s-.5.224-.5.5v.5h-2.5c-.276,0-.5.224-.5.5s.224.5.5.5h2.5v5.869c-2.263-1.851-5.066-2.869-8-2.869s-5.737,1.018-8,2.869v-5.869h2.5c.276,0,.5-.224.5-.5s-.224-.5-.5-.5h-2.5v-.5c0-.276-.224-.5-.5-.5s-.5.224-.5.5v.5H.5c-.276,0-.5.224-.5.5s.224.5.5.5h2.5v6.5c0,1.197.593,2.292,1.586,2.931.371.238.787.485,1.224.728-.61.874-1.81,2.795-1.81,4.396v1c0,.276.224.5.5.5s.5-.224.5-.5v-1c0-1.155.878-2.775,1.704-3.928,1.59.784,3.45,1.428,5.296,1.428s3.705-.645,5.296-1.428c.826,1.154,1.704,2.773,1.704,3.928v1c0,.276.224.5.5.5s.5-.224.5-.5v-1c0-1.601-1.201-3.522-1.81-4.396.437-.243.853-.49,1.224-.728.993-.639,1.586-1.734,1.586-2.931v-6.5h2.5c.276,0,.5-.224.5-.5s-.224-.5-.5-.5Zm-7.817,5.61l-1.39,1.39h-4.586l-1.39-1.39c1.177-.394,2.415-.61,3.683-.61s2.506.216,3.683.61Zm3.19,3.98c-1.432.92-4.229,2.465-6.873,2.465s-5.441-1.545-6.873-2.465c-.529-.341-.899-.865-1.05-1.467.962-.892,2.051-1.6,3.221-2.119l1.848,1.848c.094.094.221.146.354.146h5c.133,0,.26-.053.354-.146l1.848-1.848c1.17.518,2.259,1.226,3.221,2.118-.152.602-.521,1.126-1.051,1.467Z"/>
</svg>
