<?xml version="1.0" encoding="UTF-8"?>
<svg xmlns="http://www.w3.org/2000/svg" id="Layer_1" data-name="Layer 1" viewBox="0 0 24 24">
  <path d="m23.968,12.324c-.048-.477-.148-.945-.297-1.393l-.831-2.737c-.58-1.91-2.31-3.193-4.306-3.193h-1.534c-1.103,0-2,.897-2,2v11H.5c-.276,0-.5.224-.5.5v1.5c0,.846.36,1.657.987,2.225.553.501,1.275.775,2.02.775.1,0,.2-.005.3-.016.9-.09,1.684-.615,2.17-1.364.534.829,1.465,1.379,2.523,1.379,1.654,0,3-1.346,3-3v-1h6v1c0,1.654,1.346,3,3,3s3-1.346,3-3v-1.086c.582-.206,1-.762,1-1.414v-4.526c0-.124-.012-.595-.032-.65ZM3.208,21.99c-.573.057-1.125-.123-1.55-.507-.418-.379-.658-.919-.658-1.483v-1h4v.857c0,1.095-.787,2.031-1.792,2.133Zm6.792-1.99c0,1.103-.897,2-2,2s-2-.897-2-2v-1h4v1Zm7-14h1.534c1.552,0,2.898.998,3.349,2.484l.835,2.75c.083.251.149.507.195.766h-6.913v-5c0-.552.449-1,1-1Zm3,16c-1.103,0-2-.897-2-2v-1h4v1c0,1.103-.897,2-2,2Zm2.5-4h-6.5v-5h7v4.5c0,.275-.224.5-.5.5Z"/>
</svg>
