<?xml version="1.0" encoding="UTF-8"?>
<svg xmlns="http://www.w3.org/2000/svg" id="Layer_1" data-name="Layer 1" viewBox="0 0 24 24">
  <path d="m7,12.5v7c0,.276-.224.5-.5.5s-.5-.224-.5-.5v-7c0-.276.224-.5.5-.5s.5.224.5.5Zm5-.5c-.276,0-.5.224-.5.5v7c0,.276.224.5.5.5s.5-.224.5-.5v-7c0-.276-.224-.5-.5-.5Zm11.979-.17l-1.122,7.406c-.361,2.712-2.705,4.764-5.45,4.764H6.594c-2.745,0-5.089-2.052-5.452-4.772L.023,11.84c-.097-.724.122-1.445.597-1.987.368-.42.864-.696,1.404-.801.054-.885.254-1.747.614-2.564l.895-2.032c.311-.704.468-1.451.468-2.219v-1.236h-.5c-.276,0-.5-.224-.5-.5s.224-.5.5-.5h8c.276,0,.5.224.5.5s-.224.5-.5.5h-.5v1.236c0,.768.157,1.515.468,2.219l.896,2.033c.353.801.552,1.644.61,2.512.427-.911,1.311-2.409,1.311-2.409C16.65,2.017,19.773-.685,21.72.152c.477.207.84.618,1.05,1.188.59,1.601.023,4.52-1.468,7.659h.199c.72,0,1.405.311,1.88.853s.693,1.264.599,1.978Zm-9.792-2.83h6.02c1.436-2.934,2.124-5.957,1.624-7.313-.116-.316-.283-.519-.51-.616-.936-.405-2.81.884-4.625,3.459l1.945,1.167c.237.142.314.449.172.686-.094.156-.26.243-.429.243-.088,0-.177-.022-.257-.071l-1.987-1.192c-.33.523-.655,1.083-.968,1.688,0,0-.629,1.212-.986,1.95Zm-11.161,0h8.947c-.057-.728-.229-1.436-.525-2.108l-.896-2.034c-.366-.831-.552-1.714-.552-2.621v-1.236h-5v1.236c0,.907-.186,1.79-.552,2.621l-.896,2.033c-.298.674-.47,1.382-.526,2.109Zm19.602,1.512c-.285-.325-.696-.512-1.128-.512,0,0-19.027.006-19.041.004-.416.012-.811.193-1.087.507-.285.325-.416.758-.358,1.188l1.118,7.387c.298,2.235,2.216,3.914,4.462,3.914h10.812c2.246,0,4.164-1.679,4.46-3.905l1.122-7.405c.056-.42-.075-.853-.36-1.178Zm-5.128,1.488c-.276,0-.5.224-.5.5v7c0,.276.224.5.5.5s.5-.224.5-.5v-7c0-.276-.224-.5-.5-.5Z"/>
</svg>
