<?xml version="1.0" encoding="UTF-8"?>
<svg xmlns="http://www.w3.org/2000/svg" id="Layer_1" data-name="Layer 1" viewBox="0 0 24 24">
  <path d="m22.899,14.34c-.112-.076-.165-.211-.139-.352.152-.811-.098-1.64-.67-2.218-.574-.578-1.396-.83-2.206-.678-.135.022-.265-.027-.34-.139-.466-.696-1.24-1.112-2.068-1.112-.061,0-.118.018-.178.022.019-.081.055-.156.126-.204.689-.47,1.101-1.247,1.101-2.081s-.412-1.611-1.101-2.081c-.112-.076-.165-.211-.138-.352.151-.812-.1-1.641-.671-2.217-.573-.58-1.399-.832-2.206-.679-.135.022-.266-.027-.34-.138-.465-.697-1.239-1.113-2.068-1.113s-1.603.416-2.068,1.112c-.075.111-.205.162-.34.139-.81-.151-1.633.1-2.206.678-.572.577-.823,1.406-.671,2.219.026.14-.027.274-.139.351-.689.47-1.101,1.247-1.101,2.081s.412,1.611,1.101,2.081c.07.048.107.122.126.204-.06-.004-.117-.022-.178-.022-.829,0-1.602.416-2.068,1.112-.075.111-.204.162-.34.139-.808-.152-1.632.099-2.207.679-.572.577-.823,1.406-.671,2.217.026.141-.026.275-.138.352-.689.47-1.101,1.247-1.101,2.081s.412,1.611,1.101,2.081c.112.076.165.211.139.352-.152.811.098,1.64.67,2.217.575.581,1.387.871,2.213.695.134-.034.267.024.346.14.467.686,1.235,1.095,2.056,1.095s1.589-.409,2.056-1.095c.078-.115.209-.175.345-.14.828.175,1.638-.114,2.212-.694.572-.577.823-1.406.671-2.219-.026-.14.079-.32.191-.396.112.076.219.257.192.397-.151.812.1,1.641.671,2.217.574.581,1.386.871,2.212.695.134-.033.268.024.346.14.467.686,1.235,1.095,2.056,1.095s1.589-.409,2.056-1.094c.078-.116.212-.175.345-.141.83.175,1.639-.114,2.213-.695.572-.577.823-1.406.671-2.217-.026-.141.026-.275.138-.352.689-.47,1.101-1.247,1.101-2.081s-.412-1.611-1.101-2.081Zm-11.516,3.336c-.438.299-.657.834-.558,1.361.093.496-.052.981-.398,1.33-.337.341-.791.532-1.292.42-.533-.11-1.074.104-1.381.556-.562.822-1.898.823-2.46,0-.253-.371-.666-.584-1.101-.584-.093,0-.187.01-.281.029-.495.109-.956-.08-1.293-.42-.346-.35-.491-.834-.397-1.33.099-.528-.121-1.062-.558-1.361-.416-.283-.664-.752-.664-1.255s.248-.972.664-1.255c.438-.298.656-.832.558-1.361-.093-.496.052-.98.398-1.329.344-.349.82-.495,1.31-.4.524.097,1.06-.122,1.357-.564.561-.838,1.914-.838,2.475,0,.296.442.826.661,1.358.564.488-.095.964.052,1.309.4.346.348.491.833.398,1.329-.1.528.12,1.062.558,1.361.416.283.664.752.664,1.255s-.248.972-.664,1.255Zm.615-3.291c-.112-.076-.216-.256-.189-.397.151-.812-.1-1.641-.671-2.217-.573-.579-1.397-.832-2.206-.679-.135.023-.266-.027-.34-.139-.232-.346-.54-.622-.892-.813.075-.51-.137-1.019-.56-1.307-.416-.283-.664-.752-.664-1.255s.248-.972.664-1.255c.438-.299.657-.834.558-1.361-.093-.496.052-.981.398-1.33.343-.348.819-.494,1.309-.399.525.098,1.06-.121,1.357-.565.56-.836,1.915-.837,2.475,0,.297.443.833.662,1.357.564.491-.092.965.053,1.309.4.346.348.491.833.398,1.328-.1.528.119,1.063.558,1.362.416.283.664.752.664,1.255s-.248.972-.664,1.255c-.423.289-.635.798-.56,1.307-.352.191-.66.467-.892.813-.074.111-.202.164-.339.139-.807-.15-1.632.099-2.206.678-.572.577-.823,1.406-.671,2.218.026.141-.08.319-.193.397Zm10.337,3.291c-.438.299-.657.833-.558,1.361.093.496-.052.98-.398,1.33-.336.34-.789.529-1.293.42-.531-.111-1.074.104-1.381.556-.562.822-1.898.822-2.46,0-.307-.451-.847-.666-1.381-.556-.501.111-.955-.079-1.292-.421-.346-.348-.491-.833-.398-1.328.095-.504-.106-1.009-.505-1.314.237-.389.38-.833.38-1.303s-.142-.914-.38-1.303c.399-.305.601-.809.506-1.313-.093-.496.052-.981.398-1.33.343-.348.818-.494,1.309-.399.529.097,1.061-.122,1.357-.564.561-.838,1.914-.838,2.475,0,.297.443.832.661,1.357.564.488-.095.964.053,1.309.399.346.35.491.834.397,1.33-.098.529.121,1.063.558,1.361.416.283.664.752.664,1.255s-.248.972-.664,1.255Z"/>
</svg>
