<?xml version="1.0" encoding="UTF-8"?>
<svg xmlns="http://www.w3.org/2000/svg" id="Layer_1" data-name="Layer 1" viewBox="0 0 24 24">
  <path d="m22,6h-4V2c0-1.103-.897-2-2-2h-4c-.276,0-.5.224-.5.5s.224.5.5.5h4c.089,0,.176.012.259.034l-5.532,5.532c-1.137-.976-2.614-1.566-4.227-1.566C2.916,5,0,7.916,0,11.5c0,3.422,2.658,6.235,6.018,6.482.248,3.36,3.06,6.018,6.482,6.018,3.584,0,6.5-2.916,6.5-6.5,0-1.612-.59-3.089-1.566-4.227l5.532-5.532c.022.083.034.169.034.259v4c0,.276.224.5.5.5s.5-.224.5-.5v-4c0-1.103-.897-2-2-2Zm.259,1.034l-5.532,5.532c-1.023-.878-2.321-1.443-3.745-1.548-.105-1.424-.671-2.722-1.548-3.745l5.532-5.532c.022.083.034.169.034.259v4.5c0,.276.224.5.5.5h4.5c.089,0,.176.012.259.034ZM1,11.5c0-3.033,2.467-5.5,5.5-5.5s5.5,2.467,5.5,5.5-2.467,5.5-5.5,5.5S1,14.533,1,11.5Zm11.5,11.5c-2.871,0-5.235-2.212-5.479-5.021,3.169-.253,5.705-2.789,5.958-5.958,2.809.244,5.021,2.608,5.021,5.479,0,3.033-2.467,5.5-5.5,5.5Z"/>
</svg>
