<?xml version="1.0" encoding="UTF-8"?>
<svg xmlns="http://www.w3.org/2000/svg" id="Layer_1" data-name="Layer 1" viewBox="0 0 24 24">
  <path d="m23.5,16c.276,0,.5-.224.5-.5v-1.75c0-3.468-2.63-6.331-6-6.706v-1.703c0-2.945-2.396-5.341-5.341-5.341-2.658,0-4.879,1.908-5.279,4.537l-2.68,17.612c-.075.493-.491.851-.989.851H.5c-.276,0-.5.224-.5.5s.224.5.5.5h3.211c.995,0,1.827-.715,1.978-1.699l2.68-17.613c.326-2.137,2.13-3.688,4.291-3.688,2.394,0,4.341,1.947,4.341,4.341v1.659h-1.5c-1.379,0-2.5,1.121-2.5,2.5v12c0,1.379,1.121,2.5,2.5,2.5h5.423c1.729-.211,3.077-1.715,3.077-3.5,0-1.93-1.57-3.5-3.5-3.5s-3.5,1.57-3.5,3.5c0,.98.407,1.864,1.058,2.5h-2.558c-.827,0-1.5-.673-1.5-1.5v-12c0-.827.673-1.5,1.5-1.5h1.75c3.171,0,5.75,2.579,5.75,5.75v1.75c0,.276.224.5.5.5Zm-5.5,4.5c0-1.379,1.121-2.5,2.5-2.5s2.5,1.121,2.5,2.5-1.121,2.5-2.5,2.5-2.5-1.121-2.5-2.5Z"/>
</svg>
