<?xml version="1.0" encoding="UTF-8"?>
<svg xmlns="http://www.w3.org/2000/svg" id="Layer_1" data-name="Layer 1" viewBox="0 0 24 24">
  <path d="m12,13c0,.552-.448,1-1,1s-1-.448-1-1,.448-1,1-1,1,.448,1,1ZM23.896,2.289c-1.673,4.641-3.332,9.245-6.896,12.998,0,3.716-1.115,5.997-3.14,7.911-.549.518-1.258.802-1.998.802-1.579,0-2.863-1.284-2.863-2.862v-1.202c-.879-.158-1.716-.579-2.393-1.256l-.29-.29-2.464,2.464c-.098.098-.226.146-.354.146s-.256-.049-.354-.146c-.195-.195-.195-.512,0-.707l2.464-2.464-.29-.29c-.676-.676-1.097-1.514-1.255-2.393h-1.202c-1.579,0-2.863-1.284-2.863-2.862,0-.74.285-1.449.801-1.997,1.915-2.025,4.506-3.141,7.911-3.141C12.465,3.436,17.071,1.775,21.711.104c.633-.228,1.314-.073,1.787.398.472.473.625,1.157.398,1.787ZM4.856,11.569c.731-1.007,1.841-2.433,2.85-3.541-2.449.174-4.621,1.152-6.178,2.799-.34.36-.528.826-.528,1.311,0,1.027.835,1.862,1.863,1.862h1.137c.04-.849.323-1.694.857-2.431Zm11.115,4.724c-1.11,1.01-2.535,2.12-3.542,2.85-.736.534-1.581.816-2.43.857v1.138c0,1.027.835,1.862,1.863,1.862.484,0,.949-.188,1.311-.528,1.646-1.557,2.625-3.729,2.798-6.178ZM22.79,1.21c-.197-.199-.474-.264-.739-.165-4.9,1.766-9.348,3.368-13.028,7.049-1.1,1.101-2.496,2.877-3.356,4.063-1.015,1.399-.863,3.304.361,4.528l1.288,1.287c1.224,1.225,3.127,1.375,4.528.361,1.186-.859,2.961-2.254,4.063-3.356,3.682-3.682,5.283-8.126,7.049-13.028.096-.265.034-.541-.165-.739Zm-5.79,4.79c-.552,0-1,.448-1,1s.448,1,1,1,1-.448,1-1-.448-1-1-1Zm-3,3c-.552,0-1,.448-1,1s.448,1,1,1,1-.448,1-1-.448-1-1-1Z"/>
</svg>
