<?xml version="1.0" encoding="UTF-8"?>
<svg xmlns="http://www.w3.org/2000/svg" id="Layer_1" data-name="Layer 1" viewBox="0 0 24 24">
  <path d="m21.944,11.115l-3.287-1.09c-.102-.034-.213-.034-.314,0l-3.287,1.09c-1.229.408-2.056,1.552-2.056,2.848v3.431c0,3.613,3.868,5.83,5.054,6.423l.224.112c.07.035.146.053.224.053.063,0,.127-.012.188-.036l.231-.094c1.191-.479,5.08-2.361,5.08-6.458v-3.431c0-1.296-.826-2.44-2.056-2.848Zm1.056,6.278c0,3.469-3.408,5.11-4.454,5.53l-.022.01-.022-.011c-1.056-.528-4.501-2.489-4.501-5.528v-3.431c0-.864.551-1.627,1.37-1.898l3.13-1.038,3.13,1.038c.819.271,1.37,1.035,1.37,1.898v3.431ZM8,0C4.691,0,2,2.691,2,6s2.691,6,6,6,6-2.691,6-6S11.309,0,8,0Zm0,11c-2.757,0-5-2.243-5-5S5.243,1,8,1s5,2.243,5,5-2.243,5-5,5Zm2.972,4.093c-.093.261-.376.396-.639.305-.747-.265-1.532-.398-2.333-.398-3.859,0-7,3.14-7,7v1.5c0,.276-.224.5-.5.5s-.5-.224-.5-.5v-1.5c0-4.411,3.589-8,8-8,.914,0,1.812.153,2.667.455.26.092.396.378.305.638Z"/>
</svg>
