<?xml version="1.0" encoding="UTF-8"?>
<svg xmlns="http://www.w3.org/2000/svg" id="Layer_1" data-name="Layer 1" viewBox="0 0 24 24">
  <path d="m12,0C5.383,0,0,5.383,0,12s5.383,12,12,12,12-5.383,12-12S18.617,0,12,0Zm0,23c-6.065,0-11-4.935-11-11S5.935,1,12,1s11,4.935,11,11-4.935,11-11,11Zm4.5-16c-1.378,0-2.5,1.122-2.5,2.5,0,1.5,1.445,1.5,2.5,1.5s2.5,0,2.5-1.5c0-1.378-1.122-2.5-2.5-2.5Zm0,3c-1.353,0-1.5-.101-1.5-.5,0-.827.673-1.5,1.5-1.5s1.5.673,1.5,1.5c0,.399-.147.5-1.5.5Zm-6.5-.5c0-1.378-1.122-2.5-2.5-2.5s-2.5,1.122-2.5,2.5c0,1.5,1.445,1.5,2.5,1.5s2.5,0,2.5-1.5Zm-4,0c0-.827.673-1.5,1.5-1.5s1.5.673,1.5,1.5c0,.399-.147.5-1.5.5s-1.5-.101-1.5-.5Zm6.035,3.5c-3.083,0-5.058,2.581-5.764,3.69-.331.521-.316,1.16.039,1.668.354.505.944.739,1.543.606.389-.085.722-.218,1.074-.358.713-.284,1.522-.606,3.104-.606,1.584,0,2.396.323,3.111.607.353.14.686.272,1.074.357.11.024.221.036.329.036.479,0,.926-.23,1.214-.643.355-.508.37-1.147.039-1.668-.706-1.109-2.681-3.69-5.764-3.69Zm4.905,4.785c-.045.063-.21.267-.509.203-.309-.068-.591-.18-.919-.31-.76-.302-1.705-.677-3.48-.678-1.774,0-2.717.376-3.474.677-.327.13-.61.243-.918.311-.294.061-.465-.139-.509-.203-.045-.065-.181-.297-.015-.558.767-1.205,2.426-3.227,4.92-3.227,2.587,0,4.303,2.257,4.92,3.227.166.261.031.493-.015.558Z"/>
</svg>
