<?xml version="1.0" encoding="UTF-8"?>
<svg xmlns="http://www.w3.org/2000/svg" id="Layer_1" data-name="Layer 1" viewBox="0 0 24 24">
  <path d="m8,10c0,.552-.449,1-1,1s-1-.448-1-1,.449-1,1-1,1,.448,1,1Zm9-1c-.551,0-1,.448-1,1s.449,1,1,1,1-.448,1-1-.449-1-1-1Zm7,4.545c0,2.779-1.099,5.402-3.094,7.386-1.992,1.979-4.622,3.069-7.406,3.069h-3c-2.794,0-5.426-1.094-7.41-3.081C1.093,18.919-.004,16.262,0,13.438.008,8.798.477,3.385.812,1.262c.083-.523.426-.955.918-1.152.493-.198,1.043-.125,1.47.198l2.106,1.923c.38.349.946.422,1.408.175,1.679-.887,3.503-1.373,5.276-1.405,1.836-.02,3.548.415,5.248,1.371.483.27,1.07.211,1.462-.149l2.032-1.861c.465-.355,1.019-.429,1.515-.224.494.202.835.64.911,1.169h0c.301,2.098.84,7.981.841,12.239Zm-1,0c0-4.21-.533-10.024-.831-12.097-.037-.252-.223-.354-.301-.387-.08-.032-.287-.092-.496.065l-1.996,1.832c-.712.652-1.769.767-2.627.283-1.542-.866-3.095-1.264-4.74-1.242-1.618.029-3.287.476-4.828,1.29-.833.44-1.86.311-2.55-.321l-2.071-1.894c-.081-.06-.169-.079-.248-.079-.089,0-.167.024-.209.041-.078.031-.264.132-.303.381-.33,2.091-.792,7.433-.8,12.022-.004,2.556.99,4.961,2.798,6.772,1.794,1.797,4.174,2.787,6.702,2.787h3c2.518,0,4.898-.987,6.701-2.779,1.805-1.793,2.799-4.164,2.799-6.676Zm-7,4.955c0,.276-.224.5-.5.5-2.002,0-3.001-.888-3.5-1.77-.499.882-1.498,1.77-3.5,1.77-.276,0-.5-.224-.5-.5s.224-.5.5-.5c2.217,0,2.795-1.318,2.946-2.05-1.526-.235-2.446-1.398-2.446-2.263,0-.778.786-1.688,3-1.688s3,.909,3,1.688c0,.865-.92,2.027-2.445,2.263.151.731.729,2.05,2.945,2.05.276,0,.5.224.5.5Zm-4-3.5c1.319,0,2-.92,2-1.312,0-.277-.636-.688-2-.688s-2,.41-2,.688c0,.393.681,1.312,2,1.312Z"/>
</svg>
