<?xml version="1.0" encoding="UTF-8"?>
<svg xmlns="http://www.w3.org/2000/svg" id="Layer_1" data-name="Layer 1" viewBox="0 0 24 24">
  <path d="m22.5,5h-1.189l-.465-2.218c-.337-1.612-1.778-2.782-3.426-2.782H6.58c-1.647,0-3.088,1.17-3.426,2.782l-.465,2.218h-1.189c-.276,0-.5.224-.5.5s.224.5.5.5h1.147l1.538,13.992c.251,2.285,2.174,4.008,4.473,4.008h6.683c2.299,0,4.222-1.723,4.473-4.008l1.538-13.992h1.148c.276,0,.5-.224.5-.5s-.224-.5-.5-.5ZM4.132,2.987c.242-1.151,1.271-1.987,2.447-1.987h10.841c1.177,0,2.206.836,2.447,1.987l.422,2.013H3.711l.422-2.013Zm14.688,16.895c-.195,1.777-1.691,3.118-3.479,3.118h-6.683c-1.788,0-3.284-1.34-3.479-3.118l-.097-.882h13.835l-.097.882Zm.206-1.877c-.009,0-.017-.005-.026-.005H5c-.01,0-.018.005-.028.006l-.77-7.006h15.594l-.77,7.005Zm.88-8.005H4.092l-.44-4h16.693l-.44,4Z"/>
</svg>
