<?xml version="1.0" encoding="UTF-8"?>
<svg xmlns="http://www.w3.org/2000/svg" id="Layer_1" data-name="Layer 1" viewBox="0 0 24 24">
  <path d="m23.5,17h-.5v-4.309c0-4.814-3.3-9.058-8.033-10.352-.733-.816-1.785-1.34-2.967-1.34s-2.234.524-2.967,1.34C4.3,3.633,1,7.878,1,12.691v4.309h-.5c-.276,0-.5.224-.5.5s.224.5.5.5h.751c.761.973,4.299,5,10.749,5s9.987-4.027,10.748-5h.752c.276,0,.5-.224.5-.5s-.224-.5-.5-.5Zm-1.5-4.309v4.309h-6V4.992c0-.469-.096-.914-.246-1.332,3.727,1.474,6.246,5.033,6.246,9.032ZM12,2c1.654,0,3,1.343,3,2.992v12.008h-6V4.992c0-1.649,1.346-2.992,3-2.992ZM2,12.691c0-3.998,2.519-7.557,6.246-9.031-.15.419-.246.863-.246,1.332v12.008H2v-4.309Zm10,9.309c-4.959,0-8.118-2.642-9.415-4h18.83c-1.297,1.358-4.456,4-9.415,4Z"/>
</svg>
