<?xml version="1.0" encoding="UTF-8"?>
<svg xmlns="http://www.w3.org/2000/svg" id="Layer_1" data-name="Layer 1" viewBox="0 0 24 24">
  <path d="m3,7V.5c0-.276.224-.5.5-.5s.5.224.5.5v6.5c0,1.103.897,2,2,2h6c1.103,0,2-.897,2-2V.5c0-.276.224-.5.5-.5s.5.224.5.5v6.5c0,1.654-1.346,3-3,3h-6c-1.654,0-3-1.346-3-3Zm3,1c.552,0,1-.448,1-1s-.448-1-1-1-1,.448-1,1,.448,1,1,1Zm5-1c0,.552.448,1,1,1s1-.448,1-1-.448-1-1-1-1,.448-1,1Zm12.364,6.181l-6.806,7.64c-1.802,2.021-4.387,3.18-7.093,3.18H3.5c-1.93,0-3.5-1.57-3.5-3.5v-5c0-1.93,1.57-3.5,3.5-3.5h9.858c1.208,0,2.228.814,2.542,1.923l3.732-4.103c.451-.496,1.069-.786,1.739-.817.666-.035,1.312.2,1.809.651,1.011.923,1.094,2.504.184,3.526Zm-.857-2.787c-.298-.271-.689-.412-1.088-.392-.403.019-.775.193-1.047.492l-4.495,4.939c-.301.946-1.124,1.679-2.146,1.824l-6.171.738c-.282.044-.523-.163-.556-.437-.033-.274.163-.523.437-.556l6.161-.737c.793-.113,1.399-.812,1.399-1.624,0-.905-.737-1.643-1.642-1.643H3.5c-1.378,0-2.5,1.121-2.5,2.5v5c0,1.379,1.122,2.5,2.5,2.5h5.965c2.421,0,4.734-1.037,6.347-2.846l6.806-7.64c.548-.614.498-1.565-.11-2.121ZM8.961,3c1.421,0,2.657-1.01,2.94-2.4.055-.271-.12-.534-.39-.59-.268-.053-.535.12-.589.391-.188.927-1.013,1.6-1.96,1.6s-1.771-.673-1.959-1.6c-.055-.271-.315-.445-.59-.391-.271.055-.445.319-.391.59.282,1.391,1.519,2.4,2.94,2.4Z"/>
</svg>
