<?xml version="1.0" encoding="UTF-8"?>
<svg xmlns="http://www.w3.org/2000/svg" id="Layer_1" data-name="Layer 1" viewBox="0 0 24 24">
  <path d="m21.93,13H2.071c-.714,0-1.369.36-1.75.965s-.425,1.351-.117,1.996l.508,1.057c1.647,2.748,3.346,2.982,5.721,2.982,0,0,4.186.001,5.067,0v3.001h-4c-.276,0-.5.224-.5.5s.224.5.5.5h9c.276,0,.5-.224.5-.5s-.224-.5-.5-.5h-4v-3.002l4.907.002c2.462.038,4.209-.182,5.898-3.005l.493-1.039c.306-.645.261-1.39-.121-1.993-.381-.603-1.034-.963-1.748-.963Zm.965,2.527l-.47.997c-1.356,2.262-2.565,2.481-5.015,2.476H6.581c-2.397.01-3.64-.207-4.99-2.455l-.485-1.015c-.161-.339-.139-.715.061-1.032.2-.316.53-.498.904-.498h19.859c.374,0,.703.182.903.498.199.315.223.69.062,1.029ZM.435,10.996c.278.037.525-.156.561-.431.343-2.603,2.603-4.565,5.254-4.565s4.911,1.963,5.254,4.565c.033.249.245.435.496.435s.463-.186.496-.435c.343-2.603,2.602-4.565,5.254-4.565s4.911,1.963,5.254,4.565c.033.252.248.435.495.435.022,0,.044,0,.066-.004.273-.036.467-.288.431-.562-.403-3.051-3.014-5.35-6.102-5.421-.476-2.883-2.921-5.013-5.894-5.013s-5.418,2.13-5.894,5.013C3.018,5.084.407,7.384.004,10.435c-.036.273.156.525.43.562ZM12,1c2.439,0,4.449,1.72,4.89,4.064-2.165.297-4.011,1.693-4.89,3.635-.879-1.941-2.726-3.338-4.89-3.635.442-2.343,2.452-4.064,4.89-4.064Z"/>
</svg>
