<?xml version="1.0" encoding="UTF-8"?>
<svg xmlns="http://www.w3.org/2000/svg" id="Layer_1" data-name="Layer 1" viewBox="0 0 24 24">
  <path d="m18,16.395c0,.685.49,1.263,1.166,1.375l2.833.473c1.159.192,2.001,1.186,2.001,2.362,0,1.321-1.074,2.395-2.395,2.395h-.605v.5c0,.276-.224.5-.5.5s-.5-.224-.5-.5v-.5h-.5c-1.378,0-2.5-1.122-2.5-2.5,0-.276.224-.5.5-.5s.5.224.5.5c0,.827.673,1.5,1.5,1.5h2.105c.769,0,1.395-.626,1.395-1.395,0-.685-.49-1.263-1.166-1.375l-2.833-.473c-1.159-.192-2.001-1.186-2.001-2.362,0-1.321,1.074-2.395,2.395-2.395h.605v-.5c0-.276.224-.5.5-.5s.5.224.5.5v.5h.5c1.378,0,2.5,1.122,2.5,2.5,0,.276-.224.5-.5.5s-.5-.224-.5-.5c0-.827-.673-1.5-1.5-1.5h-2.105c-.769,0-1.395.626-1.395,1.395Zm-6.512-5.395c1.385,0,2.512,1.127,2.512,2.512v2.988c0,1.378-1.122,2.5-2.5,2.5h-1.5c-.551,0-1-.449-1-1v-6c0-.551.449-1,1-1h1.488Zm0,1h-1.488v6h1.5c.827,0,1.5-.673,1.5-1.5v-2.988c0-.834-.678-1.512-1.512-1.512Zm-3.498,6.415c.062.304-.173.587-.485.585-.233-.001-.433-.164-.48-.39l-.333-1.61h-2.376l-.323,1.589c-.047.229-.25.393-.485.392h-.018c-.31-.002-.541-.284-.48-.585l1.279-6.308c.081-.399.442-1.088,1.207-1.088s1.121.659,1.214,1.119l1.28,6.296Zm-1.505-2.415l-.763-3.683c-.038-.185-.078-.316-.227-.316s-.195.166-.219.284l-.757,3.715h1.965ZM24,4.5v7c0,.276-.224.5-.5.5s-.5-.224-.5-.5v-3.5H1v9.5c0,1.93,1.57,3.5,3.5,3.5h10c.276,0,.5.224.5.5s-.224.5-.5.5H4.5c-2.481,0-4.5-2.019-4.5-4.5V4.5C0,2.019,2.019,0,4.5,0h15c2.481,0,4.5,2.019,4.5,4.5Zm-1,2.5v-2.5c0-1.93-1.57-3.5-3.5-3.5H4.5c-1.93,0-3.5,1.57-3.5,3.5v2.5h22ZM4,3c-.552,0-1,.448-1,1s.448,1,1,1,1-.448,1-1-.448-1-1-1Zm3,0c-.552,0-1,.448-1,1s.448,1,1,1,1-.448,1-1-.448-1-1-1Zm3,0c-.552,0-1,.448-1,1s.448,1,1,1,1-.448,1-1-.448-1-1-1Z"/>
</svg>
