<?xml version="1.0" encoding="UTF-8"?>
<svg xmlns="http://www.w3.org/2000/svg" id="Layer_1" data-name="Layer 1" viewBox="0 0 24 24">
  <path d="m18.5,10c.276,0,.5-.224.5-.5v-3.191l4.348-2.175c.408-.28.652-.757.652-1.276s-.243-.996-.652-1.277c-.025-.017-3.276-1.46-3.474-1.52-.439-.133-.9-.049-1.271.227-.378.281-.604.728-.604,1.197v8.016c0,.276.224.5.5.5Zm.5-8.516c0-.154.074-.301.199-.394.052-.038.144-.091.264-.091.038,0,.433.124.584.191l2.764,1.237c.119.097.189.255.189.43,0,.188-.082.357-.159.417l-3.841,1.917V1.484Zm-10.5,17.516c-.148,0-.292.019-.433.044l-1.519-2.702c-.057-.1-.023-.186.002-.229.024-.042.083-.114.198-.114h1.752c.276,0,.5-.224.5-.5s-.224-.5-.5-.5h-1.752c-.442,0-.839.228-1.062.609-.223.381-.226.839-.009,1.224l.353.627-1.786.974-1.024-1.706c-.27-.449-.762-.728-1.286-.728h-.434c-.276,0-.5.224-.5.5s.224.5.5.5h.434c.175,0,.339.093.429.243l1.003,1.671-.271.148c-.006.003-.01.01-.016.013-.186-.044-.378-.074-.578-.074-1.379,0-2.5,1.122-2.5,2.5s1.121,2.5,2.5,2.5,2.5-1.122,2.5-2.5c0-.748-.337-1.413-.859-1.871l2.379-1.297.609,1.082c-.678.448-1.128,1.214-1.128,2.086,0,1.378,1.121,2.5,2.5,2.5s2.5-1.122,2.5-2.5-1.121-2.5-2.5-2.5Zm-6,4c-.827,0-1.5-.673-1.5-1.5s.673-1.5,1.5-1.5,1.5.673,1.5,1.5-.673,1.5-1.5,1.5Zm6,0c-.827,0-1.5-.673-1.5-1.5s.673-1.5,1.5-1.5,1.5.673,1.5,1.5-.673,1.5-1.5,1.5Zm15.5-4.5c0,1.93-1.57,3.5-3.5,3.5h-7c-.276,0-.5-.224-.5-.5s.224-.5.5-.5h7c1.379,0,2.5-1.122,2.5-2.5s-1.121-2.5-2.5-2.5h-7c-1.93,0-3.5-1.57-3.5-3.5s1.57-3.5,3.5-3.5h2c.276,0,.5.224.5.5s-.224.5-.5.5h-2c-1.379,0-2.5,1.122-2.5,2.5s1.121,2.5,2.5,2.5h7c1.93,0,3.5,1.57,3.5,3.5Z"/>
</svg>
