<?xml version="1.0" encoding="UTF-8"?>
<svg xmlns="http://www.w3.org/2000/svg" id="Layer_1" data-name="Layer 1" viewBox="0 0 24 24">
  <path d="m23.019,5.779c-1.041-.467-2.067-1.042-2.856-1.995l3.684-3.037c.161-.133.201-.363.094-.542-.103-.171-.311-.247-.5-.182l-4.41,1.525c-.01-.037-.02-.075-.03-.113V.491c0-.314-.3-.565-.6-.471-.52.163-.948.562-1.188,1.063-1.535.207-2.762.8-3.658,1.774-1.761,1.914-1.562,4.573-1.554,4.644,0,.042,0,.094,0,.151-2.25-.431-4.658-2.511-6.108-4.262-.286-.345-.744-.474-1.167-.331-.418.142-.7.52-.716.961-.052,1.412.123,3.576,1.265,5.775-.26.214-.485.461-.671.734-3.01.997-4.602,3.753-4.602,7.971,0,.276.224.5.5.5s.5-.224.5-.5c0-2.542.59-4.44,1.758-5.676-.512,1.345-.758,3.216-.758,5.676,0,.276.224.5.5.5s.5-.224.5-.5c0-2.809.327-4.786.995-5.977.008,1.671.714,3.883,1.231,5.501.119.372.229.715.319,1.019l-.27,2.191c-.086.701.132,1.406.6,1.934.468.529,1.141.832,1.847.832,1.272,0,2.327-.955,2.453-2.22l.278-2.78h2.547v2.5c0,1.378,1.121,2.5,2.5,2.5s2.5-1.122,2.5-2.5v-2.947l.403-1.896c.404-1.415.597-2.338.597-3.758v-3.399c0-.276.225-.5.5-.5h2.811c.932,0,1.689-.758,1.689-1.689,0-.663-.385-1.264-.981-1.532Zm-.708,2.221h-2.811c-.827,0-1.5.673-1.5,1.5v3.399c0,1.31-.172,2.133-.566,3.517l-.423,1.98c-.007.034-.011,3.104-.011,3.104,0,.827-.673,1.5-1.5,1.5s-1.5-.673-1.5-1.5v-3c0-.276-.224-.5-.5-.5h-3.5c-.257,0-.472.195-.498.45l-.323,3.23c-.075.752-.702,1.319-1.458,1.319-.419,0-.82-.18-1.098-.495-.278-.314-.408-.733-.357-1.149,0,0,.285-2.431.266-2.497-.098-.333-.221-.719-.355-1.14-.5-1.564-1.184-3.707-1.184-5.225.001-.696.291-1.351.79-1.819.74,1.149,1.773,2.282,3.204,3.296.226.159.537.106.697-.119.16-.226.106-.538-.119-.697-4.148-2.937-4.637-6.962-4.559-9.1l.114-.029c.61.737,3.831,4.426,7.313,4.69.266.03.504-.174.534-.441.027-.236.032-.589.03-.816-.002-.023-.167-2.347,1.297-3.932.871-.943,2.157-1.454,3.825-1.52.816,2.711,2.718,3.89,4.488,4.684.237.106.391.35.391.62,0,.38-.31.689-.689.689Z"/>
</svg>
