<?xml version="1.0" encoding="UTF-8"?>
<svg xmlns="http://www.w3.org/2000/svg" id="Layer_1" data-name="Layer 1" viewBox="0 0 24 24">
  <path d="m24,11c0-1.654-1.346-3-3-3h-.985c.587-.526.985-1.223.985-2,0-1.654-1.346-3-3-3h-2.233c-.181,0-.347-.093-.425-.238-.336-.625-1.268-2.139-2.667-2.683-.349-.135-.729-.101-1.051.094-.326.199-.544.545-.584.927-.073.695-.285,1.271-.45,1.632-.074.162-.248.267-.442.267h-4.147c-1.654,0-3,1.346-3,3,0,.768.29,1.469.766,2h-.766c-1.654,0-3,1.346-3,3,0,1.468,1.061,2.687,2.455,2.945l1.01,6.27c.353,2.193,2.222,3.785,4.442,3.785h8.186c2.221,0,4.09-1.592,4.442-3.785l1.01-6.27c1.394-.258,2.455-1.477,2.455-2.945Zm-7.907,12H7.907c-1.728,0-3.181-1.238-3.456-2.944l-.975-6.056h17.048l-.975,6.056c-.275,1.706-1.729,2.944-3.456,2.944Zm4.907-10H3c-1.103,0-2-.897-2-2s.897-2,2-2h9.5c.276,0,.5-.224.5-.5s-.224-.5-.5-.5h-6.5c-1.103,0-2-.897-2-2s.897-2,2-2h4.147c.585,0,1.115-.334,1.353-.851.195-.429.447-1.114.534-1.944.012-.106.081-.159.11-.177.036-.022.097-.044.167-.016.756.294,1.56,1.125,2.149,2.224.253.472.753.765,1.306.765h2.233c1.103,0,2,.897,2,2,0,1.077-1.375,2-2.5,2-.276,0-.5.224-.5.5s.224.5.5.5h3.5c1.103,0,2,.897,2,2s-.897,2-2,2Z"/>
</svg>
