<?xml version="1.0" encoding="UTF-8"?>
<svg xmlns="http://www.w3.org/2000/svg" id="Layer_1" data-name="Layer 1" viewBox="0 0 24 24">
  <path d="m11.774,6.746c.076.044.162.065.247.065.074,0,.149-.017.218-.05.529-.257,1.761-.997,1.761-2.329v-1.45c0-.22-.144-.414-.354-.479l-1.494-.458c-.099-.029-.205-.027-.304.004l-1.544.513c-.21.069-.349.268-.343.488l.038,1.382c0,1.137,1.112,1.938,1.774,2.313Zm.237-3.697l.988.304v1.08c0,.628-.562,1.068-.962,1.304-.4-.26-1.038-.762-1.038-1.317l-.028-1.024,1.04-.346Zm8.518,20.95c-.01,0-.02,0-.029,0-.264,0-.483-.205-.499-.471-.119-2.053-1.073-4.987-2.606-6.381-.225-.205-.569-.197-.782.016l-4.226,5.153c-.095.115-.237.183-.387.183s-.292-.067-.387-.183l-4.245-5.176c-.182-.18-.525-.186-.749.021-1.524,1.395-2.473,4.321-2.591,6.366-.016.276-.213.509-.527.471-.276-.016-.486-.252-.471-.528.133-2.299,1.176-5.457,2.914-7.046.62-.569,1.572-.548,2.164.046l3.892,4.741,3.872-4.719c.626-.628,1.576-.647,2.194-.085,1.749,1.589,2.799,4.756,2.933,7.062.017.276-.194.513-.47.528ZM5.222,5.604l.793.396v3c0,3.309,2.691,6,6,6s6-2.691,6-6v-3l.791-.396c.746-.371,1.209-1.12,1.209-1.953,0-.971-.652-1.835-1.587-2.103L13.68.2c-1.093-.271-2.26-.269-3.394.018l-4.686,1.332c-.934.266-1.586,1.13-1.586,2.101,0,.834.463,1.582,1.207,1.953Zm6.793,8.396c-2.757,0-5-2.243-5-5v-1.431c1.328.908,3.12,1.431,5,1.431,2.395,0,4.03-.775,5-1.451v1.451c0,2.757-2.243,5-5,5ZM5.874,2.511l4.67-1.327c.958-.24,1.96-.244,2.879-.017l4.73,1.343c.507.146.861.614.861,1.141,0,.451-.251.857-.655,1.059l-1.068.534s-.276.102-.276.447v.582c-.584.532-2.208,1.728-5,1.728-2.772,0-4.392-1.157-5-1.702,0,0-.001-.54-.003-.558.02-.201-.082-.402-.273-.497l-1.07-.534c-.403-.201-.653-.606-.653-1.059,0-.526.354-.995.859-1.14Z"/>
</svg>
