<?xml version="1.0" encoding="UTF-8"?>
<svg xmlns="http://www.w3.org/2000/svg" id="Layer_1" data-name="Layer 1" viewBox="0 0 24 24">
  <path d="m13.01,17.398c.288-1.39,1.545-2.398,2.99-2.398s2.702,1.009,2.99,2.398c.056.271-.22.545-.49.602-.232,0-.441-.163-.49-.398-.192-.928-1.038-1.602-2.01-1.602s-1.818.673-2.01,1.602c-.056.27-.322.439-.591.388-.27-.056-.444-.321-.388-.591Zm-5.01-3.398c-1.103,0-2-.897-2-2s.897-2,2-2,2,.897,2,2-.897,2-2,2Zm0-1c.551,0,1-.449,1-1s-.449-1-1-1-1,.449-1,1,.449,1,1,1Zm8,1c-1.103,0-2-.897-2-2s.897-2,2-2,2,.897,2,2-.897,2-2,2Zm0-1c.551,0,1-.449,1-1s-.449-1-1-1-1,.449-1,1,.449,1,1,1Zm2.5,5c-.034.007.034,0,0,0h0Zm-7.51-.602c-.288-1.39-1.545-2.398-2.99-2.398s-2.702,1.009-2.99,2.398c-.056.271.118.535.388.591.266.051.535-.119.591-.388.192-.928,1.038-1.602,2.01-1.602s1.818.673,2.01,1.602c.049.236.258.398.49.398.27-.056.545-.331.49-.602Zm-.49.602c-.034.007.034,0,0,0h0ZM24,2.592v2.815c0,1.429-1.071,2.592-2.5,2.592-.116,0-.417.041-.506.115l-1.375,1.138c-.186.165-.423.249-.662.249-.244,0-.489-.086-.685-.26l-1.361-1.126c-.089-.074-.203-.115-.319-.115-1.429,0-2.592-1.163-2.592-2.592v-2.815c0-1.429,1.163-2.592,2.592-2.592h4.815c1.429,0,2.592,1.163,2.592,2.592Zm-1,0c0-.878-.714-1.592-1.592-1.592h-4.815c-.878,0-1.592.714-1.592,1.592v2.815c0,.878.714,1.592,1.592,1.592.348,0,.688.122.956.344l1.375,1.138,1.433-1.138c.268-.222.795-.344,1.144-.344.878,0,1.5-.714,1.5-1.592v-2.815Zm1,18.908c0,1.378-1.122,2.5-2.5,2.5H2.5c-1.378,0-2.5-1.122-2.5-2.5,0-1.207.86-2.217,2-2.45v-8.55c0-2.481,2.019-4.5,4.5-4.5h5c.276,0,.5.224.5.5s-.224.5-.5.5h-5c-1.93,0-3.5,1.57-3.5,3.5v8.5h5.5c.133,0,.26.053.354.146l.854.854h4.586l.854-.854c.094-.094.221-.146.354-.146h5.5v-7.5c0-.276.224-.5.5-.5s.5.224.5.5v7.55c1.14.232,2,1.242,2,2.45Zm-1,0c0-.827-.673-1.5-1.5-1.5h-5.793l-.854.854c-.094.094-.221.146-.354.146h-5c-.133,0-.26-.053-.354-.146l-.854-.854H2.5c-.827,0-1.5.673-1.5,1.5s.673,1.5,1.5,1.5h19c.827,0,1.5-.673,1.5-1.5Z"/>
</svg>
