<?xml version="1.0" encoding="UTF-8"?>
<svg xmlns="http://www.w3.org/2000/svg" id="Layer_1" data-name="Layer 1" viewBox="0 0 24 24">
  <path d="m17.476,6c-.832,0-1.567.301-2.184.893-.194.186-.511.137-.724-.008-.682-.464-1.37-.742-2.058-.834.215-4.909,3.951-5.051,3.99-5.051.692,0,1.5.322,1.5,1.23,0,.245-.203.664-.637.789-.266.075-.419.353-.344.618.077.267.355.423.618.343.885-.253,1.363-1.09,1.363-1.75,0-1.313-1.028-2.23-2.5-2.23-.983,0-3.348.687-4.435,3.329-.445-1.445-1.223-2.56-2.294-3.25-.232-.148-.542-.082-.691.15-.149.232-.083.542.15.691,1.38.888,2.176,2.7,2.262,5.13-.689.092-1.376.369-2.059.833-.214.146-.531.193-.724.01-.618-.593-1.353-.894-2.185-.894C3.569,6,0,10.015,0,15s3.569,9,6.524,9c.806,0,1.521-.282,2.126-.838.244-.227.608-.16.842-.006,1.664,1.104,3.352,1.104,5.015,0,.234-.154.597-.22.842.005.605.557,1.321.839,2.127.839,2.955,0,6.524-4.015,6.524-9s-3.569-9-6.524-9Zm0,17c-.555,0-1.029-.188-1.451-.576-.295-.271-.678-.407-1.073-.407-.339,0-.688.102-.997.306-1.336.887-2.574.887-3.911,0-.669-.444-1.521-.4-2.07.103-.421.387-.896.575-1.45.575-2.486,0-5.524-3.691-5.524-8S4.038,7,6.524,7c.573,0,1.061.201,1.493.615.519.496,1.332.537,1.978.096,1.368-.93,2.642-.931,4.011,0,.646.439,1.46.399,1.978-.098.431-.413.919-.614,1.492-.614,2.486,0,5.524,3.691,5.524,8s-3.038,8-5.524,8Z"/>
</svg>
