<?xml version="1.0" encoding="UTF-8"?>
<svg xmlns="http://www.w3.org/2000/svg" id="Layer_1" data-name="Layer 1" viewBox="0 0 24 24">
  <path d="m9,18.5c0,.276-.224.5-.5.5h-4c-2.481,0-4.5-2.019-4.5-4.5V4.5C0,2.019,2.019,0,4.5,0h14c2.481,0,4.5,2.019,4.5,4.5v5.5c0,.276-.224.5-.5.5s-.5-.224-.5-.5v-5.5c0-1.93-1.57-3.5-3.5-3.5H4.5c-1.93,0-3.5,1.57-3.5,3.5v10c0,1.93,1.57,3.5,3.5,3.5h4c.276,0,.5.224.5.5Zm15-1c0,3.584-2.916,6.5-6.5,6.5s-6.5-2.916-6.5-6.5,2.916-6.5,6.5-6.5,6.5,2.916,6.5,6.5Zm-1,0c0-3.033-2.468-5.5-5.5-5.5s-5.5,2.467-5.5,5.5,2.468,5.5,5.5,5.5,5.5-2.467,5.5-5.5Zm-5-.207v-2.793c0-.276-.224-.5-.5-.5s-.5.224-.5.5v3c0,.133.053.26.146.354l2,2c.098.098.226.146.354.146s.256-.049.354-.146c.195-.195.195-.512,0-.707l-1.854-1.854Zm-3.364-6.805l-4.138,2.298c-.257.143-.537.214-.817.214-.293,0-.586-.078-.852-.234-.52-.305-.829-.847-.829-1.449v-4.597c0-.602.31-1.144.829-1.449.521-.305,1.145-.312,1.669-.021l4.138,2.298c.541.301.864.851.864,1.47s-.323,1.169-.864,1.47Zm-.136-1.47c0-.251-.131-.474-.351-.596l-4.138-2.298c-.105-.059-.218-.088-.331-.088-.118,0-.235.032-.345.096-.214.125-.336.339-.336.587v4.597c0,.248.122.462.336.587s.46.128.676.008l4.138-2.298c.22-.122.351-.345.351-.596Z"/>
</svg>
