<?xml version="1.0" encoding="UTF-8"?>
<svg xmlns="http://www.w3.org/2000/svg" id="Layer_1" data-name="Layer 1" viewBox="0 0 24 24">
  <path d="m22.389,8.682l-2.389-2.389v-1.793c0-2.481-2.019-4.5-4.5-4.5h-7c-2.481,0-4.5,2.019-4.5,4.5v1.793l-2.389,2.389c-1.039,1.038-1.611,2.419-1.611,3.889v6.929c0,2.481,2.019,4.5,4.5,4.5h15c2.481,0,4.5-2.019,4.5-4.5v-6.929c0-1.47-.572-2.851-1.611-3.889Zm-.707.707c.214.213.403.444.567.69-.036.021-2.248,2.257-2.248,2.257v-4.629l1.682,1.682ZM5,4.5c0-1.93,1.57-3.5,3.5-3.5h7c1.93,0,3.5,1.57,3.5,3.5,0,0,.007,8.834.008,8.849l-4.534,4.627c-1.322,1.322-3.631,1.319-4.945.003l-4.537-4.63c.001-.014.008-8.848.008-8.848Zm-1,3.207v4.629s-2.212-2.236-2.248-2.257c.164-.245.353-.476.566-.69l1.682-1.682Zm19,11.793c0,1.93-1.57,3.5-3.5,3.5H4.5c-1.93,0-3.5-1.57-3.5-3.5v-6.929c0-.545.109-1.072.293-1.568l7.525,7.679c.85.85,1.979,1.318,3.182,1.318s2.332-.468,3.186-1.321l7.521-7.675c.185.496.293,1.022.293,1.568v6.929ZM15,4c0-.552.448-1,1-1s1,.448,1,1-.448,1-1,1-1-.448-1-1Zm-8,0c0-.552.448-1,1-1s1,.448,1,1-.448,1-1,1-1-.448-1-1Zm5,12c2.206,0,4-1.794,4-4s-1.794-4-4-4-4,1.794-4,4,1.794,4,4,4Zm0-7c1.654,0,3,1.346,3,3s-1.346,3-3,3-3-1.346-3-3,1.346-3,3-3Z"/>
</svg>
