<?xml version="1.0" encoding="UTF-8"?>
<svg xmlns="http://www.w3.org/2000/svg" id="Layer_1" data-name="Layer 1" viewBox="0 0 24 24">
  <path d="m22,8h-5c-1.103,0-2,.897-2,2v6h-4v-4.5c0-2.332-1.462-4.325-3.515-5.123.913-.632,1.515-1.685,1.515-2.877,0-1.93-1.57-3.5-3.5-3.5s-3.5,1.57-3.5,3.5c0,1.192.602,2.245,1.515,2.877-2.053.799-3.515,2.792-3.515,5.123v12c0,.276.224.5.5.5s.5-.224.5-.5v-6.5h22v6.5c0,.276.224.5.5.5s.5-.224.5-.5v-13.5c0-1.103-.897-2-2-2Zm-3,1h1v2h-1v-2ZM3,3.5c0-1.379,1.121-2.5,2.5-2.5s2.5,1.121,2.5,2.5-1.121,2.5-2.5,2.5-2.5-1.121-2.5-2.5Zm2.5,3.5c2.481,0,4.5,2.019,4.5,4.5v4.5H1v-4.5c0-2.481,2.019-4.5,4.5-4.5Zm10.5,9v-6c0-.552.448-1,1-1h1v2c0,.552.448,1,1,1h1c.552,0,1-.448,1-1v-2h1c.552,0,1,.448,1,1v6h-7Z"/>
</svg>
