<?xml version="1.0" encoding="UTF-8"?>
<svg xmlns="http://www.w3.org/2000/svg" id="Layer_1" data-name="Layer 1" viewBox="0 0 24 24">
  <path d="m23.5,23h-1.5v-5.5c0-1.956-1.254-3.624-3-4.243v-1.757c0-1.127-.536-2.131-1.366-2.772l-1.124-4.697c-.119-.598-.648-1.031-1.257-1.031h-.486c-.608,0-1.138.434-1.254,1.018l-.911,3.982h-2.257l.655-3.75c0-.689-.561-1.25-1.25-1.25h-1.5c-.689,0-1.25.561-1.242,1.341l.696,3.751c-1.548.361-2.704,1.753-2.704,3.409v1.757c-1.746.619-3,2.287-3,4.243v1.768s0,.002,0,.003v3.729H.5c-.276,0-.5.224-.5.5s.224.5.5.5h23c.276,0,.5-.224.5-.5s-.224-.5-.5-.5ZM14.49,4.227c.026-.131.143-.227.276-.227h.486c.134,0,.25.096.28.245l.931,3.89c-.306-.088-.63-.135-.964-.135h-1.873l.863-3.773Zm-6.24-.227h1.5c.138,0,.25.112.258.163l-.677,3.837h-.627l-.703-3.75c0-.138.112-.25.25-.25Zm-2.25,7.5c0-1.379,1.122-2.5,2.5-2.5h7c1.379,0,2.5,1.121,2.5,2.5v1.528c-.164-.018-.331-.028-.5-.028H6.5c-.169,0-.336.01-.5.028v-1.528Zm.5,2.5h11c1.93,0,3.5,1.57,3.5,3.5v1.403c-.241.064-.492.097-.75.097-1.268,0-2.25-.807-2.25-1.5,0-.276-.224-.5-.5-.5s-.5.224-.5.5c0,.693-.982,1.5-2.25,1.5s-2.25-.807-2.25-1.5c0-.276-.224-.5-.5-.5s-.5.224-.5.5c0,.693-.983,1.5-2.25,1.5s-2.25-.807-2.25-1.5c0-.276-.224-.5-.5-.5s-.5.224-.5.5c0,.693-.983,1.5-2.25,1.5-.254,0-.508-.034-.75-.099v-1.401c0-1.93,1.57-3.5,3.5-3.5Zm-3.5,5.928c.244.048.495.072.75.072,1.127,0,2.163-.495,2.75-1.208.587.713,1.623,1.208,2.75,1.208s2.164-.495,2.75-1.207c.586.712,1.623,1.207,2.75,1.207s2.163-.495,2.75-1.208c.587.713,1.623,1.208,2.75,1.208.255,0,.505-.024.75-.071v3.071H3v-3.072ZM8,1c0-.552.448-1,1-1s1,.448,1,1-.448,1-1,1-1-.448-1-1Zm6,0c0-.552.448-1,1-1s1,.448,1,1-.448,1-1,1-1-.448-1-1Z"/>
</svg>
