<?xml version="1.0" encoding="UTF-8"?>
<svg xmlns="http://www.w3.org/2000/svg" id="Layer_1" data-name="Layer 1" viewBox="0 0 24 24">
  <path d="m6,10c-1.103,0-2,.897-2,2s.897,2,2,2,2-.897,2-2-.897-2-2-2Zm0,3c-.552,0-1-.448-1-1s.448-1,1-1,1,.448,1,1-.448,1-1,1Zm5.331-2.903c.101-.389.044-.792-.158-1.137-.203-.346-.528-.592-.916-.692-.388-.103-.791-.045-1.139.159l-.223.131c-.407-.34-.881-.606-1.396-.786v-.271c0-.827-.673-1.5-1.5-1.5s-1.5.673-1.5,1.5v.271c-.515.18-.988.446-1.396.786l-.223-.131c-.347-.204-.75-.262-1.139-.159-.388.101-.713.347-.915.691-.203.346-.26.749-.159,1.138.101.388.347.713.691.915l.234.138c-.064.3-.095.576-.095.851s.03.551.094.85l-.233.138c-.345.203-.591.528-.691.916-.101.389-.044.792.158,1.137.203.346.528.592.916.692.389.103.792.045,1.139-.159l.223-.131c.407.34.881.606,1.396.786v.271c0,.827.673,1.5,1.5,1.5s1.5-.673,1.5-1.5v-.271c.515-.18.988-.446,1.396-.786l.223.131c.348.204.751.262,1.139.159.388-.101.713-.347.915-.691.203-.346.26-.749.159-1.138-.101-.388-.347-.713-.692-.917l-.232-.137c.063-.299.094-.575.094-.85s-.03-.551-.095-.851l.233-.137c.346-.203.592-.528.692-.916Zm-1.981.948c.103.361.15.665.15.955s-.048.594-.15.955c-.062.219.031.452.228.568l.555.325c.116.068.198.177.231.307.033.129.015.264-.054.379-.067.115-.175.197-.305.23-.132.032-.265.015-.379-.053l-.54-.318c-.195-.116-.446-.084-.607.077-.431.432-.984.743-1.604.903-.221.058-.375.257-.375.484v.642c0,.275-.225.5-.5.5s-.5-.225-.5-.5v-.642c0-.228-.154-.427-.375-.484-.619-.16-1.173-.472-1.604-.903-.096-.097-.225-.146-.354-.146-.087,0-.175.022-.254.069l-.54.318c-.113.068-.247.087-.379.053-.13-.033-.237-.115-.306-.231-.067-.114-.086-.249-.053-.378.033-.13.115-.238.23-.306l.556-.326c.196-.116.29-.35.228-.568-.103-.361-.15-.665-.15-.955s.048-.594.15-.955c.062-.219-.03-.452-.227-.567l-.557-.328c-.115-.067-.197-.176-.23-.305s-.015-.264.054-.379c.067-.115.175-.197.305-.23.13-.035.263-.015.379.053l.54.318c.196.117.447.085.607-.077.431-.432.984-.743,1.604-.903.221-.058.375-.257.375-.484v-.642c0-.275.225-.5.5-.5s.5.225.5.5v.642c0,.228.154.427.375.484.619.16,1.173.472,1.604.903.16.161.411.193.607.077l.54-.318c.113-.066.249-.086.379-.053s.237.115.306.231c.067.114.086.249.053.378s-.115.237-.231.306l-.556.327c-.196.115-.289.349-.227.567Zm8.701,1.455c.24,1.416,1.466,2.5,2.949,2.5,1.654,0,3-1.346,3-3s-1.346-3-3-3c-1.483,0-2.71,1.084-2.949,2.5h-3.051v-5.5c0-1.379,1.121-2.5,2.5-2.5h.551c.24,1.416,1.466,2.5,2.949,2.5,1.654,0,3-1.346,3-3s-1.346-3-3-3c-1.483,0-2.71,1.084-2.949,2.5h-.551c-1.93,0-3.5,1.57-3.5,3.5v5.5h-1.5c-.276,0-.5.224-.5.5s.224.5.5.5h1.5v5.5c0,1.93,1.57,3.5,3.5,3.5h.551c.24,1.416,1.466,2.5,2.949,2.5,1.654,0,3-1.346,3-3s-1.346-3-3-3c-1.483,0-2.71,1.084-2.949,2.5h-.551c-1.379,0-2.5-1.121-2.5-2.5v-5.5h3.051Zm2.949-2.5c1.103,0,2,.897,2,2s-.897,2-2,2-2-.897-2-2,.897-2,2-2Zm0-9c1.103,0,2,.897,2,2s-.897,2-2,2-2-.897-2-2,.897-2,2-2Zm0,18c1.103,0,2,.897,2,2s-.897,2-2,2-2-.897-2-2,.897-2,2-2Z"/>
</svg>
