<?xml version="1.0" encoding="UTF-8"?>
<svg xmlns="http://www.w3.org/2000/svg" id="Layer_1" data-name="Layer 1" viewBox="0 0 24 24">
  <path d="m17.615,0h-6.757c-.921,0-1.823.374-2.475,1.025l-2.243,2.242c-.652.651-1.025,1.554-1.025,2.475v10.758c0,2.481,2.019,4.5,4.5,4.5h8c2.481,0,4.5-2.019,4.5-4.5V4.5c0-2.481-2.019-4.5-4.5-4.5Zm3.5,16.5c0,1.93-1.57,3.5-3.5,3.5h-8c-1.93,0-3.5-1.57-3.5-3.5V5.742c0-.658.267-1.302.732-1.768l2.243-2.242c.465-.466,1.11-.732,1.768-.732h6.757c1.93,0,3.5,1.57,3.5,3.5v12Zm-3,7c0,.276-.224.5-.5.5h-8c-4.136,0-7.5-3.364-7.5-7.5V4.5c0-.276.224-.5.5-.5s.5.224.5.5v12c0,3.584,2.916,6.5,6.5,6.5h8c.276,0,.5.224.5.5Zm.885-20v2c0,.276-.224.5-.5.5s-.5-.224-.5-.5v-2c0-.276.224-.5.5-.5s.5.224.5.5Zm-2,0v2c0,.276-.224.5-.5.5s-.5-.224-.5-.5v-2c0-.276.224-.5.5-.5s.5.224.5.5Zm-2,0v2c0,.276-.224.5-.5.5s-.5-.224-.5-.5v-2c0-.276.224-.5.5-.5s.5.224.5.5Zm-2,0v2c0,.276-.224.5-.5.5s-.5-.224-.5-.5v-2c0-.276.224-.5.5-.5s.5.224.5.5Zm-2,0v2c0,.276-.224.5-.5.5s-.5-.224-.5-.5v-2c0-.276.224-.5.5-.5s.5.224.5.5Z"/>
</svg>
