<?xml version="1.0" encoding="UTF-8"?>
<svg xmlns="http://www.w3.org/2000/svg" id="Layer_1" data-name="Layer 1" viewBox="0 0 24 24">
  <path d="m23.918,19.42l-4.02,3.999c-.373.371-.868.577-1.395.581-.555-.004-1.054-.205-1.415-.563l-4.022-4.001c-.196-.195-.197-.511-.002-.707.195-.196.512-.196.707-.002l4.022,4.001c.065.064.135.111.206.149V.5c0-.276.224-.5.5-.5s.5.224.5.5v22.339c.066-.041.137-.074.193-.13l4.02-3.998c.195-.194.512-.194.707.002.194.196.194.512-.002.707Zm-13.418.58c-5.238,0-9.5-4.262-9.5-9.5S5.262,1,10.5,1c1.671,0,3.313.439,4.75,1.271.078.046.164.067.25.067.172,0,.34-.089.433-.25.139-.239.057-.545-.183-.683-1.588-.919-3.404-1.405-5.25-1.405C4.71,0,0,4.71,0,10.5s4.71,10.5,10.5,10.5c.276,0,.5-.224.5-.5s-.224-.5-.5-.5Zm3.5-7.395c0-1.176-.842-2.169-2.001-2.362l-2.833-.473c-.675-.112-1.166-.691-1.166-1.375,0-.769.626-1.395,1.395-1.395h2.105c.827,0,1.5.673,1.5,1.5,0,.276.224.5.5.5s.5-.224.5-.5c0-1.378-1.122-2.5-2.5-2.5h-.5v-.5c0-.276-.224-.5-.5-.5s-.5.224-.5.5v.5h-.605c-1.321,0-2.395,1.074-2.395,2.395,0,1.176.842,2.169,2.001,2.362l2.833.473c.675.112,1.166.691,1.166,1.375,0,.769-.626,1.395-1.395,1.395h-2.105c-.827,0-1.5-.673-1.5-1.5,0-.276-.224-.5-.5-.5s-.5.224-.5.5c0,1.378,1.122,2.5,2.5,2.5h.5v.5c0,.276.224.5.5.5s.5-.224.5-.5v-.5h.605c1.321,0,2.395-1.074,2.395-2.395Z"/>
</svg>
