<?xml version="1.0" encoding="UTF-8"?>
<svg xmlns="http://www.w3.org/2000/svg" id="Layer_1" data-name="Layer 1" viewBox="0 0 24 24">
  <path d="m12,4c1.103,0,2-.897,2-2s-.897-2-2-2-2,.897-2,2,.897,2,2,2Zm0-3c.552,0,1,.448,1,1s-.448,1-1,1-1-.448-1-1,.448-1,1-1Zm9,5c1.103,0,2-.897,2-2s-.897-2-2-2-2,.897-2,2,.897,2,2,2Zm0-3c.552,0,1,.448,1,1s-.448,1-1,1-1-.448-1-1,.448-1,1-1Zm2.602,6.989c-.231,0-.542-.151-.591-.388-.192-.928-1.038-1.602-2.011-1.602s-1.818.674-2.011,1.602c-.056.271-.324.45-.591.388-.271-.056-.444-.32-.388-.591.288-1.39,1.545-2.398,2.989-2.398s2.701,1.009,2.989,2.398c.057.271-.117.535-.388.591Zm-14.591-2.591c.288-1.39,1.545-2.398,2.989-2.398s2.701,1.009,2.989,2.398c.057.271-.117.535-.388.591-.231,0-.542-.151-.591-.388-.192-.928-1.038-1.602-2.011-1.602s-1.818.674-2.011,1.602c-.057.271-.325.45-.591.388-.271-.056-.444-.32-.388-.591Zm-6.011.602c-.973,0-1.818.674-2.011,1.602-.056.271-.325.45-.591.388-.271-.056-.444-.32-.388-.591.288-1.39,1.545-2.398,2.989-2.398s2.701,1.009,2.989,2.398c.057.271-.117.535-.388.591-.231,0-.542-.151-.591-.388-.192-.928-1.038-1.602-2.011-1.602Zm19.982,15.456c.024.275-.18.518-.454.542-.015,0-.03.002-.045.002-.256,0-.475-.196-.497-.456-.131-1.49-1.195-2.732-2.649-3.091l-5.956-1.468c-.224-.055-.381-.255-.381-.485v-6.893c0-.789-.535-1.471-1.244-1.587-.452-.072-.886.046-1.227.336-.337.286-.529.703-.529,1.144v9.638c0,.192-.11.367-.283.45-.172.083-.378.06-.528-.059l-2.638-2.1c-.321-.299-.689-.428-1.103-.429-.399.014-.77.182-1.043.475-.565.604-.534,1.556.069,2.121l1.618,1.541c.2.19.208.507.018.707-.191.201-.508.207-.707.018l-1.615-1.538c-1.003-.939-1.055-2.525-.113-3.532.94-1.006,2.521-1.061,3.529-.119l1.796,1.429v-8.602c0-.734.321-1.429.881-1.905.56-.476,1.306-.68,2.035-.561,1.188.193,2.084,1.3,2.084,2.573v6.501l5.576,1.374c1.869.461,3.238,2.058,3.406,3.974ZM3,6c1.103,0,2-.897,2-2s-.897-2-2-2-2,.897-2,2,.897,2,2,2Zm0-3c.552,0,1,.448,1,1s-.448,1-1,1-1-.448-1-1,.448-1,1-1Z"/>
</svg>
