<?xml version="1.0" encoding="UTF-8"?>
<svg xmlns="http://www.w3.org/2000/svg" id="Layer_1" data-name="Layer 1" viewBox="0 0 24 24">
  <path d="m18.916,2.266L12.157.025c-.102-.034-.213-.034-.314,0l-6.759,2.241c-1.845.611-3.084,2.328-3.084,4.271l-.002,5.397c0,6.609,7.159,10.703,9.354,11.8,0,0,.405.265.649.265s.627-.213.627-.213c2.198-.885,9.37-4.354,9.37-11.852l.003-5.397c0-1.943-1.239-3.66-3.084-4.271Zm2.081,9.668c0,6.872-6.691,10.099-8.743,10.924l-.232.093-.224-.112c-2.064-1.032-8.801-4.871-8.801-10.906l.002-5.397c0-1.511.964-2.846,2.398-3.322l6.602-2.189,6.602,2.188c1.435.476,2.398,1.811,2.398,3.322l-.003,5.397Zm-4.549-1.935c-.628,0-1.5-.354-1.954-1.032-.582-.867-1.503-1.406-2.494-1.469v-1.255c0-.423-.213-.814-.571-1.045-.349-.226-.781-.261-1.156-.092-1.078.483-1.774,1.558-1.774,2.739v1.046l-1.253,2.503c-.227.466-.299.983-.208,1.495.284,1.616,1.422,3.5,2.898,4.8.232.204.523.312.823.312.125,0,.25-.019.374-.057.423-.13.742-.462.858-.914l.418-2.03h2.205c1.756,0,3.239-1.329,3.377-3.026.051-.621-.091-1.117-.42-1.475-.447-.484-1.054-.499-1.121-.499Zm.545,1.893c-.097,1.182-1.142,2.107-2.381,2.107h-2.612c-.237,0-.442.167-.49.399l-.494,2.405c-.033.126-.135.17-.178.184-.052.015-.151.03-.242-.05-1.296-1.142-2.33-2.838-2.574-4.223-.053-.302-.01-.608.121-.878l1.304-2.604c.035-.069.053-.146.053-.224v-1.164c0-.788.464-1.504,1.183-1.827.029-.013.057-.018.083-.018.052,0,.095.021.121.038.027.018.114.083.114.206v1.749c0,.276.224.5.5.5h.305c.73,0,1.425.386,1.859,1.033.682,1.019,1.89,1.475,2.784,1.475.002,0,.235.013.386.176.165.179.178.488.159.716Z"/>
</svg>
