<?xml version="1.0" encoding="UTF-8"?>
<svg xmlns="http://www.w3.org/2000/svg" id="Layer_1" data-name="Layer 1" viewBox="0 0 24 24">
  <path d="m24,20.5c0,.276-.224.5-.5.5H.5c-.276,0-.5-.224-.5-.5s.224-.5.5-.5h23c.276,0,.5.224.5.5Zm-.5,2.5H.5c-.276,0-.5.224-.5.5s.224.5.5.5h23c.276,0,.5-.224.5-.5s-.224-.5-.5-.5Zm0-6H.5c-.276,0-.5.224-.5.5s.224.5.5.5h23c.276,0,.5-.224.5-.5s-.224-.5-.5-.5Zm0-3H.5c-.276,0-.5.224-.5.5s.224.5.5.5h23c.276,0,.5-.224.5-.5s-.224-.5-.5-.5ZM1,7c0,2.206,1.794,4,4,4h18.5c.276,0,.5.224.5.5s-.224.5-.5.5H5c-2.757,0-5-2.243-5-5S2.243,2,5,2h10.017c.041-.63.299-1.195.74-1.563.439-.367,1.009-.507,1.602-.401l5.369.823c.737.112,1.273.735,1.273,1.482v.368c0,.746-.535,1.37-1.272,1.483l-5.368.822c-.129.024-.259.037-.386.037-.444,0-.866-.147-1.21-.433-.457-.379-.722-.966-.752-1.619H5c-2.206,0-4,1.794-4,4Zm15-4.116c0,.402.146.754.4.965.214.177.488.236.791.181l5.385-.825c.246-.038.424-.246.424-.495v-.368c0-.249-.178-.457-.424-.494l-5.383-.825c-.075-.014-.148-.021-.217-.021-.224,0-.418.069-.579.203-.252.21-.397.562-.397.963v.717Z"/>
</svg>
