<?xml version="1.0" encoding="UTF-8"?>
<svg xmlns="http://www.w3.org/2000/svg" id="Layer_1" data-name="Layer 1" viewBox="0 0 24 24">
  <path d="m7,8c-1.654,0-3,1.346-3,3s1.346,3,3,3,3-1.346,3-3-1.346-3-3-3Zm0,5c-1.103,0-2-.897-2-2s.897-2,2-2,2,.897,2,2-.897,2-2,2Zm10-5c-1.654,0-3,1.346-3,3s1.346,3,3,3,3-1.346,3-3-1.346-3-3-3Zm0,5c-1.103,0-2-.897-2-2s.897-2,2-2,2,.897,2,2-.897,2-2,2Zm2.5-10H4.5C2.019,3,0,5.019,0,7.5v9c0,2.481,2.019,4.5,4.5,4.5h2.505c.944,0,1.799-.523,2.228-1.365l1.468-2.883c.272-.467.759-.747,1.3-.747s1.027.279,1.287.724l1.505,2.916c.43.835,1.281,1.354,2.222,1.354h2.486c2.481,0,4.5-2.019,4.5-4.5V7.5c0-2.481-2.019-4.5-4.5-4.5Zm3.5,13.5c0,1.93-1.57,3.5-3.5,3.5h-2.486c-.564,0-1.075-.312-1.333-.813l-1.518-2.939c-.453-.778-1.263-1.243-2.163-1.243s-1.71.464-2.177,1.268l-1.481,2.908c-.258.505-.771.819-1.337.819h-2.505c-1.93,0-3.5-1.57-3.5-3.5V7.5c0-1.93,1.57-3.5,3.5-3.5h15c1.93,0,3.5,1.57,3.5,3.5v9Z"/>
</svg>
