<?xml version="1.0" encoding="UTF-8"?>
<svg xmlns="http://www.w3.org/2000/svg" id="Layer_1" data-name="Layer 1" viewBox="0 0 24 24">
  <path d="m19,10c0-.552.448-1,1-1s1,.448,1,1-.448,1-1,1-1-.448-1-1Zm-3,1c.552,0,1-.448,1-1s-.448-1-1-1-1,.448-1,1,.448,1,1,1Zm-2.5-4.761v-.239h-4.734c-3.566,0-6.532,2.665-6.752,6.067-.161,2.477,1.073,4.793,3.218,6.044.48.28.768.764.768,1.294v2.095c0,.827.673,1.5,1.5,1.5s1.5-.673,1.5-1.5v-1c0-.827.673-1.5,1.5-1.5h3c.827,0,1.5.673,1.5,1.5v1c0,.827.673,1.5,1.5,1.5s1.5-.673,1.5-1.5v-2.083c0-.536.291-1.027.777-1.312,1.433-.838,2.481-2.169,2.953-3.748.079-.265.355-.414.622-.336.265.079.415.357.336.622-.544,1.822-1.753,3.358-3.406,4.325-.177.104-.282.271-.282.449v2.083c0,1.378-1.122,2.5-2.5,2.5s-2.5-1.122-2.5-2.5v-1c0-.276-.224-.5-.5-.5h-3c-.276,0-.5.224-.5.5v1c0,1.378-1.122,2.5-2.5,2.5s-2.5-1.122-2.5-2.5v-2.095c0-.17-.102-.331-.271-.43-1.057-.617-1.908-1.466-2.538-2.45l-1.255,2.221c-.092.163-.262.254-.436.254-.083,0-.168-.021-.246-.064-.24-.136-.325-.441-.189-.682l1.568-2.776c-.465-1.073-.696-2.253-.617-3.475.254-3.927,3.659-7.002,7.75-7.002h4.787c.082-.726.326-1.42.734-2.021-.727-.104-1.287-.723-1.287-1.479,0-.828.672-1.5,1.5-1.5s1.493.666,1.499,1.489c.747-.374,1.578-.551,2.442-.468.556.053,1.082.218,1.561.468.006-.823.674-1.489,1.499-1.489s1.5.672,1.5,1.5c0,.776-.591,1.406-1.346,1.484.525.768.846,1.692.846,2.687v.33c0,.145.054.276.143.35.941.78,1.443,1.973,1.344,3.19-.166,2.036-1.957,3.458-4.356,3.458h-3.714c-2.032,0-3.748-1.519-3.905-3.458-.105-1.291.46-2.532,1.487-3.303Zm-.49,3.222c.115,1.423,1.393,2.539,2.908,2.539h3.714c1.856,0,3.238-1.044,3.359-2.539.074-.906-.285-1.759-.986-2.34-.32-.266-.504-.674-.504-1.12v-.33c0-1.881-1.386-3.486-3.154-3.656-.117-.011-.233-.017-.349-.017-.874,0-1.698.317-2.351.91-.728.663-1.146,1.606-1.146,2.59v1c0,.17-.086.329-.23.421-.86.552-1.343,1.526-1.26,2.541Z"/>
</svg>
