<?xml version="1.0" encoding="UTF-8"?>
<svg xmlns="http://www.w3.org/2000/svg" id="Layer_1" data-name="Layer 1" viewBox="0 0 24 24">
  <path d="m24,.5c0-.276-.224-.5-.5-.5s-.499.223-.5.499h0s-.009,2.634-.009,4.202c0,1.741-.174,3.368-.523,4.888C19.81,7.46,10.374.194,8.104,2.47c-.847.846-.966,1.919-1.062,2.782-.067.604-.125,1.125-.395,1.395-.271.27-.792.331-1.396.401-.861.1-1.934.225-2.779,1.07-2.273,2.271,4.985,11.702,7.108,14.353-1.518.348-3.141.521-4.878.521-1.567,0-4.202.009-4.202.009H.499c-.276,0-.499.224-.499.5s.224.5.5.5c0,0,0,0,.001,0h0s2.632-.009,4.199-.009c5.693,0,10.232-1.771,13.876-5.415,3.644-3.643,5.415-8.182,5.415-13.876,0-1.566.009-4.198.009-4.199h0s0,0,0-.001Zm-6.131,17.369c-2.079,2.079-4.471,3.513-7.231,4.324-.002-.003-.004-.006-.006-.008-.57-.703-1.135-1.425-1.683-2.151,2.734-.647,5.125-1.981,7.114-3.97,1.287-1.286,2.308-2.752,3.034-4.358.114-.251.003-.548-.249-.662-.249-.113-.548-.002-.661.25-.678,1.495-1.63,2.862-2.831,4.063-1.958,1.957-4.333,3.234-7.062,3.797-3.45-4.704-6.065-9.382-5.117-10.329.6-.599,1.407-.693,2.188-.784.723-.084,1.471-.171,1.988-.687.518-.517.601-1.266.682-1.991.087-.781.177-1.587.776-2.186,1.155-1.154,7.841,2.978,13.374,7.468.002.002.004.003.006.004-.812,2.755-2.245,5.144-4.321,7.22Z"/>
</svg>
