<?xml version="1.0" encoding="UTF-8"?>
<svg xmlns="http://www.w3.org/2000/svg" id="Layer_1" data-name="Layer 1" viewBox="0 0 24 24">
  <path d="m19.257,17c-1.266,0-2.457.493-3.354,1.389-2.973,2.974-6.926,4.611-11.132,4.611h-2.15c-.799,0-1.298-.518-1.498-1.001-.201-.483-.213-1.202.351-1.767l1.236-1.236c1.834-.059,3.71-.883,5.057-2.229l5.026-5.025c.459.145.94.231,1.437.253.08.003.159.005.238.005,1.46,0,2.873-.582,3.909-1.618l1.004-1.005c1.092-1.091,1.68-2.603,1.613-4.146-.068-1.565-.77-2.985-1.977-4-2.168-1.82-5.521-1.593-7.633.518l-.636.637c-1.586,1.586-2.109,3.871-1.5,5.829l-5.017,5.017c-1.346,1.346-2.17,3.222-2.229,5.057l-1.236,1.236c-.764.764-.981,1.858-.568,2.856s1.341,1.618,2.422,1.618h2.15c4.473,0,8.677-1.742,11.839-4.904.708-.706,1.647-1.096,2.646-1.096,2.063,0,3.743,1.679,3.743,3.742v1.758c0,.276.224.5.5.5s.5-.224.5-.5v-1.758c0-2.615-2.127-4.742-4.743-4.742Zm-6.476-5.261s0,0,.001,0c-.001,0-.002.001-.001,0Zm-1.325-8.646l.636-.637c.963-.963,2.233-1.456,3.477-1.456,1.013,0,2.009.328,2.806.997.99.832,1.565,1.996,1.621,3.277.055,1.265-.427,2.502-1.321,3.396l-1.004,1.005c-.895.895-2.14,1.376-3.397,1.321-1.282-.056-2.445-.632-3.276-1.621-1.491-1.774-1.289-4.534.459-6.282Zm-2.204,5.132s0,0,0,0c0,0,0,0,0,0Zm-4.313,5.715l4.733-4.734c.158.284.344.557.559.812.451.537.983.974,1.572,1.3l-4.743,4.743c-1.085,1.086-2.563,1.78-4.036,1.915.135-1.474.83-2.951,1.915-4.036Z"/>
</svg>
