<?xml version="1.0" encoding="UTF-8"?>
<svg xmlns="http://www.w3.org/2000/svg" id="Layer_1" data-name="Layer 1" viewBox="0 0 24 24">
  <path d="m15.706,6.796c-.251-.115-.548-.002-.662.25s-.002.548.25.662c2.859,1.293,4.706,4.156,4.706,7.292,0,2.026-.758,3.878-2.004,5.289l-5.057-5.057c-.279-.279-.439-.666-.439-1.061V1.289l2.652,2.57c.097.094.223.141.348.141.13,0,.261-.051.359-.152.192-.198.188-.515-.011-.707L13.061.439C12.768.147,12.385.001,12.002,0c0,0-.001,0-.002,0,0,0-.002,0-.003,0-.382,0-.763.145-1.052.434l-2.793,2.707c-.198.192-.203.509-.011.707.192.198.509.203.707.011l2.652-2.57v4.726c-4.731.26-8.5,4.191-8.5,8.986,0,4.963,4.038,9,9,9s9-4.037,9-9c0-3.529-2.078-6.749-5.294-8.204ZM4,15c0-4.243,3.321-7.725,7.5-7.984v7.156c0,.668.26,1.295.732,1.768l5.057,5.057c-1.411,1.246-3.263,2.004-5.289,2.004-4.411,0-8-3.589-8-8Z"/>
</svg>
