<?xml version="1.0" encoding="UTF-8"?>
<svg xmlns="http://www.w3.org/2000/svg" id="Layer_1" data-name="Layer 1" viewBox="0 0 24 24">
  <path d="m6.5,4.5v4.5c0,1.103-.896,2-2,2s-2-.897-2-2c0-.276.224-.5.5-.5s.5.224.5.5c0,.552.449,1,1,1s1-.448,1-1v-4.5c0-.276.223-.5.5-.5s.5.224.5.5Zm9.864.073c.078-.314-.16-.617-.483-.617h-.005c-.229,0-.428.156-.483.378l-1.346,5.43-1.401-5.435c-.057-.219-.255-.373-.482-.373-.327,0-.565.31-.481.625l1.511,5.741c.054.24.224.458.462.579.236.122.518.132.771.024.261-.109.451-.345.521-.645l1.415-5.708Zm-4.513,5.809c.078.314-.16.617-.483.617h-.005c-.229,0-.428-.156-.483-.378l-.154-.622h-2.431l-.162.627c-.057.219-.255.373-.482.373-.327,0-.565-.31-.481-.625l1.511-5.741c.054-.24.224-.458.462-.579.236-.122.518-.132.771-.024.261.109.451.345.521.645l1.415,5.708Zm-1.373-1.383l-.944-3.808-.981,3.808h1.925Zm13.522-4.5v9.515c0,1.735-.676,3.368-1.904,4.597l-3.485,3.484c-1.227,1.228-2.859,1.904-4.596,1.904H4.5c-2.481,0-4.5-2.019-4.5-4.5V4.5C0,2.019,2.019,0,4.5,0h15c2.481,0,4.5,2.019,4.5,4.5Zm-9.985,18.5c.335,0,.663-.038.985-.096v-5.404c0-1.379,1.122-2.5,2.5-2.5h5.404c.058-.323.096-.651.096-.985V4.5c0-1.93-1.57-3.5-3.5-3.5H4.5c-1.93,0-3.5,1.57-3.5,3.5v15c0,1.93,1.57,3.5,3.5,3.5h9.515Zm8.606-7h-5.12c-.827,0-1.5.673-1.5,1.5v5.121c.704-.273,1.354-.682,1.904-1.232l3.485-3.484c.55-.551.959-1.2,1.231-1.904Zm-6.458-5.62l1.511-5.741c.054-.24.224-.458.462-.579.236-.122.518-.132.771-.024.261.109.451.345.521.645l1.415,5.708c.078.314-.16.618-.483.618h-.005c-.229,0-.428-.156-.483-.378l-.156-.628h-2.428l-.163.633c-.057.219-.255.373-.482.373-.327,0-.565-.31-.481-.625Zm1.384-1.38h1.922l-.943-3.802-.98,3.802Z"/>
</svg>
