<?xml version="1.0" encoding="UTF-8"?>
<svg xmlns="http://www.w3.org/2000/svg" id="Layer_1" data-name="Layer 1" viewBox="0 0 24 24">
  <path d="m24,4.5v15c0,2.481-2.019,4.5-4.5,4.5h-6c-.276,0-.5-.224-.5-.5s.224-.5.5-.5h6c1.93,0,3.5-1.57,3.5-3.5V4.5c0-1.93-1.57-3.5-3.5-3.5h-9c-1.93,0-3.5,1.57-3.5,3.5v5c0,.276-.224.5-.5.5s-.5-.224-.5-.5v-5c0-2.481,2.019-4.5,4.5-4.5h9c2.481,0,4.5,2.019,4.5,4.5Zm-13.5.5h9c.276,0,.5-.224.5-.5s-.224-.5-.5-.5h-9c-.276,0-.5.224-.5.5s.224.5.5.5Zm0,4h9c.276,0,.5-.224.5-.5s-.224-.5-.5-.5h-9c-.276,0-.5.224-.5.5s.224.5.5.5Zm0,4h7c.276,0,.5-.224.5-.5s-.224-.5-.5-.5h-7c-.276,0-.5.224-.5.5s.224.5.5.5Zm7.5,2c1.654,0,3,1.346,3,3s-1.346,3-3,3-3-1.346-3-3,1.346-3,3-3Zm0,1c-1.103,0-2,.897-2,2s.897,2,2,2,2-.897,2-2-.897-2-2-2Zm-7,7.5c0,.276-.224.5-.5.5H.5c-.276,0-.5-.224-.5-.5s.224-.5.5-.5h.5v-1c0-1.654,1.346-3,3-3h.378c-.915-2.409-1.378-3.936-1.378-4.54,0-1.38,1.098-2.46,2.5-2.46s2.5,1.08,2.5,2.46c0,.604-.464,2.131-1.378,4.54h.378c1.654,0,3,1.346,3,3v1h.5c.276,0,.5.224.5.5Zm-5.552-4.5h.104c1.342-3.493,1.448-4.356,1.448-4.54,0-.818-.659-1.46-1.5-1.46s-1.5.642-1.5,1.46c0,.184.106,1.047,1.448,4.54Zm-3.448,4h7v-1c0-1.103-.897-2-2-2h-3c-1.103,0-2,.897-2,2v1Z"/>
</svg>
