<?xml version="1.0" encoding="UTF-8"?>
<svg xmlns="http://www.w3.org/2000/svg" id="Layer_1" data-name="Layer 1" viewBox="0 0 24 24">
  <path d="m22.346.812c-.473-.516-1.145-.812-1.844-.812H3.5c-.696,0-1.367.294-1.838.806-.472.512-.71,1.205-.653,1.899l1.412,17.164c.19,2.316,2.16,4.131,4.485,4.131h10.095c2.35,0,4.277-1.765,4.483-4.105l1.509-17.175c.062-.697-.174-1.392-.646-1.908Zm-1.859,18.995c-.16,1.82-1.659,3.193-3.487,3.193H6.905c-1.808,0-3.34-1.411-3.488-3.213l-.308-3.75c.702.594,1.645.963,2.619.963,1.239,0,2.434-.594,3.136-1.494.703.9,1.897,1.494,3.136,1.494s2.434-.594,3.136-1.494c.703.9,1.897,1.494,3.136,1.494.939,0,1.847-.347,2.54-.904l-.326,3.711Zm.486-5.533c-.353.954-1.532,1.727-2.701,1.727s-2.314-.72-2.667-1.674c-.145-.393-.793-.393-.938,0-.353.954-1.5,1.674-2.667,1.674s-2.314-.72-2.667-1.674c-.145-.393-.793-.393-.938,0-.353.954-1.5,1.674-2.667,1.674-1.856,0-2.774-1.843-2.774-1.843l-.949-11.534c-.035-.423.104-.828.392-1.14.288-.312.679-.483,1.103-.483h17.002c.426,0,.818.173,1.106.487s.425.721.388,1.145l-1.023,11.642Z"/>
  <path d="m11.001,3.94c-.807.884-2.001,2.786-2.001,4.06,0,1.654,1.346,3,3,3s3-1.346,3-3c0-1.274-1.194-3.175-2.001-4.06-.511-.56-1.486-.56-1.997,0Zm.999,6.06c-1.103,0-2-.897-2-2,0-.917,1.013-2.59,1.74-3.386.091-.099.202-.114.26-.114s.169.015.26.114c.727.796,1.74,2.469,1.74,3.386,0,1.103-.897,2-2,2Z"/>
</svg>
