<?xml version="1.0" encoding="UTF-8"?>
<svg xmlns="http://www.w3.org/2000/svg" id="Layer_1" data-name="Layer 1" viewBox="0 0 24 24">
  <path d="m19.5,20H4.5c-2.481,0-4.5-2.019-4.5-4.5v-7c0-2.481,2.019-4.5,4.5-4.5h15c2.481,0,4.5,2.019,4.5,4.5v7c0,2.481-2.019,4.5-4.5,4.5ZM4.5,5c-1.93,0-3.5,1.57-3.5,3.5v7c0,1.93,1.57,3.5,3.5,3.5h15c1.93,0,3.5-1.57,3.5-3.5v-7c0-1.93-1.57-3.5-3.5-3.5H4.5Zm7.5,11c-2.206,0-4-1.794-4-4s1.794-4,4-4,4,1.794,4,4-1.794,4-4,4Zm0-7c-1.654,0-3,1.346-3,3s1.346,3,3,3,3-1.346,3-3-1.346-3-3-3Zm-7-1c-.552,0-1,.448-1,1s.448,1,1,1,1-.448,1-1-.448-1-1-1Zm13,1c0,.552.448,1,1,1s1-.448,1-1-.448-1-1-1-1,.448-1,1Zm-13,5c-.552,0-1,.448-1,1s.448,1,1,1,1-.448,1-1-.448-1-1-1Zm13,1c0,.552.448,1,1,1s1-.448,1-1-.448-1-1-1-1,.448-1,1Z"/>
</svg>
