<?xml version="1.0" encoding="UTF-8"?>
<svg xmlns="http://www.w3.org/2000/svg" id="Layer_1" data-name="Layer 1" viewBox="0 0 24 24">
  <path d="m7.5,14H2.5c-1.378,0-2.5,1.121-2.5,2.5v5c0,1.379,1.122,2.5,2.5,2.5h5c1.378,0,2.5-1.121,2.5-2.5v-5c0-1.379-1.122-2.5-2.5-2.5Zm1.5,7.5c0,.827-.673,1.5-1.5,1.5H2.5c-.827,0-1.5-.673-1.5-1.5v-5c0-.827.673-1.5,1.5-1.5h5c.827,0,1.5.673,1.5,1.5v5ZM24,5.5c0-3.032-2.468-5.5-5.5-5.5s-5.5,2.468-5.5,5.5,2.468,5.5,5.5,5.5,5.5-2.468,5.5-5.5Zm-10,0c0-2.481,2.019-4.5,4.5-4.5s4.5,2.019,4.5,4.5-2.019,4.5-4.5,4.5-4.5-2.019-4.5-4.5ZM7.213,1h-3.713c-.276,0-.5-.224-.5-.5s.224-.5.5-.5h4c.827,0,1.5.673,1.5,1.5v4c0,.276-.224.5-.5.5s-.5-.224-.5-.5V1.755C3.935,3.342,1.197,7.152,1.01,11.521c-.011.269-.233.479-.499.479h-.022c-.276-.013-.49-.245-.478-.521C.208,6.865,3.013,2.825,7.213,1Zm9.575,22h3.712c.276,0,.5.224.5.5s-.224.5-.5.5h-4c-.827,0-1.5-.673-1.5-1.5v-4c0-.276.224-.5.5-.5s.5.224.5.5v3.745c4.065-1.587,6.802-5.396,6.989-9.766.012-.275.199-.493.521-.479.275.013.49.245.479.521-.198,4.613-3.002,8.654-7.201,10.479Z"/>
</svg>
