<?xml version="1.0" encoding="UTF-8"?>
<svg xmlns="http://www.w3.org/2000/svg" id="Layer_1" data-name="Layer 1" viewBox="0 0 24 24">
  <path d="m19.5,3H4.5C2.019,3,0,5.019,0,7.5v13c0,.201.12.383.306.461.062.026.129.039.194.039.128,0,.254-.049.35-.143l3.341-3.262,2.984,2.984c.283.283.66.439,1.061.439h.004c.402,0,.779-.159,1.062-.444l2.723-2.748,2.753,2.756c.293.293.677.438,1.061.438s.769-.146,1.062-.438l2.939-2.939,3.268,3.195.115.077c.153.104.353.112.514.026.163-.087.265-.257.265-.441V7.5c0-2.481-2.019-4.5-4.5-4.5Zm0,1c1.307,0,2.448.72,3.049,1.784l-2.964,2.991-3.143-3.143,1.672-1.632h1.387Zm-.619,5.486l-2.934,2.96-3.239-3.169,3.017-2.946,3.155,3.155Zm-2.199-5.486l-.948.926-.926-.926h1.873Zm-3.288,0l1.624,1.624-3.025,2.954-2.978-2.913,1.665-1.664h2.714Zm-2.115,5.274l-3.233,3.157-2.897-2.9,3.16-3.16,2.97,2.904Zm-2.013-5.274l-.965.965-.986-.965h1.952Zm-4.767,0h1.386l1.71,1.672-3.152,3.152-3.008-3.011c.597-1.079,1.747-1.812,3.065-1.812Zm-3.5,3.5c0-.221.021-.438.06-.648l2.676,2.679-2.736,2.736v-4.767Zm0,11.812v-4.907l2.483,2.483-2.483,2.425Zm.345-5.977l3.098-3.098,2.889,2.892-3.134,3.06-2.854-2.853Zm7.245,6.535c-.094.095-.219.147-.353.147-.127-.01-.26-.051-.355-.146l-2.976-2.975,3.133-3.059,3.278,3.281-2.728,2.752Zm3.431-3.463l-3.266-3.27,3.241-3.165,3.251,3.179-3.226,3.255Zm4.171,3.466c-.194.194-.512.196-.708,0l-2.756-2.759,3.234-3.264,3.161,3.091-2.931,2.931Zm3.634-3.634l-3.164-3.095,2.926-2.953,3.143,3.143-2.905,2.905Zm3.174,3.105l-2.459-2.406,2.459-2.459v4.865Zm0-7.156l-2.708-2.707,2.641-2.665c.044.221.067.448.067.681v4.69Z"/>
</svg>
