<?xml version="1.0" encoding="UTF-8"?>
<svg xmlns="http://www.w3.org/2000/svg" id="Layer_1" data-name="Layer 1" viewBox="0 0 24 24">
  <path d="m17.5,0H6.5c-1.378,0-2.5,1.121-2.5,2.5v7.186c0,4.365,3.343,8.024,7.5,8.29v5.025h-4c-.276,0-.5.224-.5.5s.224.5.5.5h9c.276,0,.5-.224.5-.5s-.224-.5-.5-.5h-4v-5.024c1.905-.116,3.685-.89,5.071-2.235,1.566-1.52,2.429-3.559,2.429-5.741V2.5c0-1.379-1.122-2.5-2.5-2.5Zm1.5,10c0,1.909-.755,3.693-2.125,5.024-1.371,1.329-3.186,2.02-5.09,1.972-3.741-.112-6.784-3.392-6.784-7.311V2.5c0-.827.673-1.5,1.5-1.5h11c.827,0,1.5.673,1.5,1.5v7.5Z"/>
</svg>
