<?xml version="1.0" encoding="UTF-8"?>
<svg xmlns="http://www.w3.org/2000/svg" id="Layer_1" data-name="Layer 1" viewBox="0 0 24 24">
  <path d="m19,.5v13c0,.276-.224.5-.5.5s-.5-.224-.5-.5V.5c0-.276.224-.5.5-.5s.5.224.5.5Zm1.5-.5c-.276,0-.5.224-.5.5v13c0,.276.224.5.5.5s.5-.224.5-.5V.5c0-.276-.224-.5-.5-.5Zm-12,4c.276,0,.5-.224.5-.5V.5c0-.276-.224-.5-.5-.5s-.5.224-.5.5v3c0,.276.224.5.5.5Zm3.5,0c.552,0,1-.448,1-1V1c0-.552-.448-1-1-1s-1,.448-1,1v2c0,.552.448,1,1,1ZM15,0c-.552,0-1,.448-1,1v2.5c0,.552.448,1,1,1s1-.448,1-1V1c0-.552-.448-1-1-1Zm8,0c-.552,0-1,.448-1,1v12c0,.552.448,1,1,1s1-.448,1-1V1c0-.552-.448-1-1-1Zm-7,9.5v11c0,1.93-1.57,3.5-3.5,3.5H3.5c-1.93,0-3.5-1.571-3.5-3.501v-11c0-1.93,1.57-3.5,3.5-3.5h9c1.93,0,3.5,1.571,3.5,3.501Zm-1,0c0-1.378-1.121-2.5-2.5-2.5H3.5c-1.379,0-2.5,1.121-2.5,2.499v11c0,1.378,1.121,2.5,2.5,2.5h9c1.379,0,2.5-1.121,2.5-2.499v-11ZM3.5,15c-.276,0-.5.224-.5.5v1c0,.276.224.5.5.5s.5-.224.5-.5v-1c0-.276-.224-.5-.5-.5Zm3,0c-.276,0-.5.224-.5.5v1c0,.276.224.5.5.5s.5-.224.5-.5v-1c0-.276-.224-.5-.5-.5Zm3,0c-.276,0-.5.224-.5.5v1c0,.276.224.5.5.5s.5-.224.5-.5v-1c0-.276-.224-.5-.5-.5Zm-6,4c-.276,0-.5.224-.5.5v1c0,.276.224.5.5.5s.5-.224.5-.5v-1c0-.276-.224-.5-.5-.5Zm3,0c-.276,0-.5.224-.5.5v1c0,.276.224.5.5.5s.5-.224.5-.5v-1c0-.276-.224-.5-.5-.5Zm3,0c-.276,0-.5.224-.5.5v1c0,.276.224.5.5.5s.5-.224.5-.5v-1c0-.276-.224-.5-.5-.5Zm3-4c-.276,0-.5.224-.5.5v1c0,.276.224.5.5.5s.5-.224.5-.5v-1c0-.276-.224-.5-.5-.5Zm0,4c-.276,0-.5.224-.5.5v1c0,.276.224.5.5.5s.5-.224.5-.5v-1c0-.276-.224-.5-.5-.5Zm.5-8.5v1c0,.827-.673,1.5-1.5,1.5h-7c-.827,0-1.5-.673-1.5-1.5v-1c0-.827.673-1.5,1.5-1.5h7c.827,0,1.5.673,1.5,1.5Zm-1,0c0-.276-.224-.5-.5-.5h-7c-.276,0-.5.224-.5.5v1c0,.276.224.5.5.5h7c.276,0,.5-.224.5-.5v-1Z"/>
</svg>
