<?xml version="1.0" encoding="UTF-8"?>
<svg xmlns="http://www.w3.org/2000/svg" id="Layer_1" data-name="Layer 1" viewBox="0 0 24 24">
  <path d="m7.5,16.5c0-1.379-1.122-2.5-2.5-2.5s-2.5,1.121-2.5,2.5,1.122,2.5,2.5,2.5,2.5-1.121,2.5-2.5Zm-4,0c0-.827.673-1.5,1.5-1.5s1.5.673,1.5,1.5-.673,1.5-1.5,1.5-1.5-.673-1.5-1.5Zm11,0c0-1.379-1.122-2.5-2.5-2.5s-2.5,1.121-2.5,2.5,1.122,2.5,2.5,2.5,2.5-1.121,2.5-2.5Zm-4,0c0-.827.673-1.5,1.5-1.5s1.5.673,1.5,1.5-.673,1.5-1.5,1.5-1.5-.673-1.5-1.5Zm1.5-11.5c1.378,0,2.5-1.121,2.5-2.5s-1.122-2.5-2.5-2.5-2.5,1.121-2.5,2.5,1.122,2.5,2.5,2.5Zm0-4c.827,0,1.5.673,1.5,1.5s-.673,1.5-1.5,1.5-1.5-.673-1.5-1.5.673-1.5,1.5-1.5Zm9.5,15.5c0-1.379-1.122-2.5-2.5-2.5s-2.5,1.121-2.5,2.5,1.122,2.5,2.5,2.5,2.5-1.121,2.5-2.5Zm-4,0c0-.827.673-1.5,1.5-1.5s1.5.673,1.5,1.5-.673,1.5-1.5,1.5-1.5-.673-1.5-1.5ZM23.312.891l-6.404,5.123c-.28.224-.586.412-.908.562v6.924c0,.276-.224.5-.5.5s-.5-.224-.5-.5v-6.593c-.296.061-.599.093-.903.093h-4.193c-.305,0-.607-.032-.903-.093v6.593c0,.276-.224.5-.5.5s-.5-.224-.5-.5v-6.924c-.322-.15-.628-.338-.908-.562L.688.891c-.215-.173-.25-.487-.078-.703.173-.215.488-.249.703-.078l6.404,5.123c.619.495,1.395.768,2.187.768h4.193c.792,0,1.568-.272,2.187-.768L22.688.109c.216-.172.53-.137.703.078.172.216.137.53-.078.703Zm-.318,22.537c.04.273-.149.527-.422.567-.024.003-.049.005-.073.005-.244,0-.458-.179-.494-.428-.215-1.467-1.507-2.572-3.005-2.572s-2.791,1.105-3.005,2.572c0,0,.004.428-.495.428s-.492-.415-.494-.427c0,0,0,0,0,0-.215-1.467-1.507-2.572-3.005-2.572s-2.791,1.105-3.005,2.572c0,0-.045.428-.495.428s-.476-.415-.494-.427c0,0,0,0,0,0-.215-1.467-1.507-2.572-3.005-2.572s-2.791,1.105-3.005,2.572c-.04.273-.294.453-.567.423-.273-.04-.462-.294-.422-.567.286-1.954,2.003-3.428,3.995-3.428,1.473,0,2.795.806,3.5,2.016.705-1.21,2.027-2.016,3.5-2.016s2.795.806,3.5,2.016c.705-1.21,2.027-2.016,3.5-2.016,1.991,0,3.708,1.474,3.995,3.428Z"/>
</svg>
