<?xml version="1.0" encoding="UTF-8"?>
<svg xmlns="http://www.w3.org/2000/svg" id="Layer_1" data-name="Layer 1" viewBox="0 0 24 24">
  <path d="m22.955,10.246l-1.955-1.955v-2.775c0-1.379-1.121-2.5-2.5-2.5h-2.775l-1.963-1.963c-.975-.975-2.561-.975-3.535,0l-1.962,1.963h-2.764c-1.378,0-2.5,1.121-2.5,2.5v2.765l-1.955,1.954c-.472.473-.732,1.101-.732,1.768s.26,1.296.732,1.768l1.955,1.955v2.775c0,1.379,1.122,2.5,2.5,2.5h2.775l1.962,1.963c.487.487,1.127.73,1.768.73s1.281-.243,1.768-.73l1.962-1.963h2.765c1.379,0,2.5-1.121,2.5-2.5v-2.765l1.955-1.954c.975-.976.974-2.562,0-3.535Zm-.707,2.828l-2.102,2.101c-.094.094-.146.221-.146.354v2.972c0,.827-.673,1.5-1.5,1.5h-2.972c-.133,0-.26.053-.354.146l-2.108,2.109c-.584.583-1.536.585-2.122,0l-2.109-2.109c-.094-.094-.221-.146-.354-.146h-2.982c-.827,0-1.5-.673-1.5-1.5v-2.982c0-.133-.053-.26-.146-.354l-2.101-2.102c-.284-.283-.439-.659-.439-1.061s.156-.777.439-1.061l2.101-2.101c.094-.094.146-.221.146-.354v-2.972c0-.827.673-1.5,1.5-1.5h2.971c.133,0,.26-.053.354-.146l2.109-2.109c.585-.585,1.537-.583,2.121,0l2.109,2.109c.094.094.221.146.354.146h2.982c.827,0,1.5.673,1.5,1.5v2.982c0,.133.053.26.146.354l2.102,2.102c.584.584.584,1.536,0,2.121Z"/>
</svg>
