<?xml version="1.0" encoding="UTF-8"?>
<svg xmlns="http://www.w3.org/2000/svg" id="Layer_1" data-name="Layer 1" viewBox="0 0 24 24">
  <path d="m3.967,12.354l-2.646,2.646h9.18c.276,0,.5.224.5.5s-.224.5-.5.5H1.32l2.646,2.646c.195.195.195.512,0,.707-.098.098-.226.146-.354.146s-.256-.049-.354-.146l-2.793-2.793c-.228-.228-.467-.561-.467-1.061s.239-.833.467-1.061l2.793-2.793c.195-.195.512-.195.707,0s.195.512,0,.707Zm20.033-5.854v13c0,2.481-2.019,4.5-4.5,4.5H4.5c-2.481,0-4.5-2.019-4.5-4.5,0-.276.224-.5.5-.5s.5.224.5.5c0,1.93,1.57,3.5,3.5,3.5h15c1.93,0,3.5-1.57,3.5-3.5v-10.5H1v2.5c0,.276-.224.5-.5.5s-.5-.224-.5-.5v-5C0,4.019,2.019,2,4.5,2h1.5V.5c0-.276.224-.5.5-.5s.5.224.5.5v1.5h10V.5c0-.276.224-.5.5-.5s.5.224.5.5v1.5h1.5c2.481,0,4.5,2.019,4.5,4.5Zm-1,1.5v-1.5c0-1.93-1.57-3.5-3.5-3.5H4.5c-1.93,0-3.5,1.57-3.5,3.5v1.5h22Z"/>
</svg>
