<?xml version="1.0" encoding="UTF-8"?>
<svg xmlns="http://www.w3.org/2000/svg" id="Layer_1" data-name="Layer 1" viewBox="0 0 24 24">
  <path d="m20,5.5c.552,0,1,1.119,1,2.5s-.448,2.5-1,2.5-1-1.119-1-2.5.448-2.5,1-2.5Zm-3.501,14.516c-.27-.07-.54.092-.609.359-.397,1.546-1.792,2.625-3.39,2.625H2.153c-.636,0-1.153-.518-1.153-1.153,0-.472.313-.901.798-1.096,1.338-.534,2.202-1.811,2.202-3.251V7.5c0-.276-.224-.5-.5-.5s-.5.224-.5.5v10c0,1.029-.617,1.94-1.573,2.322-.866.347-1.427,1.141-1.427,2.024,0,1.188.966,2.153,2.153,2.153h10.347c2.055,0,3.847-1.388,4.358-3.375.068-.268-.092-.54-.359-.609Zm7.354,3.131c.195.195.195.512,0,.707-.098.098-.226.146-.354.146s-.256-.049-.354-.146L.146.854C-.049.658-.049.342.146.146S.658-.049.854.146l2.916,2.916c.826-1.905,2.216-3.062,3.731-3.062h12.5c2.243,0,4,3.514,4,8s-1.757,8-4,8h-3v.293l6.854,6.854Zm-6.854-8.146h1.035c-.391-.433-.741-.993-1.035-1.655v1.655Zm3-14c-1.419,0-3,2.875-3,7s1.581,7,3,7,3-2.875,3-7-1.581-7-3-7ZM4.538,3.831l11.462,11.462v-7.293c0-3.048.811-5.647,2.035-7H7.5c-1.193,0-2.316,1.08-2.962,2.831Z"/>
</svg>
