<?xml version="1.0" encoding="UTF-8"?>
<svg xmlns="http://www.w3.org/2000/svg" id="Layer_1" data-name="Layer 1" viewBox="0 0 24 24">
  <path d="m23.408,17.855c-.551-1.861-1.602-4.858-3.042-6.495.635-.772,1.163-1.803,1.497-2.561.191-.432.184-.903-.021-1.328-.224-.464-.657-.81-1.189-.948-.958-.252-2.283-.522-3.378-.517-.821-1.976-2.788-4.187-4.08-5.504-.637-.646-1.752-.646-2.389,0-1.293,1.318-3.26,3.528-4.081,5.505-1.098-.002-2.419.265-3.378.517-.532.139-.965.484-1.188.948-.205.425-.213.896-.022,1.328.335.758.862,1.789,1.497,2.56-1.44,1.637-2.491,4.635-3.041,6.495-.128.435-.078.891.142,1.284.221.395.584.678,1.024.796,1.872.506,4.953,1.161,7.105.805.39.949,1.221,1.984,1.89,2.71.32.349.775.549,1.247.549s.927-.2,1.247-.548c.665-.724,1.491-1.753,1.884-2.697.417.069.866.104,1.339.104,1.963,0,4.265-.517,5.771-.924.44-.118.804-.401,1.025-.796.22-.394.271-.85.142-1.284Zm-3.01-10.365c.249.065.446.217.542.416.054.11.099.285.009.489-.303.687-.772,1.607-1.32,2.286-.096-.069-.193-.137-.292-.192-.645-.36-1.369-.587-2.129-.672.297-.702.451-1.442.451-2.179,0-.202-.029-.413-.072-.628.928.043,2.002.267,2.811.479Zm-17.339.415c.096-.198.293-.35.542-.415.809-.212,1.885-.434,2.811-.478-.042.215-.071.425-.071.627,0,.736.154,1.478.451,2.179-.759.085-1.484.312-2.129.672-.099.055-.195.123-.292.192-.547-.678-1.017-1.599-1.319-2.286-.09-.204-.045-.379.008-.49Zm9.451,14.87c-.267.289-.754.29-1.022,0-.808-.877-1.374-1.674-1.657-2.301.116-.047.249-.079.354-.137.711-.396,1.328-.943,1.814-1.604.486.66,1.103,1.207,1.814,1.604.106.059.229.103.347.151-.285.624-.848,1.415-1.651,2.289Zm9.883-4.124c-.089.158-.234.271-.412.319-3.669.987-6.467,1.166-7.681.492-.781-.436-1.425-1.093-1.861-1.9-.087-.162-.256-.263-.44-.263s-.353.101-.44.263c-.436.808-1.08,1.465-1.861,1.9-1.212.675-4.011.497-7.68-.492-.178-.048-.324-.161-.413-.319-.087-.156-.107-.339-.056-.513,1.073-3.63,2.384-6.1,3.599-6.776.725-.404,1.535-.611,2.424-.58.188.005.351-.091.442-.247.091-.156.091-.351,0-.507-.447-.759-.674-1.563-.674-2.39,0-1.385,1.523-3.73,4.179-6.436.256-.262.705-.262.961,0,2.655,2.706,4.179,5.052,4.179,6.436,0,.826-.227,1.63-.674,2.39-.092.156-.093.351,0,.507s.276.258.442.247c.864-.023,1.709.182,2.424.58,1.213.676,2.524,3.146,3.599,6.776.052.174.031.356-.056.513Zm-9.394-6.151c0,.552-.448,1-1,1s-1-.448-1-1,.448-1,1-1,1,.448,1,1Z"/>
</svg>
