<?xml version="1.0" encoding="UTF-8"?>
<svg xmlns="http://www.w3.org/2000/svg" id="Layer_1" data-name="Layer 1" viewBox="0 0 24 24">
  <path d="m17.136,13H6.864c-.566,0-1.07.339-1.284.863-.214.525-.09,1.12.315,1.516l4.603,4.499c.415.414.959.621,1.503.621s1.085-.206,1.497-.617l4.607-4.503c.405-.396.528-.99.314-1.516-.214-.524-.718-.863-1.284-.863Zm-8.508,3.653l2.92-2.653h2.533l-4.177,3.9-1.276-1.248Zm-2.123-2.411c.023-.057.117-.241.358-.241h3.198l-2.15,1.953-1.318-1.288c-.173-.169-.111-.366-.088-.423Zm10.901.423l-4.611,4.507c-.438.438-1.152.438-1.594-.004l-.58-.567,4.925-4.6h1.591c.241,0,.335.185.358.241.022.057.085.254-.088.423ZM12,0C5.383,0,0,5.383,0,12s5.383,12,12,12,12-5.383,12-12S18.617,0,12,0Zm0,23c-6.065,0-11-4.935-11-11S5.935,1,12,1s11,4.935,11,11-4.935,11-11,11Zm1.503-18.878c-.83-.828-2.176-.826-3.001-.004l-4.607,4.503c-.405.396-.529.99-.315,1.515.214.525.718.864,1.285.864h10.271c.566,0,1.07-.339,1.284-.863.214-.525.091-1.12-.314-1.516l-4.603-4.499Zm-3.584,5.878l4.176-3.901,1.277,1.248-2.921,2.653h-2.532Zm-3.414-.241c-.023-.057-.084-.254.088-.423l4.611-4.507c.219-.219.506-.328.794-.328s.579.11.801.332l.58.567-4.926,4.6h-1.59c-.242,0-.335-.185-.359-.241Zm10.989,0c-.023.057-.117.241-.358.241h-3.197l2.149-1.953,1.318,1.289c.173.169.11.366.088.423Z"/>
</svg>
