<?xml version="1.0" encoding="UTF-8"?>
<svg xmlns="http://www.w3.org/2000/svg" id="Layer_1" data-name="Layer 1" viewBox="0 0 24 24">
  <path d="m6,0C2.691,0,0,2.691,0,6c0,.698.126,1.366.346,1.989-.217.321-.346.658-.346,1.011v12c0,1.71,2.579,3,6,3s6-1.29,6-3v-12c0-.356-.121-.699-.342-1.023.217-.62.342-1.284.342-1.977,0-3.309-2.691-6-6-6Zm5,17c0,.944-2.139,2-5,2s-5-1.056-5-2v-2.297c1.057.794,2.864,1.297,5,1.297s3.943-.503,5-1.297v2.297Zm0-4c0,.944-2.139,2-5,2s-5-1.056-5-2v-2.297c1.057.794,2.864,1.297,5,1.297s3.943-.503,5-1.297v2.297ZM6,1c2.757,0,5,2.243,5,5s-2.243,5-5,5S1,8.757,1,6,3.243,1,6,1Zm0,22c-2.861,0-5-1.056-5-2v-2.297c1.057.794,2.864,1.297,5,1.297s3.943-.503,5-1.297v2.297c0,.944-2.139,2-5,2ZM3.487,4.608c0-.887.703-1.608,1.568-1.608h.444v-.5c0-.276.224-.5.5-.5s.5.224.5.5v.5h.432c.895,0,1.568.645,1.568,1.5,0,.276-.224.5-.5.5s-.5-.224-.5-.5c0-.369-.307-.5-.568-.5h-1.876c-.313,0-.568.273-.568.608,0,.272.172.514.418.586l2.561.646c.687.204,1.152.839,1.152,1.551,0,.887-.703,1.608-1.568,1.608h-.55v.5c0,.276-.224.5-.5.5s-.5-.224-.5-.5v-.5h-.432c-.895,0-1.568-.645-1.568-1.5,0-.276.224-.5.5-.5s.5.224.5.5c0,.369.307.5.568.5h1.981c.313,0,.568-.273.568-.608,0-.272-.171-.514-.417-.586l-2.561-.646c-.688-.204-1.153-.839-1.153-1.551Zm19.515,15.729l-3.104,3.082c-.373.37-.868.577-1.395.581-.555-.004-1.054-.205-1.415-.563l-3.104-3.082c-.195-.195-.197-.511-.002-.708.193-.195.51-.197.707-.002l3.104,3.082c.065.064.135.111.206.149V.5c0-.276.224-.5.5-.5s.5.224.5.5v22.339c.066-.041.137-.074.193-.13l3.104-3.082c.197-.195.514-.192.707.002.195.196.193.513-.002.708Z"/>
</svg>
