<?xml version="1.0" encoding="UTF-8"?>
<svg xmlns="http://www.w3.org/2000/svg" id="Layer_1" data-name="Layer 1" viewBox="0 0 24 24">
  <path d="m5,20c0,.552-.448,1-1,1s-1-.448-1-1,.448-1,1-1,1,.448,1,1ZM23.783,6.901c-.341.678-1.024,1.099-1.784,1.099h-5.292l-1,1,2.147,2.147c.195.195.195.512,0,.707-.098.098-.226.146-.354.146s-.256-.049-.354-.146l-2.147-2.147-1.793,1.793,2.897,2.897c.195.195.195.512,0,.707-.098.098-.226.146-.354.146s-.256-.049-.354-.146l-2.897-2.897-1.934,1.934,3.647,3.647c.195.195.195.512,0,.707-.098.098-.226.146-.354.146s-.256-.049-.354-.146l-3.647-3.647-1.511,1.511c.981,1.054,1.808,2.253,2.423,3.574.268.573.274,1.242.02,1.833-.262.608-.771,1.076-1.396,1.284-1.459.483-3.176.794-5.247.95-.096.007-.192.01-.287.01-1.02,0-2.002-.403-2.73-1.132-.796-.796-1.205-1.896-1.121-3.016.155-2.073.465-3.791.95-5.252.208-.625.675-1.135,1.284-1.396.592-.257,1.26-.248,1.835.02,1.317.615,2.512,1.44,3.562,2.418l1.511-1.511-3.647-3.646c-.195-.195-.195-.512,0-.707s.512-.195.707,0l3.647,3.646,1.934-1.934-2.896-2.896c-.195-.195-.195-.512,0-.707s.512-.195.707,0l2.896,2.896,1.793-1.793-2.146-2.146c-.195-.195-.195-.512,0-.707s.512-.195.707,0l2.146,2.146,1-1V2.001c0-.76.421-1.443,1.099-1.784.683-.344,1.492-.273,2.106.185.898.667,1.463,1.544,1.721,2.673,1.129.258,2.006.822,2.673,1.721.458.615.528,1.423.185,2.106Zm-13.918,13.453c-.637-1.366-1.507-2.602-2.56-3.655,0,0-.002-.001-.003-.002,0,0,0-.001-.001-.002-1.051-1.05-2.282-1.919-3.645-2.556-.32-.149-.681-.152-1.016-.008-.347.149-.613.438-.73.793-.458,1.383-.753,3.021-.902,5.012-.062.83.241,1.645.831,2.234.59.591,1.409.903,2.235.831,1.989-.148,3.626-.443,5.007-.901.354-.118.644-.384.793-.73.144-.335.141-.695-.008-1.016Zm12.931-14.964c-.579-.779-1.335-1.224-2.378-1.397-.211-.035-.376-.2-.411-.411-.174-1.043-.618-1.799-1.397-2.378-.316-.234-.713-.271-1.062-.094-.343.172-.548.505-.548.891v4.999h4.999c.386,0,.719-.205.891-.548.176-.35.141-.746-.094-1.062Z"/>
</svg>
