<?xml version="1.0" encoding="UTF-8"?>
<svg xmlns="http://www.w3.org/2000/svg" id="Layer_1" data-name="Layer 1" viewBox="0 0 24 24">
  <path d="m16.5,17c-1.637,0-3.005,1.135-3.385,2.656-.337-.086-.72-.156-1.115-.156s-.778.07-1.115.156c-.38-1.521-1.748-2.656-3.385-2.656-1.93,0-3.5,1.57-3.5,3.5s1.57,3.5,3.5,3.5c1.874,0,3.396-1.484,3.484-3.337.3-.087.66-.163,1.016-.163s.717.076,1.016.163c.087,1.853,1.61,3.337,3.484,3.337,1.93,0,3.5-1.57,3.5-3.5s-1.57-3.5-3.5-3.5Zm-9,6c-1.378,0-2.5-1.121-2.5-2.5s1.122-2.5,2.5-2.5,2.5,1.121,2.5,2.5-1.122,2.5-2.5,2.5Zm9,0c-1.379,0-2.5-1.121-2.5-2.5s1.121-2.5,2.5-2.5,2.5,1.121,2.5,2.5-1.121,2.5-2.5,2.5Zm3.494-13.39C19.873.117,15.407,0,15.214,0c-.042,0-1.042.008-2.071.663-.716.455-1.571.455-2.285,0-1.028-.655-2.03-.663-2.072-.663-.193,0-4.659.117-4.78,9.61-2.648.652-4.006,1.576-4.006,2.753,0,2.388,6.037,3.637,12,3.637s12-1.249,12-3.637c0-1.177-1.357-2.102-4.006-2.753ZM8.783,1c.007,0,.764.014,1.537.507,1.036.66,2.325.66,3.36,0,.773-.493,1.529-.507,1.528-.507.037,0,3.71.197,3.791,8.714-.653.345-2.819,1.286-6.999,1.286s-6.348-.942-6.999-1.286c.081-8.517,3.753-8.713,3.782-8.714Zm3.217,14c-6.715,0-11-1.562-11-2.637,0-.5.913-1.236,3.42-1.828.66.376,2.968,1.465,7.58,1.465s6.92-1.089,7.581-1.465c2.507.592,3.419,1.328,3.419,1.828,0,1.075-4.285,2.637-11,2.637Z"/>
</svg>
