<?xml version="1.0" encoding="UTF-8"?>
<svg xmlns="http://www.w3.org/2000/svg" id="Layer_1" data-name="Layer 1" viewBox="0 0 24 24">
  <path d="m21,18c-1.654,0-3,1.346-3,3s1.346,3,3,3,3-1.346,3-3-1.346-3-3-3Zm0,5c-1.103,0-2-.897-2-2s.897-2,2-2,2,.897,2,2-.897,2-2,2Zm-6.687-12.606L23.854.854c.195-.195.195-.512,0-.707s-.512-.195-.707,0l-9.541,9.541-1.212-1.212c-.374-.373-.89-.539-1.406-.454-.521.084-.955.404-1.191.876l-1.122,2.245c-1.813-.396-3.737.145-5.062,1.469-1.515,1.515-2.981,6.632-3.541,8.762-.191.728.013,1.48.546,2.013.4.401.925.615,1.471.615.179,0,.36-.023.54-.071,2.131-.561,7.249-2.028,8.762-3.541,1.325-1.325,1.866-3.248,1.47-5.063l2.245-1.122c.472-.236.791-.67.875-1.191.085-.521-.081-1.034-.454-1.407l-1.212-1.212Zm-3.631,9.288c-1.095,1.095-5.01,2.413-8.309,3.281-.378.098-.771-.006-1.051-.285-.278-.278-.385-.671-.285-1.052.867-3.298,2.186-7.212,3.281-8.309.85-.85,2.001-1.305,3.175-1.305.483,0,.971.077,1.442.236l2.815,2.815c.544,1.617.13,3.418-1.069,4.618Zm4.311-6.829c-.033.2-.155.366-.336.457l-2.164,1.082-1.442-1.442-1.442-1.442,1.082-2.164c.091-.181.257-.304.457-.336.204-.034.396.032.539.174l3.131,3.131c.144.143.207.34.175.54Z"/>
</svg>
