<?xml version="1.0" encoding="UTF-8"?>
<svg xmlns="http://www.w3.org/2000/svg" id="Layer_1" data-name="Layer 1" viewBox="0 0 24 24">
  <path d="m23.854,23.146l-6.441-6.441c1.607-1.775,2.588-4.128,2.588-6.705C20,4.486,15.514,0,10,0S0,4.486,0,10s4.486,10,10,10c2.578,0,4.93-.98,6.705-2.588l6.441,6.441c.098.098.226.146.354.146s.256-.049.354-.146c.195-.195.195-.512,0-.707ZM1,10C1,5.037,5.038,1,10,1s9,4.037,9,9-4.038,9-9,9S1,14.963,1,10Zm14.778,1.569c.295.506.297,1.111.005,1.619-.292.508-.816.812-1.402.812h-1.882c-.276,0-.5-.224-.5-.5s.224-.5.5-.5h1.882c.322,0,.481-.217.535-.31.053-.093.16-.339-.002-.617l-4.382-7.512c-.161-.276-.426-.307-.532-.307s-.372.03-.532.307l-4.382,7.512c-.163.278-.056.524-.002.617.054.093.212.31.535.31h1.882c.276,0,.5.224.5.5s-.224.5-.5.5h-1.882c-.586,0-1.11-.304-1.402-.812-.292-.508-.29-1.113.005-1.619l4.382-7.512c.292-.502.814-.803,1.396-.803s1.104.301,1.396.803l4.382,7.512Zm-5.778-.569c-.276,0-.5-.224-.5-.5v-3c0-.276.224-.5.5-.5s.5.224.5.5v3c0,.276-.224.5-.5.5Zm1,2c0,.552-.448,1-1,1s-1-.448-1-1,.448-1,1-1,1,.448,1,1Z"/>
</svg>
