<?xml version="1.0" encoding="UTF-8"?>
<svg xmlns="http://www.w3.org/2000/svg" id="Layer_1" data-name="Layer 1" viewBox="0 0 24 24">
  <path d="m12,4c1.103,0,2-.897,2-2s-.897-2-2-2-2,.897-2,2,.897,2,2,2Zm0-3c.552,0,1,.448,1,1s-.448,1-1,1-1-.448-1-1,.448-1,1-1Zm8.239,10.007l-4.909-5.83c-.18-.211-.494-.235-.705-.061-.211.179-.238.494-.061.705l4.36,5.178H5.075l4.36-5.178c.178-.211.15-.526-.061-.705-.212-.178-.526-.15-.705.061l-4.909,5.83c-2.095.124-3.761,1.867-3.761,3.993v5c0,2.206,1.794,4,4,4h16c2.206,0,4-1.794,4-4v-5c0-2.126-1.666-3.868-3.761-3.993Zm2.761,8.993c0,1.654-1.346,3-3,3H4c-1.654,0-3-1.346-3-3v-5c0-1.654,1.346-3,3-3h16c1.654,0,3,1.346,3,3v5Zm-14-5v2h1.5c.276,0,.5.224.5.5s-.224.5-.5.5h-1.5v2h1.5c.276,0,.5.224.5.5s-.224.5-.5.5h-1.5c-.552,0-1-.448-1-1v-5c0-.552.448-1,1-1h1.5c.276,0,.5.224.5.5s-.224.5-.5.5h-1.5Zm-2,1.25c0-1.24-1.01-2.25-2.25-2.25h-.75c-.552,0-1,.448-1,1v5.5c0,.276.224.5.5.5s.5-.224.5-.5v-2h.75c.136,0,.268-.013.398-.036l.889,2.221c.078.195.266.314.464.314.433,0,.566-.43.464-.686l-.897-2.242c.565-.409.933-1.074.933-1.822Zm-3,1.25v-2.5h.75c.689,0,1.25.561,1.25,1.25s-.561,1.25-1.25,1.25h-.75Zm17-3c0,.276-.224.5-.5.5h-1v5.5c0,.276-.224.5-.5.5s-.5-.224-.5-.5v-5.5h-1c-.276,0-.5-.224-.5-.5s.224-.5.5-.5h3c.276,0,.5.224.5.5Zm-5,0v6c0,.231-.159.434-.385.486-.039.01-.077.014-.115.014-.187,0-.361-.104-.447-.276l-2.053-4.105v3.882c0,.276-.224.5-.5.5s-.5-.224-.5-.5v-6c0-.231.159-.434.385-.486.23-.058.459.056.562.263l2.053,4.105v-3.882c0-.276.224-.5.5-.5s.5.224.5.5Z"/>
</svg>
