<?xml version="1.0" encoding="UTF-8"?>
<svg xmlns="http://www.w3.org/2000/svg" id="Layer_1" data-name="Layer 1" viewBox="0 0 24 24">
  <path d="m10,12.058c-.276,0-.5-.224-.5-.5v-6c0-.276.223-.5.5-.5s.5.224.5.5v6c0,.276-.223.5-.5.5Zm0,.939c-.552,0-1,.448-1,1s.448,1,1,1,1-.448,1-1-.448-1-1-1Zm6.756-2.996c.238-.139.319-.445.18-.684L12.21,1.214c-.443-.76-1.234-1.214-2.114-1.214s-1.671.454-2.114,1.214L.337,14.319c-.447.767-.45,1.684-.008,2.453.442.77,1.235,1.229,2.122,1.229h6.55c.276,0,.5-.224.5-.5s-.224-.5-.5-.5H2.451c-.524,0-.993-.271-1.255-.727s-.26-.998.004-1.451L8.845,1.718c.263-.45.73-.718,1.251-.718s.988.268,1.251.718l4.726,8.103c.139.239.445.318.684.18Zm7.099,13.853c-.098.098-.226.146-.354.146s-.256-.049-.354-.146l-3-3c-.862.705-1.948,1.146-3.146,1.146-2.757,0-5-2.243-5-5s2.243-5,5-5,5,2.243,5,5c0,1.198-.441,2.284-1.146,3.146l3,3c.195.195.195.512,0,.707Zm-2.854-6.854c0-2.206-1.794-4-4-4s-4,1.794-4,4,1.794,4,4,4,4-1.794,4-4Z"/>
</svg>
