<?xml version="1.0" encoding="UTF-8"?>
<svg xmlns="http://www.w3.org/2000/svg" id="Layer_1" data-name="Layer 1" viewBox="0 0 24 24">
  <path d="m8,4.5v2c0,.31.282.554.603.49.236-.047.397-.268.397-.508v-.481c-.292,0-.526-.251-.498-.549.025-.26.258-.451.519-.451h.377c.332,0,.602.269.602.602v.859c0,.77-.564,1.446-1.329,1.53-.905.1-1.671-.606-1.671-1.491v-1.964c0-.753.541-1.418,1.288-1.521.57-.078,1.084.164,1.396.571.13.169.004.414-.209.414h-.974c-.276,0-.5.224-.5.5Zm-2.5-1.5c-.276,0-.5.224-.5.5v4c0,.276.224.5.5.5s.5-.224.5-.5V3.5c0-.276-.224-.5-.5-.5Zm8,5c.276,0,.5-.224.5-.5v-2.883c0-.594-.309-1.156-.831-1.439-.436-.236-.825-.209-1.169-.087l-.143.059c-.091-.093-.217-.151-.357-.151-.276,0-.5.224-.5.5v4c0,.276.224.5.5.5s.5-.224.5-.5v-2.981c0-.24.161-.461.397-.508.321-.064.603.18.603.49v3c0,.276.224.5.5.5Zm9.5-3.497c0,.055-.003.111-.009.168-.084.765-.76,1.329-1.53,1.329h-.461v1.5c0,.276-.224.5-.5.5s-.5-.224-.5-.5V3.5c0-.276.224-.5.5-.5h1c.829,0,1.501.673,1.5,1.503Zm-1.5-.503h-.5v1h.481c.24,0,.461-.161.508-.397.064-.321-.18-.603-.49-.603Zm-5-1c-.276,0-.5.224-.5.5v3c0,.885.766,1.59,1.671,1.491.765-.084,1.329-.759,1.329-1.529v-2.961c0-.276-.224-.5-.5-.5s-.5.224-.5.5v2.981c0,.24-.161.461-.397.508-.321.064-.603-.18-.603-.49v-3c0-.276-.224-.5-.5-.5Zm3.354,20.146c.195.195.195.512,0,.707-.098.098-.226.146-.354.146s-.256-.049-.354-.146l-4.379-4.382-3.382,3.382c-.095.095-.222.146-.354.146-.036,0-.073-.004-.108-.012-.167-.038-.304-.157-.362-.318l-3.472-9.586s-.002-.006-.003-.008c-.195-.57-.051-1.189.375-1.615.425-.427,1.043-.57,1.615-.375l9.594,3.475c.161.058.28.195.318.362.037.167-.014.341-.135.462l-3.379,3.379,4.379,4.382Zm-2.263-7.913l-8.847-3.204c-.201-.07-.419-.018-.576.138-.155.156-.207.373-.137.581l3.203,8.842,6.356-6.356ZM20,.003H4C1.794.003,0,1.797,0,4.003v3c0,2.206,1.794,4,4.001,4l1.5-.003c.276,0,.5-.225.499-.501,0-.276-.224-.499-.5-.499h0l-1.499.003c-1.654,0-3-1.346-3-3v-1.977c.11.195.276.369.497.51,0,0,.562.251,1.185.481.132.049.557.229.506.515-.038.212-.299.432-.671.432-.258,0-.51-.069-.72-.193-.193-.114-.439-.078-.605.072-.256.232-.215.648.083.823.366.216.795.333,1.242.333.846,0,1.558-.541,1.691-1.286.1-.562-.154-1.295-1.167-1.669-.545-.202-1.042-.42-1.055-.42-.118-.08-.114-.202-.108-.25.01-.066.057-.226.3-.299.287-.085.562-.017.761.07.2.087.432.032.573-.134.204-.24.137-.61-.142-.756-.361-.189-.89-.352-1.49-.171-.385.116-.691.361-.869.68.122-1.543,1.416-2.761,2.99-2.761h16c1.654,0,3,1.346,3,3v3c0,1.654-1.346,3-3,3l-6.5-.003c-.276,0-.5.224-.5.5s.224.5.5.5l6.5.003c2.206,0,4-1.794,4-4v-3C24,1.797,22.206.003,20,.003Z"/>
</svg>
