<?xml version="1.0" encoding="UTF-8"?>
<svg xmlns="http://www.w3.org/2000/svg" id="Layer_1" data-name="Layer 1" viewBox="0 0 24 24">
  <path d="m15.5,8h-4.5v-4h5.5c.276,0,.5-.224.5-.5s-.224-.5-.5-.5H4.5c-.276,0-.5.224-.5.5s.224.5.5.5h5.5v4H.5c-.276,0-.5.224-.5.5s.224.5.5.5h9.5v5H.5c-.276,0-.5.224-.5.5s.224.5.5.5h15c.827,0,1.5.673,1.5,1.5v1c0,.827.673,1.5,1.5,1.5h4c.827,0,1.5-.673,1.5-1.5v-1c0-4.687-3.813-8.5-8.5-8.5Zm7.5,9.5c0,.275-.225.5-.5.5h-4c-.275,0-.5-.225-.5-.5v-1c0-1.379-1.121-2.5-2.5-2.5h-4.5v-5h4.5c4.136,0,7.5,3.364,7.5,7.5v1Z"/>
</svg>
