<?xml version="1.0" encoding="UTF-8"?>
<svg xmlns="http://www.w3.org/2000/svg" id="Layer_1" data-name="Layer 1" viewBox="0 0 24 24">
  <path d="m6.888,6.637l-5.821,1.336c.017-.404.05-.808.119-1.211l.309-1.807c.239-1.397,1.286-2.504,2.667-2.822l4.549-1.043c.547-.125,1.123-.117,1.664.024.267.07.54-.09.61-.358.069-.267-.091-.541-.358-.61-.697-.181-1.436-.191-2.139-.031L3.938,1.158c-1.776.408-3.123,1.832-3.429,3.628l-.309,1.807c-.235,1.374-.196,2.759.116,4.117.312,1.358,1.379,2.35,2.656,2.635l.299,1.305c.213.925,1.039,1.552,1.949,1.552.148,0,.298-.017.448-.051,1.075-.247,1.749-1.322,1.502-2.396l-.335-1.463c-.03-.129-.109-.241-.222-.312-.112-.07-.247-.093-.377-.063l-1.949.447c-1.342.307-2.688-.533-2.996-1.877-.113-.494-.176-.992-.209-1.491l2.798-.642.336,1.462c.053.231.259.388.487.388.037,0,.075-.004.112-.013.269-.062.438-.33.375-.599l-.336-1.462,2.258-.518c.269-.062.438-.33.375-.599-.062-.27-.332-.439-.599-.375Zm-2.378,6.702l1.462-.336.224.975c.123.537-.214,1.075-.751,1.198-.539.129-1.075-.213-1.199-.751l-.231-1.009c.165-.014.33-.04.496-.077Zm19.49,4.161c0-1.395-.271-2.753-.808-4.038l-.705-1.693c-.701-1.682-2.332-2.769-4.154-2.769h-4.667c-1.822,0-3.453,1.087-4.154,2.769l-.705,1.693c-.536,1.285-.808,2.644-.808,4.038s.822,2.585,2,3.149v1.351c0,1.103.897,2,2,2s2-.897,2-2v-1h4v1c0,1.103.897,2,2,2s2-.897,2-2v-1.351c1.178-.564,2-1.758,2-3.149Zm-14.27-3.653l.705-1.693c.545-1.309,1.813-2.154,3.231-2.154h4.667c1.417,0,2.686.845,3.231,2.154l.705,1.693c.157.377.28.763.387,1.153h-13.312c.107-.39.229-.776.387-1.153Zm3.27,8.153c0,.552-.449,1-1,1s-1-.448-1-1v-1.051c.165.024.329.051.5.051h1.5v1Zm8,0c0,.552-.449,1-1,1s-1-.448-1-1v-1h1.5c.171,0,.335-.027.5-.051v1.051Zm-.5-2h-9c-1.378,0-2.5-1.121-2.5-2.5,0-.507.05-1.006.129-1.5h2.871v1.5c0,.276.224.5.5.5s.5-.224.5-.5v-1.5h6v1.5c0,.276.224.5.5.5s.5-.224.5-.5v-1.5h2.871c.079.494.129.993.129,1.5,0,1.379-1.122,2.5-2.5,2.5ZM8.455,4.502l2.625-.239c.629-.057,1.126-.555,1.184-1.184l.239-2.625c.018-.193.146-.359.328-.425.183-.065.387-.021.524.117l1.722,1.722c.494.493,1.354.493,1.849,0l1.722-1.722c.137-.137.341-.182.524-.117.182.066.31.232.328.425l.239,2.625c.057.629.555,1.126,1.184,1.184l2.625.239c.193.018.359.146.425.328.066.183.021.387-.117.524l-1.722,1.722c-.157.157-.271.351-.332.562-.062.219-.263.362-.48.362-.045,0-.092-.006-.138-.02-.266-.076-.419-.353-.343-.618.107-.374.31-.717.586-.994l.967-.967-1.562-.142c-1.109-.101-1.988-.979-2.089-2.089l-.142-1.562-.967.967c-.899.899-2.363.899-3.263,0l-.967-.967-.142,1.562c-.101,1.109-.979,1.988-2.089,2.089l-1.562.142.967.967c.276.276.479.62.586.994.076.266-.077.542-.343.618-.267.076-.542-.078-.618-.343-.061-.211-.175-.405-.332-.562l-1.722-1.722c-.137-.137-.183-.341-.117-.524.066-.182.232-.31.425-.328Z"/>
</svg>
