<?xml version="1.0" encoding="UTF-8"?>
<svg xmlns="http://www.w3.org/2000/svg" id="Layer_1" data-name="Layer 1" viewBox="0 0 24 24">
  <path d="m19.736,6.024c-.599-1.719-2.173-2.909-4.001-3.004-.626-1.791-2.308-3.02-4.234-3.02h-7C2.019,0,0,2.019,0,4.5v7c0,1.927,1.229,3.608,3.02,4.234.096,1.829,1.285,3.403,3.004,4.002.125,2.37,2.075,4.264,4.476,4.264h9c2.481,0,4.5-2.019,4.5-4.5v-9c0-2.401-1.894-4.351-4.264-4.476ZM1,11.5v-7c0-1.93,1.57-3.5,3.5-3.5h7c1.371,0,2.588.798,3.158,2h-7.158c-2.481,0-4.5,2.019-4.5,4.5v7.158c-1.202-.57-2-1.787-2-3.158Zm3,4V7.5c0-1.93,1.57-3.5,3.5-3.5h8c1.371,0,2.588.798,3.158,2h-8.158c-2.481,0-4.5,2.019-4.5,4.5v8.158c-1.202-.57-2-1.786-2-3.158Zm19,4c0,1.93-1.57,3.5-3.5,3.5h-9c-1.93,0-3.5-1.57-3.5-3.5v-9c0-1.93,1.57-3.5,3.5-3.5h9c1.93,0,3.5,1.57,3.5,3.5v9Z"/>
</svg>
