<?xml version="1.0" encoding="UTF-8"?>
<svg xmlns="http://www.w3.org/2000/svg" id="Layer_1" data-name="Layer 1" viewBox="0 0 24 24">
  <path d="m23.5,18h-1.581l-2.271-12.869c-.423-2.394-2.493-4.131-4.924-4.131h-5.449c-2.43,0-4.501,1.737-4.924,4.131l-2.271,12.869H.5c-.276,0-.5.224-.5.5s.224.5.5.5h.5v.5c0,1.93,1.57,3.5,3.5,3.5h15c1.93,0,3.5-1.57,3.5-3.5v-.5h.5c.276,0,.5-.224.5-.5s-.224-.5-.5-.5ZM9.275,2h5.449c1.837,0,3.403,1.248,3.857,3h-1.582c-1.103,0-2,.897-2,2v3.5c0,.275-.225.5-.5.5s-.5-.225-.5-.5v-3.5c0-1.103-.897-2-2-2s-2,.897-2,2v6.5c0,.275-.224.5-.5.5s-.5-.225-.5-.5v-6.5c0-1.103-.897-2-2-2h-1.582c.454-1.752,2.02-3,3.857-3Zm-4.062,4h1.787c.551,0,1,.448,1,1v6.5c0,.827.673,1.5,1.5,1.5s1.5-.673,1.5-1.5v-6.5c0-.552.449-1,1-1s1,.448,1,1v3.5c0,.827.673,1.5,1.5,1.5s1.5-.673,1.5-1.5v-3.5c0-.552.448-1,1-1h1.787l2.117,12H3.096l2.117-12Zm16.787,13.5c0,1.379-1.121,2.5-2.5,2.5H4.5c-1.378,0-2.5-1.121-2.5-2.5v-.5h20v.5Z"/>
</svg>
