<?xml version="1.0" encoding="UTF-8"?>
<svg xmlns="http://www.w3.org/2000/svg" id="Layer_1" data-name="Layer 1" viewBox="0 0 24 24">
  <path d="m23.993.583c.045-.272-.138-.53-.411-.576-.272-.047-.53.138-.576.411-.132.788-.656,1.188-1.182,1.394-.251-.48-.747-.812-1.325-.812-.651,0-1.201.419-1.408,1h-3.445s-.009,0-.013,0H3.5C1.735,2,.242,3.321.026,5.072l-.084.684c-.07.568.107,1.14.486,1.569s.926.675,1.499.675h10.463c1.778,0,3.273-1.332,3.477-3.099l.22-1.901h2.895c-.182,4.555-2.809,11.556-7.118,15.893-1.162,1.177-1.149,3.081.028,4.243.583.576,1.346.863,2.107.863.774,0,1.549-.297,2.135-.891,5.524-5.596,5.85-18.118,5.865-20.3,1.093-.364,1.814-1.156,1.993-2.225Zm-9.119,4.204c-.146,1.262-1.214,2.213-2.484,2.213H1.927c-.291,0-.557-.12-.75-.338-.192-.217-.279-.496-.243-.784l.084-.684c.154-1.251,1.221-2.194,2.481-2.194h11.58l-.206,1.787Zm.549,17.618c-.774.785-2.044.793-2.828.019-.785-.774-.793-2.043-.02-2.827,4.823-4.854,7.425-12.431,7.425-17.096,0-.276.224-.5.5-.5s.5.224.5.5v.005c.001.141.064,14.186-5.577,19.9Zm-.423-1.405c0,.552-.448,1-1,1s-1-.448-1-1,.448-1,1-1,1,.448,1,1Z"/>
</svg>
