<?xml version="1.0" encoding="UTF-8"?>
<svg xmlns="http://www.w3.org/2000/svg" id="Layer_1" data-name="Layer 1" viewBox="0 0 24 24">
  <path d="m12,0C5.383,0,0,3.589,0,8v4c0,6.617,5.383,12,12,12s12-5.383,12-12v-4C24,3.589,18.617,0,12,0Zm0,1c6.065,0,11,3.14,11,7s-4.935,7-11,7S1,11.86,1,8,5.935,1,12,1Zm11,11c0,6.065-4.935,11-11,11S1,18.065,1,12v-.805c1.854,2.825,6.086,4.805,11,4.805s9.146-1.979,11-4.805v.805Zm-14-4c0-.552,1.343-1,3-1s3,.448,3,1-1.343,1-3,1-3-.448-3-1Zm3.373,2.58c.284.467.627,1.097.627,1.42,0,.552-.448,1-1,1s-1-.448-1-1c0-.323.343-.953.627-1.42.17-.28.576-.28.746,0Zm-.746-5.159c-.284-.467-.627-1.097-.627-1.42,0-.552.448-1,1-1s1,.448,1,1c0,.323-.343.953-.627,1.42-.17.28-.576.28-.746,0Zm-7.627,2.58c0-.552.448-1,1-1,.323,0,.953.343,1.42.627.28.17.28.576,0,.746-.467.284-1.097.627-1.42.627-.552,0-1-.448-1-1Zm13.58-.373c.467-.284,1.097-.627,1.42-.627.552,0,1,.448,1,1s-.448,1-1,1c-.323,0-.953-.343-1.42-.627-.28-.17-.28-.576,0-.746Zm-2.406-1.939c.151-.525.382-1.204.62-1.423.406-.374,1.039-.348,1.413.058.374.406.348,1.039-.058,1.413-.238.219-.933.394-1.469.501-.321.064-.596-.234-.506-.549Zm-8.409-1.365c.374-.406,1.007-.432,1.413-.058.238.219.469.898.62,1.423.09.315-.185.613-.506.549-.536-.107-1.232-.282-1.469-.501-.406-.374-.432-1.007-.058-1.413Zm10.471,7.355c-.374.406-1.007.432-1.413.058-.238-.219-.469-.898-.62-1.423-.09-.315.185-.613.506-.549.536.107,1.232.282,1.469.501.406.374.432,1.007.058,1.413Zm-10.413-1.413c.238-.219.933-.394,1.469-.501.321-.064.596.234.506.549-.151.525-.382,1.204-.62,1.423-.406.374-1.039.348-1.413-.058-.374-.406-.348-1.039.058-1.413Z"/>
</svg>
