<?xml version="1.0" encoding="UTF-8"?>
<svg xmlns="http://www.w3.org/2000/svg" id="Layer_1" data-name="Layer 1" viewBox="0 0 24 24">
  <path d="m21.5,0h-.758c-.922,0-1.823.374-2.475,1.025l-9.271,9.271c-1.282-.386-2.591-.397-3.893-.032C2.363,11.034.327,13.444.038,16.261c-.218,2.119.516,4.192,2.013,5.689,1.322,1.323,3.097,2.049,4.954,2.049.243,0,.488-.013.733-.038,2.818-.289,5.229-2.325,5.997-5.066.365-1.302.354-2.609-.031-3.893l2.003-2.003c.187-.186.293-.444.293-.707v-2.093c0-.11.09-.2.2-.2h1.6c.662,0,1.2-.539,1.2-1.2v-1.6c0-.11.09-.2.2-.2h2.093c.267,0,.519-.104.707-.293l.975-.975c.661-.662,1.025-1.541,1.025-2.475v-.757c0-1.378-1.121-2.5-2.5-2.5Zm1.5,3.257c0,.667-.26,1.295-.732,1.768l-.975.975h-2.093c-.662,0-1.2.539-1.2,1.2v1.6c0,.11-.09.2-.2.2h-1.6c-.662,0-1.2.539-1.2,1.2v2.093l-2.22,2.219c-.136.136-.182.336-.119.518.412,1.183.449,2.392.111,3.596-.658,2.349-2.723,4.094-5.136,4.341-1.82.188-3.597-.442-4.879-1.724-1.283-1.282-1.912-3.061-1.726-4.879.248-2.413,1.993-4.478,4.342-5.137.543-.152,1.086-.228,1.628-.228.661,0,1.318.113,1.968.339.182.062.382.016.518-.119L18.975,1.732c.465-.465,1.109-.732,1.768-.732h.758c.827,0,1.5.673,1.5,1.5v.757ZM7,18c0,.552-.448,1-1,1s-1-.448-1-1,.448-1,1-1,1,.448,1,1Z"/>
</svg>
