<?xml version="1.0" encoding="UTF-8"?>
<svg xmlns="http://www.w3.org/2000/svg" id="Layer_1" data-name="Layer 1" viewBox="0 0 24 24">
  <path d="m22.798,12.695c-.094-.021-.193-.042-.294-.062.465-.35.871-.803,1.084-1.354.609-1.571.433-3.521.178-4.881-.079-.423-.36-.778-.75-.951-.36-.159-.768-.146-1.118.029.167-.632.15-1.293-.188-1.935-.783-1.486-2.307-2.655-3.449-3.374-.379-.238-.83-.274-1.238-.099-.427.184-.738.576-.833,1.049-.253,1.268-.554,4.389,1.673,7.302.939,7.475-2.902,11.558-5.848,12.002-2.956-.445-6.811-4.526-5.879-11.991,1.635-2.099,2.213-4.61,1.674-7.314-.094-.473-.406-.865-.833-1.049-.408-.175-.859-.14-1.239.099-1.141.719-2.665,1.888-3.448,3.374-.338.642-.356,1.303-.188,1.935-.348-.176-.758-.189-1.118-.029-.391.173-.671.528-.75.951-.255,1.359-.432,3.31.177,4.881.209.539.604.986,1.059,1.334-.138.026-.271.053-.397.082-.468.105-.853.406-1.056.824-.191.394-.194.846-.006,1.241.483,1.016,1.348,2.34,2.816,3.233-.111.086-.216.171-.315.255-.358.304-.551.746-.528,1.212.022.459.253.872.632,1.134.788.544,1.977,1.181,3.376,1.331-.02.046-.039.091-.057.135-.156.382-.128.807.076,1.167.204.359.555.602.963.664.49.074.939.108,1.351.108,1.913,0,3.026-.734,3.675-1.582.649.849,1.762,1.582,3.675,1.582.412,0,.861-.034,1.351-.108.408-.062.758-.305.962-.664.204-.36.231-.785.076-1.166-.018-.044-.037-.09-.057-.136,1.4-.15,2.588-.787,3.377-1.331.379-.262.609-.675.632-1.134.023-.466-.169-.908-.528-1.212-.115-.098-.239-.198-.372-.299,1.425-.892,2.27-2.19,2.745-3.19.188-.395.185-.847-.007-1.24-.203-.418-.588-.719-1.056-.824ZM3.175,4.008c.715-1.359,2.247-2.46,3.096-2.995.064-.04.125-.054.179-.054.051,0,.097.013.132.028.125.054.217.175.247.325.506,2.537-.051,4.797-1.658,6.723-.826-.713-2.753-2.592-1.996-4.027Zm-1.832,6.91c-.552-1.423-.316-3.327-.127-4.336.025-.137.119-.197.172-.221.044-.021.162-.058.29.021,1.065.655,2.553,2.009,3.311,4.19.005.016.003.015,0,.009-.006.762.037,1.484.123,2.165-.616-.19-1.238-.273-1.829-.286.005.004.005.006-.015,0-.644-.223-1.646-.823-1.925-1.542Zm-.429,3.414c-.073-.155-.039-.289.002-.375.07-.144.208-.248.378-.287,1.051-.238,2.599-.396,4.007.21.203.973.497,1.853.859,2.638-.918.13-1.726.46-2.402.849-1.513-.751-2.38-2.056-2.845-3.035Zm2.27,5.44c-.166-.114-.197-.275-.202-.36-.007-.153.057-.3.177-.401.768-.653,1.986-1.434,3.499-1.539.355.604.753,1.141,1.177,1.608-.591.638-1.035,1.29-1.366,1.878-1.35-.039-2.527-.661-3.286-1.185Zm3.941,3.132c-.141-.021-.213-.115-.244-.169-.031-.054-.074-.164-.02-.296.285-.699.802-1.696,1.689-2.661.943.821,1.97,1.342,2.948,1.563-.703,1.37-2.175,1.893-4.374,1.563ZM22.321,6.383c.13-.078.246-.042.29-.021.053.023.147.084.173.221.189,1.009.424,2.913-.127,4.336-.28.724-1.257,1.317-2,1.541-.013.004-.013.003-.008,0-.566.009-1.161.08-1.754.248.081-.657.122-1.352.117-2.083,0,.002-.001.003,0,0,.742-2.266,2.213-3.566,3.309-4.241Zm-5.15-5.07c.03-.15.123-.271.247-.325.036-.016.081-.028.132-.028.054,0,.115.014.178.054.85.535,2.381,1.637,3.097,2.995.756,1.435-1.166,3.311-1.993,4.025-2.169-2.655-1.892-5.56-1.661-6.721Zm-.052,21.423c-.03.054-.103.147-.243.169-2.2.33-3.669-.191-4.372-1.557.979-.216,2.009-.736,2.954-1.559.882.962,1.397,1.955,1.681,2.653.054.131.011.241-.02.295Zm3.697-2.963c-.759.524-1.936,1.146-3.286,1.185-.329-.586-.771-1.234-1.358-1.87.426-.469.824-1.008,1.18-1.616.954.069,1.79.407,2.469.809.042.037.773.521,1.019.73.12.102.184.248.177.401-.004.085-.036.246-.202.36Zm2.142-5.441c-.458.965-1.307,2.245-2.778,3.002-.661-.372-1.446-.686-2.333-.813.368-.802.665-1.702.868-2.699,1.368-.536,2.848-.381,3.864-.151.17.039.308.144.378.287.042.086.076.22.002.374Zm-13.948-5.931c.278-1.368,1.573-2.4,3.013-2.4,1.509,0,2.815,1.12,2.975,2.55.259,2.331-1.761,3.623-3.385,4.66-.56.358-1.089.696-1.461,1.033-.213.192-.146.423-.121.489.031.08.131.268.395.268h4.075c.276,0,.5.224.5.5s-.224.5-.5.5h-4.075c-.594,0-1.116-.356-1.328-.908-.216-.562-.065-1.186.384-1.591.434-.393.997-.752,1.593-1.134,1.534-.98,3.12-1.994,2.929-3.706-.104-.932-.973-1.661-1.98-1.661-.974,0-1.848.688-2.032,1.6-.055.271-.321.446-.589.391-.271-.055-.446-.319-.391-.59Zm11.646,4.058s-.005,0-.008,0c.008-.004.028-.011.008,0Zm-1.645-1.835h0s0-.002,0,0Zm-14.022-.051v.009c-.006-.009-.015-.03,0-.009Zm-1.706,1.888c-.005,0-.01,0-.015,0-.029-.024.005-.008.015,0Z"/>
</svg>
