<?xml version="1.0" encoding="UTF-8"?>
<svg xmlns="http://www.w3.org/2000/svg" id="Layer_1" data-name="Layer 1" viewBox="0 0 24 24">
  <path d="m13.414,8.563c-.755-.756-2.073-.756-2.828,0l-3.022,3.022c-.78.779-.78,2.049,0,2.828l3.022,3.022c.377.378.88.586,1.414.586s1.037-.208,1.414-.586l3.022-3.022c.78-.779.78-2.049,0-2.828l-3.022-3.022Zm2.315,5.144l-3.022,3.022c-.378.377-1.036.377-1.414,0l-3.022-3.022c-.189-.189-.293-.44-.293-.707s.104-.518.293-.707l3.022-3.022c.189-.188.44-.293.707-.293s.518.104.707.293l3.022,3.022c.189.189.293.44.293.707s-.104.518-.293.707ZM23.93,3.866c-.377-2.204-2.423-3.866-4.76-3.866H4.83C2.494,0,.447,1.662.07,3.866c-.308,1.8.445,3.585,1.93,4.626v11.009c0,2.48,2.019,4.499,4.5,4.499h11c2.481,0,4.5-2.019,4.5-4.499v-11.009c1.484-1.041,2.238-2.826,1.93-4.626Zm-2.692,3.931c-.148.091-.238.252-.238.426v11.278c0,1.93-1.57,3.499-3.5,3.499H6.5c-1.93,0-3.5-1.569-3.5-3.499v-11.278c0-.174-.09-.335-.238-.426-1.312-.809-1.965-2.25-1.707-3.763.296-1.729,1.919-3.034,3.774-3.034h14.34c1.855,0,3.478,1.305,3.774,3.034.259,1.513-.395,2.954-1.707,3.763Z"/>
</svg>
