<?xml version="1.0" encoding="UTF-8"?>
<svg xmlns="http://www.w3.org/2000/svg" id="Layer_1" data-name="Layer 1" viewBox="0 0 24 24">
  <path d="m18.293,19l-1.146,1.146c-.195.195-.195.512,0,.707.098.098.226.146.354.146s.256-.049.354-.146l1.146-1.146,1.147,1.146c.195.195.512.195.707,0s.195-.512,0-.707l-1.147-1.146,1.147-1.147c.195-.195.195-.512,0-.707s-.512-.195-.707,0l-1.147,1.147-2.379-2.379c-1.045-1.045-1.621-2.436-1.621-3.915s.576-2.869,1.621-3.914l2.379-2.379,1.146,1.146c.098.098.226.146.354.146s.256-.049.354-.146c.195-.195.195-.512,0-.707l-1.146-1.146,1.146-1.146c.195-.195.195-.512,0-.707s-.512-.195-.707,0l-1.146,1.146-1.146-1.146c-.195-.195-.512-.195-.707,0s-.195.512,0,.707l1.146,1.146-2.379,2.379c-1.045,1.045-2.436,1.621-3.914,1.621s-2.869-.576-3.915-1.621l-2.378-2.379,1.202-1.202c.195-.195.195-.512,0-.707s-.512-.195-.707,0l-1.202,1.202-1.147-1.147c-.195-.195-.512-.195-.707,0s-.195.512,0,.707l1.146,1.147-1.146,1.146c-.195.195-.195.512,0,.707.098.098.226.146.354.146s.256-.049.354-.146l1.146-1.146,2.378,2.379c1.046,1.045,1.622,2.436,1.622,3.914s-.576,2.869-1.622,3.915l-2.378,2.378-1.146-1.146c-.195-.195-.512-.195-.707,0s-.195.512,0,.707l1.146,1.146-1.146,1.146c-.195.195-.195.512,0,.707.098.098.226.146.354.146s.256-.049.354-.146l1.146-1.146,1.146,1.146c.098.098.226.146.354.146s.256-.049.354-.146c.195-.195.195-.512,0-.707l-1.146-1.146,2.378-2.378c1.046-1.045,2.437-1.622,3.915-1.622s2.868.576,3.914,1.622l2.379,2.379Zm-6.293-5c-.868,0-1.71.169-2.49.49.321-.779.49-1.622.49-2.49s-.169-1.71-.49-2.49c.779.321,1.622.49,2.49.49s1.71-.169,2.49-.49c-.321.779-.49,1.621-.49,2.49s.169,1.71.49,2.49c-.779-.321-1.621-.49-2.49-.49Zm2.03-8.445c-.02-.183-.03-.367-.03-.555,0-2.757,2.243-5,5-5s5,2.243,5,5-2.243,5-5,5c-.188,0-.373-.01-.555-.03-.274-.03-.473-.277-.442-.552.03-.274.272-.475.552-.442.146.016.295.024.445.024,2.206,0,4-1.794,4-4s-1.794-4-4-4-4,1.794-4,4c0,.151.008.299.024.446.03.274-.168.521-.442.552-.276.027-.521-.168-.552-.442Zm9.97,13.445c0,2.757-2.243,5-5,5s-5-2.243-5-5c0-.188.01-.372.03-.555.03-.274.275-.475.552-.442.274.03.473.277.442.552-.016.146-.024.295-.024.445,0,2.206,1.794,4,4,4s4-1.794,4-4-1.794-4-4-4c-.15,0-.299.009-.445.025-.278.027-.521-.168-.552-.442-.03-.274.168-.521.442-.552.182-.02.367-.031.555-.031,2.757,0,5,2.243,5,5ZM0,5C0,2.243,2.243,0,5,0s5,2.243,5,5c0,.188-.01.373-.03.555-.031.274-.277.468-.552.442-.274-.03-.473-.277-.442-.552.016-.146.024-.295.024-.446,0-2.206-1.794-4-4-4S1,2.794,1,5s1.794,4,4,4c.15,0,.299-.008.445-.024.279-.032.521.168.552.442s-.168.521-.442.552c-.182.02-.367.03-.555.03C2.243,10,0,7.757,0,5Zm9.97,13.445c.02.183.03.367.03.555,0,2.757-2.243,5-5,5S0,21.757,0,19s2.243-5,5-5c.188,0,.373.011.555.031.274.03.473.277.442.552-.031.274-.274.468-.552.442-.146-.016-.295-.025-.445-.025-2.206,0-4,1.794-4,4s1.794,4,4,4,4-1.794,4-4c0-.15-.008-.299-.024-.445-.03-.274.168-.521.442-.552.276-.032.521.168.552.442Z"/>
</svg>
