<?xml version="1.0" encoding="UTF-8"?>
<svg xmlns="http://www.w3.org/2000/svg" id="Layer_1" data-name="Layer 1" viewBox="0 0 24 24">
  <path d="m13.346,17.766c-.479.155-.933.234-1.346.234,0,0-.648.012-.763.004-.909-.526-2.08-1.004-3.237-1.004-.109,0-.203.004-.301.008l2.154-2.154c.195-.195.195-.512,0-.707s-.512-.195-.707,0l-2.154,2.154c.003-.097.008-.192.008-.301,0-1.142-.466-2.3-.984-3.204.002-.027-.016-.638-.016-.796,0-.413.079-.866.234-1.346.085-.263-.059-.545-.321-.63-.267-.085-.545.06-.63.321-.123.379-.191.743-.234,1.098-.585-.576-1.641-.556-2.181.076-.694.811-1.868,2.667-1.868,4.48,0,2.059,1.211,3.76,1.813,4.48L.146,23.146c-.195.195-.195.512,0,.707.098.098.226.146.354.146s.256-.049.354-.146l2.667-2.667c.72.602,2.421,1.813,4.48,1.813,1.813,0,3.67-1.174,4.48-1.868.33-.282.52-.695.52-1.132,0-.398-.164-.772-.442-1.049.354-.043.718-.111,1.096-.234.263-.085.406-.367.321-.63-.085-.262-.362-.406-.63-.321Zm-11.346-1.766c0-1.324.844-2.914,1.628-3.83.127-.148.287-.17.372-.17s.245.021.372.17c.784.916,1.628,2.506,1.628,3.83,0,1.061-.597,1.857-.671,1.964l-1.803,1.803c-.532-.657-1.526-2.105-1.526-3.767Zm9.83,4.372c-.916.784-2.506,1.628-3.83,1.628-1.662,0-3.11-.994-3.767-1.526l1.803-1.803c.107-.074.903-.671,1.964-.671,1.324,0,2.914.844,3.83,1.628.148.127.17.287.17.372s-.021.245-.17.372Zm12.024-14.225c-.195-.197-.512-.195-.707-.002l-3.89,3.871c-.912-.531-2.092-1.016-3.258-1.016-.109,0-.203.004-.301.008L23.854.854c.195-.195.195-.512,0-.707s-.512-.195-.707,0l-8.154,8.154c.003-.097.008-.192.008-.301,0-1.176-.494-2.366-1.031-3.281l3.883-3.864c.196-.195.196-.512.002-.707-.195-.197-.512-.195-.707-.002l-3.739,3.721c-.097-.13-.191-.247-.276-.347-.564-.66-1.699-.66-2.264,0-.623.728-1.626,2.299-1.826,3.925-.344-.342-.826-.488-1.298-.407L.854.146C.658-.049.342-.049.146.146S-.049.658.146.854l23,23c.098.098.226.146.354.146s.256-.049.354-.146c.195-.195.195-.512,0-.707l-6.89-6.89c.081-.471-.066-.954-.408-1.299,1.626-.2,3.197-1.202,3.925-1.826.33-.282.52-.695.52-1.132s-.189-.85-.52-1.132c-.105-.09-.23-.189-.368-.292l3.74-3.722c.196-.195.196-.512.002-.707Zm-12.227-1.978c.127-.148.287-.17.372-.17s.245.021.372.17c.784.916,1.628,2.506,1.628,3.83,0,1.061-.597,1.857-.671,1.964l-1.329,1.329-1.518-1.518c-.007-.037-.302-.689-.464-.973,0-.021.008-.04.006-.061-.017-.152-.023-.584-.023-.741,0-1.324.844-2.914,1.628-3.83Zm8.202,8.202c-.916.784-2.506,1.628-3.83,1.628-.151,0-1.128-.103-1.776-.483l-1.517-1.517,1.329-1.329c.107-.074.903-.671,1.964-.671,1.324,0,2.914.844,3.83,1.628.148.127.17.287.17.372s-.021.245-.17.372Z"/>
</svg>
