<?xml version="1.0" encoding="UTF-8"?>
<svg xmlns="http://www.w3.org/2000/svg" id="Layer_1" data-name="Layer 1" viewBox="0 0 24 24">
  <path d="m6.5,5c1.379,0,2.5-1.121,2.5-2.5S7.879,0,6.5,0s-2.5,1.121-2.5,2.5,1.121,2.5,2.5,2.5Zm0-4c.827,0,1.5.673,1.5,1.5s-.673,1.5-1.5,1.5-1.5-.673-1.5-1.5.673-1.5,1.5-1.5Zm4.5,11.5c0,.276-.224.5-.5.5s-.5-.224-.5-.5v-3c0-1.379-1.121-2.5-2.5-2.5h-2c-1.379,0-2.5,1.121-2.5,2.5v4c0,1.379,1.121,2.5,2.5,2.5h2c.285,0,.566-.048.834-.143.153-.053.323-.03.455.063s.211.246.211.408v7.171c0,.276-.224.5-.5.5s-.5-.224-.5-.5v-6.535c-.165.023-.332.035-.5.035h-2c-.17,0-.337-.012-.5-.036v6.536c0,.276-.224.5-.5.5s-.5-.224-.5-.5v-6.838c-1.181-.563-2-1.769-2-3.162v-4c0-1.93,1.57-3.5,3.5-3.5h2c1.93,0,3.5,1.57,3.5,3.5v3Zm6.5-1.5c-3.584,0-6.5,2.916-6.5,6.5s2.916,6.5,6.5,6.5,6.5-2.916,6.5-6.5-2.916-6.5-6.5-6.5Zm0,12c-3.032,0-5.5-2.468-5.5-5.5s2.468-5.5,5.5-5.5,5.5,2.468,5.5,5.5-2.468,5.5-5.5,5.5Zm3.35-6.857c.192.198.187.515-.012.707l-2.703,2.614c-.359.355-.835.533-1.311.533s-.949-.177-1.312-.531l-1.364-1.347c-.196-.193-.198-.51-.004-.707.194-.196.511-.198.707-.004l1.362,1.345c.336.329.885.327,1.222-.004l2.707-2.618c.198-.191.517-.187.707.012Z"/>
</svg>
