<?xml version="1.0" encoding="UTF-8"?>
<svg xmlns="http://www.w3.org/2000/svg" id="Layer_1" data-name="Layer 1" viewBox="0 0 24 24">
  <path d="m5.5,5c1.378,0,2.5-1.121,2.5-2.5S6.878,0,5.5,0s-2.5,1.121-2.5,2.5,1.122,2.5,2.5,2.5Zm0-4c.827,0,1.5.673,1.5,1.5s-.673,1.5-1.5,1.5-1.5-.673-1.5-1.5.673-1.5,1.5-1.5Zm2.404,6.447c-.163.222-.475.273-.699.108-.498-.363-1.088-.556-1.706-.556-1.366,0-2.559.971-2.835,2.31l-1.66,8.043c-.047.388.085.817.37,1.14.285.323.694.508,1.125.508h3.5c.276,0,.5.224.5.5s-.224.5-.5.5h-2v3.5c0,.276-.224.5-.5.5s-.5-.224-.5-.5v-3.5h-.5c-.717,0-1.4-.309-1.874-.846-.475-.537-.695-1.253-.606-1.965l1.666-8.082c.372-1.801,1.976-3.107,3.814-3.107.832,0,1.625.259,2.295.749.223.162.271.476.109.698Zm4.096,2.553c1.379,0,2.5-1.121,2.5-2.5s-1.121-2.5-2.5-2.5-2.5,1.121-2.5,2.5,1.122,2.5,2.5,2.5Zm0-4c.827,0,1.5.673,1.5,1.5s-.673,1.5-1.5,1.5-1.5-.673-1.5-1.5.673-1.5,1.5-1.5Zm1,5h-2c-1.654,0-3,1.346-3,3v3c0,1.304.836,2.415,2,2.828v3.672c0,.276.224.5.5.5s.5-.224.5-.5v-3.5h2v3.5c0,.276.224.5.5.5s.5-.224.5-.5v-3.672c1.164-.413,2-1.524,2-2.828v-3c0-1.654-1.346-3-3-3Zm2,6c0,1.103-.897,2-2,2h-2c-1.103,0-2-.897-2-2v-3c0-1.103.897-2,2-2h2c1.103,0,2,.897,2,2v3Zm3.5-12c1.379,0,2.5-1.121,2.5-2.5s-1.121-2.5-2.5-2.5-2.5,1.121-2.5,2.5,1.121,2.5,2.5,2.5Zm0-4c.827,0,1.5.673,1.5,1.5s-.673,1.5-1.5,1.5-1.5-.673-1.5-1.5.673-1.5,1.5-1.5Zm4.874,18.154c-.474.537-1.157.846-1.874.846h-.5v3.5c0,.276-.224.5-.5.5s-.5-.224-.5-.5v-3.5h-2c-.276,0-.5-.224-.5-.5s.224-.5.5-.5h3.5c.43,0,.84-.185,1.125-.508.284-.322.417-.752.363-1.178l-1.653-8.006c-.276-1.338-1.469-2.309-2.835-2.309-.618,0-1.208.192-1.705.556-.222.162-.535.114-.698-.108s-.115-.535.108-.698c.669-.49,1.463-.749,2.295-.749,1.839,0,3.442,1.307,3.813,3.107l1.66,8.044c.096.75-.125,1.466-.6,2.003Z"/>
</svg>
