<?xml version="1.0" encoding="UTF-8"?>
<svg xmlns="http://www.w3.org/2000/svg" id="Layer_1" data-name="Layer 1" viewBox="0 0 24 24">
  <path d="m19,10c0,.552-.448,1-1,1s-1-.448-1-1,.448-1,1-1,1,.448,1,1Zm5,1.5v2c0,.827-.673,1.5-1.5,1.5h-.365c-1.054,1.996-2.934,3.404-5.135,3.85v.15c0,1.103-.897,2-2,2s-2-.897-2-2h-4c0,1.103-.897,2-2,2s-2-.897-2-2v-.427C1.774,17.433-.298,14.206.036,10.755c.104-1.081.456-2.095.996-2.992C.427,6.93.085,5.843.014,4.527c-.015-.276.197-.511.473-.526.271-.015.511.196.526.473.052.966.267,1.774.639,2.412,1.435-1.755,3.664-2.885,6.112-2.885h5.857c.335-1.367,1.329-2.515,2.575-2.93.414-.141.862-.07,1.223.19.364.262.581.685.581,1.13v2.038c2.491.88,4.348,3.026,4.858,5.615.654.161,1.142.753,1.142,1.457Zm-1,0c0-.276-.225-.5-.5-.5-.249,0-.531-.183-.566-.429-.357-2.5-2.153-4.581-4.576-5.301-.212-.063-.357-.258-.357-.479v-2.4c0-.127-.061-.243-.165-.319-.057-.041-.174-.102-.322-.053-1.023.341-1.82,1.366-1.983,2.55-.034.247-.245.432-.495.432h-6.27c-3.458,0-6.416,2.57-6.733,5.851-.3,3.102,1.64,5.995,4.611,6.879.212.063.357.258.357.479v.791c0,.551.449,1,1,1s1-.449,1-1v-.5c0-.276.224-.5.5-.5h5c.276,0,.5.224.5.5v.5c0,.551.448,1,1,1s1-.449,1-1v-.571c0-.249.183-.46.43-.495,2.157-.309,4.006-1.672,4.945-3.648.082-.174.258-.285.451-.285h.674c.275,0,.5-.224.5-.5v-2Z"/>
</svg>
