<?xml version="1.0" encoding="UTF-8"?>
<svg xmlns="http://www.w3.org/2000/svg" id="Layer_1" data-name="Layer 1" viewBox="0 0 24 24">
  <path d="m21,12c0,.552-.448,1-1,1s-1-.448-1-1,.448-1,1-1,1,.448,1,1Zm-1,7c-.552,0-1,.448-1,1s.448,1,1,1,1-.448,1-1-.448-1-1-1Zm-16,0c-.552,0-1,.448-1,1s.448,1,1,1,1-.448,1-1-.448-1-1-1Zm0-8c-.552,0-1,.448-1,1s.448,1,1,1,1-.448,1-1-.448-1-1-1Zm17.75-2.397c-.241-.14-.546-.057-.683.182-.139.239-.057.545.182.683,1.08.625,1.75,1.786,1.75,3.032v7c0,1.93-1.57,3.5-3.5,3.5H4.5c-1.93,0-3.5-1.57-3.5-3.5v-7c0-1.93,1.57-3.5,3.5-3.5h11c.276,0,.5-.224.5-.5s-.224-.5-.5-.5H4.5c-2.481,0-4.5,2.019-4.5,4.5v7c0,2.481,2.019,4.5,4.5,4.5h15c2.481,0,4.5-2.019,4.5-4.5v-7c0-1.602-.862-3.095-2.25-3.897Zm-5.75,7.397c0,2.206-1.794,4-4,4s-4-1.794-4-4,1.794-4,4-4,4,1.794,4,4Zm-1,0c0-1.654-1.346-3-3-3s-3,1.346-3,3,1.346,3,3,3,3-1.346,3-3Zm0-12c.126,0,.251-.047.349-.142l2.651-2.582v7.224c0,.276.224.5.5.5s.5-.224.5-.5V1.311l2.654,2.549c.199.191.515.186.707-.014.191-.199.185-.516-.014-.707l-2.805-2.694c-.232-.233-.542-.445-1.042-.445s-.831.196-1.075.44l-2.773,2.701c-.198.193-.202.509-.01.707.098.101.228.151.358.151Z"/>
</svg>
