<?xml version="1.0" encoding="UTF-8"?>
<svg xmlns="http://www.w3.org/2000/svg" id="Layer_1" data-name="Layer 1" viewBox="0 0 24 24">
  <path d="m21.5,0h-2c-1.379,0-2.5,1.122-2.5,2.5v9.264c0,2.682-1.979,4.972-4.507,5.213-1.432.135-2.8-.317-3.855-1.276-1.041-.946-1.638-2.295-1.638-3.701V2.5c0-1.378-1.122-2.5-2.5-2.5h-2C1.122,0,0,1.122,0,2.5v9.121c0,6.708,5.283,12.261,11.775,12.379.076.001.151.002.227.002,3.165,0,6.142-1.215,8.404-3.437,2.317-2.275,3.594-5.316,3.594-8.563V2.5c0-1.378-1.121-2.5-2.5-2.5Zm-2,1h2c.827,0,1.5.673,1.5,1.5v2.5h-5v-2.5c0-.827.673-1.5,1.5-1.5ZM2.5,1h2c.827,0,1.5.673,1.5,1.5v2.5H1v-2.5c0-.827.673-1.5,1.5-1.5Zm17.206,18.852c-2.123,2.085-4.942,3.209-7.912,3.148-5.952-.109-10.794-5.213-10.794-11.379v-5.621h5v6c0,1.687.716,3.306,1.965,4.441,1.266,1.15,2.91,1.694,4.623,1.531,3.035-.289,5.413-3.016,5.413-6.208v-5.764h5v6.002c0,2.977-1.17,5.764-3.294,7.85Z"/>
</svg>
