<?xml version="1.0" encoding="UTF-8"?>
<svg xmlns="http://www.w3.org/2000/svg" id="Layer_1" data-name="Layer 1" viewBox="0 0 24 24">
  <path d="m7.89,10.364c-1.219-1.148-1.89-2.698-1.89-4.364,0-3.309,2.691-6,6-6s6,2.691,6,6c0,1.666-.671,3.215-1.89,4.364-.097.091-.22.136-.343.136-.133,0-.266-.053-.364-.157-.189-.201-.18-.517.021-.707,1.016-.958,1.576-2.249,1.576-3.636,0-2.757-2.243-5-5-5s-5,2.243-5,5c0,1.387.56,2.679,1.576,3.636.201.189.21.506.021.707-.189.201-.505.211-.707.021ZM19,2c0-1.103.897-2,2-2s2,.897,2,2-.897,2-2,2-2-.897-2-2Zm1,0c0,.551.449,1,1,1s1-.449,1-1-.449-1-1-1-1,.449-1,1Zm-10.49,7.458c.253.11.548-.005.659-.257.319-.729,1.038-1.201,1.831-1.201s1.512.471,1.831,1.201c.082.188.267.318.458.299.531-.051.568-.448.458-.701-.479-1.093-1.557-1.799-2.747-1.799s-2.269.707-2.747,1.799c-.111.253.004.548.257.659Zm.49-5.458c0-1.103.897-2,2-2s2,.897,2,2-.897,2-2,2-2-.897-2-2Zm1,0c0,.551.449,1,1,1s1-.449,1-1-.449-1-1-1-1,.449-1,1Zm12.99,3.398c-.288-1.39-1.545-2.398-2.99-2.398-.414,0-.815.08-1.193.238-.255.106-.375.399-.269.654.107.255.401.375.654.269.255-.106.526-.161.807-.161.973,0,1.818.673,2.01,1.602.049.236.258.411.489.398.366-.019.546-.331.49-.602Zm-4.248,11.533l-5.242-1.789v-4.536c0-1.273-.896-2.379-2.084-2.573-.733-.115-1.475.085-2.035.562-.56.476-.881,1.17-.881,1.905v7.424l-.138.067-1.688-1.344s-.008-.003-.011-.006c-1.008-.904-2.562-.844-3.489.15-.941,1.007-.894,2.588.106,3.524l1.64,1.548c.092.087.214.135.341.135.448,0,.667-.547.342-.856l-1.633-1.551c-.599-.562-.629-1.514-.064-2.118.561-.602,1.509-.635,2.115-.073.004.004.01.005.015.008.007.006.009.014.016.019l1.688,1.344c.328.262.769.311,1.147.128.379-.183.614-.557.614-.978v-7.424c0-.44.193-.857.529-1.143.341-.29.778-.408,1.227-.336.709.115,1.245.797,1.245,1.586v4.893c0,.214.136.404.338.473l5.566,1.9c1.601.6,2.596,1.99,2.596,3.627,0,.276.224.5.5.5s.5-.224.5-.5c0-2.064-1.243-3.813-3.258-4.568ZM1,2C1,.897,1.897,0,3,0s2,.897,2,2-.897,2-2,2-2-.897-2-2Zm1,0c0,.551.449,1,1,1s1-.449,1-1-.449-1-1-1-1,.449-1,1Zm2.461,3.892c.106-.255-.014-.548-.269-.654-.377-.158-.779-.238-1.193-.238C1.556,5,.298,6.009.01,7.398c-.056.271.192.611.49.602.232-.007.44-.163.489-.398.192-.928,1.038-1.602,2.01-1.602.281,0,.552.054.807.161.254.106.548-.014.654-.269Z"/>
</svg>
