<?xml version="1.0" encoding="UTF-8"?>
<svg xmlns="http://www.w3.org/2000/svg" id="Layer_1" data-name="Layer 1" viewBox="0 0 24 24">
  <path d="m17.979,23.359c.078.265-.074.543-.338.621-.047.014-.095.021-.141.021-.216,0-.416-.141-.479-.359-.63-2.144-2.695-3.641-5.021-3.641s-4.39,1.497-5.021,3.641c-.078.265-.352.42-.621.338-.265-.078-.417-.355-.338-.621.754-2.566,3.213-4.359,5.979-4.359s5.225,1.792,5.979,4.359Zm-.479-12.859c0,.276.224.5.5.5,2.326,0,4.39,1.497,5.021,3.641.064.218.263.359.479.359.046,0,.094-.006.141-.021.265-.078.417-.355.338-.621-.754-2.566-3.213-4.359-5.979-4.359-.276,0-.5.224-.5.5Zm-11,0c0-.276-.224-.5-.5-.5C3.234,10,.775,11.792.021,14.359c-.078.265.074.543.338.621.047.014.095.021.141.021.216,0,.416-.141.479-.359.63-2.144,2.695-3.641,5.021-3.641.276,0,.5-.224.5-.5Zm7.5-6.5c0-2.206,1.794-4,4-4s4,1.794,4,4-1.794,4-4,4-4-1.794-4-4Zm1,0c0,1.654,1.346,3,3,3s3-1.346,3-3-1.346-3-3-3-3,1.346-3,3Zm8.854,19.854c-.098.098-.226.146-.354.146s-.256-.049-.354-.146L.146.854C-.049.658-.049.342.146.146S.658-.049.854.146l1.747,1.747c.723-1.163,2.014-1.893,3.4-1.893,2.206,0,4,1.794,4,4,0,1.386-.73,2.677-1.893,3.4l2.05,2.05c.567-.295,1.199-.45,1.843-.45,2.206,0,4,1.794,4,4,0,.644-.155,1.276-.45,1.843l8.303,8.303c.195.195.195.512,0,.707Zm-12.943-13.65l3.885,3.885c.134-.345.204-.714.204-1.089,0-1.654-1.346-3-3-3-.375,0-.744.07-1.089.204ZM3.333,2.626l4.042,4.042c.991-.512,1.626-1.548,1.626-2.667,0-1.654-1.346-3-3-3-1.12,0-2.156.635-2.667,1.626Zm5.274,9.379c-.278-.035-.526.151-.566.424-.026.187-.041.377-.041.571,0,2.206,1.794,4,4,4,.194,0,.385-.014.571-.041.273-.04.463-.293.424-.566-.04-.273-.287-.463-.566-.424-.14.021-.283.031-.429.031-1.654,0-3-1.346-3-3,0-.146.01-.289.031-.429.039-.273-.151-.527-.424-.566Z"/>
</svg>
