<?xml version="1.0" encoding="UTF-8"?>
<svg xmlns="http://www.w3.org/2000/svg" id="Layer_1" data-name="Layer 1" viewBox="0 0 24 24">
  <path d="m24,12c0-2.135-1.685-3.869-3.792-3.979-.897-1.848-2.38-3.331-4.229-4.229-.11-2.107-1.844-3.792-3.979-3.792s-3.865,1.682-3.978,3.787c-1.845.894-3.337,2.39-4.233,4.234-2.106.112-3.789,1.845-3.789,3.979s1.684,3.868,3.792,3.979c.897,1.848,2.382,3.332,4.229,4.229.11,2.107,1.844,3.792,3.979,3.792s3.869-1.685,3.979-3.792c1.849-.897,3.332-2.381,4.229-4.229,2.108-.11,3.792-1.844,3.792-3.979ZM12,1c1.654,0,3,1.346,3,3s-1.346,3-3,3-3-1.346-3-3,1.346-3,3-3ZM1,12c0-1.654,1.346-3,3-3s3,1.346,3,3-1.346,3-3,3-3-1.346-3-3Zm11,11c-1.654,0-3-1.346-3-3s1.346-3,3-3,3,1.346,3,3-1.346,3-3,3Zm3.898-3.87c-.399-1.788-1.992-3.13-3.898-3.13s-3.5,1.343-3.899,3.13c-1.366-.747-2.484-1.866-3.232-3.232,1.788-.399,3.13-1.992,3.13-3.899,0-1.897-1.33-3.482-3.104-3.89.746-1.357,1.856-2.47,3.213-3.216.408,1.775,1.993,3.106,3.891,3.106s3.5-1.343,3.898-3.13c1.366.747,2.486,1.866,3.232,3.232-1.788.399-3.131,1.992-3.131,3.899s1.342,3.5,3.131,3.899c-.747,1.366-1.866,2.485-3.232,3.232Zm4.102-4.13c-1.654,0-3-1.346-3-3s1.346-3,3-3,3,1.346,3,3-1.346,3-3,3Z"/>
</svg>
