<?xml version="1.0" encoding="UTF-8"?>
<svg xmlns="http://www.w3.org/2000/svg" id="Layer_1" data-name="Layer 1" viewBox="0 0 24 24">
  <path d="m5,20c0,.552-.448,1-1,1s-1-.448-1-1,.448-1,1-1,1,.448,1,1Zm3-1c-.552,0-1,.448-1,1s.448,1,1,1,1-.448,1-1-.448-1-1-1Zm16,.5v1c0,1.93-1.57,3.5-3.5,3.5H3.5c-1.93,0-3.5-1.57-3.5-3.5v-1c0-1.93,1.57-3.5,3.5-3.5h16.726L2.179.883c-.212-.177-.239-.493-.062-.705.18-.211.494-.239.705-.062C2.821.117,22.764,16.826,22.783,16.85c.745.642,1.217,1.592,1.217,2.65Zm-1,0c0-1.379-1.121-2.5-2.5-2.5H3.5c-1.379,0-2.5,1.121-2.5,2.5v1c0,1.379,1.121,2.5,2.5,2.5h17c1.379,0,2.5-1.121,2.5-2.5v-1Z"/>
</svg>
