<?xml version="1.0" encoding="UTF-8"?>
<svg xmlns="http://www.w3.org/2000/svg" id="Layer_1" data-name="Layer 1" viewBox="0 0 24 24">
  <path d="m.5,24c-.128,0-.256-.049-.354-.146-.195-.195-.195-.512,0-.707l12.094-12.094c1.003-1.002,1.658-2.33,1.846-3.737l.513-3.844c.265-1.979,1.97-3.472,3.966-3.472h1.436c2.206,0,4,1.794,4,4s-1.794,4-4,4h-1.5c-.276,0-.5-.224-.5-.5s.224-.5.5-.5h1.5c1.654,0,3-1.346,3-3s-1.346-3-3-3h-1.436c-1.497,0-2.775,1.12-2.975,2.604l-.512,3.844c-.217,1.624-.974,3.155-2.131,4.312L.854,23.854c-.098.098-.226.146-.354.146Z"/>
</svg>
