<?xml version="1.0" encoding="UTF-8"?>
<svg xmlns="http://www.w3.org/2000/svg" id="Layer_1" data-name="Layer 1" viewBox="0 0 24 24">
  <path d="m12,10c-1.103,0-2,.897-2,2s.897,2,2,2,2-.897,2-2-.897-2-2-2Zm0,3c-.551,0-1-.449-1-1s.449-1,1-1,1,.449,1,1-.449,1-1,1Zm12-1c0-1.71-1.621-3.214-4.212-4.215.537-2.97.054-5.353-1.53-6.332-.762-.471-1.688-.578-2.755-.314-1.101.271-2.302.94-3.502,1.914-1.201-.973-2.402-1.643-3.502-1.914-1.068-.264-1.994-.157-2.755.314-1.585.979-2.068,3.362-1.53,6.332C1.621,8.786,0,10.29,0,12s1.621,3.214,4.212,4.215c-.537,2.97-.054,5.353,1.531,6.332.49.302,1.048.454,1.667.454.345,0,.708-.047,1.089-.141,1.101-.271,2.302-.94,3.502-1.914,1.2.973,2.401,1.642,3.502,1.914.381.094.744.141,1.088.141.62,0,1.178-.152,1.667-.454,1.584-.979,2.068-3.362,1.531-6.332,2.591-1.001,4.212-2.505,4.212-4.215ZM15.742,2.11c.299-.074.58-.11.843-.11.436,0,.82.102,1.148.304,1.188.734,1.52,2.685,1.094,5.147-1.019-.318-2.156-.565-3.379-.728-.851-1.145-1.762-2.163-2.686-3.012,1.031-.814,2.05-1.371,2.981-1.601Zm.334,12.417c-.373.63-.767,1.234-1.176,1.807-.928.108-1.901.166-2.9.166s-1.972-.058-2.9-.166c-.409-.573-.802-1.177-1.176-1.807-.498-.84-.935-1.689-1.309-2.528.375-.839.812-1.688,1.309-2.528.373-.63.767-1.234,1.175-1.806.928-.108,1.901-.166,2.9-.166s1.972.058,2.9.166c.408.572.802,1.176,1.175,1.806.498.84.935,1.689,1.309,2.528-.375.839-.812,1.687-1.309,2.527Zm1.827-1.271c.299.793.539,1.568.718,2.308-.729.229-1.526.423-2.374.573.237-.358.467-.725.689-1.1.352-.594.674-1.189.967-1.781Zm-5.903,6.388c-.703-.638-1.404-1.386-2.077-2.223.673.052,1.367.079,2.077.079s1.404-.027,2.077-.079c-.673.837-1.374,1.586-2.077,2.223Zm-4.247-3.507c-.849-.15-1.646-.344-2.374-.573.179-.74.419-1.515.718-2.308.293.591.615,1.186.967,1.781.223.376.453.743.689,1.1Zm-1.656-5.394c-.299-.793-.539-1.568-.718-2.308.728-.229,1.525-.423,2.374-.573-.236.357-.466.724-.689,1.1-.352.595-.674,1.19-.967,1.781Zm5.903-6.388c.703.638,1.404,1.386,2.077,2.223-.673-.052-1.367-.079-2.077-.079s-1.404.027-2.077.079c.673-.837,1.374-1.586,2.077-2.223Zm4.936,4.607c-.222-.376-.453-.743-.689-1.1.849.15,1.645.344,2.374.573-.179.74-.419,1.515-.718,2.308-.293-.591-.615-1.186-.967-1.781ZM6.268,2.303c.328-.202.712-.304,1.148-.304.262,0,.544.037.843.11.931.229,1.95.787,2.981,1.601-.924.848-1.835,1.867-2.686,3.012-1.223.162-2.36.41-3.379.728-.427-2.462-.095-4.412,1.094-5.147ZM1,12c0-1.252,1.326-2.403,3.423-3.228.253,1.031.618,2.117,1.094,3.228-.476,1.112-.841,2.198-1.094,3.228-2.096-.825-3.423-1.977-3.423-3.228Zm7.259,9.89c-.795.197-1.466.132-1.991-.193-1.188-.734-1.521-2.684-1.094-5.146,1.019.318,2.156.565,3.379.728.851,1.145,1.762,2.163,2.686,3.012-1.031.814-2.049,1.371-2.98,1.6Zm9.474-.193c-.525.326-1.194.392-1.991.193-.931-.229-1.95-.786-2.98-1.6.924-.848,1.835-1.867,2.686-3.012,1.223-.162,2.36-.41,3.379-.728.427,2.462.095,4.412-1.094,5.146Zm1.845-6.468c-.253-1.031-.618-2.117-1.094-3.228.476-1.111.841-2.197,1.094-3.228,2.097.825,3.423,1.977,3.423,3.228s-1.326,2.403-3.423,3.228Z"/>
</svg>
