<?xml version="1.0" encoding="UTF-8"?>
<svg xmlns="http://www.w3.org/2000/svg" id="Layer_1" data-name="Layer 1" viewBox="0 0 24 24">
  <path d="m2.547,15.002s.003,0,.004,0c-.002,0-.016,0-.004,0Z"/>
  <path d="m24,13c0-5.041-4.5-9.223-10.329-9.903.208-.315.329-.692.329-1.097,0-1.103-.897-2-2-2s-2,.897-2,2c0,.405.121.782.329,1.097C4.501,3.777,0,7.957,0,12.981c-.002.06-.043,1.466.801,2.342.342.355.771.571,1.278.646l.817,4.36c.399,2.127,2.259,3.671,4.423,3.671h9.361c2.164,0,4.023-1.544,4.422-3.671l.818-4.36c.507-.075.936-.291,1.278-.646.845-.876.804-2.282.802-2.323ZM12,1c.551,0,1,.448,1,1s-.449,1-1,1-1-.448-1-1,.449-1,1-1Zm8.12,19.146c-.311,1.654-1.757,2.854-3.439,2.854H7.32c-1.683,0-3.13-1.2-3.44-2.854l-.549-2.931c.673.49,1.524.785,2.398.785,1.239,0,2.434-.594,3.136-1.494.703.9,1.897,1.494,3.136,1.494s2.434-.594,3.137-1.494c.702.9,1.896,1.494,3.136,1.494.874,0,1.725-.296,2.397-.785l-.55,2.931Zm2.355-5.514c-.24.248-.599.37-1.015.37-.003,0-.007,0-.01,0-.219-.018-.431.109-.51.324-.353.954-1.5,1.674-2.668,1.674s-2.314-.72-2.667-1.673c-.072-.196-.259-.327-.469-.327s-.396.13-.469.326c-.353.954-1.5,1.674-2.668,1.674s-2.314-.72-2.667-1.674c-.145-.393-.793-.393-.938,0-.353.954-1.5,1.674-2.667,1.674s-2.315-.72-2.668-1.674c-.079-.214-.291-.342-.508-.324,0,0,0,0-.004,0-.417,0-.783-.122-1.022-.37-.55-.566-.525-1.604-.524-1.632,0-4.963,4.935-9,11-9s11,4.037,11,9.017c0,.011.025,1.049-.524,1.615Z"/>
</svg>
