<?xml version="1.0" encoding="UTF-8"?>
<svg xmlns="http://www.w3.org/2000/svg" id="Layer_1" data-name="Layer 1" viewBox="0 0 24 24">
  <path d="m19.682,3.975l-2.657-2.657c-.85-.85-1.979-1.318-3.182-1.318h-6.343C5.019,0,3,2.019,3,4.5v15c0,2.481,2.019,4.5,4.5,4.5h9c2.481,0,4.5-2.019,4.5-4.5V7.157c0-1.202-.468-2.332-1.318-3.182Zm.318,15.525c0,1.93-1.57,3.5-3.5,3.5H7.5c-1.93,0-3.5-1.57-3.5-3.5V4.5c0-1.93,1.57-3.5,3.5-3.5h6.343c.935,0,1.813.364,2.475,1.025l2.657,2.657c.661.661,1.025,1.54,1.025,2.475v12.343Zm-4.5-7.5h-7c-1.378,0-2.5,1.122-2.5,2.5v4c0,1.378,1.122,2.5,2.5,2.5h7c1.378,0,2.5-1.122,2.5-2.5v-4c0-1.378-1.122-2.5-2.5-2.5Zm1.5,2.5v1.5h-6v-3h4.5c.827,0,1.5.673,1.5,1.5Zm-8.5-1.5h1.5v3h-3v-1.5c0-.827.673-1.5,1.5-1.5Zm-1.5,5.5v-1.5h6v3h-4.5c-.827,0-1.5-.673-1.5-1.5Zm8.5,1.5h-1.5v-3h3v1.5c0,.827-.673,1.5-1.5,1.5Z"/>
</svg>
