<?xml version="1.0" encoding="UTF-8"?>
<svg xmlns="http://www.w3.org/2000/svg" id="Layer_1" data-name="Layer 1" viewBox="0 0 24 24">
  <path d="m21,17.5c0,.276-.224.5-.5.5h-6c-.276,0-.5-.224-.5-.5s.224-.5.5-.5h6c.276,0,.5.224.5.5Zm-14.146-.197l-.542.469c-.82.711-2.112.629-2.822-.177-1.922-2.183-2.777-4.99-2.407-7.904C1.636,5.337,4.896,1.908,9.194,1.158c2.74-.478,5.466.141,7.673,1.744,2.183,1.583,3.651,4.015,4.031,6.669.039.274.296.458.566.424.272-.039.463-.292.424-.566-.418-2.921-2.034-5.595-4.434-7.337C15.025.329,12.027-.354,9.022.173,4.289.999.7,4.773.091,9.564c-.407,3.203.534,6.29,2.649,8.691.588.667,1.415,1.008,2.248,1.008.702,0,1.408-.242,1.979-.736l.542-.468c.209-.181.231-.497.051-.706-.181-.208-.497-.231-.706-.051Zm4.146-4.303c-1.103,0-2-.897-2-2,0-.929.64-1.705,1.5-1.929V3.5c0-.276.224-.5.5-.5s.5.224.5.5v5.571c.86.224,1.5,1,1.5,1.929,0,1.103-.897,2-2,2Zm0-1c.551,0,1-.449,1-1s-.449-1-1-1-1,.449-1,1,.449,1,1,1Zm13,5.5c0,3.584-2.916,6.5-6.5,6.5s-6.5-2.916-6.5-6.5,2.916-6.5,6.5-6.5,6.5,2.916,6.5,6.5Zm-1,0c0-3.033-2.468-5.5-5.5-5.5s-5.5,2.467-5.5,5.5,2.468,5.5,5.5,5.5,5.5-2.467,5.5-5.5Z"/>
</svg>
