<?xml version="1.0" encoding="UTF-8"?>
<svg xmlns="http://www.w3.org/2000/svg" id="Layer_1" data-name="Layer 1" viewBox="0 0 24 24">
  <path d="m23.488,17.842c-.729,1.332-2.123,2.158-3.64,2.158h-7.728c.051.103.108.204.193.287l3.029,2.849c.201.189.211.505.021.707-.099.105-.231.158-.364.158-.123,0-.246-.045-.343-.136l-3.037-2.856c-.406-.399-.627-.942-.618-1.5,0-.003-.002-.005-.002-.008,0-.001,0-.002,0-.004,0-.003,0-.006,0-.01.014-.527.227-1.022.601-1.396l3.052-2.95c.201-.191.518-.187.707.012.192.199.187.515-.012.707l-3.046,2.945c-.056.056-.091.128-.132.196h7.679c1.15,0,2.209-.627,2.763-1.638.54-.989.509-2.199-.081-3.158l-1.037-1.688c-.145-.235-.071-.543.164-.688.236-.143.544-.072.688.165l1.037,1.688c.777,1.264.818,2.858.106,4.162ZM14.504,2.403l4.949,7.199c-.071,0-.143.011-.213-.004l-4.127-.958c-.27-.066-.538.105-.601.374-.062.269.105.538.374.6l4.135.96c.145.031.952.037,1.499-.254s.827-.795.94-1.346l.748-4.102c.049-.272-.131-.532-.402-.582-.268-.053-.532.129-.582.402l-.746,4.091c-.025.123-.08.233-.144.336L15.328,1.836C14.533.683,13.205.028,11.825.025c-1.523.021-2.915.869-3.615,2.183l-.873,1.399c-.146.234-.075.542.159.689.233.145.542.076.688-.16l.891-1.428c.546-1.022,1.604-1.667,2.764-1.683,1.038-.048,2.061.5,2.665,1.378Zm-6.004,16.597h-4.42c-1.11,0-2.139-.601-2.685-1.566-.562-.997-.529-2.215.087-3.179l4.516-7.059c.031.057.072.108.092.17l1.191,4.066c.063.218.263.359.479.359.046,0,.094-.006.141-.02.265-.078.417-.355.339-.621l-1.193-4.074c-.157-.504-.497-.924-.957-1.18-.492-.276-1.084-.335-1.635-.159l-3.94,1.362c-.261.09-.399.375-.31.636s.376.399.636.31l3.931-1.358c.129-.042.262-.052.393-.043L.641,13.716c-.816,1.277-.861,2.89-.116,4.209.724,1.28,2.086,2.075,3.556,2.075h4.42c.276,0,.5-.224.5-.5s-.224-.5-.5-.5Z"/>
</svg>
