<?xml version="1.0" encoding="UTF-8"?>
<svg xmlns="http://www.w3.org/2000/svg" id="Layer_1" data-name="Layer 1" viewBox="0 0 24 24">
  <path d="m11,23.5c0,.276-.224.5-.5.5h-6c-2.481,0-4.5-2.019-4.5-4.5V4.5C0,2.019,2.019,0,4.5,0h7c2.481,0,4.5,2.019,4.5,4.5v4c0,.276-.224.5-.5.5s-.5-.224-.5-.5v-4c0-1.93-1.57-3.5-3.5-3.5h-7c-1.93,0-3.5,1.57-3.5,3.5v15c0,1.93,1.57,3.5,3.5,3.5h6c.276,0,.5.224.5.5Zm-4.5-10.5h-2c-.276,0-.5.224-.5.5s.224.5.5.5h2c.276,0,.5-.224.5-.5s-.224-.5-.5-.5Zm0,4h-2c-.276,0-.5.224-.5.5s.224.5.5.5h2c.276,0,.5-.224.5-.5s-.224-.5-.5-.5Zm0-12h-2c-.276,0-.5.224-.5.5s.224.5.5.5h2c.276,0,.5-.224.5-.5s-.224-.5-.5-.5Zm5,0h-2c-.276,0-.5.224-.5.5s.224.5.5.5h2c.276,0,.5-.224.5-.5s-.224-.5-.5-.5Zm-5,4h-2c-.276,0-.5.224-.5.5s.224.5.5.5h2c.276,0,.5-.224.5-.5s-.224-.5-.5-.5Zm5,0h-2c-.276,0-.5.224-.5.5s.224.5.5.5h2c.276,0,.5-.224.5-.5s-.224-.5-.5-.5Zm12.5,8.5c0,3.584-2.916,6.5-6.5,6.5s-6.5-2.916-6.5-6.5,2.916-6.5,6.5-6.5,6.5,2.916,6.5,6.5Zm-1,0c0-3.032-2.467-5.5-5.5-5.5s-5.5,2.468-5.5,5.5,2.467,5.5,5.5,5.5,5.5-2.468,5.5-5.5Zm-1.912.991l-1.8,1.836c-.22.192-.476.288-.73.288-.148,0-.296-.032-.437-.097-.383-.176-.621-.546-.621-.967v-1.552h-3c-.276,0-.5-.224-.5-.5s.224-.5.5-.5h3v-1.558c0-.42.237-.79.618-.966.383-.175.818-.116,1.137.158l1.832,1.854c.552.552.553,1.449.001,2.002Zm-.709-1.295l-.003-.003-1.802-1.827-.074.076v4.109l.075.074,1.802-1.838c.165-.166.165-.43.002-.592Z"/>
</svg>
