<?xml version="1.0" encoding="UTF-8"?>
<svg xmlns="http://www.w3.org/2000/svg" id="Layer_1" data-name="Layer 1" viewBox="0 0 24 24">
  <path d="m20,0H4C1.794,0,0,1.794,0,4v2.772c0,.013.712,9.08.712,9.08.121,1.537,1.022,2.853,2.292,3.569l-.004.846c0,2.191,1.183,3.565,2.692,3.717.101.011.201.016.301.016.744,0,1.467-.274,2.02-.775.627-.567.987-1.379.987-2.225v-1h6v1c0,1.654,1.346,3,3,3s3-1.346,3-3.436l-.005-1.142c1.271-.716,2.172-2.033,2.293-3.57l.712-9.08v-2.772c0-2.206-1.794-4-4-4Zm-5,1h4v6h-4V1Zm-5,0h4v6h-4V1Zm-5,0h4v6h-4V1ZM1,6.753v-2.753c0-1.654,1.346-3,3-3v6H1.019l-.019-.247Zm2.005,12.669s.001,0,.002,0c0,.006-.001.007-.002,0Zm4.995,1.578c0,.564-.24,1.104-.658,1.483-.424.384-.974.565-1.55.507-1.005-.102-1.792-1.038-1.792-2.133v-1.022c.383.107.785.165,1.198.165h2.802v1Zm12,0c0,1.103-.897,2-2,2s-2-.897-2-2v-1h2.802c.413,0,.815-.057,1.198-.165v1.165Zm.994-1.577s.001,0,.002,0c0,.009,0,.008-.002,0Zm1.298-3.649c-.143,1.809-1.676,3.226-3.49,3.226H5.198c-1.814,0-3.347-1.417-3.489-3.226l-.611-7.774h21.804l-.61,7.774Zm.689-8.774h-2.981V1c1.654,0,3,1.346,3,3l.002,2.733-.021.267Z"/>
</svg>
