<?xml version="1.0" encoding="UTF-8"?>
<svg xmlns="http://www.w3.org/2000/svg" id="Layer_1" data-name="Layer 1" viewBox="0 0 24 24">
  <path d="m16.999,11c.884,0,1.719-.387,2.29-1.061s.815-1.561.67-2.432l-.834-5c-.242-1.452-1.486-2.506-2.959-2.506H7.834c-1.473,0-2.717,1.054-2.959,2.507l-.833,5c-.146.872.099,1.758.67,2.433.571.674,1.405,1.061,2.289,1.061h4.5v12h-4c-.276,0-.5.224-.5.5s.224.5.5.5h9c.276,0,.5-.224.5-.5s-.224-.5-.5-.5h-4v-12h4.499Zm-11.524-1.707c-.381-.45-.543-1.041-.447-1.622l.833-5c.161-.968.991-1.671,1.973-1.671h8.332c.981,0,1.812.703,1.973,1.671l.834,5c.097.581-.066,1.172-.447,1.622s-.938.708-1.526.708H7c-.589,0-1.145-.258-1.526-.707Z"/>
</svg>
