<?xml version="1.0" encoding="UTF-8"?>
<svg xmlns="http://www.w3.org/2000/svg" id="Layer_1" data-name="Layer 1" viewBox="0 0 24 24">
  <path d="m20.5,15h-1.512c.317-.419.512-.935.512-1.5v-3c0-1.379-1.121-2.5-2.5-2.5h-1.512c.317-.419.512-.935.512-1.5v-3c0-1.379-1.121-2.5-2.5-2.5h-3c-1.379,0-2.5,1.121-2.5,2.5v3c0,.565.195,1.081.512,1.5h-1.512c-1.379,0-2.5,1.121-2.5,2.5v3c0,.565.195,1.081.512,1.5h-1.512c-1.379,0-2.5,1.121-2.5,2.5v3c0,1.379,1.121,2.5,2.5,2.5h3c.821,0,1.544-.403,2-1.015.456.612,1.179,1.015,2,1.015h3c.821,0,1.544-.403,2-1.015.456.612,1.179,1.015,2,1.015h3c1.379,0,2.5-1.121,2.5-2.5v-3c0-1.379-1.121-2.5-2.5-2.5Zm-2-4.5v3c0,.827-.673,1.5-1.5,1.5h-3c-.827,0-1.5-.673-1.5-1.5v-3c0-.827.673-1.5,1.5-1.5h3c.827,0,1.5.673,1.5,1.5ZM9,3.5c0-.827.673-1.5,1.5-1.5h3c.827,0,1.5.673,1.5,1.5v3c0,.827-.673,1.5-1.5,1.5h-3c-.827,0-1.5-.673-1.5-1.5v-3Zm-3.5,7c0-.827.673-1.5,1.5-1.5h3c.827,0,1.5.673,1.5,1.5v3c0,.827-.673,1.5-1.5,1.5h-3c-.827,0-1.5-.673-1.5-1.5v-3Zm1,11.5h-3c-.827,0-1.5-.673-1.5-1.5v-3c0-.827.673-1.5,1.5-1.5h3c.827,0,1.5.673,1.5,1.5v3c0,.827-.673,1.5-1.5,1.5Zm7,0h-3c-.827,0-1.5-.673-1.5-1.5v-3c0-.827.673-1.5,1.5-1.5h3c.827,0,1.5.673,1.5,1.5v3c0,.827-.673,1.5-1.5,1.5Zm8.5-1.5c0,.827-.673,1.5-1.5,1.5h-3c-.827,0-1.5-.673-1.5-1.5v-3c0-.827.673-1.5,1.5-1.5h3c.827,0,1.5.673,1.5,1.5v3Z"/>
</svg>
