<?xml version="1.0" encoding="UTF-8"?>
<svg xmlns="http://www.w3.org/2000/svg" id="Layer_1" data-name="Layer 1" viewBox="0 0 24 24">
  <path d="m8,11.5v12c0,.276-.224.5-.5.5s-.5-.224-.5-.5v-11.528c-2.247-.25-4-2.16-4-4.472v-1c0-.276.224-.5.5-.5s.5.224.5.5v1c0,1.93,1.57,3.5,3.5,3.5.276,0,.5.224.5.5Zm7.5,7.5c-.276,0-.5.224-.5.5v4c0,.276.224.5.5.5s.5-.224.5-.5v-4c0-.276-.224-.5-.5-.5Zm8.354,4.854c-.098.098-.226.146-.354.146s-.256-.049-.354-.146L.146.854C-.049.658-.049.342.146.146S.658-.049.854.146l2.146,2.146V.5c0-.276.224-.5.5-.5s.5.224.5.5v2.793l3,3V.5c0-.276.224-.5.5-.5s.5.224.5.5v6.793l2.293,2.293c.45-.602.707-1.328.707-2.086V.5c0-.276.224-.5.5-.5s.5.224.5.5v7c0,1.023-.36,2.003-.995,2.798l3.995,3.995V1.875c0-.843.523-1.546,1.333-1.792.8-.244,1.614.048,2.075.738,1.288,1.929,2.591,5.277,2.591,7.945,0,3.457-1.713,6.374-3.235,8.292l6.089,6.089c.195.195.195.512,0,.707Zm-7.854-8.561l1.053,1.053c1.403-1.791,2.947-4.461,2.947-7.58,0-2.442-1.249-5.63-2.423-7.389-.256-.384-.659-.425-.953-.337-.301.092-.624.359-.624.835v13.418Z"/>
</svg>
