<?xml version="1.0" encoding="UTF-8"?>
<svg xmlns="http://www.w3.org/2000/svg" id="Layer_1" data-name="Layer 1" viewBox="0 0 24 24">
  <path d="m19.258,17.001c-1.268,0-2.459.493-3.354,1.39-2.974,2.973-6.928,4.61-11.132,4.61h-2.15c-.799,0-1.297-.517-1.498-1.001-.2-.483-.213-1.202.352-1.767l3.285-3.285,12.898-3.439c1.967-.524,3.341-2.312,3.341-4.349v-4.66c0-2.481-2.019-4.5-4.5-4.5h-4.66c-2.036,0-3.824,1.374-4.349,3.341l-3.441,12.904-3.282,3.282c-.764.764-.981,1.858-.568,2.856.414.998,1.342,1.618,2.422,1.618h2.15c4.472,0,8.676-1.741,11.839-4.903.706-.707,1.646-1.097,2.646-1.097,2.063,0,3.742,1.679,3.742,3.743v1.757c0,.276.224.5.5.5s.5-.224.5-.5v-1.757c0-2.615-2.127-4.743-4.742-4.743Zm-1.856-4.459l-11.229,2.994L14.634,7.075l4.446,4.446s0,0,.001.001c-.44.482-1.017.844-1.68,1.02Zm2.599-8.042v4.66c0,.539-.124,1.055-.348,1.519l-4.311-4.311,3.962-3.962c.438.584.697,1.309.697,2.094Zm-3.5-3.5c.785,0,1.511.26,2.096.699l-3.962,3.962L10.321,1.348c.463-.224.98-.348,1.519-.348h4.66Zm-8.042,2.599c.177-.663.538-1.24,1.02-1.68,0,0,0,0,.001.001l4.448,4.448L5.462,14.833l2.996-11.234Z"/>
</svg>
