<?xml version="1.0" encoding="UTF-8"?>
<svg xmlns="http://www.w3.org/2000/svg" id="Layer_1" data-name="Layer 1" viewBox="0 0 24 24">
  <path d="m12,7c-1.379,0-2.5,1.121-2.5,2.5,0,1.208.86,2.218,2,2.45v3.55c0,.276.224.5.5.5s.5-.224.5-.5v-3.55c1.14-.232,2-1.242,2-2.45,0-1.379-1.121-2.5-2.5-2.5Zm0,4c-.827,0-1.5-.673-1.5-1.5s.673-1.5,1.5-1.5,1.5.673,1.5,1.5-.673,1.5-1.5,1.5Zm6.764-8.784L12.157.025c-.102-.033-.213-.033-.314,0l-6.606,2.19c-1.936.643-3.236,2.443-3.236,4.482v5.236c0,6.609,7.159,10.702,9.354,11.8,0,0,.319.266.649.266s.627-.214.627-.214c2.198-.884,9.37-4.351,9.37-11.852v-5.236c0-2.04-1.301-3.841-3.236-4.482Zm2.236,9.719c0,6.874-6.692,10.099-8.744,10.924l-.231.094-.224-.112c-2.064-1.032-8.801-4.869-8.801-10.905v-5.236c0-1.607,1.025-3.027,2.551-3.533l6.449-2.139,6.449,2.139c1.525.506,2.551,1.926,2.551,3.533v5.236Z"/>
</svg>
