<?xml version="1.0" encoding="UTF-8"?>
<svg xmlns="http://www.w3.org/2000/svg" id="Layer_1" data-name="Layer 1" viewBox="0 0 24 24">
  <path d="m12,10c-1.103,0-2,.897-2,2s.897,2,2,2,2-.897,2-2-.897-2-2-2Zm0,3c-.551,0-1-.449-1-1s.449-1,1-1,1,.449,1,1-.449,1-1,1Zm6.045-4.529c-.418-.715-1.34-.957-2.052-.539l-.641.374c-.537-.489-1.167-.852-1.853-1.068v-.738c0-.827-.673-1.5-1.5-1.5s-1.5.673-1.5,1.5v.738c-.687.216-1.316.579-1.853,1.068l-.641-.374c-.346-.203-.75-.256-1.138-.156-.388.102-.712.349-.914.694-.202.346-.258.75-.156,1.138.102.388.349.712.695.914l.646.377c-.094.386-.14.749-.14,1.1s.046.714.14,1.101l-.646.377c-.714.417-.956,1.338-.539,2.052.416.714,1.338.957,2.051.539l.641-.374c.536.488,1.166.851,1.853,1.068v.738c0,.827.673,1.5,1.5,1.5s1.5-.673,1.5-1.5v-.738c.687-.216,1.316-.58,1.853-1.068l.641.374c.711.417,1.634.175,2.052-.539.417-.714.175-1.634-.54-2.052l-.646-.377c.094-.385.14-.748.14-1.101s-.046-.715-.14-1.1l.646-.377c.714-.417.957-1.337.54-2.052Zm-.812.884c-.034.129-.116.237-.231.305l-.979.572c-.202.118-.295.359-.225.582.136.433.202.822.202,1.188,0,.371-.064.748-.202,1.188-.07.223.023.464.225.581l.979.571c.238.139.319.446.181.684-.14.237-.447.319-.685.18l-.971-.567c-.2-.117-.457-.081-.617.089-.55.586-1.249.989-2.021,1.165-.227.052-.389.254-.389.487v1.12c0,.276-.224.5-.5.5s-.5-.224-.5-.5v-1.12c0-.233-.161-.436-.389-.487-.773-.176-1.472-.579-2.021-1.165-.097-.104-.23-.158-.365-.158-.086,0-.173.022-.252.068l-.971.567c-.238.137-.545.058-.684-.18-.067-.115-.086-.25-.052-.379.034-.129.116-.238.231-.305l.979-.571c.201-.117.295-.358.225-.581-.138-.442-.202-.82-.202-1.189s.064-.747.202-1.188c.07-.223-.023-.464-.225-.581l-.979-.572c-.115-.067-.198-.176-.231-.305-.034-.129-.016-.264.052-.379.067-.115.176-.198.305-.231.13-.035.264-.016.379.052l.971.567c.201.118.457.082.617-.09.549-.586,1.248-.988,2.021-1.165.228-.052.389-.254.389-.487v-1.121c0-.276.224-.5.5-.5s.5.224.5.5v1.121c0,.233.162.436.389.488.772.175,1.471.578,2.021,1.164.16.171.417.208.617.09l.971-.567c.115-.067.249-.087.379-.052.129.034.238.116.305.231.067.115.085.25.051.379Zm6.745,3.167c-.275,6.437-5.542,11.479-11.989,11.479-3.482,0-6.705-1.484-8.985-4.074-.002.026-.015.048-.015.074v3.5c0,.276-.224.5-.5.5s-.5-.224-.5-.5v-3.5c0-1.103.897-2,2-2h3.5c.276,0,.5.224.5.5s-.224.5-.5.5h-3.5c-.14,0-.273.03-.394.082,2.097,2.488,5.121,3.918,8.394,3.918,5.91,0,10.737-4.622,10.99-10.521.012-.276.253-.485.521-.478.276.012.49.245.478.521ZM.999,11.521c-.011.269-.233.479-.499.479-.007,0-.015,0-.022,0-.276-.012-.49-.245-.478-.521C.276,5.042,5.542,0,11.989,0c3.482,0,6.705,1.484,8.985,4.074.002-.026.015-.048.015-.074V.5c0-.276.224-.5.5-.5s.5.224.5.5v3.5c0,1.103-.897,2-2,2h-3.5c-.276,0-.5-.224-.5-.5s.224-.5.5-.5h3.5c.14,0,.273-.03.395-.083-2.098-2.488-5.122-3.917-8.395-3.917C6.079,1,1.252,5.622.999,11.521Z"/>
</svg>
