<?xml version="1.0" encoding="UTF-8"?>
<svg xmlns="http://www.w3.org/2000/svg" id="Layer_1" data-name="Layer 1" viewBox="0 0 24 24">
  <path d="m12.567,10.479c.439.924,1.395,1.521,2.433,1.521,3.309,0,6-2.691,6-6S18.309,0,15,0H6C2.691,0,0,2.691,0,6s2.691,6,6.029,6c1.047,0,2.006-.606,2.444-1.544.341-.73,1.058-1.956,2.027-1.956.978,0,1.715,1.24,2.067,1.979Zm-5-.447c-.274.588-.878.968-1.567.968-2.757,0-5-2.243-5-5S3.243,1,6,1h9c2.757,0,5,2.243,5,5s-2.243,5-5,5c-.654,0-1.255-.373-1.53-.95-.795-1.668-1.822-2.55-2.97-2.55s-2.159.876-2.933,2.532ZM24,.5v16.5c0,3.859-3.141,7-7,7s-7-3.141-7-7v-2.5c0-.276.224-.5.5-.5s.5.224.5.5v2.5c0,3.309,2.691,6,6,6s6-2.691,6-6V.5c0-.276.224-.5.5-.5s.5.224.5.5Z"/>
</svg>
