<?xml version="1.0" encoding="UTF-8"?>
<svg xmlns="http://www.w3.org/2000/svg" id="Layer_1" data-name="Layer 1" viewBox="0 0 24 24">
  <path d="m1.535,10.992c.238.001.443-.166.49-.399l.321-1.593h2.359l.328,1.597c.046.226.245.389.476.39.309.002.542-.282.481-.585l-1.27-6.291c-.093-.459-.359-.834-.711-1.003-.159-.077-.327-.115-.494-.115-.194,0-.386.052-.561.155-.324.191-.556.534-.636.932l-1.267,6.318c-.062.307.172.593.485.595Zm1.762-6.716c.024-.118.088-.223.163-.267.029-.017.048-.017.055-.017.017,0,.037.005.061.017.037.018.126.115.164.299l.759,3.692h-1.952l.75-3.724Zm16.203,3.724h1c1.379,0,2.5-1.122,2.5-2.5,0-.861-.438-1.622-1.102-2.071.371-.363.602-.87.602-1.429,0-1.103-.897-2-2-2h-1c-.827,0-1.5.673-1.5,1.5v5c0,.827.673,1.5,1.5,1.5Zm-.5-6.5c0-.276.225-.5.5-.5h1c.552,0,1,.449,1,1s-.448,1-1,1h-1.5v-1.5Zm0,2.5h1.5c.827,0,1.5.673,1.5,1.5s-.673,1.5-1.5,1.5h-1c-.275,0-.5-.224-.5-.5v-2.5Zm4.414,5.507L.414,13.507c-.271.047-.454.306-.406.578.042.243.253.415.491.415.029,0,.058-.002.087-.007l10.676-1.857-3.166,8.629c-.205.708-.072,1.495.346,2.052.326.434.798.683,1.293.683h4.531c.495,0,.967-.249,1.293-.683.418-.557.551-1.344.335-2.085l-3.244-8.837,10.936-1.902c.271-.047.454-.306.406-.578-.047-.273-.312-.453-.578-.407Zm-8.655,13.209c-.097.129-.262.283-.493.283h-4.531c-.231,0-.396-.154-.493-.283-.23-.307-.303-.767-.195-1.14l2.954-8.049,2.943,8.016c.118.406.046.867-.185,1.173Z"/>
</svg>
