<?xml version="1.0" encoding="UTF-8"?>
<svg xmlns="http://www.w3.org/2000/svg" id="Layer_1" data-name="Layer 1" viewBox="0 0 24 24">
  <path d="m12,0C5.383,0,0,5.383,0,12s5.383,12,12,12,12-5.383,12-12S18.617,0,12,0Zm0,23c-6.065,0-11-4.935-11-11S5.935,1,12,1s11,4.935,11,11-4.935,11-11,11Zm0-16c-1.654,0-3,1.346-3,3,0,1.483,1.084,2.71,2.5,2.949v3.551c0,.276.224.5.5.5s.5-.224.5-.5v-3.551c1.416-.24,2.5-1.466,2.5-2.949,0-1.654-1.346-3-3-3Zm0,5c-1.103,0-2-.897-2-2s.897-2,2-2,2,.897,2,2-.897,2-2,2Z"/>
</svg>
