<?xml version="1.0" encoding="UTF-8"?>
<svg xmlns="http://www.w3.org/2000/svg" id="Layer_1" data-name="Layer 1" viewBox="0 0 24 24">
  <path d="m13.5,23H4.5c-1.93,0-3.5-1.57-3.5-3.5V4.5c0-1.93,1.57-3.5,3.5-3.5h5.515c.334,0,.663.03.985.088v5.412c0,1.379,1.121,2.5,2.5,2.5,0,0,5.84.01,5.937-.016.268-.068.429-.341.36-.608-.289-1.13-.877-2.163-1.702-2.987l-3.484-3.484c-1.228-1.228-2.86-1.904-4.597-1.904h-5.515C2.019,0,0,2.019,0,4.5v15c0,2.481,2.019,4.5,4.5,4.5h9c.276,0,.5-.224.5-.5s-.224-.5-.5-.5ZM12,1.368c.706.273,1.353.693,1.904,1.244l3.484,3.484c.543.543.964,1.193,1.24,1.904h-5.129c-.827,0-1.5-.673-1.5-1.5V1.368Zm-1,13.132c0,.276-.224.5-.5.5h-6c-.276,0-.5-.224-.5-.5s.224-.5.5-.5h6c.276,0,.5.224.5.5Zm0,4c0,.276-.224.5-.5.5h-6c-.276,0-.5-.224-.5-.5s.224-.5.5-.5h6c.276,0,.5.224.5.5Zm11.896-6.569l-4.239-1.405c-.102-.033-.213-.033-.314,0l-4.24,1.405c-.659.22-1.103.833-1.103,1.526v3.917c0,3.613,3.868,5.829,5.053,6.423,0,0,.244.165.448.165s.419-.13.419-.13c1.192-.479,5.08-2.363,5.08-6.458v-3.917c0-.693-.443-1.307-1.104-1.526Zm.104,5.443c0,3.468-3.431,5.119-4.477,5.54-1.056-.528-4.523-2.5-4.523-5.54v-3.917c0-.262.168-.494.418-.577l4.082-1.354,4.081,1.354c.251.083.419.315.419.577v3.917Zm-12-6.874c0,.276-.224.5-.5.5h-6c-.276,0-.5-.224-.5-.5s.224-.5.5-.5h6c.276,0,.5.224.5.5Z"/>
</svg>
