<?xml version="1.0" encoding="UTF-8"?>
<svg xmlns="http://www.w3.org/2000/svg" id="Layer_1" data-name="Layer 1" viewBox="0 0 24 24">
  <path d="m21.87,4.164c-.183-.203-.496-.218-.702-.036-.205.183-.223.499-.041.705.013.015.969,1.147,1.509,3.985-.141,2.107-1.655,4.182-4.136,4.182h-3.958c-.372-1.11-.961-1.953-1.73-2.454,1.293-.664,2.188-1.996,2.188-3.546v-.667c0-1.261-.374-2.434-1.012-3.422.587-.203,1.012-.755,1.012-1.412,0-.828-.672-1.5-1.5-1.5-.656,0-1.209.425-1.412,1.012-.988-.637-2.161-1.012-3.421-1.012h-2.334c-1.261,0-2.433.374-3.421,1.012-.203-.587-.755-1.012-1.412-1.012C.672,0,0,.672,0,1.5c0,.657.424,1.209,1.012,1.412-.637.988-1.012,2.161-1.012,3.422v.667c0,1.005.385,1.914,1,2.618v5.882c0,4.687,3.813,8.5,8.5,8.5h6.006c.672,0,1.304-.262,1.778-.739.467-.469.723-1.089.721-1.746-.003-.934.293-1.528.579-2.103.139-.278.27-.541.36-.829.158-.505-.022-1.035-.462-1.35-.437-.313-.991-.313-1.414-.005l-.171.121c-.542.383-1.362.961-1.766,2.196-.071.219-.241.453-.502.453h-2.13c-.276,0-.5.224-.5.5s.224.5.5.5h2.13c.655,0,1.226-.448,1.453-1.142.3-.92.88-1.329,1.392-1.69l.183-.13c.1-.073.194-.025.242.009.041.029.131.11.091.237-.071.226-.184.446-.302.683-.306.616-.688,1.381-.684,2.552,0,.389-.151.757-.43,1.037-.285.287-.665.444-1.069.444h-6.006c-3.92,0-7.142-3.024-7.468-6.862,1.177,1.789,3.289,2.862,5.968,2.862.276,0,.5-.224.5-.5s-.224-.5-.5-.5c-3.645,0-6-2.159-6-5.5v-2.056c.591.344,1.268.556,2,.556,1.504,0,2.817-.834,3.5-2.065.683,1.23,1.996,2.065,3.5,2.065,2.214,0,3,2.693,3,5,0,.276.224.5.5.5s.5-.224.5-.5c0-.726-.079-1.385-.198-2h3.698c2.072,0,3.606-1.151,4.443-2.688.034.528.057,1.084.057,1.688v.5c0,2.573-1.012,4.982-2.849,6.784-.197.193-.201.51-.008.707.099.1.228.15.357.15.126,0,.253-.047.351-.143,2.03-1.992,3.148-4.654,3.148-7.498v-.5c0-6.59-2.07-8.77-2.13-8.836Zm-13.697,3.801c.466-.085.827-.474.827-.965,0-.552-.448-1-1-1h-1c-.552,0-1,.448-1,1,0,.491.36.88.827.965-.404,1.179-1.512,2.035-2.827,2.035-1.654,0-3-1.346-3-3v-.667C1,3.393,3.393,1,6.333,1h2.334c2.94,0,5.333,2.393,5.333,5.333v.667c0,1.654-1.346,3-3,3-1.315,0-2.422-.856-2.827-2.035Zm-3.173-1.965c0,.552-.448,1-1,1s-1-.448-1-1,.448-1,1-1,1,.448,1,1Zm6,1c-.552,0-1-.448-1-1s.448-1,1-1,1,.448,1,1-.448,1-1,1Z"/>
</svg>
