<?xml version="1.0" encoding="UTF-8"?>
<svg xmlns="http://www.w3.org/2000/svg" id="Layer_1" data-name="Layer 1" viewBox="0 0 24 24">
  <path d="m13,23.469c.011.275-.203.509-.479.521-.173.007-.346.011-.521.011C5.383,24,0,18.617,0,12S5.383,0,12,0s12,5.383,12,12c0,.175-.004.348-.011.521-.012.275-.254.48-.521.479-.276-.012-.49-.245-.479-.521.007-.159.011-.318.011-.479,0-6.065-4.935-11-11-11S1,5.935,1,12s4.935,11,11,11c.161,0,.32-.004.479-.011.259-.009.508.204.52.479ZM7,7.5v3c0,.276.224.5.5.5s.5-.224.5-.5v-3c0-.276-.224-.5-.5-.5s-.5.224-.5.5Zm3,0v3c0,.276.224.5.5.5s.5-.224.5-.5v-3c0-.276-.224-.5-.5-.5s-.5.224-.5.5Zm3,0v3c0,.276.224.5.5.5s.5-.224.5-.5v-3c0-.276-.224-.5-.5-.5s-.5.224-.5.5Zm3,0v3c0,.276.224.5.5.5s.5-.224.5-.5v-3c0-.276-.224-.5-.5-.5s-.5.224-.5.5Zm3,0v3c0,.276.224.5.5.5s.5-.224.5-.5v-3c0-.276-.224-.5-.5-.5s-.5.224-.5.5Zm-15,0v3c0,.276.224.5.5.5s.5-.224.5-.5v-3c0-.276-.224-.5-.5-.5s-.5.224-.5.5Zm18.385,7.101c1.043,1.042,1.615,2.424,1.615,3.893s-.572,2.851-1.611,3.89-2.419,1.61-3.889,1.61-2.851-.572-3.889-1.61-1.611-2.42-1.611-3.89.572-2.851,1.611-3.889l1.751-1.713c1.178-1.152,3.096-1.154,4.275,0l1.747,1.709Zm.615,3.893c0-1.202-.468-2.332-1.318-3.182l-1.743-1.705c-.396-.388-.918-.582-1.438-.582s-1.042.194-1.438.582l-1.747,1.709c-.847.846-1.314,1.976-1.314,3.178s.468,2.332,1.318,3.183,1.979,1.317,3.182,1.317,2.332-.468,3.182-1.317,1.318-1.98,1.318-3.183Z"/>
</svg>
