<?xml version="1.0" encoding="UTF-8"?>
<svg xmlns="http://www.w3.org/2000/svg" id="Layer_1" data-name="Layer 1" viewBox="0 0 24 24">
  <path d="m21.677,5.829c-.783-.667-1.773-.942-2.791-.78-1.49.241-2.56,1.303-2.819,2.678l-1.224-1.428c-.544-.634-.843-1.443-.843-2.278V1h.5c.276,0,.5-.224.5-.5s-.224-.5-.5-.5h-7c-.276,0-.5.224-.5.5s.224.5.5.5h.5v3.021c0,.834-.299,1.644-.842,2.278l-3.593,4.191c-.923,1.076-1.443,2.427-1.53,3.836-.021.055-.035,5.175-.035,5.175,0,2.481,2.019,4.5,4.5,4.5h9c2.481,0,4.5-2.019,4.5-4.5v-4.551c1.692-.245,3-1.691,3-3.449v-2.743c0-1.145-.482-2.213-1.323-2.929ZM3,15h11.5c.275,0,.5.224.5.5v3c0,.276-.225.5-.5.5H3v-4Zm16,4.5c0,1.93-1.57,3.5-3.5,3.5H6.5c-1.758,0-3.204-1.308-3.449-3h11.449c.827,0,1.5-.673,1.5-1.5v-3c0-.827-.673-1.5-1.5-1.5H3.064c.139-1.051.564-2.048,1.26-2.86l3.593-4.191c.698-.815,1.083-1.855,1.083-2.928V1h4v3.021c0,1.073.385,2.113,1.083,2.928l3.593,4.191c.854.997,1.324,2.268,1.324,3.58v4.78Zm3-8c0,1.231-.895,2.25-2.068,2.456-.152-1.273-.655-2.484-1.496-3.467l-1.436-1.675v-.333c-.052-1.453.99-2.276,2.046-2.446.721-.117,1.427.08,1.982.554.617.526.972,1.316.972,2.167v2.743Z"/>
</svg>
