<?xml version="1.0" encoding="UTF-8"?>
<svg xmlns="http://www.w3.org/2000/svg" id="Layer_1" data-name="Layer 1" viewBox="0 0 24 24">
  <path d="m23.423,8.985l-1.238-1.101c-.641-.57-1.467-.884-2.325-.884h-2.863c-.093-2.57-2.034-4.734-4.496-4.975V.5c0-.276-.224-.5-.5-.5s-.5.224-.5.5v1.529c-1.064.103-2.055.536-2.862,1.27-1.041.946-1.638,2.295-1.638,3.701h-2.859c-.858,0-1.685.314-2.325.884l-1.238,1.101c-.54.48-.724,1.227-.466,1.903.164.432.492.75.889.935v10.678c0,.827.673,1.5,1.5,1.5h1c.276,0,.5-.224.5-.5v-6c0-.276.225-.5.5-.5s.5.224.5.5v6c0,.276.224.5.5.5h1c.827,0,1.5-.673,1.5-1.5v-3.5c0-1.125.478-2.204,1.31-2.96.844-.768,1.945-1.128,3.085-1.021,2.021.193,3.605,2.027,3.605,4.175v3.307c0,.827.673,1.5,1.5,1.5h1c.276,0,.5-.224.5-.5v-6c0-.276.225-.5.5-.5s.5.224.5.5v6c0,.276.224.5.5.5h1c.827,0,1.5-.673,1.5-1.5v-10.678c.397-.185.724-.502.889-.935.258-.676.074-1.423-.466-1.903Zm-1.923,14.015h-.5v-5.5c0-.827-.673-1.5-1.5-1.5s-1.5.673-1.5,1.5v5.5h-.5c-.275,0-.5-.224-.5-.5v-3.307c0-2.658-1.981-4.929-4.51-5.17-1.436-.141-2.799.317-3.853,1.276-1.041.946-1.638,2.295-1.638,3.701v3.5c0,.276-.225.5-.5.5h-.5v-5.5c0-.827-.673-1.5-1.5-1.5s-1.5.673-1.5,1.5v5.5h-.5c-.275,0-.5-.224-.5-.5v-10.5h20v10.5c0,.276-.225.5-.5.5Zm1.454-12.468c-.041.11-.214.468-.678.468H1.724c-.464,0-.637-.358-.678-.468-.042-.11-.151-.492.195-.8l1.238-1.101c.458-.407,1.048-.631,1.661-.631h3.359c.276,0,.5-.224.5-.5v-.5c0-1.125.478-2.204,1.31-2.96.844-.768,1.945-1.132,3.085-1.021,2.021.193,3.605,2.027,3.605,4.175v.307c0,.276.224.5.5.5h3.359c.613,0,1.203.224,1.661.631l1.238,1.101c.347.309.237.69.195.8Zm-10.954-6.532c-1.654,0-3,1.346-3,3s1.346,3,3,3,3-1.346,3-3-1.346-3-3-3Zm0,5c-1.103,0-2-.897-2-2s.897-2,2-2,2,.897,2,2-.897,2-2,2Zm.854-1.854c.195.195.195.512,0,.707-.098.098-.226.146-.354.146s-.256-.049-.354-.146l-.5-.5c-.094-.094-.146-.221-.146-.354v-1c0-.276.224-.5.5-.5s.5.224.5.5v.793l.354.354Z"/>
</svg>
