<?xml version="1.0" encoding="UTF-8"?>
<svg xmlns="http://www.w3.org/2000/svg" id="Layer_1" data-name="Layer 1" viewBox="0 0 24 24">
  <path d="m18,17.5c0,.276-.224.5-.5.5h-4c-.276,0-.5-.224-.5-.5s.224-.5.5-.5h4c.276,0,.5.224.5.5Zm-10.736-6.072c.386.379.892.568,1.397.568s1.015-.191,1.4-.572l2.79-2.755c.196-.194.198-.511.004-.707-.194-.197-.511-.199-.707-.005l-2.79,2.755c-.384.38-1.01.38-1.394.001l-1.197-1.174c-.198-.194-.514-.189-.708.007-.193.197-.189.514.007.707l1.197,1.174Zm5.592,2.534c-.194-.196-.511-.199-.707-.004l-2.789,2.755c-.384.379-1.01.38-1.394.002l-1.198-1.175c-.198-.194-.514-.189-.708.007-.193.197-.189.514.007.707l1.198,1.175c.386.379.891.568,1.396.568s1.016-.191,1.401-.572l2.789-2.755c.196-.194.198-.51.004-.707Zm4.645-2.962h-4c-.276,0-.5.224-.5.5s.224.5.5.5h4c.276,0,.5-.224.5-.5s-.224-.5-.5-.5Zm3.5-4.5v13c0,2.481-2.019,4.5-4.5,4.5H7.5c-2.481,0-4.5-2.019-4.5-4.5V6.5c0-2.481,2.019-4.5,4.5-4.5h.55c.232-1.14,1.243-2,2.45-2h3c1.207,0,2.218.86,2.45,2h.55c2.481,0,4.5,2.019,4.5,4.5Zm-1,0c0-1.93-1.57-3.5-3.5-3.5h-1c-.276,0-.5-.224-.5-.5,0-.827-.673-1.5-1.5-1.5h-3c-.827,0-1.5.673-1.5,1.5,0,.276-.224.5-.5.5h-1c-1.93,0-3.5,1.57-3.5,3.5v13c0,1.93,1.57,3.5,3.5,3.5h9c1.93,0,3.5-1.57,3.5-3.5V6.5Z"/>
</svg>
