<?xml version="1.0" encoding="UTF-8"?>
<svg xmlns="http://www.w3.org/2000/svg" id="Layer_1" data-name="Layer 1" viewBox="0 0 24 24">
  <path d="m18.5,0H4.607c-1.273,0-2.38.896-2.573,2.084-.12.733.085,1.475.561,2.035.399.469.953.757,1.554.842l-2.669,1.259c-1.141.566-1.731,1.861-1.375,3.012.22.71.733,1.282,1.409,1.571.675.289,1.44.267,2.101-.062l.742-.376-2.023,3.883c-.589,1.129-.307,2.524.657,3.245.443.331.975.506,1.512.506.185,0,.37-.021.554-.062.716-.163,1.321-.631,1.664-1.288l.28-.556v5.299c0,1.273.896,2.38,2.084,2.573.137.022.274.034.411.034.594,0,1.169-.208,1.624-.595.56-.477.881-1.171.881-1.905v-5.887c0-.791.534-1.475,1.243-1.592.445-.073.884.044,1.226.334.338.287.531.704.531,1.145,0,.798-.808,1.469-1.484,1.891-.882.549-1.444,1.436-1.507,2.372-.058.861.225,1.672.796,2.282.938,1.005,2.562,1.232,3.732.531.384-.229,2.358-1.475,3.55-3.464.138-.231,1.561-2.964,2.73-5.215.773-1.486,1.183-3.16,1.183-4.839v-3.559c0-3.032-2.468-5.5-5.5-5.5Zm4.5,9.059c0,1.519-.37,3.032-1.069,4.378-1.598,3.073-2.607,5.004-2.702,5.162-1.091,1.822-2.991,2.991-3.205,3.119-.781.466-1.862.314-2.488-.355-.38-.406-.567-.95-.528-1.533.041-.616.429-1.211,1.037-1.589,1.279-.798,1.956-1.745,1.956-2.74,0-.735-.322-1.43-.885-1.907-.562-.477-1.307-.682-2.035-.558-1.186.195-2.08,1.304-2.08,2.578v5.887c0,.44-.192.857-.529,1.144-.341.29-.776.406-1.227.336-.709-.116-1.244-.798-1.244-1.587v-5.893c0-2.327,1.474-4.412,3.667-5.187.26-.092.396-.378.305-.639-.093-.261-.377-.397-.639-.305-1.629.576-2.92,1.763-3.656,3.248-.05.042-.092.095-.123.157l-1.724,3.418c-.203.391-.567.671-.997.77-.434.099-.879.003-1.243-.27-.576-.431-.735-1.282-.37-1.981l2.134-4.095c.338-.648.86-1.166,1.51-1.498l4.826-2.469c.246-.126.343-.427.218-.672-.124-.246-.426-.341-.671-.22L3.166,9.849c-.396.197-.854.209-1.26.035-.411-.176-.712-.512-.847-.948-.213-.687.159-1.469.855-1.815L11.7,2.504c.25-.118.357-.416.239-.665-.117-.251-.418-.354-.665-.239l-5.128,2.419c-.032-.006-.061-.019-.094-.019h-1.552c-.44,0-.857-.192-1.144-.529-.29-.341-.409-.776-.336-1.227.116-.709.798-1.244,1.587-1.244h13.893c2.481,0,4.5,2.019,4.5,4.5v3.559Z"/>
</svg>
