<?xml version="1.0" encoding="UTF-8"?>
<svg xmlns="http://www.w3.org/2000/svg" id="Layer_1" data-name="Layer 1" viewBox="0 0 24 24">
  <path d="m20.482,17.385l-1.847-2.436c.487-.119.908-.438,1.15-.893.312-.582.278-1.285-.108-1.862l-2.625-3.406c.296-.16.545-.406.716-.72.318-.584.292-1.266-.09-1.855L13.383.577c-.736-.744-1.987-.792-2.808.048l-4.29,5.619c-.362.559-.39,1.241-.072,1.826.171.315.42.562.718.723l-2.63,3.43c-.366.549-.4,1.252-.088,1.834.243.454.664.773,1.15.893l-1.847,2.436c-.006.008-.012.016-.018.024-.614.921-.669,2.055-.146,3.031.522.977,1.496,1.56,2.604,1.56h5.543v1.5c0,.276.224.5.5.5s.5-.224.5-.5v-1.5h5.543c1.108,0,2.081-.583,2.604-1.56.523-.977.468-2.11-.164-3.056Zm-.717,2.584c-.346.646-.99,1.031-1.722,1.031H5.957c-.732,0-1.376-.386-1.722-1.031-.343-.642-.31-1.386.089-1.993l2.406-3.174c.115-.151.134-.354.049-.524s-.258-.277-.448-.277h-.543c-.295,0-.554-.155-.693-.415-.139-.261-.125-.562.02-.78l3.065-3.996c.116-.151.136-.355.052-.525-.084-.171-.258-.279-.448-.279-.293,0-.551-.153-.691-.411-.14-.258-.128-.558.01-.772L11.328,1.28c.357-.361,1.029-.312,1.301-.049l4.231,5.556c.159.245.17.546.03.803s-.398.41-.691.41c-.19,0-.365.108-.449.279s-.063.375.053.526l3.062,3.972c.164.245.178.547.039.808-.139.26-.398.415-.693.415h-.543c-.19,0-.363.107-.448.277s-.065.373.049.524l2.398,3.162c.406.609.442,1.358.097,2.005Zm-9.765-2.969c0,.552-.448,1-1,1s-1-.448-1-1,.448-1,1-1,1,.448,1,1Zm5,0c0,.552-.448,1-1,1s-1-.448-1-1,.448-1,1-1,1,.448,1,1Zm-3-4c0,.552-.448,1-1,1s-1-.448-1-1,.448-1,1-1,1,.448,1,1Zm1-2c-.552,0-1-.448-1-1s.448-1,1-1,1,.448,1,1-.448,1-1,1Zm-3-4c0-.552.448-1,1-1s1,.448,1,1-.448,1-1,1-1-.448-1-1Z"/>
</svg>
