<?xml version="1.0" encoding="UTF-8"?>
<svg xmlns="http://www.w3.org/2000/svg" id="Layer_1" data-name="Layer 1" viewBox="0 0 24 24">
  <path d="m17.38,7.011c-2.541.322-4.407,1.791-5.382,4.193-.729-1.791-2.242-3.792-5.376-4.193-.433-.053-.865.091-1.184.402-.32.313-.477.744-.431,1.183.544,5.196,4.945,5.832,6.492,5.893v2.01c0,.276.224.5.5.5s.5-.224.5-.5v-2.016c1.543-.061,5.921-.695,6.491-5.881.048-.44-.107-.873-.428-1.187-.318-.313-.75-.458-1.184-.405Zm-5.881,6.487c-1.326-.037-5.029-.543-5.497-5.006-.014-.133.036-.265.136-.363.085-.083.194-.128.306-.128.018,0,.035,0,.052.003,3.33.425,4.56,2.923,5.004,4.966v.528Zm6.498-5.004c-.488,4.442-4.175,4.957-5.497,4.998v-.491c0-.006,0-.013,0-.019v-.011c.45-2.046,1.687-4.546,5.006-4.966h0c.127-.021.259.029.356.125.101.099.149.231.135.365Zm4.796,13.035l-.793-1.643V4.115l.77-1.586c.302-.529.3-1.16-.007-1.687-.306-.527-.852-.842-1.461-.842H2.698c-.609,0-1.155.314-1.461.842-.307.527-.309,1.158-.022,1.657l.785,1.616v15.771l-.777,1.614c-.301.529-.297,1.159.009,1.685.307.526.852.839,1.46.839h18.617c.608,0,1.153-.313,1.46-.839.306-.526.31-1.156.024-1.656ZM3,4h18v16H3V4Zm-.898-2.656c.125-.215.349-.344.597-.344h18.604c.248,0,.472.128.597.344s.126.473-.014.719l-.455.938H2.57l-.47-.967c-.124-.216-.123-.474.002-.689Zm19.803,21.338c-.127.217-.344.342-.596.342H2.691c-.252,0-.469-.125-.596-.342-.125-.215-.126-.473.012-.718l.465-.963h18.856l.48.993c.122.216.121.474-.004.689Z"/>
</svg>
