<?xml version="1.0" encoding="UTF-8"?>
<svg xmlns="http://www.w3.org/2000/svg" id="Layer_1" data-name="Layer 1" viewBox="0 0 24 24">
  <path d="m21,6h-2V2h.5c.276,0,.5-.224.5-.5s-.224-.5-.5-.5H.5c-.276,0-.5.224-.5.5s.224.5.5.5h.5v16.5c0,2.481,2.019,4.5,4.5,4.5h9c2.481,0,4.5-2.019,4.5-4.5v-2.5h2c1.654,0,3-1.346,3-3v-4c0-1.654-1.346-3-3-3Zm-3,12.5c0,1.93-1.57,3.5-3.5,3.5H5.5c-1.93,0-3.5-1.57-3.5-3.5V2h16v16.5Zm5-5.5c0,1.103-.897,2-2,2h-2V7h2c1.103,0,2,.897,2,2v4Zm-8.5-7.5v13c0,.276-.224.5-.5.5s-.5-.224-.5-.5V5.5c0-.276.224-.5.5-.5s.5.224.5.5Zm-4,0v13c0,.276-.224.5-.5.5s-.5-.224-.5-.5V5.5c0-.276.224-.5.5-.5s.5.224.5.5Zm-4,0v13c0,.276-.224.5-.5.5s-.5-.224-.5-.5V5.5c0-.276.224-.5.5-.5s.5.224.5.5Z"/>
</svg>
