<?xml version="1.0" encoding="UTF-8"?>
<svg xmlns="http://www.w3.org/2000/svg" id="Layer_1" data-name="Layer 1" viewBox="0 0 24 24">
  <path d="m19.5,3H4.5C2.019,3,0,5.019,0,7.5v9c0,2.481,2.019,4.5,4.5,4.5h15c2.481,0,4.5-2.019,4.5-4.5V7.5c0-2.481-2.019-4.5-4.5-4.5Zm3.5,13.5c0,1.93-1.57,3.5-3.5,3.5H4.5c-1.93,0-3.5-1.57-3.5-3.5V7.5c0-1.93,1.57-3.5,3.5-3.5h15c1.93,0,3.5,1.57,3.5,3.5v9Zm-2-9c0,.276-.224.5-.5.5h-5c-.276,0-.5-.224-.5-.5s.224-.5.5-.5h5c.276,0,.5.224.5.5Zm0,3c0,.276-.224.5-.5.5h-5c-.276,0-.5-.224-.5-.5s.224-.5.5-.5h5c.276,0,.5.224.5.5Zm0,3c0,.276-.224.5-.5.5h-5c-.276,0-.5-.224-.5-.5s.224-.5.5-.5h5c.276,0,.5.224.5.5Zm-2,3c0,.276-.224.5-.5.5h-3c-.276,0-.5-.224-.5-.5s.224-.5.5-.5h3c.276,0,.5.224.5.5Zm-7.251-6.5h-1.898l-.681-1.91c-.181-.486-.652-.812-1.171-.812s-.99.326-1.174.819l-.678,1.903h-1.898c-.522,0-.994.329-1.173.818-.18.49-.034,1.047.373,1.391l1.521,1.237-.605,1.938c-.158.505.02,1.058.443,1.376.217.163.477.249.75.249.249,0,.489-.073.695-.211l1.757-1.176,1.789,1.165c.443.288,1.023.265,1.444-.058.421-.323.591-.879.425-1.382l-.627-1.908,1.515-1.234c.4-.337.548-.894.369-1.384-.179-.492-.651-.822-1.174-.822Zm.167,1.437l-1.774,1.445c-.16.131-.224.347-.159.544l.734,2.236c.033.101,0,.211-.084.275-.084.064-.201.068-.289.013l-2.065-1.346c-.168-.108-.385-.107-.551.003l-2.032,1.36c-.072.049-.163.085-.288-.007-.085-.064-.121-.176-.089-.277l.706-2.262c.061-.195-.003-.408-.162-.537l-1.775-1.445c-.08-.067-.109-.178-.073-.275.036-.099.13-.164.235-.164h2.25c.211,0,.4-.133.471-.332l.793-2.229c.072-.193.4-.187.466-.007l.796,2.235c.071.199.26.332.471.332h2.25c.104,0,.199.066.235.165.036.098.006.209-.067.271Z"/>
</svg>
