<?xml version="1.0" encoding="UTF-8"?>
<svg xmlns="http://www.w3.org/2000/svg" id="Layer_1" data-name="Layer 1" viewBox="0 0 24 24">
  <path d="m22.673,8.949l-.673-.669v-.78c0-.955-.387-1.821-1.009-2.453.002-.016.009-.03.009-.047v-.5c0-.815-.397-1.533-1.002-1.989,0-.004.002-.007.002-.011,0-1.379-1.121-2.5-2.5-2.5H6.5c-1.379,0-2.5,1.121-2.5,2.5,0,.004.002.007.002.011-.605.457-1.002,1.174-1.002,1.989v.5c0,.017.008.031.009.047-.623.632-1.009,1.498-1.009,2.453v.78l-.673.669c-.061.061-1.327,1.051-1.327,3.191v7.359c0,2.481,2.019,4.5,4.5,4.5h15c2.481,0,4.5-2.019,4.5-4.5v-7.359c0-2.141-1.266-3.131-1.327-3.191ZM5.5,3h13c.773,0,1.404.59,1.484,1.342-.452-.214-.952-.342-1.484-.342H5.5c-.532,0-1.032.129-1.484.342.08-.752.711-1.342,1.484-1.342Zm1-2h11c.667,0,1.226.44,1.421,1.043-.138-.024-.277-.043-.421-.043H5.5c-.144,0-.284.019-.421.043.195-.603.754-1.043,1.421-1.043Zm-1,4h13c1.379,0,2.5,1.121,2.5,2.5v2.95l-6.525,6.525c-1.322,1.322-3.627,1.322-4.949,0l-6.525-6.525v-2.949c0-1.379,1.121-2.5,2.5-2.5Zm17.5,14.5c0,1.93-1.57,3.5-3.5,3.5H4.5c-1.93,0-3.5-1.57-3.5-3.5v-7.359c0-.638.181-1.244.499-1.778l7.319,7.319c.85.851,1.979,1.318,3.182,1.318s2.332-.468,3.182-1.318l7.32-7.319c.317.534.499,1.14.499,1.778v7.359Zm-6-11.5c0-.553.447-1,1-1s1,.447,1,1-.447,1-1,1-1-.447-1-1Zm-5,7c1.93,0,3.5-1.57,3.5-3.5s-1.57-3.5-3.5-3.5-3.5,1.57-3.5,3.5,1.57,3.5,3.5,3.5Zm0-6c1.379,0,2.5,1.121,2.5,2.5s-1.121,2.5-2.5,2.5-2.5-1.121-2.5-2.5,1.121-2.5,2.5-2.5Zm-7-1c0-.553.447-1,1-1s1,.447,1,1-.447,1-1,1-1-.447-1-1Z"/>
</svg>
