<?xml version="1.0" encoding="UTF-8"?>
<svg xmlns="http://www.w3.org/2000/svg" id="Layer_1" data-name="Layer 1" viewBox="0 0 24 24">
  <path d="m23.854,23.854c-.098.098-.226.146-.354.146s-.256-.049-.354-.146l-6.449-6.449c-1.775,1.607-4.12,2.596-6.697,2.596C4.486,20,0,15.514,0,10S4.486,0,10,0c2.247,0,4.369.728,6.139,2.105.218.169.257.484.087.702s-.484.257-.702.087c-1.591-1.239-3.501-1.894-5.523-1.894C5.037,1,1,5.038,1,10c0,1.654.456,3.201,1.239,4.534l4.716-5.585c.259-.306.637-.491,1.036-.508.399-.018.792.135,1.076.419l2.07,2.07c.087.086.206.126.324.127.122-.004.233-.058.312-.149L21.123.172c.181-.208.496-.23.705-.049.208.181.23.497.049.705l-9.348,10.737c-.259.299-.636.479-1.032.492-.395.016-.785-.139-1.066-.419l-2.07-2.071c-.088-.088-.198-.132-.327-.127-.123.005-.234.06-.314.154l-4.892,5.815c1.644,2.175,4.242,3.59,7.173,3.59,4.963,0,9-4.038,9-9,0-.805-.105-1.602-.314-2.369-.072-.267.085-.541.352-.614.271-.073.541.085.613.351.232.852.35,1.737.35,2.631,0,2.577-.989,4.922-2.596,6.697l6.449,6.449c.195.195.195.512,0,.707Z"/>
</svg>
