<?xml version="1.0" encoding="UTF-8"?>
<svg xmlns="http://www.w3.org/2000/svg" id="Layer_1" data-name="Layer 1" viewBox="0 0 24 24">
  <path d="m23.629,7.007c-.279-.333-.687-.538-1.119-.563-.999-.06-2.87-.355-3.882-1.366l2.225-2.225c.195-.195.195-.512,0-.707s-.512-.195-.707,0l-2.224,2.224-2.581-2.59c-.501-.503-1.168-.78-1.878-.781-.752-.002-1.377.275-1.879.777l-1.808,1.808c-1.033,1.033-1.034,2.714-.003,3.75l2.588,2.597L.146,22.146c-.195.195-.195.512,0,.707.098.098.226.146.354.146s.256-.049.354-.146l12.214-12.214c1.002,1.002,1.305,2.878,1.37,3.881.028.437.229.831.565,1.111.286.238.648.368,1.017.368.06,0,.12-.003.179-.01,4.241-.487,7.299-3.542,7.791-7.783.05-.43-.081-.867-.36-1.199Zm-.633,1.084c-.443,3.82-3.091,6.465-6.912,6.905-.162.016-.317-.029-.441-.132-.124-.103-.198-.248-.208-.408-.09-1.396-.444-3.307-1.616-4.479l-3.337-3.349c-.643-.645-.642-1.693.002-2.336l1.808-1.808c.312-.312.728-.484,1.169-.484h.001c.443,0,.858.173,1.171.487l3.332,3.343h0c1.183,1.183,3.092,1.53,4.485,1.613.162.01.308.083.413.208.104.124.151.281.132.441Z"/>
</svg>
