<?xml version="1.0" encoding="UTF-8"?>
<svg xmlns="http://www.w3.org/2000/svg" id="Layer_1" data-name="Layer 1" viewBox="0 0 24 24">
  <path d="m.995,15.001c.325.05.544-.147.596-.381.442-2.005,1.154-5.238,1.587-7.197.641,2.623,3.005,4.577,5.823,4.577,1.645,0,3.235-.687,4.364-1.883.189-.2.18-.517-.021-.706-.201-.19-.517-.181-.707.021-.954,1.012-2.246,1.568-3.636,1.568-2.415,0-4.435-1.722-4.899-4.002h.914c3.161-.094,5.87-2.207,6.803-5.19,1.267.803,2.209,2.165,2.635,3.946.032.135.496,2.233.963,4.353.059.27.324.437.596.381.27-.06.44-.326.381-.596-.469-2.129-.935-4.235-.967-4.37-.813-3.406-3.275-5.522-6.425-5.522-.315,0-.621.032-.923.079C5.377.454,3.306,2.459,2.575,5.521c-.066.278-1.884,8.532-1.961,8.884-.06.27.111.536.381.596ZM9,1c.682,0,1.325.123,1.918.35-.756,2.666-3.142,4.565-5.918,4.647h-.999c0-2.755,2.244-4.997,5-4.997Zm1,13.5c0,.276-.224.5-.5.5-4.607,0-8.5,3.778-8.5,8.25v.25c0,.276-.224.5-.5.5s-.5-.224-.5-.5v-.25c0-5.014,4.351-9.25,9.5-9.25.276,0,.5.224.5.5Zm12.735.992c-.235-.591-.773-1-1.405-1.069l-3.33-.37v-1.553c0-.276-.224-.5-.5-.5s-.5.224-.5.5v1.441l-3.171-.353c-.69-.076-1.329.319-1.571.964,0,0-1.258,3.388-1.258,3.447,0,1.103.897,2,2,2s2-.897,2-2c0-.06-1.246-3.413-1.246-3.413l3.246.361v8.052h-2.5c-.276,0-.5.224-.5.5s.224.5.5.5h6c.276,0,.5-.224.5-.5s-.224-.5-.5-.5h-2.5v-7.941l3.221.358c.028.003.056.008.083.014,0,0-1.304,3.51-1.304,3.569,0,1.103.897,2,2,2s2-.897,2-2c0-.138,0-.326-1.265-3.508Zm-8.77,2.508h-1.932l.966-2.576.966,2.576Zm7.068,1l.98-2.613c.883,2.24.979,2.611.986,2.613h-1.966Z"/>
</svg>
