<?xml version="1.0" encoding="UTF-8"?>
<svg xmlns="http://www.w3.org/2000/svg" id="Layer_1" data-name="Layer 1" viewBox="0 0 24 24">
  <path d="m0,9.5c0-.276.224-.5.5-.5h5c.276,0,.5.224.5.5s-.224.5-.5.5H.5c-.276,0-.5-.224-.5-.5Zm24,1v5c0,1.496-.944,2.776-2.268,3.276.176.384.268.798.268,1.224,0,1.654-1.346,3-3,3s-3-1.346-3-3c0-.344.06-.681.176-1H7.824c.116.319.176.656.176,1,0,1.654-1.346,3-3,3s-3-1.346-3-3c0-.426.092-.84.268-1.224-1.324-.5-2.268-1.78-2.268-3.276v-3c0-.276.224-.5.5-.5s.5.224.5.5v3c0,1.378,1.121,2.5,2.5,2.5h12.5V5.5c0-1.93-1.57-3.5-3.5-3.5-.276,0-.5-.224-.5-.5s.224-.5.5-.5c2.481,0,4.5,2.019,4.5,4.5v.5h2.5c2.481,0,4.5,2.019,4.5,4.5Zm-7-3.5v5h6v-1.5c0-1.93-1.57-3.5-3.5-3.5h-2.5Zm-10.277,12h-3.223c-.073,0-.146-.003-.219-.007-.185.309-.281.652-.281,1.007,0,1.103.897,2,2,2s2-.897,2-2c0-.352-.095-.693-.277-1Zm13.996-.007c-.072.005-.145.007-.219.007h-3.223c-.182.307-.277.648-.277,1,0,1.103.897,2,2,2s2-.897,2-2c0-.355-.097-.698-.281-1.007Zm2.281-3.493v-2.5h-6v5h3.5c1.379,0,2.5-1.122,2.5-2.5ZM.5,2h9c.276,0,.5-.224.5-.5s-.224-.5-.5-.5H.5c-.276,0-.5.224-.5.5s.224.5.5.5Zm0,4h7c.276,0,.5-.224.5-.5s-.224-.5-.5-.5H.5c-.276,0-.5.224-.5.5s.224.5.5.5Z"/>
</svg>
