<?xml version="1.0" encoding="UTF-8"?>
<svg xmlns="http://www.w3.org/2000/svg" id="Layer_1" data-name="Layer 1" viewBox="0 0 24 24">
  <path d="m23,12.5c0-.827-.673-1.5-1.5-1.5h-1c-.276,0-.5-.224-.5-.5s.224-.5.5-.5h.282c.827,0,1.5-.673,1.5-1.5s-.673-1.5-1.5-1.5h-2.282c-.276,0-.5-.224-.5-.5s.224-.5.5-.5h2.282c1.378,0,2.5,1.121,2.5,2.5,0,.677-.271,1.292-.709,1.742.843.402,1.427,1.263,1.427,2.258,0,1.379-1.122,2.5-2.5,2.5h-3c-.276,0-.5-.224-.5-.5s.224-.5.5-.5h3c.827,0,1.5-.673,1.5-1.5Zm1,7.5v1c0,1.654-1.346,3-3,3H3c-1.654,0-3-1.346-3-3v-4c0-1.654,1.346-3,3-3h2.5c.768,0,1.469.29,2,.766v-.766c0-1.654,1.346-3,3-3h3c1.654,0,3,1.346,3,3v3.766c.531-.476,1.232-.766,2-.766h2.5c1.654,0,3,1.346,3,3Zm-15.5,3h7v-9c0-1.103-.897-2-2-2h-3c-1.103,0-2,.897-2,2v9Zm-5.5,0h4.5v-6c0-1.103-.897-2-2-2h-2.5c-1.103,0-2,.897-2,2v4c0,1.103.897,2,2,2Zm20-3c0-1.103-.897-2-2-2h-2.5c-1.103,0-2,.897-2,2v3h4.5c1.103,0,2-.897,2-2v-1ZM10.361,2.847l1.639-1.708v7.361c0,.276.224.5.5.5s.5-.224.5-.5V1c0-.383-.229-.726-.583-.872-.355-.147-.758-.066-1.037.211l-1.742,1.814c-.191.199-.185.517.015.707.198.192.516.185.707-.014ZM2.282,8.592c-.67.394-1.302.766-1.801,1.217-.437.394-.589.91-.408,1.38.192.501.71.812,1.352.812h4.075c.276,0,.5-.224.5-.5s-.224-.5-.5-.5H1.425c-.232,0-.386-.086-.419-.17-.026-.068.029-.175.145-.279.423-.384,1.013-.729,1.637-1.097,1.505-.884,3.211-1.887,3.211-3.849,0-1.559-1.54-2.605-2.978-2.605S.288,4.032.01,5.4c-.055.271.12.535.391.59.269.055.534-.12.589-.391.185-.912,1.059-1.6,2.032-1.6.936,0,1.978.659,1.978,1.605,0,1.39-1.32,2.166-2.718,2.986Z"/>
</svg>
