<?xml version="1.0" encoding="UTF-8"?>
<svg xmlns="http://www.w3.org/2000/svg" id="Layer_1" data-name="Layer 1" viewBox="0 0 24 24">
  <path d="m19.5,2h-1.5V.5c0-.276-.224-.5-.5-.5s-.5.224-.5.5v1.5H7V.5c0-.276-.224-.5-.5-.5s-.5.224-.5.5v1.5h-1.5C2.019,2,0,4.019,0,6.5v13c0,2.481,2.019,4.5,4.5,4.5h11c.276,0,.5-.224.5-.5s-.224-.5-.5-.5H4.5c-1.93,0-3.5-1.57-3.5-3.5v-10.5h22v2.5c0,.276.224.5.5.5s.5-.224.5-.5v-5c0-2.481-2.019-4.5-4.5-4.5ZM1,8v-1.5c0-1.93,1.57-3.5,3.5-3.5h15c1.93,0,3.5,1.57,3.5,3.5v1.5H1Zm17,8.395c0,.685.49,1.264,1.165,1.376l2.834.473c1.159.193,2.001,1.187,2.001,2.362,0,1.32-1.074,2.395-2.395,2.395h-.605v.5c0,.276-.224.5-.5.5s-.5-.224-.5-.5v-.5h-.5c-1.379,0-2.5-1.121-2.5-2.5,0-.276.224-.5.5-.5s.5.224.5.5c0,.827.673,1.5,1.5,1.5h2.105c.769,0,1.395-.626,1.395-1.395,0-.685-.49-1.264-1.165-1.376l-2.834-.473c-1.159-.193-2.001-1.187-2.001-2.362,0-1.32,1.074-2.395,2.395-2.395h.605v-.5c0-.276.224-.5.5-.5s.5.224.5.5v.5h.5c1.379,0,2.5,1.121,2.5,2.5,0,.276-.224.5-.5.5s-.5-.224-.5-.5c0-.827-.673-1.5-1.5-1.5h-2.105c-.769,0-1.395.626-1.395,1.395Z"/>
</svg>
