<?xml version="1.0" encoding="UTF-8"?>
<svg xmlns="http://www.w3.org/2000/svg" id="Layer_1" data-name="Layer 1" viewBox="0 0 24 24">
  <path d="m23.717,4.84c-.338-.526-.911-.84-1.532-.84h-3.891c1.032-.825,1.706-2.079,1.706-3.5,0-.276-.224-.5-.5-.5s-.5.224-.5.5c0,1.93-1.57,3.5-3.5,3.5h-7c-1.93,0-3.5-1.57-3.5-3.5,0-.276-.224-.5-.5-.5s-.5.224-.5.5c0,1.421.675,2.675,1.706,3.5H1.815c-.621,0-1.194.314-1.532.84-.325.506-.372,1.129-.126,1.668.567,1.24,1.802,2.478,3.354,3.091,0,0,0,.002,0,.002l2.499,11.996c.053,1.332,1.145,2.402,2.49,2.402h7c1.345,0,2.437-1.07,2.49-2.402l2.499-11.996s0-.002,0-.002c1.552-.613,2.786-1.852,3.354-3.091.246-.539.199-1.163-.126-1.668Zm-8.217,14.16h-.5v-5.5c0-.346.066-.674.16-.99.176.288.478.49.84.49.552,0,1-.448,1-1,0-.536-.424-.965-.953-.991.632-.623,1.498-1.009,2.453-1.009.307,0,.608-.027.902-.079l-2.062,9.899c-.457-.501-1.109-.821-1.839-.821Zm3-10c-2.481,0-4.5,2.019-4.5,4.5v5.5h-4v-5.5c0-2.481-2.019-4.5-4.5-4.5-.241,0-.479-.024-.712-.064.469-.951,1.507-2.65,3.372-3.936h7.685c2.81,1.898,3.336,3.115,3.516,3.901-.281.059-.567.099-.86.099Zm-10,10c-.73,0-1.382.32-1.839.821l-2.062-9.899c.294.051.595.079.902.079.955,0,1.821.387,2.453,1.009-.529.026-.953.455-.953.991,0,.552.448,1,1,1,.362,0,.664-.202.84-.49.094.316.16.644.16.99v5.5h-.5ZM1.067,6.092c-.106-.231-.085-.491.058-.712.152-.238.411-.38.69-.38h4.727c-1.491,1.326-2.33,2.797-2.726,3.642-1.27-.525-2.294-1.554-2.749-2.55Zm14.433,16.908h-7c-.827,0-1.5-.673-1.5-1.5s.673-1.5,1.5-1.5h7c.827,0,1.5.673,1.5,1.5s-.673,1.5-1.5,1.5Zm7.433-16.908c-.44.962-1.41,1.953-2.619,2.493-.195-.811-.699-1.972-2.763-3.585h4.634c.279,0,.538.142.69.38.143.221.164.481.058.712Z"/>
</svg>
