<?xml version="1.0" encoding="UTF-8"?>
<svg xmlns="http://www.w3.org/2000/svg" id="Layer_1" data-name="Layer 1" viewBox="0 0 24 24">
  <path d="m22.118,5c-.51,0-.978-.3-1.19-.764-.345-.751-1.157-1.236-2.07-1.236h-.858V.941c0-.3-.144-.588-.386-.77-.236-.177-.531-.232-.81-.153-1.046.302-1.805,1.346-1.805,2.481v1.756l-.994,2.754c-.214.593-.781.991-1.411.991l-5.101.003c-1.707,0-3.234.784-4.243,2.008-.393-.233-2.255-1.498-2.255-4.512,0-.276-.224-.5-.5-.5S-.003,5.224-.003,5.5C-.003,8.91,2.041,10.44,2.688,10.839c-.439.79-.69,1.699-.69,2.665l.002,8.002c0,1.377,1.122,2.498,2.499,2.498s2.499-1.121,2.499-2.499v-3.506l7.003-.003v3.505c0,1.378,1.121,2.499,2.505,2.499s2.499-1.121,2.499-2.499l-.008-3.411,1.23-6.681c.044-.237.25-.409.492-.409,1.81,0,3.283-1.473,3.283-3.283v-.717c0-1.467-1.125-2-1.882-2Zm.882,2.717c0,1.259-1.024,2.283-2.283,2.283-.724,0-1.344.517-1.475,1.229l-1.239,6.771v3.501c0,.826-.672,1.499-1.505,1.499-.826,0-1.499-.672-1.499-1.499v-4.006c0-.133-.053-.26-.146-.354s-.221-.146-.354-.146h0l-8.003.004c-.276,0-.5.224-.5.5v4.006c0,.826-.672,1.499-1.499,1.499s-1.498-.672-1.499-1.498l-.002-8.002c0-2.48,2.017-4.5,4.498-4.501l5.101-.003c1.049,0,1.994-.664,2.351-1.651l1.023-2.836c.02-.055.03-.112.03-.17v-1.843c0-.689.465-1.342,1-1.559v2.559c0,.276.224.5.5.5h1.358c.515,0,.981.262,1.161.652.375.819,1.199,1.348,2.099,1.348.147,0,.882.048.882,1v.717Z"/>
</svg>
