<?xml version="1.0" encoding="UTF-8"?>
<svg xmlns="http://www.w3.org/2000/svg" id="Layer_1" data-name="Layer 1" viewBox="0 0 24 24">
  <path d="m19.413,12.342l-3.313-.918c-.647-.179-1.1-.774-1.1-1.446v-5.029c1.14-.232,2-1.242,2-2.45,0-1.378-1.121-2.5-2.5-2.5H2.5C1.121,0,0,1.122,0,2.5c0,1.207.86,2.217,2,2.45v18.55c0,.276.224.5.5.5s.5-.224.5-.5v-1.5h3v1.5c0,.276.224.5.5.5s.5-.224.5-.5v-1.5h3v1.5c0,.276.224.5.5.5s.5-.224.5-.5v-1.5h4v1.5c0,.276.224.5.5.5s.5-.224.5-.5v-1.5h3v1.5c0,.276.224.5.5.5s.5-.224.5-.5v-1.5h3v1.5c0,.276.224.5.5.5s.5-.224.5-.5v-5.528c0-2.731-1.944-5.103-4.587-5.63ZM1,2.5c0-.827.673-1.5,1.5-1.5h12c.827,0,1.5.673,1.5,1.5s-.673,1.5-1.5,1.5H2.5c-.827,0-1.5-.673-1.5-1.5Zm2,18.5V5h11v3h-4.5c-.276,0-.5.224-.5.5s.224.5.5.5h4.5v.979c0,.36.078.707.22,1.021h-4.72c-.276,0-.5.224-.5.5s.224.5.5.5h5.5c.01,0,.019,0,.029-.001.238.174.508.308.803.39l3.35.926c2.212.442,3.818,2.401,3.818,4.658v3.028H3Z"/>
</svg>
