<?xml version="1.0" encoding="UTF-8"?>
<svg xmlns="http://www.w3.org/2000/svg" id="Layer_1" data-name="Layer 1" viewBox="0 0 24 24">
  <path d="m16.502,6.04c.322-.195.631-.429.912-.709,1.101-1.102,1.465-2.62,1.578-3.7.046-.443-.109-.879-.426-1.196s-.748-.466-1.196-.426c-1.08.112-2.599.477-3.7,1.578-.732.732-1.145,1.656-1.378,2.507-.355-2.003-1.068-3.31-1.353-3.831-.133-.243-.437-.332-.678-.2-.243.132-.332.436-.2.678.336.617,1.321,2.424,1.429,5.255h-3.149C3.742,5.994,0,10.034,0,15s3.742,9,8.341,9c.956,0,1.636-.308,2.236-.579.199-.09.394-.179.594-.251.328-.12.516-.169.829-.169s.501.05.829.169c.201.073.395.162.594.252.6.271,1.28.579,2.236.579,4.599,0,8.341-4.038,8.341-9,0-4.659-3.293-8.502-7.498-8.96Zm-2.126-3.747c.894-.894,2.226-1.197,3.146-1.292.125,0,.246.05.337.141.103.103.153.244.139.386h0c-.095.919-.396,2.203-1.29,3.097-1.111,1.111-2.862,1.33-3.7,1.369.039-.838.258-2.589,1.369-3.7Zm1.283,20.708c-.74,0-1.266-.238-1.824-.49-.223-.101-.44-.199-.665-.28-.41-.149-.717-.229-1.171-.229s-.761.081-1.171.229c-.224.081-.442.179-.665.28-.558.252-1.083.49-1.824.49-4.048,0-7.341-3.589-7.341-8s3.293-8.006,7.341-8.006h7.318c4.048,0,7.341,3.591,7.341,8.006s-3.293,8-7.341,8Z"/>
</svg>
