<?xml version="1.0" encoding="UTF-8"?>
<svg xmlns="http://www.w3.org/2000/svg" id="Layer_1" data-name="Layer 1" viewBox="0 0 24 24">
  <path d="m12,7.5v5.5c0,2.206-1.794,4-4,4s-4-1.794-4-4v-5.5c0-.276.224-.5.5-.5s.5.224.5.5v5.5c0,1.654,1.346,3,3,3s3-1.346,3-3v-5.5c0-.276.224-.5.5-.5s.5.224.5.5Zm7.743-.437c-.24-.134-.546-.049-.681.194l-2.062,3.713-2.063-3.713c-.136-.243-.44-.328-.681-.194-.241.134-.328.438-.194.68l2.365,4.257-2.365,4.257c-.134.241-.047.545.194.68.077.043.16.063.243.063.175,0,.346-.093.437-.257l2.063-3.713,2.062,3.713c.092.165.263.257.438.257.083,0,.166-.02.243-.063.241-.134.328-.438.194-.68l-2.365-4.257,2.365-4.257c.134-.241.047-.545-.194-.68Zm4.257-2.563v15c0,2.481-2.019,4.5-4.5,4.5H4.5c-2.481,0-4.5-2.019-4.5-4.5V4.5C0,2.019,2.019,0,4.5,0h15c2.481,0,4.5,2.019,4.5,4.5Zm-1,0c0-1.93-1.57-3.5-3.5-3.5H4.5c-1.93,0-3.5,1.57-3.5,3.5v15c0,1.93,1.57,3.5,3.5,3.5h15c1.93,0,3.5-1.57,3.5-3.5V4.5Z"/>
</svg>
