<?xml version="1.0" encoding="UTF-8"?>
<svg xmlns="http://www.w3.org/2000/svg" id="Layer_1" data-name="Layer 1" viewBox="0 0 24 24">
  <path d="m17.926,0c-3.309,0-6,2.691-6,6s2.691,6,6,6,6-2.691,6-6S21.235,0,17.926,0Zm-2.014,10.569c.003-.023.014-.044.014-.069v-.5c0-1.103.897-2,2-2s2,.897,2,2v.5c0,.024.01.045.014.069-.617.273-1.296.431-2.014.431s-1.396-.158-2.014-.431Zm5.011-.592c-.013-1.643-1.351-2.976-2.998-2.976s-2.985,1.333-2.998,2.976c-1.208-.914-2.002-2.348-2.002-3.976,0-2.757,2.243-5,5-5s5,2.243,5,5c0,1.628-.794,3.063-2.002,3.976Zm-2.998-7.976c-1.103,0-2,.897-2,2s.897,2,2,2,2-.897,2-2-.897-2-2-2Zm0,3c-.552,0-1-.448-1-1s.448-1,1-1,1,.448,1,1-.448,1-1,1Zm-2.349,9.444c-.811-.812-2.228-.812-3.04,0l-3.816,3.816c-.858.858-2.238.942-3.078.188-.447-.402-.701-.954-.717-1.552-.016-.599.208-1.162.632-1.585l4.029-4.029c.378-.378.586-.88.586-1.414s-.208-1.036-.586-1.414l-.676-.677h0c-.779-.779-2.048-.779-2.828,0l-3.876,3.876c-2.801,2.802-2.957,7.334-.348,10.104,1.333,1.416,3.136,2.212,5.078,2.241h.11c1.9,0,3.683-.737,5.029-2.084l3.966-3.966c.839-.839.839-2.202,0-3.041l-.465-.464Zm-8.081-6.252c.256,0,.513.098.708.292l.676.677c.189.189.293.44.293.707s-.104.518-.293.707l-.432.432-2.091-2.091.432-.432c.195-.194.452-.292.708-.292Zm3.872,13.016c-1.18,1.18-2.771,1.771-4.418,1.791-1.668-.025-3.218-.71-4.365-1.927-2.242-2.381-2.095-6.289.328-8.712l2.737-2.737,2.091,2.091-2.89,2.89c-.619.619-.948,1.442-.925,2.318.023.875.395,1.681,1.048,2.269,1.248,1.122,3.203,1.026,4.454-.224l2.783-2.784,2.09,2.091-2.933,2.933Zm3.966-3.966l-.326.326-2.09-2.091.326-.326c.436-.433,1.192-.437,1.626,0l.465.464c.448.448.448,1.179,0,1.627Z"/>
</svg>
