<?xml version="1.0" encoding="UTF-8"?>
<svg xmlns="http://www.w3.org/2000/svg" id="Layer_1" data-name="Layer 1" viewBox="0 0 24 24">
  <path d="m10,12c-1.126,0-2.042.916-2.042,2.042v3.915c0,1.126.916,2.042,2.042,2.042s2.042-.916,2.042-2.042v-3.915c0-1.126-.916-2.042-2.042-2.042Zm1.042,5.958c0,.575-.468,1.042-1.042,1.042s-1.042-.468-1.042-1.042v-3.915c0-.575.468-1.042,1.042-1.042s1.042.468,1.042,1.042v3.915Zm7.958-5.958h-1c-.551,0-1,.449-1,1v6c0,.551.449,1,1,1h1c1.103,0,2-.897,2-2v-4c0-1.103-.897-2-2-2Zm1,6c0,.551-.449,1-1,1h-1v-6h1c.551,0,1,.449,1,1v4Zm-13.027.056c-.184,1.127-1.164,1.944-2.33,1.944-.878,0-1.947-.552-2.473-1.085-.194-.197-.192-.513.005-.707.197-.194.513-.192.707.005.414.419,1.236.787,1.761.787.673,0,1.238-.465,1.342-1.105.037-.228.076-1.006-.976-1.432-.112-.042-1.208-.458-1.699-.763-.662-.467-.976-1.174-.88-1.917.104-.784.627-1.422,1.366-1.666.899-.298,1.821-.046,2.736.747.208.181.231.497.05.706-.181.208-.497.231-.706.05-.647-.561-1.207-.738-1.768-.553-.371.122-.634.446-.687.845-.049.379.103.716.428.948.334.204,1.213.554,1.523.67,1.394.563,1.73,1.71,1.599,2.523Zm9.027,1.444c0,.276-.224.5-.5.5h-1c-.827,0-1.5-.673-1.5-1.5v-6c0-.276.224-.5.5-.5s.5.224.5.5v6c0,.276.224.5.5.5h1c.276,0,.5.224.5.5Zm4.5-9.5h-.267l-6.307-7.489c.044-.164.074-.333.074-.511,0-1.103-.897-2-2-2s-2,.897-2,2c0,.21.041.408.101.598l-5.844,7.402h-.757c-1.93,0-3.5,1.57-3.5,3.5v5c0,1.93,1.57,3.5,3.5,3.5h17c1.93,0,3.5-1.57,3.5-3.5v-5c0-1.93-1.57-3.5-3.5-3.5ZM12,1c.551,0,1,.449,1,1s-.449,1-1,1-1-.449-1-1,.449-1,1-1Zm-1.326,2.486c.354.316.815.514,1.326.514.542,0,1.033-.218,1.393-.569l5.532,6.569H5.532l5.142-6.514Zm12.326,15.014c0,1.378-1.122,2.5-2.5,2.5H3.5c-1.378,0-2.5-1.122-2.5-2.5v-5c0-1.378,1.122-2.5,2.5-2.5h17c1.378,0,2.5,1.122,2.5,2.5v5Z"/>
</svg>
