<?xml version="1.0" encoding="UTF-8"?>
<svg xmlns="http://www.w3.org/2000/svg" id="Layer_1" data-name="Layer 1" viewBox="0 0 24 24">
  <path d="m20.2,10h.425c1.861,0,3.375-1.458,3.375-3.25,0-1.285-.536-2.508-1.514-3.442C17.88-1.096,6.12-1.097,1.514,3.308.536,4.243,0,5.465,0,6.75c0,1.792,1.514,3.25,3.375,3.25h.425l-2.192,3.668c-1.052,1.761-1.608,3.778-1.608,5.832,0,2.481,2.019,4.5,4.5,4.5h15c2.481,0,4.5-2.019,4.5-4.5,0-2.054-.557-4.07-1.608-5.832l-2.192-3.668ZM1,6.75c0-1.009.427-1.975,1.205-2.719C6.416.003,17.584.003,21.795,4.031c.778.744,1.206,1.709,1.205,2.719,0,1.241-1.065,2.25-2.375,2.25h-1.03l-.97-1.547c-.381-.605-.924-1.076-1.571-1.361-1.13-.498-2.923-1.092-5.054-1.092s-3.924.594-5.053,1.092c-.648.285-1.191.756-1.572,1.361l-.97,1.547h-1.03c-1.31,0-2.375-1.009-2.375-2.25Zm18.5,16.25H4.5c-1.93,0-3.5-1.57-3.5-3.5,0-1.873.508-3.712,1.468-5.319l2.644-4.425s0,0,0,0l1.111-1.771c.273-.436.663-.773,1.128-.978,1.041-.459,2.693-1.007,4.649-1.007s3.608.547,4.65,1.007c.464.205.854.542,1.127.978l1.111,1.772s0,0,0,0l2.644,4.425c.96,1.606,1.468,3.446,1.468,5.319,0,1.93-1.57,3.5-3.5,3.5Zm-7.5-14c-3.309,0-6,2.691-6,6s2.691,6,6,6,6-2.691,6-6-2.691-6-6-6Zm0,11c-2.757,0-5-2.243-5-5s2.243-5,5-5,5,2.243,5,5-2.243,5-5,5Zm0-7c-1.103,0-2,.897-2,2s.897,2,2,2,2-.897,2-2-.897-2-2-2Zm0,3c-.552,0-1-.449-1-1s.448-1,1-1,1,.449,1,1-.448,1-1,1Z"/>
</svg>
