<?xml version="1.0" encoding="UTF-8"?>
<svg xmlns="http://www.w3.org/2000/svg" id="Layer_1" data-name="Layer 1" viewBox="0 0 24 24">
  <path d="m19.5,4H6v-1.5c0-1.378-1.121-2.5-2.5-2.5h-.5C1.346,0,0,1.346,0,3v18.077c0,1.692,1.327,2.923,3.143,2.923h16.357c2.481,0,4.5-2.019,4.5-4.5v-11c0-2.481-2.019-4.5-4.5-4.5ZM1,3c0-1.103.897-2,2-2h.5c.827,0,1.5.673,1.5,1.5v14c0,.827-.673,1.5-1.5,1.5h-.5c-.74,0-1.453.275-2,.764V3Zm22,16.5c0,1.933-1.567,3.5-3.5,3.5H3c-1.105,0-2-.895-2-2s.895-2,2-2h.5c1.381,0,2.5-1.119,2.5-2.5V5h13.5c1.933,0,3.5,1.567,3.5,3.5v11Z"/>
  <path d="m21,8.5v11c0,.827-.673,1.5-1.5,1.5h-10c-.827,0-1.5-.673-1.5-1.5v-11c0-.827.673-1.5,1.5-1.5h1c.276,0,.5.224.5.5s-.224.5-.5.5h-1c-.275,0-.5.224-.5.5v2.5h1.5c.276,0,.5.224.5.5s-.224.5-.5.5h-1.5v7.5c0,.276.225.5.5.5h4.5v-5h-1.5c-.276,0-.5-.224-.5-.5s.224-.5.5-.5h4c.276,0,.5.224.5.5s-.224.5-.5.5h-1.5v5h4.5c.275,0,.5-.224.5-.5v-11c0-.276-.225-.5-.5-.5h-4c-.275,0-.5.224-.5.5v2c0,.276-.224.5-.5.5s-.5-.224-.5-.5v-2c0-.827.673-1.5,1.5-1.5h4c.827,0,1.5.673,1.5,1.5Z"/>
</svg>
