<?xml version="1.0" encoding="UTF-8"?>
<svg xmlns="http://www.w3.org/2000/svg" id="Layer_1" data-name="Layer 1" viewBox="0 0 24 24">
  <path d="m22.973,1.024c-.756-.755-1.798-1.114-2.867-1.003C14.881.599,7.76,2.292,4.889,5.164c-3.726,3.726-3.83,9.709-.336,13.576L.146,23.146c-.195.195-.195.512,0,.707.098.098.226.146.354.146s.256-.049.354-.146l4.407-4.407c1.872,1.692,4.234,2.548,6.602,2.548,2.525,0,5.051-.961,6.974-2.884,3.724-3.724,4.938-13.336,5.143-15.225.116-1.064-.251-2.108-1.006-2.862Zm-4.844,17.38c-3.336,3.336-8.686,3.441-12.162.336l9.886-9.886c.195-.195.195-.512,0-.707s-.512-.195-.707,0l-9.886,9.886c-3.106-3.476-3.001-8.826.336-12.162,2.875-2.875,10.824-4.42,14.901-4.871.663,0,1.295.259,1.769.732.54.539.802,1.285.719,2.046-.55,5.057-2.151,11.922-4.856,14.626Z"/>
</svg>
