<?xml version="1.0" encoding="UTF-8"?>
<svg xmlns="http://www.w3.org/2000/svg" id="Layer_1" data-name="Layer 1" viewBox="0 0 24 24">
  <path d="m12,0C5.383,0,0,5.383,0,12s5.383,12,12,12,12-5.383,12-12S18.617,0,12,0Zm1,22.954v-.954c0-.552-.448-1-1-1s-1,.448-1,1v.954c-5.599-.507-10-5.226-10-10.954S5.401,1.553,11,1.046v.954c0,.552.448,1,1,1s1-.448,1-1v-.954c5.599.507,10,5.226,10,10.954s-4.401,10.447-10,10.954ZM3,10.5c0-.276.224-.5.5-.5h17c.276,0,.5.224.5.5s-.224.5-.5.5H3.5c-.276,0-.5-.224-.5-.5Zm18,3c0,.276-.224.5-.5.5H3.5c-.276,0-.5-.224-.5-.5s.224-.5.5-.5h17c.276,0,.5.224.5.5ZM4,7.5c0-.276.224-.5.5-.5h15c.276,0,.5.224.5.5s-.224.5-.5.5H4.5c-.276,0-.5-.224-.5-.5Zm3-3c0-.276.224-.5.5-.5h9c.276,0,.5.224.5.5s-.224.5-.5.5H7.5c-.276,0-.5-.224-.5-.5Zm13,12c0,.276-.224.5-.5.5H4.5c-.276,0-.5-.224-.5-.5s.224-.5.5-.5h15c.276,0,.5.224.5.5Zm-3,3c0,.276-.224.5-.5.5H7.5c-.276,0-.5-.224-.5-.5s.224-.5.5-.5h9c.276,0,.5.224.5.5Z"/>
</svg>
