<?xml version="1.0" encoding="UTF-8"?>
<svg xmlns="http://www.w3.org/2000/svg" id="Layer_1" data-name="Layer 1" viewBox="0 0 24 24">
  <path d="m24,11.501v7.999c0,2.481-2.019,4.5-4.5,4.5H2.5c-.276,0-.5-.224-.5-.5s.224-.5.5-.5h17c1.93,0,3.5-1.57,3.5-3.5v-7.999c0-.935-.364-1.814-1.025-2.475s-1.54-1.025-2.475-1.025h0l-18.401.004c.072.204.179.398.342.561l4.596,4.596c.195.195.195.512,0,.707-.098.098-.226.146-.354.146s-.256-.049-.354-.146L.732,9.273C.249,8.789.006,8.155.003,7.519c0-.005-.003-.009-.003-.014,0-.005.003-.009.003-.014.003-.636.246-1.271.73-1.754L5.329,1.141c.195-.195.512-.195.707,0s.195.512,0,.707L1.439,6.444c-.163.163-.269.357-.342.561l18.401-.004h0c1.202,0,2.332.468,3.182,1.318.851.85,1.318,1.98,1.318,3.182Z"/>
</svg>
