<?xml version="1.0" encoding="UTF-8"?>
<svg xmlns="http://www.w3.org/2000/svg" id="Layer_1" data-name="Layer 1" viewBox="0 0 24 24">
  <path d="m7,13.5c0-.276.224-.5.5-.5h9c.276,0,.5.224.5.5s-.224.5-.5.5H7.5c-.276,0-.5-.224-.5-.5Zm0-8v-3c0-1.378,1.122-2.5,2.5-2.5h5c1.378,0,2.5,1.122,2.5,2.5v3c0,1.378-1.122,2.5-2.5,2.5-.116,0-.369.041-.458.115l-1.375,1.138c-.186.165-.423.248-.663.248-.244,0-.489-.086-.684-.259l-1.362-1.127c-.089-.074-.342-.115-.458-.115-1.378,0-2.5-1.122-2.5-2.5Zm1,0c0,.827.673,1.5,1.5,1.5.349,0,.828.123,1.096.344l1.375,1.138,1.433-1.138c.268-.222.748-.344,1.096-.344.827,0,1.5-.673,1.5-1.5v-3c0-.827-.673-1.5-1.5-1.5h-5c-.827,0-1.5.673-1.5,1.5v3Zm11,1c0-1.378,1.122-2.5,2.5-2.5s2.5,1.122,2.5,2.5-1.122,2.5-2.5,2.5-2.5-1.122-2.5-2.5Zm1,0c0,.827.673,1.5,1.5,1.5s1.5-.673,1.5-1.5-.673-1.5-1.5-1.5-1.5.673-1.5,1.5Zm3.5,14.5h-3c-.827,0-1.5.673-1.5,1.5v1c0,.276.224.5.5.5s.5-.224.5-.5v-1c0-.276.224-.5.5-.5h3c.276,0,.5-.224.5-.5s-.224-.5-.5-.5Zm.5-8.5v4c0,1.378-1.122,2.5-2.5,2.5h-3.5c-.551,0-1,.449-1,1v3.5c0,.276-.224.5-.5.5s-.5-.224-.5-.5v-3.5c0-1.103.897-2,2-2h1v-5.5c0-1.378,1.122-2.5,2.5-2.5s2.5,1.122,2.5,2.5Zm-1,0c0-.827-.673-1.5-1.5-1.5s-1.5.673-1.5,1.5v5.5h1.5c.827,0,1.5-.673,1.5-1.5v-4ZM3.5,21H.5c-.276,0-.5.224-.5.5s.224.5.5.5h3c.276,0,.5.224.5.5v1c0,.276.224.5.5.5s.5-.224.5-.5v-1c0-.827-.673-1.5-1.5-1.5ZM0,6.5c0-1.378,1.122-2.5,2.5-2.5s2.5,1.122,2.5,2.5-1.122,2.5-2.5,2.5S0,7.878,0,6.5Zm1,0c0,.827.673,1.5,1.5,1.5s1.5-.673,1.5-1.5-.673-1.5-1.5-1.5-1.5.673-1.5,1.5Zm7,13.5v3.5c0,.276-.224.5-.5.5s-.5-.224-.5-.5v-3.5c0-.551-.449-1-1-1h-3.5c-1.378,0-2.5-1.122-2.5-2.5v-4c0-1.378,1.122-2.5,2.5-2.5s2.5,1.122,2.5,2.5v5.5h1c1.103,0,2,.897,2,2Zm-4-7.5c0-.827-.673-1.5-1.5-1.5s-1.5.673-1.5,1.5v4c0,.827.673,1.5,1.5,1.5h1.5v-5.5Z"/>
</svg>
