<?xml version="1.0" encoding="UTF-8"?>
<svg xmlns="http://www.w3.org/2000/svg" id="Layer_1" data-name="Layer 1" viewBox="0 0 24 24">
  <path d="m23.939,10.571c.132.243.041.546-.202.678l-9.705,5.244c-.626.34-1.329.51-2.032.51s-1.406-.17-2.034-.511L.261,11.211c-.243-.132-.333-.436-.2-.678.131-.243.436-.333.678-.2l9.705,5.28c.945.513,2.168.513,3.113,0l9.706-5.244c.24-.13.546-.042.677.202ZM0,7c0-.681.384-1.295,1.027-1.644L9.966.508c1.254-.681,2.813-.681,4.067,0l8.939,4.848c.644.349,1.027.963,1.027,1.644s-.384,1.295-1.027,1.644l-8.939,4.848c-.627.34-1.33.511-2.033.511s-1.406-.17-2.034-.511L1.027,8.644c-.643-.349-1.027-.963-1.027-1.644Zm7.839,4.201l5.437-2.949-3.291-1.854c-.02-.011-.033-.03-.051-.044l-5.517,2.992,3.421,1.855Zm12.279-2.146l-3.01-1.696c-.013-.008-.021-.02-.033-.029l-8.187,4.44,1.555.843c.946.513,2.168.514,3.114,0l6.562-3.558Zm.677-3.742l-2.691,1.46,3.052,1.72,1.34-.727c.32-.174.504-.453.504-.765s-.184-.591-.504-.765l-1.701-.923Zm-4.47-2.424l-5.366,2.91,3.355,1.891,5.432-2.946-3.421-1.855ZM3.679,5.055l3.214,1.811L15.276,2.32l-1.72-.933c-.473-.256-1.015-.385-1.557-.385s-1.084.128-1.557.385l-6.763,3.668Zm-2.679,1.945c0,.312.184.592.503.765l1.866,1.012,2.486-1.348-3.214-1.811-1.138.617c-.32.173-.503.453-.503.765Zm22.263,6.369l-9.706,5.244c-.945.514-2.168.513-3.113,0L.739,13.333c-.242-.133-.546-.042-.678.2-.132.242-.042.546.2.678l9.705,5.281c.627.34,1.331.511,2.034.511s1.406-.17,2.032-.51l9.705-5.244c.243-.131.334-.435.202-.678-.131-.244-.437-.333-.677-.202Zm0,3l-9.706,5.244c-.945.514-2.168.513-3.113,0L.739,16.333c-.242-.133-.546-.042-.678.2-.132.242-.042.546.2.678l9.705,5.281c.627.34,1.331.511,2.034.511s1.406-.17,2.032-.51l9.705-5.244c.243-.131.334-.435.202-.678-.131-.244-.437-.333-.677-.202Z"/>
</svg>
