<?xml version="1.0" encoding="UTF-8"?>
<svg xmlns="http://www.w3.org/2000/svg" id="Layer_1" data-name="Layer 1" viewBox="0 0 24 24">
  <path d="m22.345.811c-.472-.516-1.144-.811-1.843-.811H3.5c-.696,0-1.367.294-1.838.806-.472.512-.71,1.205-.653,1.899l1.412,17.164c.19,2.316,2.16,4.131,4.485,4.131h10.095c2.35,0,4.276-1.765,4.482-4.106l1.51-17.175c.062-.697-.175-1.392-.647-1.908Zm-1.858,18.995c-.16,1.821-1.659,3.194-3.486,3.194H6.905c-1.808,0-3.34-1.412-3.488-3.213L2.005,2.623c-.035-.423.104-.828.392-1.14.288-.312.679-.483,1.103-.483h17.002c.426,0,.818.173,1.105.486.288.314.426.721.389,1.145l-1.51,17.175Z"/>
</svg>
