<?xml version="1.0" encoding="UTF-8"?>
<svg xmlns="http://www.w3.org/2000/svg" id="Layer_1" data-name="Layer 1" viewBox="0 0 24 24">
  <path d="m20.475,10.534l-6.475-1.436V2.607c0-1.273-.896-2.38-2.083-2.573-.734-.119-1.476.085-2.035.561-.56.477-.881,1.171-.881,1.905v12.602l-1.796-1.429c-1.006-.94-2.589-.886-3.53.119-.941,1.007-.889,2.593.114,3.532l4.839,4.607c1.4,1.334,3.237,2.068,5.171,2.068h5.701c2.481,0,4.5-2.019,4.5-4.5v-4.572c0-2.126-1.45-3.933-3.525-4.394Zm2.525,8.966c0,1.93-1.57,3.5-3.5,3.5h-5.701c-1.676,0-3.268-.637-4.482-1.793l-4.842-4.61c-.604-.565-.636-1.517-.07-2.121.291-.312.685-.471,1.085-.471.375,0,.755.14,1.061.425l2.637,2.1c.151.119.355.142.529.059.173-.083.283-.258.283-.45V2.5c0-.44.193-.857.529-1.144.34-.29.778-.406,1.226-.336.709.116,1.245.798,1.245,1.587v6.893c0,.234.163.438.392.488l6.866,1.522c1.615.358,2.742,1.764,2.742,3.417v4.572ZM2.138,9.396L.135,7.256c-.189-.201-.179-.518.023-.707.203-.187.518-.179.707.023l2.003,2.14c.039.041.088.062.132.095V.5c0-.276.224-.5.5-.5s.5.224.5.5v8.284c.03-.024.066-.037.094-.066l2.044-2.148c.191-.2.509-.206.707-.018.2.19.208.507.018.707l-2.044,2.148c-.313.328-.818.593-1.318.593s-1.032-.253-1.362-.604Z"/>
</svg>
