<?xml version="1.0" encoding="UTF-8"?>
<svg xmlns="http://www.w3.org/2000/svg" id="Layer_1" data-name="Layer 1" viewBox="0 0 24 24">
  <path d="m23.52,7.296c-.936-.959-1.933-1.981-3.651-2.755,1.118-.583,1.941-1.67,2.126-2.971.039-.273-.151-.527-.425-.566-.268-.042-.526.151-.565.424-.209,1.466-1.501,2.571-3.005,2.571-1.654,0-3-1.346-3-3v-.5c0-.276-.224-.5-.5-.5s-.5.224-.5.5v.5c0,1.194.526,2.266,1.357,3h-2.357c-1.654,0-3-1.346-3-3v-.5c0-.276-.224-.5-.5-.5s-.5.224-.5.5v.5c0,2.206,1.794,4,4,4h2.372c-1.349,1.201-1.372,3.059-1.372,3.086v1.414c0,.276-.225.5-.5.5H5.394c-.967,0-1.92.398-2.613,1.093-.071.071-2.66,3.082-2.66,3.082-.18.209-.155.525.055.705.094.08.21.12.325.12.141,0,.28-.06.38-.175l.849-.989c.042,1.255.409,2.103.765,2.926.177.408.359.831.506,1.312v3.427c0,1.379,1.121,2.5,2.5,2.5s2.5-1.121,2.5-2.5v-2.5h5v2.5c0,1.379,1.121,2.5,2.5,2.5s2.5-1.121,2.5-2.5v-3.301c.493-.548,2-2.454,2-5.3v-2.016c0-.251.188-.465.438-.496l2.1-.263c.833-.104,1.462-.816,1.462-1.657,0-.438-.171-.854-.48-1.171Zm-1.106,1.835l-2.1.263c-.749.094-1.313.733-1.313,1.488v2.016c0,2.895-1.831,4.725-1.85,4.744-.096.094-.15.224-.15.357v3.5c0,.827-.673,1.5-1.5,1.5s-1.5-.673-1.5-1.5v-3c0-.276-.224-.5-.5-.5h-6c-.276,0-.5.224-.5.5v3c0,.827-.673,1.5-1.5,1.5s-1.5-.673-1.5-1.5c0,0-.007-3.595-.021-3.641-.167-.568-.37-1.039-.568-1.495-.367-.85-.685-1.583-.687-2.761,0-.67.271-1.311.763-1.804.508-.508,1.202-.799,1.906-.799h8.106c.827,0,1.5-.673,1.5-1.5v-1.414c0-.125.038-3.04,3.289-3.086,2.359.785,3.415,1.867,4.516,2.995.124.127.195.299.195.472,0,.337-.252.623-.587.665Z"/>
</svg>
