<?xml version="1.0" encoding="UTF-8"?>
<svg xmlns="http://www.w3.org/2000/svg" id="Layer_1" data-name="Layer 1" viewBox="0 0 24 24">
  <path d="m6.723,3.269c-.193-.197-.19-.514.008-.707.197-.193.514-.19.707.008l2.998,3.062c.492.492,1.3.492,1.796-.004L17.645.148c.194-.196.51-.199.707-.004.196.194.198.51.004.707l-5.415,5.481c-.444.444-1.027.666-1.609.666s-1.164-.221-1.606-.664l-3.002-3.065Zm14.777-.269c-1.379,0-2.5,1.122-2.5,2.5v5.997c-.391-.294-.86-.466-1.359-.494-.664-.042-1.306.188-1.808.637l-2.734,2.516c-.43.396-.793.847-1.1,1.336-.305-.488-.669-.941-1.098-1.336l-2.739-2.521c-.9-.805-2.229-.836-3.162-.137v-5.999c0-1.378-1.122-2.5-2.5-2.5S0,4.122,0,5.5v10.101c0,2.003.78,3.887,2.197,5.303l2.95,2.95c.098.098.226.146.354.146s.256-.049.354-.146c.195-.195.195-.512,0-.707l-2.95-2.95c-1.228-1.228-1.904-2.86-1.904-4.596V5.5c0-.827.673-1.5,1.5-1.5s1.5.673,1.5,1.5c0,0-.005,8.054,0,8.082.021.547.227,1.093.607,1.544l2.616,2.721c.191.199.508.206.707.014.199-.191.205-.508.014-.707l-2.593-2.695c-.476-.567-.462-1.409.032-1.96.55-.614,1.499-.666,2.108-.12l2.734,2.516c1.128,1.039,1.776,2.514,1.776,4.047v4.559c0,.276.224.5.5.5s.5-.224.5-.5v-4.559c0-.814-.162-1.61-.452-2.356.303-.638.707-1.212,1.229-1.692l2.729-2.512c.298-.267.688-.398,1.08-.38.398.022.766.198,1.032.496.246.275.372.622.382.968v.009c.007.346-.102.69-.327.959l-2.616,2.721c-.191.199-.186.516.014.707.097.093.222.14.347.14.131,0,.263-.051.36-.153l2.639-2.746c.375-.446.561-.995.573-1.546.002-.019.011-8.054.011-8.054,0-.827.673-1.5,1.5-1.5s1.5.673,1.5,1.5v10.101c0,1.736-.676,3.368-1.903,4.596l-2.95,2.95c-.195.195-.195.512,0,.707.098.098.226.146.354.146s.256-.049.354-.146l2.95-2.95c1.416-1.417,2.196-3.3,2.196-5.303V5.5c0-1.378-1.121-2.5-2.5-2.5Z"/>
</svg>
