<?xml version="1.0" encoding="UTF-8"?>
<svg xmlns="http://www.w3.org/2000/svg" id="Layer_1" data-name="Layer 1" viewBox="0 0 24 24">
  <path d="m20.753,9.58L23.978.623c.067-.214-.023-.446-.217-.558-.237-.137-.54-.049-.665.194l-4.453,8.202c-.824-.289-1.709-.447-2.63-.447h-1.513c-2.949,0-6.206,1.77-8.49,3.319.027-1.361.143-2.513.388-3.983l.425-1.478c2.118-.536,3.811-2.317,4.17-4.428.062-.364-.05-.73-.308-1.004-.26-.277-.635-.42-1.016-.378-2.271.244-3.567,1.372-4.183,2.104C4.878,1.422,3.592.27,1.338.021.966-.021.584.119.322.396.063.672-.05,1.04.013,1.407c.3,1.755,1.479,3.297,3.072,4.078l-.192.292C1,8.656,0,12,0,15.445c0,4.717,3.837,8.555,8.555,8.555h7.452c4.407,0,7.993-3.586,7.993-7.993,0-2.631-1.279-4.97-3.247-6.427Zm-4.746,13.42h-7.452c-4.166,0-7.555-3.389-7.555-7.555,0-3.25.944-6.403,2.729-9.119l.522-.794c.084-.128.105-.288.056-.435-.049-.146-.163-.261-.308-.312-1.547-.545-2.725-1.937-3-3.547-.013-.075.027-.131.052-.157.021-.021.074-.068.154-.068.008,0,.015,0,.023,0,2.764.305,3.767,2.174,3.807,2.251.084.166.255.271.441.272.156.013.359-.102.447-.266.042-.078,1.052-1.914,3.853-2.216.091-.012.158.045.18.069.029.03.062.082.05.15-.307,1.81-1.819,3.323-3.677,3.682-.185.036-.334.172-.386.354l-.52,1.817c-.303,1.8-.421,3.169-.421,4.884,0,.011,0,.021,0,.03-1.132.832-1.867,1.482-1.952,1.559-.206.184-.224.5-.04.706.185.206.5.223.706.04.06-.054,6.033-5.335,10.782-5.335h1.512c3.854.004,6.988,3.141,6.988,6.994s-3.137,6.993-6.993,6.993Zm2.993-6c0,.552-.448,1-1,1s-1-.448-1-1,.448-1,1-1,1,.448,1,1Z"/>
</svg>
