<?xml version="1.0" encoding="UTF-8"?>
<svg xmlns="http://www.w3.org/2000/svg" id="Layer_1" data-name="Layer 1" viewBox="0 0 24 24">
  <path d="m23.453,16.444L15.046,2.721c-.68-1.11-1.758-1.721-3.036-1.721-1.293,0-2.38.611-3.06,1.721L.542,16.444c-.704,1.149-.73,2.537-.072,3.713.646,1.154,1.815,1.843,3.127,1.843h16.8c1.312,0,2.48-.689,3.127-1.843.659-1.176.632-2.564-.072-3.713Zm-.801,3.224c-.467.834-1.31,1.332-2.254,1.332H3.598c-.944,0-1.787-.498-2.254-1.332-.479-.856-.46-1.866.052-2.702l4.101-6.694,8.804,5.783-.585.899c-.265.407-.286.926-.054,1.353s.678.692,1.164.692h3.856c.462,0,.883-.235,1.126-.628.243-.393.265-.875.058-1.288l-1.676-3.352c-.215-.43-.63-.703-1.11-.73-.478-.031-.922.197-1.184.601l-1.05,1.615-5.261-3.456.734-2.114c.094-.263.296-.473.557-.577.259-.104.551-.092.8.031l.284.142c.418.208.737.565.894.997l.831,2.421c.071.208.266.338.473.338.054,0,.108-.009.162-.027.261-.09.4-.375.311-.635l-.834-2.429c-.248-.683-.742-1.236-1.391-1.56l-.284-.142c-.507-.252-1.097-.275-1.619-.064-.525.21-.935.636-1.127,1.173l-.653,1.88-2.704-1.776,3.784-6.176c.499-.813,1.262-1.244,2.207-1.244s1.678.418,2.184,1.244l8.407,13.723c.512.836.531,1.846.052,2.702Zm-8.099-2.168l2.18-3.352c.083-.129.207-.147.271-.147.007,0,.013,0,.018,0,.056.003.196.027.271.179l1.676,3.352c.073.146.015.269-.014.315-.028.046-.112.154-.275.154h-3.856c-.174,0-.257-.119-.285-.169-.027-.051-.082-.185.013-.331Zm-1.554-11.5c0,.552-.448,1-1,1s-1-.448-1-1,.448-1,1-1,1,.448,1,1Zm-1,11v1.5c0,.276-.224.5-.5.5s-.5-.224-.5-.5v-1.5c0-.276.224-.5.5-.5s.5.224.5.5Zm-3.359-2.324l-1.5,4c-.075.201-.266.324-.468.324-.059,0-.118-.01-.176-.032-.258-.097-.389-.385-.292-.644l1.5-4c.097-.259.385-.388.644-.292.258.097.389.385.292.644Z"/>
</svg>
