<?xml version="1.0" encoding="UTF-8"?>
<svg xmlns="http://www.w3.org/2000/svg" id="Layer_1" data-name="Layer 1" viewBox="0 0 24 24">
  <path d="m24,20.605c0,1.321-1.074,2.395-2.395,2.395h-.605v.5c0,.276-.224.5-.5.5s-.5-.224-.5-.5v-.5h-.5c-1.379,0-2.5-1.122-2.5-2.5,0-.276.224-.5.5-.5s.5.224.5.5c0,.827.673,1.5,1.5,1.5h2.105c.769,0,1.395-.626,1.395-1.395,0-.685-.49-1.263-1.165-1.375l-2.834-.473c-1.159-.193-2.001-1.186-2.001-2.362,0-1.321,1.074-2.395,2.395-2.395h.605v-.5c0-.276.224-.5.5-.5s.5.224.5.5v.5h.5c1.379,0,2.5,1.122,2.5,2.5,0,.276-.224.5-.5.5s-.5-.224-.5-.5c0-.827-.673-1.5-1.5-1.5h-2.105c-.769,0-1.395.626-1.395,1.395,0,.685.49,1.263,1.165,1.375l2.834.473c1.159.193,2.001,1.186,2.001,2.362Zm-6-14.605c0,3.309-2.691,6-6,6s-6-2.691-6-6S8.691,0,12,0s6,2.691,6,6Zm-1,0c0-2.757-2.243-5-5-5s-5,2.243-5,5,2.243,5,5,5,5-2.243,5-5Zm-2.354,8.396c-.854-.262-1.745-.396-2.646-.396-4.963,0-9,4.038-9,9v.5c0,.276.224.5.5.5s.5-.224.5-.5v-.5c0-4.411,3.589-8,8-8,.802,0,1.594.118,2.354.352.262.081.543-.067.624-.331.081-.264-.066-.544-.331-.625Z"/>
</svg>
