<?xml version="1.0" encoding="UTF-8"?>
<svg xmlns="http://www.w3.org/2000/svg" id="Layer_1" data-name="Layer 1" viewBox="0 0 24 24">
  <path d="m17.554,5c1.378,0,2.5-1.122,2.5-2.5s-1.122-2.5-2.5-2.5-2.5,1.122-2.5,2.5,1.122,2.5,2.5,2.5Zm0-4c.827,0,1.5.673,1.5,1.5s-.673,1.5-1.5,1.5-1.5-.673-1.5-1.5.673-1.5,1.5-1.5Zm6.219,12.081l-2.437-1.589c-.305-.199-.527-.501-.62-.83,0,0-.681-2.953-.691-2.98-.3-.929-1.361-1.682-2.376-1.682-1.406,0-1.926.521-2.199.715l-3.308,2.26c-.682.466-1.089,1.238-1.089,2.064v3.461c0,.276.224.5.5.5s.5-.224.5-.5v-3.461c0-.496.244-.959.654-1.239l2.346-1.61v5.268c0,.815.398,1.581,1.077,2.056l4.25,2.81c.421.279.673.747.673,1.251v3.925c0,.276.224.5.5.5s.5-.224.5-.5v-3.925c0-.841-.419-1.621-1.121-2.085l-.879-.581v-5.319c.189.293.439.546.736.74l2.437,1.589c.23.15.54.084.692-.146.151-.231.085-.541-.146-.692Zm-4.719,3.167l-2.36-1.56c-.4-.281-.64-.74-.64-1.229v-5.948s-.006.005,0,0c.047-.048.533-.51,1.596-.51.58,0,1.228.443,1.404.923v8.324ZM6.808,1.804l-4.499,3.598c-.858.671-1.348,1.676-1.348,2.759v5.338c0,1.378,1.122,2.5,2.5,2.5h6.039c.276,0,.5.224.5.5s-.224.5-.5.5H3.461C1.532,17-.039,15.43-.039,13.5v-5.338c0-1.393.629-2.685,1.727-3.543L6.188,1.02c1.552-1.212,3.648-1.359,5.347-.379l1.298.876c.229.154.289.465.134.694-.153.229-.466.289-.694.134l-1.269-.857c-1.315-.758-2.973-.641-4.196.316Zm9.686,16.565l-2.182,5.32c-.079.193-.266.31-.462.31-.063,0-.127-.012-.19-.038-.255-.104-.377-.396-.272-.652l2.182-5.32c.105-.256.397-.377.652-.272.255.104.377.396.272.652Zm-.439-10.859h0c.008-.007.004-.003,0,0Zm-10.554,1.489c-.827,0-1.5.673-1.5,1.5v1c0,.827.673,1.5,1.5,1.5h1c.827,0,1.5-.673,1.5-1.5v-1c0-.827-.673-1.5-1.5-1.5h-1Zm1.5,1.5v1c0,.276-.224.5-.5.5h-1c-.276,0-.5-.224-.5-.5v-1c0-.276.224-.5.5-.5h1c.276,0,.5.224.5.5Z"/>
</svg>
