<?xml version="1.0" encoding="UTF-8"?>
<svg xmlns="http://www.w3.org/2000/svg" id="Layer_1" data-name="Layer 1" viewBox="0 0 24 24">
  <path d="m15.5,16c-1.379,0-2.5,1.121-2.5,2.5v3c0,1.379,1.121,2.5,2.5,2.5s2.5-1.121,2.5-2.5v-3c0-1.379-1.121-2.5-2.5-2.5Zm1.5,5.5c0,.827-.673,1.5-1.5,1.5s-1.5-.673-1.5-1.5v-3c0-.827.673-1.5,1.5-1.5s1.5.673,1.5,1.5v3Zm2.5-19.5h-1.5V.5c0-.276-.224-.5-.5-.5s-.5.224-.5.5v1.5H7V.5c0-.276-.224-.5-.5-.5s-.5.224-.5.5v1.5h-1.5C2.019,2,0,4.019,0,6.5v13c0,1.636.889,3.145,2.32,3.938.077.042.16.062.242.062.176,0,.347-.093.438-.258.134-.241.046-.546-.195-.68-1.113-.617-1.805-1.79-1.805-3.062v-10.5h22v4.5c0,.276.224.5.5.5s.5-.224.5-.5v-7c0-2.481-2.019-4.5-4.5-4.5ZM1,8v-1.5c0-1.93,1.57-3.5,3.5-3.5h15c1.93,0,3.5,1.57,3.5,3.5v1.5H1Zm10.492,9l.469,6.464c.021.29-.208.536-.499.536h0c-.262,0-.48-.202-.499-.464l-.459-6.33-1.41,3.102c-.232.51-.957.51-1.189,0l-1.41-3.103-.459,6.33c-.019.261-.237.464-.499.464-.29,0-.52-.247-.499-.536l.469-6.464c.043-.705.472-1,.988-1,.342,0,.66.242.841.64l1.164,2.56,1.164-2.56c.181-.398.499-.64.841-.64.516,0,.945.295.988,1Zm12.508-.5v6.728c0,.368-.252.679-.612.755-.055.012-.11.018-.164.018-.301,0-.575-.174-.702-.459l-2.521-5.683v5.642c0,.276-.224.5-.5.5s-.5-.224-.5-.5v-6.716c0-.369.252-.68.613-.756.359-.078.717.105.865.443l2.521,5.682v-5.653c0-.276.224-.5.5-.5s.5.224.5.5Z"/>
</svg>
