<?xml version="1.0" encoding="UTF-8"?>
<svg xmlns="http://www.w3.org/2000/svg" id="Layer_1" data-name="Layer 1" viewBox="0 0 24 24">
  <path d="m24,23.5c0,.276-.224.5-.5.5H.5c-.276,0-.5-.224-.5-.5s.224-.5.5-.5h23c.276,0,.5.224.5.5ZM.241,7.779c-.362-.692-.315-1.484.126-2.118.41-.591,1.945-1.389,1.947-1.39L9.765.542c1.396-.728,3.072-.729,4.478.004l7.651,3.879.005.002s1.355.686,1.735,1.232c.44.634.487,1.426.125,2.118-.395.753-1.178,1.221-2.045,1.221h-.714v10h1.5c.276,0,.5.224.5.5s-.224.5-.5.5H1.5c-.276,0-.5-.224-.5-.5s.224-.5.5-.5h1.5v-10h-.714c-.867,0-1.65-.468-2.045-1.221Zm3.759,11.221h4.002l.035-10h-4.037v10Zm5.037-10l-.035,10h5.998v-10h-5.963Zm10.963,0h-4v10h4v-10ZM1.128,7.315c.221.422.664.685,1.158.685h19.428c.494,0,.938-.262,1.158-.685.189-.362.167-.757-.06-1.084-.235-.338-.693-.569-1.136-.793L13.785,1.436c-.56-.292-1.174-.438-1.786-.438s-1.223.145-1.78.435l-7.457,3.732c-.565.294-1.305.678-1.573,1.066-.228.328-.25.723-.061,1.084Z"/>
</svg>
