<?xml version="1.0" encoding="UTF-8"?>
<svg xmlns="http://www.w3.org/2000/svg" id="Layer_1" data-name="Layer 1" viewBox="0 0 24 24">
  <path d="m23.963,13.93l-1.222-9.563c-.318-2.489-2.451-4.366-4.96-4.366H5.778C3.52,0,1.601,1.689,1.314,3.93L.037,13.93c-.164,1.282.232,2.574,1.086,3.544.854.97,2.085,1.526,3.377,1.526h7v4h-5c-.276,0-.5.224-.5.5s.224.5.5.5h11c.276,0,.5-.224.5-.5s-.224-.5-.5-.5h-5v-4h7c1.292,0,2.523-.557,3.377-1.526.854-.97,1.25-2.262,1.086-3.544Zm-15.937,4.07l.312-5h7.319l.312,5h-7.944Zm.375-6l.312-5h6.569l.312,5h-7.194ZM1.931,7h5.782l-.312,5H1.292l.639-5ZM14.908,1l.312,5h-6.444l.312-5h5.819Zm1.377,6h5.785l.639,5h-6.111l-.312-5Zm5.465-2.507l.193,1.507h-5.72l-.312-5h1.872c2.007,0,3.713,1.502,3.968,3.493ZM5.778,1h2.309l-.312,5H2.058l.248-1.943c.222-1.742,1.715-3.057,3.472-3.057Zm-3.904,15.812c-.665-.754-.973-1.759-.845-2.756l.135-1.057h6.173l-.312,5h-2.524c-1.005,0-1.962-.433-2.626-1.188Zm20.252,0c-.664.755-1.622,1.188-2.626,1.188h-2.527l-.312-5h6.176l.135,1.057c.127.997-.181,2.002-.845,2.756Z"/>
</svg>
