<?xml version="1.0" encoding="UTF-8"?>
<svg xmlns="http://www.w3.org/2000/svg" id="Layer_1" data-name="Layer 1" viewBox="0 0 24 24">
  <path d="m24,19.5c0,.276-.224.5-.5.5h-9c-2.437,0-4.417-1.95-4.487-4.371l-1.765,1.918c-.85.923-2.057,1.453-3.312,1.453H.5c-.276,0-.5-.224-.5-.5s.224-.5.5-.5h4.437c.976,0,1.915-.412,2.575-1.13l3.11-3.38c.546-.61.494-1.558-.12-2.108-.552-.494-1.394-.506-1.96-.032l-2.701,2.516c-.203.188-.519.176-.707-.025-.188-.202-.177-.519.025-.707l2.721-2.533c.609-.511,1.393-.689,2.12-.545v-1.556c0-.529.108-1.029.276-1.5h-3.898c-1.091,0-2.143.396-2.964,1.114l-2.586,2.263c-.095.083-.212.124-.329.124-.139,0-.277-.058-.376-.171-.182-.208-.161-.523.047-.706l2.586-2.263c1.002-.877,2.289-1.361,3.622-1.361h4.383c.808-1.205,2.182-2,3.738-2h9c.276,0,.5.224.5.5s-.224.5-.5.5h-9c-1.93,0-3.5,1.57-3.5,3.5v2s-.002.006-.002.01c.057.043.118.079.171.127,1.025.918,1.112,2.5.194,3.525l-.363.395v.944c0,1.93,1.57,3.5,3.5,3.5h9c.276,0,.5.224.5.5ZM14,7c-.552,0-1,.448-1,1s.448,1,1,1,1-.448,1-1-.448-1-1-1Zm0,8c-.552,0-1,.448-1,1s.448,1,1,1,1-.448,1-1-.448-1-1-1Zm8-6c.435,0,.867.101,1.285.301.248.119.547.013.667-.236.119-.249.014-.547-.236-.667-.554-.264-1.131-.398-1.715-.398-2.206,0-4,1.794-4,4s1.794,4,4,4c.584,0,1.162-.134,1.715-.398.25-.119.355-.417.236-.667-.12-.25-.418-.356-.667-.236-.418.2-.85.301-1.285.301-1.654,0-3-1.346-3-3s1.346-3,3-3Z"/>
</svg>
