<?xml version="1.0" encoding="UTF-8"?>
<svg xmlns="http://www.w3.org/2000/svg" id="Layer_1" data-name="Layer 1" viewBox="0 0 24 24">
  <path d="m11.5,10c.276,0,.5-.224.5-.5s-.224-.5-.5-.5h-2.5v-2.5c0-.276-.224-.5-.5-.5s-.5.224-.5.5v2.5h-4v-2.5c0-.276-.224-.5-.5-.5s-.5.224-.5.5v2.5H.5c-.276,0-.5.224-.5.5s.224.5.5.5h2.5v4H.5c-.276,0-.5.224-.5.5s.224.5.5.5h2.5v2.5c0,.276.224.5.5.5s.5-.224.5-.5v-2.5h4v2.5c0,.276.224.5.5.5s.5-.224.5-.5v-2.5h2.5c.276,0,.5-.224.5-.5s-.224-.5-.5-.5h-2.5v-4h2.5Zm-3.5,4h-4v-4h4v4Zm16,7.5c0,.276-.224.5-.5.5h-8.325c-.871,0-1.632-.494-1.985-1.29-.354-.798-.209-1.695.376-2.343.827-.914,2.006-1.881,3.254-2.904,2.896-2.377,6.18-5.07,6.18-7.963,0-2.481-2.019-4.5-4.5-4.5-2.154,0-4.093,1.548-4.51,3.6-.055.271-.317.444-.59.391-.271-.055-.445-.319-.391-.59.518-2.55,2.827-4.4,5.49-4.4,3.033,0,5.5,2.468,5.5,5.5,0,3.365-3.478,6.219-6.545,8.735-1.218,1-2.369,1.944-3.147,2.804-.321.354-.397.828-.204,1.265.193.437.594.696,1.071.696h8.325c.276,0,.5.224.5.5Z"/>
</svg>
