<?xml version="1.0" encoding="UTF-8"?>
<svg xmlns="http://www.w3.org/2000/svg" id="Layer_1" data-name="Layer 1" viewBox="0 0 24 24">
  <path d="m19.5,0H4.5C2.019,0,0,2.019,0,4.5v11c0,.933.374,1.828,1.033,2.483.164,1.185.924,2.182,1.967,2.679v.838c0,1.379,1.121,2.5,2.5,2.5s2.5-1.121,2.5-2.5v-.5h8v.5c0,1.379,1.121,2.5,2.5,2.5s2.5-1.121,2.5-2.5v-.838c1.042-.497,1.802-1.494,1.967-2.679.659-.655,1.033-1.55,1.033-2.483V4.5c0-2.481-2.019-4.5-4.5-4.5ZM2.415,14c.09-.218.193-.43.311-.636l2.058-3.601c.621-1.088,1.785-1.764,3.038-1.764h8.357c1.253,0,2.417.676,3.038,1.764l2.058,3.601c.117.205.221.418.311.636H2.415Zm4.585,7.5c0,.827-.673,1.5-1.5,1.5s-1.5-.673-1.5-1.5v-.536c.163.023.33.036.5.036h2.5v.5Zm13,0c0,.827-.673,1.5-1.5,1.5s-1.5-.673-1.5-1.5v-.5h2.5c.17,0,.337-.012.5-.036v.536Zm2-4c0,1.379-1.121,2.5-2.5,2.5H4.5c-1.379,0-2.5-1.121-2.5-2.5v-1.406c0-.368.038-.735.111-1.094h2.889v1.5c0,.276.224.5.5.5s.5-.224.5-.5v-1.5h12v1.5c0,.276.224.5.5.5s.5-.224.5-.5v-1.5h2.889c.073.359.111.725.111,1.094v1.406Zm1-2c0,.076-.004.152-.011.227-.057-1.003-.346-1.984-.845-2.859l-2.058-3.601c-.8-1.398-2.297-2.268-3.907-2.268H7.821c-1.61,0-3.107.869-3.907,2.268l-2.058,3.601c-.5.874-.788,1.855-.845,2.859-.007-.075-.011-.151-.011-.227V4.5c0-1.93,1.57-3.5,3.5-3.5h15c1.93,0,3.5,1.57,3.5,3.5v11Z"/>
</svg>
