<?xml version="1.0" encoding="UTF-8"?>
<svg xmlns="http://www.w3.org/2000/svg" id="Layer_1" data-name="Layer 1" viewBox="0 0 24 24">
  <path d="m18.5,19h-1.5v-4.5c0-1.379-1.122-2.5-2.5-2.5h-5c-1.378,0-2.5,1.121-2.5,2.5v7c0,1.379,1.122,2.5,2.5,2.5h8.5c1.103,0,2-.897,2-2v-1.5c0-.827-.673-1.5-1.5-1.5Zm-10.5,2.5v-7c0-.827.673-1.5,1.5-1.5h5c.827,0,1.5.673,1.5,1.5v7.5c0,.366.106.705.278,1h-6.778c-.827,0-1.5-.673-1.5-1.5Zm11,.5c0,.552-.449,1-1,1s-1-.448-1-1v-2h1.5c.276,0,.5.225.5.5v1.5ZM7,10.5c.111,0,.223-.037.315-.112.214-.175.246-.489.072-.703l-2.178-2.673c.486-.533.79-1.235.79-2.012,0-1.654-1.346-3-3-3S0,3.346,0,5s1.346,3,3,3c.517,0,.996-.143,1.421-.374l2.191,2.69c.099.122.243.185.388.185ZM1,5c0-1.103.897-2,2-2s2,.897,2,2-.897,2-2,2-2-.897-2-2Zm10.5.949v3.551c0,.276.224.5.5.5s.5-.224.5-.5v-3.551c1.416-.24,2.5-1.466,2.5-2.949,0-1.654-1.346-3-3-3s-3,1.346-3,3c0,1.483,1.084,2.71,2.5,2.949Zm.5-4.949c1.103,0,2,.897,2,2s-.897,2-2,2-2-.897-2-2,.897-2,2-2Zm9,1c-1.654,0-3,1.346-3,3,0,.777.304,1.478.79,2.012l-2.178,2.673c-.174.214-.142.528.072.703.093.075.205.112.315.112.146,0,.289-.062.388-.185l2.191-2.69c.425.231.904.374,1.421.374,1.654,0,3-1.346,3-3s-1.346-3-3-3Zm0,5c-1.103,0-2-.897-2-2s.897-2,2-2,2,.897,2,2-.897,2-2,2Zm-7,8.5c0,.276-.224.5-.5.5h-3c-.276,0-.5-.224-.5-.5s.224-.5.5-.5h3c.276,0,.5.224.5.5Zm0,2c0,.276-.224.5-.5.5h-3c-.276,0-.5-.224-.5-.5s.224-.5.5-.5h3c.276,0,.5.224.5.5Zm-1,2c0,.276-.224.5-.5.5h-2c-.276,0-.5-.224-.5-.5s.224-.5.5-.5h2c.276,0,.5.224.5.5Z"/>
</svg>
