<?xml version="1.0" encoding="UTF-8"?>
<svg xmlns="http://www.w3.org/2000/svg" id="Layer_1" data-name="Layer 1" viewBox="0 0 24 24">
  <path d="m8,13c2.206,0,4-1.794,4-4s-1.794-4-4-4-4,1.794-4,4,1.794,4,4,4Zm0-7c1.654,0,3,1.346,3,3s-1.346,3-3,3-3-1.346-3-3,1.346-3,3-3Zm7,15.5v2c0,.276-.224.5-.5.5s-.5-.224-.5-.5v-2c0-3.032-2.467-5.5-5.5-5.5H1.5c-.827,0-1.5-.673-1.5-1.5V5.5c0-.276.224-.5.5-.5s.5.224.5.5v9c0,.275.224.5.5.5h7c3.584,0,6.5,2.916,6.5,6.5Zm-10-3v5c0,.276-.224.5-.5.5s-.5-.224-.5-.5v-5c0-.276.224-.5.5-.5s.5.224.5.5ZM21.499,0l-5,.002c-1.378,0-2.499,1.123-2.499,2.501v7.207c.002.472.259.904.673,1.131.193.105.406.158.619.158.242,0,.483-.067.694-.203.034-.021.064-.047.092-.076l1.636-1.715,3.788-.003c1.377,0,2.498-1.123,2.498-2.5V2.5c0-1.379-1.122-2.5-2.501-2.5Zm1.501,6.502c0,.826-.672,1.499-1.499,1.5l-4.001.003c-.137,0-.267.056-.361.155l-1.732,1.815c-.113.053-.213.009-.254-.012-.045-.025-.151-.1-.151-.254V2.503c-.002-.827.671-1.5,1.498-1.501l5-.002c.828,0,1.501.673,1.501,1.5v4.002Z"/>
</svg>
