<?xml version="1.0" encoding="UTF-8"?>
<svg xmlns="http://www.w3.org/2000/svg" id="Layer_1" data-name="Layer 1" viewBox="0 0 24 24">
  <path d="m12,10c1.378,0,2.5-1.121,2.5-2.5s-1.122-2.5-2.5-2.5-2.5,1.121-2.5,2.5,1.122,2.5,2.5,2.5Zm0-4c.827,0,1.5.673,1.5,1.5s-.673,1.5-1.5,1.5-1.5-.673-1.5-1.5.673-1.5,1.5-1.5Zm11.543,12.336l-3.575-3.575c-.003-.222-.014-.445-.063-.662-.12-.527.122-1.088.601-1.396.448-.29.813-.684,1.083-1.172.255-.461.388-.99.386-1.528.002-.542-.131-1.071-.386-1.532-.271-.488-.635-.882-1.084-1.172-.479-.309-.72-.869-.601-1.396.122-.532.103-1.081-.054-1.63-.295-1.029-1.118-1.852-2.147-2.146-.547-.157-1.096-.177-1.628-.055-.528.118-1.088-.122-1.396-.601-.29-.448-.684-.812-1.171-1.083-.937-.52-2.1-.52-3.037,0-.488.271-.882.635-1.172,1.084-.308.478-.872.718-1.396.6-.535-.122-1.082-.103-1.628.055-1.029.295-1.852,1.117-2.147,2.146-.157.549-.176,1.097-.055,1.63.12.526-.121,1.087-.6,1.396-.449.29-.814.685-1.083,1.172-.255.459-.388.989-.386,1.528-.002.543.131,1.073.386,1.532.27.487.634.882,1.084,1.172.479.309.72.869.6,1.396-.051.226-.064.456-.065.687l-3.55,3.55c-.455.455-.584,1.106-.338,1.7.246.595.799.964,1.442.964h1.439v1.435c0,.644.37,1.196.965,1.442.199.082.404.122.606.122.402,0,.792-.159,1.095-.462l4.288-4.296c.161.134.326.266.516.371.468.26.994.39,1.519.39s1.05-.13,1.518-.39c.196-.109.365-.243.53-.381l4.298,4.305c.302.304.692.463,1.095.463.202,0,.407-.04.606-.122.595-.246.965-.799.965-1.442v-1.435h1.439c.643,0,1.196-.369,1.442-.964.246-.594.116-1.245-.338-1.7Zm-18.585,4.495c-.244.245-.528.155-.611.122-.081-.034-.347-.171-.347-.519v-1.935c0-.276-.224-.5-.5-.5h-1.939c-.348,0-.484-.265-.518-.346-.033-.082-.124-.365.122-.611l3.07-3.07c.349.908,1.098,1.631,2.041,1.901.547.157,1.095.176,1.628.055.52-.118,1.063.116,1.374.574l-4.319,4.328Zm8.064-4.094c-.628.35-1.439.35-2.067,0-.342-.189-.617-.441-.815-.75-.442-.687-1.193-1.089-1.967-1.089-.164,0-.328.019-.491.056-.368.082-.748.068-1.132-.041-.69-.198-1.264-.771-1.461-1.461-.11-.385-.124-.766-.041-1.132.212-.936-.203-1.923-1.033-2.458-.31-.2-.562-.475-.751-.816-.172-.311-.262-.672-.261-1.048-.001-.372.088-.733.261-1.044.189-.342.442-.616.751-.816.831-.535,1.246-1.522,1.033-2.457-.083-.367-.069-.748.041-1.133.198-.689.771-1.263,1.461-1.461.384-.109.766-.123,1.131-.041.934.213,1.922-.202,2.458-1.033.199-.309.473-.561.816-.75.628-.35,1.439-.35,2.067,0,.342.189.616.442.815.75.536.832,1.524,1.245,2.458,1.033.368-.081.749-.068,1.131.041.69.198,1.264.771,1.462,1.461.11.385.124.766.04,1.133-.212.935.204,1.922,1.033,2.457.309.199.562.475.751.816.172.312.262.672.261,1.048.001.372-.088.732-.261,1.044-.189.342-.442.617-.751.816-.83.535-1.246,1.522-1.033,2.458.083.366.069.747-.041,1.132-.198.689-.772,1.263-1.462,1.461-.384.11-.764.122-1.131.041-.933-.21-1.922.203-2.458,1.032-.2.309-.474.562-.816.751Zm9.936.917c-.034.081-.17.346-.518.346h-1.939c-.276,0-.5.224-.5.5v1.935c0,.348-.266.484-.347.519-.082.033-.366.125-.611-.123l-4.331-4.339c.313-.451.854-.681,1.364-.562.533.12,1.08.102,1.627-.055.948-.272,1.701-1,2.048-1.917l3.085,3.085c.246.246.155.529.122.611Zm-10.958-7.654c-1.499,0-2.791,1.105-3.005,2.572-.04.273-.297.457-.567.423-.273-.04-.462-.294-.422-.567.286-1.954,2.003-3.428,3.995-3.428s3.708,1.474,3.995,3.428c.04.273-.149.527-.422.567-.024.003-.049.005-.073.005-.244,0-.458-.179-.494-.428-.215-1.467-1.507-2.572-3.005-2.572Z"/>
</svg>
