<?xml version="1.0" encoding="UTF-8"?>
<svg xmlns="http://www.w3.org/2000/svg" id="Layer_1" data-name="Layer 1" viewBox="0 0 24 24">
  <path d="m21.605,4.361c.192-.196.191-.51-.003-.704l-2.252-2.252c-1.873-1.873-4.909-1.873-6.782,0L2.539,11.433c-.788.788-1.361,1.795-1.5,2.901-.19,1.509.314,2.964,1.365,4.015l4.111,4.111c.788.788,1.794,1.36,2.899,1.499,1.509.19,2.964-.313,4.016-1.365l7.825-7.825c.272-.272.274-.713.003-.987l-.585-.593c-.434-.461-.675-1.06-.675-1.691,0-.711.314-1.394.863-1.874.108-.095.171-.232.171-.376s-.062-.281-.171-.376c-.549-.479-.863-1.163-.863-1.874,0-.706.304-1.382.856-1.877l.749-.762Zm-8.33-2.25c.74-.74,1.712-1.109,2.685-1.109s1.943.37,2.684,1.109l1.733,1.733-4.524,4.524-4.417-4.417,1.84-1.84Zm-6.705,6.705l4.158-4.158,4.417,4.417-4.158,4.158-4.417-4.417Zm6.155,13.072c-1.434,1.434-3.934,1.434-5.368,0l-4.245-4.245c-.717-.717-1.112-1.67-1.112-2.684s.395-1.967,1.111-2.684l2.752-2.752,9.613,9.613-2.752,2.751Zm3.459-3.458l-4.489-4.489,4.158-4.158,4.488,4.491-4.157,4.157Zm.376-9.355l2.484-2.484c-.016.136-.044.27-.044.409,0,.825.299,1.621.834,2.25-.535.629-.834,1.425-.834,2.25,0,.006.002.011.002.017l-2.442-2.442Z"/>
</svg>
