<?xml version="1.0" encoding="UTF-8"?>
<svg xmlns="http://www.w3.org/2000/svg" id="Layer_1" data-name="Layer 1" viewBox="0 0 24 24">
  <path d="m12,0C5.383,0,0,5.383,0,12s5.383,12,12,12,12-5.383,12-12S18.617,0,12,0Zm9.797,7h-4.823c-1.072-2.674-2.723-4.787-3.739-5.93,3.739.419,6.917,2.72,8.562,5.93ZM12,1.209c.77.805,2.669,2.96,3.89,5.791h-7.781c1.22-2.826,3.12-4.984,3.891-5.791Zm-1.235-.14c-1.015,1.143-2.667,3.256-3.739,5.93H2.203C3.849,3.789,7.027,1.489,10.765,1.07ZM2.203,17h4.823c1.072,2.674,2.723,4.787,3.739,5.93-3.739-.419-6.917-2.72-8.562-5.93Zm9.796,5.791c-.77-.805-2.669-2.96-3.89-5.791h7.781c-1.22,2.826-3.12,4.984-3.891,5.791Zm1.235.14c1.015-1.143,2.667-3.256,3.739-5.93h4.823c-1.645,3.211-4.823,5.511-8.562,5.93Zm9.012-6.93H1.753c-.486-1.24-.753-2.59-.753-4s.267-2.76.753-4h20.494c.486,1.24.753,2.59.753,4s-.267,2.76-.753,4Zm-13.842-5.913l-.314,3.659c-.031.44-.337.779-.706.779-.244,0-.471-.151-.601-.4l-.831-1.6-.831,1.6c-.129.249-.356.4-.601.4-.368,0-.675-.339-.706-.779l-.314-3.659c-.026-.302.212-.562.515-.562.27,0,.494.208.516.477l.212,2.681.75-1.443c.193-.372.725-.372.918,0l.75,1.443.21-2.681c.021-.269.246-.477.516-.477h.002c.303,0,.541.26.515.562Zm12.093,0l-.314,3.659c-.031.44-.337.779-.706.779-.244,0-.471-.151-.601-.4l-.831-1.6-.831,1.6c-.129.249-.356.4-.601.4-.368,0-.675-.339-.706-.779l-.314-3.659c-.026-.302.212-.562.515-.562.27,0,.494.208.516.477l.212,2.681.75-1.443c.193-.372.725-.372.918,0l.75,1.443.21-2.681c.021-.269.246-.477.516-.477h.002c.303,0,.541.26.515.562Zm-6.04,0l-.314,3.659c-.031.44-.337.779-.706.779-.244,0-.471-.151-.601-.4l-.831-1.6-.831,1.6c-.129.249-.356.4-.601.4-.368,0-.675-.339-.706-.779l-.314-3.659c-.026-.302.212-.562.515-.562.27,0,.494.208.516.477l.212,2.681.75-1.443c.193-.372.725-.372.918,0l.75,1.443.21-2.681c.021-.269.246-.477.516-.477h.002c.303,0,.541.26.515.562Z"/>
</svg>
