<?xml version="1.0" encoding="UTF-8"?>
<svg xmlns="http://www.w3.org/2000/svg" id="Layer_1" data-name="Layer 1" viewBox="0 0 24 24">
  <path d="m23.678,13.963c-.381-.603-1.034-.963-1.748-.963H2.07c-.714,0-1.368.36-1.749.965s-.425,1.351-.117,1.995l.507,1.058c1.647,2.748,3.346,2.982,5.722,2.982,0,0,4.185.001,5.067,0v3.001h-4c-.276,0-.5.224-.5.5s.224.5.5.5h9c.276,0,.5-.224.5-.5s-.224-.5-.5-.5h-4v-3.002l4.907.002c2.461.038,4.209-.182,5.898-3.005l.493-1.039c.306-.645.261-1.39-.121-1.993Zm-.783,1.564l-.47.997c-1.356,2.262-2.565,2.481-5.015,2.476H6.446c-2.342,0-3.53-.25-4.855-2.454l-.484-1.016c-.161-.339-.14-.715.061-1.032.2-.316.529-.498.903-.498h19.859c.374,0,.703.182.903.498.199.315.223.69.062,1.029ZM2.001,10.474C2.279,5.161,6.671,1,12,1s9.721,4.161,9.999,9.474c.015.276-.197.511-.473.525-.009,0-.018,0-.026,0-.265,0-.485-.207-.499-.474-.251-4.781-4.204-8.526-9.001-8.526S3.25,5.745,2.999,10.526c-.015.275-.253.512-.525.473-.275-.015-.487-.249-.473-.525Z"/>
</svg>
