<?xml version="1.0" encoding="UTF-8"?>
<svg xmlns="http://www.w3.org/2000/svg" id="Layer_1" data-name="Layer 1" viewBox="0 0 24 24">
  <path d="m23.974.658c.087-.262-.054-.545-.316-.632-.263-.087-.545.054-.632.316-.436,1.307-1.735,2.168-2.221,2.451-.913-.84-2.056-1.434-3.317-1.67-2.575-.48-5.152.496-6.728,2.549-.788,1.026-1.818,1.673-2.9,1.821-1.875.256-3.609,1.059-5.015,2.322-3.382,3.038-3.657,8.351-.626,12.096,1.983,2.449,4.677,3.936,7.393,4.079.148.007.294.011.441.011,2.167,0,4.157-.849,5.78-2.472,1.429-1.429,2.346-3.239,2.652-5.233.191-1.249.788-2.29,1.679-2.932,2.171-1.566,3.21-4.192,2.713-6.852-.207-1.107-.69-2.123-1.373-2.972.697-.437,1.98-1.409,2.47-2.881Zm-4.395,11.894c-1.11.801-1.85,2.076-2.082,3.591-.274,1.783-1.094,3.401-2.371,4.679-1.526,1.527-3.416,2.279-5.462,2.169-2.433-.128-4.863-1.479-6.668-3.709C.3,15.95.527,11.24,3.513,8.558c1.256-1.128,2.807-1.846,4.482-2.075,1.345-.184,2.608-.966,3.558-2.203,1.119-1.457,2.829-2.279,4.639-2.279.368,0,.741.034,1.113.104,2.312.432,4.157,2.276,4.59,4.589.426,2.275-.461,4.52-2.315,5.856Zm-4.579,2.448c0,.552-.448,1-1,1s-1-.448-1-1,.448-1,1-1,1,.448,1,1Zm-3,3c0,.552-.448,1-1,1s-1-.448-1-1,.448-1,1-1,1,.448,1,1Z"/>
</svg>
