<?xml version="1.0" encoding="UTF-8"?>
<svg xmlns="http://www.w3.org/2000/svg" id="Layer_1" data-name="Layer 1" viewBox="0 0 24 24">
  <path d="m15.5,5h-4.5V1h5.5c.276,0,.5-.224.5-.5s-.224-.5-.5-.5H4.5c-.276,0-.5.224-.5.5s.224.5.5.5h5.5v4H.5c-.276,0-.5.224-.5.5s.224.5.5.5h9.5v5H.5c-.276,0-.5.224-.5.5s.224.5.5.5h15c.827,0,1.5.673,1.5,1.5v1c0,.827.673,1.5,1.5,1.5h4c.827,0,1.5-.673,1.5-1.5v-1c0-4.687-3.813-8.5-8.5-8.5Zm7.5,9.5c0,.275-.224.5-.5.5h-4c-.276,0-.5-.225-.5-.5v-1c0-1.379-1.122-2.5-2.5-2.5h-4.5v-5h4.5c4.136,0,7.5,3.364,7.5,7.5v1Zm-3.423,3.914c-.37.498-1.577,2.19-1.577,3.086,0,.668.26,1.295.732,1.768.472.473,1.1.732,1.768.732s1.295-.26,1.768-.732.732-1.1.732-1.768c0-.896-1.208-2.588-1.628-3.145-.48-.471-1.262-.471-1.794.059Zm1.983,4.146c-.566.567-1.555.565-2.121,0-.283-.283-.439-.66-.439-1.061,0-.391.716-1.597,1.329-2.431.06-.058.14-.08.203-.08.039,0,.071.009.088.022.664.892,1.38,2.098,1.38,2.488,0,.4-.156.777-.439,1.061Z"/>
</svg>
