<?xml version="1.0" encoding="UTF-8"?>
<svg xmlns="http://www.w3.org/2000/svg" id="Layer_1" data-name="Layer 1" viewBox="0 0 24 24">
  <path d="m22.582,8.909l-.944-.888c.225-.462.363-.974.363-1.522v-3c0-1.93-1.57-3.5-3.5-3.5H5.5c-1.93,0-3.5,1.57-3.5,3.5v3c0,.546.137,1.057.361,1.518l-.946.891c-.899.847-1.415,2.041-1.415,3.276v7.314c0,2.481,2.019,4.5,4.5,4.5h15c2.481,0,4.5-2.019,4.5-4.5v-7.312c0-1.237-.517-2.432-1.418-3.279ZM3,3.5c0-1.378,1.122-2.5,2.5-2.5h13c1.378,0,2.5,1.122,2.5,2.5v3c0,1.378-1.122,2.5-2.5,2.5h-3.705c-.116,0-.229.041-.318.115l-2.334,1.93c-.081.072-.204.072-.294-.009l-2.277-1.918c-.09-.076-.205-.118-.322-.118h-3.749c-1.378,0-2.5-1.122-2.5-2.5v-3Zm-.07,5.357c.64.698,1.551,1.143,2.57,1.143h3.566l2.127,1.792c.232.206.523.309.812.309.285,0,.567-.1.789-.297l2.182-1.803h3.525c1.018,0,1.928-.445,2.568-1.141l.829.779c.159.149.297.316.424.491l-7.846,7.846c-1.365,1.365-3.585,1.365-4.95,0L1.678,10.127c.127-.174.265-.341.423-.49l.829-.781Zm20.07,10.643c0,1.93-1.57,3.5-3.5,3.5H4.5c-1.93,0-3.5-1.57-3.5-3.5v-7.314c0-.385.081-.759.203-1.119l7.615,7.615c.877.877,2.03,1.316,3.182,1.316s2.305-.439,3.182-1.316l7.614-7.614c.123.36.203.735.203,1.121v7.312ZM10.146,6.17l1.146-1.146-1.146-1.146c-.195-.195-.195-.512,0-.707s.512-.195.707,0l1.146,1.146,1.146-1.146c.195-.195.512-.195.707,0s.195.512,0,.707l-1.146,1.146,1.146,1.146c.195.195.195.512,0,.707-.098.098-.226.146-.354.146s-.256-.049-.354-.146l-1.146-1.146-1.146,1.146c-.098.098-.226.146-.354.146s-.256-.049-.354-.146c-.195-.195-.195-.512,0-.707Zm6.019,0l1.146-1.146-1.146-1.146c-.195-.195-.195-.512,0-.707s.512-.195.707,0l1.146,1.146,1.146-1.146c.195-.195.512-.195.707,0s.195.512,0,.707l-1.146,1.146,1.146,1.146c.195.195.195.512,0,.707-.098.098-.226.146-.354.146s-.256-.049-.354-.146l-1.146-1.146-1.146,1.146c-.098.098-.226.146-.354.146s-.256-.049-.354-.146c-.195-.195-.195-.512,0-.707Zm-11.999,0l1.146-1.146-1.146-1.146c-.195-.195-.195-.512,0-.707s.512-.195.707,0l1.146,1.146,1.146-1.146c.195-.195.512-.195.707,0s.195.512,0,.707l-1.146,1.146,1.146,1.146c.195.195.195.512,0,.707-.098.098-.226.146-.354.146s-.256-.049-.354-.146l-1.146-1.146-1.146,1.146c-.098.098-.226.146-.354.146s-.256-.049-.354-.146c-.195-.195-.195-.512,0-.707Z"/>
</svg>
