<?xml version="1.0" encoding="UTF-8"?>
<svg xmlns="http://www.w3.org/2000/svg" id="Layer_1" data-name="Layer 1" viewBox="0 0 24 24">
  <path d="m22.826,9.315c-1.252-1.223-4.477-2.047-8.653-2.259.509-.538.826-1.259.826-2.056,0-1.279-.808-2.365-1.937-2.796.331-.504,1.073-1.204,2.437-1.204.276,0,.5-.224.5-.5s-.224-.5-.5-.5c-2.061,0-3.093,1.242-3.465,2.004-.012,0-.023-.004-.035-.004s-.023.003-.035.004c-.372-.761-1.404-2.004-3.465-2.004-.276,0-.5.224-.5.5s.224.5.5.5c1.364,0,2.106.7,2.437,1.204-1.129.431-1.937,1.517-1.937,2.796,0,.797.318,1.518.826,2.056-4.176.212-7.401,1.036-8.653,2.259-.757.74-1.174,1.724-1.174,2.772s.417,2.031,1.174,2.771c.777.76,1.799,1.14,2.82,1.14s2.042-.38,2.819-1.14c.08-.078.171-.177.258-.268.349,3.22,1.962,6.873,3.166,8.515.417.569,1.06.896,1.763.896s1.346-.326,1.763-.896c1.204-1.643,2.816-5.295,3.166-8.516.087.092.178.19.258.268.777.76,1.799,1.14,2.819,1.14s2.043-.38,2.82-1.14c.757-.739,1.174-1.724,1.174-2.771s-.417-2.032-1.174-2.772Zm-8.066,9.685h-5.521c-.249-.64-.477-1.315-.669-2h6.858c-.192.685-.42,1.36-.669,2Zm-6.442-3c-.15-.68-.256-1.355-.298-2h7.958c-.042.645-.148,1.32-.298,2h-7.363Zm.115-3c.496-.618,1.023-1.301,1.553-2h4.026c.53.699,1.057,1.382,1.553,2h-7.133Zm2.307-3c.115-.153.231-.308.344-.458.321-.428.624-.831.915-1.215.291.384.594.787.915,1.215.113.151.229.305.344.458h-2.518Zm-.741-5c0-1.103.897-2,2-2s2,.897,2,2-.897,2-2,2-2-.897-2-2Zm-3.886,9.143c-1.171,1.143-3.072,1.143-4.241,0-.562-.55-.873-1.28-.873-2.056s.311-1.506.873-2.057c1.154-1.127,4.746-1.912,9.11-2.018-.225.297-.459.609-.698.929-1.482,1.977-3.163,4.217-4.171,5.201Zm6.842,8.37c-.453.619-1.459.619-1.912,0-.429-.584-.922-1.473-1.387-2.513h4.685c-.464,1.04-.958,1.928-1.387,2.513Zm9.171-8.37c-1.169,1.143-3.07,1.143-4.241,0-1.008-.984-2.688-3.225-4.171-5.201-.239-.32-.474-.632-.698-.929,4.364.106,7.956.89,9.11,2.018.562.55.873,1.281.873,2.057s-.311,1.506-.873,2.056Z"/>
</svg>
