<?xml version="1.0" encoding="UTF-8"?>
<svg xmlns="http://www.w3.org/2000/svg" id="Layer_1" data-name="Layer 1" viewBox="0 0 24 24">
  <path d="m23.147,6.146l-3.89,3.871c-.912-.531-2.092-1.016-3.258-1.016-.109,0-.203.004-.301.008L23.854.854c.195-.195.195-.512,0-.707s-.512-.195-.707,0l-8.154,8.154c.003-.097.008-.192.008-.301,0-1.176-.494-2.366-1.031-3.281l3.883-3.864c.196-.195.196-.512.002-.707-.195-.197-.512-.195-.707-.002l-3.739,3.721c-.097-.13-.191-.247-.276-.347-.564-.66-1.699-.66-2.264,0-.623.727-1.624,2.295-1.825,3.918-.587-.57-1.637-.547-2.175.082-.623.727-1.624,2.295-1.825,3.918-.587-.57-1.637-.547-2.175.082-.694.811-1.868,2.667-1.868,4.48,0,2.059,1.211,3.76,1.813,4.48L.146,23.146c-.195.195-.195.512,0,.707.098.098.226.146.354.146s.256-.049.354-.146l2.667-2.667c.72.602,2.421,1.813,4.48,1.813,1.813,0,3.67-1.174,4.48-1.868.33-.282.52-.695.52-1.132,0-.395-.162-.766-.436-1.043,1.623-.202,3.19-1.203,3.916-1.825.33-.282.52-.695.52-1.132,0-.395-.162-.766-.436-1.043,1.623-.202,3.19-1.203,3.916-1.825.33-.282.52-.695.52-1.132s-.189-.85-.52-1.132c-.105-.09-.23-.189-.368-.292l3.74-3.722c.196-.195.196-.512.002-.707-.195-.197-.512-.195-.707-.002Zm-11.52-1.976c.127-.148.287-.17.372-.17s.245.021.372.17c.784.916,1.628,2.506,1.628,3.83,0,1.061-.597,1.857-.671,1.964l-2.337,2.337c.003-.097.008-.192.008-.301,0-1.141-.464-2.297-.982-3.201,0-.02-.018-.642-.018-.799,0-1.324.844-2.914,1.628-3.83Zm-4,4c.127-.148.287-.17.372-.17s.245.021.372.17c.784.916,1.628,2.506,1.628,3.83,0,1.061-.597,1.857-.671,1.964l-2.337,2.337c.003-.097.008-.192.008-.301,0-1.142-.466-2.3-.984-3.204.002-.027-.016-.638-.016-.796,0-1.324.844-2.914,1.628-3.83Zm-5.628,7.83c0-1.324.844-2.914,1.628-3.83.127-.148.287-.17.372-.17s.245.021.372.17c.784.916,1.628,2.506,1.628,3.83,0,1.061-.597,1.857-.671,1.964l-1.803,1.803c-.532-.657-1.526-2.105-1.526-3.767Zm9.83,4.372c-.916.784-2.506,1.628-3.83,1.628-1.662,0-3.11-.994-3.767-1.526l1.803-1.803c.107-.074.903-.671,1.964-.671,1.324,0,2.914.844,3.83,1.628.148.127.17.287.17.372s-.021.245-.17.372Zm4-4c-.916.784-2.506,1.628-3.83,1.628,0,0-.648.012-.763.004-.909-.526-2.08-1.004-3.237-1.004-.109,0-.203.004-.301.008l2.337-2.337c.107-.074.903-.671,1.964-.671,1.324,0,2.914.844,3.83,1.628.148.127.17.287.17.372s-.021.245-.17.372Zm4-4c-.916.784-2.506,1.628-3.83,1.628-.15,0-.62-.006-.804-.021-.903-.516-2.058-.979-3.196-.979-.109,0-.203.004-.301.008l2.337-2.337c.107-.074.903-.671,1.964-.671,1.324,0,2.914.844,3.83,1.628.148.127.17.287.17.372s-.021.245-.17.372Z"/>
</svg>
