<?xml version="1.0" encoding="UTF-8"?>
<svg xmlns="http://www.w3.org/2000/svg" id="Layer_1" data-name="Layer 1" viewBox="0 0 24 24">
  <path d="m21.576,7.544l-2.576-3.22v-1.824c0-1.378-1.121-2.5-2.5-2.5H7.5c-1.379,0-2.5,1.122-2.5,2.5v1.824l-2.576,3.22c-.918,1.148-1.424,2.59-1.424,4.06v8.396c0,2.206,1.794,4,4,4h14c2.206,0,4-1.794,4-4v-8.396c0-1.47-.506-2.912-1.424-4.061ZM6,2.5c0-.827.673-1.5,1.5-1.5h9c.827,0,1.5.673,1.5,1.5v1.5H6v-1.5Zm-2.795,5.669l2.535-3.169h11.719l-2.036,2.544c-.354.443-.626.94-.852,1.456H2.662c.156-.291.335-.571.543-.831Zm1.795,14.831c-1.654,0-3-1.346-3-3v-8.396c0-.547.096-1.086.255-1.604h11.971c-.134.524-.226,1.059-.226,1.604v8.396c0,1.2.542,2.266,1.382,3H5Zm17-3c0,1.654-1.346,3-3,3h-1c-1.654,0-3-1.346-3-3v-8.396c0-1.244.428-2.464,1.205-3.436l2.314-2.892,2.276,2.892c.777.972,1.205,2.192,1.205,3.436v8.396Z"/>
</svg>
