<?xml version="1.0" encoding="UTF-8"?>
<svg xmlns="http://www.w3.org/2000/svg" id="Layer_1" data-name="Layer 1" viewBox="0 0 24 24">
  <path d="m21.647,2.355l-.003-.002C20.127.835,18.108-.001,15.961-.001s-4.166.836-5.684,2.354c-2.265,2.265-3.018,7.665-3.266,10.682-.075.91.188,1.802.73,2.517l-3.206,3.206c-.244-1.007-1.153-1.758-2.235-1.758-1.268,0-2.3,1.032-2.3,2.3,0,1.303,1.096,2.361,2.402,2.298-.001.034-.002.068-.002.103,0,1.268,1.032,2.3,2.3,2.3s2.3-1.032,2.3-2.3c0-1.081-.761-1.983-1.762-2.231l3.21-3.21c.634.481,1.409.742,2.213.742.101,0,.203-.004.304-.012,3.018-.248,8.417-1.001,10.683-3.266,3.134-3.134,3.134-8.233,0-11.368ZM1,19.3c0-.717.583-1.3,1.3-1.3s1.3.583,1.3,1.3c0,.167-.036.335-.107.5l-.693.693c-.869.371-1.8-.308-1.8-1.193Zm5,2.4c0,.717-.583,1.3-1.3,1.3s-1.3-.583-1.3-1.3c0-.167.036-.335.107-.5l.692-.692c.872-.369,1.802.307,1.801,1.192Zm14.94-8.684c-2.115,2.115-7.738,2.786-10.058,2.976-.79.063-1.552-.215-2.107-.77s-.832-1.319-.768-2.104c.19-2.319.861-7.942,2.976-10.057,1.33-1.329,3.097-2.062,4.977-2.062,1.866,0,3.622.722,4.98,2.063h0c2.744,2.745,2.744,7.21,0,9.955Z"/>
</svg>
