<?xml version="1.0" encoding="UTF-8"?>
<svg xmlns="http://www.w3.org/2000/svg" id="Layer_1" data-name="Layer 1" viewBox="0 0 24 24">
  <path d="m24,16.5c0,.276-.224.5-.5.5h-1.5v6.5c0,.276-.224.5-.5.5s-.5-.224-.5-.5v-6.5h-1.5c-.276,0-.5-.224-.5-.5s.224-.5.5-.5h4c.276,0,.5.224.5.5Zm-5.038,6.916c.061.303-.171.585-.48.584-.23-.001-.428-.164-.475-.389l-.33-1.611h-2.353l-.321,1.594c-.046.228-.247.392-.48.391h-.018c-.307-.002-.536-.283-.475-.583l1.267-6.317c.08-.398.558-1.085,1.195-1.085s1.11.658,1.203,1.116l1.268,6.3Zm-1.49-2.416l-.756-3.687c-.037-.184-.126-.281-.163-.299-.024-.012-.044-.017-.061-.017-.006,0-.026,0-.055.017-.075.044-.139.149-.162.266l-.749,3.719h1.946Zm-6.099-1.468c-.31-.116-1.189-.466-1.523-.67-.325-.231-.477-.568-.428-.948.053-.398.316-.723.687-.846.56-.185,1.121-.009,1.768.553.209.181.524.158.706-.051.181-.208.158-.524-.05-.705-.914-.792-1.835-1.045-2.736-.746-.739.244-1.262.882-1.366,1.665-.097.753.208,1.443.88,1.917.492.306,1.587.721,1.699.763,1.051.425,1.013,1.203.976,1.432-.104.64-.669,1.104-1.342,1.104-.524,0-1.348-.367-1.761-.787-.195-.195-.511-.199-.707-.004-.197.193-.199.51-.005.707.526.532,1.595,1.084,2.473,1.084,1.166,0,2.146-.817,2.33-1.944.132-.812-.206-1.96-1.6-2.523Zm12.627-13.032v7c0,.276-.224.5-.5.5s-.5-.224-.5-.5v-4.5H1v10.5c0,1.93,1.57,3.5,3.5,3.5h1c.276,0,.5.224.5.5s-.224.5-.5.5h-1c-2.481,0-4.5-2.019-4.5-4.5V6.5C0,4.019,2.019,2,4.5,2h1.5V.5c0-.276.224-.5.5-.5s.5.224.5.5v1.5h10V.5c0-.276.224-.5.5-.5s.5.224.5.5v1.5h1.5c2.481,0,4.5,2.019,4.5,4.5Zm-1,1.5v-1.5c0-1.93-1.57-3.5-3.5-3.5H4.5c-1.93,0-3.5,1.57-3.5,3.5v1.5h22Z"/>
</svg>
