<?xml version="1.0" encoding="UTF-8"?>
<svg xmlns="http://www.w3.org/2000/svg" id="Layer_1" data-name="Layer 1" viewBox="0 0 24 24">
  <path d="m7.852,11.319c-.971-1.028-2.737-1.022-3.696-.007l-2.398,2.445c-2.339,2.339-2.339,6.146,0,8.485,1.133,1.133,2.64,1.757,4.242,1.757s3.109-.624,4.243-1.757c2.339-2.339,2.339-6.146.003-8.482l-2.395-2.442Zm1.684,10.217c-.944.944-2.2,1.464-3.536,1.464s-2.591-.52-3.535-1.464c-1.95-1.95-1.95-5.122.003-7.075l2.408-2.456c.295-.312.694-.485,1.124-.485s.829.172,1.131.492l2.405,2.452c1.95,1.95,1.95,5.122,0,7.071Zm12.873-12.904l-2.21-2.477c-.937-.916-2.461-.917-3.42.025l-2.167,2.431c-2.145,2.145-2.145,5.634,0,7.778,1.039,1.039,2.42,1.611,3.889,1.611s2.85-.572,3.889-1.611c2.145-2.145,2.145-5.634.02-7.758Zm-.727,7.051c-.85.85-1.98,1.318-3.182,1.318s-2.332-.468-3.182-1.318c-1.754-1.755-1.754-4.609.02-6.385l2.163-2.427c.279-.272.646-.407,1.009-.407.354,0,.706.128.966.382l2.206,2.473c1.754,1.755,1.754,4.609,0,6.364ZM10.122.458c-.618-.605-1.624-.605-2.249.005l-1.702,1.709c-.756.755-1.172,1.76-1.172,2.828s.416,2.073,1.172,2.829,1.76,1.171,2.828,1.171,2.073-.416,2.829-1.171c1.56-1.56,1.56-4.098,0-5.656l-1.708-1.715Zm1,6.664c-1.134,1.133-3.11,1.133-4.243,0-.567-.567-.879-1.32-.879-2.122s.312-1.555.88-2.122l1.698-1.706c.117-.115.271-.171.424-.171.152,0,.303.056.416.167l1.704,1.711c1.169,1.169,1.169,3.073,0,4.243Z"/>
</svg>
