<?xml version="1.0" encoding="UTF-8"?>
<svg xmlns="http://www.w3.org/2000/svg" id="Layer_1" data-name="Layer 1" viewBox="0 0 24 24">
  <path d="m19.443,9.622c.343-.635.557-1.351.557-2.122,0-2.481-2.019-4.5-4.5-4.5s-4.5,2.019-4.5,4.5c0,.529.108,1.029.276,1.5h-3.776c-4.136,0-7.5,3.364-7.5,7.5s3.364,7.5,7.5,7.5h9c4.136,0,7.5-3.364,7.5-7.5,0-3-1.822-5.704-4.557-6.878Zm-3.943-5.622c1.93,0,3.5,1.57,3.5,3.5s-1.57,3.5-3.5,3.5-3.5-1.57-3.5-3.5,1.57-3.5,3.5-3.5Zm1,19H7.5c-3.584,0-6.5-2.916-6.5-6.5s2.916-6.5,6.5-6.5h4.262c.808,1.205,2.182,2,3.738,2,1.346,0,2.541-.606,3.367-1.545,2.475.97,4.133,3.376,4.133,6.045,0,3.584-2.916,6.5-6.5,6.5Zm-3.5-9.5c0,.276-.224.5-.5.5h-5c-1.378,0-2.5,1.121-2.5,2.5s1.122,2.5,2.5,2.5c.276,0,.5.224.5.5s-.224.5-.5.5c-1.93,0-3.5-1.57-3.5-3.5s1.57-3.5,3.5-3.5h5c.276,0,.5.224.5.5Zm-6-7.5c1.654,0,3-1.346,3-3s-1.346-3-3-3-3,1.346-3,3,1.346,3,3,3Zm0-5c1.103,0,2,.897,2,2s-.897,2-2,2-2-.897-2-2,.897-2,2-2Zm15,3c1.103,0,2-.897,2-2s-.897-2-2-2-2,.897-2,2,.897,2,2,2Zm0-3c.551,0,1,.448,1,1s-.449,1-1,1-1-.448-1-1,.449-1,1-1Z"/>
</svg>
