<?xml version="1.0" encoding="UTF-8"?>
<svg xmlns="http://www.w3.org/2000/svg" id="Layer_1" data-name="Layer 1" viewBox="0 0 24 24">
  <path d="m23.944,18.798l-1.737-11c-.348-2.2-2.217-3.798-4.444-3.798h-3.775c.317-.419.512-.935.512-1.5,0-1.379-1.121-2.5-2.5-2.5s-2.5,1.121-2.5,2.5c0,.565.195,1.081.513,1.5h-3.775c-2.228,0-4.098,1.598-4.445,3.798L.056,18.798c-.206,1.302.167,2.623,1.024,3.625.856,1.003,2.103,1.577,3.421,1.577h14.998c1.318,0,2.565-.575,3.422-1.577.855-1.002,1.229-2.323,1.023-3.625ZM10.5,2.5c0-.827.673-1.5,1.5-1.5s1.5.673,1.5,1.5-.673,1.5-1.5,1.5-1.5-.673-1.5-1.5Zm11.66,19.273c-.666.779-1.636,1.227-2.661,1.227H4.501c-1.025,0-1.995-.447-2.661-1.227-.666-.779-.957-1.807-.797-2.819l1.737-11c.271-1.712,1.725-2.954,3.458-2.954h11.525c1.732,0,3.187,1.242,3.456,2.954l1.737,11c.16,1.013-.13,2.04-.796,2.819Zm-12.66-9.379c0,.685.49,1.264,1.166,1.376l2.833.473c1.159.193,2.001,1.187,2.001,2.362,0,1.32-1.074,2.395-2.395,2.395h-.605v.5c0,.276-.224.5-.5.5s-.5-.224-.5-.5v-.5h-.5c-1.378,0-2.5-1.121-2.5-2.5,0-.276.224-.5.5-.5s.5.224.5.5c0,.827.673,1.5,1.5,1.5h2.105c.769,0,1.395-.626,1.395-1.395,0-.685-.49-1.264-1.165-1.376l-2.833-.473c-1.16-.193-2.001-1.187-2.001-2.362,0-1.32,1.074-2.395,2.395-2.395h.605v-.5c0-.276.224-.5.5-.5s.5.224.5.5v.5h.5c1.379,0,2.5,1.121,2.5,2.5,0,.276-.224.5-.5.5s-.5-.224-.5-.5c0-.827-.673-1.5-1.5-1.5h-2.105c-.769,0-1.395.626-1.395,1.395Z"/>
</svg>
