<?xml version="1.0" encoding="UTF-8"?>
<svg xmlns="http://www.w3.org/2000/svg" id="Layer_1" data-name="Layer 1" viewBox="0 0 24 24">
  <path d="m19.547,5.16l1.307-1.307c.195-.195.195-.512,0-.707s-.512-.195-.707,0l-1.306,1.306C15.776,1.597,11.483.099,6.071,0c-.314-.012-.554.102-.757.301-.202.199-.314.465-.314.762,0,.495.338.916.824,1.023,3.276.72,7.136,2.834,9.956,5.428L.146,23.146c-.195.195-.195.512,0,.707.098.098.226.146.354.146s.256-.049.354-.146l15.633-15.633c2.604,2.827,4.718,6.684,5.44,9.956.105.479.535.823,1.023.823.006,0,.013-.004.016,0,.281-.005.543-.118.738-.32s.3-.468.295-.749c-.098-5.397-1.587-9.682-4.453-12.77Zm3.404,12.84l-.047-.038c-.798-3.618-3.193-7.832-6.105-10.862C13.777,4.198,9.66,1.906,6.039,1.109l.013-.109c5.35.098,9.531,1.609,12.428,4.491,0-.001-.001-.002,0,0,2.89,2.896,4.423,7.1,4.505,12.492-.01.011-.021.016-.035.016Zm-4.471-12.509h0c.004.005,0,.002,0,0Zm-1.681,1.609s.014.011,0,0h0Z"/>
</svg>
