<?xml version="1.0" encoding="UTF-8"?>
<svg xmlns="http://www.w3.org/2000/svg" id="Layer_1" data-name="Layer 1" viewBox="0 0 24 24">
  <path d="m18.764,2.216L12.157.026c-.102-.034-.213-.034-.314,0l-6.606,2.19c-1.936.642-3.236,2.443-3.236,4.482v5.236c0,6.609,7.16,10.703,9.354,11.8l.425.212c.07.035.147.053.224.053.063,0,.126-.012.187-.036l.441-.177c2.198-.885,9.37-4.353,9.37-11.852v-5.236c0-2.039-1.3-3.841-3.236-4.482Zm2.236,9.719c0,6.872-6.692,10.099-8.743,10.924l-.232.093-.224-.112c-2.065-1.032-8.801-4.87-8.801-10.906v-5.236c0-1.607,1.025-3.027,2.551-3.533l6.449-2.138,6.449,2.138c1.526.506,2.551,1.926,2.551,3.533v5.236Z"/>
  <path d="m17,8h-4.5V3c0-.276-.224-.5-.5-.5s-.5.224-.5.5v5h-4.5c-.276,0-.5.224-.5.5s.224.5.5.5h4.5v11.472c0,.276.224.5.5.5s.5-.224.5-.5v-11.472h4.5c.276,0,.5-.224.5-.5s-.224-.5-.5-.5Z"/>
</svg>
