<?xml version="1.0" encoding="UTF-8"?>
<svg xmlns="http://www.w3.org/2000/svg" id="Layer_1" data-name="Layer 1" viewBox="0 0 24 24">
  <path d="m23.472,5.521l-.619-.618c-.005-.006-.011-.011-.017-.016l-1.296-1.182c-.912-2.216-3.338-3.706-6.041-3.706-3.023,0-5.593,1.116-7.236,3.143-.281.347-.336.812-.146,1.213.189.397.581.645,1.021.645h.915c-.937.99-1.555,2.375-1.555,3.654,0,1.597.932,3.046,1.714,3.98.275.331.716.449,1.118.302.406-.147.668-.521.668-.953v-.373c1.059,1.818,2.872,4.403,5,6.122v4.268c0,.552-.449,1-1,1s-1-.448-1-1v-2.5c0-.276-.224-.5-.5-.5h-7c-.276,0-.5.224-.5.5v2.5c0,.552-.449,1-1,1s-1-.448-1-1v-4c-.119-.405-.262-.909-.38-1.256-.35-1.03-.627-1.844-.62-3.241.007-1.403,1.105-2.503,2.5-2.503.276,0,.5-.224.5-.5s-.224-.5-.5-.5c-.895,0-1.694.334-2.307.873-.244.052-3.044.789-3.592,6.213-.353.155-.601.505-.601.915,0,.313.321,1.312.599,1.773.182.302.619.302.802,0,.278-.462.599-1.46.599-1.773,0-.327-.167-.603-.409-.786.226-2.262.86-3.586,1.474-4.348-.037.205-.064.414-.065.63-.008,1.565.323,2.538.673,3.568.107.315.219.644.327,1.007v3.928c0,1.103.897,2,2,2s2-.897,2-2v-2h6v2c0,1.103.897,2,2,2s2-.897,2-2v-4.343c.774-1.122,2.319-4.246,2.899-6.657h.601c1.378,0,2.5-1.121,2.5-2.5v-1.704c0-.481-.188-.935-.528-1.274Zm-6.084,11.243c-2.901-2.465-5.191-6.646-5.407-7.401-.069-.24-.303-.391-.55-.358-.247.034-.431.246-.431.495l-.019,2.494c-.675-.809-1.481-2.044-1.481-3.34,0-1.385,1.003-3.051,2.237-3.714.202-.108.304-.34.248-.562s-.256-.378-.485-.378h-2.36c-.055,0-.095-.025-.119-.074-.014-.031-.031-.091.019-.153,1.45-1.788,3.744-2.772,6.459-2.772,1.886,0,3.593.841,4.571,2.157-.962.246-1.818.812-2.385,1.641-.639.934-.841,2.058-.568,3.167.337,1.365,1.433,2.431,2.792,2.844-.511,2.107-1.792,4.757-2.523,5.956Zm5.612-8.265c0,.827-.673,1.5-1.5,1.5h-.362c-1.441,0-2.723-.957-3.048-2.274-.204-.828-.054-1.668.422-2.363.458-.668,1.158-1.131,1.946-1.291l1.697,1.547.611.61c.151.151.235.353.235.567v1.704Z"/>
</svg>
