<?xml version="1.0" encoding="UTF-8"?>
<svg xmlns="http://www.w3.org/2000/svg" id="Layer_1" data-name="Layer 1" viewBox="0 0 24 24">
  <path d="m20.5,13h-8c-1.93,0-3.5,1.57-3.5,3.5v4c0,1.93,1.57,3.5,3.5,3.5h8c1.93,0,3.5-1.57,3.5-3.5v-4c0-1.93-1.57-3.5-3.5-3.5Zm2.5,7.5c0,1.379-1.121,2.5-2.5,2.5h-8c-1.378,0-2.5-1.121-2.5-2.5v-4c0-1.379,1.122-2.5,2.5-2.5h8c1.379,0,2.5,1.121,2.5,2.5v4Zm-10-3.5v3c0,.552.448,1,1,1s1-.448,1-1c0-.276.224-.5.5-.5s.5.224.5.5c0,1.103-.897,2-2,2s-2-.897-2-2v-3c0-1.103.897-2,2-2s2,.897,2,2c0,.276-.224.5-.5.5s-.5-.224-.5-.5c0-.552-.448-1-1-1s-1,.448-1,1Zm1-11c0-3.309-2.691-6-6-6S2,2.691,2,6s2.691,6,6,6,6-2.691,6-6Zm-6,5c-2.757,0-5-2.243-5-5S5.243,1,8,1s5,2.243,5,5-2.243,5-5,5Zm0,3.483c.018.276-.191.514-.466.532-3.663.24-6.533,3.309-6.533,6.984v1.5c0,.276-.224.5-.5.5s-.5-.224-.5-.5v-1.5c0-4.201,3.28-7.707,7.467-7.982.273-.023.513.191.532.466Zm13.318,1.363l-1.031,5.041c-.086.444-.402,1.111-1.216,1.111s-1.141-.704-1.216-1.097l-1.097-5.05c-.067-.306.167-.596.48-.596h.028c.232,0,.432.162.48.388l1.089,5.057c.024.127.084.227.159.272.049.032.094.034.144.007.063-.032.138-.133.168-.289l1.05-5.044c.047-.228.248-.391.481-.391.311,0,.544.285.482.59Z"/>
</svg>
