<?xml version="1.0" encoding="UTF-8"?>
<svg xmlns="http://www.w3.org/2000/svg" id="Layer_1" data-name="Layer 1" viewBox="0 0 24 24">
  <path d="m23.5,21h-9.051c-.199-.978-.971-1.75-1.949-1.949v-4.051h5c1.93,0,3.5-1.57,3.5-3.5v-6c0-1.93-1.57-3.5-3.5-3.5h-4.879c-.305,0-.599-.091-.849-.264h0s-1.885-1.296-1.885-1.296c-.418-.288-.908-.44-1.417-.44h-1.97c-1.93,0-3.5,1.57-3.5,3.5v8c0,1.93,1.57,3.5,3.5,3.5h5v4.051c-.978.199-1.75.971-1.949,1.949H.5c-.276,0-.5.224-.5.5s.224.5.5.5h9.051c.232,1.14,1.242,2,2.449,2s2.217-.86,2.449-2h9.051c.276,0,.5-.224.5-.5s-.224-.5-.5-.5ZM6.5,1h1.97c.305,0,.599.091.85.264l1.885,1.296c.418.288.908.44,1.416.44h4.879c1.378,0,2.5,1.122,2.5,2.5v.5H4v-2.5c0-1.378,1.122-2.5,2.5-2.5Zm-2.5,10.5v-4.5h16v4.5c0,1.378-1.122,2.5-2.5,2.5H6.5c-1.378,0-2.5-1.122-2.5-2.5Zm8,11.5c-.827,0-1.5-.673-1.5-1.5s.673-1.5,1.5-1.5,1.5.673,1.5,1.5-.673,1.5-1.5,1.5Z"/>
</svg>
