<?xml version="1.0" encoding="UTF-8"?>
<svg xmlns="http://www.w3.org/2000/svg" id="Layer_1" data-name="Layer 1" viewBox="0 0 24 24">
  <path d="m9.854,11.854l-2.589,2.589c-.372.372-.858.559-1.346.559-.46,0-.92-.166-1.286-.502l-1.478-1.41c-.2-.19-.207-.507-.017-.707.19-.199.508-.207.707-.017l1.471,1.404c.351.319.9.311,1.242-.034l2.589-2.589c.195-.195.512-.195.707,0s.195.512,0,.707Zm.646,11.146h-6c-1.93,0-3.5-1.57-3.5-3.5V6.5c0-1.93,1.57-3.5,3.5-3.5h1c.276,0,.5-.224.5-.5,0-.827.673-1.5,1.5-1.5h3c.827,0,1.5.673,1.5,1.5,0,.276.224.5.5.5h1c1.93,0,3.5,1.57,3.5,3.5v4c0,.276.224.5.5.5s.5-.224.5-.5v-4c0-2.481-2.019-4.5-4.5-4.5h-.55c-.232-1.14-1.242-2-2.45-2h-3c-1.208,0-2.217.86-2.45,2h-.55C2.019,2,0,4.019,0,6.5v13c0,2.481,2.019,4.5,4.5,4.5h6c.276,0,.5-.224.5-.5s-.224-.5-.5-.5Zm-1.354-6.854l-2.589,2.589c-.342.345-.891.354-1.242.034l-1.471-1.403c-.199-.191-.517-.184-.707.017-.19.199-.183.516.017.706l1.478,1.41c.366.336.826.502,1.286.502.487,0,.974-.187,1.346-.559l2.589-2.589c.195-.195.195-.512,0-.707s-.512-.195-.707,0Zm10.354-.146h-3c-.276,0-.5.224-.5.5s.224.5.5.5h3c.276,0,.5-.224.5-.5s-.224-.5-.5-.5Zm4.5.5v4c0,1.93-1.57,3.5-3.5,3.5h-5c-1.93,0-3.5-1.57-3.5-3.5v-4c0-1.93,1.57-3.5,3.5-3.5h5c1.93,0,3.5,1.57,3.5,3.5Zm-1,0c0-1.379-1.121-2.5-2.5-2.5h-5c-1.379,0-2.5,1.121-2.5,2.5v4c0,1.379,1.121,2.5,2.5,2.5h5c1.379,0,2.5-1.121,2.5-2.5v-4Zm-8-8c0-.276-.224-.5-.5-.5h-3c-.276,0-.5.224-.5.5s.224.5.5.5h3c.276,0,.5-.224.5-.5Zm-5.146-2.354c-.195-.195-.512-.195-.707,0l-2.589,2.589c-.344.343-.892.354-1.242.034l-1.471-1.404c-.199-.189-.517-.182-.707.017-.19.2-.183.516.017.707l1.478,1.411c.366.335.826.501,1.286.501.488,0,.975-.187,1.346-.559l2.589-2.589c.195-.195.195-.512,0-.707Z"/>
</svg>
