<?xml version="1.0" encoding="UTF-8"?>
<svg xmlns="http://www.w3.org/2000/svg" id="Layer_1" data-name="Layer 1" viewBox="0 0 24 24">
  <path d="m13,11.5c0,.276-.224.5-.5.5h-2.492l-1.438,8.271c-.376,2.16-2.241,3.729-4.434,3.729h-.636c-.276,0-.5-.224-.5-.5s.224-.5.5-.5h.636c1.706,0,3.156-1.22,3.448-2.9l1.408-8.1h-2.492c-.276,0-.5-.224-.5-.5s.224-.5.5-.5h2.666l1.264-7.271c.376-2.16,2.241-3.729,4.434-3.729h.636c.276,0,.5.224.5.5s-.224.5-.5.5h-.636c-1.706,0-3.156,1.22-3.448,2.9l-1.234,7.1h2.318c.276,0,.5.224.5.5Zm5.125,8l2.775-3.7c.166-.221.121-.534-.1-.7-.22-.165-.533-.12-.7.101l-2.6,3.467-2.6-3.467c-.166-.222-.48-.267-.7-.101-.221.166-.266.479-.1.7l2.775,3.7-2.775,3.7c-.166.221-.121.534.1.7.09.067.195.1.299.1.152,0,.302-.069.4-.2l2.6-3.467,2.6,3.467c.098.131.248.2.4.2.104,0,.209-.032.299-.1.221-.166.266-.479.1-.7l-2.775-3.7Z"/>
</svg>
