<?xml version="1.0" encoding="UTF-8"?>
<svg xmlns="http://www.w3.org/2000/svg" id="Layer_1" data-name="Layer 1" viewBox="0 0 24 24">
  <path d="m13,16.5c0,.276-.224.5-.5.5h-1.5v6.5c0,.276-.224.5-.5.5s-.5-.224-.5-.5v-6.5h-1.5c-.276,0-.5-.224-.5-.5s.224-.5.5-.5h4c.276,0,.5.224.5.5Zm10.5.5c.276,0,.5-.224.5-.5s-.224-.5-.5-.5h-2.5c-.552,0-1,.448-1,1v6c0,.552.448,1,1,1h2.5c.276,0,.5-.224.5-.5s-.224-.5-.5-.5h-2.5v-2.5h2.5c.276,0,.5-.224.5-.5s-.224-.5-.5-.5h-2.5v-2.5h2.5Zm-5-1c-.276,0-.5.224-.5.5v5c0,.827-.673,1.5-1.5,1.5s-1.5-.673-1.5-1.5v-5c0-.276-.224-.5-.5-.5s-.5.224-.5.5v5c0,1.379,1.121,2.5,2.5,2.5s2.5-1.121,2.5-2.5v-5c0-.276-.224-.5-.5-.5Zm5.5-9.5v7c0,.276-.224.5-.5.5s-.5-.224-.5-.5v-4.5H1v10.5c0,1.93,1.57,3.5,3.5,3.5h3c.276,0,.5.224.5.5s-.224.5-.5.5h-3c-2.481,0-4.5-2.019-4.5-4.5V6.5C0,4.019,2.019,2,4.5,2h1.5V.5c0-.276.224-.5.5-.5s.5.224.5.5v1.5h10V.5c0-.276.224-.5.5-.5s.5.224.5.5v1.5h1.5c2.481,0,4.5,2.019,4.5,4.5Zm-1,1.5v-1.5c0-1.93-1.57-3.5-3.5-3.5H4.5c-1.93,0-3.5,1.57-3.5,3.5v1.5h22Z"/>
</svg>
