<?xml version="1.0" encoding="UTF-8"?>
<svg xmlns="http://www.w3.org/2000/svg" id="Layer_1" data-name="Layer 1" viewBox="0 0 24 24">
  <path d="m15.121,24c-1.092,0-2.115-.53-2.808-1.453-.149-.198-.478-.198-.627,0h0c-.692.923-1.716,1.453-2.808,1.453-2.139,0-3.879-1.682-3.879-3.75,0-.562.23-1.194.571-1.821-.627.34-1.259.571-1.821.571-2.068,0-3.75-1.74-3.75-3.879,0-1.092.53-2.115,1.453-2.808.099-.075.156-.189.156-.313s-.057-.239-.157-.313c-.923-.692-1.453-1.716-1.453-2.808,0-2.139,1.682-3.879,3.75-3.879.562,0,1.194.23,1.821.571-.34-.627-.571-1.259-.571-1.821,0-2.068,1.74-3.75,3.879-3.75,1.092,0,2.115.53,2.808,1.453.149.198.478.199.627,0,.692-.923,1.716-1.453,2.808-1.453,2.139,0,3.879,1.682,3.879,3.75,0,.562-.23,1.194-.571,1.821.627-.34,1.259-.571,1.821-.571,2.068,0,3.75,1.74,3.75,3.879,0,1.092-.53,2.115-1.453,2.808-.099.075-.156.189-.156.313s.057.239.157.313c.923.692,1.453,1.716,1.453,2.808,0,2.139-1.682,3.879-3.75,3.879-.562,0-1.194-.23-1.821-.571.34.627.571,1.259.571,1.821,0,2.068-1.74,3.75-3.879,3.75Zm-3.121-2.609c.442,0,.848.203,1.113.556.502.669,1.233,1.053,2.008,1.053,1.39,0,2.879-1.105,2.879-2.75,0-.923-1.147-2.689-2.854-4.396-.098-.098-.146-.226-.146-.354s.049-.256.146-.354c.195-.195.512-.195.707,0,1.707,1.707,3.474,2.854,4.396,2.854,1.645,0,2.75-1.489,2.75-2.879,0-.774-.384-1.506-1.053-2.008-.354-.266-.557-.671-.557-1.113s.203-.848.556-1.113c.669-.502,1.053-1.233,1.053-2.008,0-1.39-1.105-2.879-2.75-2.879-.923,0-2.689,1.147-4.396,2.854-.195.195-.512.195-.707,0-.098-.098-.146-.226-.146-.354s.049-.256.146-.354c1.707-1.707,2.854-3.474,2.854-4.396,0-1.645-1.489-2.75-2.879-2.75-.774,0-1.506.384-2.008,1.053-.531.708-1.695.708-2.227,0-.502-.669-1.233-1.053-2.008-1.053-1.39,0-2.879,1.105-2.879,2.75,0,.923,1.147,2.689,2.854,4.396.098.098.146.226.146.354s-.049.256-.146.354c-.195.195-.512.195-.707,0-1.707-1.707-3.474-2.854-4.396-2.854-1.645,0-2.75,1.489-2.75,2.879,0,.774.384,1.506,1.053,2.008.354.266.557.671.557,1.113s-.203.848-.556,1.113c-.669.502-1.053,1.233-1.053,2.008,0,1.39,1.105,2.879,2.75,2.879.923,0,2.689-1.147,4.396-2.854.195-.195.512-.195.707,0,.098.098.146.226.146.354s-.049.256-.146.354c-1.707,1.707-2.854,3.474-2.854,4.396,0,1.645,1.489,2.75,2.879,2.75.774,0,1.506-.384,2.008-1.053h0c.266-.354.671-.557,1.113-.557Z"/>
</svg>
