<?xml version="1.0" encoding="UTF-8"?>
<svg xmlns="http://www.w3.org/2000/svg" id="Layer_1" data-name="Layer 1" viewBox="0 0 24 24">
  <path d="m12,3.5c-1.654,0-3,1.346-3,3s1.346,3,3,3,3-1.346,3-3-1.346-3-3-3Zm0,5c-1.103,0-2-.897-2-2s.897-2,2-2,2,.897,2,2-.897,2-2,2ZM18,0H6C3.794,0,2,1.794,2,4v5c0,2.206,1.794,4,4,4h5.499l-.015,9.847c-.057-.037-.119-.062-.168-.111l-3.456-3.583c-.191-.198-.508-.204-.707-.013-.199.192-.205.508-.013.707l3.462,3.589c.388.388.899.583,1.411.583s1.028-.195,1.422-.588l3.426-3.586c.191-.2.184-.516-.016-.707-.199-.191-.515-.184-.707.016l-3.417,3.577c-.07.069-.154.112-.237.156l.015-9.888h5.501c2.206,0,4-1.794,4-4v-5c0-2.206-1.794-4-4-4Zm3,9c0,1.654-1.346,3-3,3H6c-1.654,0-3-1.346-3-3v-5c0-1.654,1.346-3,3-3h12c1.654,0,3,1.346,3,3v5Zm-14,0c0,.552-.448,1-1,1s-1-.448-1-1,.448-1,1-1,1,.448,1,1Zm0-5c0,.552-.448,1-1,1s-1-.448-1-1,.448-1,1-1,1,.448,1,1Zm12,5c0,.552-.448,1-1,1s-1-.448-1-1,.448-1,1-1,1,.448,1,1Zm0-5c0,.552-.448,1-1,1s-1-.448-1-1,.448-1,1-1,1,.448,1,1Z"/>
</svg>
