<?xml version="1.0" encoding="UTF-8"?>
<svg xmlns="http://www.w3.org/2000/svg" id="Layer_1" data-name="Layer 1" viewBox="0 0 24 24">
  <path d="m15.541,9.246c-.853-1.448-2.118-2.246-3.563-2.246-1.409,0-2.639.772-3.549,2.223,0,0-6.066,9.136-6.077,9.158-.571,1.231-.477,2.648.253,3.792.73,1.145,1.976,1.827,3.333,1.827h12.084c1.357,0,2.604-.683,3.334-1.827.729-1.144.824-2.562.215-3.857l-6.029-9.07Zm-7.275,13.754l2.624-5.29c.202-.435.609-.695,1.089-.695h0c.48,0,.888.261,1.096.708l2.619,5.277h-7.427Zm12.246-1.365c-.545.854-1.477,1.365-2.49,1.365h-1.211l-2.835-5.711c-.365-.786-1.13-1.274-1.997-1.274h0c-.867,0-1.631.489-1.99,1.263l-2.839,5.723h-1.212c-1.014,0-1.944-.51-2.49-1.364-.539-.845-.614-1.889-.204-2.8l6.025-9.071c.505-.805,1.386-1.765,2.709-1.765,1.092,0,2.026.606,2.717,1.776l6.007,9.026c.427.919.356,1.978-.189,2.832Zm3.488-11.135v2.5c0,.276-.224.5-.5.5s-.5-.224-.5-.5v-2.5c0-3.033-2.468-5.5-5.5-5.5H1.138c.04.066.088.129.146.187l3.04,2.984c.197.193.2.51.007.707-.098.1-.228.15-.357.15-.126,0-.253-.048-.35-.143L.58,5.897c-.772-.772-.772-2.022-.003-2.791L3.623.116c.196-.193.513-.191.707.007.193.197.19.514-.007.707L1.28,3.817c-.056.056-.104.118-.143.183h16.363c3.584,0,6.5,2.916,6.5,6.5Z"/>
</svg>
