<?xml version="1.0" encoding="UTF-8"?>
<svg xmlns="http://www.w3.org/2000/svg" id="Layer_1" data-name="Layer 1" viewBox="0 0 24 24">
  <path d="m22.947.919C22.275.281,21.398-.05,20.478,0L4.155.688c-1.946.098-3.518,1.583-3.738,3.533L.018,7.815c-.14,1.438.559,2.854,1.777,3.607l3.17,2-2.138,3.445c-.377.607-.827,1.557-.827,2.632v.5c0,1.202.915,2.196,2.434,2.656l4.01,1.329c.108.027.215.041.32.041.472,0,.896-.264,1.11-.715.263-.552.111-1.169-.413-1.56l-3.43-2.144,2.792-1.141c1.322-.54,2.176-1.812,2.176-3.24v-3.746l8.863.517c1.085.051,2.116-.34,2.904-1.093.795-.761,1.233-1.788,1.233-2.893V3.378c0-.94-.374-1.813-1.053-2.458Zm-14.05,21.654c.142.106.108.238.075.307-.033.069-.115.176-.25.145l-3.986-1.322c-1.087-.33-1.736-.966-1.736-1.703v-.5c0-.196.021-.389.056-.574l5.841,3.648Zm-.451-5.034l-3.459,1.414-1.608-1.005c.104-.223.211-.412.298-.553l2.134-3.438,3.886,2.453c-.269.499-.701.905-1.251,1.13Zm1.554-2.314c0,.062-.009.123-.014.184l-6.967-4.397,6.981.408v3.805Zm13-7.214c0,.829-.329,1.6-.925,2.17-.588.562-1.365.852-2.161.817L1.604,9.929c-.439-.561-.662-1.283-.591-2.01l.398-3.587c.165-1.46,1.34-2.573,2.79-2.646l16.323-.687c.639-.042,1.262.195,1.734.644.479.455.742,1.07.742,1.734v4.633Z"/>
</svg>
