<?xml version="1.0" encoding="UTF-8"?>
<svg xmlns="http://www.w3.org/2000/svg" id="Layer_1" data-name="Layer 1" viewBox="0 0 24 24">
  <path d="m23.5,20h-.5V4h.5c.276,0,.5-.224.5-.5s-.224-.5-.5-.5H0c-.276,0-.5.224-.5.5s.224.5.5.5h1v16H0c-.276,0-.5.224-.5.5s.224.5.5.5h23.5c.276,0,.5-.224.5-.5s-.224-.5-.5-.5ZM2,4h20v16H2V4Zm12,2.5v11c0,.276-.224.5-.5.5s-.5-.224-.5-.5V6.5c0-.276.224-.5.5-.5s.5.224.5.5Zm3,0v11c0,.276-.224.5-.5.5s-.5-.224-.5-.5V6.5c0-.276.224-.5.5-.5s.5.224.5.5Zm3,0v11c0,.276-.224.5-.5.5s-.5-.224-.5-.5V6.5c0-.276.224-.5.5-.5s.5.224.5.5Zm-9,0v11c0,.276-.224.5-.5.5s-.5-.224-.5-.5V6.5c0-.276.224-.5.5-.5s.5.224.5.5Zm-3,0v11c0,.276-.224.5-.5.5s-.5-.224-.5-.5V6.5c0-.276.224-.5.5-.5s.5.224.5.5Zm-3,0v11c0,.276-.224.5-.5.5s-.5-.224-.5-.5V6.5c0-.276.224-.5.5-.5s.5.224.5.5Z"/>
</svg>
