<?xml version="1.0" encoding="UTF-8"?>
<svg xmlns="http://www.w3.org/2000/svg" id="Layer_1" data-name="Layer 1" viewBox="0 0 24 24">
  <path d="m0,12c0-.552.448-1,1-1s1,.448,1,1-.448,1-1,1-1-.448-1-1Zm4.5-4c-.276,0-.5.224-.5.5v6c0,.827.673,1.5,1.5,1.5h2c.276,0,.5-.224.5-.5s-.224-.5-.5-.5h-2c-.276,0-.5-.224-.5-.5v-6c0-.276-.224-.5-.5-.5Zm15,1h2c.276,0,.5-.224.5-.5s-.224-.5-.5-.5h-2c-.827,0-1.5.673-1.5,1.5v5c0,.827.673,1.5,1.5,1.5h2c.276,0,.5-.224.5-.5s-.224-.5-.5-.5h-2c-.275,0-.5-.224-.5-.5v-2h2.5c.276,0,.5-.224.5-.5s-.224-.5-.5-.5h-2.5v-2c0-.276.225-.5.5-.5Zm-9.5,6.5v-7c0-.276-.224-.5-.5-.5s-.5.224-.5.5v7c0,.276.224.5.5.5s.5-.224.5-.5Zm4,.501c.406,0,.762-.261.883-.649l2.095-6.704c.082-.263-.064-.544-.328-.626-.268-.083-.544.064-.627.328l-2.022,6.473-2.023-6.473c-.083-.264-.364-.411-.626-.328-.264.082-.411.363-.328.626l2.094,6.704c.121.388.477.649.883.649Zm5.5-13.001H4.5C2.019,3,0,5.019,0,7.5v1c0,.276.224.5.5.5s.5-.224.5-.5v-1c0-1.93,1.57-3.5,3.5-3.5h15c1.93,0,3.5,1.57,3.5,3.5v9c0,1.93-1.57,3.5-3.5,3.5H4.5c-1.93,0-3.5-1.57-3.5-3.5v-1c0-.276-.224-.5-.5-.5s-.5.224-.5.5v1c0,2.481,2.019,4.5,4.5,4.5h15c2.481,0,4.5-2.019,4.5-4.5V7.5c0-2.481-2.019-4.5-4.5-4.5Z"/>
</svg>
