<?xml version="1.0" encoding="UTF-8"?>
<svg xmlns="http://www.w3.org/2000/svg" id="Layer_1" data-name="Layer 1" viewBox="0 0 24 24">
  <path d="m23.859,15.518c-.683,2.34-1.921,4.45-3.579,6.102-1.523,1.518-3.68,2.389-5.915,2.389h-4.724c-2.235,0-4.392-.871-5.914-2.389-1.659-1.651-2.897-3.761-3.58-6.102-.316-1.08-.111-2.214.562-3.111.409-.546.961-.927,1.576-1.157-.184-.435-.281-.897-.281-1.382,0-1.292.641-2.508,1.714-3.252.18-.121.285-.191.285-.607,0-2.206,1.794-4,4-4,.615,0,.769-.213.904-.401C9.64.587,10.767.006,12.004.006s2.363.581,3.093,1.593c.14.194.293.407.907.407.82,0,1.609.247,2.281.714.227.158.283.469.125.696-.158.228-.47.283-.695.125-.504-.35-1.096-.535-1.711-.535-1.126,0-1.523-.551-1.714-.816-.544-.755-1.376-1.184-2.286-1.184s-1.743.429-2.281,1.178c-.195.271-.593.822-1.72.822-1.654,0-3,1.346-3,3,0,.949-.461,1.259-.683,1.407-.837.58-1.316,1.488-1.316,2.453,0,.422.114.801.3,1.164.068-.004.132-.023.201-.023h3.995c.276,0,.5.224.5.5s-.224.5-.5.5h-3.995c-.793,0-1.521.364-1.996.998-.481.643-.628,1.457-.402,2.231.628,2.148,1.809,4.163,3.326,5.673,1.338,1.333,3.236,2.097,5.209,2.097h4.724c1.973,0,3.872-.764,5.21-2.097,1.517-1.511,2.697-3.526,3.325-5.673.227-.775.08-1.588-.402-2.231-.476-.634-1.203-.998-1.996-.998h-1.002c-.276,0-.5-.224-.5-.5s.224-.5.5-.5h1.002c.069,0,.133.019.201.023.187-.364.301-.743.301-1.164,0-.405-.081-.798-.242-1.167-.109-.253.007-.548.26-.658.251-.111.548.005.658.259.215.496.324,1.022.324,1.566,0,.485-.098.947-.282,1.382.615.23,1.166.611,1.576,1.157.673.897.878,2.032.562,3.112Zm-7.217-6.569L22.587.219c.156-.229.469-.287.694-.132.229.155.287.466.132.694l-5.966,8.761c-.111,1.206-.723,7.364-1.824,9.041-.483.737-1.25,1.418-2.431,1.418-.751,0-1.671-.276-2.793-.99-1.341-.854-2.129-1.787-2.341-2.775-.157-.729.002-1.464.474-2.182,1.121-1.708,7.065-4.605,8.11-5.106Zm-6.09,8.944l4.939-7.254c-2.28,1.172-5.464,2.96-6.124,3.965-.323.493-.433.958-.332,1.423.132.614.667,1.253,1.517,1.866Zm5.699-6.594l-4.853,7.127c2.032,1.11,2.909.338,3.388-.391.646-.985,1.17-4.307,1.465-6.736Z"/>
</svg>
