<?xml version="1.0" encoding="UTF-8"?>
<svg xmlns="http://www.w3.org/2000/svg" id="Layer_1" data-name="Layer 1" viewBox="0 0 24 24">
  <path d="m22.475,5.602c-.471-.86-1.3-1.432-2.273-1.571-.262-.037-.521-.036-.776-.01-.573-1.122-1.227-2.067-1.954-2.798-1.482-1.486-3.97-1.641-5.641-.218-1.356-.698-3.037-.45-4.136.652-.276.277-.501.599-.673.96-1.186-.079-2.368.359-3.213,1.207-.843.847-1.277,2.028-1.2,3.224-.36.173-.682.4-.958.677-1.095,1.099-1.342,2.783-.651,4.14-1.398,1.639-1.325,4.117.22,5.667.742.745,1.707,1.415,2.855,1.999-.015.216-.014.435.017.656.138.97.707,1.797,1.562,2.271,1.86,1.03,3.909,1.531,5.947,1.531,3.216,0,6.405-1.247,8.777-3.629,3.868-3.883,4.731-9.953,2.098-14.759ZM4.962,17.564c-.282.283-.484.617-.636.97-.963-.51-1.775-1.08-2.398-1.707-1.234-1.239-1.158-3.322.046-4.534.168-.168.194-.432.063-.63-.671-1.012-.536-2.372.322-3.233.261-.262.582-.462.954-.594.228-.081.365-.312.327-.55-.163-1.011.165-2.042.877-2.756.711-.714,1.737-1.045,2.742-.88.243.04.471-.1.552-.328.131-.373.33-.696.592-.958.856-.86,2.207-.996,3.216-.323.204.137.503.073.67-.111,1.193-1.199,3.279-1.199,4.473,0,.618.621,1.182,1.426,1.687,2.381-.32.151-.623.34-.882.6l-1.048,1.052c-2.147-1.466-5.062-1.223-6.919.642-1.2,1.205-1.723,2.833-1.566,4.415-1.115-.044-2.119.098-2.795.248-.477.106-.871.417-1.081.855-.212.44-.209.946.008,1.387.346.707.984,1.752,2.01,2.837l-1.212,1.217ZM15.798,6.686l-6.118,6.142c-1.081-1.745-.86-4.024.627-5.517,1.473-1.478,3.755-1.704,5.491-.625Zm-6.835,6.861l-2.084,2.092c-.928-.986-1.505-1.93-1.817-2.569-.081-.165-.083-.352-.005-.513.045-.094.156-.259.396-.312.662-.147,1.669-.29,2.773-.216.157.533.411,1.04.737,1.519Zm10.704,6.109c-3.562,3.575-9.125,4.37-13.531,1.928-.577-.319-.962-.88-1.056-1.536-.094-.659.121-1.308.59-1.778l12.604-12.652c.398-.4.926-.618,1.48-.618.101,0,.202.007.305.022.659.094,1.219.48,1.537,1.061,2.422,4.42,1.628,10.001-1.93,13.574Zm-.814-7.51c.195.195.195.512,0,.707l-6,6c-.098.098-.226.146-.354.146s-.256-.049-.354-.146c-.195-.195-.195-.512,0-.707l6-6c.195-.195.512-.195.707,0Z"/>
</svg>
