<?xml version="1.0" encoding="UTF-8"?>
<svg xmlns="http://www.w3.org/2000/svg" id="Layer_1" data-name="Layer 1" viewBox="0 0 24 24">
  <path d="m24,7c0,.552-.448,1-1,1s-1-.448-1-1,.448-1,1-1,1,.448,1,1Zm-7-5c.552,0,1-.448,1-1s-.448-1-1-1-1,.448-1,1,.448,1,1,1Zm5,11v8c0,1.682-2.416,3-5.5,3-2.257,0-4.156-.706-5.012-1.744-.916,1.048-2.975,1.744-5.488,1.744-3.42,0-6-1.29-6-3V5c0-1.71,2.58-3,6-3s6,1.29,6,3v6.254c.987-.764,2.62-1.254,4.5-1.254,3.084,0,5.5,1.318,5.5,3Zm-1,1.746c-.987.764-2.62,1.254-4.5,1.254s-3.513-.49-4.5-1.254v2.254c0,.946,1.848,2,4.5,2s4.5-1.054,4.5-2v-2.254ZM11,6.703c-1.057.794-2.865,1.297-5,1.297s-3.943-.503-5-1.297v2.297c0,.944,2.138,2,5,2s5-1.056,5-2v-2.297ZM1,10.703v2.297c0,.944,2.138,2,5,2s5-1.056,5-2v-2.297c-1.057.794-2.865,1.297-5,1.297s-3.943-.503-5-1.297Zm0,6.297c0,.944,2.138,2,5,2s5-1.056,5-2v-2.297c-1.057.794-2.865,1.297-5,1.297s-3.943-.503-5-1.297v2.297Zm11-4c0,.946,1.848,2,4.5,2s4.5-1.054,4.5-2-1.848-2-4.5-2-4.5,1.054-4.5,2ZM1,5c0,.944,2.138,2,5,2s5-1.056,5-2-2.138-2-5-2S1,4.056,1,5Zm10,16v-2.297c-1.057.794-2.865,1.297-5,1.297s-3.943-.503-5-1.297v2.297c0,.944,2.138,2,5,2s5-1.056,5-2Zm10,0v-2.254c-.987.764-2.62,1.254-4.5,1.254s-3.513-.49-4.5-1.254v2.254c0,.946,1.848,2,4.5,2s4.5-1.054,4.5-2Zm-3.248-13.066c.078.045.164.066.248.066.174,0,.342-.09.435-.252L22.434.748c.137-.24.054-.545-.186-.682-.24-.139-.545-.054-.682.186l-4,7c-.137.24-.054.545.186.682Z"/>
</svg>
