<?xml version="1.0" encoding="UTF-8"?>
<svg xmlns="http://www.w3.org/2000/svg" id="Layer_1" data-name="Layer 1" viewBox="0 0 24 24">
  <path d="m20.5,4h-5.5v-.5c0-1.93-1.57-3.5-3.5-3.5H3.5C1.439,0,0,1.698,0,4.128v19.372c0,.276.224.5.5.5s.5-.224.5-.5v-10.5h10v.5c0,1.93,1.57,3.5,3.5,3.5h6c1.93,0,3.5-1.57,3.5-3.5v-6c0-1.93-1.57-3.5-3.5-3.5Zm-19.5.128c0-1.871,1.005-3.128,2.5-3.128h8c1.378,0,2.5,1.122,2.5,2.5v6c0,1.378-1.122,2.5-2.5,2.5H1v-7.872Zm22,9.372c0,1.378-1.122,2.5-2.5,2.5h-6c-1.378,0-2.5-1.122-2.5-2.5v-.536c1.694-.243,3-1.704,3-3.464v-4.5h5.5c1.378,0,2.5,1.122,2.5,2.5v6Z"/>
</svg>
