<?xml version="1.0" encoding="UTF-8"?>
<svg xmlns="http://www.w3.org/2000/svg" id="Layer_1" data-name="Layer 1" viewBox="0 0 24 24">
  <path d="m22.968,1.035c-.986-.988-2.411-1.297-3.742-.793L2.154,7.789C.423,8.44-.11,10.055.128,11.365c.238,1.312,1.308,2.635,3.157,2.635h6.71l-.068,6.788c0,1.849,1.322,2.917,2.634,3.156.195.036.397.055.603.055,1.169,0,2.42-.603,2.966-2.052l7.639-17.199c.492-1.305.186-2.728-.8-3.713Zm-.125,3.333l-7.639,17.199c-.479,1.273-1.63,1.547-2.464,1.394-.837-.152-1.813-.813-1.813-2.168l.073-7.288c0-.134-.051-.262-.145-.356s-.222-.148-.355-.148H3.285c-1.36,0-2.021-.977-2.174-1.813-.151-.836.122-1.982,1.421-2.473L19.604,1.167c.294-.11.597-.164.895-.164.649,0,1.279.255,1.763.738.704.705.923,1.722.582,2.627Z"/>
</svg>
