<?xml version="1.0" encoding="UTF-8"?>
<svg xmlns="http://www.w3.org/2000/svg" id="Layer_1" data-name="Layer 1" viewBox="0 0 24 24">
  <path d="m14.148,7.12c-.196-.194-.198-.511-.004-.707.194-.197.511-.199.707-.005l1.362,1.344c.335.33.885.329,1.222-.004l2.707-2.617c.198-.191.517-.187.707.012.192.199.187.515-.012.707l-2.703,2.614c-.36.355-.835.534-1.311.534s-.95-.177-1.312-.532l-1.364-1.345Zm-3.148-.62c0-3.584,2.916-6.5,6.5-6.5s6.5,2.916,6.5,6.5-2.916,6.5-6.5,6.5-6.5-2.916-6.5-6.5Zm1,0c0,3.033,2.468,5.5,5.5,5.5s5.5-2.467,5.5-5.5-2.468-5.5-5.5-5.5-5.5,2.467-5.5,5.5Zm12,14.5c0,1.654-1.346,3-3,3h-13c-1.654,0-3-1.346-3-3V6h-2c-1.654,0-3-1.346-3-3S1.346,0,3,0h7.5c.276,0,.5.224.5.5s-.224.5-.5.5h-5.28c.48.532.78,1.229.78,2v18c0,1.103.897,2,2,2s2-.897,2-2c0-1.654,1.346-3,3-3h6v-2.5c0-.276.224-.5.5-.5s.5.224.5.5v2.5h1c1.654,0,3,1.346,3,3ZM5,3c0-1.103-.897-2-2-2S1,1.897,1,3s.897,2,2,2h2v-2Zm18,18c0-1.103-.897-2-2-2h-8c-1.103,0-2,.897-2,2,0,.768-.29,1.469-.766,2h10.766c1.103,0,2-.897,2-2Z"/>
</svg>
