<?xml version="1.0" encoding="UTF-8"?>
<svg xmlns="http://www.w3.org/2000/svg" id="Layer_1" data-name="Layer 1" viewBox="0 0 24 24">
  <path d="m8.99,19.398c.056.271-.118.535-.388.591-.255.087-.542-.152-.591-.388-.192-.928-1.038-1.602-2.01-1.602s-1.818.673-2.01,1.602c-.056.27-.323.441-.591.388-.27-.056-.444-.321-.388-.591.288-1.39,1.545-2.398,2.99-2.398s2.702,1.009,2.99,2.398ZM4,5c0-1.103.897-2,2-2s2,.897,2,2-.897,2-2,2-2-.897-2-2Zm1,0c0,.551.449,1,1,1s1-.449,1-1-.449-1-1-1-1,.449-1,1Zm11.365,2.848l-.47,1.413c-.063.202.007.423.177.55.089.066.194.1.3.1.097,0,.194-.028.278-.084l1.354-.906,1.377.897c.178.115.409.106.578-.023.168-.13.236-.352.169-.553l-.489-1.396,1.183-.964c.161-.135.22-.357.148-.554s-.26-.329-.47-.329h-1.5l-.531-1.49c-.073-.196-.26-.325-.469-.325s-.396.13-.469.325l-.531,1.49h-1.5c-.21,0-.397.131-.469.328-.073.197-.014.418.146.553l1.189.967Zm4.635,8.652c0,1.654-1.346,3-3,3s-3-1.346-3-3,1.346-3,3-3,3,1.346,3,3Zm-1,0c0-1.103-.897-2-2-2s-2,.897-2,2,.897,2,2,2,2-.897,2-2Zm-7.5-9.5h-2c-.276,0-.5.224-.5.5s.224.5.5.5h2c.276,0,.5-.224.5-.5s-.224-.5-.5-.5Zm11.5-2.5v15c0,2.481-2.019,4.5-4.5,4.5H4.5c-2.481,0-4.5-2.019-4.5-4.5V4.5C0,2.019,2.019,0,4.5,0h15c2.481,0,4.5,2.019,4.5,4.5Zm-1,0c0-1.93-1.57-3.5-3.5-3.5H4.5c-1.93,0-3.5,1.57-3.5,3.5v15c0,1.93,1.57,3.5,3.5,3.5h15c1.93,0,3.5-1.57,3.5-3.5V4.5Zm-17,3.5c-1.444,0-2.702,1.009-2.99,2.398-.056.271.118.535.388.591.268.053.535-.118.591-.388.192-.928,1.038-1.602,2.01-1.602s1.818.673,2.01,1.602c.049.236.297.45.591.388.27-.056.444-.321.388-.591-.288-1.39-1.545-2.398-2.99-2.398Zm6.5,8h-2c-.276,0-.5.224-.5.5s.224.5.5.5h2c.276,0,.5-.224.5-.5s-.224-.5-.5-.5Zm-6.5,0c-1.103,0-2-.897-2-2s.897-2,2-2,2,.897,2,2-.897,2-2,2Zm0-1c.551,0,1-.449,1-1s-.449-1-1-1-1,.449-1,1,.449,1,1,1Z"/>
</svg>
