<?xml version="1.0" encoding="UTF-8"?>
<svg xmlns="http://www.w3.org/2000/svg" id="Layer_1" data-name="Layer 1" viewBox="0 0 24 24">
  <path d="m23.363,6.001c.414-.467.637-.972.637-1.501,0-2.923-6.183-4.5-12-4.5S0,1.577,0,4.5c0,.531.224,1.032.633,1.499-.415.471-.633.973-.633,1.501s.223,1.031.633,1.499c-.416.471-.633.973-.633,1.501s.223,1.031.633,1.499c-.416.471-.633.973-.633,1.501s.223,1.031.633,1.499c-.416.471-.633.973-.633,1.501s.223,1.031.633,1.499c-.416.471-.633.973-.633,1.501,0,2.923,6.183,4.5,12,4.5s12-1.577,12-4.5c0-.521-.217-1.018-.624-1.485.4-.456.624-.961.624-1.515,0-.521-.217-1.018-.624-1.485.4-.456.624-.961.624-1.515,0-.528-.223-1.031-.641-1.503.415-.468.641-.97.641-1.497s-.223-1.031-.641-1.503c.415-.468.641-.97.641-1.497s-.222-1.028-.637-1.499Zm-6.864,5.681c2.688-.398,4.846-1.12,6.115-2.027.253.285.386.569.386.845,0,1.066-2.057,2.519-6.573,3.188-.273.041-.462.295-.421.568.036.249.25.427.493.427,2.688-.398,4.846-1.12,6.115-2.027.253.285.386.569.386.845,0,1.655-4.518,3.5-11,3.5l-.492-.004h-.008c-.272,0-.496.219-.5.493-.004.276.217.503.492.507l.508.004c4.155,0,8.483-.808,10.625-2.333.246.281.375.56.375.833,0,1.655-4.518,3.5-11,3.5l-.492-.004h-.008c-.272,0-.496.219-.5.493-.004.276.217.503.492.507l.508.004c4.155,0,8.483-.808,10.625-2.333.246.281.375.56.375.833,0,1.655-4.518,3.5-11,3.5s-11-1.845-11-3.5c0-.275.125-.556.373-.839.512.364,1.161.7,1.948,1.001.06.022.119.033.179.033.201,0,.391-.123.467-.322.099-.258-.03-.547-.288-.646-1.702-.649-2.679-1.461-2.679-2.227,0-.275.125-.556.373-.839.512.364,1.161.7,1.948,1.001.06.022.119.033.179.033.201,0,.391-.123.467-.322.099-.258-.03-.547-.288-.646-1.702-.649-2.679-1.461-2.679-2.227,0-.275.125-.556.373-.839.512.364,1.161.7,1.948,1.001.06.022.119.033.179.033.201,0,.391-.123.467-.322.099-.258-.03-.547-.288-.646-1.702-.649-2.679-1.461-2.679-2.227,0-.275.125-.556.373-.839.512.364,1.161.7,1.948,1.001.06.022.119.033.179.033.201,0,.391-.123.467-.322.099-.258-.03-.547-.288-.646-1.702-.649-2.679-1.461-2.679-2.227,0-.276.126-.558.376-.841.82.584,1.985,1.093,3.483,1.494.672.18,1.142.778,1.142,1.453v9.894c0,.827.673,1.5,1.5,1.5s1.5-.673,1.5-1.5v-9.5c0-.551.448-1,1-1s1,.449,1,1v3.5c0,.827.673,1.5,1.5,1.5s1.5-.673,1.5-1.5v-3.185c0-.769.587-1.41,1.365-1.491,3.255-.34,5.793-1.123,7.252-2.165.25.284.382.566.382.841,0,1.066-2.057,2.519-6.573,3.188-.273.041-.462.295-.421.568.036.249.25.427.493.427Zm-1.237-3.852c-1.289.135-2.262,1.204-2.262,2.485v3.185c0,.276-.225.5-.5.5s-.5-.224-.5-.5v-3.5c0-1.103-.897-2-2-2s-2,.897-2,2v9.5c0,.276-.225.5-.5.5s-.5-.224-.5-.5v-9.894c0-1.127-.774-2.122-1.882-2.419-2.54-.681-4.118-1.71-4.118-2.688,0-1.655,4.518-3.5,11-3.5s11,1.845,11,3.5c0,1.222-2.712,2.805-7.738,3.33Z"/>
</svg>
