<?xml version="1.0" encoding="UTF-8"?>
<svg xmlns="http://www.w3.org/2000/svg" id="Layer_1" data-name="Layer 1" viewBox="0 0 24 24">
  <path d="m20.604,6.429c-.196-.194-.198-.511-.004-.707l2.544-2.573c.193-.197.51-.198.707-.004.196.194.198.511.004.707l-2.544,2.573c-.098.099-.227.148-.355.148-.127,0-.254-.048-.352-.145Zm-3.726-2.729c.073.038.152.056.229.056.181,0,.355-.098.444-.27l1.419-2.737c.127-.245.031-.547-.214-.674-.244-.128-.547-.033-.674.214l-1.419,2.737c-.127.245-.031.547.214.674ZM2.613,6.348c.098.099.227.148.355.148.127,0,.254-.048.352-.145.196-.194.198-.511.004-.707L.855,3.148c-.194-.197-.51-.197-.707-.004-.196.194-.198.511-.004.707l2.469,2.497Zm3.834-2.862c.089.172.263.27.444.27.078,0,.156-.018.229-.056.245-.127.341-.429.214-.674L5.917.289c-.127-.246-.429-.34-.674-.214-.245.127-.341.429-.214.674l1.418,2.737Zm17.552,18.414c0,1.158-.942,2.1-2.1,2.1H2.1c-1.158,0-2.1-.942-2.1-2.1,0-1.599,1.301-2.9,2.9-2.9h.198l.895-8.948c.23-2.31,2.156-4.052,4.478-4.052h7.059c2.322,0,4.247,1.742,4.478,4.052l.895,8.948h.198c1.599,0,2.9,1.301,2.9,2.9Zm-19.897-2.9h15.793l-.885-8.848c-.179-1.797-1.676-3.152-3.482-3.152h-7.059c-1.806,0-3.303,1.355-3.482,3.152l-.885,8.848Zm18.897,2.9c0-1.048-.852-1.9-1.9-1.9H2.9c-1.048,0-1.9.852-1.9,1.9,0,.606.494,1.1,1.1,1.1h19.8c.606,0,1.1-.494,1.1-1.1Zm-11.5-11.9h-2.075c-.774,0-1.416.581-1.491,1.341l-.251,2.1c-.033.274.163.523.437.556.021.002.041.003.06.003.25,0,.466-.187.496-.44l.252-2.11c.025-.256.239-.45.497-.45h2.075c.276,0,.5-.224.5-.5s-.224-.5-.5-.5Z"/>
</svg>
