<?xml version="1.0" encoding="UTF-8"?>
<svg xmlns="http://www.w3.org/2000/svg" id="Layer_1" data-name="Layer 1" viewBox="0 0 24 24">
  <path d="m20.991,12.535c-.198-5.261-3.76-5.535-4.491-5.535-1.194,0-2.92.523-4,2.155v-3.155C12.5.289,8.751,0,8,0h-.5c-1.745,0-4.292,1.761-4.488,5.53-1.7.238-3.012,1.702-3.012,3.466,0,1.724,1.222,4.233,2.066,5.309.349.445.872.7,1.434.7s1.085-.255,1.434-.7c.845-1.075,2.066-3.584,2.066-5.309,0-1.755-1.3-3.213-2.987-3.462.189-3.38,2.437-4.533,3.487-4.533h.5c.821,0,3.5.36,3.5,5v17.5c0,.276.224.5.5.5s.5-.224.5-.5v-10.5c0-4.86,3.591-5,4-5,.793,0,3.318.336,3.49,4.537-1.689.247-2.99,1.706-2.99,3.463,0,1.724,1.222,4.233,2.066,5.309.349.445.872.7,1.434.7s1.085-.255,1.434-.7c.845-1.075,2.066-3.584,2.066-5.309,0-1.763-1.311-3.226-3.009-3.465Zm-14.991-3.539c0,1.313-.996,3.6-1.853,4.691-.316.403-.977.403-1.294,0-.856-1.091-1.853-3.378-1.853-4.691,0-1.378,1.122-2.5,2.5-2.5s2.5,1.122,2.5,2.5Zm15.147,11.696c-.316.403-.977.403-1.294,0-.856-1.091-1.853-3.378-1.853-4.691,0-1.378,1.122-2.5,2.5-2.5s2.5,1.122,2.5,2.5c0,1.313-.996,3.6-1.853,4.691Z"/>
</svg>
