<?xml version="1.0" encoding="UTF-8"?>
<svg xmlns="http://www.w3.org/2000/svg" id="Layer_1" data-name="Layer 1" viewBox="0 0 24 24">
  <path d="m14.7,4h-7.4c-.717,0-1.3.583-1.3,1.3v1.4c0,.717.583,1.3,1.3,1.3h7.4c.717,0,1.3-.583,1.3-1.3v-1.4c0-.717-.583-1.3-1.3-1.3Zm.3,2.7c0,.165-.135.3-.3.3h-7.4c-.166,0-.3-.135-.3-.3v-1.4c0-.165.134-.3.3-.3h7.4c.165,0,.3.135.3.3v1.4Zm-7,3.8c0,.276-.224.5-.5.5h-1c-.276,0-.5-.224-.5-.5s.224-.5.5-.5h1c.276,0,.5.224.5.5Zm8,0c0,.276-.224.5-.5.5h-1c-.276,0-.5-.224-.5-.5s.224-.5.5-.5h1c.276,0,.5.224.5.5Zm-8,3c0,.276-.224.5-.5.5h-1c-.276,0-.5-.224-.5-.5s.224-.5.5-.5h1c.276,0,.5.224.5.5Zm8,0c0,.276-.224.5-.5.5h-1c-.276,0-.5-.224-.5-.5s.224-.5.5-.5h1c.276,0,.5.224.5.5Zm-4-3c0,.276-.224.5-.5.5h-1c-.276,0-.5-.224-.5-.5s.224-.5.5-.5h1c.276,0,.5.224.5.5Zm0,3c0,.276-.224.5-.5.5h-1c-.276,0-.5-.224-.5-.5s.224-.5.5-.5h1c.276,0,.5.224.5.5Zm-4,3c0,.276-.224.5-.5.5h-1c-.276,0-.5-.224-.5-.5s.224-.5.5-.5h1c.276,0,.5.224.5.5Zm8,0c0,.276-.224.5-.5.5h-1c-.276,0-.5-.224-.5-.5s.224-.5.5-.5h1c.276,0,.5.224.5.5Zm-4,0c0,.276-.224.5-.5.5h-1c-.276,0-.5-.224-.5-.5s.224-.5.5-.5h1c.276,0,.5.224.5.5Zm-4,3c0,.276-.224.5-.5.5h-1c-.276,0-.5-.224-.5-.5s.224-.5.5-.5h1c.276,0,.5.224.5.5Zm8,0c0,.276-.224.5-.5.5h-1c-.276,0-.5-.224-.5-.5s.224-.5.5-.5h1c.276,0,.5.224.5.5Zm-4,0c0,.276-.224.5-.5.5h-1c-.276,0-.5-.224-.5-.5s.224-.5.5-.5h1c.276,0,.5.224.5.5Zm8.5-15.5h-.551c-.252-2.244-2.139-4-4.449-4H6.5C4.019,0,2,2.019,2,4.5v15c0,2.481,2.019,4.5,4.5,4.5h9c1.953,0,3.602-1.258,4.224-3h.776c.827,0,1.5-.673,1.5-1.5V5.5c0-.827-.673-1.5-1.5-1.5Zm-1.5,15.5c0,1.93-1.57,3.5-3.5,3.5H6.5c-1.93,0-3.5-1.57-3.5-3.5V4.5c0-1.93,1.57-3.5,3.5-3.5h9c1.93,0,3.5,1.57,3.5,3.5v15Zm2,0c0,.275-.225.5-.5.5h-.551c.019-.166.051-.329.051-.5V5h.5c.275,0,.5.225.5.5v14Z"/>
</svg>
