<?xml version="1.0" encoding="UTF-8"?>
<svg xmlns="http://www.w3.org/2000/svg" id="Layer_1" data-name="Layer 1" viewBox="0 0 24 24">
  <path d="m7,5.5V.5c0-.276.224-.5.5-.5s.5.224.5.5v5c0,.276-.224.5-.5.5s-.5-.224-.5-.5Zm9.5.5c.276,0,.5-.224.5-.5V.5c0-.276-.224-.5-.5-.5s-.5.224-.5.5v5c0,.276.224.5.5.5Zm-4.5-2c.276,0,.5-.224.5-.5V.5c0-.276-.224-.5-.5-.5s-.5.224-.5.5v3c0,.276.224.5.5.5Zm8,.5v4c0,.276.224.5.5.5s.5-.224.5-.5v-4c0-.276-.224-.5-.5-.5s-.5.224-.5.5Zm1,12v-4c0-.276-.224-.5-.5-.5s-.5.224-.5.5v4c0,.276.224.5.5.5s.5-.224.5-.5Zm-.5,3.5c-.276,0-.5.224-.5.5v3c0,.276.224.5.5.5s.5-.224.5-.5v-3c0-.276-.224-.5-.5-.5Zm-4-2c-.276,0-.5.224-.5.5v5c0,.276.224.5.5.5s.5-.224.5-.5v-5c0-.276-.224-.5-.5-.5Zm0-8c-.276,0-.5.224-.5.5v3c0,.276.224.5.5.5s.5-.224.5-.5v-3c0-.276-.224-.5-.5-.5Zm-4,1.5v-4c0-.276-.224-.5-.5-.5s-.5.224-.5.5v4c0,.276.224.5.5.5s.5-.224.5-.5Zm-1,4v4c0,.276.224.5.5.5s.5-.224.5-.5v-4c0-.276-.224-.5-.5-.5s-.5.224-.5.5Zm-4,2.5c-.276,0-.5.224-.5.5v5c0,.276.224.5.5.5s.5-.224.5-.5v-5c0-.276-.224-.5-.5-.5Zm.5-4.5v-3c0-.276-.224-.5-.5-.5s-.5.224-.5.5v3c0,.276.224.5.5.5s.5-.224.5-.5ZM3,4.5v4c0,.276.224.5.5.5s.5-.224.5-.5v-4c0-.276-.224-.5-.5-.5s-.5.224-.5.5Zm0,8v4c0,.276.224.5.5.5s.5-.224.5-.5v-4c0-.276-.224-.5-.5-.5s-.5.224-.5.5Zm.5,7.5c-.276,0-.5.224-.5.5v3c0,.276.224.5.5.5s.5-.224.5-.5v-3c0-.276-.224-.5-.5-.5ZM.5,7h1c.276,0,.5-.224.5-.5s-.224-.5-.5-.5H.5c-.276,0-.5.224-.5.5s.224.5.5.5Zm0,8h1c.276,0,.5-.224.5-.5s-.224-.5-.5-.5H.5c-.276,0-.5.224-.5.5s.224.5.5.5ZM23.5,6h-1c-.276,0-.5.224-.5.5s.224.5.5.5h1c.276,0,.5-.224.5-.5s-.224-.5-.5-.5Zm0,8h-1c-.276,0-.5.224-.5.5s.224.5.5.5h1c.276,0,.5-.224.5-.5s-.224-.5-.5-.5ZM9.33,5.543c.852.308,1.726.457,2.67.457s1.818-.149,2.67-.457c.26-.094.395-.38.301-.64-.095-.26-.378-.395-.641-.3-1.482.535-3.178.535-4.66,0-.262-.094-.546.041-.641.3-.094.26.041.546.301.64Zm5.641,7.361c-.095-.26-.378-.396-.641-.301-1.482.534-3.178.534-4.66,0-.262-.094-.546.041-.641.301-.094.259.041.546.301.64.853.307,1.726.456,2.67.456s1.817-.149,2.67-.456c.26-.094.395-.381.301-.64Zm-.641,7.699c-1.482.535-3.178.535-4.66,0-.262-.089-.546.042-.641.301-.094.26.041.547.301.641.853.307,1.726.456,2.67.456s1.817-.149,2.67-.456c.26-.094.395-.381.301-.641-.095-.259-.378-.391-.641-.301Zm-.33-2.574c.058,0,.116-.01.174-.031.787-.291,1.476-.704,2.083-1.068.729-.437,1.481-.888,2.395-1.179.264-.084.409-.365.325-.628-.083-.263-.367-.408-.628-.325-1.025.326-1.865.83-2.605,1.274-.598.358-1.216.729-1.917.988-.259.096-.391.383-.295.643.074.201.266.326.469.326Zm-8.977-2.906c-.084.263.062.544.325.628.913.291,1.666.742,2.394,1.179.605.363,1.292.775,2.084,1.068.058.021.116.031.174.031.203,0,.395-.125.469-.326.096-.26-.036-.547-.295-.643-.705-.261-1.349-.647-1.917-.988-.74-.444-1.58-.948-2.605-1.274-.261-.083-.545.062-.628.325Zm8.508-5.449c.074.202.266.327.469.327.058,0,.116-.01.174-.031.787-.291,1.476-.704,2.084-1.068.692-.416,1.477-.887,2.395-1.179.263-.084.408-.365.324-.628-.084-.263-.361-.41-.629-.325-1.028.328-1.866.831-2.604,1.275-.598.358-1.216.729-1.917.988-.259.096-.391.383-.295.642Zm-8.508-2.581c-.084.263.062.544.324.628.918.292,1.702.764,2.395,1.179.605.363,1.292.775,2.084,1.068.058.021.116.031.174.031.203,0,.395-.125.469-.327.096-.259-.036-.546-.295-.642-.705-.261-1.349-.647-1.916-.988-.739-.444-1.577-.947-2.605-1.275-.268-.085-.545.062-.629.325Zm13.477-3.666c.057,0,.113-.009.17-.03.741-.268,1.503-.397,2.33-.397h2.5c.276,0,.5-.224.5-.5s-.224-.5-.5-.5h-2.5c-.944,0-1.818.149-2.67.457-.26.094-.395.38-.301.64.074.204.266.33.471.33Zm5,6.573h-2.5c-.944,0-1.818.149-2.67.457-.26.094-.395.38-.301.64.074.204.266.33.471.33.057,0,.113-.009.17-.03.741-.268,1.503-.397,2.33-.397h2.5c.276,0,.5-.224.5-.5s-.224-.5-.5-.5Zm0,8h-2.5c-.944,0-1.817.149-2.67.456-.26.094-.395.381-.301.641.074.203.266.33.471.33.057,0,.113-.01.17-.029.741-.268,1.504-.397,2.33-.397h2.5c.276,0,.5-.224.5-.5s-.224-.5-.5-.5ZM.5,3h2.5c.827,0,1.589.13,2.33.397.057.021.113.03.17.03.205,0,.396-.126.471-.33.094-.26-.041-.546-.301-.64-.852-.308-1.726-.457-2.67-.457H.5c-.276,0-.5.224-.5.5s.224.5.5.5Zm0,8h2.5c.827,0,1.589.13,2.33.397.057.021.113.03.17.03.205,0,.396-.126.471-.33.094-.26-.041-.546-.301-.64-.852-.308-1.726-.457-2.67-.457H.5c-.276,0-.5.224-.5.5s.224.5.5.5Zm5.17,7.456c-.853-.307-1.726-.456-2.67-.456H.5c-.276,0-.5.224-.5.5s.224.5.5.5h2.5c.826,0,1.589.13,2.33.397.057.02.113.029.17.029.205,0,.396-.127.471-.33.094-.26-.041-.547-.301-.641ZM20.52,1c.276,0,.5-.224.5-.5s-.224-.5-.5-.5h-.01c-.276,0-.495.224-.495.5s.229.5.505.5Zm-8.5,22h-.01c-.276,0-.495.224-.495.5s.229.5.505.5.5-.224.5-.5-.224-.5-.5-.5Z"/>
  <path d="m3.5,1c.276,0,.5-.224.5-.5s-.224-.5-.5-.5h-.01c-.276,0-.495.224-.495.5s.229.5.505.5Z"/>
</svg>
