<?xml version="1.0" encoding="UTF-8"?>
<svg xmlns="http://www.w3.org/2000/svg" id="Layer_1" data-name="Layer 1" viewBox="0 0 24 24">
  <path d="m11.604,9.104c-.093-.459-.307-1.119-1.206-1.119s-1.118.689-1.198,1.088l-1.27,6.342c-.061.302.169.583.477.585h.018c.233.001.435-.163.481-.392l.323-1.608h2.36l.328,1.595c.047.226.245.389.476.39.31.002.543-.282.481-.585l-1.271-6.296Zm-2.174,3.896l.75-3.73c.024-.118.106-.284.218-.284s.188.132.225.316l.761,3.698h-1.954ZM19.5,3H4.5C2.019,3,0,5.019,0,7.5v9c0,2.481,2.019,4.5,4.5,4.5h15c2.481,0,4.5-2.019,4.5-4.5V7.5c0-2.481-2.019-4.5-4.5-4.5Zm3.5,13.5c0,1.93-1.57,3.5-3.5,3.5H4.5c-1.93,0-3.5-1.57-3.5-3.5V7.5c0-1.93,1.57-3.5,3.5-3.5h15c1.93,0,3.5,1.57,3.5,3.5v9ZM5,9.5v2.5h1.5c.276,0,.5.224.5.5s-.224.5-.5.5h-1.5v2.5c0,.276-.224.5-.5.5s-.5-.224-.5-.5v-6c0-.827.673-1.5,1.5-1.5h1c.276,0,.5.224.5.5s-.224.5-.5.5h-1c-.276,0-.5.225-.5.5Zm10-1v7c0,.276-.224.5-.5.5s-.5-.224-.5-.5v-7c0-.276.224-.5.5-.5s.5.224.5.5Zm5,7c0,.276-.224.5-.5.5h-1c-.827,0-1.5-.673-1.5-1.5v-6c0-.276.224-.5.5-.5s.5.224.5.5v6c0,.275.225.5.5.5h1c.276,0,.5.224.5.5Z"/>
</svg>
