<?xml version="1.0" encoding="UTF-8"?>
<svg xmlns="http://www.w3.org/2000/svg" id="Layer_1" data-name="Layer 1" viewBox="0 0 24 24">
  <path d="m19,4.61v-2.11c0-1.378-1.121-2.5-2.5-2.5H7.5c-1.379,0-2.5,1.122-2.5,2.5v2.11c-1.777.913-3,2.759-3,4.89v10c0,2.481,2.019,4.5,4.5,4.5h11c2.481,0,4.5-2.019,4.5-4.5v-10c0-2.132-1.223-3.978-3-4.89ZM6,2.5c0-.827.673-1.5,1.5-1.5h9c.827,0,1.5.673,1.5,1.5v1.713c-.478-.136-.979-.213-1.5-.213H7.5c-.521,0-1.022.077-1.5.213v-1.713Zm5.496,20.5h-2.154c-.763-.421-1.116-.691-1.266-.841-.362-.362-.762-1.586-1.07-3.276-.028-.152.053-.252.089-.289s.138-.118.288-.089c1.168.213,2.799.78,3.271,1.252.409.409.692.997.844,1.745v1.498Zm.001-4.153c-1.128-.453-2.872-1.225-3.422-1.775-.362-.362-.763-1.586-1.07-3.276-.028-.152.053-.253.089-.289.031-.031.109-.094.227-.094.02,0,.04.001.062.005,1.181.215,2.73.74,3.233,1.194.145.187.28.355.408.509.218.348.382.755.476,1.198v2.528Zm-.156-4.926c-.7-.918-1.344-1.949-1.344-2.525,0-.26.155-1.09,1.595-3.182.093-.135.24-.212.405-.212s.312.078.405.212h0c1.439,2.091,1.595,2.922,1.595,3.182,0,.574-.638,1.601-1.334,2.518-.009.009-.608.759-.663.823-.058-.068-.653-.809-.659-.816Zm5.27-.508c.153-.027.256.054.291.09.037.037.118.139.088.292-.335,1.723-.753,2.969-1.116,3.333-.55.55-2.267,1.293-3.379,1.727v-2.473c.101-.49.263-.904.474-1.251.132-.159.273-.335.422-.53.513-.452,2.048-.974,3.219-1.191Zm-1.977,9.587h-2.141s.003-1.475.004-1.478c.149-.758.435-1.352.847-1.765.47-.47,2.1-1.037,3.27-1.252.144-.027.252.052.289.089.036.036.117.137.09.289-.312,1.684-.712,2.904-1.071,3.264-.152.151-.505.424-1.286.853Zm6.363-3.5c0,1.93-1.57,3.5-3.5,3.5h-1.035c.057-.049.119-.099.166-.146.527-.527.98-1.802,1.348-3.79.078-.43-.059-.87-.366-1.177-.213-.212-.49-.336-.781-.37.428-.649.812-1.828,1.144-3.53.083-.432-.051-.875-.359-1.187-.308-.311-.747-.45-1.184-.37-.538.099-1.261.284-1.95.526.299-.555.517-1.105.517-1.56,0-.78-.596-2.041-1.771-3.748-.557-.81-1.902-.81-2.459,0-1.175,1.707-1.771,2.968-1.771,3.748,0,.456.22,1.007.52,1.563-.691-.243-1.418-.426-1.958-.524-.423-.079-.866.058-1.175.365-.307.307-.444.747-.366,1.175.315,1.722.696,2.909,1.135,3.543-.287.037-.56.161-.769.37-.308.307-.444.746-.366,1.175.364,1.995.817,3.274,1.348,3.804.043.043.101.089.152.134h-1.021c-1.93,0-3.5-1.57-3.5-3.5v-10c0-2.481,2.019-4.5,4.5-4.5h9c2.481,0,4.5,2.019,4.5,4.5v10Z"/>
</svg>
