<?xml version="1.0" encoding="UTF-8"?>
<svg xmlns="http://www.w3.org/2000/svg" id="Layer_1" data-name="Layer 1" viewBox="0 0 24 24">
  <path d="m17,11c0-2.757-2.243-5-5-5s-5,2.243-5,5,2.243,5,5,5,5-2.243,5-5Zm-9,0c0-2.206,1.794-4,4-4s4,1.794,4,4-1.794,4-4,4-4-1.794-4-4Zm13.538,4.397c.121.52.03,1.055-.256,1.505-.298.469-.736.776-1.249.891-.144.032-.288.047-.432.047-.37,0-.732-.104-1.053-.308l-.99-.629c-.232-.148-.302-.457-.153-.69.147-.232.455-.301.69-.154l.99.629c.219.139.478.185.729.128.253-.056.469-.208.607-.426.156-.247.201-.51.142-.766-.061-.256-.217-.472-.441-.608l-.554-.335c-.212-.128-.298-.393-.202-.622.42-.999.633-2.029.633-3.061s-.211-2.055-.627-3.051c-.095-.227-.01-.49.2-.619l.56-.343c.224-.137.378-.352.438-.607.059-.255.014-.517-.127-.737-.308-.485-.906-.619-1.357-.332l-.568.361c-.204.129-.472.095-.636-.083-1.193-1.294-2.739-2.141-4.47-2.45-.238-.042-.412-.25-.412-.492v-.679c0-.534-.435-.969-.969-.969-.597,0-1.031.435-1.031.969v.679c0,.242-.174.45-.412.492-1.73.309-3.276,1.156-4.47,2.45-.164.178-.431.212-.636.083l-.552-.351c-.222-.141-.484-.187-.744-.13-.258.057-.478.211-.619.434-.144.226-.189.493-.129.753.06.26.219.48.446.62l.542.333c.21.129.295.392.199.619-.415.996-.626,2.023-.626,3.051s.213,2.062.633,3.061c.096.229.01.493-.202.622l-.554.335c-.225.136-.381.352-.441.608-.06.256-.015.519.126.74.141.222.36.374.617.428.255.054.518.005.735-.141l.945-.628c.227-.153.54-.091.692.14.153.23.091.541-.14.693l-.944.627c-.443.296-.975.396-1.497.287-.521-.111-.967-.419-1.253-.87-.286-.45-.377-.985-.256-1.505.122-.52.44-.959.897-1.235l.192-.117c-.366-.996-.552-2.019-.552-3.045s.184-2.043.547-3.036l-.186-.114c-.458-.281-.776-.724-.897-1.248-.121-.523-.028-1.061.26-1.514.284-.448.727-.758,1.245-.874.519-.115,1.049-.022,1.499.263l.208.132c1.188-1.172,2.698-2,4.324-2.371v-.27c0-1.085.883-1.969,1.969-1.969,1.148,0,2.031.883,2.031,1.969v.27c1.626.371,3.136,1.199,4.325,2.371l.224-.143c.444-.282.971-.374,1.484-.261.513.114.951.422,1.233.865.306.482.397,1.015.277,1.533-.119.518-.435.957-.888,1.234l-.203.125c.363.993.547,2.013.547,3.036s-.186,2.049-.552,3.045l.192.117c.457.276.775.715.897,1.235Zm-2.553,7.984c.065.268-.099.539-.367.604-.04.01-.079.014-.118.014-.226,0-.431-.153-.485-.382-.662-2.719-3.136-4.618-6.015-4.618s-5.353,1.899-6.015,4.618c-.063.268-.331.434-.604.368-.269-.065-.433-.336-.367-.604.771-3.169,3.644-5.382,6.985-5.382s6.215,2.213,6.985,5.382Z"/>
</svg>
