<?xml version="1.0" encoding="UTF-8"?>
<svg xmlns="http://www.w3.org/2000/svg" id="Layer_1" data-name="Layer 1" viewBox="0 0 24 24">
  <path d="m14.174,12.561c.094.081.21.121.326.121.14,0,.28-.059.379-.174.18-.209.157-.525-.053-.705-.771-.663-1.497-1.312-2.04-1.803h2.112c2.546,0,4.726.362,5.382.539.645.172,1.184.604,1.478,1.187.125.245.423.343.672.221.246-.125.345-.426.22-.672-.423-.836-1.193-1.456-2.112-1.702-.828-.222-3.09-.572-5.641-.572h-2.473l5.656-3.637c.575-.369.919-.998.919-1.683v-.548c0-.254.095-.496.257-.67l1.598-1.61c.194-.196.193-.513-.003-.707-.194-.196-.512-.194-.707.002l-1.61,1.623c-.345.372-.535.855-.535,1.362v.548c0,.342-.171.656-.459.841l-3.561,2.289c.013-.102.02-.205.02-.311,0-1.034-.631-1.924-1.529-2.304l-.623-3.918c-.084-.371-.612-.371-.696,0l-.623,3.918c-.897.38-1.529,1.269-1.529,2.304,0,.105.007.209.02.311l-3.561-2.289c-.288-.185-.459-.499-.459-.841v-.548c0-.507-.19-.99-.547-1.375L2.855.147c-.195-.197-.512-.199-.707-.002-.196.194-.197.511-.003.707l1.586,1.598c.173.187.269.429.269.683v.548c0,.685.344,1.313.918,1.683l5.656,3.637h-2.473c-2.551,0-4.813.351-5.641.572-.873.234-1.597.789-2.038,1.563C-.006,11.891-.114,12.765.121,13.598c.408,1.448,1.757,2.402,3.223,2.401.291,0,.586-.037.88-.115,1.279-.343,5.04-3.666,6.776-5.245v2.142l-5.352,4.905c-.412.377-.648.915-.648,1.475v1.619c0,.306-.137.59-.375.78l-1.937,1.55c-.215.173-.25.487-.078.703.099.123.244.188.391.188.109,0,.22-.036.312-.109l1.937-1.55c.477-.381.751-.95.751-1.562v-1.619c0-.28.118-.549.324-.738l4.676-4.286v5.364c0,.276.224.5.5.5s.5-.224.5-.5v-8.863c.559.507,1.34,1.207,2.174,1.924Zm-2.674-7.561c.827,0,1.5.673,1.5,1.5s-.673,1.5-1.5,1.5-1.5-.673-1.5-1.5.673-1.5,1.5-1.5ZM3.965,14.917c-1.25.34-2.541-.38-2.881-1.591-.162-.573-.087-1.176.208-1.695.308-.54.814-.928,1.427-1.092.657-.177,2.835-.539,5.382-.539h2.115c-2.268,2.056-5.368,4.681-6.252,4.917Zm17.535-.917h-5c-1.378,0-2.5,1.121-2.5,2.5v5c0,1.379,1.122,2.5,2.5,2.5h5c1.378,0,2.5-1.121,2.5-2.5v-5c0-1.379-1.122-2.5-2.5-2.5Zm-3.5,6v-2h2v2h-2Zm2,1v2h-2v-2h2Zm-5-3h2v2h-2v-2Zm3-1v-2h2v2h-2Zm3,1h2v2h-2v-2Zm2-1.5v.5h-2v-2h.5c.827,0,1.5.673,1.5,1.5Zm-6.5-1.5h.5v2h-2v-.5c0-.827.673-1.5,1.5-1.5Zm-1.5,6.5v-.5h2v2h-.5c-.827,0-1.5-.673-1.5-1.5Zm6.5,1.5h-.5v-2h2v.5c0,.827-.673,1.5-1.5,1.5Z"/>
</svg>
