<?xml version="1.0" encoding="UTF-8"?>
<svg xmlns="http://www.w3.org/2000/svg" id="Layer_1" data-name="Layer 1" viewBox="0 0 24 24">
  <path d="m21.976,5.845l-.976-.659V1.5c0-.276-.224-.5-.5-.5s-.5.224-.5.5v3.011L14.497.798c-1.528-1.031-3.504-1.031-5.034,0L1.983,5.845c-1.242.838-1.983,2.232-1.983,3.73v9.925c0,2.481,2.019,4.5,4.5,4.5h14.959c2.481,0,4.5-2.019,4.5-4.5v-9.925c0-1.498-.741-2.893-1.983-3.73ZM6.98,23c.011-2.748,2.249-4.98,5-4.98s4.989,2.233,5,4.98H6.98Zm15.979-3.5c0,1.93-1.57,3.5-3.5,3.5h-1.48c-.011-3.3-2.698-5.98-6-5.98s-5.989,2.681-6,5.98h-1.48c-1.93,0-3.5-1.57-3.5-3.5v-9.925c0-1.165.577-2.25,1.542-2.901L10.022,1.627c.595-.401,1.276-.602,1.958-.602s1.363.201,1.958.602l7.479,5.047c.966.652,1.542,1.736,1.542,2.901v9.925ZM11.979,7.02c-2.206,0-4,1.794-4,4s1.794,4,4,4,4-1.794,4-4-1.794-4-4-4Zm0,7c-1.654,0-3-1.346-3-3s1.346-3,3-3,3,1.346,3,3-1.346,3-3,3Z"/>
</svg>
