<?xml version="1.0" encoding="UTF-8"?>
<svg xmlns="http://www.w3.org/2000/svg" id="Layer_1" data-name="Layer 1" viewBox="0 0 24 24">
  <path d="m9.149,5.274c-.173-.762-.815-1.274-1.598-1.274s-1.424.513-1.59,1.246l-2.941,10.114c-.076.263.105.638.469.639-.004,0-.003,0,.011,0,.019,0,.016,0,.009,0,.213-.004.409-.144.471-.36l1.056-3.632h4.965l1.018,3.627c.075.267.352.422.617.347.266-.074.421-.351.346-.616l-2.833-10.091Zm-3.823,5.733l1.602-5.511c.083-.366.376-.497.623-.497s.54.131.629.521l1.54,5.487h-4.394Zm13.174,3.492c0,.276-.224.5-.5.5h-3.5c-.276,0-.5-.224-.5-.5s.224-.5.5-.5h3.5c.276,0,.5.224.5.5Zm2-9c0,.276-.224.5-.5.5h-5.5c-.276,0-.5-.224-.5-.5s.224-.5.5-.5h5.5c.276,0,.5.224.5.5Zm0-5.5H3.5C1.57,0,0,1.57,0,3.5v13c0,1.93,1.57,3.5,3.5,3.5h3.606l3.897,3.283c.286.254.645.38,1.001.38.353,0,.703-.123.979-.368l3.985-3.295h3.532c1.93,0,3.5-1.57,3.5-3.5V3.5c0-1.93-1.57-3.5-3.5-3.5Zm2.5,16.5c0,1.379-1.121,2.5-2.5,2.5h-3.712c-.116,0-.229.041-.318.114l-4.137,3.421c-.19.17-.476.169-.675-.009l-4.047-3.409c-.09-.075-.205-.117-.322-.117h-3.789c-1.378,0-2.5-1.121-2.5-2.5V3.5c0-1.379,1.122-2.5,2.5-2.5h17c1.379,0,2.5,1.121,2.5,2.5v13Zm-2.5-5c0,.276-.224.5-.5.5h-5.5c-.276,0-.5-.224-.5-.5s.224-.5.5-.5h5.5c.276,0,.5.224.5.5Zm0-3c0,.276-.224.5-.5.5h-5.5c-.276,0-.5-.224-.5-.5s.224-.5.5-.5h5.5c.276,0,.5.224.5.5Z"/>
</svg>
