<?xml version="1.0" encoding="UTF-8"?>
<svg xmlns="http://www.w3.org/2000/svg" id="Layer_1" data-name="Layer 1" viewBox="0 0 24 24">
  <path d="m3.5,13h10.203l-2.645-2.646c-.195-.195-.195-.512,0-.707.195-.195.512-.195.707,0l2.799,2.801c.281.282.435.543.435,1.053s-.153.77-.435,1.053l-2.799,2.801c-.098.098-.226.146-.354.146s-.256-.049-.354-.146c-.195-.195-.195-.512,0-.707l2.645-2.646H3.5c-.276,0-.5-.224-.5-.5s.224-.5.5-.5Zm20.5-3.84v10.34c0,1.93-1.57,3.5-3.5,3.5h-10c-1.93,0-3.5-1.57-3.5-3.5v-3c0-.276.224-.5.5-.5s.5.224.5.5v3c0,1.379,1.121,2.5,2.5,2.5h10c1.379,0,2.5-1.121,2.5-2.5v-10.34c0-.054-.014-.106-.016-.16h-4.484c-1.379,0-2.5-1.122-2.5-2.5V2.03c-.052-.002-.102-.015-.154-.015h-5.346c-1.379,0-2.5,1.122-2.5,2.5v5.985c0,.276-.224.5-.5.5s-.5-.224-.5-.5v-5.985c0-1.93,1.57-3.5,3.5-3.5h5.346c1.2,0,2.329.467,3.179,1.314l3.654,3.645c.84.838,1.321,2,1.321,3.186Zm-1.214-1.16c-.174-.491-.443-.947-.814-1.318l-3.654-3.645c-.377-.376-.829-.643-1.317-.814v4.277c0,.827.673,1.5,1.5,1.5h4.286ZM5.5,22h-2c-1.379,0-2.5-1.121-2.5-2.5V4.515c0-1.378,1.121-2.5,2.504-2.5l2-.015c.276-.002.498-.228.496-.503-.002-.275-.226-.497-.5-.497h-.004l-1.996.015C1.57,1.015,0,2.585,0,4.515v14.985c0,1.93,1.57,3.5,3.5,3.5h2c.276,0,.5-.224.5-.5s-.224-.5-.5-.5Z"/>
</svg>
