<?xml version="1.0" encoding="UTF-8"?>
<svg xmlns="http://www.w3.org/2000/svg" id="Layer_1" data-name="Layer 1" viewBox="0 0 24 24">
  <path d="m24.001,3.499c0-1.929-1.571-3.499-3.5-3.499h-12.003c-.935,0-1.814.364-2.475,1.025-.661.662-1.025,1.541-1.025,2.476l.002,6.724c0,.375-.139.734-.392,1.012l-3.324,3.642c-1.94,2.425-1.659,5.945.626,7.847.987.822,2.236,1.274,3.517,1.274,1.533,0,2.97-.625,4.007-1.728.149.16.308.311.48.454.987.822,2.236,1.274,3.517,1.274,1.682,0,3.248-.752,4.285-2.049l4.212-4.861c1.339-1.546,2.076-3.524,2.075-5.569l-.002-8.022Zm-1,0v.501s-9,0-9,0v-.5c0-.667.26-1.295.731-1.768.473-.472,1.101-.732,1.769-.732h4c1.378,0,2.499,1.121,2.5,2.499ZM6.729,1.732c.472-.472,1.1-.732,1.768-.732h5.554c-.009.008-.017.017-.026.025-.661.662-1.025,1.541-1.024,2.476v.499s-7.003,0-7.003,0v-.499c0-.668.26-1.296.732-1.769Zm-1.302,21.268c-1.048,0-2.07-.371-2.877-1.043-1.869-1.556-2.087-4.452-.506-6.429l3.302-3.618c.422-.462.654-1.061.653-1.686l-.002-5.224h7.003l.002,5.224c0,.375-.139.735-.392,1.012l-3.324,3.642c-1.566,1.957-1.685,4.627-.471,6.585-.855.979-2.079,1.537-3.389,1.537Zm15.745-6.564l-4.225,4.875c-.858,1.073-2.14,1.689-3.517,1.689-1.048,0-2.07-.371-2.877-1.043-1.869-1.556-2.087-4.452-.506-6.429l3.302-3.618c.422-.462.653-1.061.653-1.686l-.002-5.224h9l.002,6.521c0,1.805-.649,3.55-1.831,4.914Z"/>
</svg>
