<?xml version="1.0" encoding="UTF-8"?>
<svg xmlns="http://www.w3.org/2000/svg" id="Layer_1" data-name="Layer 1" viewBox="0 0 24 24">
  <path d="m22,15.351v-1.851c0-1.93-1.57-3.5-3.5-3.5s-3.5,1.57-3.5,3.5v1.851c-1.178.564-2,1.758-2,3.149v2c0,1.93,1.57,3.5,3.5,3.5h4c1.93,0,3.5-1.57,3.5-3.5v-2c0-1.391-.822-2.585-2-3.149Zm-6-1.851c0-1.378,1.122-2.5,2.5-2.5s2.5,1.122,2.5,2.5v1.551c-.165-.024-.329-.051-.5-.051h-4c-.171,0-.335.027-.5.051v-1.551Zm7,7c0,1.378-1.122,2.5-2.5,2.5h-4c-1.378,0-2.5-1.122-2.5-2.5v-2c0-1.378,1.122-2.5,2.5-2.5h4c1.378,0,2.5,1.122,2.5,2.5v2Zm-3.5-1c0,.552-.448,1-1,1s-1-.448-1-1,.448-1,1-1,1,.448,1,1Zm-8.5-3c0,.276-.224.5-.5.5h-3.478l-.788,6.56c-.031.254-.247.44-.496.44-.02,0-.04,0-.06-.003-.274-.033-.47-.282-.437-.556l.774-6.44H.5c-.276,0-.5-.224-.5-.5s.224-.5.5-.5h5.634l.961-8H1.5c-.276,0-.5-.224-.5-.5s.224-.5.5-.5h5.716l.788-6.56c.034-.273.28-.467.556-.437.274.033.47.282.437.556l-.774,6.44h8.723l.788-6.56c.033-.273.282-.467.556-.437.274.033.47.282.437.556l-.774,6.44h5.546c.276,0,.5.224.5.5s-.224.5-.5.5h-15.397l-.961,8h3.358c.276,0,.5.224.5.5Z"/>
</svg>
