<?xml version="1.0" encoding="UTF-8"?>
<svg xmlns="http://www.w3.org/2000/svg" id="Layer_1" data-name="Layer 1" viewBox="0 0 24 24">
  <path d="m18.5,15.5c-1.103,0-2,.897-2,2s.897,2,2,2,2-.897,2-2-.897-2-2-2Zm0,3c-.551,0-1-.449-1-1s.449-1,1-1,1,.449,1,1-.449,1-1,1Zm3.888-4.896c-1.039-1.034-2.419-1.604-3.888-1.604s-2.85.569-3.889,1.604c-1.039,1.035-1.611,2.411-1.611,3.875s.572,2.839,1.626,3.888l1.971,1.813c.512.498,1.188.772,1.903.772s1.391-.274,1.892-.762l1.996-1.837c1.039-1.035,1.611-2.411,1.611-3.875s-.572-2.84-1.611-3.875Zm-.691,7.027l-1.992,1.833c-.647.631-1.752.641-2.421-.01l-1.967-1.81c-.85-.846-1.317-1.97-1.317-3.166s.468-2.32,1.317-3.166c.85-.846,1.98-1.312,3.183-1.312s2.333.466,3.182,1.312c.85.846,1.317,1.97,1.317,3.166s-.468,2.32-1.303,3.152Zm-8.697,2.87c0,.276-.224.5-.5.5H4.5c-2.481,0-4.5-2.019-4.5-4.5V4.5C0,2.019,2.019,0,4.5,0h7c2.481,0,4.5,2.019,4.5,4.5v6c0,.276-.224.5-.5.5s-.5-.224-.5-.5v-6c0-1.93-1.57-3.5-3.5-3.5h-7c-1.93,0-3.5,1.57-3.5,3.5v15c0,1.93,1.57,3.5,3.5,3.5h8c.276,0,.5.224.5.5Zm-6-10c0,.276-.224.5-.5.5h-2c-.276,0-.5-.224-.5-.5s.224-.5.5-.5h2c.276,0,.5.224.5.5Zm5,0c0,.276-.224.5-.5.5h-2c-.276,0-.5-.224-.5-.5s.224-.5.5-.5h2c.276,0,.5.224.5.5Zm-5,4c0,.276-.224.5-.5.5h-2c-.276,0-.5-.224-.5-.5s.224-.5.5-.5h2c.276,0,.5.224.5.5Zm5,0c0,.276-.224.5-.5.5h-2c-.276,0-.5-.224-.5-.5s.224-.5.5-.5h2c.276,0,.5.224.5.5ZM7,5.5c0,.276-.224.5-.5.5h-2c-.276,0-.5-.224-.5-.5s.224-.5.5-.5h2c.276,0,.5.224.5.5Zm5,0c0,.276-.224.5-.5.5h-2c-.276,0-.5-.224-.5-.5s.224-.5.5-.5h2c.276,0,.5.224.5.5Zm-5,4c0,.276-.224.5-.5.5h-2c-.276,0-.5-.224-.5-.5s.224-.5.5-.5h2c.276,0,.5.224.5.5Zm5,0c0,.276-.224.5-.5.5h-2c-.276,0-.5-.224-.5-.5s.224-.5.5-.5h2c.276,0,.5.224.5.5Z"/>
</svg>
