<?xml version="1.0" encoding="UTF-8"?>
<svg xmlns="http://www.w3.org/2000/svg" id="Layer_1" data-name="Layer 1" viewBox="0 0 24 24">
  <path d="m22.454,6.546c-2.189-2.19-5.917-2.029-8.308.362-.687.687-1.199,1.486-1.525,2.375-.577,1.575-1.763,2.761-3.338,3.338-.891.326-1.689.839-2.375,1.525-2.391,2.391-2.553,6.117-.362,8.308,1.032,1.033,2.406,1.542,3.821,1.542,1.586,0,3.223-.641,4.486-1.904.686-.686,1.198-1.484,1.525-2.375.577-1.575,1.763-2.761,3.338-3.338.891-.327,1.689-.84,2.375-1.525,1.151-1.151,1.827-2.645,1.901-4.205.075-1.578-.472-3.035-1.539-4.103Zm.54,4.055c-.062,1.311-.634,2.57-1.609,3.545-.582.582-1.259,1.018-2.012,1.293-1.856.681-3.253,2.077-3.934,3.934-.275.753-.711,1.43-1.293,2.012-2.001,2.001-5.094,2.162-6.894.362s-1.638-4.894.362-6.894c.582-.582,1.259-1.018,2.012-1.293,1.856-.681,3.253-2.077,3.934-3.934.275-.752.711-1.429,1.293-2.012,1.069-1.069,2.45-1.613,3.779-1.613,1.157,0,2.276.413,3.114,1.251.866.866,1.309,2.055,1.247,3.348ZM2.844,19.808c.201.189.209.506.019.706-.098.104-.23.156-.362.156-.124,0-.247-.046-.344-.138-1.203-1.141-1.894-2.792-1.894-4.53,0-.864.166-1.7.493-2.483.679-1.623.679-3.41,0-5.033-.327-.783-.493-1.619-.493-2.483C.263,2.693,2.73.002,5.763.002s5.5,2.691,5.5,6c0,.868-.166,1.703-.493,2.484-.151.36-.271.738-.354,1.121-.059.27-.321.442-.596.381-.27-.059-.44-.326-.381-.595.097-.443.234-.878.409-1.294.275-.657.415-1.363.415-2.097,0-2.757-2.019-5-4.5-5S1.263,3.245,1.263,6.002c0,.732.14,1.438.415,2.098.784,1.872.784,3.934,0,5.805-.275.66-.415,1.366-.415,2.098,0,1.465.576,2.852,1.581,3.806Zm12.156-3.808c0,.552-.448,1-1,1s-1-.448-1-1,.448-1,1-1,1,.448,1,1Zm-2,3c0,.552-.448,1-1,1s-1-.448-1-1,.448-1,1-1,1,.448,1,1Z"/>
</svg>
