<?xml version="1.0" encoding="UTF-8"?>
<svg xmlns="http://www.w3.org/2000/svg" id="Layer_1" data-name="Layer 1" viewBox="0 0 24 24">
  <path d="m22,9.282C22,4.164,17.514,0,12,0S2,4.164,2,9.282c0,5.494,3.582,11.585,8.578,12.578-.188.263-.337.562-.438.86-.099.294-.049.62.133.872.184.256.48.408.795.408h1.863c.314,0,.611-.152.795-.408.182-.252.231-.578.133-.873-.1-.298-.249-.596-.437-.859,4.996-.993,8.578-7.083,8.578-12.578Zm-9.088,13.718l-1.824.039c.193-.573.603-1.039.912-1.039s.715.462.912,1Zm-.912-2c-5.068,0-9-6.299-9-11.718C3,4.716,7.037,1,12,1s9,3.716,9,8.282c0,5.419-3.932,11.718-9,11.718Zm5.982-10.466c-.137,1.974-1.023,3.962-2.374,5.318-.098.099-.227.147-.354.147s-.255-.049-.353-.146c-.196-.195-.196-.512-.002-.707,1.168-1.174,1.967-2.968,2.085-4.682.02-.275.26-.494.533-.465.275.02.483.258.465.533Z"/>
</svg>
