<?xml version="1.0" encoding="UTF-8"?>
<svg xmlns="http://www.w3.org/2000/svg" id="Layer_1" data-name="Layer 1" viewBox="0 0 24 24">
  <path d="m21.372,13.653c-1.325-1.059-3.87-3.044-6.028-4.441-.127-.083-.204-.206-.221-.357-.288-2.554-.93-5.717-1.286-7.375-.187-.871-.942-1.479-1.837-1.479s-1.65.608-1.837,1.479c-.356,1.658-.998,4.822-1.286,7.375-.017.151-.093.274-.221.357-2.157,1.397-4.702,3.382-6.027,4.441-.696.556-.903,1.503-.504,2.304.326.654.975,1.044,1.672,1.044.156,0,.313-.02.471-.06,1.7-.435,4.827-1.279,7.232-2.162l-.021,8.221h-3.979c-.276,0-.5.224-.5.5s.224.5.5.5h9c.276,0,.5-.224.5-.5s-.224-.5-.5-.5h-4.021l.021-8.222c2.404.883,5.533,1.728,7.234,2.163.862.22,1.744-.184,2.143-.985.399-.801.192-1.748-.504-2.304Zm-.391,1.858c-.186.375-.597.564-1,.462-1.757-.45-5.063-1.34-7.456-2.249-.172-.065-.349-.098-.525-.098s-.353.033-.524.098c-2.394.909-5.7,1.799-7.457,2.249-.402.101-.813-.087-1-.462-.187-.375-.091-.817.233-1.076,1.311-1.047,3.826-3.009,5.947-4.383.376-.244.622-.639.672-1.084.283-2.511.917-5.637,1.27-7.278.087-.406.44-.689.859-.689s.772.283.859.689c.353,1.641.987,4.767,1.27,7.278.05.445.295.841.671,1.084,2.121,1.374,4.637,3.336,5.947,4.383.324.259.42.702.233,1.077Zm-7.98-4.511c0,.552-.448,1-1,1s-1-.448-1-1,.448-1,1-1,1,.448,1,1Z"/>
</svg>
