<?xml version="1.0" encoding="UTF-8"?>
<svg xmlns="http://www.w3.org/2000/svg" id="Layer_1" data-name="Layer 1" viewBox="0 0 24 24">
  <path d="m17,12.5v7c0,.276-.224.5-.5.5s-.5-.224-.5-.5v-7c0-.276.224-.5.5-.5s.5.224.5.5Zm-4.5-.5c-.276,0-.5.224-.5.5v4.5c0,1.103-.897,2-2,2s-2-.897-2-2v-4.5c0-.276-.224-.5-.5-.5s-.5.224-.5.5v4.5c0,1.654,1.346,3,3,3s3-1.346,3-3v-4.5c0-.276-.224-.5-.5-.5Zm11.5-6.5v13c0,2.481-2.019,4.5-4.5,4.5H4.5c-2.481,0-4.5-2.019-4.5-4.5V5.5C0,3.019,2.019,1,4.5,1h15c2.481,0,4.5,2.019,4.5,4.5ZM1,5.5v2.5h22v-2.5c0-1.93-1.57-3.5-3.5-3.5H4.5c-1.93,0-3.5,1.57-3.5,3.5Zm22,13v-9.5H1v9.5c0,1.93,1.57,3.5,3.5,3.5h15c1.93,0,3.5-1.57,3.5-3.5ZM4,6c.552,0,1-.448,1-1s-.448-1-1-1-1,.448-1,1,.448,1,1,1Zm3,0c.552,0,1-.448,1-1s-.448-1-1-1-1,.448-1,1,.448,1,1,1Zm3,0c.552,0,1-.448,1-1s-.448-1-1-1-1,.448-1,1,.448,1,1,1Z"/>
</svg>
