<?xml version="1.0" encoding="UTF-8"?>
<svg xmlns="http://www.w3.org/2000/svg" id="Layer_1" data-name="Layer 1" viewBox="0 0 24 24">
  <path d="m7,8.075c1.725,0,2.655-.806,3.106-1.604.123-.218-.056-.445-.265-.445-.057,0-.117.017-.173.056-.48.331-1.086.466-1.668.466-1.094,0-2-.658-2-1.5,0-1.811,1.876-1.996,3.131-1.996.131,0,.255.002.369.004,1.453.03,3.5.992,3.5,2.992,0,1.204-.57,2.337-1.486,3.205-.198.188-.042.494.195.494.035,0,.071-.007.108-.021,1.724-.668,3.183-2.293,3.183-4.678C15,1.828,11.753.074,8.715.074,6,.074,3,1.5,3,4.548c0,1.536,1,3.527,4,3.527Zm1.716-7.001c2.562,0,5.284,1.393,5.284,3.974,0,.176-.01.349-.029.517-.292-2.358-2.705-3.472-4.45-3.509-.121-.003-.252-.005-.39-.005-3.594,0-4.131,1.877-4.131,2.996,0,.794.422,1.49,1.094,1.945-1.898-.377-2.094-1.937-2.094-2.46,0-2.533,3-3.459,4.715-3.459Zm14.466,8.581c-.497-.452-1.142-.68-1.809-.652-.67.032-1.288.322-1.739.818l-3.732,4.102c-.314-1.108-1.335-1.922-2.543-1.922H3.5c-1.93,0-3.5,1.57-3.5,3.5v5c0,1.93,1.57,3.5,3.5,3.5h5.965c2.707,0,5.292-1.159,7.093-3.181l6.806-7.639c.911-1.022.829-2.604-.183-3.526Zm-.563,2.861l-6.806,7.639c-1.611,1.809-3.925,2.846-6.347,2.846H3.5c-1.379,0-2.5-1.122-2.5-2.5v-5c0-1.378,1.121-2.5,2.5-2.5h9.857c.905,0,1.643.737,1.643,1.642,0,.812-.606,1.511-1.398,1.624l-6.161.737c-.274.033-.47.282-.437.556.032.275.282.466.556.437l6.173-.739c1.021-.146,1.844-.878,2.145-1.824l4.496-4.94c.271-.298.643-.473,1.046-.492.402-.019.79.12,1.088.393.609.555.658,1.506.11,2.122Z"/>
</svg>
