<?xml version="1.0" encoding="UTF-8"?>
<svg xmlns="http://www.w3.org/2000/svg" id="Layer_1" data-name="Layer 1" viewBox="0 0 24 24">
  <path d="m14,23.5c0,.276-.224.5-.5.5h-3c-.276,0-.5-.224-.5-.5s.224-.5.5-.5h3c.276,0,.5.224.5.5ZM1,16c0-1.654,1.346-3,3-3s3,1.346,3,3-1.346,3-3,3-3-1.346-3-3Zm1,0c0,1.103.897,2,2,2s2-.897,2-2-.897-2-2-2-2,.897-2,2Zm5.5,8c-.024.004.024,0,0,0h0Zm-3.5-4c-1.991,0-3.709,1.474-3.995,3.428-.04.273.149.527.423.567.269.042.526-.148.567-.422.215-1.466,1.507-2.572,3.005-2.572s2.79,1.106,3.005,2.572c.037.249.251.428.495.428.273-.04.535-.299.495-.572-.286-1.954-2.004-3.428-3.995-3.428Zm13-4c0-1.654,1.346-3,3-3s3,1.346,3,3-1.346,3-3,3-3-1.346-3-3Zm1,0c0,1.103.897,2,2,2s2-.897,2-2-.897-2-2-2-2,.897-2,2Zm6-9.5v5c0,.276-.224.5-.5.5s-.5-.224-.5-.5v-2.5H1v2.5c0,.276-.224.5-.5.5s-.5-.224-.5-.5v-5C0,4.019,2.019,2,4.5,2h1.5V.5c0-.276.224-.5.5-.5s.5.224.5.5v1.5h10V.5c0-.276.224-.5.5-.5s.5.224.5.5v1.5h1.5c2.481,0,4.5,2.019,4.5,4.5Zm-1,0c0-1.93-1.57-3.5-3.5-3.5H4.5c-1.93,0-3.5,1.57-3.5,3.5v1.5h22v-1.5Zm.5,17.5c-.024.004.024,0,0,0h0Zm-3.5-4c-1.991,0-3.709,1.474-3.995,3.428-.04.273.149.527.423.567.269.042.526-.148.567-.422.215-1.466,1.507-2.572,3.005-2.572s2.79,1.106,3.005,2.572c.037.249.251.428.495.428.273-.04.535-.299.495-.572-.286-1.954-2.004-3.428-3.995-3.428Z"/>
</svg>
