<?xml version="1.0" encoding="UTF-8"?>
<svg xmlns="http://www.w3.org/2000/svg" id="Layer_1" data-name="Layer 1" viewBox="0 0 24 24">
  <path d="m22.802.703c-.273-.44-.746-.703-1.265-.703h-4.026c-1.342,0-2.544.748-3.139,1.951l-2.002,4.057c-.123-.005-.246-.008-.37-.008s-.247.003-.37.008l-2.002-4.057c-.595-1.203-1.797-1.951-3.139-1.951H2.463c-.519,0-.991.263-1.265.703-.274.44-.3.981-.07,1.445l3.674,7.455c-1.131,1.505-1.802,3.374-1.802,5.396,0,4.963,4.037,9,9,9s9-4.037,9-9c0-2.023-.671-3.892-1.802-5.396l3.674-7.454c.229-.465.204-1.006-.07-1.446ZM2.024,1.706c-.109-.221-.021-.405.022-.476.044-.069.17-.23.416-.23h4.026c.958,0,1.817.534,2.242,1.395l1.835,3.72c-1.974.317-3.734,1.278-5.06,2.659L2.024,1.706Zm17.976,13.294c0,4.411-3.589,8-8,8s-8-3.589-8-8c0-4.177,3.692-8,8-8s8,3.823,8,8Zm1.976-13.293l-3.483,7.067c-1.326-1.382-3.086-2.342-5.06-2.659l1.835-3.72c.425-.86,1.284-1.395,2.242-1.395h4.026c.246,0,.372.161.416.23.043.07.132.255.022.477Zm-6.486,15.543c0,1.517-1.233,2.75-2.75,2.75h-3.239c-.276,0-.5-.224-.5-.5s.224-.5.5-.5h3.239c.965,0,1.75-.785,1.75-1.75s-.785-1.75-1.75-1.75h-1.239c-.276,0-.5-.224-.5-.5s.224-.5.5-.5h.75c.965,0,1.75-.785,1.75-1.75s-.785-1.75-1.75-1.75h-2.75c-.276,0-.5-.224-.5-.5s.224-.5.5-.5h2.75c1.517,0,2.75,1.233,2.75,2.75,0,.831-.371,1.576-.954,2.08.859.466,1.444,1.375,1.444,2.42Z"/>
</svg>
