<?xml version="1.0" encoding="UTF-8"?>
<svg xmlns="http://www.w3.org/2000/svg" id="Layer_1" data-name="Layer 1" viewBox="0 0 24 24">
  <path d="m17.804,5.891l-5.804-.946V1h.5c.276,0,.5-.224.5-.5s-.224-.5-.5-.5h-7c-.276,0-.5.224-.5.5s.224.5.5.5h.5v4.024l-1.08.405c-1.747.655-2.92,2.348-2.92,4.214v9.857c0,2.481,2.019,4.5,4.5,4.5h11c2.481,0,4.5-2.019,4.5-4.5v-8.674c0-2.463-1.765-4.539-4.196-4.935Zm3.196,13.609c0,1.93-1.57,3.5-3.5,3.5H6.5c-1.758,0-3.204-1.308-3.449-3h8.449c.276,0,.5-.224.5-.5s-.224-.5-.5-.5H3v-3h8.5c.276,0,.5-.224.5-.5s-.224-.5-.5-.5H3v-3h8.5c.276,0,.5-.224.5-.5s-.224-.5-.5-.5H3v-1.357c0-1.451.913-2.768,2.271-3.277l1.404-.526c.195-.073.325-.26.325-.468V1h4v4.371c0,.245.178.454.419.494l6.224,1.014c1.945.316,3.357,1.977,3.357,3.948v8.674Zm-4-11.5c-1.654,0-3,1.346-3,3v6c0,1.654,1.346,3,3,3s3-1.346,3-3v-6c0-1.654-1.346-3-3-3Zm2,9c0,1.103-.897,2-2,2s-2-.897-2-2v-6c0-1.103.897-2,2-2s2,.897,2,2v6Z"/>
</svg>
