<?xml version="1.0" encoding="UTF-8"?>
<svg xmlns="http://www.w3.org/2000/svg" id="Layer_1" data-name="Layer 1" viewBox="0 0 24 24">
  <path d="m8,12c3.309,0,6-2.691,6-6S11.309,0,8,0,2,2.691,2,6s2.691,6,6,6Zm0-11c2.757,0,5,2.243,5,5s-2.243,5-5,5-5-2.243-5-5S5.243,1,8,1Zm8,21v1.5c0,.276-.224.5-.5.5s-.5-.224-.5-.5v-1.5c0-3.859-3.14-7-7-7s-7,3.141-7,7v1.5c0,.276-.224.5-.5.5s-.5-.224-.5-.5v-1.5c0-4.411,3.589-8,8-8s8,3.589,8,8Zm7.854-6.854c.195.195.195.512,0,.707-.098.098-.226.146-.354.146s-.256-.049-.354-.146l-3.146-3.146-3.146,3.146c-.098.098-.226.146-.354.146s-.256-.049-.354-.146c-.195-.195-.195-.512,0-.707l3.146-3.146-3.146-3.146c-.195-.195-.195-.512,0-.707s.512-.195.707,0l3.146,3.146,3.146-3.146c.195-.195.512-.195.707,0s.195.512,0,.707l-3.146,3.146,3.146,3.146Z"/>
</svg>
