<?xml version="1.0" encoding="UTF-8"?>
<svg xmlns="http://www.w3.org/2000/svg" id="Layer_1" data-name="Layer 1" viewBox="0 0 24 24">
  <path d="m24,8.5v8c0,2.481-2.019,4.5-4.5,4.5h-7v2h4c.276,0,.5.224.5.5s-.224.5-.5.5H7.5c-.276,0-.5-.224-.5-.5s.224-.5.5-.5h4v-2h-7c-2.481,0-4.5-2.019-4.5-4.5v-8c0-2.055,1.388-3.847,3.375-4.358.269-.071.54.093.609.36.068.267-.093.54-.359.609-1.546.397-2.625,1.792-2.625,3.39v8c0,1.93,1.57,3.5,3.5,3.5h15c1.93,0,3.5-1.57,3.5-3.5v-8c0-1.598-1.079-2.992-2.625-3.39-.267-.069-.428-.341-.359-.609.069-.267.34-.431.609-.36,1.987.511,3.375,2.304,3.375,4.358Zm-14-1.5c0-1.103.897-2,2-2s2,.897,2,2-.897,2-2,2-2-.897-2-2Zm1,0c0,.551.448,1,1,1s1-.449,1-1-.448-1-1-1-1,.449-1,1Zm-4.506,1.478l.646-.377c-.094-.384-.14-.747-.14-1.1s.046-.716.14-1.101l-.646-.376c-.714-.418-.956-1.338-.539-2.052s1.337-.957,2.052-.54l.641.375c.537-.489,1.166-.852,1.853-1.068v-.738c0-.827.673-1.5,1.5-1.5s1.5.673,1.5,1.5v.738c.687.216,1.316.579,1.853,1.068l.642-.374c.346-.203.749-.256,1.137-.156.388.102.712.349.914.695.417.714.175,1.635-.539,2.052l-.646.377c.094.386.14.749.14,1.101s-.046.715-.14,1.1l.646.377c.347.202.593.526.694.914.103.387.047.791-.155,1.137s-.526.593-.914.695c-.391.102-.792.045-1.137-.156l-.642-.374c-.536.489-1.166.852-1.853,1.068v.738c0,.827-.673,1.5-1.5,1.5s-1.5-.673-1.5-1.5v-.738c-.687-.216-1.315-.579-1.853-1.068l-.641.374c-.715.417-1.635.175-2.052-.539-.417-.714-.175-1.634.539-2.051Zm.324,1.547c.139.238.446.318.685.179l.971-.566c.078-.046.165-.068.252-.068.135,0,.268.054.364.158.55.586,1.249.989,2.021,1.165.228.052.389.254.389.487v1.121c0,.276.225.5.5.5s.5-.224.5-.5v-1.121c0-.233.161-.436.389-.487.773-.176,1.473-.579,2.021-1.165.161-.171.415-.207.617-.09l.972.567c.115.067.253.085.379.052.129-.034.237-.116.305-.231.067-.116.086-.25.052-.379s-.116-.237-.231-.304l-.979-.572c-.201-.118-.295-.358-.226-.581.138-.441.202-.819.202-1.188s-.064-.748-.202-1.189c-.069-.222.024-.463.226-.581l.979-.571c.238-.139.318-.446.18-.685-.067-.115-.176-.197-.305-.231-.126-.032-.263-.016-.379.052l-.972.567c-.199.117-.456.082-.617-.09-.548-.586-1.247-.988-2.021-1.165-.228-.052-.389-.254-.389-.487v-1.12c0-.276-.225-.5-.5-.5s-.5.224-.5.5v1.12c0,.233-.161.436-.389.487-.772.176-1.472.579-2.021,1.165-.159.171-.417.207-.616.09l-.971-.567c-.238-.138-.546-.059-.685.18s-.058.545.181.685l.979.571c.201.118.295.359.225.582-.138.439-.202.817-.202,1.188s.064.748.202,1.188c.07.223-.022.464-.225.582l-.979.572c-.238.139-.318.446-.18.684Z"/>
</svg>
