<?xml version="1.0" encoding="UTF-8"?>
<svg xmlns="http://www.w3.org/2000/svg" id="Layer_1" data-name="Layer 1" viewBox="0 0 24 24">
  <path d="m19.5,1H4.5C2.019,1,0,3.019,0,5.5v13c0,2.481,2.019,4.5,4.5,4.5h2c.276,0,.5-.224.5-.5s-.224-.5-.5-.5h-2c-1.93,0-3.5-1.57-3.5-3.5v-9.5h22v9.5c0,1.93-1.57,3.5-3.5,3.5h-2c-.276,0-.5.224-.5.5s.224.5.5.5h2c2.481,0,4.5-2.019,4.5-4.5V5.5c0-2.481-2.019-4.5-4.5-4.5ZM1,8v-2.5c0-1.93,1.57-3.5,3.5-3.5h15c1.93,0,3.5,1.57,3.5,3.5v2.5H1Zm4-3c0,.552-.448,1-1,1s-1-.448-1-1,.448-1,1-1,1,.448,1,1Zm3,0c0,.552-.448,1-1,1s-1-.448-1-1,.448-1,1-1,1,.448,1,1Zm3,0c0,.552-.448,1-1,1s-1-.448-1-1,.448-1,1-1,1,.448,1,1Zm7,10.5c0,1.893-.868,3.635-2.38,4.779-.394.299-.62.738-.62,1.206v2.015c0,.276-.224.5-.5.5s-.5-.224-.5-.5v-2.015c0-.783.37-1.514,1.016-2.003,1.261-.954,1.984-2.406,1.984-3.982,0-1.252-.467-2.449-1.313-3.373-.175-.19-.384-.13-.444-.105-.073.028-.242.12-.242.356v1.479c0,1.602-1.183,2.976-2.692,3.127-.849.089-1.693-.191-2.32-.76-.627-.567-.987-1.379-.987-2.225v-1.622c0-.236-.169-.328-.242-.356-.061-.023-.269-.084-.444.105-.847.924-1.314,2.121-1.314,3.373,0,1.576.723,3.028,1.984,3.982.646.489,1.016,1.22,1.016,2.003v2.015c0,.276-.224.5-.5.5s-.5-.224-.5-.5v-2.015c0-.468-.226-.907-.62-1.206-1.512-1.145-2.38-2.887-2.38-4.779,0-1.503.56-2.94,1.577-4.049.396-.432,1.001-.574,1.544-.361.534.208.879.713.879,1.288v1.622c0,.564.24,1.104.658,1.483.425.384.975.565,1.55.507,1.005-.102,1.792-1.038,1.792-2.133v-1.479c0-.575.345-1.08.879-1.288.543-.212,1.148-.07,1.544.361,1.017,1.108,1.577,2.546,1.577,4.049Z"/>
</svg>
