<?xml version="1.0" encoding="UTF-8"?>
<svg xmlns="http://www.w3.org/2000/svg" id="Layer_1" data-name="Layer 1" viewBox="0 0 24 24">
  <path d="m20.776,16.213l-6.897-3.135c-.534-.243-.879-.778-.879-1.365V3.501c0-1.053-.467-2.039-1.281-2.707-.814-.668-1.872-.931-2.906-.726L2.813,1.269c-1.63.326-2.813,1.769-2.813,3.432v17.299c0,1.103.897,2,2,2h4c1.103,0,2-.897,2-2v-1.705c.279.122.543.28.783.472l2.809,2.247c.795.636,1.793.986,2.812.986h6.816c1.533,0,2.78-1.247,2.78-2.78,0-2.152-1.266-4.117-3.224-5.007Zm-13.776,5.787c0,.551-.449,1-1,1H2c-.551,0-1-.449-1-1v-2h5.597c.135,0,.27.009.403.024v1.976Zm14.22,1h-6.816c-.792,0-1.568-.272-2.187-.767l-2.809-2.247c-.795-.636-1.793-.986-2.812-.986H1V4.701c0-1.188.845-2.219,2.01-2.452l2.99-.598v9.849c0,.276.224.5.5.5s.5-.224.5-.5V1.5c0-.016,0-.032-.002-.048l2.012-.403c.737-.146,1.493.041,2.075.519.582.477.915,1.181.915,1.933v8.211c0,.978.575,1.871,1.465,2.275l6.896,3.135c1.603.728,2.638,2.336,2.638,4.097,0,.981-.799,1.78-1.78,1.78Z"/>
</svg>
