<?xml version="1.0" encoding="UTF-8"?>
<svg xmlns="http://www.w3.org/2000/svg" id="Layer_1" data-name="Layer 1" viewBox="0 0 24 24">
  <path d="m12.961,16.536l-.469,6.464c-.043.705-.472,1-.988,1-.342,0-.66-.242-.841-.64l-1.164-2.56-1.164,2.56c-.181.398-.499.64-.841.64-.516,0-.945-.295-.988-1l-.469-6.464c-.021-.29.208-.536.499-.536.262,0,.48.202.499.464l.459,6.33,1.41-3.103c.232-.51.957-.51,1.189,0l1.41,3.102.459-6.33c.019-.261.237-.464.499-.464h0c.29,0,.52.247.499.536Zm4.539.464c.276,0,.5-.224.5-.5s-.224-.5-.5-.5h-2.5c-.552,0-1,.448-1,1v6c0,.552.448,1,1,1h2.5c.276,0,.5-.224.5-.5s-.224-.5-.5-.5h-2.5v-2.5h2.5c.276,0,.5-.224.5-.5s-.224-.5-.5-.5h-2.5v-2.5h2.5Zm6.5,1.5v3c0,1.379-1.121,2.5-2.5,2.5h-1.5c-.552,0-1-.448-1-1v-6c0-.552.448-1,1-1h1.5c1.379,0,2.5,1.121,2.5,2.5Zm-1,0c0-.827-.673-1.5-1.5-1.5h-1.5v6h1.5c.827,0,1.5-.673,1.5-1.5v-3Zm1-12v7.038c0,.276-.224.5-.5.5s-.5-.224-.5-.5v-4.538H1v10.5c0,1.636,1.158,3.074,2.755,3.421.27.059.44.324.382.595-.051.233-.258.394-.487.394-.035,0-.071-.004-.107-.012-2.052-.445-3.542-2.295-3.542-4.397V6.5C0,4.019,2.019,2,4.5,2h1.5V.5c0-.276.224-.5.5-.5s.5.224.5.5v1.5h10V.5c0-.276.224-.5.5-.5s.5.224.5.5v1.5h1.5c2.481,0,4.5,2.019,4.5,4.5Zm-1,1.5v-1.5c0-1.93-1.57-3.5-3.5-3.5H4.5c-1.93,0-3.5,1.57-3.5,3.5v1.5h22Z"/>
</svg>
