<?xml version="1.0" encoding="UTF-8"?>
<svg xmlns="http://www.w3.org/2000/svg" id="Layer_1" data-name="Layer 1" viewBox="0 0 24 24">
  <path d="m24,16.5v5c0,1.379-1.122,2.5-2.5,2.5s-2.5-1.121-2.5-2.5v-5c0-.276.224-.5.5-.5s.5.224.5.5v5c0,.827.673,1.5,1.5,1.5s1.5-.673,1.5-1.5v-5c0-.276.224-.5.5-.5s.5.224.5.5Zm-6.5-.5c-.276,0-.5.224-.5.5v3h-3v-3c0-.276-.224-.5-.5-.5s-.5.224-.5.5v7c0,.276.224.5.5.5s.5-.224.5-.5v-3h3v3c0,.276.224.5.5.5s.5-.224.5-.5v-7c0-.276-.224-.5-.5-.5Zm-6,0h-4c-.276,0-.5.224-.5.5s.224.5.5.5h1.5v6.5c0,.276.224.5.5.5s.5-.224.5-.5v-6.5h1.5c.276,0,.5-.224.5-.5s-.224-.5-.5-.5Zm12.5-9.5v7c0,.276-.224.5-.5.5s-.5-.224-.5-.5v-4.5H1v10.5c0,1.93,1.57,3.5,3.5,3.5h2c.276,0,.5.224.5.5s-.224.5-.5.5h-2c-2.481,0-4.5-2.019-4.5-4.5V6.5C0,4.019,2.019,2,4.5,2h1.5V.5c0-.276.224-.5.5-.5s.5.224.5.5v1.5h10V.5c0-.276.224-.5.5-.5s.5.224.5.5v1.5h1.5c2.481,0,4.5,2.019,4.5,4.5Zm-1,1.5v-1.5c0-1.93-1.57-3.5-3.5-3.5H4.5c-1.93,0-3.5,1.57-3.5,3.5v1.5h22Z"/>
</svg>
