<?xml version="1.0" encoding="UTF-8"?>
<svg xmlns="http://www.w3.org/2000/svg" id="Layer_1" data-name="Layer 1" viewBox="0 0 24 24">
  <path d="m14,4c-1.654,0-3,1.346-3,3s1.346,3,3,3,3-1.346,3-3-1.346-3-3-3Zm0,5c-1.103,0-2-.897-2-2s.897-2,2-2,2,.897,2,2-.897,2-2,2Zm2,10.5c0,.276-.224.5-.5.5h-2c-.276,0-.5-.224-.5-.5s.224-.5.5-.5h2c.276,0,.5.224.5.5Zm8,0c0,.5-.173.794-.439,1.061l-2.57,2.571c-.098.098-.226.146-.354.146s-.256-.049-.354-.146c-.195-.195-.195-.512,0-.707l2.424-2.424h-4.207c-.276,0-.5-.224-.5-.5s.224-.5.5-.5h4.207l-2.424-2.424c-.195-.195-.195-.512,0-.707s.512-.195.707,0l2.57,2.571c.267.267.439.561.439,1.061ZM19.5,0h-11c-2.481,0-4.5,2.019-4.5,4.5v5c0,2.481,2.019,4.5,4.5,4.5h11c2.481,0,4.5-2.019,4.5-4.5v-5c0-2.481-2.019-4.5-4.5-4.5Zm3.5,9.5c0,1.93-1.57,3.5-3.5,3.5h-11c-1.93,0-3.5-1.57-3.5-3.5v-5c0-1.93,1.57-3.5,3.5-3.5h11c1.93,0,3.5,1.57,3.5,3.5v5Zm-14,.5c0,.552-.448,1-1,1s-1-.448-1-1,.448-1,1-1,1,.448,1,1Zm12,0c0,.552-.448,1-1,1s-1-.448-1-1,.448-1,1-1,1,.448,1,1Zm0-6c0,.552-.448,1-1,1s-1-.448-1-1,.448-1,1-1,1,.448,1,1Zm-12,0c0,.552-.448,1-1,1s-1-.448-1-1,.448-1,1-1,1,.448,1,1Zm2,15.5c0,.276-.224.5-.5.5h-6c-2.481,0-4.5-2.019-4.5-4.5v-5c0-1.047.408-2.129,1.118-2.969.179-.21.493-.237.705-.059.21.179.237.494.059.705-.552.652-.882,1.52-.882,2.322v5c0,1.93,1.57,3.5,3.5,3.5h6c.276,0,.5.224.5.5Z"/>
</svg>
