<?xml version="1.0" encoding="UTF-8"?>
<svg xmlns="http://www.w3.org/2000/svg" id="Layer_1" data-name="Layer 1" viewBox="0 0 24 24">
  <path d="m22.567,3.751c-1.674-.957-3.152-1.459-4.915-1.666-.222-.498-.56-.943-.995-1.298-.816-.666-1.872-.926-2.899-.714-1.505.31-2.905.764-4.057,1.315-.266-.205-.571-.359-.901-.45-.714-.194-1.484-.078-2.11.325-2.037,1.311-4.117,3.391-5.428,5.428-.402.625-.521,1.395-.325,2.11.091.329.245.634.451.9-.551,1.152-1.005,2.552-1.316,4.059-.211,1.024.049,2.08.715,2.896.355.436.8.773,1.298.996.207,1.763.709,3.242,1.666,4.917.519.907,1.434,1.432,2.431,1.432.194,0,.392-.02.59-.061,1.258-.26,2.166-1.26,2.311-2.548.21-2.005.913-3.456,1.021-3.651.855-.316,1.574-.957,1.971-1.806.248-.531.48-.956.639-1.175l2.049-2.049c.22-.16.644-.39,1.172-.637.85-.398,1.492-1.118,1.807-1.972.201-.112,1.65-.81,3.649-1.02,1.288-.145,2.288-1.052,2.548-2.311.251-1.215-.288-2.401-1.372-3.021Zm-14.479,17.528c-.116,1.033-.891,1.551-1.519,1.681-.622.126-1.464-.036-1.95-.888-.812-1.421-1.27-2.686-1.488-4.135.131.015.264.022.398.022h5.359s.003,0,.005,0c-.279.67-.658,1.906-.805,3.321Zm3.081-5.768c-.412.879-1.307,1.447-2.28,1.447H3.529c-.766,0-1.483-.341-1.967-.935-.474-.582-.66-1.334-.51-2.063.268-1.3.662-2.554,1.123-3.579.042.024,9.428,4.274,9.428,4.274-.159.284-.313.597-.434.856Zm1.053-1.673L2.733,9.547c-.414-.207-.709-.566-.832-1.012-.121-.442-.048-.917.201-1.305,1.238-1.925,3.203-3.89,5.128-5.128.265-.17.57-.258.879-.258.143,0,.286.019.426.057.446.123.805.417,1.004.814l4.299,9.506-1.616,1.616Zm4.736-4.941c0,.968-.568,1.86-1.447,2.271-.258.121-.571.275-.855.434,0,0-4.253-9.392-4.273-9.429,1.025-.46,2.278-.854,3.577-1.122.733-.15,1.484.036,2.066.51.593.483.933,1.199.933,1.963v5.373Zm6.001-2.328c-.129.628-.647,1.402-1.681,1.519-1.414.148-2.65.526-3.321.805V3.524c0-.132-.007-.263-.022-.393,1.45.218,2.714.676,4.135,1.487.851.486,1.017,1.326.888,1.95Z"/>
</svg>
