<?xml version="1.0" encoding="UTF-8"?>
<svg xmlns="http://www.w3.org/2000/svg" id="Layer_1" data-name="Layer 1" viewBox="0 0 24 24">
  <path d="m23.832,9.694c-.068-.451-.366-.813-.797-.969-.43-.153-.91-.062-1.25.241l-1.044.927c-.952-3.949-4.504-6.894-8.741-6.894s-7.79,2.946-8.741,6.895l-1.044-.928c-.341-.305-.821-.396-1.252-.239-.43.155-.728.518-.795.967-.111.727-.168,1.503-.168,2.306s.057,1.579.168,2.304c.067.451.365.813.795.969.139.051.282.075.425.075.301,0,.596-.109.827-.314l1.044-.928c.952,3.949,4.504,6.895,8.741,6.895s7.789-2.946,8.741-6.894l1.044.927c.231.206.526.314.827.314.142,0,.285-.024.423-.074.431-.155.729-.518.797-.968.111-.728.168-1.503.168-2.306s-.057-1.578-.168-2.306ZM1.551,14.285c-.1.088-.205.062-.247.047-.048-.017-.13-.062-.147-.179-.104-.676-.156-1.4-.156-2.153s.053-1.478.156-2.155c.018-.114.1-.16.147-.177.042-.016.147-.042.247.047l1.501,1.334c-.033.313-.052.63-.052.951s.018.638.052.951l-1.501,1.334ZM12,4c1.25,0,2.429.296,3.484.81L4.809,15.484c-.513-1.055-.809-2.234-.809-3.484,0-4.411,3.589-8,8-8Zm-6.681,12.388l11.07-11.069c.911.601,1.692,1.382,2.293,2.293l-11.069,11.069c-.912-.601-1.693-1.382-2.294-2.293Zm6.681,3.612c-1.249,0-2.428-.296-3.483-.809l10.674-10.674c.513,1.055.809,2.233.809,3.483,0,4.411-3.589,8-8,8Zm10.844-5.845c-.018.114-.101.16-.147.177-.041.016-.148.041-.247-.047l-1.501-1.333c.033-.313.052-.63.052-.952s-.019-.639-.052-.952l1.501-1.334c.1-.087.206-.062.246-.047.048.017.131.062.148.178.104.679.156,1.403.156,2.155s-.053,1.477-.156,2.155Z"/>
</svg>
