<?xml version="1.0" encoding="UTF-8"?>
<svg xmlns="http://www.w3.org/2000/svg" id="Layer_1" data-name="Layer 1" viewBox="0 0 24 24">
  <path d="m12,0C5.383,0,0,5.383,0,12s5.383,12,12,12,12-5.383,12-12S18.617,0,12,0Zm0,23c-6.065,0-11-4.935-11-11S5.935,1,12,1s11,4.935,11,11-4.935,11-11,11Zm5.5-14H6.5c-.827,0-1.5.673-1.5,1.5v3c0,.827.673,1.5,1.5,1.5h11c.827,0,1.5-.673,1.5-1.5v-3c0-.827-.673-1.5-1.5-1.5Zm.5,4.5c0,.276-.225.5-.5.5H6.5c-.275,0-.5-.224-.5-.5v-3c0-.276.225-.5.5-.5h11c.275,0,.5.224.5.5v3Z"/>
</svg>
