<?xml version="1.0" encoding="UTF-8"?>
<svg xmlns="http://www.w3.org/2000/svg" id="Layer_1" data-name="Layer 1" viewBox="0 0 24 24">
  <path d="m13.561,9.246c-.852-1.449-2.118-2.246-3.563-2.246-1.409,0-2.639.772-3.549,2.223,0,0-6.066,9.136-6.077,9.158-.571,1.23-.477,2.648.253,3.792.73,1.145,1.976,1.827,3.333,1.827h12.084c1.357,0,2.603-.683,3.333-1.827.73-1.144.825-2.562.216-3.857l-6.03-9.069Zm-7.275,13.754l2.623-5.289c.202-.436.609-.696,1.09-.696s.888.261,1.096.708l2.619,5.277h-7.428Zm12.247-1.365c-.545.855-1.477,1.365-2.49,1.365h-1.211l-2.835-5.711c-.365-.786-1.13-1.274-1.997-1.274s-1.632.488-1.991,1.263l-2.839,5.723h-1.211c-1.014,0-1.945-.51-2.49-1.365-.539-.844-.614-1.888-.204-2.799l6.025-9.071c.505-.805,1.386-1.765,2.709-1.765,1.093,0,2.027.606,2.716,1.776l6.007,9.026c.427.919.356,1.978-.189,2.832Zm3.179-5c-.068.032-.14.047-.21.047-.188,0-.369-.107-.454-.289-.116-.251-.007-.548.243-.664,1.476-.687,2.119-2.447,1.432-3.926l-6.007-9.026c-.689-1.17-1.624-1.776-2.716-1.776-1.323,0-2.204.96-2.709,1.765l-1.336,2.012c-.152.229-.462.292-.693.14-.23-.153-.292-.463-.14-.693l1.329-2c.91-1.45,2.14-2.223,3.549-2.223,1.446,0,2.711.797,3.563,2.246l6.03,9.069c.955,2.044.095,4.402-1.88,5.32Z"/>
</svg>
