<?xml version="1.0" encoding="UTF-8"?>
<svg xmlns="http://www.w3.org/2000/svg" id="Layer_1" data-name="Layer 1" viewBox="0 0 24 24">
  <path d="m21.732,3.914l-1.426-.815-1.788-1.788C17.681.474,16.522-.006,15.338-.006h-.004L8.647-.001c-1.187,0-2.348.484-3.185,1.325l-1.77,1.777-1.425.814c-1.399.799-2.268,2.296-2.268,3.907v11.679c0,2.481,2.019,4.5,4.5,4.5h3c.276,0,.5-.224.5-.5s-.224-.5-.5-.5h-3c-1.93,0-3.5-1.57-3.5-3.5V7.821c0-1.253.676-2.417,1.764-3.039l1.167-.667,5.687,5.213.849,1.273-1.87,8.551c-.25.873-.005,1.813.619,2.437l1.776,1.963c.257.285.625.448,1.008.448h0c.383,0,.75-.163,1.008-.446l1.729-1.907c.621-.601.89-1.498.702-2.34l-1.906-8.706.849-1.273,5.687-5.213,1.167.667c1.088.622,1.764,1.786,1.764,3.039v11.679c0,1.93-1.57,3.5-3.5,3.5h-3c-.276,0-.5.224-.5.5s.224.5.5.5h3c2.481,0,4.5-2.019,4.5-4.5V7.821c0-1.611-.869-3.108-2.268-3.907ZM8.648.999l6.687-.005c.172.023.265.008.395.022l-3.729,3.315-3.726-3.312c.124-.013.249-.021.374-.021Zm4.084,9.001h-1.465l-.691-1.036,1.423-2.846,1.423,2.846-.691,1.036ZM6.171,2.029c.281-.283.61-.513.967-.684.01.01.02.02.03.029l4.213,3.746-1.532,3.064L4.722,3.483l1.449-1.455Zm7.85,18.922l-1.752,1.931c-.094.103-.208.118-.268.118s-.174-.015-.268-.119l-1.793-1.981c-.385-.385-.531-.95-.374-1.503l1.837-8.396h1.195l1.866,8.522c.113.506-.048,1.045-.443,1.429Zm.13-12.768l-1.532-3.064,4.213-3.746c.01-.009.021-.019.03-.028.35.169.672.396.95.673l1.466,1.466-5.126,4.699Z"/>
</svg>
