<?xml version="1.0" encoding="UTF-8"?>
<svg xmlns="http://www.w3.org/2000/svg" id="Layer_1" data-name="Layer 1" viewBox="0 0 24 24">
  <path d="m22.5,23h-1.5V6h1.5c.276,0,.5-.224.5-.5s-.224-.5-.5-.5h-3.5v-1.5c0-.827-.673-1.5-1.5-1.5h-.5V.5c0-.276-.224-.5-.5-.5s-.5.224-.5.5v1.5h-.5c-.827,0-1.5.673-1.5,1.5v1.5h-4v-1.5c0-.827-.673-1.5-1.5-1.5h-.5V.5c0-.276-.224-.5-.5-.5s-.5.224-.5.5v1.5h-.5c-.827,0-1.5.673-1.5,1.5v1.5H1.5c-.276,0-.5.224-.5.5s.224.5.5.5h1.5v17h-1.5c-.276,0-.5.224-.5.5s.224.5.5.5h21c.276,0,.5-.224.5-.5s-.224-.5-.5-.5ZM15,3.5c0-.276.224-.5.5-.5h2c.276,0,.5.224.5.5v1.5h-3v-1.5Zm-9,0c0-.276.224-.5.5-.5h2c.276,0,.5.224.5.5v1.5h-3v-1.5Zm-2,2.5h16v17H4V6Zm10.831,8.738c.246.457.22,1.009-.066,1.442l-2.759,4.579c-.094.156-.259.242-.429.242-.088,0-.177-.023-.258-.072-.236-.143-.312-.45-.17-.687l2.771-4.597c.132-.201.065-.37.031-.434-.035-.064-.138-.213-.357-.213h-3.17c-.455,0-.872-.209-1.143-.575s-.351-.825-.219-1.26c.013-.043,3.093-4.93,3.093-4.93.147-.233.458-.303.69-.156.233.147.303.457.156.69l-2.994,4.739c-.019.112.008.227.078.32.081.108.204.171.339.171h3.17c.519,0,.993.284,1.238.74Z"/>
</svg>
