<?xml version="1.0" encoding="UTF-8"?>
<svg xmlns="http://www.w3.org/2000/svg" id="Layer_1" data-name="Layer 1" viewBox="0 0 24 24">
  <path d="m23.705,20.122L14.213,1.399c-.428-.843-1.275-1.366-2.213-1.366-.938,0-1.785.524-2.212,1.366L.295,20.122c-.429.846-.389,1.833.107,2.64.489.796,1.335,1.272,2.264,1.272h18.667c.929,0,1.774-.476,2.264-1.272.496-.808.536-1.795.107-2.64ZM6.548,10h10.904l3.042,6H3.506l3.042-6ZM10.679,1.852c.26-.512.753-.818,1.32-.818.567,0,1.061.306,1.321.818l3.624,7.148H7.055l3.624-7.148Zm12.066,20.387c-.306.498-.833.795-1.411.795H2.667c-.578,0-1.106-.297-1.412-.795-.312-.509-.338-1.132-.067-1.665l1.812-3.574s0,0,0,0h18s0,0,0,0l1.812,3.574c.271.533.245,1.156-.067,1.665Z"/>
</svg>
