<?xml version="1.0" encoding="UTF-8"?>
<svg xmlns="http://www.w3.org/2000/svg" id="Layer_1" data-name="Layer 1" viewBox="0 0 24 24">
  <path d="m19.5,0H4.5C2.019,0,0,2.019,0,4.5v15c0,2.481,2.019,4.5,4.5,4.5h15c2.481,0,4.5-2.019,4.5-4.5V4.5c0-2.481-2.019-4.5-4.5-4.5Zm3.5,19.5c0,.785-.269,1.502-.707,2.086l-5.44-5.44c-.195-.195-.512-.195-.707,0s-.195.512,0,.707l5.44,5.44c-.584.438-1.302.707-2.086.707H4.5c-1.268,0-2.371-.685-2.985-1.698l9.709-4.854c.247-.124.347-.424.224-.671-.124-.247-.424-.346-.671-.224l-3.776,1.888v-3.941c0-.276-.224-.5-.5-.5s-.5.224-.5.5v4.441l-4.875,2.437c-.074-.282-.125-.573-.125-.878V4.5c0-1.93,1.57-3.5,3.5-3.5h2.701l2.523,4.686c.437.811,1.28,1.314,2.201,1.314h1.797l2.353,3.765c.095.152.258.235.424.235.09,0,.182-.024.265-.076.234-.146.305-.455.159-.689l-2.022-3.235h3.598c.276,0,.5-.224.5-.5s-.224-.5-.5-.5h-6.574c-.553,0-1.059-.302-1.321-.789l-2.268-4.211h11.163c1.93,0,3.5,1.57,3.5,3.5v15Z"/>
</svg>
