<?xml version="1.0" encoding="UTF-8"?>
<svg xmlns="http://www.w3.org/2000/svg" id="Layer_1" data-name="Layer 1" viewBox="0 0 24 24">
  <path d="m6.5,0C2.916,0,0,2.916,0,6.5s2.916,6.5,6.5,6.5,6.5-2.916,6.5-6.5S10.084,0,6.5,0Zm0,12c-3.032,0-5.5-2.468-5.5-5.5S3.468,1,6.5,1s5.5,2.468,5.5,5.5-2.468,5.5-5.5,5.5Zm14,0h-5c-1.93,0-3.5,1.57-3.5,3.5v5c0,1.93,1.57,3.5,3.5,3.5h5c1.93,0,3.5-1.57,3.5-3.5v-5c0-1.93-1.57-3.5-3.5-3.5Zm2.5,8.5c0,1.379-1.121,2.5-2.5,2.5h-5c-1.379,0-2.5-1.121-2.5-2.5v-5c0-1.379,1.121-2.5,2.5-2.5h5c1.379,0,2.5,1.121,2.5,2.5v5Zm1-14v3c0,.276-.224.5-.5.5s-.5-.224-.5-.5v-3c0-1.379-1.121-2.5-2.5-2.5h-4.199l2.06,2.154c.19.2.184.517-.016.707-.097.093-.222.139-.346.139-.132,0-.263-.052-.361-.154l-2.219-2.32c-.562-.562-.562-1.489.008-2.059L17.639.154c.192-.199.509-.206.707-.016.199.19.206.507.016.707l-2.06,2.154h4.199c1.93,0,3.5,1.57,3.5,3.5Zm-15.42,12.975c.562.562.562,1.489-.008,2.059l-2.211,2.312c-.099.103-.229.154-.361.154-.124,0-.249-.046-.346-.139-.199-.19-.206-.507-.016-.707l2.06-2.154H3.5c-1.93,0-3.5-1.57-3.5-3.5v-3c0-.276.224-.5.5-.5s.5.224.5.5v3c0,1.379,1.121,2.5,2.5,2.5h4.199l-2.06-2.154c-.19-.2-.184-.517.016-.707.2-.191.516-.184.707.016l2.219,2.32Z"/>
</svg>
