<?xml version="1.0" encoding="UTF-8"?>
<svg xmlns="http://www.w3.org/2000/svg" id="Layer_1" data-name="Layer 1" viewBox="0 0 24 24">
  <path d="m21.5,8h-.5v-.5c0-1.378-1.122-2.5-2.5-2.5h-3.5v-3h4.5c.276,0,.5-.224.5-.5s-.224-.5-.5-.5h-10c-.276,0-.5.224-.5.5s.224.5.5.5h4.5v3h-3.595c-1.042,0-2.022.459-2.689,1.259l-1.451,1.741h-.266c-1.103,0-2,.897-2,2v3H1v-4.5c0-.276-.224-.5-.5-.5s-.5.224-.5.5v10c0,.276.224.5.5.5s.5-.224.5-.5v-4.5h3v3.257c0,.935.364,1.814,1.025,2.475l1.242,1.242c.661.661,1.54,1.025,2.475,1.025h10.257c1.103,0,2-.897,2-2h.5c1.378,0,2.5-1.122,2.5-2.5v-7c0-1.378-1.122-2.5-2.5-2.5Zm1.5,9.5c0,.827-.673,1.5-1.5,1.5h-1c-.276,0-.5.224-.5.5v.5c0,.551-.449,1-1,1h-10.257c-.668,0-1.296-.26-1.768-.732l-1.242-1.242c-.472-.472-.732-1.1-.732-1.768v-7.257c0-.551.449-1,1-1h.5c.148,0,.289-.066.384-.18l1.601-1.921c.476-.571,1.176-.899,1.92-.899h8.095c.827,0,1.5.673,1.5,1.5v1c0,.276.224.5.5.5h1c.827,0,1.5.673,1.5,1.5v7Z"/>
</svg>
