<?xml version="1.0" encoding="UTF-8"?>
<svg xmlns="http://www.w3.org/2000/svg" id="Layer_1" data-name="Layer 1" viewBox="0 0 24 24">
  <path d="m23.639,14.557c-.329-.394-.819-.602-1.334-.555-5.583.521-8.469,4.368-9.805,6.969v-6.995c3.121-.239,5.5-2.687,5.5-5.776,0-2.857-2.052-5.335-4.058-7.381-1.034-1.056-2.848-1.058-3.885,0-2.006,2.047-4.058,4.524-4.058,7.381,0,3.089,2.379,5.537,5.5,5.776v6.995c-1.335-2.601-4.222-6.449-9.806-6.97-.508-.048-1.004.161-1.334.555-.323.386-.438.901-.306,1.377,2.168,7.839,10.952,8.065,11.946,8.065s9.776-.227,11.946-8.066c.131-.476.017-.991-.308-1.377ZM7,8.2c0-2.497,1.907-4.779,3.771-6.681.329-.334.765-.519,1.229-.519.132,0,.261.019.386.048-1.663,2.68-2.386,4.931-2.386,7.452,0,.276.224.5.5.5s.5-.224.5-.5c0-2.331.683-4.43,2.253-6.954,1.857,1.897,3.747,4.168,3.747,6.654,0,2.691-2.196,4.8-5,4.8s-5-2.108-5-4.8ZM1.018,15.668c-.045-.162-.005-.333.109-.469.108-.129.265-.203.426-.203.016,0,.033,0,.049.002,6.538.609,9.031,6.063,9.709,7.977-2.223-.145-8.577-1.104-10.292-7.307Zm21.964,0c-1.715,6.195-8.056,7.16-10.286,7.307.697-1.905,3.246-7.375,9.701-7.977.017-.002.033-.002.049-.002.161,0,.317.074.426.203.114.136.154.308.11.469Z"/>
</svg>
