<?xml version="1.0" encoding="UTF-8"?>
<svg xmlns="http://www.w3.org/2000/svg" id="Layer_1" data-name="Layer 1" viewBox="0 0 24 24">
  <path d="m14.312,21c.056.002-.055,0,0,0h0Zm2.836-5.784c.666.77.962,1.795.813,2.812-.251,1.718-1.805,2.972-3.649,2.972-2.038-.082-4.107-.862-5.346-1.5-.536-.276-.884-.8-.929-1.401-.045-.598.219-1.164.703-1.513,1.635-1.178,3.96-2.582,5.759-2.582,1.018,0,1.983.442,2.648,1.212Zm-.756.654c-.476-.55-1.166-.866-1.893-.866-1.195,0-3.032.85-5.174,2.393-.203.147-.31.375-.291.627.02.255.161.469.389.586h0c1.149.592,2.908,1.313,4.764,1.387,1.422.057,2.602-.853,2.784-2.114.108-.741-.098-1.456-.579-2.014Zm7.607-9.61c0,.331-.211.624-.524.731l-2.798.949c-.207.604-.508,1.165-.885,1.665,1.343,1.536,3.206,4.777,3.206,7.295,0,4.612-3.716,7.1-7.213,7.1h-7.274c-5.012,0-8.513-3.29-8.513-8,0-1.36.141-3.65.343-4.76.114-.624.592-1.1,1.218-1.214.63-.114,1.251.164,1.58.711l.174.298c.479.83,1.134,1.965,2.186,1.965,1.844,0,3.07-1.562,4.256-3.072.12-.153.239-.304.357-.452-.7-.982-1.112-2.182-1.112-3.477,0-3.309,2.691-6,6-6,2.875,0,5.284,2.032,5.866,4.736l2.587.785c.325.099.547.398.547.738Zm-4.878,4.097c-1.076,1.018-2.527,1.643-4.121,1.643-1.648,0-3.142-.668-4.228-1.746-.076.096-.153.194-.23.292-1.208,1.539-2.712,3.454-5.042,3.454-1.629,0-2.52-1.543-3.052-2.466l-.165-.282c-.171-.286-.459-.259-.543-.243-.082.015-.354.089-.413.41-.171.939-.327,3.123-.327,4.581,0,4.122,3.089,7,7.513,7h7.274c2.497,0,6.213-1.625,6.213-6.1,0-2.28-1.775-5.231-2.879-6.543Zm.879-4.357c0-2.757-2.243-5-5-5s-5,2.243-5,5,2.243,5,5,5,5-2.243,5-5Z"/>
</svg>
