<?xml version="1.0" encoding="UTF-8"?>
<svg xmlns="http://www.w3.org/2000/svg" id="Layer_1" data-name="Layer 1" viewBox="0 0 24 24">
  <path d="m15.53,11.493l-1.853-1.798c-.941-.914-2.415-.914-3.356,0l-1.856,1.802c-.944.94-1.465,2.191-1.465,3.521s.52,2.582,1.465,3.523c.944.94,2.2,1.458,3.535,1.458s2.59-.518,3.534-1.458c.945-.941,1.466-2.192,1.466-3.523s-.521-2.581-1.466-3.521l-.004-.004Zm-.701,6.34c-1.513,1.507-4.148,1.505-5.659,0-.755-.752-1.17-1.751-1.17-2.814s.416-2.062,1.166-2.809l1.852-1.797c.275-.268.629-.401.982-.401s.706.134.98.4l1.851,1.796c.754.751,1.169,1.749,1.169,2.811s-.416,2.062-1.171,2.814Zm4.934-12.548l-4.151-3.819c-.972-.945-2.254-1.466-3.611-1.466s-2.641.521-3.603,1.456l-4.175,3.843c-2.078,2.069-3.223,4.82-3.223,7.746s1.145,5.678,3.223,7.747c2.076,2.068,4.839,3.208,7.777,3.208s5.7-1.14,7.776-3.208c2.078-2.069,3.223-4.82,3.223-7.747s-1.145-5.677-3.236-7.76Zm-.691,14.798c-1.889,1.881-4.399,2.917-7.071,2.917s-5.184-1.036-7.072-2.917c-1.888-1.88-2.928-4.379-2.928-7.038s1.04-5.157,2.914-7.023l4.171-3.839c.784-.763,1.819-1.183,2.915-1.183s2.13.42,2.924,1.192l4.147,3.815c1.888,1.88,2.928,4.379,2.928,7.037s-1.04,5.158-2.928,7.038Z"/>
</svg>
