<?xml version="1.0" encoding="UTF-8"?>
<svg xmlns="http://www.w3.org/2000/svg" id="Layer_1" data-name="Layer 1" viewBox="0 0 24 24">
  <path d="m12,0C4.935,0,0,2.262,0,5.5v14.359c0,1.517,1.055,2.868,3.05,3.908.299.155.622.233.943.233.363,0,.725-.1,1.049-.296.6-.364.958-1.001.958-1.703v-10.196c0-1.384-.831-2.644-2.116-3.21h0c-1.315-.578-2.884-1.585-2.884-3.096C1,2.935,5.729,1,12,1s11,1.935,11,4.5c0,1.511-1.568,2.518-2.884,3.096-1.285.566-2.116,1.826-2.116,3.21v10.196c0,.702.358,1.339.958,1.703.324.196.686.296,1.049.296.321,0,.644-.078.943-.233,1.995-1.04,3.05-2.392,3.05-3.908V5.5c0-3.238-4.935-5.5-12-5.5ZM3.481,9.512c.922.406,1.519,1.307,1.519,2.294v10.196c0,.355-.174.664-.477.849-.31.186-.688.198-1.011.03-1.62-.845-2.512-1.917-2.512-3.021V7.864c.583.624,1.414,1.178,2.481,1.647Zm19.519,10.348c0,1.104-.892,2.177-2.512,3.021-.325.168-.704.155-1.011-.03-.303-.185-.477-.493-.477-.849v-10.196c0-.987.596-1.888,1.519-2.294,1.067-.47,1.899-1.023,2.481-1.647v11.995ZM14.5,6.5c0-1.379-1.122-2.5-2.5-2.5s-2.5,1.121-2.5,2.5,1.122,2.5,2.5,2.5,2.5-1.121,2.5-2.5Zm-4,0c0-.827.673-1.5,1.5-1.5s1.5.673,1.5,1.5-.673,1.5-1.5,1.5-1.5-.673-1.5-1.5Zm1.5,3.5c-2.206,0-4,1.794-4,4v2.5c0,1.208.86,2.217,2,2.449v4.551c0,.276.224.5.5.5s.5-.224.5-.5v-4.5h2v4.5c0,.276.224.5.5.5s.5-.224.5-.5v-4.551c1.14-.232,2-1.242,2-2.449v-2.5c0-2.206-1.794-4-4-4Zm3,6.5c0,.827-.673,1.5-1.5,1.5h-3c-.827,0-1.5-.673-1.5-1.5v-2.5c0-1.654,1.346-3,3-3s3,1.346,3,3v2.5Z"/>
</svg>
