<?xml version="1.0" encoding="UTF-8"?>
<svg xmlns="http://www.w3.org/2000/svg" id="Layer_1" data-name="Layer 1" viewBox="0 0 24 24">
  <path d="m17.5,11c-3.584,0-6.5,2.916-6.5,6.5s2.916,6.5,6.5,6.5,6.5-2.916,6.5-6.5-2.916-6.5-6.5-6.5Zm0,12c-3.032,0-5.5-2.468-5.5-5.5s2.468-5.5,5.5-5.5,5.5,2.468,5.5,5.5-2.468,5.5-5.5,5.5Zm3.35-6.857c.192.198.187.515-.012.707l-2.703,2.614c-.359.355-.835.533-1.311.533s-.949-.177-1.312-.531l-1.364-1.347c-.196-.193-.198-.51-.004-.707.193-.195.51-.198.707-.004l1.362,1.345c.336.329.886.327,1.222-.004l2.707-2.618c.198-.191.517-.187.707.012Zm-15.35-6.143c1.654,0,3-1.346,3-3s-1.346-3-3-3-3,1.346-3,3,1.346,3,3,3Zm0-5c1.103,0,2,.897,2,2s-.897,2-2,2-2-.897-2-2,.897-2,2-2Zm4.399,9.2c.166.221.122.534-.1.699-.221.168-.534.121-.699-.1-.859-1.144-2.172-1.8-3.601-1.8-2.481,0-4.5,2.019-4.5,4.5,0,.276-.224.5-.5.5s-.5-.224-.5-.5c0-3.032,2.468-5.5,5.5-5.5,1.746,0,3.351.802,4.399,2.2Zm5.601-8.2c1.654,0,3-1.346,3-3s-1.346-3-3-3-3,1.346-3,3,1.346,3,3,3Zm0-5c1.103,0,2,.897,2,2s-.897,2-2,2-2-.897-2-2,.897-2,2-2Zm-4.771,11.5c-.49,0-.56-.387-.477-.65.724-2.303,2.833-3.85,5.248-3.85.967,0,1.918.254,2.75.736.239.138.321.444.183.683-.138.24-.446.322-.683.182-.681-.394-1.459-.602-2.25-.602-1.977,0-3.702,1.266-4.295,3.15-.066.213-.264.35-.477.35Z"/>
</svg>
