<?xml version="1.0" encoding="UTF-8"?>
<svg xmlns="http://www.w3.org/2000/svg" id="Layer_1" data-name="Layer 1" viewBox="0 0 24 24">
  <path d="m21,19.05v-6.55c0-1.93-1.57-3.5-3.5-3.5h-2c-.276,0-.5.224-.5.5s.224.5.5.5h2c1.378,0,2.5,1.121,2.5,2.5v6.5h-4.5c-.133,0-.26.053-.354.146l-.854.854h-4.586l-.854-.854c-.094-.094-.221-.146-.354-.146h-4.5v-6.5c0-1.379,1.122-2.5,2.5-2.5h2c.276,0,.5-.224.5-.5s-.224-.5-.5-.5h-2c-1.93,0-3.5,1.57-3.5,3.5v6.55c-1.14.232-2,1.242-2,2.45,0,1.379,1.122,2.5,2.5,2.5h17c1.378,0,2.5-1.121,2.5-2.5,0-1.208-.86-2.217-2-2.45Zm-.5,3.95H3.5c-.827,0-1.5-.673-1.5-1.5s.673-1.5,1.5-1.5h4.793l.854.854c.094.094.221.146.354.146h5c.133,0,.26-.053.354-.146l.854-.854h4.793c.827,0,1.5.673,1.5,1.5s-.673,1.5-1.5,1.5Zm-9-7.176V7.5c0-.276.224-.5.5-.5s.5.224.5.5v8.324c.023-.018,2.646-2.64,2.646-2.64.195-.195.512-.195.707,0s.195.512,0,.707l-2.581,2.581c-.342.341-.787.516-1.236.525-.012,0-.025.002-.037.002s-.025,0-.037-.002c-.448-.009-.894-.184-1.236-.525l-2.581-2.581c-.195-.195-.195-.512,0-.707s.512-.195.707,0c0,0,2.624,2.622,2.646,2.64Zm3.5-10.324v-1c0-.276.224-.5.5-.5s.5.224.5.5v1c0,.276-.224.5-.5.5s-.5-.224-.5-.5Zm-3.5-3v-1c0-.276.224-.5.5-.5s.5.224.5.5v1c0,.276-.224.5-.5.5s-.5-.224-.5-.5Zm6.5-1V.5c0-.276.224-.5.5-.5s.5.224.5.5v1c0,.276-.224.5-.5.5s-.5-.224-.5-.5Zm-13,0V.5c0-.276.224-.5.5-.5s.5.224.5.5v1c0,.276-.224.5-.5.5s-.5-.224-.5-.5Zm3,4v-1c0-.276.224-.5.5-.5s.5.224.5.5v1c0,.276-.224.5-.5.5s-.5-.224-.5-.5ZM23.959.697l-3,7c-.081.189-.266.303-.459.303-.066,0-.133-.013-.197-.04-.254-.109-.372-.403-.263-.657L23.041.303c.108-.254.403-.371.656-.263.254.109.372.403.263.657ZM3.041,7.697L.041.697C-.068.443.049.149.303.04c.251-.109.547.009.656.263l3,7c.109.254-.009.548-.263.657-.064.027-.131.04-.197.04-.194,0-.378-.113-.459-.303Z"/>
</svg>
