<?xml version="1.0" encoding="UTF-8"?>
<svg xmlns="http://www.w3.org/2000/svg" id="Layer_1" data-name="Layer 1" viewBox="0 0 24 24">
  <path d="m22.5,11h-8c-.827,0-1.5.673-1.5,1.5v4.5H1.5c-.827,0-1.5.673-1.5,1.5v1.5c0,2.206,1.794,4,4,4h16c2.206,0,4-1.794,4-4v-7.5c0-.827-.673-1.5-1.5-1.5Zm-8.5,1.5c0-.276.225-.5.5-.5h8c.275,0,.5.224.5.5v4.5h-9v-4.5Zm2,5.5v5h-8v-5h8Zm-15,2v-1.5c0-.276.224-.5.5-.5h5.5v5h-3c-1.654,0-3-1.346-3-3Zm22,0c0,1.654-1.346,3-3,3h-3v-5h6v2ZM1.073,7.789l6.037,3.271c.355.153.73.229,1.104.229.536,0,1.068-.155,1.531-.46.786-.517,1.255-1.387,1.255-2.328v-2h2.063c.223.862,1.007,1.5,1.937,1.5h5c1.103,0,2-.897,2-2s-.897-2-2-2h-5c-.93,0-1.714.638-1.937,1.5h-2.063v-2c0-.941-.469-1.811-1.255-2.328-.786-.517-1.77-.604-2.676-.212L1.08,4.208C.391,4.556-.037,5.243-.037,6s.425,1.439,1.11,1.789Zm13.927-2.789h5c.552,0,1,.449,1,1s-.448,1-1,1h-5c-.552,0-1-.449-1-1s.448-1,1-1Zm-13.456.093L7.505,1.858c.232-.1.473-.149.712-.149.341,0,.677.101.978.298.511.337.805.881.805,1.493v5c0,.612-.293,1.156-.805,1.493-.512.336-1.128.389-1.649.168L1.544,6.907s-.008-.004-.012-.007c-.356-.18-.569-.517-.569-.9s.213-.72.582-.907Z"/>
</svg>
