<?xml version="1.0" encoding="UTF-8"?>
<svg xmlns="http://www.w3.org/2000/svg" id="Layer_1" data-name="Layer 1" viewBox="0 0 24 24">
  <path d="m19.667,4c-1.594,0-3.089,1.063-3.833,2.515-.653-1.272-1.882-2.246-3.25-2.467.317-1.668.858-2.743,1.285-3.21.187-.204.172-.52-.031-.707-.205-.185-.521-.172-.707.032-.695.76-1.255,2.152-1.559,3.859-1.479.147-2.741,1.047-3.405,2.313-.727-1.387-2.172-2.334-3.833-2.334C1.944,4,0,5.96,0,8.371c0,3.235,3.193,15.629,8.5,15.629,1.507,0,2.817-.781,3.493-2.013,1.073,1.337,2.247,2.013,3.507,2.013,5.405,0,8.5-12.283,8.5-15.629,0-2.41-1.943-4.371-4.333-4.371Zm-4.167,19c-1.776,0-3.166-2.015-4.018-3.705-.125-.246-.424-.346-.671-.221-.247.124-.346.425-.221.672.237.47.481.901.73,1.294-.397,1.179-1.508,1.96-2.82,1.96-4.304,0-7.5-11.202-7.5-14.629,0-1.858,1.496-3.371,3.333-3.371s3.333,1.512,3.333,3.371c0,1.646.58,5.112,1.653,8.29.07.208.265.34.474.34.053,0,.107-.009.16-.026.262-.088.402-.372.313-.634-1.04-3.077-1.601-6.402-1.601-7.969,0-1.858,1.496-3.371,3.333-3.371,1.71,0,3.327,1.701,3.327,3.5,0,.276.224.5.5.5.002,0,.004,0,.006,0s.004,0,.006,0c.276,0,.5-.224.5-.5,0-1.799,1.617-3.5,3.327-3.5,1.838,0,3.333,1.512,3.333,3.371,0,3.536-3.112,14.629-7.5,14.629Z"/>
</svg>
