<?xml version="1.0" encoding="UTF-8"?>
<svg xmlns="http://www.w3.org/2000/svg" id="Layer_1" data-name="Layer 1" viewBox="0 0 24 24">
  <path d="m19.5,0H4.5C2.019,0,0,2.019,0,4.5v16c0,1.93,1.57,3.5,3.5,3.5h1.95c.421,0,.826-.18,1.109-.494.287-.317.426-.745.382-1.171-.369-3.587-2.341-5.75-3.44-6.696,1.987-.868,6.912-3.549,8.499-9.311,1.587,5.763,6.512,8.443,8.499,9.311-1.098.946-3.071,3.109-3.44,6.696-.044.426.096.854.382,1.171.283.314.688.494,1.109.494h1.95c1.93,0,3.5-1.57,3.5-3.5V4.5c0-2.481-2.019-4.5-4.5-4.5ZM5.946,22.437c.016.148-.031.29-.13.399-.095.105-.225.164-.366.164h-1.95c-1.378,0-2.5-1.121-2.5-2.5v-4.5h1.344c.557.398,3.195,2.476,3.602,6.437Zm-3.526-7.437h-1.42V4.5c0-1.93,1.57-3.5,3.5-3.5h1.476c-.122,3.304-1.394,4.804-2.818,6.135-.202.188-.212.505-.024.707.099.104.232.158.365.158.123,0,.245-.045.341-.135,1.528-1.429,3.006-3.159,3.134-6.865h2.007c-.185,6.018-3.627,8.663-5.706,9.706-.247.124-.347.425-.223.672.088.175.264.275.447.275.075,0,.152-.017.224-.053,2.285-1.147,6.07-4.045,6.258-10.601h1.518v1.5c0,9.167-8.165,12.19-9.08,12.5ZM12.5,2.5v-1.5h1.518c.188,6.556,3.973,9.453,6.258,10.601.072.036.148.053.224.053.183,0,.359-.101.447-.275.124-.247.024-.548-.223-.672-2.08-1.043-5.521-3.688-5.706-9.706h2.007c.128,3.706,1.606,5.437,3.134,6.865.096.09.219.135.341.135.133,0,.267-.054.365-.158.188-.202.178-.519-.024-.707-1.424-1.331-2.696-2.831-2.818-6.135h1.476c1.93,0,3.5,1.57,3.5,3.5v10.5h-1.418c-.841-.294-9.082-3.417-9.082-12.5Zm8,20.5h-1.95c-.141,0-.271-.059-.366-.164-.099-.109-.146-.251-.13-.399.407-3.96,3.045-6.039,3.602-6.437h1.344v4.5c0,1.379-1.122,2.5-2.5,2.5Z"/>
</svg>
