<?xml version="1.0" encoding="UTF-8"?>
<svg xmlns="http://www.w3.org/2000/svg" id="Layer_1" data-name="Layer 1" viewBox="0 0 24 24">
  <path d="m13.5,3h-1V.5c0-.276-.224-.5-.5-.5s-.5.224-.5.5v2.5h-1c-3.584,0-6.5,2.916-6.5,6.5v6.186c0,4.455,3.479,8.183,7.754,8.311.083.002.166.003.249.003,2.093,0,4.062-.796,5.567-2.258,1.567-1.521,2.43-3.56,2.43-5.742v-6.5c0-3.584-2.916-6.5-6.5-6.5Zm0,1c3.032,0,5.5,2.467,5.5,5.5v1.5h-6.5v-7h1Zm-3,0h1v7h-6.5v-1.5c0-3.033,2.467-5.5,5.5-5.5Zm6.374,17.024c-1.369,1.33-3.186,2.047-5.089,1.973-3.741-.112-6.785-3.392-6.785-7.311v-3.686h14v4c0,1.91-.755,3.694-2.126,5.024Z"/>
</svg>
