<?xml version="1.0" encoding="UTF-8"?>
<svg xmlns="http://www.w3.org/2000/svg" id="Layer_1" data-name="Layer 1" viewBox="0 0 24 24">
  <path d="m22,19.051v-8.402c1.178-.564,2-1.758,2-3.149,0-.046-2.02-7.137-2.02-7.137-.062-.215-.257-.363-.48-.363H2.5c-.224,0-.419.148-.48.363C2.02.363,0,7.454,0,7.5c0,1.391.822,2.585,2,3.149v8.402c-1.14.232-2,1.242-2,2.449,0,1.378,1.121,2.5,2.5,2.5h19c1.379,0,2.5-1.122,2.5-2.5,0-1.207-.86-2.217-2-2.449ZM1.001,7.567L2.877,1h4.123v2.5c0,.276.224.5.5.5s.5-.224.5-.5V1h8v2.5c0,.276.224.5.5.5s.5-.224.5-.5V1h4.123l1.876,6.567c-.035,1.348-1.143,2.433-2.499,2.433h-1c-1.379,0-2.5-1.122-2.5-2.5,0-.276-.224-.5-.5-.5s-.5.224-.5.5c0,1.378-1.121,2.5-2.5,2.5h-3c-1.379,0-2.5-1.122-2.5-2.5,0-.276-.224-.5-.5-.5s-.5.224-.5.5c0,1.378-1.121,2.5-2.5,2.5h-1c-1.356,0-2.464-1.085-2.499-2.433Zm2.499,3.433h1c1.28,0,2.39-.698,3-1.726.61,1.028,1.72,1.726,3,1.726h3c1.28,0,2.39-.698,3-1.726.61,1.028,1.72,1.726,3,1.726h1c.171,0,.335-.027.5-.051v8.051h-5.5c-.133,0-.26.053-.354.146l-.854.854h-4.586l-.854-.854c-.094-.094-.221-.146-.354-.146H3v-8.051c.165.024.329.051.5.051Zm18,12H2.5c-.827,0-1.5-.673-1.5-1.5s.673-1.5,1.5-1.5h5.793l.854.854c.094.094.221.146.354.146h5c.133,0,.26-.053.354-.146l.854-.854h5.793c.827,0,1.5.673,1.5,1.5s-.673,1.5-1.5,1.5Z"/>
</svg>
