<?xml version="1.0" encoding="UTF-8"?>
<svg xmlns="http://www.w3.org/2000/svg" id="Layer_1" data-name="Layer 1" viewBox="0 0 24 24">
  <path d="m23.577,11.136c-.44-.774-1.164-1.33-2.038-1.563-.871-.233-3.698-.572-6.146-.572h-2.421l5.815-3.489c.749-.449,1.214-1.27,1.214-2.152,0-.395.152-.768.429-1.05l1.429-1.459c.193-.197.189-.514-.008-.707-.195-.193-.514-.188-.707.008l-1.429,1.459c-.46.47-.714,1.091-.714,1.758,0,.524-.279,1.017-.728,1.286l-3.812,2.287c.026-.143.04-.291.04-.441,0-1.042-.641-1.937-1.55-2.312l-.622-3.91c-.084-.371-.612-.371-.696,0l-.625,3.928c-.886.385-1.508,1.268-1.508,2.294,0,.151.014.298.04.441l-3.812-2.287c-.448-.27-.728-.762-.728-1.295,0-.658-.254-1.279-.714-1.749L2.857.15c-.192-.196-.51-.201-.707-.008-.197.193-.201.51-.008.707l1.429,1.459c.276.282.429.655.429,1.059,0,.874.465,1.695,1.214,2.144l5.815,3.489h-2.421c-2.448,0-5.275.339-6.146.572-.874.234-1.598.789-2.038,1.563C-.006,11.891-.113,12.765.121,13.597c.407,1.449,1.757,2.403,3.224,2.403.29,0,.586-.038.879-.116,1.29-.345,5.441-3.756,7.276-5.302v2.186l-5.615,4.751c-.562.476-.885,1.171-.885,1.909v1.111c0,.458-.205.885-.563,1.171l-1.749,1.399c-.216.173-.25.487-.078.703.099.124.244.188.391.188.109,0,.22-.036.312-.109l1.749-1.4c.597-.477.938-1.189.938-1.952v-1.111c0-.442.193-.86.531-1.145l4.969-4.204v5.422c0,.276.224.5.5.5s.5-.224.5-.5v-5.422l4.969,4.204c.338.285.531.703.531,1.145v1.111c0,.763.342,1.475.938,1.953l1.749,1.399c.093.074.202.109.313.109.146,0,.292-.064.391-.188.172-.216.138-.53-.078-.703l-1.749-1.399c-.358-.287-.563-.714-.563-1.172v-1.111c0-.737-.322-1.433-.885-1.909l-5.615-4.751v-2.186c1.835,1.546,5.986,4.957,7.276,5.302.293.079.589.116.879.116,1.467,0,2.816-.954,3.224-2.402.234-.833.127-1.707-.302-2.461Zm-11.577-6.136c.827,0,1.5.673,1.5,1.5s-.673,1.5-1.5,1.5-1.5-.673-1.5-1.5.673-1.5,1.5-1.5ZM3.966,14.917c-1.253.333-2.541-.38-2.882-1.592-.162-.573-.088-1.175.208-1.695.308-.54.814-.928,1.427-1.092.683-.183,3.379-.538,5.889-.538h2.03c-2.456,2.058-5.784,4.68-6.672,4.917Zm18.95-1.591c-.341,1.211-1.635,1.925-2.881,1.591-.889-.238-4.217-2.859-6.673-4.917h2.03c2.51,0,5.206.355,5.889.538.612.164,1.119.552,1.427,1.092.296.52.37,1.122.208,1.696Z"/>
</svg>
