<?xml version="1.0" encoding="UTF-8"?>
<svg xmlns="http://www.w3.org/2000/svg" id="Layer_1" data-name="Layer 1" viewBox="0 0 24 24">
  <path d="m14.5,7.5c0-1.378-1.121-2.5-2.5-2.5s-2.5,1.122-2.5,2.5,1.121,2.5,2.5,2.5,2.5-1.122,2.5-2.5Zm-4,0c0-.827.673-1.5,1.5-1.5s1.5.673,1.5,1.5-.673,1.5-1.5,1.5-1.5-.673-1.5-1.5Zm2.5,3.5h-2c-1.654,0-3,1.346-3,3v2.5c0,1.302.839,2.402,2,2.816v4.184c0,.276.224.5.5.5s.5-.224.5-.5v-4h2v4c0,.276.224.5.5.5s.5-.224.5-.5v-4.184c1.161-.414,2-1.514,2-2.816v-2.5c0-1.654-1.346-3-3-3Zm2,5.5c0,1.103-.897,2-2,2h-2c-1.103,0-2-.897-2-2v-2.5c0-1.103.897-2,2-2h2c1.103,0,2,.897,2,2v2.5Zm9-6.896v13.896c0,.276-.224.5-.5.5s-.5-.224-.5-.5v-13.896c0-1.223-.606-2.361-1.622-3.045L14.06,1.628c-1.252-.842-2.867-.843-4.119,0L2.622,6.558c-1.016.684-1.622,1.822-1.622,3.045v13.896c0,.276-.224.5-.5.5s-.5-.224-.5-.5v-13.896c0-1.556.771-3.005,2.063-3.875L9.382.799c1.59-1.071,3.646-1.071,5.236,0l7.318,4.93c1.292.87,2.063,2.318,2.063,3.875Z"/>
</svg>
