<?xml version="1.0" encoding="UTF-8"?>
<svg xmlns="http://www.w3.org/2000/svg" id="Layer_1" data-name="Layer 1" viewBox="0 0 24 24">
  <path d="m24,16.5v-6c0-2.481-2.019-4.5-4.5-4.5h-.5v-2.5c0-1.93-1.57-3.5-3.5-3.5h-7c-1.93,0-3.5,1.57-3.5,3.5v.793L.854.146C.658-.049.342-.049.146.146S-.049.658.146.854l23,23c.098.098.226.146.354.146s.256-.049.354-.146c.195-.195.195-.512,0-.707l-2.531-2.531c1.607-.71,2.677-2.312,2.677-4.116ZM6,3.5c0-1.379,1.121-2.5,2.5-2.5h7c1.379,0,2.5,1.121,2.5,2.5v2.5H6.707l-.707-.707v-1.793Zm14.547,16.34L7.707,7h11.793c1.93,0,3.5,1.57,3.5,3.5v6c0,1.538-1,2.887-2.453,3.34Zm-2.047-8.84c0,.276-.224.5-.5.5h-2c-.276,0-.5-.224-.5-.5s.224-.5.5-.5h2c.276,0,.5.224.5.5Zm.165,11.75c-.445.771-1.275,1.25-2.165,1.25H7.5c-1.379,0-2.5-1.121-2.5-2.5v-.5c-2.757,0-5-2.243-5-5v-5.5c0-1.844,1.104-3.481,2.812-4.173.254-.102.547.021.651.276.104.256-.021.548-.276.651-1.329.537-2.187,1.811-2.187,3.245v5.5c0,2.206,1.794,4,4,4v-3.5c0-1.379,1.121-2.5,2.5-2.5h3c.276,0,.5.224.5.5s-.224.5-.5.5h-3c-.827,0-1.5.673-1.5,1.5v5c0,.827.673,1.5,1.5,1.5h9c.534,0,1.032-.287,1.3-.75.139-.238.448-.32.683-.183.239.138.321.444.183.683Z"/>
</svg>
