<?xml version="1.0" encoding="UTF-8"?>
<svg xmlns="http://www.w3.org/2000/svg" id="Layer_1" data-name="Layer 1" viewBox="0 0 24 24">
  <path d="m15.557,9.234c-.861-1.378-2.224-2.234-3.557-2.234-1.405,0-2.6.75-3.549,2.223,0,0-6.066,9.136-6.077,9.158-.571,1.23-.477,2.648.253,3.792.73,1.145,1.976,1.827,3.333,1.827h12.084c1.357,0,2.603-.683,3.333-1.826.73-1.145.825-2.562.217-3.858l-6.037-9.081Zm-7.268,13.766l2.623-5.289c.202-.436.609-.696,1.09-.696s.888.261,1.096.708l2.619,5.277h-7.428Zm12.246-1.364c-.545.854-1.476,1.364-2.49,1.364h-1.212l-2.834-5.711c-.365-.786-1.13-1.274-1.997-1.274s-1.632.488-1.991,1.263l-2.839,5.723h-1.211c-1.014,0-1.945-.51-2.49-1.365-.539-.844-.614-1.888-.204-2.799l6.022-9.066c.767-1.191,1.654-1.77,2.712-1.77.976,0,2.039.692,2.716,1.776l6.007,9.026c.427.919.356,1.979-.189,2.833ZM3.106,8.424L.116,5.377c-.193-.197-.19-.514.007-.707.196-.193.513-.191.707.007l2.987,3.043c.056.056.118.104.183.143V.5c0-.276.224-.5.5-.5s.5.224.5.5v7.363c.066-.04.129-.088.187-.146l2.984-3.04c.193-.198.509-.2.707-.007.197.193.2.51.007.707l-2.987,3.043c-.386.386-.891.579-1.396.58,0,0,0,0,0,0h0c-.505,0-1.009-.192-1.393-.576Zm20.806-3.046l-2.988,3.043c-.381.381-.879.573-1.378.579-.007,0-.013,0-.019,0-.006,0-.012,0-.018,0-.499-.004-.996-.196-1.375-.575l-2.991-3.046c-.193-.197-.19-.513.007-.707.196-.193.513-.191.707.007l2.988,3.043c.056.056.117.103.183.143V.5c0-.276.224-.5.5-.5s.5.224.5.5v7.362c.067-.04.129-.088.187-.146l2.984-3.04c.194-.198.51-.2.707-.007.197.194.2.51.007.707Z"/>
</svg>
