<?xml version="1.0" encoding="UTF-8"?>
<svg xmlns="http://www.w3.org/2000/svg" id="Layer_1" data-name="Layer 1" viewBox="0 0 24 24">
  <path d="m22.734,16.232c-.129.245-.432.339-.675.21-.244-.128-.339-.43-.21-.675.85-1.621,1.223-3.511,1.078-5.465-.332-4.493-4.02-8.528-8.395-9.187-3.661-.548-7.301.938-9.507,3.885-1.419,1.754-4.026,7.678-4.026,8.545.007.203.107.454.546.454h.956c.236,0,.438.165.487.396l.601,2.83c.341,1.607,1.78,2.773,3.424,2.773h1.486c.276,0,.5.224.5.5v1c0,.827.673,1.5,1.5,1.5h8c.692,0,1.5-.393,1.5-1.5,0-.276.224-.5.5-.5s.5.224.5.5c0,1.472-1.028,2.5-2.5,2.5h-8c-1.379,0-2.5-1.121-2.5-2.5v-.5h-.986c-2.113,0-3.964-1.5-4.402-3.566l-.517-2.434h-.549c-1.134,0-1.546-.869-1.546-1.454,0-1.284,2.852-7.447,4.237-9.159C6.653,1.159,10.666-.479,14.682.128c4.818.725,8.879,5.161,9.244,10.101.158,2.141-.254,4.217-1.191,6.004Zm-4.734-5.232c0,1.198-.441,2.284-1.146,3.146l4,4c.195.195.195.512,0,.707-.098.098-.226.146-.354.146s-.256-.049-.354-.146l-4-4c-.862.705-1.948,1.146-3.146,1.146-2.757,0-5-2.243-5-5s2.243-5,5-5,5,2.243,5,5Zm-1,0c0-2.206-1.794-4-4-4s-4,1.794-4,4,1.794,4,4,4,4-1.794,4-4Z"/>
</svg>
