<?xml version="1.0" encoding="UTF-8"?>
<svg xmlns="http://www.w3.org/2000/svg" id="Layer_1" data-name="Layer 1" viewBox="0 0 24 24">
  <path d="m22.735,15.492c-.235-.591-.773-1-1.405-1.069l-3.33-.37v-1.553c0-.276-.224-.5-.5-.5s-.5.224-.5.5v1.441l-3.171-.353c-.691-.076-1.329.319-1.571.964,0,0-1.258,3.388-1.258,3.447,0,1.103.897,2,2,2s2-.897,2-2c0-.06-1.246-3.413-1.246-3.413l3.246.361v8.052h-2.5c-.276,0-.5.224-.5.5s.224.5.5.5h6c.276,0,.5-.224.5-.5s-.224-.5-.5-.5h-2.5v-7.941l3.221.358c.028.003.056.008.083.014,0,0-1.304,3.51-1.304,3.569,0,1.103.897,2,2,2s2-.897,2-2c0-.138,0-.326-1.265-3.508Zm-8.77,2.508h-1.932l.966-2.576.966,2.576Zm8.048-1.613c.883,2.24.979,2.611.986,2.613h-1.966l.98-2.613Zm-13.014-4.387c3.309,0,6-2.691,6-6S12.309,0,9,0,3,2.691,3,6s2.691,6,6,6Zm0-11c2.757,0,5,2.243,5,5s-2.243,5-5,5-5-2.243-5-5S6.243,1,9,1Zm1,13.5c0,.276-.224.5-.5.5-4.607,0-8.5,3.778-8.5,8.25v.25c0,.276-.224.5-.5.5s-.5-.224-.5-.5v-.25c0-5.014,4.351-9.25,9.5-9.25.276,0,.5.224.5.5Z"/>
</svg>
