<?xml version="1.0" encoding="UTF-8"?>
<svg xmlns="http://www.w3.org/2000/svg" id="Layer_1" data-name="Layer 1" viewBox="0 0 24 24">
  <path d="m21.915,17.928l-1.915-10.473v-1.456C20,.622,15.434,0,12,0S4,.622,4,6v1.456l-1.927,10.534c-.257,1.526.169,3.079,1.169,4.261,1,1.182,2.46,1.859,4.008,1.859h9.498c1.56,0,3.028-.687,4.028-1.883,1-1.196,1.415-2.763,1.138-4.299ZM5,6c0-2.68,1.23-4.182,4-4.742v.742c0,.552.448,1,1,1s1-.448,1-1v-.975c.321-.015.651-.025,1-.025s.679.01,1,.025v.975c0,.552.448,1,1,1s1-.448,1-1v-.742c2.77.56,4,2.061,4,4.742v1H5v-1Zm15.009,15.586c-.81.969-1.998,1.524-3.261,1.524H7.25c-1.253,0-2.436-.549-3.245-1.505s-1.154-2.214-.948-3.442l1.859-10.163h14.166l1.848,10.107c.224,1.242-.112,2.51-.921,3.479Zm-4.009-2.586c0,.552-.448,1-1,1s-1-.448-1-1,.448-1,1-1,1,.448,1,1Zm-2-3c0,.552-.448,1-1,1s-1-.448-1-1,.448-1,1-1,1,.448,1,1Zm4,0c0,.552-.448,1-1,1s-1-.448-1-1,.448-1,1-1,1,.448,1,1Z"/>
</svg>
