<?xml version="1.0" encoding="UTF-8"?>
<svg xmlns="http://www.w3.org/2000/svg" id="Layer_1" data-name="Layer 1" viewBox="0 0 24 24">
  <path d="m15.989,9.989c0-2.206-1.794-4-4-4s-4,1.794-4,4,1.794,4,4,4,4-1.794,4-4Zm-4,3c-1.654,0-3-1.346-3-3s1.346-3,3-3,3,1.346,3,3-1.346,3-3,3Zm11.438,5.11l-3.443-3.333c-.002-.224-.028-.447-.078-.667-.12-.527.122-1.088.601-1.397.448-.29.813-.684,1.083-1.172.255-.46.388-.99.386-1.528.002-.542-.131-1.072-.386-1.532h0c-.271-.488-.635-.882-1.084-1.172-.479-.309-.72-.87-.601-1.396.122-.532.104-1.081-.054-1.63-.296-1.03-1.119-1.852-2.147-2.146-.547-.157-1.095-.176-1.628-.055-.523.121-1.087-.121-1.396-.6-.29-.448-.684-.812-1.171-1.083-.937-.519-2.1-.519-3.037,0-.488.271-.882.636-1.171,1.084-.309.479-.872.721-1.396.6-.533-.121-1.081-.102-1.628.055-1.029.295-1.852,1.117-2.147,2.147-.157.548-.176,1.096-.055,1.629.12.526-.121,1.087-.6,1.396-.449.29-.814.685-1.083,1.171-.255.46-.388.99-.386,1.529-.002.543.131,1.073.386,1.532.27.487.634.882,1.084,1.172.479.309.72.87.6,1.396-.051.227-.077.457-.078.689l-3.42,3.311c-.53.511-.71,1.261-.47,1.957s.844,1.176,1.577,1.252l1.134.117.134.966c.098.704.577,1.284,1.249,1.513.2.068.405.102.609.102.479,0,.947-.186,1.303-.533l4.128-4.001c.075.049.152.097.232.141.468.259.993.389,1.518.389s1.05-.13,1.519-.39c.085-.047.166-.097.245-.15l4.136,4.008c.357.349.825.535,1.305.535.203,0,.409-.034.608-.102.672-.229,1.151-.809,1.249-1.513l.134-.966,1.134-.117c.733-.076,1.337-.556,1.577-1.252s.06-1.446-.47-1.957Zm-18.014,4.657c-.239.235-.572.31-.891.201-.318-.108-.536-.372-.582-.705l-.188-1.354c-.032-.228-.215-.405-.444-.429l-1.524-.157c-.346-.036-.621-.253-.734-.583-.113-.329-.032-.669.22-.912l2.94-2.846c.347.914,1.119,1.632,2.065,1.902.548.157,1.097.176,1.628.055.525-.118,1.087.122,1.396.6.061.094.126.184.196.271l-4.083,3.957Zm5.543-4.019c-.343-.189-.617-.442-.816-.751-.442-.686-1.192-1.088-1.967-1.088-.164,0-.328.018-.491.055-.366.083-.747.07-1.131-.041-.69-.197-1.263-.771-1.461-1.46-.11-.385-.124-.766-.041-1.132.212-.935-.203-1.922-1.033-2.458-.31-.2-.562-.475-.751-.817-.172-.31-.262-.671-.261-1.047-.001-.373.088-.733.261-1.044.189-.342.442-.616.751-.816.831-.536,1.246-1.523,1.033-2.458-.083-.366-.069-.747.041-1.132.198-.69.771-1.263,1.461-1.461.385-.109.766-.124,1.131-.041.934.213,1.923-.202,2.458-1.033.199-.309.473-.562.815-.751.628-.349,1.439-.348,2.067,0,.342.19.617.443.816.751.535.831,1.522,1.243,2.458,1.033.366-.083.747-.069,1.131.041.69.197,1.264.771,1.462,1.46.11.385.124.766.04,1.132-.212.935.204,1.922,1.033,2.458.309.2.562.474.751.817.172.311.262.672.261,1.047.001.372-.088.733-.261,1.043-.189.343-.442.617-.751.817-.83.535-1.246,1.523-1.033,2.458.083.366.07.747-.041,1.131-.198.69-.772,1.264-1.462,1.461-.384.11-.765.123-1.131.041-.936-.21-1.923.203-2.458,1.033-.2.309-.474.562-.816.751-.628.349-1.44.349-2.067,0Zm11.995.992c-.114.33-.388.547-.734.583l-1.524.157c-.229.024-.412.201-.444.429l-.188,1.354c-.046.333-.264.596-.582.705-.316.108-.65.034-.892-.203l-4.094-3.968c.066-.083.128-.169.186-.258.31-.478.874-.719,1.396-.6.532.12,1.08.103,1.628-.055.952-.272,1.727-.997,2.072-1.919l2.957,2.863c.251.242.333.583.219.911Z"/>
</svg>
