<?xml version="1.0" encoding="UTF-8"?>
<svg xmlns="http://www.w3.org/2000/svg" id="Layer_1" data-name="Layer 1" viewBox="0 0 24 24">
  <path d="m13.055,1.871c.126-.246.43-.342.673-.218.443.227.931.347,1.409.347,1.168,0,2.314-.72,2.667-1.674.145-.393.793-.393.938,0,.353.954,1.5,1.674,2.668,1.674.653,0,1.28-.229,1.765-.646.211-.18.526-.156.705.053.181.21.156.525-.053.705-.666.572-1.524.888-2.417.888-1.239,0-2.434-.594-3.137-1.494-1.064,1.363-3.282,1.916-5,1.038-.246-.126-.344-.428-.218-.673ZM2.591,3c1.591,0,3.107-.979,3.605-2.326.096-.26-.036-.547-.295-.643-.261-.098-.547.037-.643.295-.353.954-1.5,1.674-2.668,1.674-.653,0-1.28-.229-1.765-.646-.21-.18-.525-.156-.705.053-.181.21-.156.525.053.705.666.572,1.524.888,2.417.888Zm16.896,11.026c-.006,0-.013,0-.019,0-.016,0-.03.011-.046.009l.065-.009Zm4.392,8.382c.181.21.156.525-.053.705-.666.572-1.524.888-2.417.888-1.239,0-2.434-.594-3.137-1.494-.703.9-1.896,1.494-3.136,1.494s-2.434-.594-3.137-1.494c-.703.9-1.897,1.494-3.137,1.494s-2.433-.594-3.136-1.494c-.703.9-1.897,1.494-3.137,1.494-.893,0-1.751-.315-2.417-.888-.209-.18-.233-.495-.053-.705.18-.209.495-.232.705-.053.484.416,1.111.646,1.765.646,1.168,0,2.315-.72,2.668-1.674.145-.393.793-.393.938,0,.353.954,1.499,1.674,2.667,1.674s2.315-.72,2.668-1.674c.143-.387.771-.389.927-.012l2.804-5.958c.71-1.522,2.274-2.452,3.921-2.349l1.604-3.253c.157-.323.433-.568.775-.688.344-.116.712-.098,1.038.062l.255.123c.674.328.956,1.142.628,1.815l-1.583,3.21c1.133,1.213,1.424,2.996.715,4.518l-2,4.093c.257.07.524.112.793.112.653,0,1.28-.229,1.765-.646.211-.18.526-.156.705.053Zm-4.174.067l2.009-4.11c.56-1.2.205-2.707-.765-3.623-.158-.151-.2-.388-.104-.583l1.741-3.53c.085-.176.011-.39-.167-.477l-.255-.123c-.088-.043-.185-.048-.273-.017-.091.031-.164.096-.205.182l-1.759,3.565c-.086.175-.271.266-.46.266-1.323-.148-2.739.552-3.3,1.754l-3.042,6.463c.528.462,1.264.758,2.01.758,1.168,0,2.314-.72,2.667-1.674.145-.393.793-.393.938,0,.168.454.519.852.964,1.148ZM.174,13.112c-.209-.18-.233-.495-.053-.705.18-.209.495-.232.705-.053.484.416,1.111.646,1.765.646.264,0,.526-.041.779-.109l-2.255-4.11c-.195-.355-.238-.766-.121-1.154.117-.388.379-.706.737-.895l5.837-3.069c.144-.966.806-3.221,3.862-3.658.265-.036.525.15.565.425.039.273-.151.526-.425.565-2.631.375-2.989,2.351-3.037,2.94l4.398,8.115c.237.255.532.478.878.643.249.119.354.417.235.667-.119.249-.415.354-.667.235-.437-.208-.802-.502-1.117-.829-.064-.041-.232-.225-.26-.261-.703.9-1.897,1.494-3.137,1.494s-2.433-.594-3.136-1.494c-.703.9-1.897,1.494-3.137,1.494-.893,0-1.751-.315-2.417-.888Zm2.402-3.747l6.042-3.177-.822-1.517-5.6,2.944c-.119.063-.206.169-.245.299-.039.129-.025.266.04.385l.585,1.066Zm1.709,3.115c.449-.296.804-.697.973-1.155.145-.393.793-.393.938,0,.353.954,1.499,1.674,2.667,1.674,1.115,0,2.203-.658,2.607-1.548l-2.376-4.385-6.037,3.175,1.229,2.239Z"/>
</svg>
