<?xml version="1.0" encoding="UTF-8"?>
<svg xmlns="http://www.w3.org/2000/svg" id="Layer_1" data-name="Layer 1" viewBox="0 0 24 24">
  <path d="m23.929,6.243c-.142-.237-.451-.312-.686-.171-.032.019-3.023,1.781-5.005.398l3.615-3.615c.195-.195.195-.512,0-.707s-.512-.195-.707,0l-3.615,3.615c-1.377-1.977.378-4.973.398-5.005.142-.237.064-.544-.172-.686-.239-.143-.544-.066-.686.171-.073.122-1.322,2.244-1.034,4.354-1.821-1.557-3.817-2.48-5.992-.305C8.117,6.219,1.521,18.456.248,20.898c-.437.837-.288,1.809.378,2.475.413.413.942.627,1.484.627.333,0,.672-.081.991-.248,5.5-2.868,14.873-8.064,16.607-9.797,2.176-2.176,1.252-4.171-.304-5.991.216.029.433.043.647.042,1.876,0,3.597-1.012,3.705-1.078.237-.142.314-.449.172-.686Zm-4.927,7.005c-.516.516-1.832,1.404-3.575,2.473l-2.574-2.574c-.195-.195-.512-.195-.707,0s-.195.512,0,.707l2.4,2.401c-3.506,2.103-8.297,4.729-11.908,6.611-.533.281-1.024.08-1.305-.2s-.479-.77-.199-1.306c1.263-2.421,2.859-5.372,4.408-8.111l2.604,2.604c.098.098.226.146.354.146s.256-.049.354-.146c.195-.195.195-.512,0-.707l-2.798-2.798c1.188-2.079,2.323-3.981,3.225-5.361l2.866,2.866c.098.098.226.146.354.146s.256-.049.354-.146c.195-.195.195-.512,0-.707l-3.004-3.004c.364-.52.671-.913.902-1.144.687-.687,1.33-.986,1.976-.986,1.304,0,2.618,1.221,4.329,2.931,2.557,2.558,4.019,4.231,1.945,6.305Z"/>
</svg>
