<?xml version="1.0" encoding="UTF-8"?>
<svg xmlns="http://www.w3.org/2000/svg" id="Layer_1" data-name="Layer 1" viewBox="0 0 24 24">
  <path d="m8.803,7.15l2.515,2.57c.056.056.117.103.183.143V.5c0-.276.224-.5.5-.5s.5.224.5.5v9.363c.066-.04.129-.088.187-.146l2.511-2.566c.192-.197.509-.2.707-.008.197.193.201.51.008.707l-2.515,2.57c-.381.381-.899.575-1.397.58-.499-.004-1.014-.197-1.394-.576l-2.519-2.574c-.193-.197-.189-.514.008-.707.198-.192.515-.189.707.008Zm3.197,3.85s0,0,0,0h.002s0,0-.002,0c-.002,0-.002,0,0,0Zm12.001-5.5v9c0,2.481-2.019,4.5-4.5,4.5h-7v3h5c.276,0,.5.224.5.5s-.224.5-.5.5H6.5c-.276,0-.5-.224-.5-.5s.224-.5.5-.5h5v-3h-7c-2.481,0-4.5-2.019-4.5-4.5V5.5C0,3.019,2.019,1,4.5,1h4c.276,0,.5.224.5.5s-.224.5-.5.5h-4c-1.93,0-3.5,1.57-3.5,3.5v8.5h22V5.5c0-1.93-1.57-3.5-3.5-3.5h-4c-.276,0-.5-.224-.5-.5s.224-.5.5-.5h4c2.481,0,4.5,2.019,4.5,4.5Zm-1.036,9.5H1.036c.243,1.694,1.704,3,3.464,3h15c1.76,0,3.221-1.306,3.464-3Z"/>
</svg>
