<?xml version="1.0" encoding="UTF-8"?>
<svg xmlns="http://www.w3.org/2000/svg" id="Layer_1" data-name="Layer 1" viewBox="0 0 24 24">
  <path d="m21.348,22.027H2.652c-.768,0-1.459-.396-1.851-1.06-.393-.668-.404-1.471-.028-2.148L9.948,2.264c.426-.774,1.193-1.236,2.052-1.236s1.627.463,2.053,1.237l9.174,16.555c.375.678.365,1.48-.028,2.148-.391.663-1.083,1.06-1.851,1.06ZM12,2.027c-.489,0-.929.269-1.177.72h0S1.648,19.304,1.648,19.304c-.202.365-.197.797.015,1.156.209.355.579.567.989.567h18.695c.41,0,.78-.212.989-.567.212-.359.217-.791.015-1.156L13.177,2.748c-.248-.452-.688-.721-1.177-.721Z"/>
</svg>
