<?xml version="1.0" encoding="UTF-8"?>
<svg xmlns="http://www.w3.org/2000/svg" id="Layer_1" data-name="Layer 1" viewBox="0 0 24 24">
  <path d="m20.85,16.143c.192.199.187.515-.012.707l-2.703,2.614c-.36.355-.835.534-1.311.534s-.949-.177-1.312-.532l-1.364-1.345c-.197-.194-.199-.51-.005-.707.194-.197.511-.199.707-.005l1.363,1.344c.337.33.885.329,1.223-.004l2.706-2.617c.2-.191.516-.187.707.012Zm3.15,1.357c0,3.584-2.916,6.5-6.5,6.5s-6.5-2.916-6.5-6.5,2.916-6.5,6.5-6.5,6.5,2.916,6.5,6.5Zm-1,0c0-3.033-2.467-5.5-5.5-5.5s-5.5,2.467-5.5,5.5,2.467,5.5,5.5,5.5,5.5-2.467,5.5-5.5Zm1-13v1c0,.816-.393,1.542-1,1.999,0,0,0,0,0,.001v2c0,.276-.224.5-.5.5s-.5-.224-.5-.5v-1.55c-.162.033-.329.05-.5.05H2.5c-.171,0-.338-.017-.5-.05v11.55c0,1.93,1.57,3.5,3.5,3.5h5c.276,0,.5.224.5.5s-.224.5-.5.5h-5c-2.481,0-4.5-2.019-4.5-4.5V7.5s0,0,0-.001c-.607-.457-1-1.183-1-1.999v-1C0,2.019,2.019,0,4.5,0h15c2.481,0,4.5,2.019,4.5,4.5Zm-1,0c0-1.93-1.57-3.5-3.5-3.5H4.5c-1.93,0-3.5,1.57-3.5,3.5v1c0,.827.673,1.5,1.5,1.5h19c.827,0,1.5-.673,1.5-1.5v-1Z"/>
</svg>
