<?xml version="1.0" encoding="UTF-8"?>
<svg xmlns="http://www.w3.org/2000/svg" id="Layer_1" data-name="Layer 1" viewBox="0 0 24 24">
  <path d="m19.207,5.5L23.854.854c.195-.195.195-.512,0-.707s-.512-.195-.707,0l-4.647,4.647-1.818-1.818c-1.918-1.918-4.469-2.975-7.182-2.975-.276,0-.5.224-.5.5s.224.5.5.5c2.181,0,4.244.758,5.892,2.147L6.904,11.585c-2.428,2.428-4.439,5.211-5.98,8.274,0,0-.932,1.861-.94,1.901-.136.617.05,1.252.496,1.699.351.35.816.54,1.299.54.133,0,.267-.015.399-.044.041-.009,1.901-.94,1.901-.94,3.065-1.543,5.849-3.556,8.273-5.98l8.49-8.441c1.397,1.65,2.158,3.719,2.158,5.905,0,.276.224.5.5.5s.5-.224.5-.5c0-2.596-.968-5.043-2.732-6.93-.014-.02-2.061-2.07-2.061-2.07Zm-7.561,10.828c-2.35,2.351-5.047,4.3-8.017,5.795l-1.722.867c-.271.042-.527-.043-.722-.237-.193-.194-.278-.454-.237-.721l.867-1.723c1.493-2.967,3.443-5.665,5.794-8.016L16.123,3.83l1.67,1.67-9.646,9.646c-.195.195-.195.512,0,.707.098.098.226.146.354.146s.256-.049.354-.146l9.647-9.647,1.658,1.658-8.512,8.463Z"/>
</svg>
