<?xml version="1.0" encoding="UTF-8"?>
<svg xmlns="http://www.w3.org/2000/svg" id="Layer_1" data-name="Layer 1" viewBox="0 0 24 24">
  <path d="m19,23.5c0,.276-.224.5-.5.5H5.5c-.276,0-.5-.224-.5-.5s.224-.5.5-.5h6V1.098c-.204.072-.398.179-.561.342l-4.597,4.596c-.195.195-.512.195-.707,0s-.195-.512,0-.707L10.232.732C10.717.247,11.353.004,11.99.002c.004,0,.007-.002.01-.002.004,0,.007.002.01.002.637.003,1.273.246,1.757.73l4.597,4.596c.195.195.195.512,0,.707-.098.098-.226.146-.354.146s-.256-.049-.354-.146L13.061,1.439c-.163-.163-.356-.269-.561-.342v21.902h6c.276,0,.5.224.5.5Z"/>
</svg>
