<?xml version="1.0" encoding="UTF-8"?>
<svg xmlns="http://www.w3.org/2000/svg" id="Layer_1" data-name="Layer 1" viewBox="0 0 24 24">
  <path d="m20.889,6.116c-.339-1.473-1.497-2.653-2.994-2.998-.404-1.781-1.993-3.118-3.895-3.118H4C1.794,0,0,1.794,0,4v10c0,1.901,1.336,3.491,3.117,3.895.346,1.497,1.526,2.655,2.999,2.994.412,1.792,2.017,3.112,3.884,3.112h10c2.206,0,4-1.794,4-4v-10c0-1.867-1.32-3.473-3.111-3.884Zm-3.889-2.116v2.417l-4.938,4.938-2.355-2.355,2.615-2.615s0,0,0,0,0,0,0,0l4.117-4.117c.349.49.56,1.086.56,1.733Zm-4.584,13h-.647l-1.969-1.969,5.231-5.231,1.969,1.969v.527l-4.584,4.704Zm4.584-3.27v.27c0,1.654-1.346,3-3,3h-.186l3.186-3.27Zm-6.645,3.27h-2.523l1.262-1.262,1.262,1.262Zm5.383-7.907l1.262-1.262v2.524l-1.262-1.262Zm-9.707,2.168l-2.355-2.355,5.23-5.231,2.356,2.356-5.231,5.23ZM14,1c.647,0,1.243.21,1.733.56l-3.764,3.764-2.356-2.356,1.968-1.969h2.418Zm-3.832,0l-4.23,4.23-2.23-2.23,2-2h4.461ZM1,4c0-1.654,1.346-3,3-3h.293l-3.293,3.293v-.293Zm0,1.707l2-2,2.23,2.23L1,10.168v-4.461Zm0,8.293v-2.418l1.969-1.969,2.355,2.355-3.764,3.764c-.349-.49-.56-1.086-.56-1.733Zm1.267,2.44l4.117-4.117s0,0,.001,0,0,0,0-.001l2.614-2.614,2.355,2.355-4.937,4.938h-2.418c-.647,0-1.243-.211-1.733-.56Zm4.733,3.56c-1.283,0-2.408-.829-2.825-2h9.825c2.206,0,4-1.794,4-4V4.175c1.171.417,2,1.542,2,2.825v10c0,1.654-1.346,3-3,3H7Zm16,0c0,1.654-1.346,3-3,3h-10c-1.283,0-2.408-.829-2.825-2h9.825c2.206,0,4-1.794,4-4V7.175c1.172.417,2,1.542,2,2.825v10Z"/>
</svg>
