<?xml version="1.0" encoding="UTF-8"?>
<svg xmlns="http://www.w3.org/2000/svg" id="Layer_1" data-name="Layer 1" viewBox="0 0 24 24">
  <path d="m23.5,21h-9.051c-.199-.978-.971-1.75-1.949-1.949v-5.051h7c1.378,0,2.5-1.122,2.5-2.5,0-1.207-.86-2.217-2-2.449V3.5c0-1.93-1.57-3.5-3.5-3.5H7.5c-1.93,0-3.5,1.57-3.5,3.5v5.551c-1.14.232-2,1.242-2,2.449,0,1.378,1.122,2.5,2.5,2.5h7v5.051c-.978.199-1.75.971-1.949,1.949H.5c-.276,0-.5.224-.5.5s.224.5.5.5h9.051c.232,1.14,1.242,2,2.449,2s2.217-.86,2.449-2h9.051c.276,0,.5-.224.5-.5s-.224-.5-.5-.5ZM7.5,1h9c1.378,0,2.5,1.122,2.5,2.5v5.5h-3.5c-.133,0-.26.053-.354.146l-.854.854h-4.586l-.854-.854c-.094-.094-.221-.146-.354-.146h-3.5V3.5c0-1.378,1.122-2.5,2.5-2.5ZM3,11.5c0-.827.673-1.5,1.5-1.5h3.793l.854.854c.094.094.221.146.354.146h5c.133,0,.26-.053.354-.146l.854-.854h3.793c.827,0,1.5.673,1.5,1.5s-.673,1.5-1.5,1.5H4.5c-.827,0-1.5-.673-1.5-1.5Zm9,11.5c-.827,0-1.5-.673-1.5-1.5s.673-1.5,1.5-1.5,1.5.673,1.5,1.5-.673,1.5-1.5,1.5Z"/>
</svg>
