<?xml version="1.0" encoding="UTF-8"?>
<svg xmlns="http://www.w3.org/2000/svg" id="Layer_1" data-name="Layer 1" viewBox="0 0 24 24">
  <path d="m5.5,10c-3.084,0-5.5,1.318-5.5,3v8c0,1.682,2.416,3,5.5,3s5.5-1.318,5.5-3v-8c0-1.682-2.416-3-5.5-3Zm4.5,7c0,.946-1.848,2-4.5,2s-4.5-1.054-4.5-2v-2.254c.987.764,2.62,1.254,4.5,1.254s3.513-.49,4.5-1.254v2.254Zm-4.5-6c2.652,0,4.5,1.054,4.5,2s-1.848,2-4.5,2-4.5-1.054-4.5-2,1.848-2,4.5-2Zm0,12c-2.652,0-4.5-1.054-4.5-2v-2.254c.987.764,2.62,1.254,4.5,1.254s3.513-.49,4.5-1.254v2.254c0,.946-1.848,2-4.5,2ZM24,4.5v11c0,1.557-.795,2.932-2,3.74v2.26c0,.276-.224.5-.5.5s-.5-.224-.5-.5v-1.757c-.469.166-.974.257-1.5.257h-6.5c-.276,0-.5-.224-.5-.5s.224-.5.5-.5h6.5c1.76,0,3.221-1.306,3.464-3h-2.464c-.276,0-.5-.224-.5-.5s.224-.5.5-.5h2.5V5h-2.5c-.276,0-.5-.224-.5-.5s.224-.5.5-.5h2.464c-.243-1.694-1.704-3-3.464-3H4.5c-1.93,0-3.5,1.57-3.5,3.5v4c0,.276-.224.5-.5.5s-.5-.224-.5-.5v-4C0,2.019,2.019,0,4.5,0h15c2.481,0,4.5,2.019,4.5,4.5Zm-13,.5c-1.888,0-3.595,1.045-4.455,2.728-.126.246-.427.344-.673.218s-.343-.427-.218-.673c1.032-2.019,3.081-3.272,5.346-3.272,3.309,0,6,2.691,6,6,0,2.265-1.254,4.313-3.272,5.346-.073.037-.15.055-.227.055-.182,0-.357-.1-.446-.272-.125-.246-.028-.547.218-.673,1.682-.86,2.728-2.567,2.728-4.455,0-2.757-2.243-5-5-5Z"/>
</svg>
