<?xml version="1.0" encoding="UTF-8"?>
<svg xmlns="http://www.w3.org/2000/svg" id="Layer_1" data-name="Layer 1" viewBox="0 0 24 24">
  <path d="m11,20.5c0,.276-.224.5-.5.5C4.71,21,0,16.29,0,10.5S4.71,0,10.5,0c1.846,0,3.662.486,5.25,1.405.239.138.321.444.182.683-.139.238-.444.321-.683.182-1.437-.831-3.079-1.271-4.75-1.271C5.262,1,1,5.262,1,10.5s4.262,9.5,9.5,9.5c.276,0,.5.224.5.5Zm-.5-16.5c.276,0,.5-.224.5-.5s-.224-.5-.5-.5c-4.136,0-7.5,3.364-7.5,7.5s3.364,7.5,7.5,7.5c.276,0,.5-.224.5-.5s-.224-.5-.5-.5c-3.584,0-6.5-2.916-6.5-6.5s2.916-6.5,6.5-6.5Zm13.42,14.713c-.195-.196-.512-.197-.707-.002l-4.02,3.998c-.057.056-.127.089-.194.13V.5c0-.276-.224-.5-.5-.5s-.5.224-.5.5v22.377c-.071-.038-.141-.085-.206-.149l-4.022-4.001c-.195-.194-.512-.193-.707.002-.195.196-.194.512.002.707l4.022,4.001c.361.359.861.559,1.415.563.525-.004,1.021-.21,1.395-.581l4.02-3.999c.196-.195.197-.511.002-.707Z"/>
</svg>
