<?xml version="1.0" encoding="UTF-8"?>
<svg xmlns="http://www.w3.org/2000/svg" id="Layer_1" data-name="Layer 1" viewBox="0 0 24 24">
  <path d="m3.5,19c1.378,0,2.5-1.122,2.5-2.5s-1.122-2.5-2.5-2.5-2.5,1.122-2.5,2.5,1.122,2.5,2.5,2.5Zm0-4c.827,0,1.5.673,1.5,1.5s-.673,1.5-1.5,1.5-1.5-.673-1.5-1.5.673-1.5,1.5-1.5Zm3.5,8.5c0,.276-.224.5-.5.5s-.5-.224-.5-.5c0-1.378-1.122-2.5-2.5-2.5s-2.5,1.122-2.5,2.5c0,.276-.224.5-.5.5s-.5-.224-.5-.5c0-1.93,1.57-3.5,3.5-3.5s3.5,1.57,3.5,3.5Zm17-5c0,1.93-1.57,3.5-3.5,3.5h-11c-.276,0-.5-.224-.5-.5s.224-.5.5-.5h11c1.378,0,2.5-1.122,2.5-2.5s-1.122-2.5-2.5-2.5h-10c-1.93,0-3.5-1.57-3.5-3.5s1.57-3.5,3.5-3.5h2c.276,0,.5.224.5.5s-.224.5-.5.5h-2c-1.378,0-2.5,1.122-2.5,2.5s1.122,2.5,2.5,2.5h10c1.93,0,3.5,1.57,3.5,3.5ZM15.503,7.389l-.862,2.765c-.116.371.013.776.325,1.009.162.122.356.183.55.183.178,0,.355-.051.51-.155l2.482-1.661,2.524,1.644c.152.099.326.148.5.148.198,0,.395-.064.56-.19.309-.238.433-.645.311-1.014l-.897-2.732,2.169-1.767c.294-.248.403-.654.271-1.016-.132-.362-.476-.602-.861-.602h-2.751l-.974-2.732c-.133-.359-.476-.597-.859-.597s-.726.238-.859.597l-.974,2.732h-2.751c-.384,0-.728.24-.86.601-.133.361-.026.766.267,1.015l2.179,1.773Zm1.165-2.389c.423,0,.8-.266.942-.664l.89-2.499.891,2.499c.142.398.519.664.942.664h2.517l-1.975,1.609c-.321.262-.448.694-.318,1.087l.824,2.509-2.326-1.515c-.166-.108-.356-.162-.546-.162-.194,0-.388.056-.556.169l-2.293,1.55.799-2.562c.122-.39-.006-.815-.323-1.073l-1.982-1.613h2.516Z"/>
</svg>
