<?xml version="1.0" encoding="UTF-8"?>
<svg xmlns="http://www.w3.org/2000/svg" id="Layer_1" data-name="Layer 1" viewBox="0 0 24 24">
  <path d="m5.084,9.223L11.084.223c.153-.23.463-.292.693-.139.23.153.292.463.139.693l-6,9c-.096.145-.255.223-.417.223-.095,0-.191-.027-.277-.084-.23-.153-.292-.463-.139-.693Zm6.416-3.223c1.103,0,2,.897,2,2s-.897,2-2,2-2-.897-2-2,.897-2,2-2Zm0,1c-.551,0-1,.449-1,1s.449,1,1,1,1-.449,1-1-.449-1-1-1ZM3.5,2c0-1.103.897-2,2-2s2,.897,2,2-.897,2-2,2-2-.897-2-2Zm1,0c0,.551.449,1,1,1s1-.449,1-1-.449-1-1-1-1,.449-1,1Zm18.864,11.181l-6.806,7.639c-1.801,2.021-4.387,3.181-7.093,3.181H3.5c-1.93,0-3.5-1.57-3.5-3.5v-5c0-1.93,1.57-3.5,3.5-3.5h9.858c1.208,0,2.229.814,2.542,1.922l3.732-4.102c.451-.496,1.069-.787,1.739-.818.666-.026,1.312.201,1.809.652,1.011.922,1.093,2.504.184,3.526Zm-.857-2.787c-.298-.272-.689-.406-1.088-.393-.403.019-.775.194-1.047.492l-4.495,4.94c-.301.945-1.124,1.678-2.146,1.824l-6.172.739c-.283.034-.523-.164-.556-.437-.033-.274.163-.523.437-.556l6.161-.737c.792-.113,1.399-.812,1.399-1.624,0-.905-.737-1.642-1.642-1.642H3.5c-1.378,0-2.5,1.122-2.5,2.5v5c0,1.378,1.122,2.5,2.5,2.5h5.965c2.422,0,4.735-1.037,6.346-2.846l6.806-7.639c.548-.615.498-1.567-.11-2.122Z"/>
</svg>
