<?xml version="1.0" encoding="UTF-8"?>
<svg xmlns="http://www.w3.org/2000/svg" id="Layer_1" data-name="Layer 1" viewBox="0 0 24 24">
  <path d="m19.5,0H4.5C2.019,0,0,2.019,0,4.5v15c0,2.481,2.019,4.5,4.5,4.5h15c2.481,0,4.5-2.019,4.5-4.5V4.5c0-2.481-2.019-4.5-4.5-4.5Zm3.5,4.5v.5h-8V1h4.5c1.93,0,3.5,1.57,3.5,3.5ZM10,1h4v6.5c0,.827-.673,1.5-1.5,1.5h-1c-.827,0-1.5-.673-1.5-1.5V1Zm-5.5,0h4.5v4H1v-.5c0-1.93,1.57-3.5,3.5-3.5Zm15,22H4.5c-1.93,0-3.5-1.57-3.5-3.5V6h8v1.5c0,1.379,1.121,2.5,2.5,2.5h1c1.379,0,2.5-1.121,2.5-2.5v-1.5h8v13.5c0,1.93-1.57,3.5-3.5,3.5Zm.5-3.5c0,.276-.224.5-.5.5h-4c-.276,0-.5-.224-.5-.5s.224-.5.5-.5h4c.276,0,.5.224.5.5Z"/>
</svg>
