<?xml version="1.0" encoding="UTF-8"?>
<svg xmlns="http://www.w3.org/2000/svg" id="Layer_1" data-name="Layer 1" viewBox="0 0 24 24">
  <path d="m15.5,16c-.276,0-.5.224-.5.5v.5H1V4.5c0-1.93,1.57-3.5,3.5-3.5h8c.276,0,.5-.224.5-.5s-.224-.5-.5-.5H4.5C2.019,0,0,2.019,0,4.5v15c0,2.481,2.019,4.5,4.5,4.5h7c2.481,0,4.5-2.019,4.5-4.5v-3c0-.276-.224-.5-.5-.5Zm-4,7h-7c-1.93,0-3.5-1.57-3.5-3.5v-1.5h14v1.5c0,1.93-1.57,3.5-3.5,3.5Zm-2.5-2.5c0,.552-.448,1-1,1s-1-.448-1-1,.448-1,1-1,1,.448,1,1Zm2-9.5c0,.552-.448,1-1,1s-1-.448-1-1,.448-1,1-1,1,.448,1,1Zm0-5c0,.552-.448,1-1,1s-1-.448-1-1,.448-1,1-1,1,.448,1,1Zm11,5c0,.552-.448,1-1,1s-1-.448-1-1,.448-1,1-1,1,.448,1,1Zm0-5c0,.552-.448,1-1,1s-1-.448-1-1,.448-1,1-1,1,.448,1,1Zm-.5-3h-12c-1.378,0-2.5,1.121-2.5,2.5v6c0,1.379,1.122,2.5,2.5,2.5h12c1.378,0,2.5-1.121,2.5-2.5v-6c0-1.379-1.122-2.5-2.5-2.5Zm1.5,8.5c0,.827-.673,1.5-1.5,1.5h-12c-.827,0-1.5-.673-1.5-1.5v-6c0-.827.673-1.5,1.5-1.5h12c.827,0,1.5.673,1.5,1.5v6Zm-7.5-5.5c-1.378,0-2.5,1.121-2.5,2.5s1.122,2.5,2.5,2.5,2.5-1.121,2.5-2.5-1.122-2.5-2.5-2.5Zm0,4c-.827,0-1.5-.673-1.5-1.5s.673-1.5,1.5-1.5,1.5.673,1.5,1.5-.673,1.5-1.5,1.5Z"/>
</svg>
