<?xml version="1.0" encoding="UTF-8"?>
<svg xmlns="http://www.w3.org/2000/svg" id="Layer_1" data-name="Layer 1" viewBox="0 0 24 24">
  <path d="m18.916,2.266L12.157.025c-.102-.034-.213-.034-.314,0l-6.759,2.241c-1.845.611-3.084,2.328-3.084,4.271l-.003,5.397c0,6.609,7.16,10.703,9.354,11.8,0,0,.43.265.648.265s.628-.213.628-.213c2.198-.885,9.369-4.354,9.369-11.852l.003-5.397c0-1.943-1.239-3.66-3.084-4.271Zm2.081,9.668c0,6.871-6.691,10.099-8.742,10.924l-.232.093-.224-.112c-2.064-1.032-8.802-4.87-8.802-10.905l.003-5.397c0-1.511.964-2.846,2.398-3.322l6.602-2.189,6.602,2.188c1.435.476,2.398,1.811,2.398,3.322l-.003,5.397Zm-4.002-5.023c0-.391-.238-.727-.605-.857-.355-.125-.733-.029-.983.242l-1.196.978c-.141.116-.32.154-.46.1-1.143-.446-2.356-.447-3.501,0-.137.055-.317.016-.459-.101l-1.196-.978c-.25-.271-.628-.367-.983-.242-.367.13-.605.467-.605.857-.007,3.203.002,5.12.002,5.12,0,2.753,2.24,4.993,4.993,4.993s4.993-2.24,4.993-4.993c0,0,.009-1.927.002-5.12Zm-1.002,5.12c0,2.202-1.791,3.993-3.993,3.993s-3.993-1.792-3.993-3.993c0-.016-.009-1.898-.002-4.925l1.152.942c.423.345.98.442,1.456.257.91-.355,1.864-.355,2.772,0,.475.186,1.033.088,1.457-.257l1.152-1c.006,2.848-.002,4.968-.002,4.983Zm-4.993-1.031c0,.552-.448,1-1,1s-1-.448-1-1,.448-1,1-1,1,.448,1,1Zm4,0c0,.552-.448,1-1,1s-1-.448-1-1,.448-1,1-1,1,.448,1,1Z"/>
</svg>
