<?xml version="1.0" encoding="UTF-8"?>
<svg xmlns="http://www.w3.org/2000/svg" id="Layer_1" data-name="Layer 1" viewBox="0 0 24 24">
  <path d="m15.5,5c1.685,0,3.268.656,4.458,1.847.195.195.195.512,0,.707s-.512.195-.707,0c-1.002-1.002-2.334-1.554-3.751-1.554s-2.749.552-3.75,1.554c-.098.098-.226.146-.354.146s-.256-.049-.354-.146c-.195-.195-.195-.512,0-.707,1.19-1.191,2.773-1.847,4.458-1.847Zm-8.047-.5c.134,0,.267-.053.366-.159,1.98-2.123,4.78-3.341,7.681-3.341s5.701,1.218,7.682,3.341c.187.203.505.213.706.025.202-.188.213-.505.024-.707-2.168-2.326-5.234-3.659-8.412-3.659s-6.244,1.333-8.413,3.659c-.188.202-.177.518.025.707.096.09.219.134.341.134Zm16.547,15v1c0,1.93-1.57,3.5-3.5,3.5H3.5c-1.93,0-3.5-1.57-3.5-3.5v-1c0-1.93,1.57-3.5,3.5-3.5h11.5v-5.5c0-.276.224-.5.5-.5s.5.224.5.5v5.5h4.5c1.93,0,3.5,1.57,3.5,3.5Zm-1,0c0-1.379-1.121-2.5-2.5-2.5H3.5c-1.378,0-2.5,1.121-2.5,2.5v1c0,1.379,1.122,2.5,2.5,2.5h17c1.379,0,2.5-1.121,2.5-2.5v-1Zm-19-.5c-.552,0-1,.448-1,1s.448,1,1,1,1-.448,1-1-.448-1-1-1Zm4,0c-.552,0-1,.448-1,1s.448,1,1,1,1-.448,1-1-.448-1-1-1Z"/>
</svg>
