<?xml version="1.0" encoding="UTF-8"?>
<svg xmlns="http://www.w3.org/2000/svg" id="Layer_1" data-name="Layer 1" viewBox="0 0 24 24">
  <path d="m23.89,13.771c-.931-1.754-2.756-3.2-4.898-3.898-.062-4.723-.571-9.863-3.49-9.874h-.01c-2.729,0-3.838,4.291-4.281,7.314-1.266-.28-1.819-.299-2.13-.308-1.695-.023-3.522.521-5.024,1.547-.353.239-.503.673-.375,1.081l.055.175c.126.403.495.674.921.674.065-.002.126,0,.19,0,2.397,0,4.517.362,5.924.681-.641,3.924-3.372,6.068-5.553,7.161-2.364,1.017-3.615,2.943-4.022,3.677h-.697c-.276,0-.5.224-.5.5s.224.5.5.5h.771c.352.349,1.241.926,3.147.985.018.003.033.013.051.014.047.003.238.014.545.014,1.595,0,6.295-.298,9.876-3.439.141-.123.203-.314.16-.496,0-.004-.002-.008-.003-.012-.086-.365-.531-.511-.814-.265-3.566,3.106-8.424,3.223-9.483,3.206-.013,0-.024-.007-.037-.007-1.549,0-2.291-.367-2.599-.59.393-.673,1.513-2.314,3.524-3.181,3.427-1.714,5.524-4.42,6.105-7.826.342.092.59.168.713.207.923.836,3.397,3.181,4.528,7.949.08.343.34.614.711.717.088.024.176.036.263.036.391,0,.749-.237.892-.619.843-2.244.675-4.498.276-5.744h0c1.371.227,2.623.628,3.433,1.098.311.181.69.173.994-.021.42-.267.566-.818.335-1.255ZM5.034,9.508c-.113,0-.229,0-.344.002l-.071-.13c1.335-.912,2.971-1.429,4.438-1.374.281.008.786.023,2.033.305.13.713.39,1.45.805,2.094-1.324-.352-3.858-.896-6.86-.896Zm7.057-1.307c.003-.014.011-.025.013-.039.541-4.419,1.839-7.162,3.389-7.162h.005c1.61.006,2.45,3.153,2.499,9.346-.531.512-1.597,1.224-3.254.911-1.891-.36-2.478-2.198-2.651-3.056Zm7.2,4.761l-.807-.135c-.17-.03-.346.033-.46.166-.114.131-.151.312-.099.479l.248.781c.351,1.095.493,3.085-.215,5.078-.824-3.475-2.325-5.742-3.505-7.112.033.007.067.014.102.021,1.923.364,3.448-.418,4.318-1.355,1.794.637,3.362,1.898,4.188,3.299-1.247-.725-2.898-1.076-3.771-1.221Z"/>
</svg>
