<?xml version="1.0" encoding="UTF-8"?>
<svg xmlns="http://www.w3.org/2000/svg" id="Layer_1" data-name="Layer 1" viewBox="0 0 24 24">
  <path d="m19.099.621c-1.911-.323-4.093-.621-7.099-.621s-5.188.298-7.098.621c-1.82.307-3.085,1.992-2.88,3.84l.974,8.036-.939,7.013c-.229,1.863,1.035,3.565,2.876,3.874,1.905.32,4.079.616,7.067.616s5.163-.296,7.067-.616c1.841-.309,3.104-2.011,2.875-3.88l-.939-7.007.974-8.041c.205-1.844-1.061-3.529-2.88-3.835Zm1.886,3.72l-.928,7.659h-2.012l.903-10.388c1.288.226,2.181,1.423,2.036,2.729Zm-6.67,7.659l.419-10.907c1.202.082,2.257.212,3.225.359l-.917,10.548h-2.727Zm-.579-10.962l-.422,10.962h-2.529l-.515-10.962c.548-.023,1.118-.038,1.731-.038s1.186.015,1.735.038Zm-6.777,10.962l-.917-10.548c.969-.147,2.026-.277,3.229-.359l.513,10.907h-2.825ZM5.051,1.612l.903,10.388h-2.012l-.927-7.654c-.145-1.311.748-2.508,2.036-2.734Zm13.897,20.773l-.602-6.929c-.024-.275-.272-.484-.542-.455-.275.024-.479.266-.455.542l.609,7.004c-.968.147-2.023.277-3.225.359l-.286-7.426c-.01-.276-.256-.498-.519-.48-.276.01-.491.243-.48.519l.286,7.443c-.549.023-1.121.038-1.735.038s-1.183-.015-1.731-.038l.35-7.438c.013-.276-.2-.51-.476-.523-.288-.026-.51.2-.523.476l-.349,7.431c-1.203-.082-2.26-.212-3.229-.359l.609-7.004c.024-.275-.18-.518-.455-.542-.268-.022-.518.18-.542.455l-.603,6.929c-1.286-.242-2.163-1.439-2.003-2.748l.889-6.637h16.125l.889,6.631c.161,1.315-.717,2.512-2.003,2.754Z"/>
</svg>
