<?xml version="1.0" encoding="UTF-8"?>
<svg xmlns="http://www.w3.org/2000/svg" id="Layer_1" data-name="Layer 1" viewBox="0 0 24 24">
  <path d="m14.833,14.111l-4.596-4.596c-.391-.391-.391-1.024,0-1.414l1.414-1.414c.195-.195.512-.195.707,0,.195.195.195.512,0,.707l-1.414,1.414,1.768,1.768,1.414-1.414c.195-.195.512-.195.707,0s.195.512,0,.707l-1.414,1.414,2.121,2.121c.195.195.195.512,0,.707s-.512.195-.707,0Zm6.01-6.718c.391.391,1.024.391,1.414,0l1.414-1.414c.195-.195.195-.512,0-.707-.195-.195-.512-.195-.707,0l-1.414,1.414-1.768-1.768,1.414-1.414c.195-.195.195-.512,0-.707s-.512-.195-.707,0l-1.414,1.414-1.768-1.768,1.414-1.414c.195-.195.195-.512,0-.707-.195-.195-.512-.195-.707,0l-1.414,1.414c-.391.391-.391,1.024,0,1.414l4.243,4.243Zm-7.425-1.061l4.243,4.243c.391.391,1.024.391,1.414,0l1.414-1.414c.195-.195.195-.512,0-.707s-.512-.195-.707,0l-1.414,1.414-1.768-1.768,1.414-1.414c.195-.195.195-.512,0-.707-.195-.195-.512-.195-.707,0l-1.414,1.414-1.768-1.768,1.414-1.414c.195-.195.195-.512,0-.707s-.512-.195-.707,0l-1.414,1.414c-.391.391-.391,1.024,0,1.414ZM2.375,19.331l5.962,1.626c.173.047.358-.002.485-.129.195-.195.195-.512,0-.707l-4.95-4.95c-.195-.195-.512-.195-.707,0s-.195.512,0,.707l3.618,3.618-5.962-1.626c-.173-.047-.358.002-.485.129-.195.195-.195.512,0,.707l4.95,4.95c.195.195.512.195.707,0s.195-.512,0-.707l-3.618-3.618Zm21.34-9.94c-.06-.269-.324-.438-.597-.38-.27.06-.439.327-.38.597.173.778.261,1.583.261,2.392,0,6.065-4.935,11-11,11-1.096,0-2.178-.16-3.217-.478-.265-.079-.544.068-.624.333-.081.264.068.543.332.624,1.134.346,2.314.521,3.509.521,6.617,0,12-5.383,12-12,0-.881-.096-1.759-.284-2.608Zm-14.207,2.94l2.118,2.118c.973.973.973,2.556,0,3.529-.973.973-2.556.973-3.529,0l-2.118-2.118c-.973-.973-.973-2.556,0-3.529s2.556-.973,3.529,0Zm1.411,2.825l-2.118-2.118c-.583-.583-1.532-.583-2.115,0s-.583,1.532,0,2.115l2.118,2.118c.583.583,1.532.583,2.115,0s.583-1.532,0-2.115Zm-10.147-.157c.036,0,.072-.004.108-.012.27-.06.44-.327.38-.597-.173-.78-.261-1.585-.261-2.392C1,5.935,5.935,1,12,1c.642,0,1.285.056,1.914.166.266.041.53-.134.578-.406s-.134-.531-.406-.579c-.685-.12-1.387-.181-2.086-.181C5.383,0,0,5.383,0,12c0,.879.096,1.757.284,2.608.052.233.258.392.488.392Z"/>
</svg>
