<?xml version="1.0" encoding="UTF-8"?>
<svg xmlns="http://www.w3.org/2000/svg" id="Layer_1" data-name="Layer 1" viewBox="0 0 24 24">
  <path d="m22.561,8.566c.163-.163.269-.357.342-.561l-18.401-.004h0c-.935,0-1.813.364-2.475,1.025s-1.025,1.54-1.025,2.475v7.999c0,1.93,1.57,3.5,3.5,3.5h17c.276,0,.5.224.5.5s-.224.5-.5.5H4.5c-2.481,0-4.5-2.019-4.5-4.5v-7.999c0-1.202.468-2.333,1.318-3.182.85-.85,1.979-1.318,3.182-1.318h0l18.401.004c-.072-.204-.179-.398-.342-.561l-4.596-4.596c-.195-.195-.195-.512,0-.707s.512-.195.707,0l4.596,4.596c.484.484.726,1.119.73,1.755,0,.005.003.009.003.014,0,.005-.003.009-.003.014-.004.635-.246,1.27-.73,1.754l-4.596,4.596c-.098.098-.226.146-.354.146s-.256-.049-.354-.146c-.195-.195-.195-.512,0-.707l4.596-4.596Z"/>
</svg>
