<?xml version="1.0" encoding="UTF-8"?>
<svg xmlns="http://www.w3.org/2000/svg" id="Layer_1" data-name="Layer 1" viewBox="0 0 24 24">
  <path d="m22,20v-10.002c1.111-.048,2-.966,2-2.089,0-1.101-.6-2.11-1.563-2.634l-3.945-2.145c-.242-.13-.547-.043-.679.201-.132.243-.042.546.2.678l3.946,2.145c.642.349,1.041,1.021,1.041,1.755,0,.602-.489,1.091-1.091,1.091H2.091c-.602,0-1.091-.489-1.091-1.091,0-.732.399-1.405,1.041-1.755l3.947-2.143c.243-.132.333-.436.201-.678-.133-.242-.435-.332-.678-.201l-3.947,2.144c-.964.526-1.562,1.535-1.562,2.633,0,1.122.889,2.041,2,2.089v10.002c-1.103,0-2,.897-2,2s.897,2,2,2h6.5c.276,0,.5-.224.5-.5s-.224-.5-.5-.5H2c-.551,0-1-.449-1-1s.449-1,1-1h3.5c.276,0,.5-.224.5-.5v-10.5h5.5v2h-1.005c-1.376,0-2.495,1.119-2.495,2.495,0,1.108.744,2.095,1.81,2.399l4.105,1.173c.639.182,1.085.773,1.085,1.438,0,.824-.671,1.495-1.495,1.495h-3.01c-.824,0-1.495-.671-1.495-1.495,0-.276-.224-.5-.5-.5s-.5.224-.5.5c0,1.376,1.119,2.495,2.495,2.495h1.005v1.5c0,.276.224.5.5.5s.5-.224.5-.5v-1.5h1.005c1.376,0,2.495-1.119,2.495-2.495,0-1.108-.744-2.095-1.81-2.399l-4.106-1.173c-.638-.182-1.084-.773-1.084-1.438,0-.824.671-1.495,1.495-1.495h3.01c.824,0,1.495.671,1.495,1.495,0,.276.224.5.5.5s.5-.224.5-.5c0-1.376-1.119-2.495-2.495-2.495h-1.005v-2h5.5v10.5c0,.276.224.5.5.5h3.5c.552,0,1,.449,1,1s-.448,1-1,1h-6.5c-.276,0-.5.224-.5.5s.224.5.5.5h6.5c1.103,0,2-.897,2-2s-.897-2-2-2Zm-17,0h-2v-10h2v10Zm14-10h2v10h-2v-10ZM8.189,3.811c-.195-.195-.195-.512,0-.707s.512-.195.707,0l2.604,2.604V.5c0-.276.224-.5.5-.5s.5.224.5.5v5.212l2.652-2.57c.199-.193.514-.187.707.011.191.198.187.515-.012.707l-2.793,2.707c-.289.289-.67.434-1.053.434-.384,0-.77-.146-1.062-.439l-2.75-2.75Z"/>
</svg>
