<?xml version="1.0" encoding="UTF-8"?>
<svg xmlns="http://www.w3.org/2000/svg" id="Layer_1" data-name="Layer 1" viewBox="0 0 24 24">
  <path d="m15,10c.552,0,1,.448,1,1s-.448,1-1,1-1-.448-1-1,.448-1,1-1Zm4,1c0,.552.448,1,1,1s1-.448,1-1-.448-1-1-1-1,.448-1,1ZM10,.5c0-.276.224-.5.5-.5h.31c1.196,0,2.213.836,2.449,2h8.74c.644,0,1.231.297,1.612.816s.488,1.168.295,1.783l-.83,2.649c-.329,1.048-1.288,1.752-2.386,1.752h-5.147c-1.224,0-2.261-.876-2.466-2.083l-.789-4.667c-.122-.725-.744-1.25-1.479-1.25h-.31c-.276,0-.5-.224-.5-.5Zm3.43,2.5l.634,3.75c.123.724.745,1.25,1.479,1.25h5.147c.659,0,1.233-.422,1.431-1.051l.831-2.649c.097-.308.043-.632-.147-.892s-.483-.408-.806-.408h-8.569Zm10.07,7c-.276,0-.5.224-.5.5v5c0,1.93-1.57,3.5-3.5,3.5H4.5c-1.93,0-3.5-1.57-3.5-3.5V7.5c0-1.93,1.57-3.5,3.5-3.5h5c.276,0,.5-.224.5-.5s-.224-.5-.5-.5h-5C2.019,3,0,5.019,0,7.5v8c0,2.481,2.019,4.5,4.5,4.5h7v3h-4c-.276,0-.5.224-.5.5s.224.5.5.5h9c.276,0,.5-.224.5-.5s-.224-.5-.5-.5h-4v-3h7c2.481,0,4.5-2.019,4.5-4.5v-5c0-.276-.224-.5-.5-.5Z"/>
</svg>
