<?xml version="1.0" encoding="UTF-8"?>
<svg xmlns="http://www.w3.org/2000/svg" id="Layer_1" data-name="Layer 1" viewBox="0 0 24 24">
  <path d="m20,0h-8c-1.833,0-3.366,1.247-3.837,2.932-.547-.571-1.312-.932-2.163-.932-1.654,0-3,1.346-3,3,0,.771.301,1.468.78,2H1V.5c0-.276-.224-.5-.5-.5s-.5.224-.5.5v23c0,.276.224.5.5.5s.5-.224.5-.5v-2.5h22v2.5c0,.276.224.5.5.5s.5-.224.5-.5V4c0-2.206-1.794-4-4-4Zm-11,4c0-1.654,1.346-3,3-3h8c1.654,0,3,1.346,3,3v3h-14v-3Zm-5,1c0-1.103.897-2,2-2s2,.897,2,2-.897,2-2,2-2-.897-2-2Zm-3,3h22v5h-11c-1.833,0-3.366,1.247-3.837,2.932-.547-.571-1.312-.932-2.163-.932-1.654,0-3,1.346-3,3,0,.771.301,1.468.78,2H1v-12Zm3,10c0-1.103.897-2,2-2s2,.897,2,2-.897,2-2,2-2-.897-2-2Zm5,2v-3c0-1.654,1.346-3,3-3h11v6h-14Z"/>
</svg>
