<?xml version="1.0" encoding="UTF-8"?>
<svg xmlns="http://www.w3.org/2000/svg" id="Layer_1" data-name="Layer 1" viewBox="0 0 24 24">
  <path d="m19.076,11.234c.46-.734.924-1.864.924-2.734,0-.276.224-.5.5-.5s.5.224.5.5c0,1.142-.58,2.473-1.076,3.266-.095.151-.258.234-.424.234-.091,0-.183-.024-.266-.076-.233-.146-.305-.455-.158-.689Zm-9.576-3.234c-.276,0-.5.224-.5.5,0,.87-.464,2-.924,2.734-.146.234-.075.543.158.689.083.052.175.076.266.076.166,0,.329-.083.424-.234.496-.793,1.076-2.124,1.076-3.266,0-.276-.224-.5-.5-.5Zm12.5,14c0,1.294-1.225,1.921-1.276,1.947-.072.036-.148.053-.224.053-.183,0-.359-.101-.447-.276-.123-.247-.023-.547.224-.671.005-.002.724-.382.724-1.053,0-.746-.646-1.16-1.712-1.752-.908-.505-1.938-1.078-2.217-2.158-.164-.636-.044-1.358.367-2.194-2.009-.515-3.65-2.887-4.436-5.597-1.003,3.524-3.413,6.695-6.243,6.702-.402.584-.742,1.195-.759,1.378,0,.566.678.926,1.712,1.409,1.072.501,2.288,1.07,2.288,2.323,0,1.186-1.225,1.812-1.276,1.838-.072.036-.148.053-.224.053-.183,0-.359-.101-.447-.276-.123-.247-.023-.547.224-.671.005-.002.724-.387.724-.943,0-.574-.678-.934-1.712-1.417-1.072-.501-2.288-1.07-2.288-2.323,0-.391.339-1.018.662-1.527C2.444,15.914,0,11.021,0,6.9,0,3.095,3.028,0,6.75,0c2.833,0,5.263,1.793,6.263,4.327.879-2.021,2.817-3.327,5.237-3.327,3.332,0,5.75,2.475,5.75,5.885,0,4.096-2.372,8.838-5.477,9.103-.441.764-.604,1.386-.484,1.852.172.665.932,1.087,1.735,1.534,1.043.58,2.226,1.238,2.226,2.626ZM12.5,6.9c0-3.253-2.579-5.9-5.75-5.9S1,3.646,1,6.9c0,4.096,2.653,9.1,5.75,9.1s5.75-5.004,5.75-9.1Zm5.75,8.1c2.631,0,4.75-4.439,4.75-8.115,0-2.876-1.953-4.885-4.75-4.885s-4.75,2.009-4.75,4.885c0,3.676,2.119,8.115,4.75,8.115Z"/>
</svg>
