<?xml version="1.0" encoding="UTF-8"?>
<svg xmlns="http://www.w3.org/2000/svg" id="Layer_1" data-name="Layer 1" viewBox="0 0 24 24">
  <path d="m23.901,13.322l-1.402-9.48c-.323-2.19-2.237-3.842-4.451-3.842h-1.548c-.276,0-.5.224-.5.5s.224.5.5.5h1.548c1.722,0,3.211,1.284,3.463,2.988l1.333,9.012h-5.344c-1.554,0-2.918.798-3.726,2h-3.553c-.175-.261-1.221-2-3.721-2H1.156L2.489,3.988c.252-1.704,1.741-2.988,3.463-2.988h1.548c.276,0,.5-.224.5-.5s-.224-.5-.5-.5h-1.548C3.738,0,1.824,1.651,1.501,3.842L.099,13.32c-.065.427-.099.861-.099,1.291v4.889c0,2.481,2.019,4.5,4.5,4.5h2c2.481,0,4.5-2.019,4.5-4.5v-2c0-.529-.108-1.029-.276-1.5h2.553c-.168.471-.276.971-.276,1.5v2c0,2.481,2.019,4.5,4.5,4.5h2c2.481,0,4.5-2.019,4.5-4.5v-4.889c0-.43-.033-.864-.099-1.289Zm-13.901,6.178c0,1.93-1.57,3.5-3.5,3.5h-2c-1.93,0-3.5-1.57-3.5-3.5v-4.889c0-.203.009-.407.025-.611h5.475c.641,0,1.235.186,1.753.488l-5.014,3.086c-.235.145-.309.453-.164.688.095.153.259.238.426.238.09,0,.181-.023.262-.074l5.317-3.272c.566.622.921,1.441.921,2.346v2Zm13,0c0,1.93-1.57,3.5-3.5,3.5h-2c-1.93,0-3.5-1.57-3.5-3.5v-2c0-1.93,1.57-3.5,3.5-3.5h4.546l-5.808,3.574c-.235.145-.309.453-.164.688.095.153.259.238.426.238.09,0,.181-.023.262-.074l6.237-3.838c0,.008,0,.016,0,.024v4.889Z"/>
</svg>
