<?xml version="1.0" encoding="UTF-8"?>
<svg xmlns="http://www.w3.org/2000/svg" id="Layer_1" data-name="Layer 1" viewBox="0 0 24 24">
  <path d="m3,16c0-.276.224-.5.5-.5h8c.276,0,.5.224.5.5s-.224.5-.5.5H3.5c-.276,0-.5-.224-.5-.5Zm.5,4h8c.276,0,.5-.224.5-.5s-.224-.5-.5-.5H3.5c-.276,0-.5.224-.5.5s.224.5.5.5Zm0-7h8c.276,0,.5-.224.5-.5s-.224-.5-.5-.5H3.5c-.276,0-.5.224-.5.5s.224.5.5.5ZM24,4.5v2c0,1.379-1.122,2.5-2.5,2.5h-6.5v11c0,2.206-1.794,4-4,4h-7c-2.206,0-4-1.794-4-4V4.5C0,2.019,2.019,0,4.5,0h15c2.481,0,4.5,2.019,4.5,4.5Zm-10,4.5H1v11c0,1.654,1.346,3,3,3h7c1.654,0,3-1.346,3-3v-11Zm9-4.5c0-1.93-1.57-3.5-3.5-3.5H4.5c-1.93,0-3.5,1.57-3.5,3.5v3.5h20.5c.827,0,1.5-.673,1.5-1.5v-2Zm-2.382-1.217c.197.477.09,1.02-.275,1.385l-2.452,2.245c-.223.225-.542.356-.881.356s-.658-.132-.898-.372l-2.419-2.214c-.38-.38-.488-.924-.291-1.399.197-.477.658-.784,1.173-.784h4.871c.515,0,.976.308,1.173.783Zm-.924.384c-.021-.051-.086-.167-.249-.167h-4.871c-.163,0-.229.116-.249.167-.021.05-.057.179.059.294l2.419,2.214c.134.132.295.118.397.016l2.452-2.245c.099-.1.063-.229.042-.278Z"/>
</svg>
