<?xml version="1.0" encoding="UTF-8"?>
<svg xmlns="http://www.w3.org/2000/svg" id="Layer_1" data-name="Layer 1" viewBox="0 0 24 24">
  <path d="m20.25,4.633c.635-.635.888-1.536.679-2.413-.206-.861-.828-1.539-1.663-1.812-.54-.177-1.102-.287-1.669-.329-2.71-.198-6.246-.103-7.905,1.426-.462-.389-1.98-1.504-4.275-1.504-1.884,0-3.417,1.533-3.417,3.417v20.083c0,.276.224.5.5.5s.5-.224.5-.5V3.417c0-1.333,1.084-2.417,2.417-2.417,1.967,0,3.289.983,3.637,1.275-1.102,1.815-1.154,4.902-.975,7.322.042.566.153,1.128.329,1.669.273.835.951,1.457,1.812,1.663.202.048.406.072.607.072.671,0,1.317-.263,1.805-.751l7.617-7.617Zm-9.797,7.323c-.529-.127-.928-.491-1.094-1.001-.151-.464-.247-.946-.283-1.433-.267-3.609.166-6.178,1.217-7.229.849-.849,2.685-1.294,5.26-1.294.615,0,1.273.025,1.97.077.487.035.968.131,1.432.282.51.166.875.565,1.001,1.094.128.536-.026,1.087-.413,1.474l-7.617,7.617c-.387.387-.936.54-1.473.413Zm7.547,3.044c0,.552-.448,1-1,1s-1-.448-1-1,.448-1,1-1,1,.448,1,1Zm4-4c0,.552-.448,1-1,1s-1-.448-1-1,.448-1,1-1,1,.448,1,1Zm-4,8c0,.552-.448,1-1,1s-1-.448-1-1,.448-1,1-1,1,.448,1,1Zm4-4c0,.552-.448,1-1,1s-1-.448-1-1,.448-1,1-1,1,.448,1,1Zm0,4c0,.552-.448,1-1,1s-1-.448-1-1,.448-1,1-1,1,.448,1,1Zm0,4c0,.552-.448,1-1,1s-1-.448-1-1,.448-1,1-1,1,.448,1,1Zm-4,0c0,.552-.448,1-1,1s-1-.448-1-1,.448-1,1-1,1,.448,1,1Zm-4-4c0,.552-.448,1-1,1s-1-.448-1-1,.448-1,1-1,1,.448,1,1Zm4-8c0,.552-.448,1-1,1s-1-.448-1-1,.448-1,1-1,1,.448,1,1Zm3-5c.552,0,1,.448,1,1s-.448,1-1,1-1-.448-1-1,.448-1,1-1Zm-7,9c0,.552-.448,1-1,1s-1-.448-1-1,.448-1,1-1,1,.448,1,1Zm0,8c0,.552-.448,1-1,1s-1-.448-1-1,.448-1,1-1,1,.448,1,1Z"/>
</svg>
