<?xml version="1.0" encoding="UTF-8"?>
<svg xmlns="http://www.w3.org/2000/svg" id="Layer_1" data-name="Layer 1" viewBox="0 0 24 24">
  <path d="m12,16.5c0,.276-.224.5-.5.5H3.461C1.532,17-.039,15.43-.039,13.5v-5.338c0-1.393.629-2.685,1.727-3.543L6.188,1.02c1.552-1.212,3.649-1.359,5.347-.379l1.298.876c.229.154.29.465.134.694-.154.229-.466.289-.694.134l-1.269-.857c-1.315-.758-2.973-.641-4.196.316l-4.499,3.598c-.858.671-1.348,1.676-1.348,2.759v5.338c0,1.378,1.122,2.5,2.5,2.5h8.039c.276,0,.5.224.5.5Zm3-14c0-1.378,1.121-2.5,2.5-2.5s2.5,1.122,2.5,2.5-1.121,2.5-2.5,2.5-2.5-1.122-2.5-2.5Zm1,0c0,.827.673,1.5,1.5,1.5s1.5-.673,1.5-1.5-.673-1.5-1.5-1.5-1.5.673-1.5,1.5Zm-9.5,6.5c.827,0,1.5.673,1.5,1.5v1c0,.827-.673,1.5-1.5,1.5h-1c-.827,0-1.5-.673-1.5-1.5v-1c0-.827.673-1.5,1.5-1.5h1Zm0,1h-1c-.276,0-.5.224-.5.5v1c0,.276.224.5.5.5h1c.276,0,.5-.224.5-.5v-1c0-.276-.224-.5-.5-.5Zm17.5,1.039v3.461c0,.276-.224.5-.5.5s-.5-.224-.5-.5v-3.461c0-.496-.244-.959-.654-1.238l-2.346-1.603v5.261c0,.815-.398,1.581-1.066,2.048l-4.261,2.817c-.421.279-.673.747-.673,1.251v3.925c0,.276-.224.5-.5.5s-.5-.224-.5-.5v-3.925c0-.841.419-1.621,1.122-2.085l.878-.581v-5.322c-.19.297-.439.549-.735.742l-2.438,1.589c-.23.15-.54.085-.692-.146-.151-.231-.085-.541.146-.692l2.437-1.589c.306-.199.528-.502.626-.852,0,0,.688-2.969.7-2.996.339-.929,1.372-1.644,2.361-1.644,1.367,0,1.946.512,2.254.758l3.252,2.217c.683.465,1.09,1.237,1.09,2.064Zm-5-3.528c-.047-.048-.529-.511-1.596-.511-.571,0-1.208.429-1.404.934v8.314l2.371-1.568c.39-.273.629-.732.629-1.222v-5.947s.006.005,0,0Zm.485,10.479c-.105-.255-.399-.378-.652-.272-.256.104-.378.396-.273.652l2.183,5.32c.08.193.267.31.463.31.063,0,.128-.012.189-.038.256-.104.378-.396.273-.652l-2.183-5.32Zm-.485-10.478h0c-.008-.008-.004-.003,0,0Z"/>
</svg>
