<?xml version="1.0" encoding="UTF-8"?>
<svg xmlns="http://www.w3.org/2000/svg" id="Layer_1" data-name="Layer 1" viewBox="0 0 24 24">
  <path d="m16,16c0-.552.448-1,1-1s1,.448,1,1-.448,1-1,1-1-.448-1-1Zm-1-5c-.552,0-1,.448-1,1s.448,1,1,1,1-.448,1-1-.448-1-1-1Zm3,1c0,.552.448,1,1,1s1-.448,1-1-.448-1-1-1-1,.448-1,1ZM10.061.739c-.132-.242-.043-.546.2-.678.241-.132.546-.043.678.2.285.522.997,1.829,1.353,3.832.232-.851.646-1.775,1.378-2.508C14.771.484,16.29.12,17.37.008c.451-.041.879.11,1.196.426.317.317.472.753.426,1.196-.112,1.08-.477,2.599-1.578,3.7-1.539,1.539-3.928,1.67-4.696,1.67-.112,0-.715,0-.715,0h-.004c-.132,0-.258-.052-.352-.145-.095-.094-.148-.222-.148-.355,0-3.123-1.083-5.108-1.439-5.761Zm2.947,5.253c.838-.039,2.588-.258,3.7-1.369.894-.894,1.194-2.177,1.29-3.097h0c.015-.142-.048-.272-.139-.386-.146-.185-.37-.14-.386-.139-.919.096-2.203.396-3.097,1.29-1.111,1.111-1.33,2.862-1.369,3.7Zm8.089-1.818c-.182-.21-.497-.232-.705-.053-.209.18-.233.496-.053.705,1.716,1.993,2.661,4.541,2.661,7.174,0,6.065-4.935,11-11,11S1,18.065,1,12C1,7.58,3.628,3.605,7.696,1.874c.254-.108.373-.402.264-.656-.108-.254-.402-.373-.656-.264C2.867,2.842,0,7.178,0,12c0,6.617,5.383,12,12,12s12-5.383,12-12c0-2.873-1.031-5.652-2.903-7.826Z"/>
</svg>
