<?xml version="1.0" encoding="UTF-8"?>
<svg xmlns="http://www.w3.org/2000/svg" id="Layer_1" data-name="Layer 1" viewBox="0 0 24 24">
  <path d="m.025,13.657c-.087-.262.056-.545.317-.632.326-.108.707-.474,1.072-1.031.843-1.282,2.327-1.282,3.17,0,.852,1.297,1.979,1.297,2.83,0,.843-1.282,2.327-1.282,3.17,0,.852,1.297,1.979,1.297,2.83,0,.843-1.282,2.327-1.282,3.17,0,.852,1.297,1.979,1.297,2.83,0,.843-1.282,2.327-1.282,3.17,0,.372.565.742.922,1.072,1.031.262.086.405.369.318.631-.069.21-.265.343-.475.343-.052,0-.105-.008-.157-.025-.554-.183-1.091-.665-1.594-1.432-.46-.7-1.038-.7-1.498,0-.617.939-1.417,1.457-2.251,1.457s-1.634-.518-2.251-1.457c-.46-.7-1.038-.7-1.498,0-.617.939-1.417,1.457-2.251,1.457s-1.634-.518-2.251-1.457c-.46-.7-1.038-.7-1.498,0-.617.939-1.417,1.457-2.251,1.457s-1.634-.518-2.251-1.457c-.46-.7-1.038-.7-1.498,0-.503.767-1.04,1.249-1.594,1.432-.265.086-.545-.056-.632-.317Zm23.975,4.343v.5c0,1.93-1.57,3.5-3.5,3.5H3.5c-1.93,0-3.5-1.57-3.5-3.5v-.5c0-1.103.897-2,2-2h20c1.103,0,2,.897,2,2Zm-1,0c0-.551-.449-1-1-1H2c-.551,0-1,.449-1,1v.5c0,1.378,1.122,2.5,2.5,2.5h17c1.378,0,2.5-1.122,2.5-2.5v-.5Zm1-11.5v.5c0,1.103-.897,2-2,2H2c-1.103,0-2-.897-2-2v-.5c0-1.93,1.57-3.5,3.5-3.5h17c1.93,0,3.5,1.57,3.5,3.5Zm-1,0c0-1.378-1.122-2.5-2.5-2.5H3.5c-1.378,0-2.5,1.122-2.5,2.5v.5c0,.551.449,1,1,1h20c.551,0,1-.449,1-1v-.5Z"/>
</svg>
