<?xml version="1.0" encoding="UTF-8"?>
<svg xmlns="http://www.w3.org/2000/svg" id="Layer_1" data-name="Layer 1" viewBox="0 0 24 24">
  <path d="m13.554,4.161c-.829-.829-2.176-.829-3.001-.004l-4.607,4.503c-.405.396-.528.99-.314,1.515s.718.863,1.284.863h10.272c.566,0,1.07-.339,1.284-.863s.091-1.119-.314-1.515l-4.604-4.499Zm-3.584,5.877l4.177-3.899,1.277,1.248-2.92,2.652h-2.534Zm-3.413-.241c-.023-.056-.085-.253.088-.422l4.611-4.507c.219-.219.506-.328.794-.328s.579.11.801.332l.581.567-4.926,4.599h-1.591c-.241,0-.335-.185-.358-.241Zm10.989,0c-.023.057-.117.241-.358.241h-3.197l2.149-1.952,1.319,1.289c.173.169.111.366.088.422Zm-.358,3.241H6.915c-.566,0-1.07.339-1.284.863-.214.525-.091,1.12.314,1.516l4.604,4.499c.415.415.96.622,1.504.622s1.085-.206,1.497-.618l4.607-4.503c.405-.396.528-.99.314-1.516-.214-.524-.718-.863-1.284-.863Zm.271,1.664l-4.611,4.507c-.438.438-1.152.438-1.595-.004l-4.607-4.503c-.173-.169-.11-.366-.088-.423.023-.057.117-.241.358-.241h10.272c.241,0,.335.185.358.241.022.057.085.254-.088.423ZM12.052.038C5.435.038.052,5.421.052,12.038s5.383,12,12,12,12-5.383,12-12S18.669.038,12.052.038Zm0,23c-6.065,0-11-4.935-11-11S5.986,1.038,12.052,1.038s11,4.935,11,11-4.935,11-11,11Z"/>
</svg>
