<?xml version="1.0" encoding="UTF-8"?>
<svg xmlns="http://www.w3.org/2000/svg" id="Layer_1" data-name="Layer 1" viewBox="0 0 24 24">
  <path d="m6,7.807v8.693c0,.276-.224.5-.5.5s-.5-.224-.5-.5v-8.192l-1.394,1.529c-.185.205-.502.221-.706.032-.204-.186-.219-.502-.032-.706l1.732-1.901c.228-.247.574-.325.887-.206.312.122.513.417.513.751Zm18,4.193c0,6.617-5.383,12-12,12S0,18.617,0,12,5.383,0,12,0s12,5.383,12,12Zm-1,0c0-6.065-4.935-11-11-11S1,5.935,1,12s4.935,11,11,11,11-4.935,11-11Zm-8.962-.909c.668.703,1.008,1.625.957,2.597-.096,1.826-1.739,3.312-3.665,3.312-1.836,0-3.33-1.494-3.33-3.33v-2.67c0-2.206,1.794-4,4-4h1.5c.276,0,.5.224.5.5s-.224.5-.5.5h-1.5c-1.654,0-3,1.346-3,3v.053c.636-.649,1.521-1.053,2.5-1.053.969,0,1.871.388,2.538,1.091Zm-.041,2.544c.036-.694-.207-1.354-.684-1.855-.478-.503-1.121-.779-1.813-.779-1.379,0-2.5,1.121-2.5,2.5,0,1.285,1.045,2.5,2.33,2.5,1.402,0,2.599-1.061,2.667-2.365Zm7.503-2.135h-2v-2c0-.276-.224-.5-.5-.5s-.5.224-.5.5v2h-2c-.276,0-.5.224-.5.5s.224.5.5.5h2v2c0,.276.224.5.5.5s.5-.224.5-.5v-2h2c.276,0,.5-.224.5-.5s-.224-.5-.5-.5Z"/>
</svg>
