<?xml version="1.0" encoding="UTF-8"?>
<svg xmlns="http://www.w3.org/2000/svg" id="Layer_1" data-name="Layer 1" viewBox="0 0 24 24">
  <path d="m18.902,10.488l3.981-3.981c1.485-1.486,1.485-3.904,0-5.391-1.486-1.486-3.904-1.486-5.391,0l-3.981,3.982-3.365-3.365c-.946-.945-2.593-.943-3.535,0l-2.857,2.857c-.975.975-.975,2.561,0,3.536l3.134,3.134c-1.933-.472-4.023-.251-5.838.771-.565.319-.94.876-1.03,1.529-.091.67.129,1.328.605,1.804l3.653,3.653-1.131,1.131c-.195.195-.195.512,0,.707.098.098.226.146.354.146s.256-.049.354-.146l1.131-1.131,3.653,3.653c.405.405.942.625,1.506.625.099,0,.198-.007.298-.021.652-.089,1.21-.465,1.529-1.031,1.022-1.813,1.245-3.902.772-5.835l3.143,3.143c.473.472,1.101.732,1.768.732s1.296-.26,1.768-.732l2.857-2.857c.975-.975.975-2.561,0-3.536l-3.376-3.376Zm-.702-8.665c1.062-1.062,2.914-1.062,3.977,0,1.096,1.096,1.096,2.88,0,3.977l-9.91,9.91c-.389-.861-.919-1.668-1.614-2.362-.695-.695-1.502-1.224-2.363-1.613L18.2,1.823Zm-13.739,3.473l2.857-2.857c.566-.566,1.555-.566,2.121,0l3.365,3.365-4.978,4.979-3.365-3.365c-.585-.585-.585-1.537,0-2.122Zm6.639,17.162c-.164.291-.453.485-.794.531-.354.048-.708-.068-.961-.321L1.332,14.655c-.253-.253-.37-.604-.321-.961.047-.34.24-.629.53-.793,1.072-.604,2.255-.897,3.431-.897,1.821,0,3.626.704,4.974,2.051,2.219,2.218,2.693,5.674,1.154,8.403Zm10.472-5.765l-2.857,2.857c-.565.567-1.553.567-2.121,0l-3.376-3.376,4.979-4.979,3.376,3.376c.585.585.585,1.537,0,2.122Z"/>
</svg>
