<?xml version="1.0" encoding="UTF-8"?>
<svg xmlns="http://www.w3.org/2000/svg" id="Layer_1" data-name="Layer 1" viewBox="0 0 24 24">
  <path d="m23.5,10h-3c-2.481,0-4.5,2.019-4.5,4.5v4c0,2.481-2.019,4.5-4.5,4.5s-4.5-2.019-4.5-4.5v-3.523c2.799-.254,5-2.613,5-5.477v-3.5h.5c.276,0,.5-.224.5-.5s-.224-.5-.5-.5h-2.5V.5c0-.276-.224-.5-.5-.5s-.5.224-.5.5v4.5h-5V.5c0-.276-.224-.5-.5-.5s-.5.224-.5.5v4.5H.5c-.276,0-.5.224-.5.5s.224.5.5.5h.5v3.5c0,2.864,2.201,5.224,5,5.477v3.523c0,3.032,2.468,5.5,5.5,5.5s5.5-2.468,5.5-5.5v-4c0-1.93,1.57-3.5,3.5-3.5h3c.276,0,.5-.224.5-.5s-.224-.5-.5-.5Zm-21.5-.5v-3.5h9v3.5c0,2.481-2.019,4.5-4.5,4.5s-4.5-2.019-4.5-4.5Z"/>
</svg>
