<?xml version="1.0" encoding="UTF-8"?>
<svg xmlns="http://www.w3.org/2000/svg" id="Layer_1" data-name="Layer 1" viewBox="0 0 24 24">
  <path d="m12,15.999c.422,0,.845-.097,1.229-.289l2.25-1.125c.938-.47,1.521-1.412,1.521-2.46v-3.338c0-1.048-.583-1.99-1.521-2.46l-2.25-1.125c-.77-.385-1.689-.385-2.459,0l-2.25,1.125c-.938.47-1.521,1.412-1.521,2.46v3.338c0,1.048.583,1.99,1.521,2.46l2.25,1.125c.385.192.808.289,1.229.289Zm-.782-9.902c.245-.122.514-.184.782-.184s.537.062.782.184l2.25,1.125c.135.068.259.151.369.247l-2.76,1.38c-.402.201-.881.201-1.283,0l-2.76-1.38c.11-.096.234-.179.369-.247l2.25-1.125Zm-3.218,6.028v-3.338c0-.161.022-.318.063-.468l2.848,1.424c.341.17.715.256,1.089.256s.748-.086,1.089-.256l2.848-1.424c.041.15.063.307.063.468v3.338c0,.667-.371,1.267-.968,1.565l-2.25,1.125c-.49.244-1.074.244-1.564,0l-2.25-1.125c-.597-.299-.968-.898-.968-1.565Zm11.5,10.875h-4.443c.192-.142.376-.297.549-.467l4.171-3.949c4.308-4.308,4.308-11.055,0-15.362-2.077-2.077-4.84-3.222-7.777-3.222s-5.701,1.145-7.778,3.222C-.086,7.529-.086,14.276,4.231,18.594l4.156,3.934c.176.172.362.329.556.473h-4.444c-.276,0-.5.224-.5.5s.224.5.5.5h15c.276,0,.5-.224.5-.5s-.224-.5-.5-.5Zm-14.571-5.123c-3.911-3.911-3.911-10.037,0-13.948,1.889-1.889,4.4-2.929,7.071-2.929s5.182,1.04,7.07,2.929c3.911,3.911,3.911,10.037.01,13.938l-4.167,3.945c-1.564,1.531-4.256,1.537-5.832-.006l-4.152-3.93Z"/>
</svg>
