<?xml version="1.0" encoding="UTF-8"?>
<svg xmlns="http://www.w3.org/2000/svg" id="Layer_1" data-name="Layer 1" viewBox="0 0 24 24">
  <path d="m17.5,14c-1.378,0-2.5,1.122-2.5,2.5s1.122,2.5,2.5,2.5,2.5-1.122,2.5-2.5-1.122-2.5-2.5-2.5Zm0,4c-.827,0-1.5-.673-1.5-1.5s.673-1.5,1.5-1.5,1.5.673,1.5,1.5-.673,1.5-1.5,1.5Z"/>
  <path d="m7.5,11c-1.93,0-3.5,1.57-3.5,3.5s1.57,3.5,3.5,3.5,3.5-1.57,3.5-3.5-1.57-3.5-3.5-3.5Zm0,6c-1.378,0-2.5-1.122-2.5-2.5s1.122-2.5,2.5-2.5,2.5,1.122,2.5,2.5-1.122,2.5-2.5,2.5Z"/>
  <path d="m22.103,6.896L13.512.804c-1.663-1.108-3.83-1.068-5.393.1C2.667,4.98,1.05,10.534.984,10.768c-.002.007-.004.015-.005.022-.485,1.296-.979,3.127-.979,5.209,0,2.372.641,4.42,1.179,5.719.573,1.386,1.918,2.281,3.428,2.281h5.393c.649,0,1-.515,1-1,0-.564.24-1.105.659-1.483.424-.384.98-.566,1.549-.506,1.039.104,1.792.94,1.792,1.989,0,.485.351,1,1,1h4c2.206,0,4-1.794,4-4v-9.433c0-1.456-.709-2.828-1.897-3.67ZM8.718,1.705c.63-.471,1.388-.707,2.151-.707.72,0,1.446.21,2.076.63l8.579,6.084c.125.089.243.185.354.288H4.607c-.524,0-1.029.108-1.488.307,1.011-1.909,2.766-4.484,5.599-6.602Zm14.282,18.295c0,1.654-1.346,3-3,3h-4c0-1.574-1.132-2.829-2.692-2.984-.101-.01-.201-.015-.301-.015-.744,0-1.466.274-2.019.774-.628.568-.988,1.379-.988,2.225h-5.393c-1.104,0-2.086-.653-2.504-1.663-.503-1.216-1.103-3.129-1.103-5.337s.6-4.121,1.103-5.337c.418-1.01,1.401-1.663,2.504-1.663h18.021c.241.48.371,1.016.371,1.567v9.433Z"/>
</svg>
