<?xml version="1.0" encoding="UTF-8"?>
<svg xmlns="http://www.w3.org/2000/svg" id="Layer_1" data-name="Layer 1" viewBox="0 0 24 24">
  <path d="m12,9c-4.136,0-7.5,3.364-7.5,7.5s3.364,7.5,7.5,7.5,7.5-3.364,7.5-7.5-3.364-7.5-7.5-7.5Zm0,14c-3.584,0-6.5-2.916-6.5-6.5s2.916-6.5,6.5-6.5,6.5,2.916,6.5,6.5-2.916,6.5-6.5,6.5ZM24,6.504v12.996c0,2.481-2.019,4.5-4.5,4.5h-1c-.276,0-.5-.224-.5-.5s.224-.5.5-.5h1c1.93,0,3.5-1.57,3.5-3.5v-10.5h-5.5c-.276,0-.5-.224-.5-.5s.224-.5.5-.5h5.5v-1.496c0-1.93-1.57-3.5-3.5-3.5H4.5c-1.93,0-3.5,1.57-3.5,3.5v1.496h5.5c.276,0,.5.224.5.5s-.224.5-.5.5H1v10.5c0,1.93,1.57,3.5,3.5,3.5h1c.276,0,.5.224.5.5s-.224.5-.5.5h-1c-2.481,0-4.5-2.019-4.5-4.5V6.504C0,4.022,2.019,2.004,4.5,2.004h1.5V.5c0-.276.224-.5.5-.5s.5.224.5.5v1.504h10V.5c0-.276.224-.5.5-.5s.5.224.5.5v1.504h1.5c2.481,0,4.5,2.019,4.5,4.5Zm-14.5,7.891c0,.685.49,1.263,1.166,1.375l2.833.473c1.159.193,2.001,1.186,2.001,2.362,0,1.321-1.074,2.395-2.395,2.395h-.605v.5c0,.276-.224.5-.5.5s-.5-.224-.5-.5v-.5h-.5c-1.378,0-2.5-1.122-2.5-2.5,0-.276.224-.5.5-.5s.5.224.5.5c0,.827.673,1.5,1.5,1.5h2.105c.769,0,1.395-.626,1.395-1.395,0-.685-.49-1.263-1.165-1.375l-2.833-.473c-1.16-.192-2.001-1.186-2.001-2.362,0-1.321,1.074-2.395,2.395-2.395h.605v-.5c0-.276.224-.5.5-.5s.5.224.5.5v.5h.5c1.379,0,2.5,1.122,2.5,2.5,0,.276-.224.5-.5.5s-.5-.224-.5-.5c0-.827-.673-1.5-1.5-1.5h-2.105c-.769,0-1.395.626-1.395,1.395Z"/>
</svg>
