<?xml version="1.0" encoding="UTF-8"?>
<svg xmlns="http://www.w3.org/2000/svg" id="Layer_1" data-name="Layer 1" viewBox="0 0 24 24">
  <path d="m20,15c.552,0,1,.448,1,1s-.448,1-1,1-1-.448-1-1,.448-1,1-1Zm2.751-6.665c-.238-.139-.545-.058-.684.182-.144.248-.05.57.211.699.49.243.722.82.722,1.367v10.917c0,.828-.672,1.5-1.5,1.5H4.5c-1.933,0-3.5-1.567-3.5-3.5v-11c0-.349.067-.679.162-.997.845.935,2.053,1.497,3.338,1.497h12c.276,0,.5-.224.5-.5s-.224-.5-.5-.5H4.5c-1.145,0-2.214-.571-2.864-1.5.633-.904,1.679-1.5,2.864-1.5h9c.276,0,.5-.224.5-.5s-.224-.5-.5-.5H4.5C2.015,4,0,6.015,0,8.5v11c0,2.485,2.015,4.5,4.5,4.5h17c1.381,0,2.5-1.119,2.5-2.5v-11c0-.889-.479-1.719-1.249-2.165Zm-6.751-4.335c.126,0,.252-.047.349-.142l2.651-2.582v7.224c0,.276.224.5.5.5s.5-.224.5-.5V1.313l2.653,2.548c.2.19.517.187.707-.015.191-.199.186-.516-.014-.707l-2.806-2.694c-.232-.232-.679-.445-1.041-.445s-.831.196-1.075.44l-2.773,2.701c-.198.193-.202.509-.01.707.099.101.229.151.358.151Z"/>
</svg>
