<?xml version="1.0" encoding="UTF-8"?>
<svg xmlns="http://www.w3.org/2000/svg" id="Layer_1" data-name="Layer 1" viewBox="0 0 24 24">
  <path d="m23.682,22.975c.207-.336.318-.723.318-1.129,0-.709-.375-1.428-1.146-2.2-.854-.854-.854-1.416-.854-2.646v-9c0-4.486-1.757-8-4-8H4.5c-.908,0-1.761.448-2.491,1.302L.854.146C.658-.049.342-.049.146.146S-.049.658.146.854l23,23c.098.098.226.146.354.146s.256-.049.354-.146c.195-.195.195-.512,0-.707l-.172-.172Zm-.682-1.129c0,.132-.022.261-.065.382l-6.228-6.228h1.293c1.207,0,2.273-1.017,3-2.656v3.656c0,1.281,0,2.207,1.146,3.354.574.574.854,1.062.854,1.493ZM18,1c1.419,0,3,2.875,3,7s-1.581,7-3,7-3-2.875-3-7,1.581-7,3-7Zm-13.5,0h11.535c-1.224,1.353-2.035,3.952-2.035,7s.811,5.647,2.035,7h-.328L2.719,2.012c.422-.511,1.027-1.012,1.781-1.012Zm15.5,22.5c0,.276-.224.5-.5.5h-8.5c-2.206,0-4-1.794-4-4v-4h-2.5c-2.523,0-4.5-3.514-4.5-8,0-1.264.166-2.521.48-3.636.075-.265.354-.418.617-.346.266.075.42.351.346.617-.29,1.028-.443,2.191-.443,3.364,0,3.794,1.603,7,3.5,7h7.5c.276,0,.5.224.5.5s-.224.5-.5.5h-4v4c0,1.654,1.346,3,3,3h8.5c.276,0,.5.224.5.5Zm-3-15.5c0-.828.448-1.5,1-1.5s1,.672,1,1.5-.448,1.5-1,1.5-1-.672-1-1.5Z"/>
</svg>
