<?xml version="1.0" encoding="UTF-8"?>
<svg xmlns="http://www.w3.org/2000/svg" id="Layer_1" data-name="Layer 1" viewBox="0 0 24 24">
  <path d="m21.33,1.533c-.321-.454-.878-.642-1.415-.48-.552.167-.92.643-.938,1.214-.131,4.101-1.05,6.862-4.859,7.559.242-.385.383-.84.383-1.327v-3.151c0-.31-.375-.466-.595-.246l-1.049,1.049c-.267-.098-.556-.151-.857-.151s-.589.053-.857.151l-1.049-1.049c-.219-.219-.595-.064-.595.246v3.151c0,.487.141.942.383,1.327-3.809-.697-4.728-3.458-4.859-7.559-.019-.571-.387-1.048-.938-1.214-.536-.163-1.094.026-1.415.48C.864,4.071-.052,8.825.002,12.008c.013.747.219,2.857.341,4.048.043.421.334.773.741.897.401.122.823,0,1.093-.324.283-.339.815-.63,1.054-.63,1.283,0,1.796,2.099,2.042,3.107l.043.175c.082.331.337.593.665.684.328.089.681-.004.922-.247.438-.443,1.157-.719,1.348-.719h.002c.688.009,1.19.36,1.578,1.102.292,1.254.623,2.363.93,3.08.217.505.692.818,1.24.818s1.023-.313,1.24-.819c.298-.696.62-1.763.905-2.974.395-.814.912-1.198,1.626-1.207.205.012.91.299,1.327.719.24.242.593.337.92.247.328-.09.583-.351.667-.684l.041-.167c.246-1.011.759-3.115,2.094-3.115.221,0,.707.275,1.003.63.27.324.69.444,1.093.324.407-.125.698-.477.741-.897.098-.951.327-3.25.341-4.048.054-3.184-.862-7.937-2.668-10.475Zm-11.874,16.756c-.355-.186-.753-.283-1.191-.289-.585-.008-1.53.467-1.979,1.041l-.042-.171c-.283-1.158-.945-3.87-3.014-3.87-.624,0-1.416.504-1.894.955-.204-2-.326-3.444-.335-3.963-.044-2.591.697-7.368,2.482-9.879.101-.14.238-.125.312-.102.052.016.221.083.228.289.127,3.983.971,7.704,5.803,8.53-.457.742-.827,1.774-.827,3.17,0,1.227.183,2.777.456,4.289Zm2.544-11.289c.827,0,1.5.673,1.5,1.5,0,.793-.619,1.444-1.4,1.496-.067.003-.134.003-.201,0-.781-.052-1.4-.703-1.4-1.496,0-.827.673-1.5,1.5-1.5Zm.32,15.787c-.082.192-.251.213-.32.213s-.238-.021-.32-.212c-.677-1.578-1.68-5.963-1.68-8.788,0-1.456.465-2.423.952-3.036.333.024.682.036,1.048.036s.715-.012,1.048-.036c.486.613.952,1.58.952,3.036,0,2.824-1.003,7.209-1.68,8.787Zm10.678-10.795c-.009.527-.134,2.008-.407,3.999-.409-.492-1.149-.991-1.771-.991-2.046,0-2.816,2.678-3.122,3.91-.556-.505-1.404-.91-1.928-.91h-.013c-.449.006-.855.108-1.217.305.275-1.518.459-3.075.459-4.305,0-1.396-.37-2.428-.827-3.17,4.832-.826,5.676-4.547,5.803-8.53.007-.207.176-.273.228-.289.073-.022.212-.039.312.102,1.785,2.511,2.526,7.289,2.482,9.879Z"/>
</svg>
