<?xml version="1.0" encoding="UTF-8"?>
<svg xmlns="http://www.w3.org/2000/svg" id="Layer_1" data-name="Layer 1" viewBox="0 0 24 24">
  <path d="m9,12c3.309,0,6-2.691,6-6S12.309,0,9,0,3,2.691,3,6s2.691,6,6,6Zm0-11c2.757,0,5,2.243,5,5s-2.243,5-5,5-5-2.243-5-5S6.243,1,9,1Zm12.5,13h-6c-1.378,0-2.5,1.121-2.5,2.5v5c0,1.379,1.122,2.5,2.5,2.5h6c1.378,0,2.5-1.121,2.5-2.5v-5c0-1.379-1.122-2.5-2.5-2.5Zm1.5,7.5c0,.827-.673,1.5-1.5,1.5h-6c-.827,0-1.5-.673-1.5-1.5v-5c0-.827.673-1.5,1.5-1.5h6c.827,0,1.5.673,1.5,1.5v5Zm-3-4c0,.276-.224.5-.5.5h-2c-.276,0-.5-.224-.5-.5s.224-.5.5-.5h2c.276,0,.5.224.5.5Zm-9.177-.424c.211.179.237.494.059.705l-.482.57c-.698.824-2.101.824-2.799,0l-2.134-2.522c-.348-.413-.959-.467-1.394-.129-1.953,1.528-3.073,3.824-3.073,6.3v1.5c0,.276-.224.5-.5.5s-.5-.224-.5-.5v-1.5c0-2.785,1.26-5.368,3.457-7.087.858-.674,2.077-.554,2.773.27l2.134,2.522c.316.375.955.375,1.271,0l.482-.57c.179-.209.494-.236.705-.059Z"/>
</svg>
