<?xml version="1.0" encoding="UTF-8"?>
<svg xmlns="http://www.w3.org/2000/svg" id="Layer_1" data-name="Layer 1" viewBox="0 0 24 24">
  <path d="m21.547,1.99h0c-.349-.512-.876-.845-1.486-.937-.622-.095-1.267.082-1.768.483-1.915,1.529-3.816,2.333-5.793,2.448v-1.485c0-.276-.224-.5-.5-.5s-.5.224-.5.5v1.484c-2.076-.123-4.265-.999-6.079-2.448-.501-.401-1.148-.576-1.769-.483-.609.092-1.137.424-1.486.937C.569,4.336,0,7.673,0,10.014c0,2.67,1.015,5.98,2.468,8.05.35.497.871.82,1.469.911.109.017.22.025.33.025.504,0,1.006-.17,1.415-.487,2.009-1.555,3.918-2.374,5.819-2.497v7.483c0,.276.224.5.5.5s.5-.224.5-.5v-7.485c2.703.164,4.963,1.613,6.106,2.498.498.385,1.13.555,1.744.462.598-.09,1.119-.414,1.469-.911,1.609-2.292,2.181-5.769,2.181-8.05,0-2.646-.985-5.871-2.453-8.024ZM5.069,17.722c-.283.22-.641.316-.983.264-.325-.049-.609-.226-.799-.497-1.346-1.917-2.287-4.991-2.287-7.476,0-2.754.782-5.683,1.993-7.461.19-.279.478-.46.809-.51.061-.009.122-.014.183-.014.29,0,.578.101.813.289,1.99,1.589,4.406,2.546,6.703,2.668v10.029c-2.126.12-4.235,1.009-6.431,2.708Zm15.932-.233c-.19.271-.475.448-.799.497-.34.052-.699-.044-.983-.264-1.245-.964-3.722-2.546-6.719-2.708V4.987c2.211-.114,4.315-.99,6.417-2.669.284-.227.648-.326.995-.275.332.05.619.231.809.51,1.363,2.001,2.279,5,2.279,7.461,0,2.812-.785,5.746-1.999,7.475Z"/>
</svg>
