<?xml version="1.0" encoding="UTF-8"?>
<svg xmlns="http://www.w3.org/2000/svg" id="Layer_1" data-name="Layer 1" viewBox="0 0 24 24">
  <path d="m21.077,4.609L13.894.502c-1.168-.666-2.619-.666-3.787,0L2.923,4.609c-1.186.678-1.923,1.947-1.923,3.313v8.154c0,1.366.737,2.636,1.923,3.314l7.184,4.106c.584.333,1.238.499,1.893.499s1.31-.166,1.894-.499l7.184-4.107c1.187-.678,1.923-1.947,1.923-3.313V7.923c0-1.366-.736-2.636-1.923-3.313Zm-17.658.868L10.603,1.371c.862-.493,1.932-.491,2.794,0l7.184,4.105c.285.163.519.384.726.628l-3.978,2.274c-.196-.228-.417-.436-.685-.59l-3.3-1.895c-.83-.477-1.86-.477-2.689,0l-3.3,1.895c-.268.154-.488.362-.685.59l-3.978-2.274c.207-.243.441-.464.726-.627Zm13.581,4.653v3.75c0,.608-.328,1.175-.856,1.477l-3.3,1.886c-.109.063-.226.104-.344.141v-5.093l4.449-2.543c.029.125.051.252.051.383Zm-10,0c0-.131.022-.258.051-.383l4.449,2.543v5.093c-.118-.036-.235-.078-.344-.141l-3.299-1.885c-.529-.303-.857-.869-.857-1.478v-3.75Zm5,1.293l-4.444-2.54c.092-.084.187-.165.298-.228l3.3-1.895c.261-.15.554-.225.846-.225s.585.074.847.225l3.3,1.895c.11.063.206.144.298.228l-4.444,2.54Zm-8.581,7.1c-.875-.501-1.419-1.438-1.419-2.446V7.923c0-.333.078-.65.189-.954l3.98,2.275c-.1.284-.17.578-.17.887v3.75c0,.966.521,1.864,1.36,2.346l3.3,1.886c.263.15.549.235.84.289v4.532c-.311-.056-.616-.144-.897-.305l-7.184-4.105Zm18.581-2.446c0,1.008-.544,1.945-1.419,2.446l-7.184,4.105c-.281.161-.586.249-.897.305v-4.532c.291-.055.577-.139.84-.289l3.3-1.887c.839-.48,1.36-1.379,1.36-2.345v-3.75c0-.309-.07-.603-.17-.887l3.981-2.275c.111.304.189.621.189.954v8.154Z"/>
</svg>
