<?xml version="1.0" encoding="UTF-8"?>
<svg xmlns="http://www.w3.org/2000/svg" id="Layer_1" data-name="Layer 1" viewBox="0 0 24 24">
  <path d="m24,10.369v4.131c0,.276-.224.5-.5.5s-.5-.224-.5-.5v-4.131c0-1.083-.489-2.088-1.344-2.757L14.156,1.744c-1.27-.993-3.043-.993-4.312,0L2.344,7.612c-.854.668-1.344,1.673-1.344,2.757v4.131c0,.276-.224.5-.5.5s-.5-.224-.5-.5v-4.131c0-1.393.63-2.685,1.727-3.544L9.227.957c1.633-1.278,3.912-1.278,5.547,0l7.5,5.869c1.097.859,1.727,2.151,1.727,3.544Zm-12.2,7.931v3.4c0,1.268-1.031,2.3-2.3,2.3s-2.3-1.032-2.3-2.3v-3.4c0-1.268,1.031-2.3,2.3-2.3s2.3,1.032,2.3,2.3Zm-1,0c0-.717-.583-1.3-1.3-1.3s-1.3.583-1.3,1.3v3.4c0,.717.583,1.3,1.3,1.3s1.3-.583,1.3-1.3v-3.4Zm11.7,0v3.4c0,1.268-1.031,2.3-2.3,2.3h-1.2c-.552,0-1-.449-1-1v-6c0-.551.448-1,1-1h1.2c1.269,0,2.3,1.032,2.3,2.3Zm-1,0c0-.717-.583-1.3-1.3-1.3h-1.2v6h1.2c.717,0,1.3-.583,1.3-1.3v-3.4Zm-17.152,1.232c-.31-.117-1.188-.466-1.523-.67-.325-.231-.477-.568-.427-.948.053-.399.315-.723.687-.845.557-.185,1.119-.008,1.769.553.209.181.524.158.705-.05.181-.209.158-.525-.051-.706-.914-.792-1.834-1.043-2.735-.747-.739.244-1.262.881-1.366,1.666-.098.754.208,1.443.88,1.917.491.305,1.587.721,1.699.763,1.052.425,1.013,1.204.976,1.432-.104.64-.669,1.104-1.343,1.104-.524,0-1.348-.368-1.762-.787-.193-.197-.51-.199-.707-.005-.196.194-.198.511-.004.707.526.533,1.595,1.085,2.473,1.085,1.167,0,2.146-.818,2.329-1.944.133-.812-.204-1.96-1.599-2.523Zm12.152,3.468h-2c-.275,0-.5-.224-.5-.5v-6c0-.276-.224-.5-.5-.5s-.5.224-.5.5v6c0,.827.673,1.5,1.5,1.5h2c.276,0,.5-.224.5-.5s-.224-.5-.5-.5Z"/>
</svg>
