<?xml version="1.0" encoding="UTF-8"?>
<svg xmlns="http://www.w3.org/2000/svg" id="Layer_1" data-name="Layer 1" viewBox="0 0 24 24">
  <path d="m23.152.848c-2.193-2.191-8.462.077-13.151,4.766l-4.388,4.388C.925,14.689-1.347,20.958.848,23.152c.574.573,1.425.842,2.455.842,2.909,0,7.234-2.145,10.697-5.607l4.388-4.388c4.688-4.688,6.96-10.957,4.766-13.151Zm-5.473,12.444l-4.388,4.388c-4.443,4.443-10.167,6.335-11.737,4.766-1.242-1.243-.308-5.09,2.338-8.845l2.753,2.753c.098.098.226.146.354.146s.256-.049.354-.146c.195-.195.195-.512,0-.707l-2.858-2.858c.551-.71,1.155-1.41,1.825-2.08l1.84-1.84,2.986,2.986c.098.098.226.146.354.146s.256-.049.354-.146c.195-.195.195-.512,0-.707l-2.986-2.986,1.841-1.841c.672-.672,1.375-1.267,2.087-1.819l2.852,2.852c.098.098.226.146.354.146s.256-.049.354-.146c.195-.195.195-.512,0-.707l-2.751-2.751c2.645-1.864,5.336-2.885,7.129-2.885.752,0,1.347.178,1.714.545,1.569,1.569-.322,7.293-4.766,11.737Z"/>
</svg>
