<?xml version="1.0" encoding="UTF-8"?>
<svg xmlns="http://www.w3.org/2000/svg" id="Layer_1" data-name="Layer 1" viewBox="0 0 24 24">
  <path d="m15.15,18.439l3.203-3.203c.121-.121.171-.295.135-.462-.037-.167-.157-.303-.317-.361l-9.129-3.32c-.555-.202-1.174-.065-1.593.354-.42.421-.555,1.029-.352,1.589l3.32,9.131c.058.16.195.28.361.317.256.025.367-.04.462-.135l3.202-3.202,4.703,4.708c.098.098.226.146.354.146s.256-.049.354-.146c.195-.195.195-.512,0-.707l-4.703-4.708Zm-4.061,2.647l-3.052-8.394c-.072-.198-.03-.391.119-.54.1-.101.227-.155.356-.155.062,0,.125.012.188.034l8.391,3.052-6.002,6.003ZM6.959,7.896c.037-.229.076-1.006-.975-1.431-.112-.042-1.208-.459-1.699-.764-.662-.466-.976-1.173-.879-1.916.103-.784.626-1.422,1.365-1.665.903-.298,1.821-.045,2.736.746.208.181.231.497.05.705-.182.21-.497.231-.706.051-.648-.562-1.208-.737-1.768-.553-.372.122-.634.446-.687.846-.049.38.103.717.427.946.334.205,1.214.555,1.524.672,1.394.563,1.73,1.71,1.599,2.522-.183,1.127-1.163,1.945-2.329,1.945-.878,0-1.948-.552-2.474-1.086-.194-.196-.192-.513.005-.707.197-.193.513-.191.707.006.414.419,1.237.787,1.762.787.673,0,1.238-.465,1.342-1.105Zm3.041-4.896v2.5h2.5c.276,0,.5.224.5.501s-.224.5-.5.5h-2.5s0,2.499,0,2.499h2.5c.276,0,.5.224.5.5s-.224.5-.5.5h-2.5c-.551,0-1-.448-1-1V3c0-.552.449-1,1-1h2.5c.276,0,.5.224.5.5s-.224.5-.5.5h-2.5Zm14,1v4.001c0,1.068-.417,2.073-1.172,2.829-.755.755-1.759,1.171-2.827,1.171h-4c-.276,0-.5-.225-.5-.501s.224-.5.5-.5h3.999s.001,0,.001,0c.801,0,1.554-.312,2.121-.878.567-.567.879-1.32.879-2.122v-4.001c0-1.654-1.346-3-3-3H4c-1.654,0-3,1.346-3,3v4c0,.802.312,1.556.88,2.123.566.565,1.319.877,2.119.877h.501c.276,0,.5.224.5.5s-.224.5-.5.5h-.502c-1.066,0-2.07-.415-2.825-1.17-.756-.756-1.173-1.761-1.173-2.83v-4C0,1.794,1.794,0,4,0h16c2.206,0,4,1.794,4,4Zm-5-1.5v6.5h1.5c.276,0,.5.224.5.5s-.224.5-.5.5h-1.5c-.551,0-1-.448-1-1V2.5c0-.276.224-.5.5-.5s.5.224.5.5Zm-4,0v6.5h1.5c.276,0,.5.224.5.5s-.224.5-.5.5h-1.5c-.551,0-1-.448-1-1V2.5c0-.276.224-.5.5-.5s.5.224.5.5Z"/>
</svg>
